<?xml version="1.0" encoding="utf-8" standalone="no"?>
<!DOCTYPE svg PUBLIC "-//W3C//DTD SVG 1.1//EN"
  "http://www.w3.org/Graphics/SVG/1.1/DTD/svg11.dtd">
<svg xmlns:xlink="http://www.w3.org/1999/xlink" width="460.8pt" height="345.6pt" viewBox="0 0 460.8 345.6" xmlns="http://www.w3.org/2000/svg" version="1.1">
 <metadata>
  <rdf:RDF xmlns:dc="http://purl.org/dc/elements/1.1/" xmlns:cc="http://creativecommons.org/ns#" xmlns:rdf="http://www.w3.org/1999/02/22-rdf-syntax-ns#">
   <cc:Work>
    <dc:type rdf:resource="http://purl.org/dc/dcmitype/StillImage"/>
    <dc:date>2023-01-17T14:53:43.672905</dc:date>
    <dc:format>image/svg+xml</dc:format>
    <dc:creator>
     <cc:Agent>
      <dc:title>Matplotlib v3.6.3, https://matplotlib.org/</dc:title>
     </cc:Agent>
    </dc:creator>
   </cc:Work>
  </rdf:RDF>
 </metadata>
 <defs>
  <style type="text/css">*{stroke-linejoin: round; stroke-linecap: butt}</style>
 </defs>
 <g id="figure_1">
  <g id="patch_1">
   <path d="M 0 345.6 
L 460.8 345.6 
L 460.8 0 
L 0 0 
z
" style="fill: #ffffff"/>
  </g>
  <g id="axes_1">
   <g id="patch_2">
    <path d="M 57.6 307.584 
L 219.927273 307.584 
L 219.927273 41.472 
L 57.6 41.472 
z
" style="fill: #ffffff"/>
   </g>
   <g id="Quiver_1">
    <path d="M 65.173312 295.09045 
L 74.266268 299.545999 
L 74.258317 298.556099 
L 77.649419 301.696744 
L 73.089521 300.941399 
L 73.87667 300.341099 
L 64.783713 295.88555 
L 65.173312 295.09045 
" clip-path="url(#p9efb827959)"/>
    <path d="M 79.96677 295.110476 
L 86.705783 299.238122 
L 86.790726 298.251842 
L 89.872262 301.696744 
L 85.403327 300.516983 
L 86.243317 299.993169 
L 79.504304 295.865524 
L 79.96677 295.110476 
" clip-path="url(#p9efb827959)"/>
    <path d="M 94.772592 295.145106 
L 99.289092 298.833582 
L 99.506258 297.867764 
L 102.095106 301.696744 
L 97.826079 299.925127 
L 98.729033 299.519369 
L 94.212532 295.830894 
L 94.772592 295.145106 
" clip-path="url(#p9efb827959)"/>
    <path d="M 109.592538 295.20804 
L 112.141261 298.330227 
L 112.547203 297.427356 
L 114.317949 301.696744 
L 110.489498 299.107115 
L 111.45536 298.890146 
L 108.906636 295.76796 
L 109.592538 295.20804 
" clip-path="url(#p9efb827959)"/>
    <path d="M 124.416494 295.320701 
L 125.444984 297.840501 
L 126.09745 297.09602 
L 126.540793 301.696744 
L 123.638154 298.099814 
L 124.625219 298.175099 
L 123.596729 295.655299 
L 124.416494 295.320701 
" clip-path="url(#p9efb827959)"/>
    <path d="M 139.206347 295.488 
L 139.206347 297.712347 
L 140.091769 297.269637 
L 138.763636 301.696744 
L 137.435504 297.269637 
L 138.320926 297.712347 
L 138.320926 295.488 
L 139.206347 295.488 
" clip-path="url(#p9efb827959)"/>
    <path d="M 153.930544 295.655299 
L 152.902054 298.175099 
L 153.889119 298.099814 
L 150.98648 301.696744 
L 151.429822 297.09602 
L 152.082289 297.840501 
L 153.110778 295.320701 
L 153.930544 295.655299 
" clip-path="url(#p9efb827959)"/>
    <path d="M 168.620637 295.76796 
L 166.071913 298.890146 
L 167.037775 299.107115 
L 163.209323 301.696744 
L 164.98007 297.427356 
L 165.386011 298.330227 
L 167.934735 295.20804 
L 168.620637 295.76796 
" clip-path="url(#p9efb827959)"/>
    <path d="M 183.314741 295.830894 
L 178.79824 299.519369 
L 179.701194 299.925127 
L 175.432167 301.696744 
L 178.021014 297.867764 
L 178.23818 298.833582 
L 182.754681 295.145106 
L 183.314741 295.830894 
" clip-path="url(#p9efb827959)"/>
    <path d="M 198.022969 295.865524 
L 191.283956 299.993169 
L 192.123946 300.516983 
L 187.655011 301.696744 
L 190.736547 298.251842 
L 190.821489 299.238122 
L 197.560502 295.110476 
L 198.022969 295.865524 
" clip-path="url(#p9efb827959)"/>
    <path d="M 212.74356 295.88555 
L 203.650603 300.341099 
L 204.437752 300.941399 
L 199.877854 301.696744 
L 203.268955 298.556099 
L 203.261004 299.545999 
L 212.353961 295.09045 
L 212.74356 295.88555 
" clip-path="url(#p9efb827959)"/>
    <path d="M 65.140085 270.883826 
L 74.101426 274.396672 
L 74.012397 273.410752 
L 77.649419 276.262995 
L 73.042964 275.883795 
L 73.778282 275.22102 
L 64.81694 271.708174 
L 65.140085 270.883826 
" clip-path="url(#p9efb827959)"/>
    <path d="M 79.930337 270.89845 
L 86.489112 274.11225 
L 86.481161 273.122351 
L 89.872262 276.262995 
L 85.312364 275.50765 
L 86.099513 274.90735 
L 79.540738 271.69355 
L 79.930337 270.89845 
" clip-path="url(#p9efb827959)"/>
    <path d="M 94.734702 270.925378 
L 99.001643 273.713113 
L 99.115301 272.729728 
L 102.095106 276.262995 
L 97.662461 274.953462 
L 98.517363 274.454358 
L 94.250422 271.666622 
L 94.734702 270.925378 
" clip-path="url(#p9efb827959)"/>
    <path d="M 109.559453 270.97981 
L 111.782108 273.158012 
L 112.08565 272.215767 
L 114.317949 276.262995 
L 110.226455 274.112905 
L 111.162376 273.790392 
L 108.939721 271.61219 
L 109.559453 270.97981 
" clip-path="url(#p9efb827959)"/>
    <path d="M 124.400961 271.094801 
L 125.124353 272.512648 
L 125.711853 271.7159 
L 126.540793 276.262995 
L 123.345754 272.923093 
L 124.335653 272.915045 
L 123.612262 271.497199 
L 124.400961 271.094801 
" clip-path="url(#p9efb827959)"/>
    <path d="M 139.206347 271.296 
L 139.206347 272.278599 
L 140.091769 271.835888 
L 138.763636 276.262995 
L 137.435504 271.835888 
L 138.320926 272.278599 
L 138.320926 271.296 
L 139.206347 271.296 
" clip-path="url(#p9efb827959)"/>
    <path d="M 153.915011 271.497199 
L 153.19162 272.915045 
L 154.181519 272.923093 
L 150.98648 276.262995 
L 151.815419 271.7159 
L 152.40292 272.512648 
L 153.126311 271.094801 
L 153.915011 271.497199 
" clip-path="url(#p9efb827959)"/>
    <path d="M 168.587552 271.61219 
L 166.364897 273.790392 
L 167.300818 274.112905 
L 163.209323 276.262995 
L 165.441623 272.215767 
L 165.745165 273.158012 
L 167.96782 270.97981 
L 168.587552 271.61219 
" clip-path="url(#p9efb827959)"/>
    <path d="M 183.276851 271.666622 
L 179.009909 274.454358 
L 179.864812 274.953462 
L 175.432167 276.262995 
L 178.411972 272.729728 
L 178.525629 273.713113 
L 182.792571 270.925378 
L 183.276851 271.666622 
" clip-path="url(#p9efb827959)"/>
    <path d="M 197.986535 271.69355 
L 191.42776 274.90735 
L 192.214909 275.50765 
L 187.655011 276.262995 
L 191.046112 273.122351 
L 191.038161 274.11225 
L 197.596936 270.89845 
L 197.986535 271.69355 
" clip-path="url(#p9efb827959)"/>
    <path d="M 212.710332 271.708174 
L 203.748991 275.22102 
L 204.484309 275.883795 
L 199.877854 276.262995 
L 203.514876 273.410752 
L 203.425846 274.396672 
L 212.387188 270.883826 
L 212.710332 271.708174 
" clip-path="url(#p9efb827959)"/>
    <path d="M 65.103384 246.679265 
L 73.951676 249.280663 
L 73.776685 248.306321 
L 77.649419 250.829246 
L 73.027453 250.854731 
L 73.701932 250.130133 
L 64.85364 247.528735 
L 65.103384 246.679265 
" clip-path="url(#p9efb827959)"/>
    <path d="M 79.888248 246.688461 
L 86.285125 249.039314 
L 86.175007 248.055526 
L 89.872262 250.829246 
L 85.258745 250.548758 
L 85.979704 249.870391 
L 79.582827 247.519539 
L 79.888248 246.688461 
" clip-path="url(#p9efb827959)"/>
    <path d="M 94.687361 246.70645 
L 98.711956 248.678501 
L 98.704005 247.688602 
L 102.095106 250.829246 
L 97.535208 250.073902 
L 98.322357 249.473601 
L 94.297763 247.50155 
L 94.687361 246.70645 
" clip-path="url(#p9efb827959)"/>
    <path d="M 109.511776 246.74728 
L 111.369655 248.11282 
L 111.537314 247.13719 
L 114.317949 250.829246 
L 109.964176 249.277513 
L 110.845276 248.826261 
L 108.987397 247.46072 
L 109.511776 246.74728 
" clip-path="url(#p9efb827959)"/>
    <path d="M 124.372654 246.854991 
L 124.665757 247.285851 
L 125.148834 246.421791 
L 126.540793 250.829246 
L 122.952576 247.915844 
L 123.933671 247.783869 
L 123.640569 247.353009 
L 124.372654 246.854991 
" clip-path="url(#p9efb827959)"/>
    <path d="M 139.136161 247.104 
L 139.136161 247.476525 
L 139.88121 247.104 
L 138.763636 250.829246 
L 137.646062 247.104 
L 138.391112 247.476525 
L 138.391112 247.104 
L 139.136161 247.104 
" clip-path="url(#p9efb827959)"/>
    <path d="M 153.886704 247.353009 
L 153.593602 247.783869 
L 154.574697 247.915844 
L 150.98648 250.829246 
L 152.378439 246.421791 
L 152.861516 247.285851 
L 153.154618 246.854991 
L 153.886704 247.353009 
" clip-path="url(#p9efb827959)"/>
    <path d="M 168.539875 247.46072 
L 166.681997 248.826261 
L 167.563096 249.277513 
L 163.209323 250.829246 
L 165.989959 247.13719 
L 166.157618 248.11282 
L 168.015496 246.74728 
L 168.539875 247.46072 
" clip-path="url(#p9efb827959)"/>
    <path d="M 183.22951 247.50155 
L 179.204916 249.473601 
L 179.992065 250.073902 
L 175.432167 250.829246 
L 178.823268 247.688602 
L 178.815317 248.678501 
L 182.839911 246.70645 
L 183.22951 247.50155 
" clip-path="url(#p9efb827959)"/>
    <path d="M 197.944446 247.519539 
L 191.547568 249.870391 
L 192.268528 250.548758 
L 187.655011 250.829246 
L 191.352265 248.055526 
L 191.242148 249.039314 
L 197.639025 246.688461 
L 197.944446 247.519539 
" clip-path="url(#p9efb827959)"/>
    <path d="M 212.673632 247.528735 
L 203.825341 250.130133 
L 204.49982 250.854731 
L 199.877854 250.829246 
L 203.750587 248.306321 
L 203.575597 249.280663 
L 212.423888 246.679265 
L 212.673632 247.528735 
" clip-path="url(#p9efb827959)"/>
    <path d="M 65.063664 222.477555 
L 73.824569 224.194693 
L 73.560426 223.240653 
L 77.649419 225.395498 
L 73.049519 225.84732 
L 73.654266 225.063582 
L 64.893361 223.346445 
L 65.063664 222.477555 
" clip-path="url(#p9efb827959)"/>
    <path d="M 79.840886 222.482006 
L 86.107668 224.017368 
L 85.888371 223.052032 
L 89.872262 225.395498 
L 85.256281 225.631994 
L 85.896971 224.877355 
L 79.630189 223.341994 
L 79.840886 222.482006 
" clip-path="url(#p9efb827959)"/>
    <path d="M 94.630032 222.491174 
L 98.445138 223.737442 
L 98.299252 222.758319 
L 102.095106 225.395498 
L 97.474432 225.283277 
L 98.170199 224.579094 
L 94.355092 223.332826 
L 94.630032 222.491174 
" clip-path="url(#p9efb827959)"/>
    <path d="M 109.444386 222.51445 
L 110.934799 223.244752 
L 110.926848 222.254853 
L 114.317949 225.395498 
L 109.758051 224.640153 
L 110.5452 224.039852 
L 109.054787 223.30955 
L 109.444386 222.51445 
" clip-path="url(#p9efb827959)"/>
    <path d="M 124.254961 222.658582 
L 124.508379 222.906932 
L 124.751661 222.151746 
L 126.540793 225.395498 
L 123.261562 223.672254 
L 124.01168 223.413768 
L 123.758262 223.165418 
L 124.254961 222.658582 
" clip-path="url(#p9efb827959)"/>
    <path d="M 139.011986 222.912 
L 139.011986 223.16035 
L 139.508686 222.912 
L 138.763636 225.395498 
L 138.018587 222.912 
L 138.515287 223.16035 
L 138.515287 222.912 
L 139.011986 222.912 
" clip-path="url(#p9efb827959)"/>
    <path d="M 153.769011 223.165418 
L 153.515593 223.413768 
L 154.26571 223.672254 
L 150.98648 225.395498 
L 152.775612 222.151746 
L 153.018893 222.906932 
L 153.272311 222.658582 
L 153.769011 223.165418 
" clip-path="url(#p9efb827959)"/>
    <path d="M 168.472485 223.30955 
L 166.982073 224.039852 
L 167.769221 224.640153 
L 163.209323 225.395498 
L 166.600425 222.254853 
L 166.592474 223.244752 
L 168.082886 222.51445 
L 168.472485 223.30955 
" clip-path="url(#p9efb827959)"/>
    <path d="M 183.172181 223.332826 
L 179.357074 224.579094 
L 180.05284 225.283277 
L 175.432167 225.395498 
L 179.228021 222.758319 
L 179.082134 223.737442 
L 182.897241 222.491174 
L 183.172181 223.332826 
" clip-path="url(#p9efb827959)"/>
    <path d="M 197.897084 223.341994 
L 191.630302 224.877355 
L 192.270992 225.631994 
L 187.655011 225.395498 
L 191.638901 223.052032 
L 191.419605 224.017368 
L 197.686387 222.482006 
L 197.897084 223.341994 
" clip-path="url(#p9efb827959)"/>
    <path d="M 212.633911 223.346445 
L 203.873006 225.063582 
L 204.477753 225.84732 
L 199.877854 225.395498 
L 203.966846 223.240653 
L 203.702704 224.194693 
L 212.463609 222.477555 
L 212.633911 223.346445 
" clip-path="url(#p9efb827959)"/>
    <path d="M 65.021691 198.2794 
L 73.727197 199.13254 
L 73.372955 198.208161 
L 77.649419 199.961749 
L 73.113882 200.851761 
L 73.640839 200.01374 
L 64.935334 199.1606 
L 65.021691 198.2794 
" clip-path="url(#p9efb827959)"/>
    <path d="M 79.789367 198.280574 
L 85.971258 199.037856 
L 85.639492 198.105174 
L 89.872262 199.961749 
L 85.316514 200.74173 
L 85.863599 199.916708 
L 79.681708 199.159426 
L 79.789367 198.280574 
" clip-path="url(#p9efb827959)"/>
    <path d="M 94.563926 198.283079 
L 98.23418 198.882554 
L 97.939986 197.937348 
L 102.095106 199.961749 
L 97.511804 200.558874 
L 98.091452 199.756396 
L 94.421198 199.156921 
L 94.563926 198.283079 
" clip-path="url(#p9efb827959)"/>
    <path d="M 109.354935 198.290006 
L 110.553355 198.583619 
L 110.334058 197.618284 
L 114.317949 199.961749 
L 109.701968 200.198245 
L 110.342658 199.443606 
L 109.144238 199.149994 
L 109.354935 198.290006 
" clip-path="url(#p9efb827959)"/>
    <path d="M 124.130786 198.466582 
L 124.384205 198.590757 
L 124.379136 197.959746 
L 126.540793 199.961749 
L 123.634087 199.480254 
L 124.135855 199.097593 
L 123.882437 198.973418 
L 124.130786 198.466582 
" clip-path="url(#p9efb827959)"/>
    <path d="M 138.887811 198.72 
L 138.887811 198.844175 
L 139.136161 198.72 
L 138.763636 199.961749 
L 138.391112 198.72 
L 138.639461 198.844175 
L 138.639461 198.72 
L 138.887811 198.72 
" clip-path="url(#p9efb827959)"/>
    <path d="M 153.644836 198.973418 
L 153.391418 199.097593 
L 153.893186 199.480254 
L 150.98648 199.961749 
L 153.148137 197.959746 
L 153.143068 198.590757 
L 153.396486 198.466582 
L 153.644836 198.973418 
" clip-path="url(#p9efb827959)"/>
    <path d="M 168.383034 199.149994 
L 167.184614 199.443606 
L 167.825305 200.198245 
L 163.209323 199.961749 
L 167.193214 197.618284 
L 166.973918 198.583619 
L 168.172338 198.290006 
L 168.383034 199.149994 
" clip-path="url(#p9efb827959)"/>
    <path d="M 183.106075 199.156921 
L 179.43582 199.756396 
L 180.015469 200.558874 
L 175.432167 199.961749 
L 179.587286 197.937348 
L 179.293093 198.882554 
L 182.963347 198.283079 
L 183.106075 199.156921 
" clip-path="url(#p9efb827959)"/>
    <path d="M 197.845565 199.159426 
L 191.663674 199.916708 
L 192.210759 200.74173 
L 187.655011 199.961749 
L 191.887781 198.105174 
L 191.556014 199.037856 
L 197.737906 198.280574 
L 197.845565 199.159426 
" clip-path="url(#p9efb827959)"/>
    <path d="M 212.591939 199.1606 
L 203.886433 200.01374 
L 204.413391 200.851761 
L 199.877854 199.961749 
L 204.154318 198.208161 
L 203.800076 199.13254 
L 212.505582 198.2794 
L 212.591939 199.1606 
" clip-path="url(#p9efb827959)"/>
    <path d="M 64.978512 174.085289 
L 73.665022 174.085289 
L 73.222311 173.199868 
L 77.649419 174.528 
L 73.222311 175.856132 
L 73.665022 174.970711 
L 64.978512 174.970711 
L 64.978512 174.085289 
" clip-path="url(#p9efb827959)"/>
    <path d="M 79.735537 174.085289 
L 85.887865 174.085289 
L 85.445155 173.199868 
L 89.872262 174.528 
L 85.445155 175.856132 
L 85.887865 174.970711 
L 79.735537 174.970711 
L 79.735537 174.085289 
" clip-path="url(#p9efb827959)"/>
    <path d="M 94.492562 174.085289 
L 98.110709 174.085289 
L 97.667998 173.199868 
L 102.095106 174.528 
L 97.667998 175.856132 
L 98.110709 174.970711 
L 94.492562 174.970711 
L 94.492562 174.085289 
" clip-path="url(#p9efb827959)"/>
    <path d="M 109.249587 174.085289 
L 110.333553 174.085289 
L 109.890842 173.199868 
L 114.317949 174.528 
L 109.890842 175.856132 
L 110.333553 174.970711 
L 109.249587 174.970711 
L 109.249587 174.085289 
" clip-path="url(#p9efb827959)"/>
    <path d="M 124.006612 174.274582 
L 124.26003 174.274582 
L 124.006612 173.767746 
L 126.540793 174.528 
L 124.006612 175.288254 
L 124.26003 174.781418 
L 124.006612 174.781418 
L 124.006612 174.274582 
" clip-path="url(#p9efb827959)"/>
    <path d="M 139.206347 174.528 
L 138.984992 174.144601 
L 138.542281 174.144601 
L 138.320926 174.528 
L 138.542281 174.911399 
L 138.984992 174.911399 
L 139.206347 174.528 
L 138.984992 174.144601 
" clip-path="url(#p9efb827959)"/>
    <path d="M 153.520661 174.781418 
L 153.267243 174.781418 
L 153.520661 175.288254 
L 150.98648 174.528 
L 153.520661 173.767746 
L 153.267243 174.274582 
L 153.520661 174.274582 
L 153.520661 174.781418 
" clip-path="url(#p9efb827959)"/>
    <path d="M 168.277686 174.970711 
L 167.19372 174.970711 
L 167.636431 175.856132 
L 163.209323 174.528 
L 167.636431 173.199868 
L 167.19372 174.085289 
L 168.277686 174.085289 
L 168.277686 174.970711 
" clip-path="url(#p9efb827959)"/>
    <path d="M 183.034711 174.970711 
L 179.416564 174.970711 
L 179.859274 175.856132 
L 175.432167 174.528 
L 179.859274 173.199868 
L 179.416564 174.085289 
L 183.034711 174.085289 
L 183.034711 174.970711 
" clip-path="url(#p9efb827959)"/>
    <path d="M 197.791736 174.970711 
L 191.639407 174.970711 
L 192.082118 175.856132 
L 187.655011 174.528 
L 192.082118 173.199868 
L 191.639407 174.085289 
L 197.791736 174.085289 
L 197.791736 174.970711 
" clip-path="url(#p9efb827959)"/>
    <path d="M 212.54876 174.970711 
L 203.862251 174.970711 
L 204.304962 175.856132 
L 199.877854 174.528 
L 204.304962 173.199868 
L 203.862251 174.085289 
L 212.54876 174.085289 
L 212.54876 174.970711 
" clip-path="url(#p9efb827959)"/>
    <path d="M 64.935334 149.8954 
L 73.640839 149.04226 
L 73.113882 148.204239 
L 77.649419 149.094251 
L 73.372955 150.847839 
L 73.727197 149.92346 
L 65.021691 150.7766 
L 64.935334 149.8954 
" clip-path="url(#p9efb827959)"/>
    <path d="M 79.681708 149.896574 
L 85.863599 149.139292 
L 85.316514 148.31427 
L 89.872262 149.094251 
L 85.639492 150.950826 
L 85.971258 150.018144 
L 79.789367 150.775426 
L 79.681708 149.896574 
" clip-path="url(#p9efb827959)"/>
    <path d="M 94.421198 149.899079 
L 98.091452 149.299604 
L 97.511804 148.497126 
L 102.095106 149.094251 
L 97.939986 151.118652 
L 98.23418 150.173446 
L 94.563926 150.772921 
L 94.421198 149.899079 
" clip-path="url(#p9efb827959)"/>
    <path d="M 109.144238 149.906006 
L 110.342658 149.612394 
L 109.701968 148.857755 
L 114.317949 149.094251 
L 110.334058 151.437716 
L 110.553355 150.472381 
L 109.354935 150.765994 
L 109.144238 149.906006 
" clip-path="url(#p9efb827959)"/>
    <path d="M 123.882437 150.082582 
L 124.135855 149.958407 
L 123.634087 149.575746 
L 126.540793 149.094251 
L 124.379136 151.096254 
L 124.384205 150.465243 
L 124.130786 150.589418 
L 123.882437 150.082582 
" clip-path="url(#p9efb827959)"/>
    <path d="M 138.639461 150.336 
L 138.639461 150.211825 
L 138.391112 150.336 
L 138.763636 149.094251 
L 139.136161 150.336 
L 138.887811 150.211825 
L 138.887811 150.336 
L 138.639461 150.336 
" clip-path="url(#p9efb827959)"/>
    <path d="M 153.396486 150.589418 
L 153.143068 150.465243 
L 153.148137 151.096254 
L 150.98648 149.094251 
L 153.893186 149.575746 
L 153.391418 149.958407 
L 153.644836 150.082582 
L 153.396486 150.589418 
" clip-path="url(#p9efb827959)"/>
    <path d="M 168.172338 150.765994 
L 166.973918 150.472381 
L 167.193214 151.437716 
L 163.209323 149.094251 
L 167.825305 148.857755 
L 167.184614 149.612394 
L 168.383034 149.906006 
L 168.172338 150.765994 
" clip-path="url(#p9efb827959)"/>
    <path d="M 182.963347 150.772921 
L 179.293093 150.173446 
L 179.587286 151.118652 
L 175.432167 149.094251 
L 180.015469 148.497126 
L 179.43582 149.299604 
L 183.106075 149.899079 
L 182.963347 150.772921 
" clip-path="url(#p9efb827959)"/>
    <path d="M 197.737906 150.775426 
L 191.556014 150.018144 
L 191.887781 150.950826 
L 187.655011 149.094251 
L 192.210759 148.31427 
L 191.663674 149.139292 
L 197.845565 149.896574 
L 197.737906 150.775426 
" clip-path="url(#p9efb827959)"/>
    <path d="M 212.505582 150.7766 
L 203.800076 149.92346 
L 204.154318 150.847839 
L 199.877854 149.094251 
L 204.413391 148.204239 
L 203.886433 149.04226 
L 212.591939 149.8954 
L 212.505582 150.7766 
" clip-path="url(#p9efb827959)"/>
    <path d="M 64.893361 125.709555 
L 73.654266 123.992418 
L 73.049519 123.20868 
L 77.649419 123.660502 
L 73.560426 125.815347 
L 73.824569 124.861307 
L 65.063664 126.578445 
L 64.893361 125.709555 
" clip-path="url(#p9efb827959)"/>
    <path d="M 79.630189 125.714006 
L 85.896971 124.178645 
L 85.256281 123.424006 
L 89.872262 123.660502 
L 85.888371 126.003968 
L 86.107668 125.038632 
L 79.840886 126.573994 
L 79.630189 125.714006 
" clip-path="url(#p9efb827959)"/>
    <path d="M 94.355092 125.723174 
L 98.170199 124.476906 
L 97.474432 123.772723 
L 102.095106 123.660502 
L 98.299252 126.297681 
L 98.445138 125.318558 
L 94.630032 126.564826 
L 94.355092 125.723174 
" clip-path="url(#p9efb827959)"/>
    <path d="M 109.054787 125.74645 
L 110.5452 125.016148 
L 109.758051 124.415847 
L 114.317949 123.660502 
L 110.926848 126.801147 
L 110.934799 125.811248 
L 109.444386 126.54155 
L 109.054787 125.74645 
" clip-path="url(#p9efb827959)"/>
    <path d="M 123.758262 125.890582 
L 124.01168 125.642232 
L 123.261562 125.383746 
L 126.540793 123.660502 
L 124.751661 126.904254 
L 124.508379 126.149068 
L 124.254961 126.397418 
L 123.758262 125.890582 
" clip-path="url(#p9efb827959)"/>
    <path d="M 138.515287 126.144 
L 138.515287 125.89565 
L 138.018587 126.144 
L 138.763636 123.660502 
L 139.508686 126.144 
L 139.011986 125.89565 
L 139.011986 126.144 
L 138.515287 126.144 
" clip-path="url(#p9efb827959)"/>
    <path d="M 153.272311 126.397418 
L 153.018893 126.149068 
L 152.775612 126.904254 
L 150.98648 123.660502 
L 154.26571 125.383746 
L 153.515593 125.642232 
L 153.769011 125.890582 
L 153.272311 126.397418 
" clip-path="url(#p9efb827959)"/>
    <path d="M 168.082886 126.54155 
L 166.592474 125.811248 
L 166.600425 126.801147 
L 163.209323 123.660502 
L 167.769221 124.415847 
L 166.982073 125.016148 
L 168.472485 125.74645 
L 168.082886 126.54155 
" clip-path="url(#p9efb827959)"/>
    <path d="M 182.897241 126.564826 
L 179.082134 125.318558 
L 179.228021 126.297681 
L 175.432167 123.660502 
L 180.05284 123.772723 
L 179.357074 124.476906 
L 183.172181 125.723174 
L 182.897241 126.564826 
" clip-path="url(#p9efb827959)"/>
    <path d="M 197.686387 126.573994 
L 191.419605 125.038632 
L 191.638901 126.003968 
L 187.655011 123.660502 
L 192.270992 123.424006 
L 191.630302 124.178645 
L 197.897084 125.714006 
L 197.686387 126.573994 
" clip-path="url(#p9efb827959)"/>
    <path d="M 212.463609 126.578445 
L 203.702704 124.861307 
L 203.966846 125.815347 
L 199.877854 123.660502 
L 204.477753 123.20868 
L 203.873006 123.992418 
L 212.633911 125.709555 
L 212.463609 126.578445 
" clip-path="url(#p9efb827959)"/>
    <path d="M 64.85364 101.527265 
L 73.701932 98.925867 
L 73.027453 98.201269 
L 77.649419 98.226754 
L 73.776685 100.749679 
L 73.951676 99.775337 
L 65.103384 102.376735 
L 64.85364 101.527265 
" clip-path="url(#p9efb827959)"/>
    <path d="M 79.582827 101.536461 
L 85.979704 99.185609 
L 85.258745 98.507242 
L 89.872262 98.226754 
L 86.175007 101.000474 
L 86.285125 100.016686 
L 79.888248 102.367539 
L 79.582827 101.536461 
" clip-path="url(#p9efb827959)"/>
    <path d="M 94.297763 101.55445 
L 98.322357 99.582399 
L 97.535208 98.982098 
L 102.095106 98.226754 
L 98.704005 101.367398 
L 98.711956 100.377499 
L 94.687361 102.34955 
L 94.297763 101.55445 
" clip-path="url(#p9efb827959)"/>
    <path d="M 108.987397 101.59528 
L 110.845276 100.229739 
L 109.964176 99.778487 
L 114.317949 98.226754 
L 111.537314 101.91881 
L 111.369655 100.94318 
L 109.511776 102.30872 
L 108.987397 101.59528 
" clip-path="url(#p9efb827959)"/>
    <path d="M 123.640569 101.702991 
L 123.933671 101.272131 
L 122.952576 101.140156 
L 126.540793 98.226754 
L 125.148834 102.634209 
L 124.665757 101.770149 
L 124.372654 102.201009 
L 123.640569 101.702991 
" clip-path="url(#p9efb827959)"/>
    <path d="M 138.391112 101.952 
L 138.391112 101.579475 
L 137.646062 101.952 
L 138.763636 98.226754 
L 139.88121 101.952 
L 139.136161 101.579475 
L 139.136161 101.952 
L 138.391112 101.952 
" clip-path="url(#p9efb827959)"/>
    <path d="M 153.154618 102.201009 
L 152.861516 101.770149 
L 152.378439 102.634209 
L 150.98648 98.226754 
L 154.574697 101.140156 
L 153.593602 101.272131 
L 153.886704 101.702991 
L 153.154618 102.201009 
" clip-path="url(#p9efb827959)"/>
    <path d="M 168.015496 102.30872 
L 166.157618 100.94318 
L 165.989959 101.91881 
L 163.209323 98.226754 
L 167.563096 99.778487 
L 166.681997 100.229739 
L 168.539875 101.59528 
L 168.015496 102.30872 
" clip-path="url(#p9efb827959)"/>
    <path d="M 182.839911 102.34955 
L 178.815317 100.377499 
L 178.823268 101.367398 
L 175.432167 98.226754 
L 179.992065 98.982098 
L 179.204916 99.582399 
L 183.22951 101.55445 
L 182.839911 102.34955 
" clip-path="url(#p9efb827959)"/>
    <path d="M 197.639025 102.367539 
L 191.242148 100.016686 
L 191.352265 101.000474 
L 187.655011 98.226754 
L 192.268528 98.507242 
L 191.547568 99.185609 
L 197.944446 101.536461 
L 197.639025 102.367539 
" clip-path="url(#p9efb827959)"/>
    <path d="M 212.423888 102.376735 
L 203.575597 99.775337 
L 203.750587 100.749679 
L 199.877854 98.226754 
L 204.49982 98.201269 
L 203.825341 98.925867 
L 212.673632 101.527265 
L 212.423888 102.376735 
" clip-path="url(#p9efb827959)"/>
    <path d="M 64.81694 77.347826 
L 73.778282 73.83498 
L 73.042964 73.172205 
L 77.649419 72.793005 
L 74.012397 75.645248 
L 74.101426 74.659328 
L 65.140085 78.172174 
L 64.81694 77.347826 
" clip-path="url(#p9efb827959)"/>
    <path d="M 79.540738 77.36245 
L 86.099513 74.14865 
L 85.312364 73.54835 
L 89.872262 72.793005 
L 86.481161 75.933649 
L 86.489112 74.94375 
L 79.930337 78.15755 
L 79.540738 77.36245 
" clip-path="url(#p9efb827959)"/>
    <path d="M 94.250422 77.389378 
L 98.517363 74.601642 
L 97.662461 74.102538 
L 102.095106 72.793005 
L 99.115301 76.326272 
L 99.001643 75.342887 
L 94.734702 78.130622 
L 94.250422 77.389378 
" clip-path="url(#p9efb827959)"/>
    <path d="M 108.939721 77.44381 
L 111.162376 75.265608 
L 110.226455 74.943095 
L 114.317949 72.793005 
L 112.08565 76.840233 
L 111.782108 75.897988 
L 109.559453 78.07619 
L 108.939721 77.44381 
" clip-path="url(#p9efb827959)"/>
    <path d="M 123.612262 77.558801 
L 124.335653 76.140955 
L 123.345754 76.132907 
L 126.540793 72.793005 
L 125.711853 77.3401 
L 125.124353 76.543352 
L 124.400961 77.961199 
L 123.612262 77.558801 
" clip-path="url(#p9efb827959)"/>
    <path d="M 138.320926 77.76 
L 138.320926 76.777401 
L 137.435504 77.220112 
L 138.763636 72.793005 
L 140.091769 77.220112 
L 139.206347 76.777401 
L 139.206347 77.76 
L 138.320926 77.76 
" clip-path="url(#p9efb827959)"/>
    <path d="M 153.126311 77.961199 
L 152.40292 76.543352 
L 151.815419 77.3401 
L 150.98648 72.793005 
L 154.181519 76.132907 
L 153.19162 76.140955 
L 153.915011 77.558801 
L 153.126311 77.961199 
" clip-path="url(#p9efb827959)"/>
    <path d="M 167.96782 78.07619 
L 165.745165 75.897988 
L 165.441623 76.840233 
L 163.209323 72.793005 
L 167.300818 74.943095 
L 166.364897 75.265608 
L 168.587552 77.44381 
L 167.96782 78.07619 
" clip-path="url(#p9efb827959)"/>
    <path d="M 182.792571 78.130622 
L 178.525629 75.342887 
L 178.411972 76.326272 
L 175.432167 72.793005 
L 179.864812 74.102538 
L 179.009909 74.601642 
L 183.276851 77.389378 
L 182.792571 78.130622 
" clip-path="url(#p9efb827959)"/>
    <path d="M 197.596936 78.15755 
L 191.038161 74.94375 
L 191.046112 75.933649 
L 187.655011 72.793005 
L 192.214909 73.54835 
L 191.42776 74.14865 
L 197.986535 77.36245 
L 197.596936 78.15755 
" clip-path="url(#p9efb827959)"/>
    <path d="M 212.387188 78.172174 
L 203.425846 74.659328 
L 203.514876 75.645248 
L 199.877854 72.793005 
L 204.484309 73.172205 
L 203.748991 73.83498 
L 212.710332 77.347826 
L 212.387188 78.172174 
" clip-path="url(#p9efb827959)"/>
    <path d="M 64.783713 53.17045 
L 73.87667 48.714901 
L 73.089521 48.114601 
L 77.649419 47.359256 
L 74.258317 50.499901 
L 74.266268 49.510001 
L 65.173312 53.96555 
L 64.783713 53.17045 
" clip-path="url(#p9efb827959)"/>
    <path d="M 79.504304 53.190476 
L 86.243317 49.062831 
L 85.403327 48.539017 
L 89.872262 47.359256 
L 86.790726 50.804158 
L 86.705783 49.817878 
L 79.96677 53.945524 
L 79.504304 53.190476 
" clip-path="url(#p9efb827959)"/>
    <path d="M 94.212532 53.225106 
L 98.729033 49.536631 
L 97.826079 49.130873 
L 102.095106 47.359256 
L 99.506258 51.188236 
L 99.289092 50.222418 
L 94.772592 53.910894 
L 94.212532 53.225106 
" clip-path="url(#p9efb827959)"/>
    <path d="M 108.906636 53.28804 
L 111.45536 50.165854 
L 110.489498 49.948885 
L 114.317949 47.359256 
L 112.547203 51.628644 
L 112.141261 50.725773 
L 109.592538 53.84796 
L 108.906636 53.28804 
" clip-path="url(#p9efb827959)"/>
    <path d="M 123.596729 53.400701 
L 124.625219 50.880901 
L 123.638154 50.956186 
L 126.540793 47.359256 
L 126.09745 51.95998 
L 125.444984 51.215499 
L 124.416494 53.735299 
L 123.596729 53.400701 
" clip-path="url(#p9efb827959)"/>
    <path d="M 138.320926 53.568 
L 138.320926 51.343653 
L 137.435504 51.786363 
L 138.763636 47.359256 
L 140.091769 51.786363 
L 139.206347 51.343653 
L 139.206347 53.568 
L 138.320926 53.568 
" clip-path="url(#p9efb827959)"/>
    <path d="M 153.110778 53.735299 
L 152.082289 51.215499 
L 151.429822 51.95998 
L 150.98648 47.359256 
L 153.889119 50.956186 
L 152.902054 50.880901 
L 153.930544 53.400701 
L 153.110778 53.735299 
" clip-path="url(#p9efb827959)"/>
    <path d="M 167.934735 53.84796 
L 165.386011 50.725773 
L 164.98007 51.628644 
L 163.209323 47.359256 
L 167.037775 49.948885 
L 166.071913 50.165854 
L 168.620637 53.28804 
L 167.934735 53.84796 
" clip-path="url(#p9efb827959)"/>
    <path d="M 182.754681 53.910894 
L 178.23818 50.222418 
L 178.021014 51.188236 
L 175.432167 47.359256 
L 179.701194 49.130873 
L 178.79824 49.536631 
L 183.314741 53.225106 
L 182.754681 53.910894 
" clip-path="url(#p9efb827959)"/>
    <path d="M 197.560502 53.945524 
L 190.821489 49.817878 
L 190.736547 50.804158 
L 187.655011 47.359256 
L 192.123946 48.539017 
L 191.283956 49.062831 
L 198.022969 53.190476 
L 197.560502 53.945524 
" clip-path="url(#p9efb827959)"/>
    <path d="M 212.353961 53.96555 
L 203.261004 49.510001 
L 203.268955 50.499901 
L 199.877854 47.359256 
L 204.437752 48.114601 
L 203.650603 48.714901 
L 212.74356 53.17045 
L 212.353961 53.96555 
" clip-path="url(#p9efb827959)"/>
   </g>
   <g id="matplotlib.axis_1">
    <g id="xtick_1">
     <g id="line2d_1">
      <defs>
       <path id="md23e1fb1ef" d="M 0 0 
L 0 3.5 
" style="stroke: #000000; stroke-width: 0.8"/>
      </defs>
      <g>
       <use xlink:href="#md23e1fb1ef" x="64.978512" y="307.584" style="stroke: #000000; stroke-width: 0.8"/>
      </g>
     </g>
     <g id="text_1">
      <!-- −5.0 -->
      <g transform="translate(52.837106 322.182437) scale(0.1 -0.1)">
       <defs>
        <path id="DejaVuSans-2212" d="M 678 2272 
L 4684 2272 
L 4684 1741 
L 678 1741 
L 678 2272 
z
" transform="scale(0.015625)"/>
        <path id="DejaVuSans-35" d="M 691 4666 
L 3169 4666 
L 3169 4134 
L 1269 4134 
L 1269 2991 
Q 1406 3038 1543 3061 
Q 1681 3084 1819 3084 
Q 2600 3084 3056 2656 
Q 3513 2228 3513 1497 
Q 3513 744 3044 326 
Q 2575 -91 1722 -91 
Q 1428 -91 1123 -41 
Q 819 9 494 109 
L 494 744 
Q 775 591 1075 516 
Q 1375 441 1709 441 
Q 2250 441 2565 725 
Q 2881 1009 2881 1497 
Q 2881 1984 2565 2268 
Q 2250 2553 1709 2553 
Q 1456 2553 1204 2497 
Q 953 2441 691 2322 
L 691 4666 
z
" transform="scale(0.015625)"/>
        <path id="DejaVuSans-2e" d="M 684 794 
L 1344 794 
L 1344 0 
L 684 0 
L 684 794 
z
" transform="scale(0.015625)"/>
        <path id="DejaVuSans-30" d="M 2034 4250 
Q 1547 4250 1301 3770 
Q 1056 3291 1056 2328 
Q 1056 1369 1301 889 
Q 1547 409 2034 409 
Q 2525 409 2770 889 
Q 3016 1369 3016 2328 
Q 3016 3291 2770 3770 
Q 2525 4250 2034 4250 
z
M 2034 4750 
Q 2819 4750 3233 4129 
Q 3647 3509 3647 2328 
Q 3647 1150 3233 529 
Q 2819 -91 2034 -91 
Q 1250 -91 836 529 
Q 422 1150 422 2328 
Q 422 3509 836 4129 
Q 1250 4750 2034 4750 
z
" transform="scale(0.015625)"/>
       </defs>
       <use xlink:href="#DejaVuSans-2212"/>
       <use xlink:href="#DejaVuSans-35" x="83.789062"/>
       <use xlink:href="#DejaVuSans-2e" x="147.412109"/>
       <use xlink:href="#DejaVuSans-30" x="179.199219"/>
      </g>
     </g>
    </g>
    <g id="xtick_2">
     <g id="line2d_2">
      <g>
       <use xlink:href="#md23e1fb1ef" x="101.871074" y="307.584" style="stroke: #000000; stroke-width: 0.8"/>
      </g>
     </g>
     <g id="text_2">
      <!-- −2.5 -->
      <g transform="translate(89.729668 322.182437) scale(0.1 -0.1)">
       <defs>
        <path id="DejaVuSans-32" d="M 1228 531 
L 3431 531 
L 3431 0 
L 469 0 
L 469 531 
Q 828 903 1448 1529 
Q 2069 2156 2228 2338 
Q 2531 2678 2651 2914 
Q 2772 3150 2772 3378 
Q 2772 3750 2511 3984 
Q 2250 4219 1831 4219 
Q 1534 4219 1204 4116 
Q 875 4013 500 3803 
L 500 4441 
Q 881 4594 1212 4672 
Q 1544 4750 1819 4750 
Q 2544 4750 2975 4387 
Q 3406 4025 3406 3419 
Q 3406 3131 3298 2873 
Q 3191 2616 2906 2266 
Q 2828 2175 2409 1742 
Q 1991 1309 1228 531 
z
" transform="scale(0.015625)"/>
       </defs>
       <use xlink:href="#DejaVuSans-2212"/>
       <use xlink:href="#DejaVuSans-32" x="83.789062"/>
       <use xlink:href="#DejaVuSans-2e" x="147.412109"/>
       <use xlink:href="#DejaVuSans-35" x="179.199219"/>
      </g>
     </g>
    </g>
    <g id="xtick_3">
     <g id="line2d_3">
      <g>
       <use xlink:href="#md23e1fb1ef" x="138.763636" y="307.584" style="stroke: #000000; stroke-width: 0.8"/>
      </g>
     </g>
     <g id="text_3">
      <!-- 0.0 -->
      <g transform="translate(130.812074 322.182437) scale(0.1 -0.1)">
       <use xlink:href="#DejaVuSans-30"/>
       <use xlink:href="#DejaVuSans-2e" x="63.623047"/>
       <use xlink:href="#DejaVuSans-30" x="95.410156"/>
      </g>
     </g>
    </g>
    <g id="xtick_4">
     <g id="line2d_4">
      <g>
       <use xlink:href="#md23e1fb1ef" x="175.656198" y="307.584" style="stroke: #000000; stroke-width: 0.8"/>
      </g>
     </g>
     <g id="text_4">
      <!-- 2.5 -->
      <g transform="translate(167.704636 322.182437) scale(0.1 -0.1)">
       <use xlink:href="#DejaVuSans-32"/>
       <use xlink:href="#DejaVuSans-2e" x="63.623047"/>
       <use xlink:href="#DejaVuSans-35" x="95.410156"/>
      </g>
     </g>
    </g>
    <g id="xtick_5">
     <g id="line2d_5">
      <g>
       <use xlink:href="#md23e1fb1ef" x="212.54876" y="307.584" style="stroke: #000000; stroke-width: 0.8"/>
      </g>
     </g>
     <g id="text_5">
      <!-- 5.0 -->
      <g transform="translate(204.597198 322.182437) scale(0.1 -0.1)">
       <use xlink:href="#DejaVuSans-35"/>
       <use xlink:href="#DejaVuSans-2e" x="63.623047"/>
       <use xlink:href="#DejaVuSans-30" x="95.410156"/>
      </g>
     </g>
    </g>
   </g>
   <g id="matplotlib.axis_2">
    <g id="ytick_1">
     <g id="line2d_6">
      <defs>
       <path id="m60e3dd85d8" d="M 0 0 
L -3.5 0 
" style="stroke: #000000; stroke-width: 0.8"/>
      </defs>
      <g>
       <use xlink:href="#m60e3dd85d8" x="57.6" y="271.296" style="stroke: #000000; stroke-width: 0.8"/>
      </g>
     </g>
     <g id="text_6">
      <!-- −4 -->
      <g transform="translate(35.857813 275.095219) scale(0.1 -0.1)">
       <defs>
        <path id="DejaVuSans-34" d="M 2419 4116 
L 825 1625 
L 2419 1625 
L 2419 4116 
z
M 2253 4666 
L 3047 4666 
L 3047 1625 
L 3713 1625 
L 3713 1100 
L 3047 1100 
L 3047 0 
L 2419 0 
L 2419 1100 
L 313 1100 
L 313 1709 
L 2253 4666 
z
" transform="scale(0.015625)"/>
       </defs>
       <use xlink:href="#DejaVuSans-2212"/>
       <use xlink:href="#DejaVuSans-34" x="83.789062"/>
      </g>
     </g>
    </g>
    <g id="ytick_2">
     <g id="line2d_7">
      <g>
       <use xlink:href="#m60e3dd85d8" x="57.6" y="222.912" style="stroke: #000000; stroke-width: 0.8"/>
      </g>
     </g>
     <g id="text_7">
      <!-- −2 -->
      <g transform="translate(35.857813 226.711219) scale(0.1 -0.1)">
       <use xlink:href="#DejaVuSans-2212"/>
       <use xlink:href="#DejaVuSans-32" x="83.789062"/>
      </g>
     </g>
    </g>
    <g id="ytick_3">
     <g id="line2d_8">
      <g>
       <use xlink:href="#m60e3dd85d8" x="57.6" y="174.528" style="stroke: #000000; stroke-width: 0.8"/>
      </g>
     </g>
     <g id="text_8">
      <!-- 0 -->
      <g transform="translate(44.2375 178.327219) scale(0.1 -0.1)">
       <use xlink:href="#DejaVuSans-30"/>
      </g>
     </g>
    </g>
    <g id="ytick_4">
     <g id="line2d_9">
      <g>
       <use xlink:href="#m60e3dd85d8" x="57.6" y="126.144" style="stroke: #000000; stroke-width: 0.8"/>
      </g>
     </g>
     <g id="text_9">
      <!-- 2 -->
      <g transform="translate(44.2375 129.943219) scale(0.1 -0.1)">
       <use xlink:href="#DejaVuSans-32"/>
      </g>
     </g>
    </g>
    <g id="ytick_5">
     <g id="line2d_10">
      <g>
       <use xlink:href="#m60e3dd85d8" x="57.6" y="77.76" style="stroke: #000000; stroke-width: 0.8"/>
      </g>
     </g>
     <g id="text_10">
      <!-- 4 -->
      <g transform="translate(44.2375 81.559219) scale(0.1 -0.1)">
       <use xlink:href="#DejaVuSans-34"/>
      </g>
     </g>
    </g>
   </g>
   <g id="patch_3">
    <path d="M 57.6 307.584 
L 57.6 41.472 
" style="fill: none; stroke: #000000; stroke-width: 0.8; stroke-linejoin: miter; stroke-linecap: square"/>
   </g>
   <g id="patch_4">
    <path d="M 219.927273 307.584 
L 219.927273 41.472 
" style="fill: none; stroke: #000000; stroke-width: 0.8; stroke-linejoin: miter; stroke-linecap: square"/>
   </g>
   <g id="patch_5">
    <path d="M 57.6 307.584 
L 219.927273 307.584 
" style="fill: none; stroke: #000000; stroke-width: 0.8; stroke-linejoin: miter; stroke-linecap: square"/>
   </g>
   <g id="patch_6">
    <path d="M 57.6 41.472 
L 219.927273 41.472 
" style="fill: none; stroke: #000000; stroke-width: 0.8; stroke-linejoin: miter; stroke-linecap: square"/>
   </g>
  </g>
  <g id="axes_2">
   <g id="patch_7">
    <path d="M 252.392727 307.584 
L 414.72 307.584 
L 414.72 41.472 
L 252.392727 41.472 
z
" style="fill: #ffffff"/>
   </g>
   <g id="matplotlib.axis_3">
    <g id="xtick_6">
     <g id="line2d_11">
      <g>
       <use xlink:href="#md23e1fb1ef" x="279.447273" y="307.584" style="stroke: #000000; stroke-width: 0.8"/>
      </g>
     </g>
     <g id="text_11">
      <!-- 0 -->
      <g transform="translate(276.266023 322.182437) scale(0.1 -0.1)">
       <use xlink:href="#DejaVuSans-30"/>
      </g>
     </g>
    </g>
    <g id="xtick_7">
     <g id="line2d_12">
      <g>
       <use xlink:href="#md23e1fb1ef" x="333.556364" y="307.584" style="stroke: #000000; stroke-width: 0.8"/>
      </g>
     </g>
     <g id="text_12">
      <!-- 2 -->
      <g transform="translate(330.375114 322.182437) scale(0.1 -0.1)">
       <use xlink:href="#DejaVuSans-32"/>
      </g>
     </g>
    </g>
    <g id="xtick_8">
     <g id="line2d_13">
      <g>
       <use xlink:href="#md23e1fb1ef" x="387.665455" y="307.584" style="stroke: #000000; stroke-width: 0.8"/>
      </g>
     </g>
     <g id="text_13">
      <!-- 4 -->
      <g transform="translate(384.484205 322.182437) scale(0.1 -0.1)">
       <use xlink:href="#DejaVuSans-34"/>
      </g>
     </g>
    </g>
   </g>
   <g id="matplotlib.axis_4">
    <g id="ytick_6">
     <g id="line2d_14">
      <g>
       <use xlink:href="#m60e3dd85d8" x="252.392727" y="307.584" style="stroke: #000000; stroke-width: 0.8"/>
      </g>
     </g>
     <g id="text_14">
      <!-- −5 -->
      <g transform="translate(230.65054 311.383219) scale(0.1 -0.1)">
       <use xlink:href="#DejaVuSans-2212"/>
       <use xlink:href="#DejaVuSans-35" x="83.789062"/>
      </g>
     </g>
    </g>
    <g id="ytick_7">
     <g id="line2d_15">
      <g>
       <use xlink:href="#m60e3dd85d8" x="252.392727" y="263.232" style="stroke: #000000; stroke-width: 0.8"/>
      </g>
     </g>
     <g id="text_15">
      <!-- −4 -->
      <g transform="translate(230.65054 267.031219) scale(0.1 -0.1)">
       <use xlink:href="#DejaVuSans-2212"/>
       <use xlink:href="#DejaVuSans-34" x="83.789062"/>
      </g>
     </g>
    </g>
    <g id="ytick_8">
     <g id="line2d_16">
      <g>
       <use xlink:href="#m60e3dd85d8" x="252.392727" y="218.88" style="stroke: #000000; stroke-width: 0.8"/>
      </g>
     </g>
     <g id="text_16">
      <!-- −3 -->
      <g transform="translate(230.65054 222.679219) scale(0.1 -0.1)">
       <defs>
        <path id="DejaVuSans-33" d="M 2597 2516 
Q 3050 2419 3304 2112 
Q 3559 1806 3559 1356 
Q 3559 666 3084 287 
Q 2609 -91 1734 -91 
Q 1441 -91 1130 -33 
Q 819 25 488 141 
L 488 750 
Q 750 597 1062 519 
Q 1375 441 1716 441 
Q 2309 441 2620 675 
Q 2931 909 2931 1356 
Q 2931 1769 2642 2001 
Q 2353 2234 1838 2234 
L 1294 2234 
L 1294 2753 
L 1863 2753 
Q 2328 2753 2575 2939 
Q 2822 3125 2822 3475 
Q 2822 3834 2567 4026 
Q 2313 4219 1838 4219 
Q 1578 4219 1281 4162 
Q 984 4106 628 3988 
L 628 4550 
Q 988 4650 1302 4700 
Q 1616 4750 1894 4750 
Q 2613 4750 3031 4423 
Q 3450 4097 3450 3541 
Q 3450 3153 3228 2886 
Q 3006 2619 2597 2516 
z
" transform="scale(0.015625)"/>
       </defs>
       <use xlink:href="#DejaVuSans-2212"/>
       <use xlink:href="#DejaVuSans-33" x="83.789062"/>
      </g>
     </g>
    </g>
    <g id="ytick_9">
     <g id="line2d_17">
      <g>
       <use xlink:href="#m60e3dd85d8" x="252.392727" y="174.528" style="stroke: #000000; stroke-width: 0.8"/>
      </g>
     </g>
     <g id="text_17">
      <!-- −2 -->
      <g transform="translate(230.65054 178.327219) scale(0.1 -0.1)">
       <use xlink:href="#DejaVuSans-2212"/>
       <use xlink:href="#DejaVuSans-32" x="83.789062"/>
      </g>
     </g>
    </g>
    <g id="ytick_10">
     <g id="line2d_18">
      <g>
       <use xlink:href="#m60e3dd85d8" x="252.392727" y="130.176" style="stroke: #000000; stroke-width: 0.8"/>
      </g>
     </g>
     <g id="text_18">
      <!-- −1 -->
      <g transform="translate(230.65054 133.975219) scale(0.1 -0.1)">
       <defs>
        <path id="DejaVuSans-31" d="M 794 531 
L 1825 531 
L 1825 4091 
L 703 3866 
L 703 4441 
L 1819 4666 
L 2450 4666 
L 2450 531 
L 3481 531 
L 3481 0 
L 794 0 
L 794 531 
z
" transform="scale(0.015625)"/>
       </defs>
       <use xlink:href="#DejaVuSans-2212"/>
       <use xlink:href="#DejaVuSans-31" x="83.789062"/>
      </g>
     </g>
    </g>
    <g id="ytick_11">
     <g id="line2d_19">
      <g>
       <use xlink:href="#m60e3dd85d8" x="252.392727" y="85.824" style="stroke: #000000; stroke-width: 0.8"/>
      </g>
     </g>
     <g id="text_19">
      <!-- 0 -->
      <g transform="translate(239.030227 89.623219) scale(0.1 -0.1)">
       <use xlink:href="#DejaVuSans-30"/>
      </g>
     </g>
    </g>
    <g id="ytick_12">
     <g id="line2d_20">
      <g>
       <use xlink:href="#m60e3dd85d8" x="252.392727" y="41.472" style="stroke: #000000; stroke-width: 0.8"/>
      </g>
     </g>
     <g id="text_20">
      <!-- 1 -->
      <g transform="translate(239.030227 45.271219) scale(0.1 -0.1)">
       <use xlink:href="#DejaVuSans-31"/>
      </g>
     </g>
    </g>
   </g>
   <g id="line2d_21">
    <path d="M 299.876495 346.6 
L 300.899614 274.926739 
L 302.238678 215.346542 
L 303.577741 176.47629 
L 304.916804 150.506042 
L 306.255868 132.781166 
L 307.594931 120.449856 
L 308.933994 111.720981 
L 310.273058 105.444104 
L 311.612121 100.865124 
L 312.951185 97.480488 
L 314.290248 94.948194 
L 315.629311 93.032307 
L 316.968375 91.567708 
L 318.307438 90.437289 
L 319.646501 89.556965 
L 320.985565 88.865661 
L 322.324628 88.318536 
L 323.663691 87.882342 
L 325.002755 87.532188 
L 326.341818 87.24928 
L 327.680882 87.019305 
L 329.019945 86.83128 
L 330.359008 86.676713 
L 331.698072 86.548993 
L 333.037135 86.44294 
L 334.376198 86.354466 
L 335.715262 86.280332 
L 337.054325 86.217951 
L 338.393388 86.165248 
L 339.732452 86.120551 
L 341.071515 86.082504 
L 342.410579 86.050005 
L 343.749642 86.022151 
L 345.088705 85.998202 
L 346.427769 85.977546 
L 347.766832 85.959678 
L 349.105895 85.944177 
L 350.444959 85.930694 
L 351.784022 85.918934 
L 353.123085 85.908651 
L 354.462149 85.899639 
L 355.801212 85.89172 
L 357.140275 85.884747 
L 358.479339 85.878594 
L 359.818402 85.873152 
L 361.157466 85.868329 
L 362.496529 85.864047 
L 363.835592 85.860237 
L 365.174656 85.856841 
L 366.513719 85.853809 
L 367.852782 85.851097 
L 369.191846 85.848667 
L 370.530909 85.846486 
L 371.869972 85.844526 
L 373.209036 85.842761 
L 374.548099 85.84117 
L 375.887163 85.839733 
L 377.226226 85.838434 
L 378.565289 85.837257 
L 379.904353 85.836191 
L 381.243416 85.835223 
L 382.582479 85.834342 
L 383.921543 85.833541 
L 385.260606 85.832811 
L 386.599669 85.832145 
L 387.938733 85.831537 
L 389.277796 85.830981 
L 390.61686 85.830471 
L 391.955923 85.830005 
L 393.294986 85.829577 
L 394.63405 85.829184 
L 395.973113 85.828823 
L 397.312176 85.82849 
L 398.65124 85.828184 
L 399.990303 85.827902 
L 401.329366 85.827642 
L 402.66843 85.827401 
L 404.007493 85.827179 
L 405.346556 85.826974 
L 406.68562 85.826783 
L 408.024683 85.826607 
L 409.363747 85.826444 
L 410.70281 85.826292 
L 412.041873 85.826151 
L 413.380937 85.82602 
L 414.72 85.825898 
" clip-path="url(#p265098f06c)" style="fill: none; stroke: #1f77b4; stroke-width: 1.5; stroke-linecap: square"/>
   </g>
   <g id="line2d_22">
    <path d="M 302.219227 346.6 
L 302.238678 344.869083 
L 303.577741 267.128579 
L 304.916804 215.188084 
L 306.255868 179.738332 
L 307.594931 155.075712 
L 308.933994 137.617963 
L 310.273058 125.064208 
L 311.612121 115.906247 
L 312.951185 109.136977 
L 314.290248 104.072388 
L 315.629311 100.240614 
L 316.968375 97.311415 
L 318.307438 95.050579 
L 319.646501 93.289931 
L 320.985565 91.907321 
L 322.324628 90.813072 
L 323.663691 89.940683 
L 325.002755 89.240376 
L 326.341818 88.67456 
L 327.680882 88.21461 
L 329.019945 87.83856 
L 330.359008 87.529426 
L 331.698072 87.273986 
L 333.037135 87.061879 
L 334.376198 86.884933 
L 335.715262 86.736664 
L 337.054325 86.611901 
L 338.393388 86.506495 
L 339.732452 86.417101 
L 341.071515 86.341008 
L 342.410579 86.27601 
L 343.749642 86.220302 
L 345.088705 86.172403 
L 346.427769 86.131091 
L 347.766832 86.095355 
L 349.105895 86.064354 
L 350.444959 86.037387 
L 351.784022 86.013868 
L 353.123085 85.993303 
L 354.462149 85.975277 
L 355.801212 85.95944 
L 357.140275 85.945495 
L 358.479339 85.933188 
L 359.818402 85.922304 
L 361.157466 85.912658 
L 362.496529 85.904093 
L 363.835592 85.896474 
L 365.174656 85.889682 
L 366.513719 85.883618 
L 367.852782 85.878194 
L 369.191846 85.873334 
L 370.530909 85.868972 
L 371.869972 85.865051 
L 373.209036 85.861522 
L 374.548099 85.858339 
L 375.887163 85.855466 
L 377.226226 85.852868 
L 378.565289 85.850515 
L 379.904353 85.848382 
L 381.243416 85.846445 
L 382.582479 85.844685 
L 383.921543 85.843083 
L 385.260606 85.841622 
L 386.599669 85.84029 
L 387.938733 85.839074 
L 389.277796 85.837961 
L 390.61686 85.836943 
L 391.955923 85.83601 
L 393.294986 85.835154 
L 394.63405 85.834368 
L 395.973113 85.833645 
L 397.312176 85.83298 
L 398.65124 85.832368 
L 399.990303 85.831804 
L 401.329366 85.831283 
L 402.66843 85.830802 
L 404.007493 85.830358 
L 405.346556 85.829947 
L 406.68562 85.829566 
L 408.024683 85.829214 
L 409.363747 85.828887 
L 410.70281 85.828584 
L 412.041873 85.828302 
L 413.380937 85.82804 
L 414.72 85.827796 
" clip-path="url(#p265098f06c)" style="fill: none; stroke: #ff7f0e; stroke-width: 1.5; stroke-linecap: square"/>
   </g>
   <g id="line2d_23">
    <path d="M 303.769908 346.6 
L 304.916804 279.870126 
L 306.255868 226.695498 
L 307.594931 189.701568 
L 308.933994 163.514944 
L 310.273058 144.684312 
L 311.612121 130.947371 
L 312.951185 120.793465 
L 314.290248 113.196583 
L 315.629311 107.448921 
L 316.968375 103.055123 
L 318.307438 99.663868 
L 319.646501 97.022896 
L 320.985565 94.948982 
L 322.324628 93.307608 
L 323.663691 91.999025 
L 325.002755 90.948564 
L 326.341818 90.09984 
L 327.680882 89.409915 
L 329.019945 88.84584 
L 330.359008 88.382139 
L 331.698072 87.998979 
L 333.037135 87.680819 
L 334.376198 87.415399 
L 335.715262 87.192996 
L 337.054325 87.005852 
L 338.393388 86.847743 
L 339.732452 86.713652 
L 341.071515 86.599512 
L 342.410579 86.502014 
L 343.749642 86.418453 
L 345.088705 86.346605 
L 346.427769 86.284637 
L 347.766832 86.231033 
L 349.105895 86.184531 
L 350.444959 86.144081 
L 351.784022 86.108802 
L 353.123085 86.077954 
L 354.462149 86.050916 
L 355.801212 86.027161 
L 357.140275 86.006242 
L 358.479339 85.987782 
L 359.818402 85.971455 
L 361.157466 85.956987 
L 362.496529 85.94414 
L 363.835592 85.93271 
L 365.174656 85.922523 
L 366.513719 85.913427 
L 367.852782 85.905291 
L 369.191846 85.898001 
L 370.530909 85.891458 
L 371.869972 85.885577 
L 373.209036 85.880283 
L 374.548099 85.875509 
L 375.887163 85.871199 
L 377.226226 85.867301 
L 378.565289 85.863772 
L 379.904353 85.860573 
L 381.243416 85.857668 
L 382.582479 85.855027 
L 383.921543 85.852624 
L 385.260606 85.850434 
L 386.599669 85.848436 
L 387.938733 85.846611 
L 389.277796 85.844942 
L 390.61686 85.843414 
L 391.955923 85.842015 
L 393.294986 85.840731 
L 394.63405 85.839551 
L 395.973113 85.838468 
L 397.312176 85.83747 
L 398.65124 85.836552 
L 399.990303 85.835706 
L 401.329366 85.834925 
L 402.66843 85.834204 
L 404.007493 85.833537 
L 405.346556 85.832921 
L 406.68562 85.83235 
L 408.024683 85.831821 
L 409.363747 85.831331 
L 410.70281 85.830875 
L 412.041873 85.830453 
L 413.380937 85.83006 
L 414.72 85.829695 
" clip-path="url(#p265098f06c)" style="fill: none; stroke: #2ca02c; stroke-width: 1.5; stroke-linecap: square"/>
   </g>
   <g id="line2d_24">
    <path d="M 304.890407 346.6 
L 304.916804 344.552168 
L 306.255868 273.652664 
L 307.594931 224.327425 
L 308.933994 189.411926 
L 310.273058 164.304415 
L 311.612121 145.988495 
L 312.951185 132.449954 
L 314.290248 122.320777 
L 315.629311 114.657228 
L 316.968375 108.79883 
L 318.307438 104.277158 
L 319.646501 100.755862 
L 320.985565 97.990642 
L 322.324628 95.802144 
L 323.663691 94.057366 
L 325.002755 92.656752 
L 326.341818 91.525119 
L 327.680882 90.60522 
L 329.019945 89.85312 
L 330.359008 89.234852 
L 331.698072 88.723972 
L 333.037135 88.299758 
L 334.376198 87.945865 
L 335.715262 87.649328 
L 337.054325 87.399803 
L 338.393388 87.188991 
L 339.732452 87.010202 
L 341.071515 86.858016 
L 342.410579 86.728019 
L 343.749642 86.616604 
L 345.088705 86.520806 
L 346.427769 86.438183 
L 347.766832 86.36671 
L 349.105895 86.304708 
L 350.444959 86.250775 
L 351.784022 86.203735 
L 353.123085 86.162605 
L 354.462149 86.126554 
L 355.801212 86.094881 
L 357.140275 86.06699 
L 358.479339 86.042375 
L 359.818402 86.020607 
L 361.157466 86.001316 
L 362.496529 85.984187 
L 363.835592 85.968947 
L 365.174656 85.955364 
L 366.513719 85.943236 
L 367.852782 85.932387 
L 369.191846 85.922667 
L 370.530909 85.913944 
L 371.869972 85.906103 
L 373.209036 85.899044 
L 374.548099 85.892679 
L 375.887163 85.886932 
L 377.226226 85.881735 
L 378.565289 85.87703 
L 379.904353 85.872764 
L 381.243416 85.86889 
L 382.582479 85.86537 
L 383.921543 85.862165 
L 385.260606 85.859245 
L 386.599669 85.856581 
L 387.938733 85.854148 
L 389.277796 85.851923 
L 390.61686 85.849886 
L 391.955923 85.848019 
L 393.294986 85.846307 
L 394.63405 85.844735 
L 395.973113 85.84329 
L 397.312176 85.841961 
L 398.65124 85.840736 
L 399.990303 85.839608 
L 401.329366 85.838566 
L 402.66843 85.837605 
L 404.007493 85.836716 
L 405.346556 85.835894 
L 406.68562 85.835133 
L 408.024683 85.834428 
L 409.363747 85.833774 
L 410.70281 85.833167 
L 412.041873 85.832604 
L 413.380937 85.83208 
L 414.72 85.831593 
" clip-path="url(#p265098f06c)" style="fill: none; stroke: #d62728; stroke-width: 1.5; stroke-linecap: square"/>
   </g>
   <g id="line2d_25">
    <path d="M 289.970941 346.6 
L 290.187107 296.857165 
L 291.526171 181.189176 
L 292.865234 132.676575 
L 294.204298 110.453894 
L 295.543361 99.515939 
L 296.882424 93.801312 
L 298.221488 90.661454 
L 299.560551 88.860339 
L 300.899614 87.787928 
L 302.238678 87.128253 
L 303.577741 86.710645 
L 304.916804 86.43945 
L 306.255868 86.259273 
L 307.594931 86.137087 
L 308.933994 86.052675 
L 310.273058 85.993369 
L 311.612121 85.951056 
L 312.951185 85.920438 
L 314.290248 85.897994 
L 315.629311 85.881343 
L 316.968375 85.868853 
L 318.307438 85.859387 
L 319.646501 85.852144 
L 320.985565 85.846552 
L 322.324628 85.842198 
L 323.663691 85.838783 
L 325.002755 85.836083 
L 326.341818 85.833934 
L 327.680882 85.832212 
L 329.019945 85.830824 
L 330.359008 85.829699 
L 331.698072 85.828782 
L 333.037135 85.82803 
L 334.376198 85.827411 
L 335.715262 85.826898 
L 337.054325 85.826472 
L 338.393388 85.826116 
L 339.732452 85.825818 
L 341.071515 85.825567 
L 342.410579 85.825355 
L 343.749642 85.825176 
L 345.088705 85.825023 
L 346.427769 85.824892 
L 347.766832 85.82478 
L 349.105895 85.824685 
L 350.444959 85.824602 
L 351.784022 85.82453 
L 353.123085 85.824469 
L 354.462149 85.824415 
L 355.801212 85.824368 
L 357.140275 85.824327 
L 358.479339 85.824292 
L 359.818402 85.82426 
L 361.157466 85.824233 
L 362.496529 85.824209 
L 363.835592 85.824187 
L 365.174656 85.824168 
L 366.513719 85.824152 
L 367.852782 85.824137 
L 369.191846 85.824123 
L 370.530909 85.824112 
L 371.869972 85.824101 
L 373.209036 85.824092 
L 374.548099 85.824083 
L 375.887163 85.824076 
L 377.226226 85.824069 
L 378.565289 85.824063 
L 379.904353 85.824058 
L 381.243416 85.824053 
L 382.582479 85.824048 
L 383.921543 85.824044 
L 385.260606 85.824041 
L 386.599669 85.824037 
L 387.938733 85.824034 
L 389.277796 85.824032 
L 390.61686 85.824029 
L 391.955923 85.824027 
L 393.294986 85.824025 
L 394.63405 85.824023 
L 395.973113 85.824021 
L 397.312176 85.82402 
L 398.65124 85.824018 
L 399.990303 85.824017 
L 401.329366 85.824016 
L 402.66843 85.824014 
L 404.007493 85.824013 
L 405.346556 85.824013 
L 406.68562 85.824012 
L 408.024683 85.824011 
L 409.363747 85.82401 
L 410.70281 85.824009 
L 412.041873 85.824009 
L 413.380937 85.824008 
L 414.72 85.824008 
" clip-path="url(#p265098f06c)" style="fill: none; stroke: #9467bd; stroke-width: 1.5; stroke-linecap: square"/>
   </g>
   <g id="line2d_26">
    <path d="M 291.120719 346.6 
L 291.526171 276.554351 
L 292.865234 179.52915 
L 294.204298 135.083787 
L 295.543361 113.207878 
L 296.882424 101.778624 
L 298.221488 95.498907 
L 299.560551 91.896679 
L 300.899614 89.751855 
L 302.238678 88.432506 
L 303.577741 87.597291 
L 304.916804 87.0549 
L 306.255868 86.694546 
L 307.594931 86.450174 
L 308.933994 86.281351 
L 310.273058 86.162739 
L 311.612121 86.078112 
L 312.951185 86.016876 
L 314.290248 85.971988 
L 315.629311 85.938686 
L 316.968375 85.913706 
L 318.307438 85.894774 
L 319.646501 85.880288 
L 320.985565 85.869104 
L 322.324628 85.860397 
L 323.663691 85.853565 
L 325.002755 85.848165 
L 326.341818 85.843867 
L 327.680882 85.840424 
L 329.019945 85.837649 
L 330.359008 85.835398 
L 331.698072 85.833563 
L 333.037135 85.83206 
L 334.376198 85.830821 
L 335.715262 85.829796 
L 337.054325 85.828944 
L 338.393388 85.828233 
L 339.732452 85.827637 
L 341.071515 85.827135 
L 342.410579 85.826711 
L 343.749642 85.826351 
L 345.088705 85.826046 
L 346.427769 85.825784 
L 347.766832 85.825561 
L 349.105895 85.825369 
L 350.444959 85.825204 
L 351.784022 85.825061 
L 353.123085 85.824937 
L 354.462149 85.82483 
L 355.801212 85.824736 
L 357.140275 85.824655 
L 358.479339 85.824583 
L 359.818402 85.824521 
L 361.157466 85.824466 
L 362.496529 85.824417 
L 363.835592 85.824374 
L 365.174656 85.824337 
L 366.513719 85.824303 
L 367.852782 85.824273 
L 369.191846 85.824247 
L 370.530909 85.824223 
L 371.869972 85.824202 
L 373.209036 85.824184 
L 374.548099 85.824167 
L 375.887163 85.824152 
L 377.226226 85.824138 
L 378.565289 85.824126 
L 379.904353 85.824115 
L 381.243416 85.824105 
L 382.582479 85.824096 
L 383.921543 85.824088 
L 385.260606 85.824081 
L 386.599669 85.824074 
L 387.938733 85.824068 
L 389.277796 85.824063 
L 390.61686 85.824058 
L 391.955923 85.824054 
L 393.294986 85.824049 
L 394.63405 85.824046 
L 395.973113 85.824042 
L 397.312176 85.824039 
L 398.65124 85.824036 
L 399.990303 85.824034 
L 401.329366 85.824031 
L 402.66843 85.824029 
L 404.007493 85.824027 
L 405.346556 85.824025 
L 406.68562 85.824023 
L 408.024683 85.824022 
L 409.363747 85.82402 
L 410.70281 85.824019 
L 412.041873 85.824018 
L 413.380937 85.824016 
L 414.72 85.824015 
" clip-path="url(#p265098f06c)" style="fill: none; stroke: #8c564b; stroke-width: 1.5; stroke-linecap: square"/>
   </g>
   <g id="line2d_27">
    <path d="M 291.759131 346.6 
L 292.865234 226.381726 
L 294.204298 159.713681 
L 295.543361 126.899817 
L 296.882424 109.755935 
L 298.221488 100.336361 
L 299.560551 94.933018 
L 300.899614 91.715783 
L 302.238678 89.736759 
L 303.577741 88.483936 
L 304.916804 87.67035 
L 306.255868 87.129819 
L 307.594931 86.76326 
L 308.933994 86.510026 
L 310.273058 86.332108 
L 311.612121 86.205168 
L 312.951185 86.113314 
L 314.290248 86.045981 
L 315.629311 85.996029 
L 316.968375 85.958559 
L 318.307438 85.930161 
L 319.646501 85.908431 
L 320.985565 85.891655 
L 322.324628 85.878595 
L 323.663691 85.868348 
L 325.002755 85.860248 
L 326.341818 85.853801 
L 327.680882 85.848636 
L 329.019945 85.844473 
L 330.359008 85.841097 
L 331.698072 85.838345 
L 333.037135 85.83609 
L 334.376198 85.834232 
L 335.715262 85.832695 
L 337.054325 85.831417 
L 338.393388 85.830349 
L 339.732452 85.829455 
L 341.071515 85.828702 
L 342.410579 85.828066 
L 343.749642 85.827527 
L 345.088705 85.827068 
L 346.427769 85.826677 
L 347.766832 85.826341 
L 349.105895 85.826054 
L 350.444959 85.825806 
L 351.784022 85.825591 
L 353.123085 85.825406 
L 354.462149 85.825245 
L 355.801212 85.825104 
L 357.140275 85.824982 
L 358.479339 85.824875 
L 359.818402 85.824781 
L 361.157466 85.824698 
L 362.496529 85.824626 
L 363.835592 85.824561 
L 365.174656 85.824505 
L 366.513719 85.824455 
L 367.852782 85.82441 
L 369.191846 85.82437 
L 370.530909 85.824335 
L 371.869972 85.824304 
L 373.209036 85.824275 
L 374.548099 85.82425 
L 375.887163 85.824228 
L 377.226226 85.824207 
L 378.565289 85.824189 
L 379.904353 85.824173 
L 381.243416 85.824158 
L 382.582479 85.824145 
L 383.921543 85.824133 
L 385.260606 85.824122 
L 386.599669 85.824112 
L 387.938733 85.824103 
L 389.277796 85.824095 
L 390.61686 85.824087 
L 391.955923 85.82408 
L 393.294986 85.824074 
L 394.63405 85.824069 
L 395.973113 85.824063 
L 397.312176 85.824059 
L 398.65124 85.824054 
L 399.990303 85.82405 
L 401.329366 85.824047 
L 402.66843 85.824043 
L 404.007493 85.82404 
L 405.346556 85.824038 
L 406.68562 85.824035 
L 408.024683 85.824033 
L 409.363747 85.82403 
L 410.70281 85.824028 
L 412.041873 85.824026 
L 413.380937 85.824025 
L 414.72 85.824023 
" clip-path="url(#p265098f06c)" style="fill: none; stroke: #e377c2; stroke-width: 1.5; stroke-linecap: square"/>
   </g>
   <g id="line2d_28">
    <path d="M 292.358967 346.6 
L 292.865234 273.234301 
L 294.204298 184.343575 
L 295.543361 140.591757 
L 296.882424 117.733247 
L 298.221488 105.173814 
L 299.560551 97.969358 
L 300.899614 93.67971 
L 302.238678 91.041012 
L 303.577741 89.370582 
L 304.916804 88.2858 
L 306.255868 87.565093 
L 307.594931 87.076347 
L 308.933994 86.738701 
L 310.273058 86.501477 
L 311.612121 86.332224 
L 312.951185 86.209753 
L 314.290248 86.119975 
L 315.629311 86.053373 
L 316.968375 86.003412 
L 318.307438 85.965548 
L 319.646501 85.936575 
L 320.985565 85.914207 
L 322.324628 85.896794 
L 323.663691 85.88313 
L 325.002755 85.87233 
L 326.341818 85.863734 
L 327.680882 85.856848 
L 329.019945 85.851297 
L 330.359008 85.846796 
L 331.698072 85.843127 
L 333.037135 85.84012 
L 334.376198 85.837643 
L 335.715262 85.835593 
L 337.054325 85.833889 
L 338.393388 85.832466 
L 339.732452 85.831273 
L 341.071515 85.83027 
L 342.410579 85.829422 
L 343.749642 85.828703 
L 345.088705 85.828091 
L 346.427769 85.827569 
L 347.766832 85.827122 
L 349.105895 85.826738 
L 350.444959 85.826407 
L 351.784022 85.826122 
L 353.123085 85.825874 
L 354.462149 85.825659 
L 355.801212 85.825472 
L 357.140275 85.825309 
L 358.479339 85.825166 
L 359.818402 85.825041 
L 361.157466 85.824931 
L 362.496529 85.824834 
L 363.835592 85.824749 
L 365.174656 85.824673 
L 366.513719 85.824606 
L 367.852782 85.824547 
L 369.191846 85.824494 
L 370.530909 85.824447 
L 371.869972 85.824405 
L 373.209036 85.824367 
L 374.548099 85.824334 
L 375.887163 85.824304 
L 377.226226 85.824277 
L 378.565289 85.824252 
L 379.904353 85.82423 
L 381.243416 85.824211 
L 382.582479 85.824193 
L 383.921543 85.824177 
L 385.260606 85.824162 
L 386.599669 85.824149 
L 387.938733 85.824137 
L 389.277796 85.824126 
L 390.61686 85.824116 
L 391.955923 85.824107 
L 393.294986 85.824099 
L 394.63405 85.824091 
L 395.973113 85.824085 
L 397.312176 85.824078 
L 398.65124 85.824072 
L 399.990303 85.824067 
L 401.329366 85.824062 
L 402.66843 85.824058 
L 404.007493 85.824054 
L 405.346556 85.82405 
L 406.68562 85.824047 
L 408.024683 85.824043 
L 409.363747 85.824041 
L 410.70281 85.824038 
L 412.041873 85.824035 
L 413.380937 85.824033 
L 414.72 85.824031 
" clip-path="url(#p265098f06c)" style="fill: none; stroke: #7f7f7f; stroke-width: 1.5; stroke-linecap: square"/>
   </g>
   <g id="line2d_29">
    <path d="M 286.734156 346.6 
L 287.508981 186.257208 
L 288.848044 118.585878 
L 290.187107 98.23361 
L 291.526171 91.093283 
L 292.865234 88.272475 
L 294.204298 87.047853 
L 295.543361 86.47374 
L 296.882424 86.186858 
L 298.221488 86.035575 
L 299.560551 85.952038 
L 300.899614 85.904035 
L 302.238678 85.875473 
L 303.577741 85.857949 
L 304.916804 85.8469 
L 306.255868 85.839762 
L 307.594931 85.835048 
L 308.933994 85.831873 
L 310.273058 85.829696 
L 311.612121 85.828178 
L 312.951185 85.827103 
L 314.290248 85.826332 
L 315.629311 85.825771 
L 316.968375 85.825359 
L 318.307438 85.825053 
L 319.646501 85.824822 
L 320.985565 85.824648 
L 322.324628 85.824514 
L 323.663691 85.824411 
L 325.002755 85.82433 
L 326.341818 85.824267 
L 327.680882 85.824218 
L 329.019945 85.824178 
L 330.359008 85.824147 
L 331.698072 85.824122 
L 333.037135 85.824101 
L 334.376198 85.824084 
L 335.715262 85.824071 
L 337.054325 85.82406 
L 338.393388 85.82405 
L 339.732452 85.824043 
L 341.071515 85.824037 
L 342.410579 85.824031 
L 343.749642 85.824027 
L 345.088705 85.824023 
L 346.427769 85.82402 
L 347.766832 85.824017 
L 349.105895 85.824015 
L 350.444959 85.824013 
L 351.784022 85.824011 
L 353.123085 85.82401 
L 354.462149 85.824009 
L 355.801212 85.824008 
L 357.140275 85.824007 
L 358.479339 85.824006 
L 359.818402 85.824005 
L 361.157466 85.824005 
L 362.496529 85.824004 
L 363.835592 85.824004 
L 365.174656 85.824003 
L 366.513719 85.824003 
L 367.852782 85.824003 
L 369.191846 85.824002 
L 370.530909 85.824002 
L 371.869972 85.824002 
L 373.209036 85.824002 
L 374.548099 85.824002 
L 375.887163 85.824001 
L 377.226226 85.824001 
L 378.565289 85.824001 
L 379.904353 85.824001 
L 381.243416 85.824001 
L 382.582479 85.824001 
L 383.921543 85.824001 
L 385.260606 85.824001 
L 386.599669 85.824001 
L 387.938733 85.824001 
L 389.277796 85.824001 
L 390.61686 85.824 
L 391.955923 85.824 
L 393.294986 85.824 
L 394.63405 85.824 
L 395.973113 85.824 
L 397.312176 85.824 
L 398.65124 85.824 
L 399.990303 85.824 
L 401.329366 85.824 
L 402.66843 85.824 
L 404.007493 85.824 
L 405.346556 85.824 
L 406.68562 85.824 
L 408.024683 85.824 
L 409.363747 85.824 
L 410.70281 85.824 
L 412.041873 85.824 
L 413.380937 85.824 
L 414.72 85.824 
" clip-path="url(#p265098f06c)" style="fill: none; stroke: #bcbd22; stroke-width: 1.5; stroke-linecap: square"/>
   </g>
   <g id="line2d_30">
    <path d="M 287.36423 346.6 
L 287.508981 286.690415 
L 288.848044 151.347755 
L 290.187107 110.64322 
L 291.526171 96.362565 
L 292.865234 90.720951 
L 294.204298 88.271706 
L 295.543361 87.123479 
L 296.882424 86.549717 
L 298.221488 86.247151 
L 299.560551 86.080077 
L 300.899614 85.98407 
L 302.238678 85.926946 
L 303.577741 85.891898 
L 304.916804 85.8698 
L 306.255868 85.855524 
L 307.594931 85.846097 
L 308.933994 85.839746 
L 310.273058 85.835391 
L 311.612121 85.832355 
L 312.951185 85.830206 
L 314.290248 85.828664 
L 315.629311 85.827543 
L 316.968375 85.826718 
L 318.307438 85.826105 
L 319.646501 85.825644 
L 320.985565 85.825295 
L 322.324628 85.825028 
L 323.663691 85.824821 
L 325.002755 85.824661 
L 326.341818 85.824535 
L 327.680882 85.824436 
L 329.019945 85.824357 
L 330.359008 85.824294 
L 331.698072 85.824243 
L 333.037135 85.824202 
L 334.376198 85.824169 
L 335.715262 85.824142 
L 337.054325 85.824119 
L 338.393388 85.824101 
L 339.732452 85.824086 
L 341.071515 85.824073 
L 342.410579 85.824062 
L 343.749642 85.824054 
L 345.088705 85.824046 
L 346.427769 85.82404 
L 347.766832 85.824034 
L 349.105895 85.82403 
L 350.444959 85.824026 
L 351.784022 85.824023 
L 353.123085 85.82402 
L 354.462149 85.824017 
L 355.801212 85.824015 
L 357.140275 85.824013 
L 358.479339 85.824012 
L 359.818402 85.824011 
L 361.157466 85.824009 
L 362.496529 85.824008 
L 363.835592 85.824007 
L 365.174656 85.824007 
L 366.513719 85.824006 
L 367.852782 85.824005 
L 369.191846 85.824005 
L 370.530909 85.824004 
L 371.869972 85.824004 
L 373.209036 85.824003 
L 374.548099 85.824003 
L 375.887163 85.824003 
L 377.226226 85.824003 
L 378.565289 85.824002 
L 379.904353 85.824002 
L 381.243416 85.824002 
L 382.582479 85.824002 
L 383.921543 85.824002 
L 385.260606 85.824001 
L 386.599669 85.824001 
L 387.938733 85.824001 
L 389.277796 85.824001 
L 390.61686 85.824001 
L 391.955923 85.824001 
L 393.294986 85.824001 
L 394.63405 85.824001 
L 395.973113 85.824001 
L 397.312176 85.824001 
L 398.65124 85.824001 
L 399.990303 85.824001 
L 401.329366 85.824001 
L 402.66843 85.824 
L 404.007493 85.824 
L 405.346556 85.824 
L 406.68562 85.824 
L 408.024683 85.824 
L 409.363747 85.824 
L 410.70281 85.824 
L 412.041873 85.824 
L 413.380937 85.824 
L 414.72 85.824 
" clip-path="url(#p265098f06c)" style="fill: none; stroke: #17becf; stroke-width: 1.5; stroke-linecap: square"/>
   </g>
   <g id="line2d_31">
    <path d="M 287.776271 346.6 
L 288.848044 184.109633 
L 290.187107 123.05283 
L 291.526171 101.631848 
L 292.865234 93.169426 
L 294.204298 89.49556 
L 295.543361 87.773219 
L 296.882424 86.912575 
L 298.221488 86.458726 
L 299.560551 86.208115 
L 300.899614 86.064105 
L 302.238678 85.978419 
L 303.577741 85.925847 
L 304.916804 85.8927 
L 306.255868 85.871286 
L 307.594931 85.857145 
L 308.933994 85.84762 
L 310.273058 85.841087 
L 311.612121 85.836533 
L 312.951185 85.833309 
L 314.290248 85.830996 
L 315.629311 85.829314 
L 316.968375 85.828077 
L 318.307438 85.827158 
L 319.646501 85.826467 
L 320.985565 85.825943 
L 322.324628 85.825541 
L 323.663691 85.825232 
L 325.002755 85.824991 
L 326.341818 85.824802 
L 327.680882 85.824653 
L 329.019945 85.824535 
L 330.359008 85.824441 
L 331.698072 85.824365 
L 333.037135 85.824303 
L 334.376198 85.824253 
L 335.715262 85.824213 
L 337.054325 85.824179 
L 338.393388 85.824151 
L 339.732452 85.824129 
L 341.071515 85.82411 
L 342.410579 85.824094 
L 343.749642 85.82408 
L 345.088705 85.824069 
L 346.427769 85.82406 
L 347.766832 85.824052 
L 349.105895 85.824045 
L 350.444959 85.824039 
L 351.784022 85.824034 
L 353.123085 85.82403 
L 354.462149 85.824026 
L 355.801212 85.824023 
L 357.140275 85.82402 
L 358.479339 85.824018 
L 359.818402 85.824016 
L 361.157466 85.824014 
L 362.496529 85.824012 
L 363.835592 85.824011 
L 365.174656 85.82401 
L 366.513719 85.824009 
L 367.852782 85.824008 
L 369.191846 85.824007 
L 370.530909 85.824006 
L 371.869972 85.824006 
L 373.209036 85.824005 
L 374.548099 85.824005 
L 375.887163 85.824004 
L 377.226226 85.824004 
L 378.565289 85.824003 
L 379.904353 85.824003 
L 381.243416 85.824003 
L 382.582479 85.824003 
L 383.921543 85.824002 
L 385.260606 85.824002 
L 386.599669 85.824002 
L 387.938733 85.824002 
L 389.277796 85.824002 
L 390.61686 85.824001 
L 391.955923 85.824001 
L 393.294986 85.824001 
L 394.63405 85.824001 
L 395.973113 85.824001 
L 397.312176 85.824001 
L 398.65124 85.824001 
L 399.990303 85.824001 
L 401.329366 85.824001 
L 402.66843 85.824001 
L 404.007493 85.824001 
L 405.346556 85.824001 
L 406.68562 85.824001 
L 408.024683 85.824001 
L 409.363747 85.824 
L 410.70281 85.824 
L 412.041873 85.824 
L 413.380937 85.824 
L 414.72 85.824 
" clip-path="url(#p265098f06c)" style="fill: none; stroke: #1f77b4; stroke-width: 1.5; stroke-linecap: square"/>
   </g>
   <g id="line2d_32">
    <path d="M 288.206285 346.6 
L 288.848044 216.871511 
L 290.187107 135.462441 
L 291.526171 106.90113 
L 292.865234 95.617902 
L 294.204298 90.719413 
L 295.543361 88.422958 
L 296.882424 87.275433 
L 298.221488 86.670302 
L 299.560551 86.336154 
L 300.899614 86.14414 
L 302.238678 86.029892 
L 303.577741 85.959796 
L 304.916804 85.9156 
L 306.255868 85.887048 
L 307.594931 85.868193 
L 308.933994 85.855493 
L 310.273058 85.846783 
L 311.612121 85.84071 
L 312.951185 85.836412 
L 314.290248 85.833328 
L 315.629311 85.831086 
L 316.968375 85.829437 
L 318.307438 85.82821 
L 319.646501 85.827289 
L 320.985565 85.82659 
L 322.324628 85.826055 
L 323.663691 85.825642 
L 325.002755 85.825321 
L 326.341818 85.82507 
L 327.680882 85.824871 
L 329.019945 85.824714 
L 330.359008 85.824588 
L 331.698072 85.824486 
L 333.037135 85.824404 
L 334.376198 85.824338 
L 335.715262 85.824283 
L 337.054325 85.824239 
L 338.393388 85.824202 
L 339.732452 85.824171 
L 341.071515 85.824146 
L 342.410579 85.824125 
L 343.749642 85.824107 
L 345.088705 85.824092 
L 346.427769 85.82408 
L 347.766832 85.824069 
L 349.105895 85.82406 
L 350.444959 85.824052 
L 351.784022 85.824045 
L 353.123085 85.82404 
L 354.462149 85.824035 
L 355.801212 85.824031 
L 357.140275 85.824027 
L 358.479339 85.824024 
L 359.818402 85.824021 
L 361.157466 85.824019 
L 362.496529 85.824017 
L 363.835592 85.824015 
L 365.174656 85.824013 
L 366.513719 85.824012 
L 367.852782 85.824011 
L 369.191846 85.824009 
L 370.530909 85.824008 
L 371.869972 85.824008 
L 373.209036 85.824007 
L 374.548099 85.824006 
L 375.887163 85.824006 
L 377.226226 85.824005 
L 378.565289 85.824005 
L 379.904353 85.824004 
L 381.243416 85.824004 
L 382.582479 85.824003 
L 383.921543 85.824003 
L 385.260606 85.824003 
L 386.599669 85.824003 
L 387.938733 85.824002 
L 389.277796 85.824002 
L 390.61686 85.824002 
L 391.955923 85.824002 
L 393.294986 85.824002 
L 394.63405 85.824002 
L 395.973113 85.824001 
L 397.312176 85.824001 
L 398.65124 85.824001 
L 399.990303 85.824001 
L 401.329366 85.824001 
L 402.66843 85.824001 
L 404.007493 85.824001 
L 405.346556 85.824001 
L 406.68562 85.824001 
L 408.024683 85.824001 
L 409.363747 85.824001 
L 410.70281 85.824001 
L 412.041873 85.824001 
L 413.380937 85.824001 
L 414.72 85.824 
" clip-path="url(#p265098f06c)" style="fill: none; stroke: #ff7f0e; stroke-width: 1.5; stroke-linecap: square"/>
   </g>
   <g id="line2d_33">
    <path d="M 284.85924 346.6 
L 286.169917 132.340985 
L 287.508981 97.021942 
L 288.848044 89.180793 
L 290.187107 87.005694 
L 291.526171 86.294362 
L 292.865234 86.030283 
L 294.204298 85.921853 
L 295.543361 85.873527 
L 296.882424 85.85047 
L 298.221488 85.838818 
L 299.560551 85.832634 
L 300.899614 85.829209 
L 302.238678 85.82724 
L 303.577741 85.826071 
L 304.916804 85.825356 
L 306.255868 85.824908 
L 307.594931 85.824619 
L 308.933994 85.82443 
L 310.273058 85.824304 
L 311.612121 85.824218 
L 312.951185 85.824158 
L 314.290248 85.824116 
L 315.629311 85.824086 
L 316.968375 85.824065 
L 318.307438 85.824049 
L 319.646501 85.824038 
L 320.985565 85.824029 
L 322.324628 85.824023 
L 323.663691 85.824018 
L 325.002755 85.824014 
L 326.341818 85.824011 
L 327.680882 85.824009 
L 329.019945 85.824007 
L 330.359008 85.824006 
L 331.698072 85.824005 
L 333.037135 85.824004 
L 334.376198 85.824003 
L 335.715262 85.824003 
L 337.054325 85.824002 
L 338.393388 85.824002 
L 339.732452 85.824002 
L 341.071515 85.824001 
L 342.410579 85.824001 
L 343.749642 85.824001 
L 345.088705 85.824001 
L 346.427769 85.824001 
L 347.766832 85.824001 
L 349.105895 85.824001 
L 350.444959 85.824 
L 351.784022 85.824 
L 353.123085 85.824 
L 354.462149 85.824 
L 355.801212 85.824 
L 357.140275 85.824 
L 358.479339 85.824 
L 359.818402 85.824 
L 361.157466 85.824 
L 362.496529 85.824 
L 363.835592 85.824 
L 365.174656 85.824 
L 366.513719 85.824 
L 367.852782 85.824 
L 369.191846 85.824 
L 370.530909 85.824 
L 371.869972 85.824 
L 373.209036 85.824 
L 374.548099 85.824 
L 375.887163 85.824 
L 377.226226 85.824 
L 378.565289 85.824 
L 379.904353 85.824 
L 381.243416 85.824 
L 382.582479 85.824 
L 383.921543 85.824 
L 385.260606 85.824 
L 386.599669 85.824 
L 387.938733 85.824 
L 389.277796 85.824 
L 390.61686 85.824 
L 391.955923 85.824 
L 393.294986 85.824 
L 394.63405 85.824 
L 395.973113 85.824 
L 397.312176 85.824 
L 398.65124 85.824 
L 399.990303 85.824 
L 401.329366 85.824 
L 402.66843 85.824 
L 404.007493 85.824 
L 405.346556 85.824 
L 406.68562 85.824 
L 408.024683 85.824 
L 409.363747 85.824 
L 410.70281 85.824 
L 412.041873 85.824 
L 413.380937 85.824 
L 414.72 85.824 
" clip-path="url(#p265098f06c)" style="fill: none; stroke: #2ca02c; stroke-width: 1.5; stroke-linecap: square"/>
   </g>
   <g id="line2d_34">
    <path d="M 285.656857 346.6 
L 286.169917 178.857971 
L 287.508981 108.219883 
L 288.848044 92.537587 
L 290.187107 88.187389 
L 291.526171 86.764724 
L 292.865234 86.236566 
L 294.204298 86.019707 
L 295.543361 85.923053 
L 296.882424 85.876939 
L 298.221488 85.853637 
L 299.560551 85.841268 
L 300.899614 85.834418 
L 302.238678 85.830481 
L 303.577741 85.828142 
L 304.916804 85.826712 
L 306.255868 85.825815 
L 307.594931 85.825239 
L 308.933994 85.82486 
L 310.273058 85.824607 
L 311.612121 85.824435 
L 312.951185 85.824316 
L 314.290248 85.824232 
L 315.629311 85.824173 
L 316.968375 85.82413 
L 318.307438 85.824099 
L 319.646501 85.824076 
L 320.985565 85.824059 
L 322.324628 85.824046 
L 323.663691 85.824036 
L 325.002755 85.824028 
L 326.341818 85.824023 
L 327.680882 85.824018 
L 329.019945 85.824015 
L 330.359008 85.824012 
L 331.698072 85.82401 
L 333.037135 85.824008 
L 334.376198 85.824007 
L 335.715262 85.824005 
L 337.054325 85.824005 
L 338.393388 85.824004 
L 339.732452 85.824003 
L 341.071515 85.824003 
L 342.410579 85.824002 
L 343.749642 85.824002 
L 345.088705 85.824002 
L 346.427769 85.824001 
L 347.766832 85.824001 
L 349.105895 85.824001 
L 350.444959 85.824001 
L 351.784022 85.824001 
L 353.123085 85.824001 
L 354.462149 85.824001 
L 355.801212 85.824 
L 357.140275 85.824 
L 358.479339 85.824 
L 359.818402 85.824 
L 361.157466 85.824 
L 362.496529 85.824 
L 363.835592 85.824 
L 365.174656 85.824 
L 366.513719 85.824 
L 367.852782 85.824 
L 369.191846 85.824 
L 370.530909 85.824 
L 371.869972 85.824 
L 373.209036 85.824 
L 374.548099 85.824 
L 375.887163 85.824 
L 377.226226 85.824 
L 378.565289 85.824 
L 379.904353 85.824 
L 381.243416 85.824 
L 382.582479 85.824 
L 383.921543 85.824 
L 385.260606 85.824 
L 386.599669 85.824 
L 387.938733 85.824 
L 389.277796 85.824 
L 390.61686 85.824 
L 391.955923 85.824 
L 393.294986 85.824 
L 394.63405 85.824 
L 395.973113 85.824 
L 397.312176 85.824 
L 398.65124 85.824 
L 399.990303 85.824 
L 401.329366 85.824 
L 402.66843 85.824 
L 404.007493 85.824 
L 405.346556 85.824 
L 406.68562 85.824 
L 408.024683 85.824 
L 409.363747 85.824 
L 410.70281 85.824 
L 412.041873 85.824 
L 413.380937 85.824 
L 414.72 85.824 
" clip-path="url(#p265098f06c)" style="fill: none; stroke: #d62728; stroke-width: 1.5; stroke-linecap: square"/>
   </g>
   <g id="line2d_35">
    <path d="M 285.922729 346.6 
L 286.169917 225.374956 
L 287.508981 119.417825 
L 288.848044 95.89438 
L 290.187107 89.369083 
L 291.526171 87.235086 
L 292.865234 86.44285 
L 294.204298 86.11756 
L 295.543361 85.97258 
L 296.882424 85.903409 
L 298.221488 85.868455 
L 299.560551 85.849903 
L 300.899614 85.839627 
L 302.238678 85.833721 
L 303.577741 85.830213 
L 304.916804 85.828069 
L 306.255868 85.826723 
L 307.594931 85.825858 
L 308.933994 85.825291 
L 310.273058 85.824911 
L 311.612121 85.824653 
L 312.951185 85.824474 
L 314.290248 85.824349 
L 315.629311 85.824259 
L 316.968375 85.824195 
L 318.307438 85.824148 
L 319.646501 85.824114 
L 320.985565 85.824088 
L 322.324628 85.824069 
L 323.663691 85.824054 
L 325.002755 85.824043 
L 326.341818 85.824034 
L 327.680882 85.824027 
L 329.019945 85.824022 
L 330.359008 85.824018 
L 331.698072 85.824015 
L 333.037135 85.824012 
L 334.376198 85.82401 
L 335.715262 85.824008 
L 337.054325 85.824007 
L 338.393388 85.824006 
L 339.732452 85.824005 
L 341.071515 85.824004 
L 342.410579 85.824003 
L 343.749642 85.824003 
L 345.088705 85.824002 
L 346.427769 85.824002 
L 347.766832 85.824002 
L 349.105895 85.824002 
L 350.444959 85.824001 
L 351.784022 85.824001 
L 353.123085 85.824001 
L 354.462149 85.824001 
L 355.801212 85.824001 
L 357.140275 85.824001 
L 358.479339 85.824001 
L 359.818402 85.824 
L 361.157466 85.824 
L 362.496529 85.824 
L 363.835592 85.824 
L 365.174656 85.824 
L 366.513719 85.824 
L 367.852782 85.824 
L 369.191846 85.824 
L 370.530909 85.824 
L 371.869972 85.824 
L 373.209036 85.824 
L 374.548099 85.824 
L 375.887163 85.824 
L 377.226226 85.824 
L 378.565289 85.824 
L 379.904353 85.824 
L 381.243416 85.824 
L 382.582479 85.824 
L 383.921543 85.824 
L 385.260606 85.824 
L 386.599669 85.824 
L 387.938733 85.824 
L 389.277796 85.824 
L 390.61686 85.824 
L 391.955923 85.824 
L 393.294986 85.824 
L 394.63405 85.824 
L 395.973113 85.824 
L 397.312176 85.824 
L 398.65124 85.824 
L 399.990303 85.824 
L 401.329366 85.824 
L 402.66843 85.824 
L 404.007493 85.824 
L 405.346556 85.824 
L 406.68562 85.824 
L 408.024683 85.824 
L 409.363747 85.824 
L 410.70281 85.824 
L 412.041873 85.824 
L 413.380937 85.824 
L 414.72 85.824 
" clip-path="url(#p265098f06c)" style="fill: none; stroke: #9467bd; stroke-width: 1.5; stroke-linecap: square"/>
   </g>
   <g id="line2d_36">
    <path d="M 286.055665 346.6 
L 286.169917 271.891942 
L 287.508981 130.615766 
L 288.848044 99.251174 
L 290.187107 90.550778 
L 291.526171 87.705448 
L 292.865234 86.649133 
L 294.204298 86.215413 
L 295.543361 86.022107 
L 296.882424 85.929879 
L 298.221488 85.883274 
L 299.560551 85.858537 
L 300.899614 85.844836 
L 302.238678 85.836962 
L 303.577741 85.832285 
L 304.916804 85.829425 
L 306.255868 85.82763 
L 307.594931 85.826477 
L 308.933994 85.825721 
L 310.273058 85.825215 
L 311.612121 85.82487 
L 312.951185 85.824632 
L 314.290248 85.824465 
L 315.629311 85.824346 
L 316.968375 85.82426 
L 318.307438 85.824198 
L 319.646501 85.824152 
L 320.985565 85.824117 
L 322.324628 85.824091 
L 323.663691 85.824072 
L 325.002755 85.824057 
L 326.341818 85.824045 
L 327.680882 85.824036 
L 329.019945 85.824029 
L 330.359008 85.824024 
L 331.698072 85.824019 
L 333.037135 85.824016 
L 334.376198 85.824013 
L 335.715262 85.824011 
L 337.054325 85.824009 
L 338.393388 85.824008 
L 339.732452 85.824006 
L 341.071515 85.824005 
L 342.410579 85.824004 
L 343.749642 85.824004 
L 345.088705 85.824003 
L 346.427769 85.824003 
L 347.766832 85.824002 
L 349.105895 85.824002 
L 350.444959 85.824002 
L 351.784022 85.824002 
L 353.123085 85.824001 
L 354.462149 85.824001 
L 355.801212 85.824001 
L 357.140275 85.824001 
L 358.479339 85.824001 
L 359.818402 85.824001 
L 361.157466 85.824001 
L 362.496529 85.824001 
L 363.835592 85.824 
L 365.174656 85.824 
L 366.513719 85.824 
L 367.852782 85.824 
L 369.191846 85.824 
L 370.530909 85.824 
L 371.869972 85.824 
L 373.209036 85.824 
L 374.548099 85.824 
L 375.887163 85.824 
L 377.226226 85.824 
L 378.565289 85.824 
L 379.904353 85.824 
L 381.243416 85.824 
L 382.582479 85.824 
L 383.921543 85.824 
L 385.260606 85.824 
L 386.599669 85.824 
L 387.938733 85.824 
L 389.277796 85.824 
L 390.61686 85.824 
L 391.955923 85.824 
L 393.294986 85.824 
L 394.63405 85.824 
L 395.973113 85.824 
L 397.312176 85.824 
L 398.65124 85.824 
L 399.990303 85.824 
L 401.329366 85.824 
L 402.66843 85.824 
L 404.007493 85.824 
L 405.346556 85.824 
L 406.68562 85.824 
L 408.024683 85.824 
L 409.363747 85.824 
L 410.70281 85.824 
L 412.041873 85.824 
L 413.380937 85.824 
L 414.72 85.824 
" clip-path="url(#p265098f06c)" style="fill: none; stroke: #8c564b; stroke-width: 1.5; stroke-linecap: square"/>
   </g>
   <g id="patch_8">
    <path d="M 252.392727 307.584 
L 252.392727 41.472 
" style="fill: none; stroke: #000000; stroke-width: 0.8; stroke-linejoin: miter; stroke-linecap: square"/>
   </g>
   <g id="patch_9">
    <path d="M 414.72 307.584 
L 414.72 41.472 
" style="fill: none; stroke: #000000; stroke-width: 0.8; stroke-linejoin: miter; stroke-linecap: square"/>
   </g>
   <g id="patch_10">
    <path d="M 252.392727 307.584 
L 414.72 307.584 
" style="fill: none; stroke: #000000; stroke-width: 0.8; stroke-linejoin: miter; stroke-linecap: square"/>
   </g>
   <g id="patch_11">
    <path d="M 252.392727 41.472 
L 414.72 41.472 
" style="fill: none; stroke: #000000; stroke-width: 0.8; stroke-linejoin: miter; stroke-linecap: square"/>
   </g>
  </g>
  <g id="text_21">
   <!-- t = 2.500000000000001 -->
   <g transform="translate(156.219375 16.030125) scale(0.12 -0.12)">
    <defs>
     <path id="DejaVuSans-74" d="M 1172 4494 
L 1172 3500 
L 2356 3500 
L 2356 3053 
L 1172 3053 
L 1172 1153 
Q 1172 725 1289 603 
Q 1406 481 1766 481 
L 2356 481 
L 2356 0 
L 1766 0 
Q 1100 0 847 248 
Q 594 497 594 1153 
L 594 3053 
L 172 3053 
L 172 3500 
L 594 3500 
L 594 4494 
L 1172 4494 
z
" transform="scale(0.015625)"/>
     <path id="DejaVuSans-20" transform="scale(0.015625)"/>
     <path id="DejaVuSans-3d" d="M 678 2906 
L 4684 2906 
L 4684 2381 
L 678 2381 
L 678 2906 
z
M 678 1631 
L 4684 1631 
L 4684 1100 
L 678 1100 
L 678 1631 
z
" transform="scale(0.015625)"/>
    </defs>
    <use xlink:href="#DejaVuSans-74"/>
    <use xlink:href="#DejaVuSans-20" x="39.208984"/>
    <use xlink:href="#DejaVuSans-3d" x="70.996094"/>
    <use xlink:href="#DejaVuSans-20" x="154.785156"/>
    <use xlink:href="#DejaVuSans-32" x="186.572266"/>
    <use xlink:href="#DejaVuSans-2e" x="250.195312"/>
    <use xlink:href="#DejaVuSans-35" x="281.982422"/>
    <use xlink:href="#DejaVuSans-30" x="345.605469"/>
    <use xlink:href="#DejaVuSans-30" x="409.228516"/>
    <use xlink:href="#DejaVuSans-30" x="472.851562"/>
    <use xlink:href="#DejaVuSans-30" x="536.474609"/>
    <use xlink:href="#DejaVuSans-30" x="600.097656"/>
    <use xlink:href="#DejaVuSans-30" x="663.720703"/>
    <use xlink:href="#DejaVuSans-30" x="727.34375"/>
    <use xlink:href="#DejaVuSans-30" x="790.966797"/>
    <use xlink:href="#DejaVuSans-30" x="854.589844"/>
    <use xlink:href="#DejaVuSans-30" x="918.212891"/>
    <use xlink:href="#DejaVuSans-30" x="981.835938"/>
    <use xlink:href="#DejaVuSans-30" x="1045.458984"/>
    <use xlink:href="#DejaVuSans-30" x="1109.082031"/>
    <use xlink:href="#DejaVuSans-31" x="1172.705078"/>
   </g>
  </g>
 </g>
 <defs>
  <clipPath id="p9efb827959">
   <rect x="57.6" y="41.472" width="162.327273" height="266.112"/>
  </clipPath>
  <clipPath id="p265098f06c">
   <rect x="252.392727" y="41.472" width="162.327273" height="266.112"/>
  </clipPath>
 </defs>
</svg>
