<?xml version="1.0" encoding="utf-8" standalone="no"?>
<!DOCTYPE svg PUBLIC "-//W3C//DTD SVG 1.1//EN"
  "http://www.w3.org/Graphics/SVG/1.1/DTD/svg11.dtd">
<svg xmlns:xlink="http://www.w3.org/1999/xlink" width="460.8pt" height="345.6pt" viewBox="0 0 460.8 345.6" xmlns="http://www.w3.org/2000/svg" version="1.1">
 <metadata>
  <rdf:RDF xmlns:dc="http://purl.org/dc/elements/1.1/" xmlns:cc="http://creativecommons.org/ns#" xmlns:rdf="http://www.w3.org/1999/02/22-rdf-syntax-ns#">
   <cc:Work>
    <dc:type rdf:resource="http://purl.org/dc/dcmitype/StillImage"/>
    <dc:date>2023-01-17T14:53:42.835718</dc:date>
    <dc:format>image/svg+xml</dc:format>
    <dc:creator>
     <cc:Agent>
      <dc:title>Matplotlib v3.6.3, https://matplotlib.org/</dc:title>
     </cc:Agent>
    </dc:creator>
   </cc:Work>
  </rdf:RDF>
 </metadata>
 <defs>
  <style type="text/css">*{stroke-linejoin: round; stroke-linecap: butt}</style>
 </defs>
 <g id="figure_1">
  <g id="patch_1">
   <path d="M 0 345.6 
L 460.8 345.6 
L 460.8 0 
L 0 0 
z
" style="fill: #ffffff"/>
  </g>
  <g id="axes_1">
   <g id="patch_2">
    <path d="M 57.6 307.584 
L 219.927273 307.584 
L 219.927273 41.472 
L 57.6 41.472 
z
" style="fill: #ffffff"/>
   </g>
   <g id="Quiver_1">
    <path d="M 65.048456 295.050849 
L 75.663122 296.749196 
L 75.36586 295.804951 
L 79.527533 297.815843 
L 74.946195 298.427854 
L 75.523234 297.623497 
L 64.908568 295.925151 
L 65.048456 295.050849 
" clip-path="url(#pfd230286c0)"/>
    <path d="M 79.82236 295.053886 
L 87.554554 296.600325 
L 87.294086 295.645275 
L 91.374754 297.815843 
L 86.77315 298.249957 
L 87.380909 297.468552 
L 79.648714 295.922114 
L 79.82236 295.053886 
" clip-path="url(#pfd230286c0)"/>
    <path d="M 94.606632 295.060237 
L 99.486181 296.361451 
L 99.286559 295.391855 
L 103.221975 297.815843 
L 98.602139 297.958431 
L 99.258041 297.216976 
L 94.378492 295.915763 
L 94.606632 295.060237 
" clip-path="url(#pfd230286c0)"/>
    <path d="M 109.414005 295.076953 
L 111.534194 295.925029 
L 111.451985 294.938517 
L 115.069195 297.815843 
L 110.465473 297.404797 
L 111.205357 296.747122 
L 109.085168 295.899047 
L 109.414005 295.076953 
" clip-path="url(#pfd230286c0)"/>
    <path d="M 124.239396 295.19702 
L 124.530376 295.429804 
L 124.704965 294.615059 
L 126.916416 297.815843 
L 123.308259 296.360941 
L 124.064808 296.011765 
L 123.773827 295.77898 
L 124.239396 295.19702 
" clip-path="url(#pfd230286c0)"/>
    <path d="M 138.996421 295.488 
L 138.996421 295.720784 
L 139.461989 295.488 
L 138.763636 297.815843 
L 138.065283 295.488 
L 138.530852 295.720784 
L 138.530852 295.488 
L 138.996421 295.488 
" clip-path="url(#pfd230286c0)"/>
    <path d="M 153.753445 295.77898 
L 153.462465 296.011765 
L 154.219014 296.360941 
L 150.610857 297.815843 
L 152.822308 294.615059 
L 152.996896 295.429804 
L 153.287877 295.19702 
L 153.753445 295.77898 
" clip-path="url(#pfd230286c0)"/>
    <path d="M 168.442105 295.899047 
L 166.321916 296.747122 
L 167.0618 297.404797 
L 162.458078 297.815843 
L 166.075288 294.938517 
L 165.993078 295.925029 
L 168.113267 295.076953 
L 168.442105 295.899047 
" clip-path="url(#pfd230286c0)"/>
    <path d="M 183.148781 295.915763 
L 178.269231 297.216976 
L 178.925134 297.958431 
L 174.305298 297.815843 
L 178.240714 295.391855 
L 178.041091 296.361451 
L 182.920641 295.060237 
L 183.148781 295.915763 
" clip-path="url(#pfd230286c0)"/>
    <path d="M 197.878558 295.922114 
L 190.146364 297.468552 
L 190.754123 298.249957 
L 186.152519 297.815843 
L 190.233187 295.645275 
L 189.972718 296.600325 
L 197.704913 295.053886 
L 197.878558 295.922114 
" clip-path="url(#pfd230286c0)"/>
    <path d="M 212.618704 295.925151 
L 202.004039 297.623497 
L 202.581077 298.427854 
L 197.999739 297.815843 
L 202.161413 295.804951 
L 201.86415 296.749196 
L 212.478816 295.050849 
L 212.618704 295.925151 
" clip-path="url(#pfd230286c0)"/>
    <path d="M 65.034721 270.856872 
L 75.63159 272.213271 
L 75.304878 271.278807 
L 79.527533 273.158275 
L 74.967628 273.913575 
L 75.519173 273.091527 
L 64.922304 271.735128 
L 65.034721 270.856872 
" clip-path="url(#pfd230286c0)"/>
    <path d="M 79.805481 270.858849 
L 87.510343 272.091627 
L 87.21308 271.147382 
L 91.374754 273.158275 
L 86.793416 273.770285 
L 87.370455 272.965928 
L 79.665593 271.733151 
L 79.805481 270.858849 
" clip-path="url(#pfd230286c0)"/>
    <path d="M 94.584928 270.863032 
L 99.41763 271.894008 
L 99.169395 270.935706 
L 103.221975 273.158275 
L 98.615196 273.533514 
L 99.232897 272.759944 
L 94.400195 271.728968 
L 94.584928 270.863032 
" clip-path="url(#pfd230286c0)"/>
    <path d="M 109.384514 270.874352 
L 111.409287 271.522279 
L 111.257494 270.544055 
L 115.069195 273.158275 
L 110.447929 273.073945 
L 111.139432 272.365576 
L 109.114659 271.717648 
L 109.384514 270.874352 
" clip-path="url(#pfd230286c0)"/>
    <path d="M 124.192839 271.00502 
L 124.483819 271.191247 
L 124.565294 270.423059 
L 126.916416 273.158275 
L 123.447929 272.168941 
L 124.111365 271.773208 
L 123.820384 271.58698 
L 124.192839 271.00502 
" clip-path="url(#pfd230286c0)"/>
    <path d="M 138.949864 271.296 
L 138.949864 271.482227 
L 139.322319 271.296 
L 138.763636 273.158275 
L 138.204954 271.296 
L 138.577409 271.482227 
L 138.577409 271.296 
L 138.949864 271.296 
" clip-path="url(#pfd230286c0)"/>
    <path d="M 153.706889 271.58698 
L 153.415908 271.773208 
L 154.079344 272.168941 
L 150.610857 273.158275 
L 152.961979 270.423059 
L 153.043453 271.191247 
L 153.334434 271.00502 
L 153.706889 271.58698 
" clip-path="url(#pfd230286c0)"/>
    <path d="M 168.412613 271.717648 
L 166.387841 272.365576 
L 167.079344 273.073945 
L 162.458078 273.158275 
L 166.269779 270.544055 
L 166.117986 271.522279 
L 168.142758 270.874352 
L 168.412613 271.717648 
" clip-path="url(#pfd230286c0)"/>
    <path d="M 183.127077 271.728968 
L 178.294376 272.759944 
L 178.912077 273.533514 
L 174.305298 273.158275 
L 178.357878 270.935706 
L 178.109643 271.894008 
L 182.942344 270.863032 
L 183.127077 271.728968 
" clip-path="url(#pfd230286c0)"/>
    <path d="M 197.86168 271.733151 
L 190.156818 272.965928 
L 190.733857 273.770285 
L 186.152519 273.158275 
L 190.314192 271.147382 
L 190.01693 272.091627 
L 197.721791 270.858849 
L 197.86168 271.733151 
" clip-path="url(#pfd230286c0)"/>
    <path d="M 212.604969 271.735128 
L 202.0081 273.091527 
L 202.559645 273.913575 
L 197.999739 273.158275 
L 202.222394 271.278807 
L 201.895683 272.213271 
L 212.492552 270.856872 
L 212.604969 271.735128 
" clip-path="url(#pfd230286c0)"/>
    <path d="M 65.020818 246.663315 
L 75.603677 247.67927 
L 75.247603 246.755595 
L 79.527533 248.500706 
L 74.993769 249.399703 
L 75.519065 248.560639 
L 64.936207 247.544685 
L 65.020818 246.663315 
" clip-path="url(#pfd230286c0)"/>
    <path d="M 79.788284 246.664443 
L 87.471486 247.586427 
L 87.137422 246.654566 
L 91.374754 248.500706 
L 86.820941 249.291909 
L 87.365992 248.465541 
L 79.68279 247.543557 
L 79.788284 246.664443 
" clip-path="url(#pfd230286c0)"/>
    <path d="M 94.562506 246.666849 
L 99.357563 247.434059 
L 99.060301 246.489813 
L 103.221975 248.500706 
L 98.640637 249.112717 
L 99.217675 248.30836 
L 94.422618 247.541151 
L 94.562506 246.666849 
" clip-path="url(#pfd230286c0)"/>
    <path d="M 109.352903 246.673514 
L 111.298135 247.140369 
L 111.074282 246.17608 
L 115.069195 248.500706 
L 110.454382 248.758998 
L 111.091502 248.001342 
L 109.14627 247.534486 
L 109.352903 246.673514 
" clip-path="url(#pfd230286c0)"/>
    <path d="M 124.146282 246.81302 
L 124.437263 246.95269 
L 124.425623 246.231059 
L 126.916416 248.500706 
L 123.5876 247.976941 
L 124.157921 247.534651 
L 123.866941 247.39498 
L 124.146282 246.81302 
" clip-path="url(#pfd230286c0)"/>
    <path d="M 138.903307 247.104 
L 138.903307 247.243671 
L 139.182648 247.104 
L 138.763636 248.500706 
L 138.344625 247.104 
L 138.623966 247.243671 
L 138.623966 247.104 
L 138.903307 247.104 
" clip-path="url(#pfd230286c0)"/>
    <path d="M 153.660332 247.39498 
L 153.369351 247.534651 
L 153.939673 247.976941 
L 150.610857 248.500706 
L 153.101649 246.231059 
L 153.09001 246.95269 
L 153.380991 246.81302 
L 153.660332 247.39498 
" clip-path="url(#pfd230286c0)"/>
    <path d="M 168.381003 247.534486 
L 166.435771 248.001342 
L 167.072891 248.758998 
L 162.458078 248.500706 
L 166.45299 246.17608 
L 166.229138 247.140369 
L 168.174369 246.673514 
L 168.381003 247.534486 
" clip-path="url(#pfd230286c0)"/>
    <path d="M 183.104655 247.541151 
L 178.309597 248.30836 
L 178.886636 249.112717 
L 174.305298 248.500706 
L 178.466972 246.489813 
L 178.169709 247.434059 
L 182.964767 246.666849 
L 183.104655 247.541151 
" clip-path="url(#pfd230286c0)"/>
    <path d="M 197.844482 247.543557 
L 190.161281 248.465541 
L 190.706332 249.291909 
L 186.152519 248.500706 
L 190.389851 246.654566 
L 190.055787 247.586427 
L 197.738989 246.664443 
L 197.844482 247.543557 
" clip-path="url(#pfd230286c0)"/>
    <path d="M 212.591066 247.544685 
L 202.008208 248.560639 
L 202.533504 249.399703 
L 197.999739 248.500706 
L 202.279669 246.755595 
L 201.923596 247.67927 
L 212.506455 246.663315 
L 212.591066 247.544685 
" clip-path="url(#pfd230286c0)"/>
    <path d="M 65.006788 222.470193 
L 75.579547 223.14685 
L 75.194292 222.23496 
L 79.527533 223.843137 
L 75.024638 224.885802 
L 75.522996 224.030463 
L 64.950237 223.353807 
L 65.006788 222.470193 
" clip-path="url(#pfd230286c0)"/>
    <path d="M 79.770841 222.470699 
L 87.438351 223.0841 
L 87.067658 222.166194 
L 91.374754 223.843137 
L 86.855833 224.813999 
L 87.367742 223.966702 
L 79.700233 223.353301 
L 79.770841 222.470699 
" clip-path="url(#pfd230286c0)"/>
    <path d="M 94.539518 222.471786 
L 99.307009 222.980319 
L 98.960708 222.052936 
L 103.221975 223.843137 
L 98.678971 224.694217 
L 99.213097 223.860746 
L 94.445606 223.352214 
L 94.539518 222.471786 
" clip-path="url(#pfd230286c0)"/>
    <path d="M 109.319531 222.474849 
L 111.204784 222.77649 
L 110.907522 221.832245 
L 115.069195 223.843137 
L 110.487857 224.455148 
L 111.064896 223.650791 
L 109.179643 223.349151 
L 109.319531 222.474849 
" clip-path="url(#pfd230286c0)"/>
    <path d="M 124.099725 222.62102 
L 124.390706 222.714133 
L 124.285953 222.039059 
L 126.916416 223.843137 
L 123.72727 223.784941 
L 124.204478 223.296094 
L 123.913498 223.20298 
L 124.099725 222.62102 
" clip-path="url(#pfd230286c0)"/>
    <path d="M 138.85675 222.912 
L 138.85675 223.005114 
L 139.042978 222.912 
L 138.763636 223.843137 
L 138.484295 222.912 
L 138.670523 223.005114 
L 138.670523 222.912 
L 138.85675 222.912 
" clip-path="url(#pfd230286c0)"/>
    <path d="M 153.613775 223.20298 
L 153.322794 223.296094 
L 153.800002 223.784941 
L 150.610857 223.843137 
L 153.24132 222.039059 
L 153.136567 222.714133 
L 153.427547 222.62102 
L 153.613775 223.20298 
" clip-path="url(#pfd230286c0)"/>
    <path d="M 168.34763 223.349151 
L 166.462377 223.650791 
L 167.039416 224.455148 
L 162.458078 223.843137 
L 166.619751 221.832245 
L 166.322489 222.77649 
L 168.207742 222.474849 
L 168.34763 223.349151 
" clip-path="url(#pfd230286c0)"/>
    <path d="M 183.081667 223.352214 
L 178.314176 223.860746 
L 178.848301 224.694217 
L 174.305298 223.843137 
L 178.566565 222.052936 
L 178.220264 222.980319 
L 182.987755 222.471786 
L 183.081667 223.352214 
" clip-path="url(#pfd230286c0)"/>
    <path d="M 197.82704 223.353301 
L 190.15953 223.966702 
L 190.671439 224.813999 
L 186.152519 223.843137 
L 190.459615 222.166194 
L 190.088922 223.0841 
L 197.756431 222.470699 
L 197.82704 223.353301 
" clip-path="url(#pfd230286c0)"/>
    <path d="M 212.577036 223.353807 
L 202.004277 224.030463 
L 202.502635 224.885802 
L 197.999739 223.843137 
L 202.332981 222.23496 
L 201.947725 223.14685 
L 212.520485 222.470193 
L 212.577036 223.353807 
" clip-path="url(#pfd230286c0)"/>
    <path d="M 64.992672 198.277516 
L 75.559335 198.615649 
L 75.145169 197.716521 
L 79.527533 199.185569 
L 75.060212 200.371426 
L 75.531016 199.500617 
L 64.964353 199.162484 
L 64.992672 198.277516 
" clip-path="url(#pfd230286c0)"/>
    <path d="M 79.753231 198.277643 
L 87.411235 198.583963 
L 87.004267 197.681555 
L 91.374754 199.185569 
L 86.898101 200.335697 
L 87.375847 199.468677 
L 79.717843 199.162357 
L 79.753231 198.277643 
" clip-path="url(#pfd230286c0)"/>
    <path d="M 94.51614 198.277918 
L 99.26681 198.531287 
L 98.871883 197.623544 
L 103.221975 199.185569 
L 98.730417 200.276039 
L 99.219655 199.415452 
L 94.468984 199.162082 
L 94.51614 198.277918 
" clip-path="url(#pfd230286c0)"/>
    <path d="M 109.284891 198.278699 
L 111.132792 198.426531 
L 110.762099 197.508626 
L 115.069195 199.185569 
L 110.550275 200.156431 
L 111.062184 199.309133 
L 109.214283 199.161301 
L 109.284891 198.278699 
" clip-path="url(#pfd230286c0)"/>
    <path d="M 124.053168 198.42902 
L 124.344149 198.475576 
L 124.146282 197.847059 
L 126.916416 199.185569 
L 123.866941 199.592941 
L 124.251035 199.057537 
L 123.960055 199.01098 
L 124.053168 198.42902 
" clip-path="url(#pfd230286c0)"/>
    <path d="M 138.763636 199.162711 
L 139.147035 198.941355 
L 139.147035 198.498645 
L 138.763636 198.277289 
L 138.380238 198.498645 
L 138.380238 198.941355 
L 138.763636 199.162711 
L 139.147035 198.941355 
" clip-path="url(#pfd230286c0)"/>
    <path d="M 153.567218 199.01098 
L 153.276238 199.057537 
L 153.660332 199.592941 
L 150.610857 199.185569 
L 153.380991 197.847059 
L 153.183124 198.475576 
L 153.474104 198.42902 
L 153.567218 199.01098 
" clip-path="url(#pfd230286c0)"/>
    <path d="M 168.31299 199.161301 
L 166.465089 199.309133 
L 166.976998 200.156431 
L 162.458078 199.185569 
L 166.765174 197.508626 
L 166.394481 198.426531 
L 168.242382 198.278699 
L 168.31299 199.161301 
" clip-path="url(#pfd230286c0)"/>
    <path d="M 183.058288 199.162082 
L 178.307618 199.415452 
L 178.796856 200.276039 
L 174.305298 199.185569 
L 178.655389 197.623544 
L 178.260462 198.531287 
L 183.011133 198.277918 
L 183.058288 199.162082 
" clip-path="url(#pfd230286c0)"/>
    <path d="M 197.80943 199.162357 
L 190.151426 199.468677 
L 190.629172 200.335697 
L 186.152519 199.185569 
L 190.523006 197.681555 
L 190.116037 198.583963 
L 197.774041 198.277643 
L 197.80943 199.162357 
" clip-path="url(#pfd230286c0)"/>
    <path d="M 212.56292 199.162484 
L 201.996257 199.500617 
L 202.46706 200.371426 
L 197.999739 199.185569 
L 202.382103 197.716521 
L 201.967938 198.615649 
L 212.534601 198.277516 
L 212.56292 199.162484 
" clip-path="url(#pfd230286c0)"/>
    <path d="M 64.978512 174.085289 
L 75.543137 174.085289 
L 75.100426 173.199868 
L 79.527533 174.528 
L 75.100426 175.856132 
L 75.543137 174.970711 
L 64.978512 174.970711 
L 64.978512 174.085289 
" clip-path="url(#pfd230286c0)"/>
    <path d="M 79.735537 174.085289 
L 87.390357 174.085289 
L 86.947647 173.199868 
L 91.374754 174.528 
L 86.947647 175.856132 
L 87.390357 174.970711 
L 79.735537 174.970711 
L 79.735537 174.085289 
" clip-path="url(#pfd230286c0)"/>
    <path d="M 94.492562 174.085289 
L 99.237578 174.085289 
L 98.794867 173.199868 
L 103.221975 174.528 
L 98.794867 175.856132 
L 99.237578 174.970711 
L 94.492562 174.970711 
L 94.492562 174.085289 
" clip-path="url(#pfd230286c0)"/>
    <path d="M 109.249587 174.085289 
L 111.084798 174.085289 
L 110.642088 173.199868 
L 115.069195 174.528 
L 110.642088 175.856132 
L 111.084798 174.970711 
L 109.249587 174.970711 
L 109.249587 174.085289 
" clip-path="url(#pfd230286c0)"/>
    <path d="M 124.006612 174.23702 
L 124.297592 174.23702 
L 124.006612 173.655059 
L 126.916416 174.528 
L 124.006612 175.400941 
L 124.297592 174.81898 
L 124.006612 174.81898 
L 124.006612 174.23702 
" clip-path="url(#pfd230286c0)"/>
    <path d="M 139.206347 174.528 
L 138.984992 174.144601 
L 138.542281 174.144601 
L 138.320926 174.528 
L 138.542281 174.911399 
L 138.984992 174.911399 
L 139.206347 174.528 
L 138.984992 174.144601 
" clip-path="url(#pfd230286c0)"/>
    <path d="M 153.520661 174.81898 
L 153.229681 174.81898 
L 153.520661 175.400941 
L 150.610857 174.528 
L 153.520661 173.655059 
L 153.229681 174.23702 
L 153.520661 174.23702 
L 153.520661 174.81898 
" clip-path="url(#pfd230286c0)"/>
    <path d="M 168.277686 174.970711 
L 166.442474 174.970711 
L 166.885185 175.856132 
L 162.458078 174.528 
L 166.885185 173.199868 
L 166.442474 174.085289 
L 168.277686 174.085289 
L 168.277686 174.970711 
" clip-path="url(#pfd230286c0)"/>
    <path d="M 183.034711 174.970711 
L 178.289695 174.970711 
L 178.732406 175.856132 
L 174.305298 174.528 
L 178.732406 173.199868 
L 178.289695 174.085289 
L 183.034711 174.085289 
L 183.034711 174.970711 
" clip-path="url(#pfd230286c0)"/>
    <path d="M 197.791736 174.970711 
L 190.136915 174.970711 
L 190.579626 175.856132 
L 186.152519 174.528 
L 190.579626 173.199868 
L 190.136915 174.085289 
L 197.791736 174.085289 
L 197.791736 174.970711 
" clip-path="url(#pfd230286c0)"/>
    <path d="M 212.54876 174.970711 
L 201.984136 174.970711 
L 202.426847 175.856132 
L 197.999739 174.528 
L 202.426847 173.199868 
L 201.984136 174.085289 
L 212.54876 174.085289 
L 212.54876 174.970711 
" clip-path="url(#pfd230286c0)"/>
    <path d="M 64.964353 149.893516 
L 75.531016 149.555383 
L 75.060212 148.684574 
L 79.527533 149.870431 
L 75.145169 151.339479 
L 75.559335 150.440351 
L 64.992672 150.778484 
L 64.964353 149.893516 
" clip-path="url(#pfd230286c0)"/>
    <path d="M 79.717843 149.893643 
L 87.375847 149.587323 
L 86.898101 148.720303 
L 91.374754 149.870431 
L 87.004267 151.374445 
L 87.411235 150.472037 
L 79.753231 150.778357 
L 79.717843 149.893643 
" clip-path="url(#pfd230286c0)"/>
    <path d="M 94.468984 149.893918 
L 99.219655 149.640548 
L 98.730417 148.779961 
L 103.221975 149.870431 
L 98.871883 151.432456 
L 99.26681 150.524713 
L 94.51614 150.778082 
L 94.468984 149.893918 
" clip-path="url(#pfd230286c0)"/>
    <path d="M 109.214283 149.894699 
L 111.062184 149.746867 
L 110.550275 148.899569 
L 115.069195 149.870431 
L 110.762099 151.547374 
L 111.132792 150.629469 
L 109.284891 150.777301 
L 109.214283 149.894699 
" clip-path="url(#pfd230286c0)"/>
    <path d="M 123.960055 150.04502 
L 124.251035 149.998463 
L 123.866941 149.463059 
L 126.916416 149.870431 
L 124.146282 151.208941 
L 124.344149 150.580424 
L 124.053168 150.62698 
L 123.960055 150.04502 
" clip-path="url(#pfd230286c0)"/>
    <path d="M 138.763636 149.893289 
L 138.380238 150.114645 
L 138.380238 150.557355 
L 138.763636 150.778711 
L 139.147035 150.557355 
L 139.147035 150.114645 
L 138.763636 149.893289 
L 138.380238 150.114645 
" clip-path="url(#pfd230286c0)"/>
    <path d="M 153.474104 150.62698 
L 153.183124 150.580424 
L 153.380991 151.208941 
L 150.610857 149.870431 
L 153.660332 149.463059 
L 153.276238 149.998463 
L 153.567218 150.04502 
L 153.474104 150.62698 
" clip-path="url(#pfd230286c0)"/>
    <path d="M 168.242382 150.777301 
L 166.394481 150.629469 
L 166.765174 151.547374 
L 162.458078 149.870431 
L 166.976998 148.899569 
L 166.465089 149.746867 
L 168.31299 149.894699 
L 168.242382 150.777301 
" clip-path="url(#pfd230286c0)"/>
    <path d="M 183.011133 150.778082 
L 178.260462 150.524713 
L 178.655389 151.432456 
L 174.305298 149.870431 
L 178.796856 148.779961 
L 178.307618 149.640548 
L 183.058288 149.893918 
L 183.011133 150.778082 
" clip-path="url(#pfd230286c0)"/>
    <path d="M 197.774041 150.778357 
L 190.116037 150.472037 
L 190.523006 151.374445 
L 186.152519 149.870431 
L 190.629172 148.720303 
L 190.151426 149.587323 
L 197.80943 149.893643 
L 197.774041 150.778357 
" clip-path="url(#pfd230286c0)"/>
    <path d="M 212.534601 150.778484 
L 201.967938 150.440351 
L 202.382103 151.339479 
L 197.999739 149.870431 
L 202.46706 148.684574 
L 201.996257 149.555383 
L 212.56292 149.893516 
L 212.534601 150.778484 
" clip-path="url(#pfd230286c0)"/>
    <path d="M 64.950237 125.702193 
L 75.522996 125.025537 
L 75.024638 124.170198 
L 79.527533 125.212863 
L 75.194292 126.82104 
L 75.579547 125.90915 
L 65.006788 126.585807 
L 64.950237 125.702193 
" clip-path="url(#pfd230286c0)"/>
    <path d="M 79.700233 125.702699 
L 87.367742 125.089298 
L 86.855833 124.242001 
L 91.374754 125.212863 
L 87.067658 126.889806 
L 87.438351 125.9719 
L 79.770841 126.585301 
L 79.700233 125.702699 
" clip-path="url(#pfd230286c0)"/>
    <path d="M 94.445606 125.703786 
L 99.213097 125.195254 
L 98.678971 124.361783 
L 103.221975 125.212863 
L 98.960708 127.003064 
L 99.307009 126.075681 
L 94.539518 126.584214 
L 94.445606 125.703786 
" clip-path="url(#pfd230286c0)"/>
    <path d="M 109.179643 125.706849 
L 111.064896 125.405209 
L 110.487857 124.600852 
L 115.069195 125.212863 
L 110.907522 127.223755 
L 111.204784 126.27951 
L 109.319531 126.581151 
L 109.179643 125.706849 
" clip-path="url(#pfd230286c0)"/>
    <path d="M 123.913498 125.85302 
L 124.204478 125.759906 
L 123.72727 125.271059 
L 126.916416 125.212863 
L 124.285953 127.016941 
L 124.390706 126.341867 
L 124.099725 126.43498 
L 123.913498 125.85302 
" clip-path="url(#pfd230286c0)"/>
    <path d="M 138.670523 126.144 
L 138.670523 126.050886 
L 138.484295 126.144 
L 138.763636 125.212863 
L 139.042978 126.144 
L 138.85675 126.050886 
L 138.85675 126.144 
L 138.670523 126.144 
" clip-path="url(#pfd230286c0)"/>
    <path d="M 153.427547 126.43498 
L 153.136567 126.341867 
L 153.24132 127.016941 
L 150.610857 125.212863 
L 153.800002 125.271059 
L 153.322794 125.759906 
L 153.613775 125.85302 
L 153.427547 126.43498 
" clip-path="url(#pfd230286c0)"/>
    <path d="M 168.207742 126.581151 
L 166.322489 126.27951 
L 166.619751 127.223755 
L 162.458078 125.212863 
L 167.039416 124.600852 
L 166.462377 125.405209 
L 168.34763 125.706849 
L 168.207742 126.581151 
" clip-path="url(#pfd230286c0)"/>
    <path d="M 182.987755 126.584214 
L 178.220264 126.075681 
L 178.566565 127.003064 
L 174.305298 125.212863 
L 178.848301 124.361783 
L 178.314176 125.195254 
L 183.081667 125.703786 
L 182.987755 126.584214 
" clip-path="url(#pfd230286c0)"/>
    <path d="M 197.756431 126.585301 
L 190.088922 125.9719 
L 190.459615 126.889806 
L 186.152519 125.212863 
L 190.671439 124.242001 
L 190.15953 125.089298 
L 197.82704 125.702699 
L 197.756431 126.585301 
" clip-path="url(#pfd230286c0)"/>
    <path d="M 212.520485 126.585807 
L 201.947725 125.90915 
L 202.332981 126.82104 
L 197.999739 125.212863 
L 202.502635 124.170198 
L 202.004277 125.025537 
L 212.577036 125.702193 
L 212.520485 126.585807 
" clip-path="url(#pfd230286c0)"/>
    <path d="M 64.936207 101.511315 
L 75.519065 100.495361 
L 74.993769 99.656297 
L 79.527533 100.555294 
L 75.247603 102.300405 
L 75.603677 101.37673 
L 65.020818 102.392685 
L 64.936207 101.511315 
" clip-path="url(#pfd230286c0)"/>
    <path d="M 79.68279 101.512443 
L 87.365992 100.590459 
L 86.820941 99.764091 
L 91.374754 100.555294 
L 87.137422 102.401434 
L 87.471486 101.469573 
L 79.788284 102.391557 
L 79.68279 101.512443 
" clip-path="url(#pfd230286c0)"/>
    <path d="M 94.422618 101.514849 
L 99.217675 100.74764 
L 98.640637 99.943283 
L 103.221975 100.555294 
L 99.060301 102.566187 
L 99.357563 101.621941 
L 94.562506 102.389151 
L 94.422618 101.514849 
" clip-path="url(#pfd230286c0)"/>
    <path d="M 109.14627 101.521514 
L 111.091502 101.054658 
L 110.454382 100.297002 
L 115.069195 100.555294 
L 111.074282 102.87992 
L 111.298135 101.915631 
L 109.352903 102.382486 
L 109.14627 101.521514 
" clip-path="url(#pfd230286c0)"/>
    <path d="M 123.866941 101.66102 
L 124.157921 101.521349 
L 123.5876 101.079059 
L 126.916416 100.555294 
L 124.425623 102.824941 
L 124.437263 102.10331 
L 124.146282 102.24298 
L 123.866941 101.66102 
" clip-path="url(#pfd230286c0)"/>
    <path d="M 138.623966 101.952 
L 138.623966 101.812329 
L 138.344625 101.952 
L 138.763636 100.555294 
L 139.182648 101.952 
L 138.903307 101.812329 
L 138.903307 101.952 
L 138.623966 101.952 
" clip-path="url(#pfd230286c0)"/>
    <path d="M 153.380991 102.24298 
L 153.09001 102.10331 
L 153.101649 102.824941 
L 150.610857 100.555294 
L 153.939673 101.079059 
L 153.369351 101.521349 
L 153.660332 101.66102 
L 153.380991 102.24298 
" clip-path="url(#pfd230286c0)"/>
    <path d="M 168.174369 102.382486 
L 166.229138 101.915631 
L 166.45299 102.87992 
L 162.458078 100.555294 
L 167.072891 100.297002 
L 166.435771 101.054658 
L 168.381003 101.521514 
L 168.174369 102.382486 
" clip-path="url(#pfd230286c0)"/>
    <path d="M 182.964767 102.389151 
L 178.169709 101.621941 
L 178.466972 102.566187 
L 174.305298 100.555294 
L 178.886636 99.943283 
L 178.309597 100.74764 
L 183.104655 101.514849 
L 182.964767 102.389151 
" clip-path="url(#pfd230286c0)"/>
    <path d="M 197.738989 102.391557 
L 190.055787 101.469573 
L 190.389851 102.401434 
L 186.152519 100.555294 
L 190.706332 99.764091 
L 190.161281 100.590459 
L 197.844482 101.512443 
L 197.738989 102.391557 
" clip-path="url(#pfd230286c0)"/>
    <path d="M 212.506455 102.392685 
L 201.923596 101.37673 
L 202.279669 102.300405 
L 197.999739 100.555294 
L 202.533504 99.656297 
L 202.008208 100.495361 
L 212.591066 101.511315 
L 212.506455 102.392685 
" clip-path="url(#pfd230286c0)"/>
    <path d="M 64.922304 77.320872 
L 75.519173 75.964473 
L 74.967628 75.142425 
L 79.527533 75.897725 
L 75.304878 77.777193 
L 75.63159 76.842729 
L 65.034721 78.199128 
L 64.922304 77.320872 
" clip-path="url(#pfd230286c0)"/>
    <path d="M 79.665593 77.322849 
L 87.370455 76.090072 
L 86.793416 75.285715 
L 91.374754 75.897725 
L 87.21308 77.908618 
L 87.510343 76.964373 
L 79.805481 78.197151 
L 79.665593 77.322849 
" clip-path="url(#pfd230286c0)"/>
    <path d="M 94.400195 77.327032 
L 99.232897 76.296056 
L 98.615196 75.522486 
L 103.221975 75.897725 
L 99.169395 78.120294 
L 99.41763 77.161992 
L 94.584928 78.192968 
L 94.400195 77.327032 
" clip-path="url(#pfd230286c0)"/>
    <path d="M 109.114659 77.338352 
L 111.139432 76.690424 
L 110.447929 75.982055 
L 115.069195 75.897725 
L 111.257494 78.511945 
L 111.409287 77.533721 
L 109.384514 78.181648 
L 109.114659 77.338352 
" clip-path="url(#pfd230286c0)"/>
    <path d="M 123.820384 77.46902 
L 124.111365 77.282792 
L 123.447929 76.887059 
L 126.916416 75.897725 
L 124.565294 78.632941 
L 124.483819 77.864753 
L 124.192839 78.05098 
L 123.820384 77.46902 
" clip-path="url(#pfd230286c0)"/>
    <path d="M 138.577409 77.76 
L 138.577409 77.573773 
L 138.204954 77.76 
L 138.763636 75.897725 
L 139.322319 77.76 
L 138.949864 77.573773 
L 138.949864 77.76 
L 138.577409 77.76 
" clip-path="url(#pfd230286c0)"/>
    <path d="M 153.334434 78.05098 
L 153.043453 77.864753 
L 152.961979 78.632941 
L 150.610857 75.897725 
L 154.079344 76.887059 
L 153.415908 77.282792 
L 153.706889 77.46902 
L 153.334434 78.05098 
" clip-path="url(#pfd230286c0)"/>
    <path d="M 168.142758 78.181648 
L 166.117986 77.533721 
L 166.269779 78.511945 
L 162.458078 75.897725 
L 167.079344 75.982055 
L 166.387841 76.690424 
L 168.412613 77.338352 
L 168.142758 78.181648 
" clip-path="url(#pfd230286c0)"/>
    <path d="M 182.942344 78.192968 
L 178.109643 77.161992 
L 178.357878 78.120294 
L 174.305298 75.897725 
L 178.912077 75.522486 
L 178.294376 76.296056 
L 183.127077 77.327032 
L 182.942344 78.192968 
" clip-path="url(#pfd230286c0)"/>
    <path d="M 197.721791 78.197151 
L 190.01693 76.964373 
L 190.314192 77.908618 
L 186.152519 75.897725 
L 190.733857 75.285715 
L 190.156818 76.090072 
L 197.86168 77.322849 
L 197.721791 78.197151 
" clip-path="url(#pfd230286c0)"/>
    <path d="M 212.492552 78.199128 
L 201.895683 76.842729 
L 202.222394 77.777193 
L 197.999739 75.897725 
L 202.559645 75.142425 
L 202.0081 75.964473 
L 212.604969 77.320872 
L 212.492552 78.199128 
" clip-path="url(#pfd230286c0)"/>
    <path d="M 64.908568 53.130849 
L 75.523234 51.432503 
L 74.946195 50.628146 
L 79.527533 51.240157 
L 75.36586 53.251049 
L 75.663122 52.306804 
L 65.048456 54.005151 
L 64.908568 53.130849 
" clip-path="url(#pfd230286c0)"/>
    <path d="M 79.648714 53.133886 
L 87.380909 51.587448 
L 86.77315 50.806043 
L 91.374754 51.240157 
L 87.294086 53.410725 
L 87.554554 52.455675 
L 79.82236 54.002114 
L 79.648714 53.133886 
" clip-path="url(#pfd230286c0)"/>
    <path d="M 94.378492 53.140237 
L 99.258041 51.839024 
L 98.602139 51.097569 
L 103.221975 51.240157 
L 99.286559 53.664145 
L 99.486181 52.694549 
L 94.606632 53.995763 
L 94.378492 53.140237 
" clip-path="url(#pfd230286c0)"/>
    <path d="M 109.085168 53.156953 
L 111.205357 52.308878 
L 110.465473 51.651203 
L 115.069195 51.240157 
L 111.451985 54.117483 
L 111.534194 53.130971 
L 109.414005 53.979047 
L 109.085168 53.156953 
" clip-path="url(#pfd230286c0)"/>
    <path d="M 123.773827 53.27702 
L 124.064808 53.044235 
L 123.308259 52.695059 
L 126.916416 51.240157 
L 124.704965 54.440941 
L 124.530376 53.626196 
L 124.239396 53.85898 
L 123.773827 53.27702 
" clip-path="url(#pfd230286c0)"/>
    <path d="M 138.530852 53.568 
L 138.530852 53.335216 
L 138.065283 53.568 
L 138.763636 51.240157 
L 139.461989 53.568 
L 138.996421 53.335216 
L 138.996421 53.568 
L 138.530852 53.568 
" clip-path="url(#pfd230286c0)"/>
    <path d="M 153.287877 53.85898 
L 152.996896 53.626196 
L 152.822308 54.440941 
L 150.610857 51.240157 
L 154.219014 52.695059 
L 153.462465 53.044235 
L 153.753445 53.27702 
L 153.287877 53.85898 
" clip-path="url(#pfd230286c0)"/>
    <path d="M 168.113267 53.979047 
L 165.993078 53.130971 
L 166.075288 54.117483 
L 162.458078 51.240157 
L 167.0618 51.651203 
L 166.321916 52.308878 
L 168.442105 53.156953 
L 168.113267 53.979047 
" clip-path="url(#pfd230286c0)"/>
    <path d="M 182.920641 53.995763 
L 178.041091 52.694549 
L 178.240714 53.664145 
L 174.305298 51.240157 
L 178.925134 51.097569 
L 178.269231 51.839024 
L 183.148781 53.140237 
L 182.920641 53.995763 
" clip-path="url(#pfd230286c0)"/>
    <path d="M 197.704913 54.002114 
L 189.972718 52.455675 
L 190.233187 53.410725 
L 186.152519 51.240157 
L 190.754123 50.806043 
L 190.146364 51.587448 
L 197.878558 53.133886 
L 197.704913 54.002114 
" clip-path="url(#pfd230286c0)"/>
    <path d="M 212.478816 54.005151 
L 201.86415 52.306804 
L 202.161413 53.251049 
L 197.999739 51.240157 
L 202.581077 50.628146 
L 202.004039 51.432503 
L 212.618704 53.130849 
L 212.478816 54.005151 
" clip-path="url(#pfd230286c0)"/>
   </g>
   <g id="matplotlib.axis_1">
    <g id="xtick_1">
     <g id="line2d_1">
      <defs>
       <path id="m68dc9b5f53" d="M 0 0 
L 0 3.5 
" style="stroke: #000000; stroke-width: 0.8"/>
      </defs>
      <g>
       <use xlink:href="#m68dc9b5f53" x="64.978512" y="307.584" style="stroke: #000000; stroke-width: 0.8"/>
      </g>
     </g>
     <g id="text_1">
      <!-- −5.0 -->
      <g transform="translate(52.837106 322.182437) scale(0.1 -0.1)">
       <defs>
        <path id="DejaVuSans-2212" d="M 678 2272 
L 4684 2272 
L 4684 1741 
L 678 1741 
L 678 2272 
z
" transform="scale(0.015625)"/>
        <path id="DejaVuSans-35" d="M 691 4666 
L 3169 4666 
L 3169 4134 
L 1269 4134 
L 1269 2991 
Q 1406 3038 1543 3061 
Q 1681 3084 1819 3084 
Q 2600 3084 3056 2656 
Q 3513 2228 3513 1497 
Q 3513 744 3044 326 
Q 2575 -91 1722 -91 
Q 1428 -91 1123 -41 
Q 819 9 494 109 
L 494 744 
Q 775 591 1075 516 
Q 1375 441 1709 441 
Q 2250 441 2565 725 
Q 2881 1009 2881 1497 
Q 2881 1984 2565 2268 
Q 2250 2553 1709 2553 
Q 1456 2553 1204 2497 
Q 953 2441 691 2322 
L 691 4666 
z
" transform="scale(0.015625)"/>
        <path id="DejaVuSans-2e" d="M 684 794 
L 1344 794 
L 1344 0 
L 684 0 
L 684 794 
z
" transform="scale(0.015625)"/>
        <path id="DejaVuSans-30" d="M 2034 4250 
Q 1547 4250 1301 3770 
Q 1056 3291 1056 2328 
Q 1056 1369 1301 889 
Q 1547 409 2034 409 
Q 2525 409 2770 889 
Q 3016 1369 3016 2328 
Q 3016 3291 2770 3770 
Q 2525 4250 2034 4250 
z
M 2034 4750 
Q 2819 4750 3233 4129 
Q 3647 3509 3647 2328 
Q 3647 1150 3233 529 
Q 2819 -91 2034 -91 
Q 1250 -91 836 529 
Q 422 1150 422 2328 
Q 422 3509 836 4129 
Q 1250 4750 2034 4750 
z
" transform="scale(0.015625)"/>
       </defs>
       <use xlink:href="#DejaVuSans-2212"/>
       <use xlink:href="#DejaVuSans-35" x="83.789062"/>
       <use xlink:href="#DejaVuSans-2e" x="147.412109"/>
       <use xlink:href="#DejaVuSans-30" x="179.199219"/>
      </g>
     </g>
    </g>
    <g id="xtick_2">
     <g id="line2d_2">
      <g>
       <use xlink:href="#m68dc9b5f53" x="101.871074" y="307.584" style="stroke: #000000; stroke-width: 0.8"/>
      </g>
     </g>
     <g id="text_2">
      <!-- −2.5 -->
      <g transform="translate(89.729668 322.182437) scale(0.1 -0.1)">
       <defs>
        <path id="DejaVuSans-32" d="M 1228 531 
L 3431 531 
L 3431 0 
L 469 0 
L 469 531 
Q 828 903 1448 1529 
Q 2069 2156 2228 2338 
Q 2531 2678 2651 2914 
Q 2772 3150 2772 3378 
Q 2772 3750 2511 3984 
Q 2250 4219 1831 4219 
Q 1534 4219 1204 4116 
Q 875 4013 500 3803 
L 500 4441 
Q 881 4594 1212 4672 
Q 1544 4750 1819 4750 
Q 2544 4750 2975 4387 
Q 3406 4025 3406 3419 
Q 3406 3131 3298 2873 
Q 3191 2616 2906 2266 
Q 2828 2175 2409 1742 
Q 1991 1309 1228 531 
z
" transform="scale(0.015625)"/>
       </defs>
       <use xlink:href="#DejaVuSans-2212"/>
       <use xlink:href="#DejaVuSans-32" x="83.789062"/>
       <use xlink:href="#DejaVuSans-2e" x="147.412109"/>
       <use xlink:href="#DejaVuSans-35" x="179.199219"/>
      </g>
     </g>
    </g>
    <g id="xtick_3">
     <g id="line2d_3">
      <g>
       <use xlink:href="#m68dc9b5f53" x="138.763636" y="307.584" style="stroke: #000000; stroke-width: 0.8"/>
      </g>
     </g>
     <g id="text_3">
      <!-- 0.0 -->
      <g transform="translate(130.812074 322.182437) scale(0.1 -0.1)">
       <use xlink:href="#DejaVuSans-30"/>
       <use xlink:href="#DejaVuSans-2e" x="63.623047"/>
       <use xlink:href="#DejaVuSans-30" x="95.410156"/>
      </g>
     </g>
    </g>
    <g id="xtick_4">
     <g id="line2d_4">
      <g>
       <use xlink:href="#m68dc9b5f53" x="175.656198" y="307.584" style="stroke: #000000; stroke-width: 0.8"/>
      </g>
     </g>
     <g id="text_4">
      <!-- 2.5 -->
      <g transform="translate(167.704636 322.182437) scale(0.1 -0.1)">
       <use xlink:href="#DejaVuSans-32"/>
       <use xlink:href="#DejaVuSans-2e" x="63.623047"/>
       <use xlink:href="#DejaVuSans-35" x="95.410156"/>
      </g>
     </g>
    </g>
    <g id="xtick_5">
     <g id="line2d_5">
      <g>
       <use xlink:href="#m68dc9b5f53" x="212.54876" y="307.584" style="stroke: #000000; stroke-width: 0.8"/>
      </g>
     </g>
     <g id="text_5">
      <!-- 5.0 -->
      <g transform="translate(204.597198 322.182437) scale(0.1 -0.1)">
       <use xlink:href="#DejaVuSans-35"/>
       <use xlink:href="#DejaVuSans-2e" x="63.623047"/>
       <use xlink:href="#DejaVuSans-30" x="95.410156"/>
      </g>
     </g>
    </g>
   </g>
   <g id="matplotlib.axis_2">
    <g id="ytick_1">
     <g id="line2d_6">
      <defs>
       <path id="m2d21492251" d="M 0 0 
L -3.5 0 
" style="stroke: #000000; stroke-width: 0.8"/>
      </defs>
      <g>
       <use xlink:href="#m2d21492251" x="57.6" y="271.296" style="stroke: #000000; stroke-width: 0.8"/>
      </g>
     </g>
     <g id="text_6">
      <!-- −4 -->
      <g transform="translate(35.857813 275.095219) scale(0.1 -0.1)">
       <defs>
        <path id="DejaVuSans-34" d="M 2419 4116 
L 825 1625 
L 2419 1625 
L 2419 4116 
z
M 2253 4666 
L 3047 4666 
L 3047 1625 
L 3713 1625 
L 3713 1100 
L 3047 1100 
L 3047 0 
L 2419 0 
L 2419 1100 
L 313 1100 
L 313 1709 
L 2253 4666 
z
" transform="scale(0.015625)"/>
       </defs>
       <use xlink:href="#DejaVuSans-2212"/>
       <use xlink:href="#DejaVuSans-34" x="83.789062"/>
      </g>
     </g>
    </g>
    <g id="ytick_2">
     <g id="line2d_7">
      <g>
       <use xlink:href="#m2d21492251" x="57.6" y="222.912" style="stroke: #000000; stroke-width: 0.8"/>
      </g>
     </g>
     <g id="text_7">
      <!-- −2 -->
      <g transform="translate(35.857813 226.711219) scale(0.1 -0.1)">
       <use xlink:href="#DejaVuSans-2212"/>
       <use xlink:href="#DejaVuSans-32" x="83.789062"/>
      </g>
     </g>
    </g>
    <g id="ytick_3">
     <g id="line2d_8">
      <g>
       <use xlink:href="#m2d21492251" x="57.6" y="174.528" style="stroke: #000000; stroke-width: 0.8"/>
      </g>
     </g>
     <g id="text_8">
      <!-- 0 -->
      <g transform="translate(44.2375 178.327219) scale(0.1 -0.1)">
       <use xlink:href="#DejaVuSans-30"/>
      </g>
     </g>
    </g>
    <g id="ytick_4">
     <g id="line2d_9">
      <g>
       <use xlink:href="#m2d21492251" x="57.6" y="126.144" style="stroke: #000000; stroke-width: 0.8"/>
      </g>
     </g>
     <g id="text_9">
      <!-- 2 -->
      <g transform="translate(44.2375 129.943219) scale(0.1 -0.1)">
       <use xlink:href="#DejaVuSans-32"/>
      </g>
     </g>
    </g>
    <g id="ytick_5">
     <g id="line2d_10">
      <g>
       <use xlink:href="#m2d21492251" x="57.6" y="77.76" style="stroke: #000000; stroke-width: 0.8"/>
      </g>
     </g>
     <g id="text_10">
      <!-- 4 -->
      <g transform="translate(44.2375 81.559219) scale(0.1 -0.1)">
       <use xlink:href="#DejaVuSans-34"/>
      </g>
     </g>
    </g>
   </g>
   <g id="patch_3">
    <path d="M 57.6 307.584 
L 57.6 41.472 
" style="fill: none; stroke: #000000; stroke-width: 0.8; stroke-linejoin: miter; stroke-linecap: square"/>
   </g>
   <g id="patch_4">
    <path d="M 219.927273 307.584 
L 219.927273 41.472 
" style="fill: none; stroke: #000000; stroke-width: 0.8; stroke-linejoin: miter; stroke-linecap: square"/>
   </g>
   <g id="patch_5">
    <path d="M 57.6 307.584 
L 219.927273 307.584 
" style="fill: none; stroke: #000000; stroke-width: 0.8; stroke-linejoin: miter; stroke-linecap: square"/>
   </g>
   <g id="patch_6">
    <path d="M 57.6 41.472 
L 219.927273 41.472 
" style="fill: none; stroke: #000000; stroke-width: 0.8; stroke-linejoin: miter; stroke-linecap: square"/>
   </g>
  </g>
  <g id="axes_2">
   <g id="patch_7">
    <path d="M 252.392727 307.584 
L 414.72 307.584 
L 414.72 41.472 
L 252.392727 41.472 
z
" style="fill: #ffffff"/>
   </g>
   <g id="matplotlib.axis_3">
    <g id="xtick_6">
     <g id="line2d_11">
      <g>
       <use xlink:href="#m68dc9b5f53" x="279.447273" y="307.584" style="stroke: #000000; stroke-width: 0.8"/>
      </g>
     </g>
     <g id="text_11">
      <!-- 0 -->
      <g transform="translate(276.266023 322.182437) scale(0.1 -0.1)">
       <use xlink:href="#DejaVuSans-30"/>
      </g>
     </g>
    </g>
    <g id="xtick_7">
     <g id="line2d_12">
      <g>
       <use xlink:href="#m68dc9b5f53" x="333.556364" y="307.584" style="stroke: #000000; stroke-width: 0.8"/>
      </g>
     </g>
     <g id="text_12">
      <!-- 2 -->
      <g transform="translate(330.375114 322.182437) scale(0.1 -0.1)">
       <use xlink:href="#DejaVuSans-32"/>
      </g>
     </g>
    </g>
    <g id="xtick_8">
     <g id="line2d_13">
      <g>
       <use xlink:href="#m68dc9b5f53" x="387.665455" y="307.584" style="stroke: #000000; stroke-width: 0.8"/>
      </g>
     </g>
     <g id="text_13">
      <!-- 4 -->
      <g transform="translate(384.484205 322.182437) scale(0.1 -0.1)">
       <use xlink:href="#DejaVuSans-34"/>
      </g>
     </g>
    </g>
   </g>
   <g id="matplotlib.axis_4">
    <g id="ytick_6">
     <g id="line2d_14">
      <g>
       <use xlink:href="#m2d21492251" x="252.392727" y="307.584" style="stroke: #000000; stroke-width: 0.8"/>
      </g>
     </g>
     <g id="text_14">
      <!-- −5 -->
      <g transform="translate(230.65054 311.383219) scale(0.1 -0.1)">
       <use xlink:href="#DejaVuSans-2212"/>
       <use xlink:href="#DejaVuSans-35" x="83.789062"/>
      </g>
     </g>
    </g>
    <g id="ytick_7">
     <g id="line2d_15">
      <g>
       <use xlink:href="#m2d21492251" x="252.392727" y="263.232" style="stroke: #000000; stroke-width: 0.8"/>
      </g>
     </g>
     <g id="text_15">
      <!-- −4 -->
      <g transform="translate(230.65054 267.031219) scale(0.1 -0.1)">
       <use xlink:href="#DejaVuSans-2212"/>
       <use xlink:href="#DejaVuSans-34" x="83.789062"/>
      </g>
     </g>
    </g>
    <g id="ytick_8">
     <g id="line2d_16">
      <g>
       <use xlink:href="#m2d21492251" x="252.392727" y="218.88" style="stroke: #000000; stroke-width: 0.8"/>
      </g>
     </g>
     <g id="text_16">
      <!-- −3 -->
      <g transform="translate(230.65054 222.679219) scale(0.1 -0.1)">
       <defs>
        <path id="DejaVuSans-33" d="M 2597 2516 
Q 3050 2419 3304 2112 
Q 3559 1806 3559 1356 
Q 3559 666 3084 287 
Q 2609 -91 1734 -91 
Q 1441 -91 1130 -33 
Q 819 25 488 141 
L 488 750 
Q 750 597 1062 519 
Q 1375 441 1716 441 
Q 2309 441 2620 675 
Q 2931 909 2931 1356 
Q 2931 1769 2642 2001 
Q 2353 2234 1838 2234 
L 1294 2234 
L 1294 2753 
L 1863 2753 
Q 2328 2753 2575 2939 
Q 2822 3125 2822 3475 
Q 2822 3834 2567 4026 
Q 2313 4219 1838 4219 
Q 1578 4219 1281 4162 
Q 984 4106 628 3988 
L 628 4550 
Q 988 4650 1302 4700 
Q 1616 4750 1894 4750 
Q 2613 4750 3031 4423 
Q 3450 4097 3450 3541 
Q 3450 3153 3228 2886 
Q 3006 2619 2597 2516 
z
" transform="scale(0.015625)"/>
       </defs>
       <use xlink:href="#DejaVuSans-2212"/>
       <use xlink:href="#DejaVuSans-33" x="83.789062"/>
      </g>
     </g>
    </g>
    <g id="ytick_9">
     <g id="line2d_17">
      <g>
       <use xlink:href="#m2d21492251" x="252.392727" y="174.528" style="stroke: #000000; stroke-width: 0.8"/>
      </g>
     </g>
     <g id="text_17">
      <!-- −2 -->
      <g transform="translate(230.65054 178.327219) scale(0.1 -0.1)">
       <use xlink:href="#DejaVuSans-2212"/>
       <use xlink:href="#DejaVuSans-32" x="83.789062"/>
      </g>
     </g>
    </g>
    <g id="ytick_10">
     <g id="line2d_18">
      <g>
       <use xlink:href="#m2d21492251" x="252.392727" y="130.176" style="stroke: #000000; stroke-width: 0.8"/>
      </g>
     </g>
     <g id="text_18">
      <!-- −1 -->
      <g transform="translate(230.65054 133.975219) scale(0.1 -0.1)">
       <defs>
        <path id="DejaVuSans-31" d="M 794 531 
L 1825 531 
L 1825 4091 
L 703 3866 
L 703 4441 
L 1819 4666 
L 2450 4666 
L 2450 531 
L 3481 531 
L 3481 0 
L 794 0 
L 794 531 
z
" transform="scale(0.015625)"/>
       </defs>
       <use xlink:href="#DejaVuSans-2212"/>
       <use xlink:href="#DejaVuSans-31" x="83.789062"/>
      </g>
     </g>
    </g>
    <g id="ytick_11">
     <g id="line2d_19">
      <g>
       <use xlink:href="#m2d21492251" x="252.392727" y="85.824" style="stroke: #000000; stroke-width: 0.8"/>
      </g>
     </g>
     <g id="text_19">
      <!-- 0 -->
      <g transform="translate(239.030227 89.623219) scale(0.1 -0.1)">
       <use xlink:href="#DejaVuSans-30"/>
      </g>
     </g>
    </g>
    <g id="ytick_12">
     <g id="line2d_20">
      <g>
       <use xlink:href="#m2d21492251" x="252.392727" y="41.472" style="stroke: #000000; stroke-width: 0.8"/>
      </g>
     </g>
     <g id="text_20">
      <!-- 1 -->
      <g transform="translate(239.030227 45.271219) scale(0.1 -0.1)">
       <use xlink:href="#DejaVuSans-31"/>
      </g>
     </g>
    </g>
   </g>
   <g id="line2d_21">
    <path d="M 288.94653 346.6 
L 290.187107 297.179365 
L 291.526171 259.113821 
L 292.865234 230.904474 
L 294.204298 209.359345 
L 295.543361 192.493888 
L 296.882424 179.018384 
L 298.221488 168.063375 
L 299.560551 159.024354 
L 300.899614 151.469803 
L 302.238678 145.084602 
L 303.577741 139.634013 
L 304.916804 134.940091 
L 306.255868 130.865834 
L 307.594931 127.304289 
L 308.933994 124.170916 
L 310.273058 121.398132 
L 311.612121 118.931353 
L 312.951185 116.726086 
L 314.290248 114.745744 
L 315.629311 112.96001 
L 316.968375 111.343577 
L 318.307438 109.875179 
L 319.646501 108.536831 
L 320.985565 107.313238 
L 322.324628 106.191321 
L 323.663691 105.159838 
L 325.002755 104.20908 
L 326.341818 103.330627 
L 327.680882 102.517144 
L 329.019945 101.762215 
L 330.359008 101.06021 
L 331.698072 100.40617 
L 333.037135 99.79571 
L 334.376198 99.224943 
L 335.715262 98.690412 
L 337.054325 98.189035 
L 338.393388 97.718055 
L 339.732452 97.274999 
L 341.071515 96.857645 
L 342.410579 96.463992 
L 343.749642 96.092231 
L 345.088705 95.740726 
L 346.427769 95.407993 
L 347.766832 95.092684 
L 349.105895 94.793571 
L 350.444959 94.509534 
L 351.784022 94.23955 
L 353.123085 93.982683 
L 354.462149 93.738074 
L 355.801212 93.504935 
L 357.140275 93.28254 
L 358.479339 93.070221 
L 359.818402 92.867363 
L 361.157466 92.673398 
L 362.496529 92.487798 
L 363.835592 92.310076 
L 365.174656 92.139782 
L 366.513719 91.976496 
L 367.852782 91.819828 
L 369.191846 91.669415 
L 370.530909 91.524921 
L 371.869972 91.38603 
L 373.209036 91.252448 
L 374.548099 91.123901 
L 375.887163 91.000132 
L 377.226226 90.880902 
L 378.565289 90.765984 
L 379.904353 90.655167 
L 381.243416 90.548254 
L 382.582479 90.445059 
L 383.921543 90.345405 
L 385.260606 90.249129 
L 386.599669 90.156076 
L 387.938733 90.066098 
L 389.277796 89.97906 
L 390.61686 89.894829 
L 391.955923 89.813285 
L 393.294986 89.734309 
L 394.63405 89.657794 
L 395.973113 89.583634 
L 397.312176 89.511732 
L 398.65124 89.441995 
L 399.990303 89.374333 
L 401.329366 89.308663 
L 402.66843 89.244906 
L 404.007493 89.182985 
L 405.346556 89.12283 
L 406.68562 89.064371 
L 408.024683 89.007544 
L 409.363747 88.952288 
L 410.70281 88.898542 
L 412.041873 88.846251 
L 413.380937 88.795362 
L 414.72 88.745823 
" clip-path="url(#p8a65761694)" style="fill: none; stroke: #1f77b4; stroke-width: 1.5; stroke-linecap: square"/>
   </g>
   <g id="line2d_22">
    <path d="M 293.778394 346.6 
L 294.204298 332.894691 
L 295.543361 299.163776 
L 296.882424 272.212767 
L 298.221488 250.30275 
L 299.560551 232.224708 
L 300.899614 217.115607 
L 302.238678 204.345205 
L 303.577741 193.444026 
L 304.916804 184.056182 
L 306.255868 175.907668 
L 307.594931 168.784579 
L 308.933994 162.517833 
L 310.273058 156.972263 
L 311.612121 152.038707 
L 312.951185 147.628171 
L 314.290248 143.667488 
L 315.629311 140.09602 
L 316.968375 136.863155 
L 318.307438 133.926358 
L 319.646501 131.249662 
L 320.985565 128.802477 
L 322.324628 126.558642 
L 323.663691 124.495676 
L 325.002755 122.59416 
L 326.341818 120.837254 
L 327.680882 119.210287 
L 329.019945 117.70043 
L 330.359008 116.296421 
L 331.698072 114.98834 
L 333.037135 113.767419 
L 334.376198 112.625885 
L 335.715262 111.556824 
L 337.054325 110.554071 
L 338.393388 109.61211 
L 339.732452 108.725998 
L 341.071515 107.891291 
L 342.410579 107.103984 
L 343.749642 106.360462 
L 345.088705 105.657452 
L 346.427769 104.991986 
L 347.766832 104.361368 
L 349.105895 103.763142 
L 350.444959 103.195068 
L 351.784022 102.655101 
L 353.123085 102.141367 
L 354.462149 101.652148 
L 355.801212 101.185869 
L 357.140275 100.741079 
L 358.479339 100.316442 
L 359.818402 99.910727 
L 361.157466 99.522795 
L 362.496529 99.151595 
L 363.835592 98.796153 
L 365.174656 98.455565 
L 366.513719 98.128992 
L 367.852782 97.815655 
L 369.191846 97.51483 
L 370.530909 97.225842 
L 371.869972 96.948059 
L 373.209036 96.680896 
L 374.548099 96.423802 
L 375.887163 96.176265 
L 377.226226 95.937804 
L 378.565289 95.707968 
L 379.904353 95.486335 
L 381.243416 95.272509 
L 382.582479 95.066117 
L 383.921543 94.86681 
L 385.260606 94.674258 
L 386.599669 94.488151 
L 387.938733 94.308197 
L 389.277796 94.134119 
L 390.61686 93.965659 
L 391.955923 93.802569 
L 393.294986 93.644619 
L 394.63405 93.491588 
L 395.973113 93.343269 
L 397.312176 93.199465 
L 398.65124 93.059989 
L 399.990303 92.924666 
L 401.329366 92.793326 
L 402.66843 92.665811 
L 404.007493 92.54197 
L 405.346556 92.42166 
L 406.68562 92.304742 
L 408.024683 92.191089 
L 409.363747 92.080575 
L 410.70281 91.973084 
L 412.041873 91.868502 
L 413.380937 91.766724 
L 414.72 91.667646 
" clip-path="url(#p8a65761694)" style="fill: none; stroke: #ff7f0e; stroke-width: 1.5; stroke-linecap: square"/>
   </g>
   <g id="line2d_23">
    <path d="M 297.648709 346.6 
L 298.221488 332.542125 
L 299.560551 305.425062 
L 300.899614 282.76141 
L 302.238678 263.605807 
L 303.577741 247.25404 
L 304.916804 233.172273 
L 306.255868 220.949502 
L 307.594931 210.264868 
L 308.933994 200.864749 
L 310.273058 192.546395 
L 311.612121 185.14606 
L 312.951185 178.530257 
L 314.290248 172.589232 
L 315.629311 167.23203 
L 316.968375 162.382732 
L 318.307438 157.977537 
L 319.646501 153.962493 
L 320.985565 150.291715 
L 322.324628 146.925964 
L 323.663691 143.831513 
L 325.002755 140.97924 
L 326.341818 138.343881 
L 327.680882 135.903431 
L 329.019945 133.638645 
L 330.359008 131.532631 
L 331.698072 129.57051 
L 333.037135 127.739129 
L 334.376198 126.026828 
L 335.715262 124.423237 
L 337.054325 122.919106 
L 338.393388 121.506165 
L 339.732452 120.176997 
L 341.071515 118.924936 
L 342.410579 117.743976 
L 343.749642 116.628693 
L 345.088705 115.574178 
L 346.427769 114.575979 
L 347.766832 113.630052 
L 349.105895 112.732713 
L 350.444959 111.880602 
L 351.784022 111.070651 
L 353.123085 110.30005 
L 354.462149 109.566223 
L 355.801212 108.866804 
L 357.140275 108.199619 
L 358.479339 107.562663 
L 359.818402 106.95409 
L 361.157466 106.372193 
L 362.496529 105.815393 
L 363.835592 105.282229 
L 365.174656 104.771347 
L 366.513719 104.281488 
L 367.852782 103.811483 
L 369.191846 103.360246 
L 370.530909 102.926762 
L 371.869972 102.510089 
L 373.209036 102.109344 
L 374.548099 101.723703 
L 375.887163 101.352397 
L 377.226226 100.994705 
L 378.565289 100.649951 
L 379.904353 100.317502 
L 381.243416 99.996763 
L 382.582479 99.687176 
L 383.921543 99.388215 
L 385.260606 99.099387 
L 386.599669 98.820227 
L 387.938733 98.550295 
L 389.277796 98.289179 
L 390.61686 98.036488 
L 391.955923 97.791854 
L 393.294986 97.554928 
L 394.63405 97.325382 
L 395.973113 97.102903 
L 397.312176 96.887197 
L 398.65124 96.677984 
L 399.990303 96.474998 
L 401.329366 96.277989 
L 402.66843 96.086717 
L 404.007493 95.900955 
L 405.346556 95.720489 
L 406.68562 95.545114 
L 408.024683 95.374633 
L 409.363747 95.208863 
L 410.70281 95.047626 
L 412.041873 94.890753 
L 413.380937 94.738085 
L 414.72 94.589469 
" clip-path="url(#p8a65761694)" style="fill: none; stroke: #2ca02c; stroke-width: 1.5; stroke-linecap: square"/>
   </g>
   <g id="line2d_24">
    <path d="M 300.994364 346.6 
L 302.238678 322.86641 
L 303.577741 301.064053 
L 304.916804 282.288364 
L 306.255868 265.991336 
L 307.594931 251.745158 
L 308.933994 239.211665 
L 310.273058 228.120527 
L 311.612121 218.253414 
L 312.951185 209.432343 
L 314.290248 201.510975 
L 315.629311 194.368041 
L 316.968375 187.90231 
L 318.307438 182.028716 
L 319.646501 176.675324 
L 320.985565 171.780954 
L 322.324628 167.293285 
L 323.663691 163.167351 
L 325.002755 159.36432 
L 326.341818 155.850508 
L 327.680882 152.596574 
L 329.019945 149.57686 
L 330.359008 146.768842 
L 331.698072 144.15268 
L 333.037135 141.710839 
L 334.376198 139.427771 
L 335.715262 137.289649 
L 337.054325 135.284141 
L 338.393388 133.40022 
L 339.732452 131.627996 
L 341.071515 129.958582 
L 342.410579 128.383968 
L 343.749642 126.896924 
L 345.088705 125.490904 
L 346.427769 124.159972 
L 347.766832 122.898736 
L 349.105895 121.702283 
L 350.444959 120.566136 
L 351.784022 119.486202 
L 353.123085 118.458733 
L 354.462149 117.480297 
L 355.801212 116.547738 
L 357.140275 115.658158 
L 358.479339 114.808884 
L 359.818402 113.997454 
L 361.157466 113.221591 
L 362.496529 112.479191 
L 363.835592 111.768306 
L 365.174656 111.087129 
L 366.513719 110.433984 
L 367.852782 109.807311 
L 369.191846 109.205661 
L 370.530909 108.627683 
L 371.869972 108.072119 
L 373.209036 107.537792 
L 374.548099 107.023604 
L 375.887163 106.52853 
L 377.226226 106.051607 
L 378.565289 105.591935 
L 379.904353 105.14867 
L 381.243416 104.721018 
L 382.582479 104.308235 
L 383.921543 103.909621 
L 385.260606 103.524517 
L 386.599669 103.152302 
L 387.938733 102.792393 
L 389.277796 102.444238 
L 390.61686 102.107317 
L 391.955923 101.781138 
L 393.294986 101.465238 
L 394.63405 101.159176 
L 395.973113 100.862538 
L 397.312176 100.57493 
L 398.65124 100.295979 
L 399.990303 100.025331 
L 401.329366 99.762652 
L 402.66843 99.507622 
L 404.007493 99.259941 
L 405.346556 99.019319 
L 406.68562 98.785485 
L 408.024683 98.558178 
L 409.363747 98.337151 
L 410.70281 98.122168 
L 412.041873 97.913005 
L 413.380937 97.709447 
L 414.72 97.511292 
" clip-path="url(#p8a65761694)" style="fill: none; stroke: #d62728; stroke-width: 1.5; stroke-linecap: square"/>
   </g>
   <g id="line2d_25">
    <path d="M 284.958953 346.6 
L 286.169917 260.449068 
L 287.508981 208.141402 
L 288.848044 176.331559 
L 290.187107 155.539605 
L 291.526171 141.198746 
L 292.865234 130.886956 
L 294.204298 123.221936 
L 295.543361 117.367757 
L 296.882424 112.794616 
L 298.221488 109.153434 
L 299.560551 106.206567 
L 300.899614 103.787662 
L 302.238678 101.777425 
L 303.577741 100.088496 
L 304.916804 98.6557 
L 306.255868 97.429615 
L 307.594931 96.372202 
L 308.933994 95.453802 
L 310.273058 94.651009 
L 311.612121 93.94515 
L 312.951185 93.321182 
L 314.290248 92.766876 
L 315.629311 92.272207 
L 316.968375 91.828891 
L 318.307438 91.43004 
L 319.646501 91.069883 
L 320.985565 90.743557 
L 322.324628 90.446942 
L 323.663691 90.176527 
L 325.002755 89.929307 
L 326.341818 89.702694 
L 327.680882 89.494454 
L 329.019945 89.302647 
L 330.359008 89.125583 
L 331.698072 88.961785 
L 333.037135 88.809955 
L 334.376198 88.668953 
L 335.715262 88.53777 
L 337.054325 88.415511 
L 338.393388 88.301383 
L 339.732452 88.194678 
L 341.071515 88.094765 
L 342.410579 88.001077 
L 343.749642 87.913106 
L 345.088705 87.830394 
L 346.427769 87.75253 
L 347.766832 87.679141 
L 349.105895 87.609889 
L 350.444959 87.544468 
L 351.784022 87.4826 
L 353.123085 87.424031 
L 354.462149 87.36853 
L 355.801212 87.315886 
L 357.140275 87.265905 
L 358.479339 87.218411 
L 359.818402 87.17324 
L 361.157466 87.130243 
L 362.496529 87.089282 
L 363.835592 87.05023 
L 365.174656 87.01297 
L 366.513719 86.977394 
L 367.852782 86.943401 
L 369.191846 86.910899 
L 370.530909 86.879801 
L 371.869972 86.850028 
L 373.209036 86.821504 
L 374.548099 86.794162 
L 375.887163 86.767935 
L 377.226226 86.742765 
L 378.565289 86.718594 
L 379.904353 86.695372 
L 381.243416 86.673047 
L 382.582479 86.651576 
L 383.921543 86.630913 
L 385.260606 86.611021 
L 386.599669 86.591859 
L 387.938733 86.573394 
L 389.277796 86.555591 
L 390.61686 86.538419 
L 391.955923 86.521848 
L 393.294986 86.505851 
L 394.63405 86.490402 
L 395.973113 86.475475 
L 397.312176 86.461047 
L 398.65124 86.447097 
L 399.990303 86.433603 
L 401.329366 86.420545 
L 402.66843 86.407905 
L 404.007493 86.395665 
L 405.346556 86.383809 
L 406.68562 86.37232 
L 408.024683 86.361183 
L 409.363747 86.350385 
L 410.70281 86.339911 
L 412.041873 86.329749 
L 413.380937 86.319885 
L 414.72 86.31031 
" clip-path="url(#p8a65761694)" style="fill: none; stroke: #9467bd; stroke-width: 1.5; stroke-linecap: square"/>
   </g>
   <g id="line2d_26">
    <path d="M 287.302375 346.6 
L 287.508981 330.458803 
L 288.848044 266.839118 
L 290.187107 225.25521 
L 291.526171 196.573493 
L 292.865234 175.949911 
L 294.204298 160.619871 
L 295.543361 148.911514 
L 296.882424 139.765232 
L 298.221488 132.482867 
L 299.560551 126.589134 
L 300.899614 121.751324 
L 302.238678 117.73085 
L 303.577741 114.352991 
L 304.916804 111.487401 
L 306.255868 109.035229 
L 307.594931 106.920404 
L 308.933994 105.083604 
L 310.273058 103.478018 
L 311.612121 102.0663 
L 312.951185 100.818365 
L 314.290248 99.709753 
L 315.629311 98.720413 
L 316.968375 97.833782 
L 318.307438 97.03608 
L 319.646501 96.315765 
L 320.985565 95.663113 
L 322.324628 95.069884 
L 323.663691 94.529055 
L 325.002755 94.034614 
L 326.341818 93.581388 
L 327.680882 93.164908 
L 329.019945 92.781293 
L 330.359008 92.427166 
L 331.698072 92.099569 
L 333.037135 91.795911 
L 334.376198 91.513906 
L 335.715262 91.251539 
L 337.054325 91.007021 
L 338.393388 90.778766 
L 339.732452 90.565356 
L 341.071515 90.36553 
L 342.410579 90.178154 
L 343.749642 90.002211 
L 345.088705 89.836789 
L 346.427769 89.681061 
L 347.766832 89.534282 
L 349.105895 89.395778 
L 350.444959 89.264937 
L 351.784022 89.1412 
L 353.123085 89.024062 
L 354.462149 88.91306 
L 355.801212 88.807772 
L 357.140275 88.707811 
L 358.479339 88.612822 
L 359.818402 88.52248 
L 361.157466 88.436485 
L 362.496529 88.354563 
L 363.835592 88.27646 
L 365.174656 88.20194 
L 366.513719 88.130788 
L 367.852782 88.062803 
L 369.191846 87.997798 
L 370.530909 87.935603 
L 371.869972 87.876056 
L 373.209036 87.819009 
L 374.548099 87.764323 
L 375.887163 87.71187 
L 377.226226 87.66153 
L 378.565289 87.613189 
L 379.904353 87.566743 
L 381.243416 87.522095 
L 382.582479 87.479151 
L 383.921543 87.437827 
L 385.260606 87.398041 
L 386.599669 87.359718 
L 387.938733 87.322787 
L 389.277796 87.287181 
L 390.61686 87.252837 
L 391.955923 87.219696 
L 393.294986 87.187702 
L 394.63405 87.156804 
L 395.973113 87.12695 
L 397.312176 87.098095 
L 398.65124 87.070194 
L 399.990303 87.043205 
L 401.329366 87.01709 
L 402.66843 86.99181 
L 404.007493 86.96733 
L 405.346556 86.943618 
L 406.68562 86.92064 
L 408.024683 86.898367 
L 409.363747 86.87677 
L 410.70281 86.855822 
L 412.041873 86.835497 
L 413.380937 86.815771 
L 414.72 86.79662 
" clip-path="url(#p8a65761694)" style="fill: none; stroke: #8c564b; stroke-width: 1.5; stroke-linecap: square"/>
   </g>
   <g id="line2d_27">
    <path d="M 289.07875 346.6 
L 290.187107 294.970815 
L 291.526171 251.948239 
L 292.865234 221.012867 
L 294.204298 198.017807 
L 295.543361 180.455271 
L 296.882424 166.735848 
L 298.221488 155.812301 
L 299.560551 146.971702 
L 300.899614 139.714986 
L 302.238678 133.684275 
L 303.577741 128.617487 
L 304.916804 124.319101 
L 306.255868 120.640844 
L 307.594931 117.468606 
L 308.933994 114.713407 
L 310.273058 112.305027 
L 311.612121 110.18745 
L 312.951185 108.315547 
L 314.290248 106.652629 
L 315.629311 105.16862 
L 316.968375 103.838674 
L 318.307438 102.64212 
L 319.646501 101.561648 
L 320.985565 100.58267 
L 322.324628 99.692825 
L 323.663691 98.881582 
L 325.002755 98.139921 
L 326.341818 97.460082 
L 327.680882 96.835362 
L 329.019945 96.25994 
L 330.359008 95.728749 
L 331.698072 95.237354 
L 333.037135 94.781866 
L 334.376198 94.35886 
L 335.715262 93.965309 
L 337.054325 93.598532 
L 338.393388 93.256148 
L 339.732452 92.936035 
L 341.071515 92.636295 
L 342.410579 92.35523 
L 343.749642 92.091317 
L 345.088705 91.843183 
L 346.427769 91.609591 
L 347.766832 91.389424 
L 349.105895 91.181668 
L 350.444959 90.985405 
L 351.784022 90.7998 
L 353.123085 90.624093 
L 354.462149 90.45759 
L 355.801212 90.299658 
L 357.140275 90.149716 
L 358.479339 90.007233 
L 359.818402 89.871719 
L 361.157466 89.742728 
L 362.496529 89.619845 
L 363.835592 89.50269 
L 365.174656 89.39091 
L 366.513719 89.284182 
L 367.852782 89.182204 
L 369.191846 89.084697 
L 370.530909 88.991404 
L 371.869972 88.902083 
L 373.209036 88.816513 
L 374.548099 88.734485 
L 375.887163 88.655805 
L 377.226226 88.580294 
L 378.565289 88.507783 
L 379.904353 88.438115 
L 381.243416 88.371142 
L 382.582479 88.306727 
L 383.921543 88.24474 
L 385.260606 88.185062 
L 386.599669 88.127578 
L 387.938733 88.072181 
L 389.277796 88.018772 
L 390.61686 87.967256 
L 391.955923 87.917544 
L 393.294986 87.869554 
L 394.63405 87.823205 
L 395.973113 87.778425 
L 397.312176 87.735142 
L 398.65124 87.69329 
L 399.990303 87.652808 
L 401.329366 87.613634 
L 402.66843 87.575715 
L 404.007493 87.538995 
L 405.346556 87.503426 
L 406.68562 87.46896 
L 408.024683 87.43555 
L 409.363747 87.403155 
L 410.70281 87.371733 
L 412.041873 87.341246 
L 413.380937 87.311656 
L 414.72 87.28293 
" clip-path="url(#p8a65761694)" style="fill: none; stroke: #e377c2; stroke-width: 1.5; stroke-linecap: square"/>
   </g>
   <g id="line2d_28">
    <path d="M 290.609308 346.6 
L 291.526171 307.322986 
L 292.865234 266.075823 
L 294.204298 235.415742 
L 295.543361 211.999029 
L 296.882424 193.706465 
L 298.221488 179.141734 
L 299.560551 167.354269 
L 300.899614 157.678647 
L 302.238678 149.637701 
L 303.577741 142.881982 
L 304.916804 137.150802 
L 306.255868 132.246458 
L 307.594931 128.016808 
L 308.933994 124.343209 
L 310.273058 121.132035 
L 311.612121 118.3086 
L 312.951185 115.81273 
L 314.290248 113.595506 
L 315.629311 111.616827 
L 316.968375 109.843565 
L 318.307438 108.24816 
L 319.646501 106.80753 
L 320.985565 105.502227 
L 322.324628 104.315767 
L 323.663691 103.234109 
L 325.002755 102.245227 
L 326.341818 101.338776 
L 327.680882 100.505815 
L 329.019945 99.738587 
L 330.359008 99.030331 
L 331.698072 98.375139 
L 333.037135 97.767822 
L 334.376198 97.203813 
L 335.715262 96.679078 
L 337.054325 96.190043 
L 338.393388 95.733531 
L 339.732452 95.306713 
L 341.071515 94.90706 
L 342.410579 94.532307 
L 343.749642 94.180423 
L 345.088705 93.849578 
L 346.427769 93.538122 
L 347.766832 93.244565 
L 349.105895 92.967557 
L 350.444959 92.705873 
L 351.784022 92.4584 
L 353.123085 92.224124 
L 354.462149 92.002121 
L 355.801212 91.791544 
L 357.140275 91.591621 
L 358.479339 91.401643 
L 359.818402 91.220959 
L 361.157466 91.048971 
L 362.496529 90.885127 
L 363.835592 90.72892 
L 365.174656 90.57988 
L 366.513719 90.437576 
L 367.852782 90.301605 
L 369.191846 90.171596 
L 370.530909 90.047205 
L 371.869972 89.928111 
L 373.209036 89.814017 
L 374.548099 89.704646 
L 375.887163 89.599741 
L 377.226226 89.499059 
L 378.565289 89.402378 
L 379.904353 89.309486 
L 381.243416 89.220189 
L 382.582479 89.134302 
L 383.921543 89.051654 
L 385.260606 88.972083 
L 386.599669 88.895437 
L 387.938733 88.821575 
L 389.277796 88.750362 
L 390.61686 88.681674 
L 391.955923 88.615392 
L 393.294986 88.551405 
L 394.63405 88.489607 
L 395.973113 88.4299 
L 397.312176 88.372189 
L 398.65124 88.316387 
L 399.990303 88.26241 
L 401.329366 88.210179 
L 402.66843 88.15962 
L 404.007493 88.110661 
L 405.346556 88.063235 
L 406.68562 88.017279 
L 408.024683 87.972733 
L 409.363747 87.92954 
L 410.70281 87.887644 
L 412.041873 87.846994 
L 413.380937 87.807542 
L 414.72 87.76924 
" clip-path="url(#p8a65761694)" style="fill: none; stroke: #7f7f7f; stroke-width: 1.5; stroke-linecap: square"/>
   </g>
   <g id="line2d_29">
    <path d="M 283.582645 346.6 
L 284.830854 227.410082 
L 286.169917 171.718545 
L 287.508981 142.90217 
L 288.848044 126.217648 
L 290.187107 115.759487 
L 291.526171 108.805029 
L 292.865234 103.963955 
L 294.204298 100.468806 
L 295.543361 97.869093 
L 296.882424 95.886897 
L 298.221488 94.343555 
L 299.560551 93.120162 
L 300.899614 92.135213 
L 302.238678 91.331392 
L 303.577741 90.667485 
L 304.916804 90.113274 
L 306.255868 89.646208 
L 307.594931 89.249199 
L 308.933994 88.909115 
L 310.273058 88.615734 
L 311.612121 88.361012 
L 312.951185 88.138547 
L 314.290248 87.943199 
L 315.629311 87.770801 
L 316.968375 87.617952 
L 318.307438 87.481851 
L 319.646501 87.360176 
L 320.985565 87.250992 
L 322.324628 87.152673 
L 323.663691 87.063846 
L 325.002755 86.98335 
L 326.341818 86.91019 
L 327.680882 86.843516 
L 329.019945 86.782596 
L 330.359008 86.726798 
L 331.698072 86.675573 
L 333.037135 86.628442 
L 334.376198 86.584989 
L 335.715262 86.544846 
L 337.054325 86.507692 
L 338.393388 86.473242 
L 339.732452 86.441244 
L 341.071515 86.411476 
L 342.410579 86.383737 
L 343.749642 86.357851 
L 345.088705 86.33366 
L 346.427769 86.31102 
L 347.766832 86.289805 
L 349.105895 86.2699 
L 350.444959 86.2512 
L 351.784022 86.233613 
L 353.123085 86.217052 
L 354.462149 86.201441 
L 355.801212 86.186711 
L 357.140275 86.172796 
L 358.479339 86.15964 
L 359.818402 86.147188 
L 361.157466 86.135393 
L 362.496529 86.12421 
L 363.835592 86.113598 
L 365.174656 86.103519 
L 366.513719 86.09394 
L 367.852782 86.084827 
L 369.191846 86.076152 
L 370.530909 86.067888 
L 371.869972 86.060009 
L 373.209036 86.052493 
L 374.548099 86.045318 
L 375.887163 86.038463 
L 377.226226 86.031912 
L 378.565289 86.025645 
L 379.904353 86.019648 
L 381.243416 86.013905 
L 382.582479 86.008402 
L 383.921543 86.003127 
L 385.260606 85.998066 
L 386.599669 85.99321 
L 387.938733 85.988547 
L 389.277796 85.984068 
L 390.61686 85.979762 
L 391.955923 85.975622 
L 393.294986 85.971639 
L 394.63405 85.967805 
L 395.973113 85.964114 
L 397.312176 85.960558 
L 398.65124 85.95713 
L 399.990303 85.953826 
L 401.329366 85.950639 
L 402.66843 85.947563 
L 404.007493 85.944594 
L 405.346556 85.941728 
L 406.68562 85.938958 
L 408.024683 85.936282 
L 409.363747 85.933695 
L 410.70281 85.931193 
L 412.041873 85.928773 
L 413.380937 85.92643 
L 414.72 85.924163 
" clip-path="url(#p8a65761694)" style="fill: none; stroke: #bcbd22; stroke-width: 1.5; stroke-linecap: square"/>
   </g>
   <g id="line2d_30">
    <path d="M 285.100104 346.6 
L 286.169917 257.61309 
L 287.508981 199.980339 
L 288.848044 166.611296 
L 290.187107 145.694975 
L 291.526171 131.786058 
L 292.865234 122.103911 
L 294.204298 115.113611 
L 295.543361 109.914186 
L 296.882424 105.949795 
L 298.221488 102.86311 
L 299.560551 100.416325 
L 300.899614 98.446426 
L 302.238678 96.838783 
L 303.577741 95.510971 
L 304.916804 94.402548 
L 306.255868 93.468416 
L 307.594931 92.674398 
L 308.933994 91.99423 
L 310.273058 91.407469 
L 311.612121 90.898024 
L 312.951185 90.453094 
L 314.290248 90.062397 
L 315.629311 89.717602 
L 316.968375 89.411904 
L 318.307438 89.139702 
L 319.646501 88.896353 
L 320.985565 88.677984 
L 322.324628 88.481345 
L 323.663691 88.303693 
L 325.002755 88.1427 
L 326.341818 87.996379 
L 327.680882 87.863032 
L 329.019945 87.741192 
L 330.359008 87.629596 
L 331.698072 87.527146 
L 333.037135 87.432885 
L 334.376198 87.345978 
L 335.715262 87.265693 
L 337.054325 87.191385 
L 338.393388 87.122484 
L 339.732452 87.058489 
L 341.071515 86.998951 
L 342.410579 86.943474 
L 343.749642 86.891702 
L 345.088705 86.843319 
L 346.427769 86.798041 
L 347.766832 86.755611 
L 349.105895 86.7158 
L 350.444959 86.6784 
L 351.784022 86.643225 
L 353.123085 86.610104 
L 354.462149 86.578882 
L 355.801212 86.549421 
L 357.140275 86.521592 
L 358.479339 86.49528 
L 359.818402 86.470377 
L 361.157466 86.446787 
L 362.496529 86.42442 
L 363.835592 86.403196 
L 365.174656 86.383039 
L 366.513719 86.363879 
L 367.852782 86.345654 
L 369.191846 86.328304 
L 370.530909 86.311776 
L 371.869972 86.296018 
L 373.209036 86.280986 
L 374.548099 86.266636 
L 375.887163 86.252927 
L 377.226226 86.239823 
L 378.565289 86.22729 
L 379.904353 86.215295 
L 381.243416 86.203809 
L 382.582479 86.192804 
L 383.921543 86.182253 
L 385.260606 86.172133 
L 386.599669 86.162421 
L 387.938733 86.153095 
L 389.277796 86.144136 
L 390.61686 86.135525 
L 391.955923 86.127244 
L 393.294986 86.119278 
L 394.63405 86.111611 
L 395.973113 86.104228 
L 397.312176 86.097115 
L 398.65124 86.090261 
L 399.990303 86.083652 
L 401.329366 86.077277 
L 402.66843 86.071126 
L 404.007493 86.065189 
L 405.346556 86.059455 
L 406.68562 86.053917 
L 408.024683 86.048564 
L 409.363747 86.04339 
L 410.70281 86.038386 
L 412.041873 86.033545 
L 413.380937 86.028861 
L 414.72 86.024326 
" clip-path="url(#p8a65761694)" style="fill: none; stroke: #17becf; stroke-width: 1.5; stroke-linecap: square"/>
   </g>
   <g id="line2d_31">
    <path d="M 286.145133 346.6 
L 286.169917 343.507634 
L 287.508981 257.058509 
L 288.848044 207.004944 
L 290.187107 175.630462 
L 291.526171 154.767086 
L 292.865234 140.243866 
L 294.204298 129.758417 
L 295.543361 121.959279 
L 296.882424 116.012692 
L 298.221488 111.382665 
L 299.560551 107.712487 
L 300.899614 104.757639 
L 302.238678 102.346175 
L 303.577741 100.354456 
L 304.916804 98.691821 
L 306.255868 97.290624 
L 307.594931 96.099597 
L 308.933994 95.079344 
L 310.273058 94.199203 
L 311.612121 93.435036 
L 312.951185 92.767641 
L 314.290248 92.181596 
L 315.629311 91.664404 
L 316.968375 91.205857 
L 318.307438 90.797553 
L 319.646501 90.432529 
L 320.985565 90.104976 
L 322.324628 89.810018 
L 323.663691 89.543539 
L 325.002755 89.302049 
L 326.341818 89.082569 
L 327.680882 88.882548 
L 329.019945 88.699788 
L 330.359008 88.532394 
L 331.698072 88.378719 
L 333.037135 88.237327 
L 334.376198 88.106967 
L 335.715262 87.986539 
L 337.054325 87.875077 
L 338.393388 87.771727 
L 339.732452 87.675733 
L 341.071515 87.586427 
L 342.410579 87.503211 
L 343.749642 87.425554 
L 345.088705 87.352979 
L 346.427769 87.285061 
L 347.766832 87.221416 
L 349.105895 87.1617 
L 350.444959 87.105601 
L 351.784022 87.052838 
L 353.123085 87.003155 
L 354.462149 86.956324 
L 355.801212 86.912132 
L 357.140275 86.870388 
L 358.479339 86.830919 
L 359.818402 86.793565 
L 361.157466 86.75818 
L 362.496529 86.724631 
L 363.835592 86.692794 
L 365.174656 86.662558 
L 366.513719 86.633819 
L 367.852782 86.606481 
L 369.191846 86.580456 
L 370.530909 86.555663 
L 371.869972 86.532028 
L 373.209036 86.509479 
L 374.548099 86.487953 
L 375.887163 86.46739 
L 377.226226 86.447735 
L 378.565289 86.428935 
L 379.904353 86.410943 
L 381.243416 86.393714 
L 382.582479 86.377206 
L 383.921543 86.36138 
L 385.260606 86.346199 
L 386.599669 86.331631 
L 387.938733 86.317642 
L 389.277796 86.304203 
L 390.61686 86.291287 
L 391.955923 86.278866 
L 393.294986 86.266917 
L 394.63405 86.255416 
L 395.973113 86.244341 
L 397.312176 86.233673 
L 398.65124 86.223391 
L 399.990303 86.213478 
L 401.329366 86.203916 
L 402.66843 86.19469 
L 404.007493 86.185783 
L 405.346556 86.177183 
L 406.68562 86.168875 
L 408.024683 86.160846 
L 409.363747 86.153085 
L 410.70281 86.145579 
L 412.041873 86.138318 
L 413.380937 86.131291 
L 414.72 86.124489 
" clip-path="url(#p8a65761694)" style="fill: none; stroke: #1f77b4; stroke-width: 1.5; stroke-linecap: square"/>
   </g>
   <g id="line2d_32">
    <path d="M 287.131848 346.6 
L 287.508981 314.136678 
L 288.848044 247.398592 
L 290.187107 205.56595 
L 291.526171 177.748115 
L 292.865234 158.383822 
L 294.204298 144.403223 
L 295.543361 134.004372 
L 296.882424 126.07559 
L 298.221488 119.90222 
L 299.560551 115.00865 
L 300.899614 111.068852 
L 302.238678 107.853566 
L 303.577741 105.197941 
L 304.916804 102.981095 
L 306.255868 101.112832 
L 307.594931 99.524796 
L 308.933994 98.164459 
L 310.273058 96.990938 
L 311.612121 95.972048 
L 312.951185 95.082188 
L 314.290248 94.300794 
L 315.629311 93.611205 
L 316.968375 92.999809 
L 318.307438 92.455404 
L 319.646501 91.968705 
L 320.985565 91.531968 
L 322.324628 91.13869 
L 323.663691 90.783386 
L 325.002755 90.461399 
L 326.341818 90.168759 
L 327.680882 89.902063 
L 329.019945 89.658385 
L 330.359008 89.435193 
L 331.698072 89.230292 
L 333.037135 89.04177 
L 334.376198 88.867956 
L 335.715262 88.707386 
L 337.054325 88.558769 
L 338.393388 88.420969 
L 339.732452 88.292978 
L 341.071515 88.173902 
L 342.410579 88.062948 
L 343.749642 87.959405 
L 345.088705 87.862639 
L 346.427769 87.772081 
L 347.766832 87.687222 
L 349.105895 87.6076 
L 350.444959 87.532801 
L 351.784022 87.46245 
L 353.123085 87.396207 
L 354.462149 87.333765 
L 355.801212 87.274842 
L 357.140275 87.219184 
L 358.479339 87.166559 
L 359.818402 87.116754 
L 361.157466 87.069574 
L 362.496529 87.024841 
L 363.835592 86.982392 
L 365.174656 86.942077 
L 366.513719 86.903758 
L 367.852782 86.867308 
L 369.191846 86.832608 
L 370.530909 86.799551 
L 371.869972 86.768037 
L 373.209036 86.737972 
L 374.548099 86.709271 
L 375.887163 86.681854 
L 377.226226 86.655647 
L 378.565289 86.63058 
L 379.904353 86.606591 
L 381.243416 86.583618 
L 382.582479 86.561607 
L 383.921543 86.540506 
L 385.260606 86.520266 
L 386.599669 86.500841 
L 387.938733 86.482189 
L 389.277796 86.464271 
L 390.61686 86.447049 
L 391.955923 86.430489 
L 393.294986 86.414556 
L 394.63405 86.399221 
L 395.973113 86.384455 
L 397.312176 86.37023 
L 398.65124 86.356521 
L 399.990303 86.343303 
L 401.329366 86.330554 
L 402.66843 86.318253 
L 404.007493 86.306378 
L 405.346556 86.294911 
L 406.68562 86.283833 
L 408.024683 86.273128 
L 409.363747 86.26278 
L 410.70281 86.252772 
L 412.041873 86.24309 
L 413.380937 86.233722 
L 414.72 86.224653 
" clip-path="url(#p8a65761694)" style="fill: none; stroke: #ff7f0e; stroke-width: 1.5; stroke-linecap: square"/>
   </g>
   <g id="line2d_33">
    <path d="M 283.062803 346.6 
L 283.491791 251.246941 
L 284.830854 165.372536 
L 286.169917 130.87162 
L 287.508981 114.11976 
L 288.848044 104.917085 
L 290.187107 99.401531 
L 291.526171 95.874432 
L 292.865234 93.502866 
L 294.204298 91.843185 
L 295.543361 90.643151 
L 296.882424 89.751578 
L 298.221488 89.073799 
L 299.560551 88.548323 
L 300.899614 88.133933 
L 302.238678 87.802248 
L 303.577741 87.533253 
L 304.916804 87.312542 
L 306.255868 87.129549 
L 307.594931 86.976398 
L 308.933994 86.84713 
L 310.273058 86.737176 
L 311.612121 86.642989 
L 312.951185 86.561786 
L 314.290248 86.491359 
L 315.629311 86.429944 
L 316.968375 86.376115 
L 318.307438 86.328711 
L 319.646501 86.286783 
L 320.985565 86.249546 
L 322.324628 86.216348 
L 323.663691 86.186644 
L 325.002755 86.159978 
L 326.341818 86.135962 
L 327.680882 86.114268 
L 329.019945 86.094617 
L 330.359008 86.076767 
L 331.698072 86.060514 
L 333.037135 86.045678 
L 334.376198 86.032106 
L 335.715262 86.019662 
L 337.054325 86.008229 
L 338.393388 85.997704 
L 339.732452 85.987997 
L 341.071515 85.979028 
L 342.410579 85.970727 
L 343.749642 85.963032 
L 345.088705 85.955886 
L 346.427769 85.949241 
L 347.766832 85.943053 
L 349.105895 85.937281 
L 350.444959 85.931892 
L 351.784022 85.926853 
L 353.123085 85.922135 
L 354.462149 85.917712 
L 355.801212 85.913562 
L 357.140275 85.909664 
L 358.479339 85.905997 
L 359.818402 85.902545 
L 361.157466 85.899292 
L 362.496529 85.896223 
L 363.835592 85.893325 
L 365.174656 85.890587 
L 366.513719 85.887997 
L 367.852782 85.885544 
L 369.191846 85.883221 
L 370.530909 85.881017 
L 371.869972 85.878926 
L 373.209036 85.876941 
L 374.548099 85.875053 
L 375.887163 85.873258 
L 377.226226 85.87155 
L 378.565289 85.869922 
L 379.904353 85.868372 
L 381.243416 85.866893 
L 382.582479 85.865481 
L 383.921543 85.864134 
L 385.260606 85.862846 
L 386.599669 85.861616 
L 387.938733 85.860439 
L 389.277796 85.859312 
L 390.61686 85.858233 
L 391.955923 85.8572 
L 393.294986 85.85621 
L 394.63405 85.85526 
L 395.973113 85.854348 
L 397.312176 85.853473 
L 398.65124 85.852633 
L 399.990303 85.851826 
L 401.329366 85.85105 
L 402.66843 85.850304 
L 404.007493 85.849586 
L 405.346556 85.848895 
L 406.68562 85.84823 
L 408.024683 85.847589 
L 409.363747 85.846972 
L 410.70281 85.846377 
L 412.041873 85.845803 
L 413.380937 85.845249 
L 414.72 85.844715 
" clip-path="url(#p8a65761694)" style="fill: none; stroke: #2ca02c; stroke-width: 1.5; stroke-linecap: square"/>
   </g>
   <g id="line2d_34">
    <path d="M 284.0381 346.6 
L 284.830854 244.921071 
L 286.169917 175.919241 
L 287.508981 142.415521 
L 288.848044 124.010171 
L 290.187107 112.979062 
L 291.526171 105.924864 
L 292.865234 101.181733 
L 294.204298 97.86237 
L 295.543361 95.462303 
L 296.882424 93.679156 
L 298.221488 92.323598 
L 299.560551 91.272645 
L 300.899614 90.443866 
L 302.238678 89.780495 
L 303.577741 89.242506 
L 304.916804 88.801083 
L 306.255868 88.435097 
L 307.594931 88.128796 
L 308.933994 87.87026 
L 310.273058 87.650352 
L 311.612121 87.461978 
L 312.951185 87.299571 
L 314.290248 87.158718 
L 315.629311 87.035888 
L 316.968375 86.928229 
L 318.307438 86.833422 
L 319.646501 86.749566 
L 320.985565 86.675091 
L 322.324628 86.608695 
L 323.663691 86.549288 
L 325.002755 86.495956 
L 326.341818 86.447924 
L 327.680882 86.404536 
L 329.019945 86.365233 
L 330.359008 86.329535 
L 331.698072 86.297028 
L 333.037135 86.267357 
L 334.376198 86.240211 
L 335.715262 86.215323 
L 337.054325 86.192457 
L 338.393388 86.171408 
L 339.732452 86.151994 
L 341.071515 86.134056 
L 342.410579 86.117454 
L 343.749642 86.102063 
L 345.088705 86.087772 
L 346.427769 86.074482 
L 347.766832 86.062105 
L 349.105895 86.050563 
L 350.444959 86.039784 
L 351.784022 86.029705 
L 353.123085 86.020269 
L 354.462149 86.011425 
L 355.801212 86.003125 
L 357.140275 85.995327 
L 358.479339 85.987994 
L 359.818402 85.98109 
L 361.157466 85.974584 
L 362.496529 85.968446 
L 363.835592 85.962651 
L 365.174656 85.957174 
L 366.513719 85.951993 
L 367.852782 85.947089 
L 369.191846 85.942441 
L 370.530909 85.938035 
L 371.869972 85.933853 
L 373.209036 85.929881 
L 374.548099 85.926106 
L 375.887163 85.922516 
L 377.226226 85.919099 
L 378.565289 85.915845 
L 379.904353 85.912743 
L 381.243416 85.909785 
L 382.582479 85.906963 
L 383.921543 85.904268 
L 385.260606 85.901693 
L 386.599669 85.899232 
L 387.938733 85.896877 
L 389.277796 85.894624 
L 390.61686 85.892467 
L 391.955923 85.8904 
L 393.294986 85.888419 
L 394.63405 85.886519 
L 395.973113 85.884697 
L 397.312176 85.882947 
L 398.65124 85.881266 
L 399.990303 85.879652 
L 401.329366 85.8781 
L 402.66843 85.876608 
L 404.007493 85.875172 
L 405.346556 85.87379 
L 406.68562 85.87246 
L 408.024683 85.871178 
L 409.363747 85.869944 
L 410.70281 85.868753 
L 412.041873 85.867605 
L 413.380937 85.866498 
L 414.72 85.865429 
" clip-path="url(#p8a65761694)" style="fill: none; stroke: #d62728; stroke-width: 1.5; stroke-linecap: square"/>
   </g>
   <g id="line2d_35">
    <path d="M 284.715826 346.6 
L 284.830854 324.469607 
L 286.169917 220.966861 
L 287.508981 170.711281 
L 288.848044 143.103256 
L 290.187107 126.556593 
L 291.526171 115.975295 
L 292.865234 108.860599 
L 294.204298 103.881556 
L 295.543361 100.281454 
L 296.882424 97.606733 
L 298.221488 95.573397 
L 299.560551 93.996968 
L 300.899614 92.753799 
L 302.238678 91.758743 
L 303.577741 90.951759 
L 304.916804 90.289625 
L 306.255868 89.740646 
L 307.594931 89.281194 
L 308.933994 88.89339 
L 310.273058 88.563528 
L 311.612121 88.280967 
L 312.951185 88.037357 
L 314.290248 87.826078 
L 315.629311 87.641832 
L 316.968375 87.480344 
L 318.307438 87.338133 
L 319.646501 87.212349 
L 320.985565 87.100637 
L 322.324628 87.001043 
L 323.663691 86.911933 
L 325.002755 86.831933 
L 326.341818 86.759886 
L 327.680882 86.694804 
L 329.019945 86.63585 
L 330.359008 86.582302 
L 331.698072 86.533542 
L 333.037135 86.489035 
L 334.376198 86.448317 
L 335.715262 86.410985 
L 337.054325 86.376686 
L 338.393388 86.345111 
L 339.732452 86.315991 
L 341.071515 86.289084 
L 342.410579 86.264182 
L 343.749642 86.241095 
L 345.088705 86.219658 
L 346.427769 86.199723 
L 347.766832 86.181158 
L 349.105895 86.163844 
L 350.444959 86.147676 
L 351.784022 86.132558 
L 353.123085 86.118404 
L 354.462149 86.105137 
L 355.801212 86.092687 
L 357.140275 86.080991 
L 358.479339 86.069991 
L 359.818402 86.059635 
L 361.157466 86.049875 
L 362.496529 86.040669 
L 363.835592 86.031976 
L 365.174656 86.023761 
L 366.513719 86.01599 
L 367.852782 86.008633 
L 369.191846 86.001662 
L 370.530909 85.995052 
L 371.869972 85.988779 
L 373.209036 85.982822 
L 374.548099 85.97716 
L 375.887163 85.971774 
L 377.226226 85.966649 
L 378.565289 85.961767 
L 379.904353 85.957115 
L 381.243416 85.952678 
L 382.582479 85.948444 
L 383.921543 85.944402 
L 385.260606 85.940539 
L 386.599669 85.936847 
L 387.938733 85.933316 
L 389.277796 85.929936 
L 390.61686 85.9267 
L 391.955923 85.9236 
L 393.294986 85.920629 
L 394.63405 85.917779 
L 395.973113 85.915045 
L 397.312176 85.91242 
L 398.65124 85.9099 
L 399.990303 85.907478 
L 401.329366 85.90515 
L 402.66843 85.902912 
L 404.007493 85.900758 
L 405.346556 85.898686 
L 406.68562 85.89669 
L 408.024683 85.894768 
L 409.363747 85.892915 
L 410.70281 85.89113 
L 412.041873 85.889408 
L 413.380937 85.887747 
L 414.72 85.886144 
" clip-path="url(#p8a65761694)" style="fill: none; stroke: #9467bd; stroke-width: 1.5; stroke-linecap: square"/>
   </g>
   <g id="line2d_36">
    <path d="M 285.387988 346.6 
L 286.169917 266.014482 
L 287.508981 199.007041 
L 288.848044 162.196342 
L 290.187107 140.134124 
L 291.526171 126.025727 
L 292.865234 116.539465 
L 294.204298 109.900741 
L 295.543361 105.100606 
L 296.882424 101.534311 
L 298.221488 98.823195 
L 299.560551 96.72129 
L 300.899614 95.063733 
L 302.238678 93.73699 
L 303.577741 92.661012 
L 304.916804 91.778167 
L 306.255868 91.046195 
L 307.594931 90.433591 
L 308.933994 89.91652 
L 310.273058 89.476704 
L 311.612121 89.099955 
L 312.951185 88.775142 
L 314.290248 88.493437 
L 315.629311 88.247776 
L 316.968375 88.032458 
L 318.307438 87.842844 
L 319.646501 87.675132 
L 320.985565 87.526183 
L 322.324628 87.39339 
L 323.663691 87.274577 
L 325.002755 87.167911 
L 326.341818 87.071847 
L 327.680882 86.985072 
L 329.019945 86.906466 
L 330.359008 86.835069 
L 331.698072 86.770056 
L 333.037135 86.710713 
L 334.376198 86.656423 
L 335.715262 86.606646 
L 337.054325 86.560914 
L 338.393388 86.518815 
L 339.732452 86.479988 
L 341.071515 86.444113 
L 342.410579 86.410909 
L 343.749642 86.380126 
L 345.088705 86.351544 
L 346.427769 86.324964 
L 347.766832 86.300211 
L 349.105895 86.277126 
L 350.444959 86.255568 
L 351.784022 86.235411 
L 353.123085 86.216539 
L 354.462149 86.19885 
L 355.801212 86.18225 
L 357.140275 86.166655 
L 358.479339 86.151988 
L 359.818402 86.13818 
L 361.157466 86.125167 
L 362.496529 86.112892 
L 363.835592 86.101301 
L 365.174656 86.090347 
L 366.513719 86.079986 
L 367.852782 86.070177 
L 369.191846 86.060883 
L 370.530909 86.05207 
L 371.869972 86.043706 
L 373.209036 86.035762 
L 374.548099 86.028213 
L 375.887163 86.021032 
L 377.226226 86.014198 
L 378.565289 86.007689 
L 379.904353 86.001486 
L 381.243416 85.99557 
L 382.582479 85.989925 
L 383.921543 85.984535 
L 385.260606 85.979386 
L 386.599669 85.974463 
L 387.938733 85.969755 
L 389.277796 85.965248 
L 390.61686 85.960934 
L 391.955923 85.9568 
L 393.294986 85.952838 
L 394.63405 85.949039 
L 395.973113 85.945393 
L 397.312176 85.941894 
L 398.65124 85.938533 
L 399.990303 85.935304 
L 401.329366 85.9322 
L 402.66843 85.929216 
L 404.007493 85.926344 
L 405.346556 85.923581 
L 406.68562 85.92092 
L 408.024683 85.918357 
L 409.363747 85.915887 
L 410.70281 85.913506 
L 412.041873 85.91121 
L 413.380937 85.908996 
L 414.72 85.906858 
" clip-path="url(#p8a65761694)" style="fill: none; stroke: #8c564b; stroke-width: 1.5; stroke-linecap: square"/>
   </g>
   <g id="patch_8">
    <path d="M 252.392727 307.584 
L 252.392727 41.472 
" style="fill: none; stroke: #000000; stroke-width: 0.8; stroke-linejoin: miter; stroke-linecap: square"/>
   </g>
   <g id="patch_9">
    <path d="M 414.72 307.584 
L 414.72 41.472 
" style="fill: none; stroke: #000000; stroke-width: 0.8; stroke-linejoin: miter; stroke-linecap: square"/>
   </g>
   <g id="patch_10">
    <path d="M 252.392727 307.584 
L 414.72 307.584 
" style="fill: none; stroke: #000000; stroke-width: 0.8; stroke-linejoin: miter; stroke-linecap: square"/>
   </g>
   <g id="patch_11">
    <path d="M 252.392727 41.472 
L 414.72 41.472 
" style="fill: none; stroke: #000000; stroke-width: 0.8; stroke-linejoin: miter; stroke-linecap: square"/>
   </g>
  </g>
  <g id="text_21">
   <!-- t = 1.3 -->
   <g transform="translate(209.664375 16.030125) scale(0.12 -0.12)">
    <defs>
     <path id="DejaVuSans-74" d="M 1172 4494 
L 1172 3500 
L 2356 3500 
L 2356 3053 
L 1172 3053 
L 1172 1153 
Q 1172 725 1289 603 
Q 1406 481 1766 481 
L 2356 481 
L 2356 0 
L 1766 0 
Q 1100 0 847 248 
Q 594 497 594 1153 
L 594 3053 
L 172 3053 
L 172 3500 
L 594 3500 
L 594 4494 
L 1172 4494 
z
" transform="scale(0.015625)"/>
     <path id="DejaVuSans-20" transform="scale(0.015625)"/>
     <path id="DejaVuSans-3d" d="M 678 2906 
L 4684 2906 
L 4684 2381 
L 678 2381 
L 678 2906 
z
M 678 1631 
L 4684 1631 
L 4684 1100 
L 678 1100 
L 678 1631 
z
" transform="scale(0.015625)"/>
    </defs>
    <use xlink:href="#DejaVuSans-74"/>
    <use xlink:href="#DejaVuSans-20" x="39.208984"/>
    <use xlink:href="#DejaVuSans-3d" x="70.996094"/>
    <use xlink:href="#DejaVuSans-20" x="154.785156"/>
    <use xlink:href="#DejaVuSans-31" x="186.572266"/>
    <use xlink:href="#DejaVuSans-2e" x="250.195312"/>
    <use xlink:href="#DejaVuSans-33" x="281.982422"/>
   </g>
  </g>
 </g>
 <defs>
  <clipPath id="pfd230286c0">
   <rect x="57.6" y="41.472" width="162.327273" height="266.112"/>
  </clipPath>
  <clipPath id="p8a65761694">
   <rect x="252.392727" y="41.472" width="162.327273" height="266.112"/>
  </clipPath>
 </defs>
</svg>
