<?xml version="1.0" encoding="utf-8" standalone="no"?>
<!DOCTYPE svg PUBLIC "-//W3C//DTD SVG 1.1//EN"
  "http://www.w3.org/Graphics/SVG/1.1/DTD/svg11.dtd">
<svg xmlns:xlink="http://www.w3.org/1999/xlink" width="460.8pt" height="345.6pt" viewBox="0 0 460.8 345.6" xmlns="http://www.w3.org/2000/svg" version="1.1">
 <metadata>
  <rdf:RDF xmlns:dc="http://purl.org/dc/elements/1.1/" xmlns:cc="http://creativecommons.org/ns#" xmlns:rdf="http://www.w3.org/1999/02/22-rdf-syntax-ns#">
   <cc:Work>
    <dc:type rdf:resource="http://purl.org/dc/dcmitype/StillImage"/>
    <dc:date>2023-01-17T14:53:42.553656</dc:date>
    <dc:format>image/svg+xml</dc:format>
    <dc:creator>
     <cc:Agent>
      <dc:title>Matplotlib v3.6.3, https://matplotlib.org/</dc:title>
     </cc:Agent>
    </dc:creator>
   </cc:Work>
  </rdf:RDF>
 </metadata>
 <defs>
  <style type="text/css">*{stroke-linejoin: round; stroke-linecap: butt}</style>
 </defs>
 <g id="figure_1">
  <g id="patch_1">
   <path d="M 0 345.6 
L 460.8 345.6 
L 460.8 0 
L 0 0 
z
" style="fill: #ffffff"/>
  </g>
  <g id="axes_1">
   <g id="patch_2">
    <path d="M 57.6 307.584 
L 219.927273 307.584 
L 219.927273 41.472 
L 57.6 41.472 
z
" style="fill: #ffffff"/>
   </g>
   <g id="Quiver_1">
    <path d="M 65.018196 295.047071 
L 75.869128 296.023655 
L 75.507566 295.102115 
L 79.797801 296.821736 
L 75.269465 297.747686 
L 75.789761 296.905512 
L 64.938829 295.928929 
L 65.018196 295.047071 
" clip-path="url(#p01e910d571)"/>
    <path d="M 79.78503 295.048064 
L 87.681041 295.936366 
L 87.340091 295.007002 
L 91.590968 296.821736 
L 87.043135 297.646615 
L 87.582056 296.816237 
L 79.686044 295.927936 
L 79.78503 295.048064 
" clip-path="url(#p01e910d571)"/>
    <path d="M 94.558234 295.050187 
L 99.509493 295.792876 
L 99.203024 294.851579 
L 103.384135 296.821736 
L 98.808992 297.478455 
L 99.378149 296.668502 
L 94.42689 295.925813 
L 94.558234 295.050187 
" clip-path="url(#p01e910d571)"/>
    <path d="M 109.346767 295.056087 
L 111.387266 295.515199 
L 111.149714 294.554193 
L 115.177302 296.821736 
L 110.566632 297.145671 
L 111.192906 296.379025 
L 109.152406 295.919913 
L 109.346767 295.056087 
" clip-path="url(#p01e910d571)"/>
    <path d="M 124.139985 295.191614 
L 124.436371 295.324988 
L 124.406732 294.598843 
L 126.970469 296.821736 
L 123.606491 296.377157 
L 124.169624 295.917759 
L 123.873238 295.784386 
L 124.139985 295.191614 
" clip-path="url(#p01e910d571)"/>
    <path d="M 138.89701 295.488 
L 138.89701 295.621374 
L 139.163757 295.488 
L 138.763636 296.821736 
L 138.363516 295.488 
L 138.630263 295.621374 
L 138.630263 295.488 
L 138.89701 295.488 
" clip-path="url(#p01e910d571)"/>
    <path d="M 153.654035 295.784386 
L 153.357649 295.917759 
L 153.920782 296.377157 
L 150.556803 296.821736 
L 153.12054 294.598843 
L 153.090902 295.324988 
L 153.387288 295.191614 
L 153.654035 295.784386 
" clip-path="url(#p01e910d571)"/>
    <path d="M 168.374866 295.919913 
L 166.334367 296.379025 
L 166.960641 297.145671 
L 162.34997 296.821736 
L 166.377558 294.554193 
L 166.140006 295.515199 
L 168.180506 295.056087 
L 168.374866 295.919913 
" clip-path="url(#p01e910d571)"/>
    <path d="M 183.100383 295.925813 
L 178.149124 296.668502 
L 178.718281 297.478455 
L 174.143137 296.821736 
L 178.324249 294.851579 
L 178.01778 295.792876 
L 182.969039 295.050187 
L 183.100383 295.925813 
" clip-path="url(#p01e910d571)"/>
    <path d="M 197.841228 295.927936 
L 189.945217 296.816237 
L 190.484138 297.646615 
L 185.936304 296.821736 
L 190.187181 295.007002 
L 189.846231 295.936366 
L 197.742243 295.048064 
L 197.841228 295.927936 
" clip-path="url(#p01e910d571)"/>
    <path d="M 212.588444 295.928929 
L 201.737512 296.905512 
L 202.257808 297.747686 
L 197.729471 296.821736 
L 202.019706 295.102115 
L 201.658145 296.023655 
L 212.509077 295.047071 
L 212.588444 295.928929 
" clip-path="url(#p01e910d571)"/>
    <path d="M 65.010305 270.854432 
L 75.855485 271.635285 
L 75.477503 270.720357 
L 79.797801 272.362989 
L 75.286746 273.369763 
L 75.791899 272.518421 
L 64.94672 271.737568 
L 65.010305 270.854432 
" clip-path="url(#p01e910d571)"/>
    <path d="M 79.775221 270.855071 
L 87.662295 271.564908 
L 87.300733 270.643367 
L 91.590968 272.362989 
L 87.062632 273.288939 
L 87.582928 272.446765 
L 79.695854 271.736929 
L 79.775221 270.855071 
" clip-path="url(#p01e910d571)"/>
    <path d="M 94.545309 270.856443 
L 99.480867 271.44871 
L 99.146804 270.516848 
L 103.384135 272.362989 
L 98.830322 273.154192 
L 99.375373 272.327824 
L 94.439815 271.735557 
L 94.545309 270.856443 
" clip-path="url(#p01e910d571)"/>
    <path d="M 109.328014 270.860291 
L 111.334353 271.221432 
L 111.0555 270.271588 
L 115.177302 272.362989 
L 110.584934 272.885839 
L 111.177498 272.09285 
L 109.171159 271.731709 
L 109.328014 270.860291 
" clip-path="url(#p01e910d571)"/>
    <path d="M 124.11331 270.999614 
L 124.409696 271.106313 
L 124.326708 270.406843 
L 126.970469 272.362989 
L 123.686515 272.185157 
L 124.196298 271.699085 
L 123.899913 271.592386 
L 124.11331 270.999614 
" clip-path="url(#p01e910d571)"/>
    <path d="M 138.870335 271.296 
L 138.870335 271.402699 
L 139.083733 271.296 
L 138.763636 272.362989 
L 138.44354 271.296 
L 138.656937 271.402699 
L 138.656937 271.296 
L 138.870335 271.296 
" clip-path="url(#p01e910d571)"/>
    <path d="M 153.62736 271.592386 
L 153.330974 271.699085 
L 153.840758 272.185157 
L 150.556803 272.362989 
L 153.200565 270.406843 
L 153.117576 271.106313 
L 153.413962 270.999614 
L 153.62736 271.592386 
" clip-path="url(#p01e910d571)"/>
    <path d="M 168.356113 271.731709 
L 166.349775 272.09285 
L 166.942338 272.885839 
L 162.34997 272.362989 
L 166.471773 270.271588 
L 166.19292 271.221432 
L 168.199258 270.860291 
L 168.356113 271.731709 
" clip-path="url(#p01e910d571)"/>
    <path d="M 183.087458 271.735557 
L 178.151899 272.327824 
L 178.69695 273.154192 
L 174.143137 272.362989 
L 178.380469 270.516848 
L 178.046406 271.44871 
L 182.981964 270.856443 
L 183.087458 271.735557 
" clip-path="url(#p01e910d571)"/>
    <path d="M 197.831419 271.736929 
L 189.944345 272.446765 
L 190.464641 273.288939 
L 185.936304 272.362989 
L 190.226539 270.643367 
L 189.864978 271.564908 
L 197.752052 270.855071 
L 197.831419 271.736929 
" clip-path="url(#p01e910d571)"/>
    <path d="M 212.580553 271.737568 
L 201.735373 272.518421 
L 202.240527 273.369763 
L 197.729471 272.362989 
L 202.04977 270.720357 
L 201.671788 271.635285 
L 212.516967 270.854432 
L 212.580553 271.737568 
" clip-path="url(#p01e910d571)"/>
    <path d="M 65.002384 246.661933 
L 75.843073 247.247331 
L 75.448749 246.339326 
L 79.797801 247.904242 
L 75.30552 248.991726 
L 75.79533 248.131464 
L 64.954641 247.546067 
L 65.002384 246.661933 
" clip-path="url(#p01e910d571)"/>
    <path d="M 79.765352 246.662294 
L 87.645433 247.1942 
L 87.263357 246.280973 
L 91.590968 247.904242 
L 87.084467 248.931207 
L 87.585803 248.077611 
L 79.705722 247.545706 
L 79.765352 246.662294 
" clip-path="url(#p01e910d571)"/>
    <path d="M 94.532246 246.663071 
L 99.455462 247.106161 
L 99.0939 246.18462 
L 103.384135 247.904242 
L 98.855799 248.830192 
L 99.376095 247.988018 
L 94.452878 247.544929 
L 94.532246 246.663071 
" clip-path="url(#p01e910d571)"/>
    <path d="M 109.308815 246.665269 
L 111.287953 246.932453 
L 110.96768 245.995762 
L 115.177302 247.904242 
L 110.612308 248.628148 
L 111.169496 247.809914 
L 109.190358 247.542731 
L 109.308815 246.665269 
" clip-path="url(#p01e910d571)"/>
    <path d="M 124.086636 246.807614 
L 124.383022 246.887638 
L 124.246684 246.214843 
L 126.970469 247.904242 
L 123.766539 247.993157 
L 124.222973 247.48041 
L 123.926587 247.400386 
L 124.086636 246.807614 
" clip-path="url(#p01e910d571)"/>
    <path d="M 138.763636 247.546711 
L 139.147035 247.325355 
L 139.147035 246.882645 
L 138.763636 246.661289 
L 138.380238 246.882645 
L 138.380238 247.325355 
L 138.763636 247.546711 
L 139.147035 247.325355 
" clip-path="url(#p01e910d571)"/>
    <path d="M 153.600685 247.400386 
L 153.3043 247.48041 
L 153.760734 247.993157 
L 150.556803 247.904242 
L 153.280589 246.214843 
L 153.144251 246.887638 
L 153.440637 246.807614 
L 153.600685 247.400386 
" clip-path="url(#p01e910d571)"/>
    <path d="M 168.336915 247.542731 
L 166.357777 247.809914 
L 166.914965 248.628148 
L 162.34997 247.904242 
L 166.559593 245.995762 
L 166.239319 246.932453 
L 168.218457 246.665269 
L 168.336915 247.542731 
" clip-path="url(#p01e910d571)"/>
    <path d="M 183.074394 247.544929 
L 178.151178 247.988018 
L 178.671474 248.830192 
L 174.143137 247.904242 
L 178.433372 246.18462 
L 178.071811 247.106161 
L 182.995027 246.663071 
L 183.074394 247.544929 
" clip-path="url(#p01e910d571)"/>
    <path d="M 197.821551 247.545706 
L 189.94147 248.077611 
L 190.442806 248.931207 
L 185.936304 247.904242 
L 190.263915 246.280973 
L 189.88184 247.1942 
L 197.76192 246.662294 
L 197.821551 247.545706 
" clip-path="url(#p01e910d571)"/>
    <path d="M 212.572632 247.546067 
L 201.731943 248.131464 
L 202.221753 248.991726 
L 197.729471 247.904242 
L 202.078523 246.339326 
L 201.6842 247.247331 
L 212.524889 246.661933 
L 212.572632 247.546067 
" clip-path="url(#p01e910d571)"/>
    <path d="M 64.99444 222.469576 
L 75.831911 222.859725 
L 75.421342 221.958949 
L 79.797801 223.445494 
L 75.325778 224.613494 
L 75.800057 223.744573 
L 64.962585 223.354424 
L 64.99444 222.469576 
" clip-path="url(#p01e910d571)"/>
    <path d="M 79.755439 222.469737 
L 87.630502 222.824115 
L 87.228042 221.919686 
L 91.590968 223.445494 
L 87.108631 224.573266 
L 87.590698 223.708641 
L 79.715635 223.354263 
L 79.755439 222.469737 
" clip-path="url(#p01e910d571)"/>
    <path d="M 94.519077 222.470084 
L 99.433406 222.764944 
L 99.04452 221.854597 
L 103.384135 223.445494 
L 98.88543 224.506093 
L 99.380376 223.648776 
L 94.466047 223.353916 
L 94.519077 222.470084 
" clip-path="url(#p01e910d571)"/>
    <path d="M 109.28927 222.471071 
L 111.248629 222.647414 
L 110.887067 221.725873 
L 115.177302 223.445494 
L 110.648966 224.371444 
L 111.169262 223.529271 
L 109.209903 223.352929 
L 109.28927 222.471071 
" clip-path="url(#p01e910d571)"/>
    <path d="M 124.059961 222.615614 
L 124.356347 222.668964 
L 124.16666 222.022843 
L 126.970469 223.445494 
L 123.846563 223.801157 
L 124.249648 223.261735 
L 123.953262 223.208386 
L 124.059961 222.615614 
" clip-path="url(#p01e910d571)"/>
    <path d="M 138.763636 223.354711 
L 139.147035 223.133355 
L 139.147035 222.690645 
L 138.763636 222.469289 
L 138.380238 222.690645 
L 138.380238 223.133355 
L 138.763636 223.354711 
L 139.147035 223.133355 
" clip-path="url(#p01e910d571)"/>
    <path d="M 153.574011 223.208386 
L 153.277625 223.261735 
L 153.680709 223.801157 
L 150.556803 223.445494 
L 153.360613 222.022843 
L 153.170926 222.668964 
L 153.467312 222.615614 
L 153.574011 223.208386 
" clip-path="url(#p01e910d571)"/>
    <path d="M 168.31737 223.352929 
L 166.358011 223.529271 
L 166.878307 224.371444 
L 162.34997 223.445494 
L 166.640205 221.725873 
L 166.278644 222.647414 
L 168.238002 222.471071 
L 168.31737 223.352929 
" clip-path="url(#p01e910d571)"/>
    <path d="M 183.061226 223.353916 
L 178.146896 223.648776 
L 178.641842 224.506093 
L 174.143137 223.445494 
L 178.482753 221.854597 
L 178.093866 222.764944 
L 183.008196 222.470084 
L 183.061226 223.353916 
" clip-path="url(#p01e910d571)"/>
    <path d="M 197.811637 223.354263 
L 189.936575 223.708641 
L 190.418642 224.573266 
L 185.936304 223.445494 
L 190.299231 221.919686 
L 189.896771 222.824115 
L 197.771834 222.469737 
L 197.811637 223.354263 
" clip-path="url(#p01e910d571)"/>
    <path d="M 212.564688 223.354424 
L 201.727216 223.744573 
L 202.201495 224.613494 
L 197.729471 223.445494 
L 202.105931 221.958949 
L 201.695361 222.859725 
L 212.532833 222.469576 
L 212.564688 223.354424 
" clip-path="url(#p01e910d571)"/>
    <path d="M 64.98648 198.277361 
L 75.822017 198.472401 
L 75.395313 197.579155 
L 79.797801 198.986747 
L 75.347508 200.234989 
L 75.806082 199.357679 
L 64.970545 199.162639 
L 64.98648 198.277361 
" clip-path="url(#p01e910d571)"/>
    <path d="M 79.745496 198.277401 
L 87.617538 198.454522 
L 87.194857 197.559366 
L 91.590968 198.986747 
L 87.135106 200.214959 
L 87.597621 199.33972 
L 79.725579 199.162599 
L 79.745496 198.277401 
" clip-path="url(#p01e910d571)"/>
    <path d="M 94.505837 198.277488 
L 99.414806 198.424757 
L 98.998845 197.526459 
L 103.384135 198.986747 
L 98.919193 200.181529 
L 99.388255 199.309781 
L 94.479287 199.162512 
L 94.505837 198.277488 
" clip-path="url(#p01e910d571)"/>
    <path d="M 109.269489 198.277737 
L 111.216836 198.365367 
L 110.814376 197.460939 
L 115.177302 198.986747 
L 110.694965 200.114518 
L 111.177032 199.249894 
L 109.229685 199.162263 
L 109.269489 198.277737 
" clip-path="url(#p01e910d571)"/>
    <path d="M 124.033286 198.423614 
L 124.329672 198.450289 
L 124.086636 197.830843 
L 126.970469 198.986747 
L 123.926587 199.609157 
L 124.276323 199.04306 
L 123.979937 199.016386 
L 124.033286 198.423614 
" clip-path="url(#p01e910d571)"/>
    <path d="M 138.763636 199.162711 
L 139.147035 198.941355 
L 139.147035 198.498645 
L 138.763636 198.277289 
L 138.380238 198.498645 
L 138.380238 198.941355 
L 138.763636 199.162711 
L 139.147035 198.941355 
" clip-path="url(#p01e910d571)"/>
    <path d="M 153.547336 199.016386 
L 153.25095 199.04306 
L 153.600685 199.609157 
L 150.556803 198.986747 
L 153.440637 197.830843 
L 153.197601 198.450289 
L 153.493986 198.423614 
L 153.547336 199.016386 
" clip-path="url(#p01e910d571)"/>
    <path d="M 168.297588 199.162263 
L 166.350241 199.249894 
L 166.832308 200.114518 
L 162.34997 198.986747 
L 166.712897 197.460939 
L 166.310437 198.365367 
L 168.257784 198.277737 
L 168.297588 199.162263 
" clip-path="url(#p01e910d571)"/>
    <path d="M 183.047986 199.162512 
L 178.139018 199.309781 
L 178.60808 200.181529 
L 174.143137 198.986747 
L 178.528428 197.526459 
L 178.112467 198.424757 
L 183.021435 198.277488 
L 183.047986 199.162512 
" clip-path="url(#p01e910d571)"/>
    <path d="M 197.801694 199.162599 
L 189.929651 199.33972 
L 190.392167 200.214959 
L 185.936304 198.986747 
L 190.332416 197.559366 
L 189.909734 198.454522 
L 197.781777 198.277401 
L 197.801694 199.162599 
" clip-path="url(#p01e910d571)"/>
    <path d="M 212.556728 199.162639 
L 201.72119 199.357679 
L 202.179764 200.234989 
L 197.729471 198.986747 
L 202.131959 197.579155 
L 201.705255 198.472401 
L 212.540793 198.277361 
L 212.556728 199.162639 
" clip-path="url(#p01e910d571)"/>
    <path d="M 64.978512 174.085289 
L 75.813405 174.085289 
L 75.370694 173.199868 
L 79.797801 174.528 
L 75.370694 175.856132 
L 75.813405 174.970711 
L 64.978512 174.970711 
L 64.978512 174.085289 
" clip-path="url(#p01e910d571)"/>
    <path d="M 79.735537 174.085289 
L 87.606572 174.085289 
L 87.163861 173.199868 
L 91.590968 174.528 
L 87.163861 175.856132 
L 87.606572 174.970711 
L 79.735537 174.970711 
L 79.735537 174.085289 
" clip-path="url(#p01e910d571)"/>
    <path d="M 94.492562 174.085289 
L 99.399739 174.085289 
L 98.957028 173.199868 
L 103.384135 174.528 
L 98.957028 175.856132 
L 99.399739 174.970711 
L 94.492562 174.970711 
L 94.492562 174.085289 
" clip-path="url(#p01e910d571)"/>
    <path d="M 109.249587 174.085289 
L 111.192906 174.085289 
L 110.750195 173.199868 
L 115.177302 174.528 
L 110.750195 175.856132 
L 111.192906 174.970711 
L 109.249587 174.970711 
L 109.249587 174.085289 
" clip-path="url(#p01e910d571)"/>
    <path d="M 124.006612 174.231614 
L 124.302997 174.231614 
L 124.006612 173.638843 
L 126.970469 174.528 
L 124.006612 175.417157 
L 124.302997 174.824386 
L 124.006612 174.824386 
L 124.006612 174.231614 
" clip-path="url(#p01e910d571)"/>
    <path d="M 139.206347 174.528 
L 138.984992 174.144601 
L 138.542281 174.144601 
L 138.320926 174.528 
L 138.542281 174.911399 
L 138.984992 174.911399 
L 139.206347 174.528 
L 138.984992 174.144601 
" clip-path="url(#p01e910d571)"/>
    <path d="M 153.520661 174.824386 
L 153.224275 174.824386 
L 153.520661 175.417157 
L 150.556803 174.528 
L 153.520661 173.638843 
L 153.224275 174.231614 
L 153.520661 174.231614 
L 153.520661 174.824386 
" clip-path="url(#p01e910d571)"/>
    <path d="M 168.277686 174.970711 
L 166.334367 174.970711 
L 166.777078 175.856132 
L 162.34997 174.528 
L 166.777078 173.199868 
L 166.334367 174.085289 
L 168.277686 174.085289 
L 168.277686 174.970711 
" clip-path="url(#p01e910d571)"/>
    <path d="M 183.034711 174.970711 
L 178.127534 174.970711 
L 178.570245 175.856132 
L 174.143137 174.528 
L 178.570245 173.199868 
L 178.127534 174.085289 
L 183.034711 174.085289 
L 183.034711 174.970711 
" clip-path="url(#p01e910d571)"/>
    <path d="M 197.791736 174.970711 
L 189.920701 174.970711 
L 190.363412 175.856132 
L 185.936304 174.528 
L 190.363412 173.199868 
L 189.920701 174.085289 
L 197.791736 174.085289 
L 197.791736 174.970711 
" clip-path="url(#p01e910d571)"/>
    <path d="M 212.54876 174.970711 
L 201.713868 174.970711 
L 202.156579 175.856132 
L 197.729471 174.528 
L 202.156579 173.199868 
L 201.713868 174.085289 
L 212.54876 174.085289 
L 212.54876 174.970711 
" clip-path="url(#p01e910d571)"/>
    <path d="M 64.970545 149.893361 
L 75.806082 149.698321 
L 75.347508 148.821011 
L 79.797801 150.069253 
L 75.395313 151.476845 
L 75.822017 150.583599 
L 64.98648 150.778639 
L 64.970545 149.893361 
" clip-path="url(#p01e910d571)"/>
    <path d="M 79.725579 149.893401 
L 87.597621 149.71628 
L 87.135106 148.841041 
L 91.590968 150.069253 
L 87.194857 151.496634 
L 87.617538 150.601478 
L 79.745496 150.778599 
L 79.725579 149.893401 
" clip-path="url(#p01e910d571)"/>
    <path d="M 94.479287 149.893488 
L 99.388255 149.746219 
L 98.919193 148.874471 
L 103.384135 150.069253 
L 98.998845 151.529541 
L 99.414806 150.631243 
L 94.505837 150.778512 
L 94.479287 149.893488 
" clip-path="url(#p01e910d571)"/>
    <path d="M 109.229685 149.893737 
L 111.177032 149.806106 
L 110.694965 148.941482 
L 115.177302 150.069253 
L 110.814376 151.595061 
L 111.216836 150.690633 
L 109.269489 150.778263 
L 109.229685 149.893737 
" clip-path="url(#p01e910d571)"/>
    <path d="M 123.979937 150.039614 
L 124.276323 150.01294 
L 123.926587 149.446843 
L 126.970469 150.069253 
L 124.086636 151.225157 
L 124.329672 150.605711 
L 124.033286 150.632386 
L 123.979937 150.039614 
" clip-path="url(#p01e910d571)"/>
    <path d="M 138.763636 149.893289 
L 138.380238 150.114645 
L 138.380238 150.557355 
L 138.763636 150.778711 
L 139.147035 150.557355 
L 139.147035 150.114645 
L 138.763636 149.893289 
L 138.380238 150.114645 
" clip-path="url(#p01e910d571)"/>
    <path d="M 153.493986 150.632386 
L 153.197601 150.605711 
L 153.440637 151.225157 
L 150.556803 150.069253 
L 153.600685 149.446843 
L 153.25095 150.01294 
L 153.547336 150.039614 
L 153.493986 150.632386 
" clip-path="url(#p01e910d571)"/>
    <path d="M 168.257784 150.778263 
L 166.310437 150.690633 
L 166.712897 151.595061 
L 162.34997 150.069253 
L 166.832308 148.941482 
L 166.350241 149.806106 
L 168.297588 149.893737 
L 168.257784 150.778263 
" clip-path="url(#p01e910d571)"/>
    <path d="M 183.021435 150.778512 
L 178.112467 150.631243 
L 178.528428 151.529541 
L 174.143137 150.069253 
L 178.60808 148.874471 
L 178.139018 149.746219 
L 183.047986 149.893488 
L 183.021435 150.778512 
" clip-path="url(#p01e910d571)"/>
    <path d="M 197.781777 150.778599 
L 189.909734 150.601478 
L 190.332416 151.496634 
L 185.936304 150.069253 
L 190.392167 148.841041 
L 189.929651 149.71628 
L 197.801694 149.893401 
L 197.781777 150.778599 
" clip-path="url(#p01e910d571)"/>
    <path d="M 212.540793 150.778639 
L 201.705255 150.583599 
L 202.131959 151.476845 
L 197.729471 150.069253 
L 202.179764 148.821011 
L 201.72119 149.698321 
L 212.556728 149.893361 
L 212.540793 150.778639 
" clip-path="url(#p01e910d571)"/>
    <path d="M 64.962585 125.701576 
L 75.800057 125.311427 
L 75.325778 124.442506 
L 79.797801 125.610506 
L 75.421342 127.097051 
L 75.831911 126.196275 
L 64.99444 126.586424 
L 64.962585 125.701576 
" clip-path="url(#p01e910d571)"/>
    <path d="M 79.715635 125.701737 
L 87.590698 125.347359 
L 87.108631 124.482734 
L 91.590968 125.610506 
L 87.228042 127.136314 
L 87.630502 126.231885 
L 79.755439 126.586263 
L 79.715635 125.701737 
" clip-path="url(#p01e910d571)"/>
    <path d="M 94.466047 125.702084 
L 99.380376 125.407224 
L 98.88543 124.549907 
L 103.384135 125.610506 
L 99.04452 127.201403 
L 99.433406 126.291056 
L 94.519077 126.585916 
L 94.466047 125.702084 
" clip-path="url(#p01e910d571)"/>
    <path d="M 109.209903 125.703071 
L 111.169262 125.526729 
L 110.648966 124.684556 
L 115.177302 125.610506 
L 110.887067 127.330127 
L 111.248629 126.408586 
L 109.28927 126.584929 
L 109.209903 125.703071 
" clip-path="url(#p01e910d571)"/>
    <path d="M 123.953262 125.847614 
L 124.249648 125.794265 
L 123.846563 125.254843 
L 126.970469 125.610506 
L 124.16666 127.033157 
L 124.356347 126.387036 
L 124.059961 126.440386 
L 123.953262 125.847614 
" clip-path="url(#p01e910d571)"/>
    <path d="M 138.763636 125.701289 
L 138.380238 125.922645 
L 138.380238 126.365355 
L 138.763636 126.586711 
L 139.147035 126.365355 
L 139.147035 125.922645 
L 138.763636 125.701289 
L 138.380238 125.922645 
" clip-path="url(#p01e910d571)"/>
    <path d="M 153.467312 126.440386 
L 153.170926 126.387036 
L 153.360613 127.033157 
L 150.556803 125.610506 
L 153.680709 125.254843 
L 153.277625 125.794265 
L 153.574011 125.847614 
L 153.467312 126.440386 
" clip-path="url(#p01e910d571)"/>
    <path d="M 168.238002 126.584929 
L 166.278644 126.408586 
L 166.640205 127.330127 
L 162.34997 125.610506 
L 166.878307 124.684556 
L 166.358011 125.526729 
L 168.31737 125.703071 
L 168.238002 126.584929 
" clip-path="url(#p01e910d571)"/>
    <path d="M 183.008196 126.585916 
L 178.093866 126.291056 
L 178.482753 127.201403 
L 174.143137 125.610506 
L 178.641842 124.549907 
L 178.146896 125.407224 
L 183.061226 125.702084 
L 183.008196 126.585916 
" clip-path="url(#p01e910d571)"/>
    <path d="M 197.771834 126.586263 
L 189.896771 126.231885 
L 190.299231 127.136314 
L 185.936304 125.610506 
L 190.418642 124.482734 
L 189.936575 125.347359 
L 197.811637 125.701737 
L 197.771834 126.586263 
" clip-path="url(#p01e910d571)"/>
    <path d="M 212.532833 126.586424 
L 201.695361 126.196275 
L 202.105931 127.097051 
L 197.729471 125.610506 
L 202.201495 124.442506 
L 201.727216 125.311427 
L 212.564688 125.701576 
L 212.532833 126.586424 
" clip-path="url(#p01e910d571)"/>
    <path d="M 64.954641 101.509933 
L 75.79533 100.924536 
L 75.30552 100.064274 
L 79.797801 101.151758 
L 75.448749 102.716674 
L 75.843073 101.808669 
L 65.002384 102.394067 
L 64.954641 101.509933 
" clip-path="url(#p01e910d571)"/>
    <path d="M 79.705722 101.510294 
L 87.585803 100.978389 
L 87.084467 100.124793 
L 91.590968 101.151758 
L 87.263357 102.775027 
L 87.645433 101.8618 
L 79.765352 102.393706 
L 79.705722 101.510294 
" clip-path="url(#p01e910d571)"/>
    <path d="M 94.452878 101.511071 
L 99.376095 101.067982 
L 98.855799 100.225808 
L 103.384135 101.151758 
L 99.0939 102.87138 
L 99.455462 101.949839 
L 94.532246 102.392929 
L 94.452878 101.511071 
" clip-path="url(#p01e910d571)"/>
    <path d="M 109.190358 101.513269 
L 111.169496 101.246086 
L 110.612308 100.427852 
L 115.177302 101.151758 
L 110.96768 103.060238 
L 111.287953 102.123547 
L 109.308815 102.390731 
L 109.190358 101.513269 
" clip-path="url(#p01e910d571)"/>
    <path d="M 123.926587 101.655614 
L 124.222973 101.57559 
L 123.766539 101.062843 
L 126.970469 101.151758 
L 124.246684 102.841157 
L 124.383022 102.168362 
L 124.086636 102.248386 
L 123.926587 101.655614 
" clip-path="url(#p01e910d571)"/>
    <path d="M 138.763636 101.509289 
L 138.380238 101.730645 
L 138.380238 102.173355 
L 138.763636 102.394711 
L 139.147035 102.173355 
L 139.147035 101.730645 
L 138.763636 101.509289 
L 138.380238 101.730645 
" clip-path="url(#p01e910d571)"/>
    <path d="M 153.440637 102.248386 
L 153.144251 102.168362 
L 153.280589 102.841157 
L 150.556803 101.151758 
L 153.760734 101.062843 
L 153.3043 101.57559 
L 153.600685 101.655614 
L 153.440637 102.248386 
" clip-path="url(#p01e910d571)"/>
    <path d="M 168.218457 102.390731 
L 166.239319 102.123547 
L 166.559593 103.060238 
L 162.34997 101.151758 
L 166.914965 100.427852 
L 166.357777 101.246086 
L 168.336915 101.513269 
L 168.218457 102.390731 
" clip-path="url(#p01e910d571)"/>
    <path d="M 182.995027 102.392929 
L 178.071811 101.949839 
L 178.433372 102.87138 
L 174.143137 101.151758 
L 178.671474 100.225808 
L 178.151178 101.067982 
L 183.074394 101.511071 
L 182.995027 102.392929 
" clip-path="url(#p01e910d571)"/>
    <path d="M 197.76192 102.393706 
L 189.88184 101.8618 
L 190.263915 102.775027 
L 185.936304 101.151758 
L 190.442806 100.124793 
L 189.94147 100.978389 
L 197.821551 101.510294 
L 197.76192 102.393706 
" clip-path="url(#p01e910d571)"/>
    <path d="M 212.524889 102.394067 
L 201.6842 101.808669 
L 202.078523 102.716674 
L 197.729471 101.151758 
L 202.221753 100.064274 
L 201.731943 100.924536 
L 212.572632 101.509933 
L 212.524889 102.394067 
" clip-path="url(#p01e910d571)"/>
    <path d="M 64.94672 77.318432 
L 75.791899 76.537579 
L 75.286746 75.686237 
L 79.797801 76.693011 
L 75.477503 78.335643 
L 75.855485 77.420715 
L 65.010305 78.201568 
L 64.94672 77.318432 
" clip-path="url(#p01e910d571)"/>
    <path d="M 79.695854 77.319071 
L 87.582928 76.609235 
L 87.062632 75.767061 
L 91.590968 76.693011 
L 87.300733 78.412633 
L 87.662295 77.491092 
L 79.775221 78.200929 
L 79.695854 77.319071 
" clip-path="url(#p01e910d571)"/>
    <path d="M 94.439815 77.320443 
L 99.375373 76.728176 
L 98.830322 75.901808 
L 103.384135 76.693011 
L 99.146804 78.539152 
L 99.480867 77.60729 
L 94.545309 78.199557 
L 94.439815 77.320443 
" clip-path="url(#p01e910d571)"/>
    <path d="M 109.171159 77.324291 
L 111.177498 76.96315 
L 110.584934 76.170161 
L 115.177302 76.693011 
L 111.0555 78.784412 
L 111.334353 77.834568 
L 109.328014 78.195709 
L 109.171159 77.324291 
" clip-path="url(#p01e910d571)"/>
    <path d="M 123.899913 77.463614 
L 124.196298 77.356915 
L 123.686515 76.870843 
L 126.970469 76.693011 
L 124.326708 78.649157 
L 124.409696 77.949687 
L 124.11331 78.056386 
L 123.899913 77.463614 
" clip-path="url(#p01e910d571)"/>
    <path d="M 138.656937 77.76 
L 138.656937 77.653301 
L 138.44354 77.76 
L 138.763636 76.693011 
L 139.083733 77.76 
L 138.870335 77.653301 
L 138.870335 77.76 
L 138.656937 77.76 
" clip-path="url(#p01e910d571)"/>
    <path d="M 153.413962 78.056386 
L 153.117576 77.949687 
L 153.200565 78.649157 
L 150.556803 76.693011 
L 153.840758 76.870843 
L 153.330974 77.356915 
L 153.62736 77.463614 
L 153.413962 78.056386 
" clip-path="url(#p01e910d571)"/>
    <path d="M 168.199258 78.195709 
L 166.19292 77.834568 
L 166.471773 78.784412 
L 162.34997 76.693011 
L 166.942338 76.170161 
L 166.349775 76.96315 
L 168.356113 77.324291 
L 168.199258 78.195709 
" clip-path="url(#p01e910d571)"/>
    <path d="M 182.981964 78.199557 
L 178.046406 77.60729 
L 178.380469 78.539152 
L 174.143137 76.693011 
L 178.69695 75.901808 
L 178.151899 76.728176 
L 183.087458 77.320443 
L 182.981964 78.199557 
" clip-path="url(#p01e910d571)"/>
    <path d="M 197.752052 78.200929 
L 189.864978 77.491092 
L 190.226539 78.412633 
L 185.936304 76.693011 
L 190.464641 75.767061 
L 189.944345 76.609235 
L 197.831419 77.319071 
L 197.752052 78.200929 
" clip-path="url(#p01e910d571)"/>
    <path d="M 212.516967 78.201568 
L 201.671788 77.420715 
L 202.04977 78.335643 
L 197.729471 76.693011 
L 202.240527 75.686237 
L 201.735373 76.537579 
L 212.580553 77.318432 
L 212.516967 78.201568 
" clip-path="url(#p01e910d571)"/>
    <path d="M 64.938829 53.127071 
L 75.789761 52.150488 
L 75.269465 51.308314 
L 79.797801 52.234264 
L 75.507566 53.953885 
L 75.869128 53.032345 
L 65.018196 54.008929 
L 64.938829 53.127071 
" clip-path="url(#p01e910d571)"/>
    <path d="M 79.686044 53.128064 
L 87.582056 52.239763 
L 87.043135 51.409385 
L 91.590968 52.234264 
L 87.340091 54.048998 
L 87.681041 53.119634 
L 79.78503 54.007936 
L 79.686044 53.128064 
" clip-path="url(#p01e910d571)"/>
    <path d="M 94.42689 53.130187 
L 99.378149 52.387498 
L 98.808992 51.577545 
L 103.384135 52.234264 
L 99.203024 54.204421 
L 99.509493 53.263124 
L 94.558234 54.005813 
L 94.42689 53.130187 
" clip-path="url(#p01e910d571)"/>
    <path d="M 109.152406 53.136087 
L 111.192906 52.676975 
L 110.566632 51.910329 
L 115.177302 52.234264 
L 111.149714 54.501807 
L 111.387266 53.540801 
L 109.346767 53.999913 
L 109.152406 53.136087 
" clip-path="url(#p01e910d571)"/>
    <path d="M 123.873238 53.271614 
L 124.169624 53.138241 
L 123.606491 52.678843 
L 126.970469 52.234264 
L 124.406732 54.457157 
L 124.436371 53.731012 
L 124.139985 53.864386 
L 123.873238 53.271614 
" clip-path="url(#p01e910d571)"/>
    <path d="M 138.630263 53.568 
L 138.630263 53.434626 
L 138.363516 53.568 
L 138.763636 52.234264 
L 139.163757 53.568 
L 138.89701 53.434626 
L 138.89701 53.568 
L 138.630263 53.568 
" clip-path="url(#p01e910d571)"/>
    <path d="M 153.387288 53.864386 
L 153.090902 53.731012 
L 153.12054 54.457157 
L 150.556803 52.234264 
L 153.920782 52.678843 
L 153.357649 53.138241 
L 153.654035 53.271614 
L 153.387288 53.864386 
" clip-path="url(#p01e910d571)"/>
    <path d="M 168.180506 53.999913 
L 166.140006 53.540801 
L 166.377558 54.501807 
L 162.34997 52.234264 
L 166.960641 51.910329 
L 166.334367 52.676975 
L 168.374866 53.136087 
L 168.180506 53.999913 
" clip-path="url(#p01e910d571)"/>
    <path d="M 182.969039 54.005813 
L 178.01778 53.263124 
L 178.324249 54.204421 
L 174.143137 52.234264 
L 178.718281 51.577545 
L 178.149124 52.387498 
L 183.100383 53.130187 
L 182.969039 54.005813 
" clip-path="url(#p01e910d571)"/>
    <path d="M 197.742243 54.007936 
L 189.846231 53.119634 
L 190.187181 54.048998 
L 185.936304 52.234264 
L 190.484138 51.409385 
L 189.945217 52.239763 
L 197.841228 53.128064 
L 197.742243 54.007936 
" clip-path="url(#p01e910d571)"/>
    <path d="M 212.509077 54.008929 
L 201.658145 53.032345 
L 202.019706 53.953885 
L 197.729471 52.234264 
L 202.257808 51.308314 
L 201.737512 52.150488 
L 212.588444 53.127071 
L 212.509077 54.008929 
" clip-path="url(#p01e910d571)"/>
   </g>
   <g id="matplotlib.axis_1">
    <g id="xtick_1">
     <g id="line2d_1">
      <defs>
       <path id="meaa61de033" d="M 0 0 
L 0 3.5 
" style="stroke: #000000; stroke-width: 0.8"/>
      </defs>
      <g>
       <use xlink:href="#meaa61de033" x="64.978512" y="307.584" style="stroke: #000000; stroke-width: 0.8"/>
      </g>
     </g>
     <g id="text_1">
      <!-- −5.0 -->
      <g transform="translate(52.837106 322.182437) scale(0.1 -0.1)">
       <defs>
        <path id="DejaVuSans-2212" d="M 678 2272 
L 4684 2272 
L 4684 1741 
L 678 1741 
L 678 2272 
z
" transform="scale(0.015625)"/>
        <path id="DejaVuSans-35" d="M 691 4666 
L 3169 4666 
L 3169 4134 
L 1269 4134 
L 1269 2991 
Q 1406 3038 1543 3061 
Q 1681 3084 1819 3084 
Q 2600 3084 3056 2656 
Q 3513 2228 3513 1497 
Q 3513 744 3044 326 
Q 2575 -91 1722 -91 
Q 1428 -91 1123 -41 
Q 819 9 494 109 
L 494 744 
Q 775 591 1075 516 
Q 1375 441 1709 441 
Q 2250 441 2565 725 
Q 2881 1009 2881 1497 
Q 2881 1984 2565 2268 
Q 2250 2553 1709 2553 
Q 1456 2553 1204 2497 
Q 953 2441 691 2322 
L 691 4666 
z
" transform="scale(0.015625)"/>
        <path id="DejaVuSans-2e" d="M 684 794 
L 1344 794 
L 1344 0 
L 684 0 
L 684 794 
z
" transform="scale(0.015625)"/>
        <path id="DejaVuSans-30" d="M 2034 4250 
Q 1547 4250 1301 3770 
Q 1056 3291 1056 2328 
Q 1056 1369 1301 889 
Q 1547 409 2034 409 
Q 2525 409 2770 889 
Q 3016 1369 3016 2328 
Q 3016 3291 2770 3770 
Q 2525 4250 2034 4250 
z
M 2034 4750 
Q 2819 4750 3233 4129 
Q 3647 3509 3647 2328 
Q 3647 1150 3233 529 
Q 2819 -91 2034 -91 
Q 1250 -91 836 529 
Q 422 1150 422 2328 
Q 422 3509 836 4129 
Q 1250 4750 2034 4750 
z
" transform="scale(0.015625)"/>
       </defs>
       <use xlink:href="#DejaVuSans-2212"/>
       <use xlink:href="#DejaVuSans-35" x="83.789062"/>
       <use xlink:href="#DejaVuSans-2e" x="147.412109"/>
       <use xlink:href="#DejaVuSans-30" x="179.199219"/>
      </g>
     </g>
    </g>
    <g id="xtick_2">
     <g id="line2d_2">
      <g>
       <use xlink:href="#meaa61de033" x="101.871074" y="307.584" style="stroke: #000000; stroke-width: 0.8"/>
      </g>
     </g>
     <g id="text_2">
      <!-- −2.5 -->
      <g transform="translate(89.729668 322.182437) scale(0.1 -0.1)">
       <defs>
        <path id="DejaVuSans-32" d="M 1228 531 
L 3431 531 
L 3431 0 
L 469 0 
L 469 531 
Q 828 903 1448 1529 
Q 2069 2156 2228 2338 
Q 2531 2678 2651 2914 
Q 2772 3150 2772 3378 
Q 2772 3750 2511 3984 
Q 2250 4219 1831 4219 
Q 1534 4219 1204 4116 
Q 875 4013 500 3803 
L 500 4441 
Q 881 4594 1212 4672 
Q 1544 4750 1819 4750 
Q 2544 4750 2975 4387 
Q 3406 4025 3406 3419 
Q 3406 3131 3298 2873 
Q 3191 2616 2906 2266 
Q 2828 2175 2409 1742 
Q 1991 1309 1228 531 
z
" transform="scale(0.015625)"/>
       </defs>
       <use xlink:href="#DejaVuSans-2212"/>
       <use xlink:href="#DejaVuSans-32" x="83.789062"/>
       <use xlink:href="#DejaVuSans-2e" x="147.412109"/>
       <use xlink:href="#DejaVuSans-35" x="179.199219"/>
      </g>
     </g>
    </g>
    <g id="xtick_3">
     <g id="line2d_3">
      <g>
       <use xlink:href="#meaa61de033" x="138.763636" y="307.584" style="stroke: #000000; stroke-width: 0.8"/>
      </g>
     </g>
     <g id="text_3">
      <!-- 0.0 -->
      <g transform="translate(130.812074 322.182437) scale(0.1 -0.1)">
       <use xlink:href="#DejaVuSans-30"/>
       <use xlink:href="#DejaVuSans-2e" x="63.623047"/>
       <use xlink:href="#DejaVuSans-30" x="95.410156"/>
      </g>
     </g>
    </g>
    <g id="xtick_4">
     <g id="line2d_4">
      <g>
       <use xlink:href="#meaa61de033" x="175.656198" y="307.584" style="stroke: #000000; stroke-width: 0.8"/>
      </g>
     </g>
     <g id="text_4">
      <!-- 2.5 -->
      <g transform="translate(167.704636 322.182437) scale(0.1 -0.1)">
       <use xlink:href="#DejaVuSans-32"/>
       <use xlink:href="#DejaVuSans-2e" x="63.623047"/>
       <use xlink:href="#DejaVuSans-35" x="95.410156"/>
      </g>
     </g>
    </g>
    <g id="xtick_5">
     <g id="line2d_5">
      <g>
       <use xlink:href="#meaa61de033" x="212.54876" y="307.584" style="stroke: #000000; stroke-width: 0.8"/>
      </g>
     </g>
     <g id="text_5">
      <!-- 5.0 -->
      <g transform="translate(204.597198 322.182437) scale(0.1 -0.1)">
       <use xlink:href="#DejaVuSans-35"/>
       <use xlink:href="#DejaVuSans-2e" x="63.623047"/>
       <use xlink:href="#DejaVuSans-30" x="95.410156"/>
      </g>
     </g>
    </g>
   </g>
   <g id="matplotlib.axis_2">
    <g id="ytick_1">
     <g id="line2d_6">
      <defs>
       <path id="m14a57dcba8" d="M 0 0 
L -3.5 0 
" style="stroke: #000000; stroke-width: 0.8"/>
      </defs>
      <g>
       <use xlink:href="#m14a57dcba8" x="57.6" y="271.296" style="stroke: #000000; stroke-width: 0.8"/>
      </g>
     </g>
     <g id="text_6">
      <!-- −4 -->
      <g transform="translate(35.857813 275.095219) scale(0.1 -0.1)">
       <defs>
        <path id="DejaVuSans-34" d="M 2419 4116 
L 825 1625 
L 2419 1625 
L 2419 4116 
z
M 2253 4666 
L 3047 4666 
L 3047 1625 
L 3713 1625 
L 3713 1100 
L 3047 1100 
L 3047 0 
L 2419 0 
L 2419 1100 
L 313 1100 
L 313 1709 
L 2253 4666 
z
" transform="scale(0.015625)"/>
       </defs>
       <use xlink:href="#DejaVuSans-2212"/>
       <use xlink:href="#DejaVuSans-34" x="83.789062"/>
      </g>
     </g>
    </g>
    <g id="ytick_2">
     <g id="line2d_7">
      <g>
       <use xlink:href="#m14a57dcba8" x="57.6" y="222.912" style="stroke: #000000; stroke-width: 0.8"/>
      </g>
     </g>
     <g id="text_7">
      <!-- −2 -->
      <g transform="translate(35.857813 226.711219) scale(0.1 -0.1)">
       <use xlink:href="#DejaVuSans-2212"/>
       <use xlink:href="#DejaVuSans-32" x="83.789062"/>
      </g>
     </g>
    </g>
    <g id="ytick_3">
     <g id="line2d_8">
      <g>
       <use xlink:href="#m14a57dcba8" x="57.6" y="174.528" style="stroke: #000000; stroke-width: 0.8"/>
      </g>
     </g>
     <g id="text_8">
      <!-- 0 -->
      <g transform="translate(44.2375 178.327219) scale(0.1 -0.1)">
       <use xlink:href="#DejaVuSans-30"/>
      </g>
     </g>
    </g>
    <g id="ytick_4">
     <g id="line2d_9">
      <g>
       <use xlink:href="#m14a57dcba8" x="57.6" y="126.144" style="stroke: #000000; stroke-width: 0.8"/>
      </g>
     </g>
     <g id="text_9">
      <!-- 2 -->
      <g transform="translate(44.2375 129.943219) scale(0.1 -0.1)">
       <use xlink:href="#DejaVuSans-32"/>
      </g>
     </g>
    </g>
    <g id="ytick_5">
     <g id="line2d_10">
      <g>
       <use xlink:href="#m14a57dcba8" x="57.6" y="77.76" style="stroke: #000000; stroke-width: 0.8"/>
      </g>
     </g>
     <g id="text_10">
      <!-- 4 -->
      <g transform="translate(44.2375 81.559219) scale(0.1 -0.1)">
       <use xlink:href="#DejaVuSans-34"/>
      </g>
     </g>
    </g>
   </g>
   <g id="patch_3">
    <path d="M 57.6 307.584 
L 57.6 41.472 
" style="fill: none; stroke: #000000; stroke-width: 0.8; stroke-linejoin: miter; stroke-linecap: square"/>
   </g>
   <g id="patch_4">
    <path d="M 219.927273 307.584 
L 219.927273 41.472 
" style="fill: none; stroke: #000000; stroke-width: 0.8; stroke-linejoin: miter; stroke-linecap: square"/>
   </g>
   <g id="patch_5">
    <path d="M 57.6 307.584 
L 219.927273 307.584 
" style="fill: none; stroke: #000000; stroke-width: 0.8; stroke-linejoin: miter; stroke-linecap: square"/>
   </g>
   <g id="patch_6">
    <path d="M 57.6 41.472 
L 219.927273 41.472 
" style="fill: none; stroke: #000000; stroke-width: 0.8; stroke-linejoin: miter; stroke-linecap: square"/>
   </g>
  </g>
  <g id="axes_2">
   <g id="patch_7">
    <path d="M 252.392727 307.584 
L 414.72 307.584 
L 414.72 41.472 
L 252.392727 41.472 
z
" style="fill: #ffffff"/>
   </g>
   <g id="matplotlib.axis_3">
    <g id="xtick_6">
     <g id="line2d_11">
      <g>
       <use xlink:href="#meaa61de033" x="279.447273" y="307.584" style="stroke: #000000; stroke-width: 0.8"/>
      </g>
     </g>
     <g id="text_11">
      <!-- 0 -->
      <g transform="translate(276.266023 322.182437) scale(0.1 -0.1)">
       <use xlink:href="#DejaVuSans-30"/>
      </g>
     </g>
    </g>
    <g id="xtick_7">
     <g id="line2d_12">
      <g>
       <use xlink:href="#meaa61de033" x="333.556364" y="307.584" style="stroke: #000000; stroke-width: 0.8"/>
      </g>
     </g>
     <g id="text_12">
      <!-- 2 -->
      <g transform="translate(330.375114 322.182437) scale(0.1 -0.1)">
       <use xlink:href="#DejaVuSans-32"/>
      </g>
     </g>
    </g>
    <g id="xtick_8">
     <g id="line2d_13">
      <g>
       <use xlink:href="#meaa61de033" x="387.665455" y="307.584" style="stroke: #000000; stroke-width: 0.8"/>
      </g>
     </g>
     <g id="text_13">
      <!-- 4 -->
      <g transform="translate(384.484205 322.182437) scale(0.1 -0.1)">
       <use xlink:href="#DejaVuSans-34"/>
      </g>
     </g>
    </g>
   </g>
   <g id="matplotlib.axis_4">
    <g id="ytick_6">
     <g id="line2d_14">
      <g>
       <use xlink:href="#m14a57dcba8" x="252.392727" y="307.584" style="stroke: #000000; stroke-width: 0.8"/>
      </g>
     </g>
     <g id="text_14">
      <!-- −5 -->
      <g transform="translate(230.65054 311.383219) scale(0.1 -0.1)">
       <use xlink:href="#DejaVuSans-2212"/>
       <use xlink:href="#DejaVuSans-35" x="83.789062"/>
      </g>
     </g>
    </g>
    <g id="ytick_7">
     <g id="line2d_15">
      <g>
       <use xlink:href="#m14a57dcba8" x="252.392727" y="263.232" style="stroke: #000000; stroke-width: 0.8"/>
      </g>
     </g>
     <g id="text_15">
      <!-- −4 -->
      <g transform="translate(230.65054 267.031219) scale(0.1 -0.1)">
       <use xlink:href="#DejaVuSans-2212"/>
       <use xlink:href="#DejaVuSans-34" x="83.789062"/>
      </g>
     </g>
    </g>
    <g id="ytick_8">
     <g id="line2d_16">
      <g>
       <use xlink:href="#m14a57dcba8" x="252.392727" y="218.88" style="stroke: #000000; stroke-width: 0.8"/>
      </g>
     </g>
     <g id="text_16">
      <!-- −3 -->
      <g transform="translate(230.65054 222.679219) scale(0.1 -0.1)">
       <defs>
        <path id="DejaVuSans-33" d="M 2597 2516 
Q 3050 2419 3304 2112 
Q 3559 1806 3559 1356 
Q 3559 666 3084 287 
Q 2609 -91 1734 -91 
Q 1441 -91 1130 -33 
Q 819 25 488 141 
L 488 750 
Q 750 597 1062 519 
Q 1375 441 1716 441 
Q 2309 441 2620 675 
Q 2931 909 2931 1356 
Q 2931 1769 2642 2001 
Q 2353 2234 1838 2234 
L 1294 2234 
L 1294 2753 
L 1863 2753 
Q 2328 2753 2575 2939 
Q 2822 3125 2822 3475 
Q 2822 3834 2567 4026 
Q 2313 4219 1838 4219 
Q 1578 4219 1281 4162 
Q 984 4106 628 3988 
L 628 4550 
Q 988 4650 1302 4700 
Q 1616 4750 1894 4750 
Q 2613 4750 3031 4423 
Q 3450 4097 3450 3541 
Q 3450 3153 3228 2886 
Q 3006 2619 2597 2516 
z
" transform="scale(0.015625)"/>
       </defs>
       <use xlink:href="#DejaVuSans-2212"/>
       <use xlink:href="#DejaVuSans-33" x="83.789062"/>
      </g>
     </g>
    </g>
    <g id="ytick_9">
     <g id="line2d_17">
      <g>
       <use xlink:href="#m14a57dcba8" x="252.392727" y="174.528" style="stroke: #000000; stroke-width: 0.8"/>
      </g>
     </g>
     <g id="text_17">
      <!-- −2 -->
      <g transform="translate(230.65054 178.327219) scale(0.1 -0.1)">
       <use xlink:href="#DejaVuSans-2212"/>
       <use xlink:href="#DejaVuSans-32" x="83.789062"/>
      </g>
     </g>
    </g>
    <g id="ytick_10">
     <g id="line2d_18">
      <g>
       <use xlink:href="#m14a57dcba8" x="252.392727" y="130.176" style="stroke: #000000; stroke-width: 0.8"/>
      </g>
     </g>
     <g id="text_18">
      <!-- −1 -->
      <g transform="translate(230.65054 133.975219) scale(0.1 -0.1)">
       <defs>
        <path id="DejaVuSans-31" d="M 794 531 
L 1825 531 
L 1825 4091 
L 703 3866 
L 703 4441 
L 1819 4666 
L 2450 4666 
L 2450 531 
L 3481 531 
L 3481 0 
L 794 0 
L 794 531 
z
" transform="scale(0.015625)"/>
       </defs>
       <use xlink:href="#DejaVuSans-2212"/>
       <use xlink:href="#DejaVuSans-31" x="83.789062"/>
      </g>
     </g>
    </g>
    <g id="ytick_11">
     <g id="line2d_19">
      <g>
       <use xlink:href="#m14a57dcba8" x="252.392727" y="85.824" style="stroke: #000000; stroke-width: 0.8"/>
      </g>
     </g>
     <g id="text_19">
      <!-- 0 -->
      <g transform="translate(239.030227 89.623219) scale(0.1 -0.1)">
       <use xlink:href="#DejaVuSans-30"/>
      </g>
     </g>
    </g>
    <g id="ytick_12">
     <g id="line2d_20">
      <g>
       <use xlink:href="#m14a57dcba8" x="252.392727" y="41.472" style="stroke: #000000; stroke-width: 0.8"/>
      </g>
     </g>
     <g id="text_20">
      <!-- 1 -->
      <g transform="translate(239.030227 45.271219) scale(0.1 -0.1)">
       <use xlink:href="#DejaVuSans-31"/>
      </g>
     </g>
    </g>
   </g>
   <g id="line2d_21">
    <path d="M 282.583116 346.6 
L 283.491791 292.583621 
L 284.830854 249.830127 
L 286.169917 222.823909 
L 287.508981 204.079646 
L 288.848044 190.239597 
L 290.187107 179.562878 
L 291.526171 171.052663 
L 292.865234 164.095149 
L 294.204298 158.290748 
L 295.543361 153.367619 
L 296.882424 149.134095 
L 298.221488 145.450973 
L 299.560551 142.214596 
L 300.899614 139.346118 
L 302.238678 136.784445 
L 303.577741 134.481473 
L 304.916804 132.398782 
L 306.255868 130.505302 
L 307.594931 128.775622 
L 308.933994 127.188744 
L 310.273058 125.727165 
L 311.612121 124.376166 
L 312.951185 123.123279 
L 314.290248 121.957869 
L 315.629311 120.870806 
L 316.968375 119.854206 
L 318.307438 118.901223 
L 319.646501 118.005883 
L 320.985565 117.162948 
L 322.324628 116.367805 
L 323.663691 115.616374 
L 325.002755 114.905036 
L 326.341818 114.230565 
L 327.680882 113.590076 
L 329.019945 112.980983 
L 330.359008 112.40096 
L 331.698072 111.847909 
L 333.037135 111.31993 
L 334.376198 110.815304 
L 335.715262 110.332463 
L 337.054325 109.869982 
L 338.393388 109.426559 
L 339.732452 109.001002 
L 341.071515 108.592217 
L 342.410579 108.199199 
L 343.749642 107.821025 
L 345.088705 107.456842 
L 346.427769 107.105863 
L 347.766832 106.767358 
L 349.105895 106.440652 
L 350.444959 106.12512 
L 351.784022 105.820179 
L 353.123085 105.525287 
L 354.462149 105.23994 
L 355.801212 104.963665 
L 357.140275 104.696023 
L 358.479339 104.436602 
L 359.818402 104.185018 
L 361.157466 103.940907 
L 362.496529 103.703931 
L 363.835592 103.473772 
L 365.174656 103.25013 
L 366.513719 103.032723 
L 367.852782 102.821285 
L 369.191846 102.615565 
L 370.530909 102.415327 
L 371.869972 102.220347 
L 373.209036 102.030414 
L 374.548099 101.845329 
L 375.887163 101.664901 
L 377.226226 101.488951 
L 378.565289 101.317309 
L 379.904353 101.149814 
L 381.243416 100.986312 
L 382.582479 100.826657 
L 383.921543 100.67071 
L 385.260606 100.51834 
L 386.599669 100.36942 
L 387.938733 100.223831 
L 389.277796 100.081459 
L 390.61686 99.942194 
L 391.955923 99.805933 
L 393.294986 99.672576 
L 394.63405 99.542028 
L 395.973113 99.414198 
L 397.312176 99.289 
L 398.65124 99.16635 
L 399.990303 99.046169 
L 401.329366 98.92838 
L 402.66843 98.812911 
L 404.007493 98.69969 
L 405.346556 98.588652 
L 406.68562 98.47973 
L 408.024683 98.372864 
L 409.363747 98.267994 
L 410.70281 98.165062 
L 412.041873 98.064013 
L 413.380937 97.964794 
L 414.72 97.867355 
" clip-path="url(#p73e4601cc7)" style="fill: none; stroke: #1f77b4; stroke-width: 1.5; stroke-linecap: square"/>
   </g>
   <g id="line2d_22">
    <path d="M 286.642263 346.6 
L 287.508981 322.335291 
L 288.848044 294.655195 
L 290.187107 273.301756 
L 291.526171 256.281327 
L 292.865234 242.366297 
L 294.204298 230.757495 
L 295.543361 220.911238 
L 296.882424 212.44419 
L 298.221488 205.077945 
L 299.560551 198.605192 
L 300.899614 192.868237 
L 302.238678 187.744891 
L 303.577741 183.138945 
L 304.916804 178.973563 
L 306.255868 175.186604 
L 307.594931 171.727243 
L 308.933994 168.553489 
L 310.273058 165.63033 
L 311.612121 162.928332 
L 312.951185 160.422558 
L 314.290248 158.091738 
L 315.629311 155.917613 
L 316.968375 153.884412 
L 318.307438 151.978446 
L 319.646501 150.187766 
L 320.985565 148.501895 
L 322.324628 146.911609 
L 323.663691 145.408749 
L 325.002755 143.986073 
L 326.341818 142.637129 
L 327.680882 141.356151 
L 329.019945 140.137966 
L 330.359008 138.97792 
L 331.698072 137.871817 
L 333.037135 136.815861 
L 334.376198 135.806607 
L 335.715262 134.840926 
L 337.054325 133.915965 
L 338.393388 133.029119 
L 339.732452 132.178004 
L 341.071515 131.360433 
L 342.410579 130.574399 
L 343.749642 129.818051 
L 345.088705 129.089685 
L 346.427769 128.387725 
L 347.766832 127.710715 
L 349.105895 127.057305 
L 350.444959 126.426241 
L 351.784022 125.816359 
L 353.123085 125.226575 
L 354.462149 124.655879 
L 355.801212 124.10333 
L 357.140275 123.568046 
L 358.479339 123.049205 
L 359.818402 122.546035 
L 361.157466 122.057814 
L 362.496529 121.583863 
L 363.835592 121.123545 
L 365.174656 120.676261 
L 366.513719 120.241446 
L 367.852782 119.818569 
L 369.191846 119.407129 
L 370.530909 119.006653 
L 371.869972 118.616694 
L 373.209036 118.236828 
L 374.548099 117.866657 
L 375.887163 117.505802 
L 377.226226 117.153902 
L 378.565289 116.810619 
L 379.904353 116.475629 
L 381.243416 116.148624 
L 382.582479 115.829314 
L 383.921543 115.517421 
L 385.260606 115.21268 
L 386.599669 114.914841 
L 387.938733 114.623663 
L 389.277796 114.338918 
L 390.61686 114.060388 
L 391.955923 113.787866 
L 393.294986 113.521152 
L 394.63405 113.260056 
L 395.973113 113.004396 
L 397.312176 112.754 
L 398.65124 112.5087 
L 399.990303 112.268338 
L 401.329366 112.03276 
L 402.66843 111.801821 
L 404.007493 111.57538 
L 405.346556 111.353303 
L 406.68562 111.13546 
L 408.024683 110.921728 
L 409.363747 110.711987 
L 410.70281 110.506123 
L 412.041873 110.304026 
L 413.380937 110.105589 
L 414.72 109.910711 
" clip-path="url(#p73e4601cc7)" style="fill: none; stroke: #ff7f0e; stroke-width: 1.5; stroke-linecap: square"/>
   </g>
   <g id="line2d_23">
    <path d="M 291.259204 346.6 
L 291.526171 341.50999 
L 292.865234 320.637446 
L 294.204298 303.224243 
L 295.543361 288.454857 
L 296.882424 275.754286 
L 298.221488 264.704918 
L 299.560551 254.995789 
L 300.899614 246.390355 
L 302.238678 238.705336 
L 303.577741 231.796418 
L 304.916804 225.548345 
L 306.255868 219.867906 
L 307.594931 214.678865 
L 308.933994 209.918233 
L 310.273058 205.533495 
L 311.612121 201.480497 
L 312.951185 197.721837 
L 314.290248 194.225607 
L 315.629311 190.964419 
L 316.968375 187.914619 
L 318.307438 185.055669 
L 319.646501 182.369649 
L 320.985565 179.840843 
L 322.324628 177.455414 
L 323.663691 175.201123 
L 325.002755 173.067109 
L 326.341818 171.043694 
L 327.680882 169.122227 
L 329.019945 167.294948 
L 330.359008 165.55488 
L 331.698072 163.895726 
L 333.037135 162.311791 
L 334.376198 160.797911 
L 335.715262 159.349389 
L 337.054325 157.961947 
L 338.393388 156.631678 
L 339.732452 155.355005 
L 341.071515 154.12865 
L 342.410579 152.949598 
L 343.749642 151.815076 
L 345.088705 150.722527 
L 346.427769 149.669588 
L 347.766832 148.654073 
L 349.105895 147.673957 
L 350.444959 146.727361 
L 351.784022 145.812538 
L 353.123085 144.927862 
L 354.462149 144.071819 
L 355.801212 143.242995 
L 357.140275 142.440069 
L 358.479339 141.661807 
L 359.818402 140.907053 
L 361.157466 140.174721 
L 362.496529 139.463794 
L 363.835592 138.773317 
L 365.174656 138.102391 
L 366.513719 137.450169 
L 367.852782 136.815854 
L 369.191846 136.198694 
L 370.530909 135.59798 
L 371.869972 135.013041 
L 373.209036 134.443243 
L 374.548099 133.887986 
L 375.887163 133.346702 
L 377.226226 132.818853 
L 378.565289 132.303928 
L 379.904353 131.801443 
L 381.243416 131.310936 
L 382.582479 130.831971 
L 383.921543 130.364131 
L 385.260606 129.90702 
L 386.599669 129.460261 
L 387.938733 129.023494 
L 389.277796 128.596377 
L 390.61686 128.178583 
L 391.955923 127.769799 
L 393.294986 127.369727 
L 394.63405 126.978083 
L 395.973113 126.594594 
L 397.312176 126.219 
L 398.65124 125.85105 
L 399.990303 125.490507 
L 401.329366 125.13714 
L 402.66843 124.790732 
L 404.007493 124.45107 
L 405.346556 124.117955 
L 406.68562 123.791191 
L 408.024683 123.470592 
L 409.363747 123.155981 
L 410.70281 122.847185 
L 412.041873 122.544039 
L 413.380937 122.246383 
L 414.72 121.954066 
" clip-path="url(#p73e4601cc7)" style="fill: none; stroke: #2ca02c; stroke-width: 1.5; stroke-linecap: square"/>
   </g>
   <g id="line2d_24">
    <path d="M 296.286545 346.6 
L 296.882424 339.064381 
L 298.221488 324.33189 
L 299.560551 311.386385 
L 300.899614 299.912474 
L 302.238678 289.665782 
L 303.577741 280.45389 
L 304.916804 272.123126 
L 306.255868 264.549208 
L 307.594931 257.630486 
L 308.933994 251.282978 
L 310.273058 245.436661 
L 311.612121 240.032663 
L 312.951185 235.021115 
L 314.290248 230.359476 
L 315.629311 226.011225 
L 316.968375 221.944825 
L 318.307438 218.132893 
L 319.646501 214.551532 
L 320.985565 211.179791 
L 322.324628 207.999218 
L 323.663691 204.993498 
L 325.002755 202.148146 
L 326.341818 199.450259 
L 327.680882 196.888302 
L 329.019945 194.451931 
L 330.359008 192.13184 
L 331.698072 189.919635 
L 333.037135 187.807722 
L 334.376198 185.789214 
L 335.715262 183.857852 
L 337.054325 182.00793 
L 338.393388 180.234237 
L 339.732452 178.532007 
L 341.071515 176.896866 
L 342.410579 175.324797 
L 343.749642 173.812101 
L 345.088705 172.355369 
L 346.427769 170.95145 
L 347.766832 169.597431 
L 349.105895 168.29061 
L 350.444959 167.028482 
L 351.784022 165.808717 
L 353.123085 164.62915 
L 354.462149 163.487759 
L 355.801212 162.38266 
L 357.140275 161.312092 
L 358.479339 160.27441 
L 359.818402 159.26807 
L 361.157466 158.291628 
L 362.496529 157.343726 
L 363.835592 156.42309 
L 365.174656 155.528521 
L 366.513719 154.658892 
L 367.852782 153.813138 
L 369.191846 152.990259 
L 370.530909 152.189306 
L 371.869972 151.409388 
L 373.209036 150.649657 
L 374.548099 149.909314 
L 375.887163 149.187603 
L 377.226226 148.483804 
L 378.565289 147.797238 
L 379.904353 147.127257 
L 381.243416 146.473248 
L 382.582479 145.834628 
L 383.921543 145.210841 
L 385.260606 144.60136 
L 386.599669 144.005681 
L 387.938733 143.423325 
L 389.277796 142.853836 
L 390.61686 142.296777 
L 391.955923 141.751732 
L 393.294986 141.218303 
L 394.63405 140.696111 
L 395.973113 140.184792 
L 397.312176 139.684 
L 398.65124 139.1934 
L 399.990303 138.712675 
L 401.329366 138.24152 
L 402.66843 137.779642 
L 404.007493 137.326761 
L 405.346556 136.882606 
L 406.68562 136.446921 
L 408.024683 136.019457 
L 409.363747 135.599975 
L 410.70281 135.188247 
L 412.041873 134.784051 
L 413.380937 134.387178 
L 414.72 133.997422 
" clip-path="url(#p73e4601cc7)" style="fill: none; stroke: #d62728; stroke-width: 1.5; stroke-linecap: square"/>
   </g>
   <g id="line2d_25">
    <path d="M 282.152727 307.584 
L 283.491791 234.163459 
L 284.830854 197.266843 
L 286.169917 175.068878 
L 287.508981 160.245153 
L 288.848044 149.644465 
L 290.187107 141.687206 
L 291.526171 135.494226 
L 292.865234 130.53732 
L 294.204298 126.48 
L 295.543361 123.097752 
L 296.882424 120.235034 
L 298.221488 117.780681 
L 299.560551 115.65313 
L 300.899614 113.791185 
L 302.238678 112.148029 
L 303.577741 110.687239 
L 304.916804 109.380052 
L 306.255868 108.20345 
L 307.594931 107.138796 
L 308.933994 106.17084 
L 310.273058 105.286979 
L 311.612121 104.47671 
L 312.951185 103.73121 
L 314.290248 103.043012 
L 315.629311 102.405752 
L 316.968375 101.813978 
L 318.307438 101.262987 
L 319.646501 100.748704 
L 320.985565 100.267579 
L 322.324628 99.816505 
L 323.663691 99.392752 
L 325.002755 98.99391 
L 326.341818 98.617846 
L 327.680882 98.262663 
L 329.019945 97.926668 
L 330.359008 97.608348 
L 331.698072 97.306343 
L 333.037135 97.019431 
L 334.376198 96.746507 
L 335.715262 96.486574 
L 337.054325 96.238725 
L 338.393388 96.002136 
L 339.732452 95.776058 
L 341.071515 95.559805 
L 342.410579 95.35275 
L 343.749642 95.154319 
L 345.088705 94.963983 
L 346.427769 94.781258 
L 347.766832 94.605696 
L 349.105895 94.436883 
L 350.444959 94.274439 
L 351.784022 94.118008 
L 353.123085 93.967264 
L 354.462149 93.821902 
L 355.801212 93.681638 
L 357.140275 93.546209 
L 358.479339 93.415369 
L 359.818402 93.288889 
L 361.157466 93.166555 
L 362.496529 93.048166 
L 363.835592 92.933534 
L 365.174656 92.822483 
L 366.513719 92.714847 
L 367.852782 92.610473 
L 369.191846 92.509213 
L 370.530909 92.410931 
L 371.869972 92.315496 
L 373.209036 92.222788 
L 374.548099 92.13269 
L 375.887163 92.045094 
L 377.226226 91.959897 
L 378.565289 91.877002 
L 379.904353 91.796318 
L 381.243416 91.717756 
L 382.582479 91.641234 
L 383.921543 91.566673 
L 385.260606 91.494 
L 386.599669 91.423143 
L 387.938733 91.354035 
L 389.277796 91.286613 
L 390.61686 91.220814 
L 391.955923 91.156582 
L 393.294986 91.093861 
L 394.63405 91.032598 
L 395.973113 90.972743 
L 397.312176 90.914248 
L 398.65124 90.857067 
L 399.990303 90.801157 
L 401.329366 90.746475 
L 402.66843 90.692982 
L 404.007493 90.640639 
L 405.346556 90.589409 
L 406.68562 90.539258 
L 408.024683 90.490151 
L 409.363747 90.442056 
L 410.70281 90.394943 
L 412.041873 90.348782 
L 413.380937 90.303543 
L 414.72 90.2592 
" clip-path="url(#p73e4601cc7)" style="fill: none; stroke: #9467bd; stroke-width: 1.5; stroke-linecap: square"/>
   </g>
   <g id="line2d_26">
    <path d="M 284.143291 346.6 
L 284.830854 308.709685 
L 286.169917 264.313756 
L 287.508981 234.666305 
L 288.848044 213.46493 
L 290.187107 197.550412 
L 291.526171 185.164452 
L 292.865234 175.25064 
L 294.204298 167.136 
L 295.543361 160.371504 
L 296.882424 154.646069 
L 298.221488 149.737362 
L 299.560551 145.482261 
L 300.899614 141.758369 
L 302.238678 138.472058 
L 303.577741 135.550478 
L 304.916804 132.936103 
L 306.255868 130.582899 
L 307.594931 128.453592 
L 308.933994 126.517679 
L 310.273058 124.749957 
L 311.612121 123.129421 
L 312.951185 121.638421 
L 314.290248 120.262024 
L 315.629311 118.987505 
L 316.968375 117.803956 
L 318.307438 116.701975 
L 319.646501 115.673409 
L 320.985565 114.711158 
L 322.324628 113.80901 
L 323.663691 112.961503 
L 325.002755 112.16382 
L 326.341818 111.411692 
L 327.680882 110.701326 
L 329.019945 110.029336 
L 330.359008 109.392696 
L 331.698072 108.788686 
L 333.037135 108.214862 
L 334.376198 107.669015 
L 335.715262 107.149148 
L 337.054325 106.65345 
L 338.393388 106.180273 
L 339.732452 105.728116 
L 341.071515 105.29561 
L 342.410579 104.8815 
L 343.749642 104.484637 
L 345.088705 104.103967 
L 346.427769 103.738517 
L 347.766832 103.387392 
L 349.105895 103.049767 
L 350.444959 102.724878 
L 351.784022 102.412017 
L 353.123085 102.110528 
L 354.462149 101.819803 
L 355.801212 101.539276 
L 357.140275 101.268418 
L 358.479339 101.006739 
L 359.818402 100.753779 
L 361.157466 100.50911 
L 362.496529 100.272332 
L 363.835592 100.043067 
L 365.174656 99.820965 
L 366.513719 99.605695 
L 367.852782 99.396946 
L 369.191846 99.194426 
L 370.530909 98.997861 
L 371.869972 98.806992 
L 373.209036 98.621575 
L 374.548099 98.441379 
L 375.887163 98.266188 
L 377.226226 98.095794 
L 378.565289 97.930005 
L 379.904353 97.768635 
L 381.243416 97.611511 
L 382.582479 97.458467 
L 383.921543 97.309347 
L 385.260606 97.164 
L 386.599669 97.022286 
L 387.938733 96.884071 
L 389.277796 96.749225 
L 390.61686 96.617628 
L 391.955923 96.489164 
L 393.294986 96.363722 
L 394.63405 96.241196 
L 395.973113 96.121486 
L 397.312176 96.004496 
L 398.65124 95.890135 
L 399.990303 95.778314 
L 401.329366 95.668951 
L 402.66843 95.561964 
L 404.007493 95.457278 
L 405.346556 95.354818 
L 406.68562 95.254515 
L 408.024683 95.156302 
L 409.363747 95.060113 
L 410.70281 94.965886 
L 412.041873 94.873563 
L 413.380937 94.783086 
L 414.72 94.6944 
" clip-path="url(#p73e4601cc7)" style="fill: none; stroke: #8c564b; stroke-width: 1.5; stroke-linecap: square"/>
   </g>
   <g id="line2d_27">
    <path d="M 286.379447 346.6 
L 287.508981 309.087458 
L 288.848044 277.285395 
L 290.187107 253.413618 
L 291.526171 234.834679 
L 292.865234 219.963959 
L 294.204298 207.792 
L 295.543361 197.645256 
L 296.882424 189.057103 
L 298.221488 181.694044 
L 299.560551 175.311391 
L 300.899614 169.725554 
L 302.238678 164.796086 
L 303.577741 160.413717 
L 304.916804 156.492155 
L 306.255868 152.962349 
L 307.594931 149.768388 
L 308.933994 146.864519 
L 310.273058 144.212936 
L 311.612121 141.782131 
L 312.951185 139.545631 
L 314.290248 137.481035 
L 315.629311 135.569257 
L 316.968375 133.793934 
L 318.307438 132.140962 
L 319.646501 130.598113 
L 320.985565 129.154737 
L 322.324628 127.801514 
L 323.663691 126.530255 
L 325.002755 125.33373 
L 326.341818 124.205538 
L 327.680882 123.139989 
L 329.019945 122.132004 
L 330.359008 121.177043 
L 331.698072 120.271029 
L 333.037135 119.410293 
L 334.376198 118.591522 
L 335.715262 117.811722 
L 337.054325 117.068175 
L 338.393388 116.358409 
L 339.732452 115.680174 
L 341.071515 115.031415 
L 342.410579 114.41025 
L 343.749642 113.814956 
L 345.088705 113.24395 
L 346.427769 112.695775 
L 347.766832 112.169088 
L 349.105895 111.66265 
L 350.444959 111.175316 
L 351.784022 110.706025 
L 353.123085 110.253792 
L 354.462149 109.817705 
L 355.801212 109.396913 
L 357.140275 108.990627 
L 358.479339 108.598108 
L 359.818402 108.218668 
L 361.157466 107.851666 
L 362.496529 107.496498 
L 363.835592 107.152601 
L 365.174656 106.819448 
L 366.513719 106.496542 
L 367.852782 106.183419 
L 369.191846 105.879639 
L 370.530909 105.584792 
L 371.869972 105.298488 
L 373.209036 105.020363 
L 374.548099 104.750069 
L 375.887163 104.487281 
L 377.226226 104.231691 
L 378.565289 103.983007 
L 379.904353 103.740953 
L 381.243416 103.505267 
L 382.582479 103.275701 
L 383.921543 103.05202 
L 385.260606 102.834 
L 386.599669 102.621429 
L 387.938733 102.414106 
L 389.277796 102.211838 
L 390.61686 102.014442 
L 391.955923 101.821746 
L 393.294986 101.633582 
L 394.63405 101.449794 
L 395.973113 101.270229 
L 397.312176 101.094744 
L 398.65124 100.923202 
L 399.990303 100.755471 
L 401.329366 100.591426 
L 402.66843 100.430946 
L 404.007493 100.273917 
L 405.346556 100.120227 
L 406.68562 99.969773 
L 408.024683 99.822453 
L 409.363747 99.678169 
L 410.70281 99.536829 
L 412.041873 99.398345 
L 413.380937 99.262629 
L 414.72 99.1296 
" clip-path="url(#p73e4601cc7)" style="fill: none; stroke: #e377c2; stroke-width: 1.5; stroke-linecap: square"/>
   </g>
   <g id="line2d_28">
    <path d="M 288.674541 346.6 
L 288.848044 341.10586 
L 290.187107 309.276824 
L 291.526171 284.504905 
L 292.865234 264.677279 
L 294.204298 248.448 
L 295.543361 234.919008 
L 296.882424 223.468138 
L 298.221488 213.650725 
L 299.560551 205.140522 
L 300.899614 197.692739 
L 302.238678 191.120115 
L 303.577741 185.276956 
L 304.916804 180.048206 
L 306.255868 175.341798 
L 307.594931 171.083184 
L 308.933994 167.211359 
L 310.273058 163.675915 
L 311.612121 160.434841 
L 312.951185 157.452842 
L 314.290248 154.700047 
L 315.629311 152.151009 
L 316.968375 149.783913 
L 318.307438 147.579949 
L 319.646501 145.522817 
L 320.985565 143.598316 
L 322.324628 141.794019 
L 323.663691 140.099006 
L 325.002755 138.50364 
L 326.341818 136.999385 
L 327.680882 135.578652 
L 329.019945 134.234673 
L 330.359008 132.961391 
L 331.698072 131.753372 
L 333.037135 130.605724 
L 334.376198 129.51403 
L 335.715262 128.474296 
L 337.054325 127.482899 
L 338.393388 126.536545 
L 339.732452 125.632232 
L 341.071515 124.76722 
L 342.410579 123.939 
L 343.749642 123.145275 
L 345.088705 122.383933 
L 346.427769 121.653033 
L 347.766832 120.950784 
L 349.105895 120.275534 
L 350.444959 119.625755 
L 351.784022 119.000033 
L 353.123085 118.397056 
L 354.462149 117.815607 
L 355.801212 117.254551 
L 357.140275 116.712836 
L 358.479339 116.189477 
L 359.818402 115.683558 
L 361.157466 115.194221 
L 362.496529 114.720663 
L 363.835592 114.262135 
L 365.174656 113.817931 
L 366.513719 113.38739 
L 367.852782 112.969892 
L 369.191846 112.564853 
L 370.530909 112.171723 
L 371.869972 111.789985 
L 373.209036 111.41915 
L 374.548099 111.058759 
L 375.887163 110.708375 
L 377.226226 110.367589 
L 378.565289 110.03601 
L 379.904353 109.713271 
L 381.243416 109.399023 
L 382.582479 109.092935 
L 383.921543 108.794693 
L 385.260606 108.504 
L 386.599669 108.220572 
L 387.938733 107.944141 
L 389.277796 107.67445 
L 390.61686 107.411257 
L 391.955923 107.154328 
L 393.294986 106.903443 
L 394.63405 106.658391 
L 395.973113 106.418972 
L 397.312176 106.184992 
L 398.65124 105.95627 
L 399.990303 105.732628 
L 401.329366 105.513901 
L 402.66843 105.299928 
L 404.007493 105.090556 
L 405.346556 104.885637 
L 406.68562 104.685031 
L 408.024683 104.488604 
L 409.363747 104.296225 
L 410.70281 104.107773 
L 412.041873 103.923126 
L 413.380937 103.742172 
L 414.72 103.5648 
" clip-path="url(#p73e4601cc7)" style="fill: none; stroke: #7f7f7f; stroke-width: 1.5; stroke-linecap: square"/>
   </g>
   <g id="line2d_29">
    <path d="M 282.152727 276.193115 
L 283.491791 202.854322 
L 284.830854 168.620302 
L 286.169917 149.106495 
L 287.508981 136.620108 
L 288.848044 128.001357 
L 290.187107 121.724466 
L 291.526171 116.966547 
L 292.865234 113.246464 
L 294.204298 110.264981 
L 295.543361 107.826679 
L 296.882424 105.798782 
L 298.221488 104.088064 
L 299.560551 102.627236 
L 300.899614 101.366569 
L 302.238678 100.268555 
L 303.577741 99.304395 
L 304.916804 98.451629 
L 306.255868 97.692493 
L 307.594931 97.012762 
L 308.933994 96.400918 
L 310.273058 95.847539 
L 311.612121 95.344846 
L 312.951185 94.886366 
L 314.290248 94.466666 
L 315.629311 94.081158 
L 316.968375 93.72594 
L 318.307438 93.397673 
L 319.646501 93.093487 
L 320.985565 92.810897 
L 322.324628 92.547746 
L 323.663691 92.302151 
L 325.002755 92.07246 
L 326.341818 91.85722 
L 327.680882 91.655147 
L 329.019945 91.465102 
L 330.359008 91.286073 
L 331.698072 91.117156 
L 333.037135 90.957543 
L 334.376198 90.806506 
L 335.715262 90.663393 
L 337.054325 90.527614 
L 338.393388 90.398634 
L 339.732452 90.275972 
L 341.071515 90.159186 
L 342.410579 90.047877 
L 343.749642 89.94168 
L 345.088705 89.840259 
L 346.427769 89.74331 
L 347.766832 89.650552 
L 349.105895 89.561727 
L 350.444959 89.476597 
L 351.784022 89.394942 
L 353.123085 89.316561 
L 354.462149 89.241266 
L 355.801212 89.168885 
L 357.140275 89.099255 
L 358.479339 89.032227 
L 359.818402 88.967664 
L 361.157466 88.905434 
L 362.496529 88.845419 
L 363.835592 88.787504 
L 365.174656 88.731586 
L 366.513719 88.677564 
L 367.852782 88.625349 
L 369.191846 88.574852 
L 370.530909 88.525994 
L 371.869972 88.478697 
L 373.209036 88.432891 
L 374.548099 88.388509 
L 375.887163 88.345486 
L 377.226226 88.303764 
L 378.565289 88.263285 
L 379.904353 88.223997 
L 381.243416 88.18585 
L 382.582479 88.148796 
L 383.921543 88.11279 
L 385.260606 88.077789 
L 386.599669 88.043754 
L 387.938733 88.010646 
L 389.277796 87.97843 
L 390.61686 87.947069 
L 391.955923 87.916533 
L 393.294986 87.886789 
L 394.63405 87.857808 
L 395.973113 87.829563 
L 397.312176 87.802026 
L 398.65124 87.775171 
L 399.990303 87.748976 
L 401.329366 87.723415 
L 402.66843 87.698468 
L 404.007493 87.674113 
L 405.346556 87.650329 
L 406.68562 87.627098 
L 408.024683 87.604401 
L 409.363747 87.582221 
L 410.70281 87.56054 
L 412.041873 87.539343 
L 413.380937 87.518613 
L 414.72 87.498337 
" clip-path="url(#p73e4601cc7)" style="fill: none; stroke: #bcbd22; stroke-width: 1.5; stroke-linecap: square"/>
   </g>
   <g id="line2d_30">
    <path d="M 283.247898 346.6 
L 283.491791 319.884644 
L 284.830854 251.416605 
L 286.169917 212.388991 
L 287.508981 187.416216 
L 288.848044 170.178714 
L 290.187107 157.624933 
L 291.526171 148.109094 
L 292.865234 140.668927 
L 294.204298 134.705961 
L 295.543361 129.829359 
L 296.882424 125.773565 
L 298.221488 122.352128 
L 299.560551 119.430471 
L 300.899614 116.909137 
L 302.238678 114.713109 
L 303.577741 112.78479 
L 304.916804 111.079258 
L 306.255868 109.560986 
L 307.594931 108.201524 
L 308.933994 106.977836 
L 310.273058 105.871077 
L 311.612121 104.865693 
L 312.951185 103.948732 
L 314.290248 103.109333 
L 315.629311 102.338317 
L 316.968375 101.62788 
L 318.307438 100.971346 
L 319.646501 100.362973 
L 320.985565 99.797794 
L 322.324628 99.271492 
L 323.663691 98.780302 
L 325.002755 98.32092 
L 326.341818 97.89044 
L 327.680882 97.486294 
L 329.019945 97.106204 
L 330.359008 96.748147 
L 331.698072 96.410313 
L 333.037135 96.091086 
L 334.376198 95.789012 
L 335.715262 95.502786 
L 337.054325 95.231227 
L 338.393388 94.973269 
L 339.732452 94.727944 
L 341.071515 94.494372 
L 342.410579 94.271754 
L 343.749642 94.059359 
L 345.088705 93.856519 
L 346.427769 93.662621 
L 347.766832 93.477105 
L 349.105895 93.299454 
L 350.444959 93.129193 
L 351.784022 92.965884 
L 353.123085 92.809122 
L 354.462149 92.658533 
L 355.801212 92.513769 
L 357.140275 92.374509 
L 358.479339 92.240455 
L 359.818402 92.111328 
L 361.157466 91.986869 
L 362.496529 91.866838 
L 363.835592 91.751008 
L 365.174656 91.639171 
L 366.513719 91.531129 
L 367.852782 91.426698 
L 369.191846 91.325705 
L 370.530909 91.227988 
L 371.869972 91.133395 
L 373.209036 91.041783 
L 374.548099 90.953018 
L 375.887163 90.866972 
L 377.226226 90.783527 
L 378.565289 90.70257 
L 379.904353 90.623994 
L 381.243416 90.5477 
L 382.582479 90.473591 
L 383.921543 90.401579 
L 385.260606 90.331579 
L 386.599669 90.263509 
L 387.938733 90.197293 
L 389.277796 90.132859 
L 390.61686 90.070138 
L 391.955923 90.009065 
L 393.294986 89.949578 
L 394.63405 89.891617 
L 395.973113 89.835126 
L 397.312176 89.780051 
L 398.65124 89.726343 
L 399.990303 89.673951 
L 401.329366 89.62283 
L 402.66843 89.572936 
L 404.007493 89.524225 
L 405.346556 89.476658 
L 406.68562 89.430196 
L 408.024683 89.384803 
L 409.363747 89.340442 
L 410.70281 89.29708 
L 412.041873 89.254686 
L 413.380937 89.213226 
L 414.72 89.172673 
" clip-path="url(#p73e4601cc7)" style="fill: none; stroke: #17becf; stroke-width: 1.5; stroke-linecap: square"/>
   </g>
   <g id="line2d_31">
    <path d="M 284.669347 346.6 
L 284.830854 334.212907 
L 286.169917 275.671486 
L 287.508981 238.212324 
L 288.848044 212.356071 
L 290.187107 193.525399 
L 291.526171 179.251641 
L 292.865234 168.091391 
L 294.204298 159.146942 
L 295.543361 151.832038 
L 296.882424 145.748347 
L 298.221488 140.616192 
L 299.560551 136.233707 
L 300.899614 132.451706 
L 302.238678 129.157664 
L 303.577741 126.265186 
L 304.916804 123.706888 
L 306.255868 121.429479 
L 307.594931 119.390286 
L 308.933994 117.554753 
L 310.273058 115.894616 
L 311.612121 114.386539 
L 312.951185 113.011099 
L 314.290248 111.751999 
L 315.629311 110.595475 
L 316.968375 109.52982 
L 318.307438 108.54502 
L 319.646501 107.63246 
L 320.985565 106.784691 
L 322.324628 105.995239 
L 323.663691 105.258453 
L 325.002755 104.56938 
L 326.341818 103.92366 
L 327.680882 103.31744 
L 329.019945 102.747306 
L 330.359008 102.21022 
L 331.698072 101.703469 
L 333.037135 101.224628 
L 334.376198 100.771519 
L 335.715262 100.342179 
L 337.054325 99.934841 
L 338.393388 99.547903 
L 339.732452 99.179916 
L 341.071515 98.829559 
L 342.410579 98.495632 
L 343.749642 98.177039 
L 345.088705 97.872778 
L 346.427769 97.581931 
L 347.766832 97.303657 
L 349.105895 97.037181 
L 350.444959 96.78179 
L 351.784022 96.536826 
L 353.123085 96.301683 
L 354.462149 96.075799 
L 355.801212 95.858654 
L 357.140275 95.649764 
L 358.479339 95.448682 
L 359.818402 95.254991 
L 361.157466 95.068303 
L 362.496529 94.888256 
L 363.835592 94.714513 
L 365.174656 94.546757 
L 366.513719 94.384693 
L 367.852782 94.228046 
L 369.191846 94.076557 
L 370.530909 93.929981 
L 371.869972 93.788092 
L 373.209036 93.650674 
L 374.548099 93.517526 
L 375.887163 93.388458 
L 377.226226 93.263291 
L 378.565289 93.141855 
L 379.904353 93.023991 
L 381.243416 92.909549 
L 382.582479 92.798387 
L 383.921543 92.690369 
L 385.260606 92.585368 
L 386.599669 92.483263 
L 387.938733 92.383939 
L 389.277796 92.287289 
L 390.61686 92.193207 
L 391.955923 92.101598 
L 393.294986 92.012366 
L 394.63405 91.925425 
L 395.973113 91.840688 
L 397.312176 91.758077 
L 398.65124 91.677514 
L 399.990303 91.598927 
L 401.329366 91.522245 
L 402.66843 91.447403 
L 404.007493 91.374338 
L 405.346556 91.302987 
L 406.68562 91.233295 
L 408.024683 91.165204 
L 409.363747 91.098663 
L 410.70281 91.033621 
L 412.041873 90.970028 
L 413.380937 90.90784 
L 414.72 90.84701 
" clip-path="url(#p73e4601cc7)" style="fill: none; stroke: #1f77b4; stroke-width: 1.5; stroke-linecap: square"/>
   </g>
   <g id="line2d_32">
    <path d="M 286.038747 346.6 
L 286.169917 338.953982 
L 287.508981 289.008431 
L 288.848044 254.533427 
L 290.187107 229.425865 
L 291.526171 210.394188 
L 292.865234 195.513855 
L 294.204298 183.587922 
L 295.543361 173.834717 
L 296.882424 165.723129 
L 298.221488 158.880257 
L 299.560551 153.036943 
L 300.899614 147.994274 
L 302.238678 143.602218 
L 303.577741 139.745581 
L 304.916804 136.334517 
L 306.255868 133.297972 
L 307.594931 130.579048 
L 308.933994 128.131671 
L 310.273058 125.918154 
L 311.612121 123.907385 
L 312.951185 122.073465 
L 314.290248 120.394666 
L 315.629311 118.852633 
L 316.968375 117.43176 
L 318.307438 116.118693 
L 319.646501 114.901947 
L 320.985565 113.771588 
L 322.324628 112.718985 
L 323.663691 111.736604 
L 325.002755 110.81784 
L 326.341818 109.95688 
L 327.680882 109.148587 
L 329.019945 108.388409 
L 330.359008 107.672293 
L 331.698072 106.996626 
L 333.037135 106.358171 
L 334.376198 105.754025 
L 335.715262 105.181572 
L 337.054325 104.638455 
L 338.393388 104.122538 
L 339.732452 103.631887 
L 341.071515 103.164745 
L 342.410579 102.719509 
L 343.749642 102.294718 
L 345.088705 101.889037 
L 346.427769 101.501242 
L 347.766832 101.13021 
L 349.105895 100.774908 
L 350.444959 100.434386 
L 351.784022 100.107768 
L 353.123085 99.794244 
L 354.462149 99.493066 
L 355.801212 99.203538 
L 357.140275 98.925019 
L 358.479339 98.65691 
L 359.818402 98.398655 
L 361.157466 98.149738 
L 362.496529 97.909675 
L 363.835592 97.678017 
L 365.174656 97.454342 
L 366.513719 97.238258 
L 367.852782 97.029395 
L 369.191846 96.827409 
L 370.530909 96.631975 
L 371.869972 96.442789 
L 373.209036 96.259566 
L 374.548099 96.082035 
L 375.887163 95.909944 
L 377.226226 95.743054 
L 378.565289 95.58114 
L 379.904353 95.423988 
L 381.243416 95.271399 
L 382.582479 95.123183 
L 383.921543 94.979158 
L 385.260606 94.839157 
L 386.599669 94.703017 
L 387.938733 94.570586 
L 389.277796 94.441718 
L 390.61686 94.316276 
L 391.955923 94.19413 
L 393.294986 94.075155 
L 394.63405 93.959233 
L 395.973113 93.846251 
L 397.312176 93.736103 
L 398.65124 93.628686 
L 399.990303 93.523903 
L 401.329366 93.421661 
L 402.66843 93.321871 
L 404.007493 93.22445 
L 405.346556 93.129316 
L 406.68562 93.036393 
L 408.024683 92.945606 
L 409.363747 92.856884 
L 410.70281 92.770161 
L 412.041873 92.685371 
L 413.380937 92.602453 
L 414.72 92.521347 
" clip-path="url(#p73e4601cc7)" style="fill: none; stroke: #ff7f0e; stroke-width: 1.5; stroke-linecap: square"/>
   </g>
   <g id="line2d_33">
    <path d="M 282.152727 251.762371 
L 283.491791 178.82436 
L 284.830854 147.431011 
L 286.169917 130.565954 
L 287.508981 120.268335 
L 288.848044 113.430881 
L 290.187107 108.613575 
L 291.526171 105.066143 
L 292.865234 102.362806 
L 294.204298 100.245635 
L 295.543361 98.550104 
L 296.882424 97.166786 
L 298.221488 96.020328 
L 299.560551 95.057311 
L 300.899614 94.238905 
L 302.238678 93.536273 
L 303.577741 92.927593 
L 304.916804 92.396076 
L 306.255868 91.928613 
L 307.594931 91.514834 
L 308.933994 91.146438 
L 310.273058 90.816711 
L 311.612121 90.520166 
L 312.951185 90.252282 
L 314.290248 90.009302 
L 315.629311 89.788084 
L 316.968375 89.585975 
L 318.307438 89.400729 
L 319.646501 89.230428 
L 320.985565 89.073427 
L 322.324628 88.928306 
L 323.663691 88.793836 
L 325.002755 88.668947 
L 326.341818 88.552705 
L 327.680882 88.444289 
L 329.019945 88.342975 
L 330.359008 88.248125 
L 331.698072 88.159172 
L 333.037135 88.075613 
L 334.376198 87.996997 
L 335.715262 87.922922 
L 337.054325 87.853027 
L 338.393388 87.786986 
L 339.732452 87.724507 
L 341.071515 87.665325 
L 342.410579 87.609199 
L 343.749642 87.555912 
L 345.088705 87.505266 
L 346.427769 87.457079 
L 347.766832 87.411186 
L 349.105895 87.367437 
L 350.444959 87.325693 
L 351.784022 87.285826 
L 353.123085 87.247721 
L 354.462149 87.211268 
L 355.801212 87.17637 
L 357.140275 87.142933 
L 358.479339 87.110874 
L 359.818402 87.080113 
L 361.157466 87.050577 
L 362.496529 87.0222 
L 363.835592 86.994917 
L 365.174656 86.968671 
L 366.513719 86.943406 
L 367.852782 86.919072 
L 369.191846 86.89562 
L 370.530909 86.873008 
L 371.869972 86.851192 
L 373.209036 86.830134 
L 374.548099 86.809797 
L 375.887163 86.790147 
L 377.226226 86.771151 
L 378.565289 86.75278 
L 379.904353 86.735005 
L 381.243416 86.717799 
L 382.582479 86.701136 
L 383.921543 86.684992 
L 385.260606 86.669346 
L 386.599669 86.654176 
L 387.938733 86.639461 
L 389.277796 86.625183 
L 390.61686 86.611323 
L 391.955923 86.597865 
L 393.294986 86.584792 
L 394.63405 86.572089 
L 395.973113 86.559741 
L 397.312176 86.547734 
L 398.65124 86.536056 
L 399.990303 86.524694 
L 401.329366 86.513635 
L 402.66843 86.502869 
L 404.007493 86.492385 
L 405.346556 86.482172 
L 406.68562 86.472221 
L 408.024683 86.462522 
L 409.363747 86.453066 
L 410.70281 86.443845 
L 412.041873 86.434851 
L 413.380937 86.426076 
L 414.72 86.417513 
" clip-path="url(#p73e4601cc7)" style="fill: none; stroke: #2ca02c; stroke-width: 1.5; stroke-linecap: square"/>
   </g>
   <g id="line2d_34">
    <path d="M 282.805394 346.6 
L 283.491791 271.824721 
L 284.830854 209.038021 
L 286.169917 175.307908 
L 287.508981 154.712669 
L 288.848044 141.037762 
L 290.187107 131.40315 
L 291.526171 124.308286 
L 292.865234 118.901612 
L 294.204298 114.667269 
L 295.543361 111.276209 
L 296.882424 108.509571 
L 298.221488 106.216656 
L 299.560551 104.290621 
L 300.899614 102.653809 
L 302.238678 101.248546 
L 303.577741 100.031187 
L 304.916804 98.968152 
L 306.255868 98.033226 
L 307.594931 97.205667 
L 308.933994 96.468876 
L 310.273058 95.809421 
L 311.612121 95.216331 
L 312.951185 94.680563 
L 314.290248 94.194605 
L 315.629311 93.752167 
L 316.968375 93.34795 
L 318.307438 92.977459 
L 319.646501 92.636857 
L 320.985565 92.322853 
L 322.324628 92.032611 
L 323.663691 91.763672 
L 325.002755 91.513895 
L 326.341818 91.28141 
L 327.680882 91.064577 
L 329.019945 90.861949 
L 330.359008 90.67225 
L 331.698072 90.494345 
L 333.037135 90.327226 
L 334.376198 90.169995 
L 335.715262 90.021845 
L 337.054325 89.882054 
L 338.393388 89.749973 
L 339.732452 89.625015 
L 341.071515 89.50665 
L 342.410579 89.394399 
L 343.749642 89.287825 
L 345.088705 89.186532 
L 346.427769 89.090158 
L 347.766832 88.998372 
L 349.105895 88.910874 
L 350.444959 88.827386 
L 351.784022 88.747653 
L 353.123085 88.671442 
L 354.462149 88.598537 
L 355.801212 88.52874 
L 357.140275 88.461867 
L 358.479339 88.397748 
L 359.818402 88.336226 
L 361.157466 88.277155 
L 362.496529 88.2204 
L 363.835592 88.165834 
L 365.174656 88.113342 
L 366.513719 88.062812 
L 367.852782 88.014143 
L 369.191846 87.967241 
L 370.530909 87.922015 
L 371.869972 87.878383 
L 373.209036 87.836267 
L 374.548099 87.795594 
L 375.887163 87.756294 
L 377.226226 87.718303 
L 378.565289 87.681561 
L 379.904353 87.64601 
L 381.243416 87.611597 
L 382.582479 87.578271 
L 383.921543 87.545985 
L 385.260606 87.514692 
L 386.599669 87.484352 
L 387.938733 87.454922 
L 389.277796 87.426365 
L 390.61686 87.398646 
L 391.955923 87.371729 
L 393.294986 87.345583 
L 394.63405 87.320177 
L 395.973113 87.295481 
L 397.312176 87.271468 
L 398.65124 87.248112 
L 399.990303 87.225387 
L 401.329366 87.20327 
L 402.66843 87.181738 
L 404.007493 87.160769 
L 405.346556 87.140344 
L 406.68562 87.120441 
L 408.024683 87.101043 
L 409.363747 87.082132 
L 410.70281 87.063691 
L 412.041873 87.045703 
L 413.380937 87.028153 
L 414.72 87.011025 
" clip-path="url(#p73e4601cc7)" style="fill: none; stroke: #d62728; stroke-width: 1.5; stroke-linecap: square"/>
   </g>
   <g id="line2d_35">
    <path d="M 283.750917 346.6 
L 284.830854 270.645032 
L 286.169917 220.049862 
L 287.508981 189.157004 
L 288.848044 168.644643 
L 290.187107 154.192725 
L 291.526171 143.550428 
L 292.865234 135.440418 
L 294.204298 129.088904 
L 295.543361 124.002313 
L 296.882424 119.852357 
L 298.221488 116.412984 
L 299.560551 113.523932 
L 300.899614 111.068714 
L 302.238678 108.960819 
L 303.577741 107.13478 
L 304.916804 105.540228 
L 306.255868 104.137839 
L 307.594931 102.896501 
L 308.933994 101.791314 
L 310.273058 100.802132 
L 311.612121 99.912497 
L 312.951185 99.108845 
L 314.290248 98.379907 
L 315.629311 97.716251 
L 316.968375 97.109926 
L 318.307438 96.554188 
L 319.646501 96.043285 
L 320.985565 95.57228 
L 322.324628 95.136917 
L 323.663691 94.733507 
L 325.002755 94.358842 
L 326.341818 94.010115 
L 327.680882 93.684866 
L 329.019945 93.380924 
L 330.359008 93.096375 
L 331.698072 92.829517 
L 333.037135 92.578839 
L 334.376198 92.342992 
L 335.715262 92.120767 
L 337.054325 91.911081 
L 338.393388 91.712959 
L 339.732452 91.525522 
L 341.071515 91.347975 
L 342.410579 91.179598 
L 343.749642 91.019737 
L 345.088705 90.867797 
L 346.427769 90.723236 
L 347.766832 90.585559 
L 349.105895 90.454311 
L 350.444959 90.329079 
L 351.784022 90.209479 
L 353.123085 90.095163 
L 354.462149 89.985805 
L 355.801212 89.88111 
L 357.140275 89.7808 
L 358.479339 89.684621 
L 359.818402 89.592339 
L 361.157466 89.503732 
L 362.496529 89.4186 
L 363.835592 89.336752 
L 365.174656 89.258012 
L 366.513719 89.182218 
L 367.852782 89.109215 
L 369.191846 89.038861 
L 370.530909 88.971023 
L 371.869972 88.905575 
L 373.209036 88.842401 
L 374.548099 88.78139 
L 375.887163 88.72244 
L 377.226226 88.665454 
L 378.565289 88.610341 
L 379.904353 88.557015 
L 381.243416 88.505396 
L 382.582479 88.455407 
L 383.921543 88.406977 
L 385.260606 88.360039 
L 386.599669 88.314527 
L 387.938733 88.270383 
L 389.277796 88.227548 
L 390.61686 88.185969 
L 391.955923 88.145594 
L 393.294986 88.106375 
L 394.63405 88.068266 
L 395.973113 88.031222 
L 397.312176 87.995203 
L 398.65124 87.960168 
L 399.990303 87.926081 
L 401.329366 87.892905 
L 402.66843 87.860607 
L 404.007493 87.829154 
L 405.346556 87.798515 
L 406.68562 87.768662 
L 408.024683 87.739565 
L 409.363747 87.711198 
L 410.70281 87.683536 
L 412.041873 87.656554 
L 413.380937 87.630229 
L 414.72 87.604538 
" clip-path="url(#p73e4601cc7)" style="fill: none; stroke: #9467bd; stroke-width: 1.5; stroke-linecap: square"/>
   </g>
   <g id="line2d_36">
    <path d="M 284.677853 346.6 
L 284.830854 332.252042 
L 286.169917 264.791816 
L 287.508981 223.601338 
L 288.848044 196.251524 
L 290.187107 176.982301 
L 291.526171 162.792571 
L 292.865234 151.979224 
L 294.204298 143.510538 
L 295.543361 136.728417 
L 296.882424 131.195142 
L 298.221488 126.609312 
L 299.560551 122.757243 
L 300.899614 119.483618 
L 302.238678 116.673092 
L 303.577741 114.238373 
L 304.916804 112.112305 
L 306.255868 110.242452 
L 307.594931 108.587335 
L 308.933994 107.113752 
L 310.273058 105.794843 
L 311.612121 104.608662 
L 312.951185 103.537126 
L 314.290248 102.565209 
L 315.629311 101.680334 
L 316.968375 100.871901 
L 318.307438 100.130918 
L 319.646501 99.449713 
L 320.985565 98.821707 
L 322.324628 98.241222 
L 323.663691 97.703343 
L 325.002755 97.20379 
L 326.341818 96.738821 
L 327.680882 96.305154 
L 329.019945 95.899899 
L 330.359008 95.5205 
L 331.698072 95.164689 
L 333.037135 94.830452 
L 334.376198 94.515989 
L 335.715262 94.219689 
L 337.054325 93.940108 
L 338.393388 93.675946 
L 339.732452 93.42603 
L 341.071515 93.1893 
L 342.410579 92.964798 
L 343.749642 92.75165 
L 345.088705 92.549063 
L 346.427769 92.356315 
L 347.766832 92.172745 
L 349.105895 91.997748 
L 350.444959 91.830772 
L 351.784022 91.671306 
L 353.123085 91.518884 
L 354.462149 91.373074 
L 355.801212 91.233479 
L 357.140275 91.099733 
L 358.479339 90.971495 
L 359.818402 90.848451 
L 361.157466 90.73031 
L 362.496529 90.6168 
L 363.835592 90.507669 
L 365.174656 90.402683 
L 366.513719 90.301624 
L 367.852782 90.204287 
L 369.191846 90.110482 
L 370.530909 90.020031 
L 371.869972 89.932767 
L 373.209036 89.848535 
L 374.548099 89.767187 
L 375.887163 89.688587 
L 377.226226 89.612606 
L 378.565289 89.539121 
L 379.904353 89.46802 
L 381.243416 89.399194 
L 382.582479 89.332543 
L 383.921543 89.26797 
L 385.260606 89.205385 
L 386.599669 89.144703 
L 387.938733 89.085844 
L 389.277796 89.028731 
L 390.61686 88.973292 
L 391.955923 88.919459 
L 393.294986 88.867167 
L 394.63405 88.816354 
L 395.973113 88.766963 
L 397.312176 88.718937 
L 398.65124 88.672224 
L 399.990303 88.626774 
L 401.329366 88.58254 
L 402.66843 88.539476 
L 404.007493 88.497539 
L 405.346556 88.456687 
L 406.68562 88.416882 
L 408.024683 88.378087 
L 409.363747 88.340264 
L 410.70281 88.303382 
L 412.041873 88.267406 
L 413.380937 88.232305 
L 414.72 88.198051 
" clip-path="url(#p73e4601cc7)" style="fill: none; stroke: #8c564b; stroke-width: 1.5; stroke-linecap: square"/>
   </g>
   <g id="patch_8">
    <path d="M 252.392727 307.584 
L 252.392727 41.472 
" style="fill: none; stroke: #000000; stroke-width: 0.8; stroke-linejoin: miter; stroke-linecap: square"/>
   </g>
   <g id="patch_9">
    <path d="M 414.72 307.584 
L 414.72 41.472 
" style="fill: none; stroke: #000000; stroke-width: 0.8; stroke-linejoin: miter; stroke-linecap: square"/>
   </g>
   <g id="patch_10">
    <path d="M 252.392727 307.584 
L 414.72 307.584 
" style="fill: none; stroke: #000000; stroke-width: 0.8; stroke-linejoin: miter; stroke-linecap: square"/>
   </g>
   <g id="patch_11">
    <path d="M 252.392727 41.472 
L 414.72 41.472 
" style="fill: none; stroke: #000000; stroke-width: 0.8; stroke-linejoin: miter; stroke-linecap: square"/>
   </g>
  </g>
  <g id="text_21">
   <!-- t = 0.8999999999999999 -->
   <g transform="translate(152.401875 16.030125) scale(0.12 -0.12)">
    <defs>
     <path id="DejaVuSans-74" d="M 1172 4494 
L 1172 3500 
L 2356 3500 
L 2356 3053 
L 1172 3053 
L 1172 1153 
Q 1172 725 1289 603 
Q 1406 481 1766 481 
L 2356 481 
L 2356 0 
L 1766 0 
Q 1100 0 847 248 
Q 594 497 594 1153 
L 594 3053 
L 172 3053 
L 172 3500 
L 594 3500 
L 594 4494 
L 1172 4494 
z
" transform="scale(0.015625)"/>
     <path id="DejaVuSans-20" transform="scale(0.015625)"/>
     <path id="DejaVuSans-3d" d="M 678 2906 
L 4684 2906 
L 4684 2381 
L 678 2381 
L 678 2906 
z
M 678 1631 
L 4684 1631 
L 4684 1100 
L 678 1100 
L 678 1631 
z
" transform="scale(0.015625)"/>
     <path id="DejaVuSans-38" d="M 2034 2216 
Q 1584 2216 1326 1975 
Q 1069 1734 1069 1313 
Q 1069 891 1326 650 
Q 1584 409 2034 409 
Q 2484 409 2743 651 
Q 3003 894 3003 1313 
Q 3003 1734 2745 1975 
Q 2488 2216 2034 2216 
z
M 1403 2484 
Q 997 2584 770 2862 
Q 544 3141 544 3541 
Q 544 4100 942 4425 
Q 1341 4750 2034 4750 
Q 2731 4750 3128 4425 
Q 3525 4100 3525 3541 
Q 3525 3141 3298 2862 
Q 3072 2584 2669 2484 
Q 3125 2378 3379 2068 
Q 3634 1759 3634 1313 
Q 3634 634 3220 271 
Q 2806 -91 2034 -91 
Q 1263 -91 848 271 
Q 434 634 434 1313 
Q 434 1759 690 2068 
Q 947 2378 1403 2484 
z
M 1172 3481 
Q 1172 3119 1398 2916 
Q 1625 2713 2034 2713 
Q 2441 2713 2670 2916 
Q 2900 3119 2900 3481 
Q 2900 3844 2670 4047 
Q 2441 4250 2034 4250 
Q 1625 4250 1398 4047 
Q 1172 3844 1172 3481 
z
" transform="scale(0.015625)"/>
     <path id="DejaVuSans-39" d="M 703 97 
L 703 672 
Q 941 559 1184 500 
Q 1428 441 1663 441 
Q 2288 441 2617 861 
Q 2947 1281 2994 2138 
Q 2813 1869 2534 1725 
Q 2256 1581 1919 1581 
Q 1219 1581 811 2004 
Q 403 2428 403 3163 
Q 403 3881 828 4315 
Q 1253 4750 1959 4750 
Q 2769 4750 3195 4129 
Q 3622 3509 3622 2328 
Q 3622 1225 3098 567 
Q 2575 -91 1691 -91 
Q 1453 -91 1209 -44 
Q 966 3 703 97 
z
M 1959 2075 
Q 2384 2075 2632 2365 
Q 2881 2656 2881 3163 
Q 2881 3666 2632 3958 
Q 2384 4250 1959 4250 
Q 1534 4250 1286 3958 
Q 1038 3666 1038 3163 
Q 1038 2656 1286 2365 
Q 1534 2075 1959 2075 
z
" transform="scale(0.015625)"/>
    </defs>
    <use xlink:href="#DejaVuSans-74"/>
    <use xlink:href="#DejaVuSans-20" x="39.208984"/>
    <use xlink:href="#DejaVuSans-3d" x="70.996094"/>
    <use xlink:href="#DejaVuSans-20" x="154.785156"/>
    <use xlink:href="#DejaVuSans-30" x="186.572266"/>
    <use xlink:href="#DejaVuSans-2e" x="250.195312"/>
    <use xlink:href="#DejaVuSans-38" x="281.982422"/>
    <use xlink:href="#DejaVuSans-39" x="345.605469"/>
    <use xlink:href="#DejaVuSans-39" x="409.228516"/>
    <use xlink:href="#DejaVuSans-39" x="472.851562"/>
    <use xlink:href="#DejaVuSans-39" x="536.474609"/>
    <use xlink:href="#DejaVuSans-39" x="600.097656"/>
    <use xlink:href="#DejaVuSans-39" x="663.720703"/>
    <use xlink:href="#DejaVuSans-39" x="727.34375"/>
    <use xlink:href="#DejaVuSans-39" x="790.966797"/>
    <use xlink:href="#DejaVuSans-39" x="854.589844"/>
    <use xlink:href="#DejaVuSans-39" x="918.212891"/>
    <use xlink:href="#DejaVuSans-39" x="981.835938"/>
    <use xlink:href="#DejaVuSans-39" x="1045.458984"/>
    <use xlink:href="#DejaVuSans-39" x="1109.082031"/>
    <use xlink:href="#DejaVuSans-39" x="1172.705078"/>
    <use xlink:href="#DejaVuSans-39" x="1236.328125"/>
   </g>
  </g>
 </g>
 <defs>
  <clipPath id="p01e910d571">
   <rect x="57.6" y="41.472" width="162.327273" height="266.112"/>
  </clipPath>
  <clipPath id="p73e4601cc7">
   <rect x="252.392727" y="41.472" width="162.327273" height="266.112"/>
  </clipPath>
 </defs>
</svg>
