<?xml version="1.0" encoding="utf-8" standalone="no"?>
<!DOCTYPE svg PUBLIC "-//W3C//DTD SVG 1.1//EN"
  "http://www.w3.org/Graphics/SVG/1.1/DTD/svg11.dtd">
<svg xmlns:xlink="http://www.w3.org/1999/xlink" width="460.8pt" height="345.6pt" viewBox="0 0 460.8 345.6" xmlns="http://www.w3.org/2000/svg" version="1.1">
 <metadata>
  <rdf:RDF xmlns:dc="http://purl.org/dc/elements/1.1/" xmlns:cc="http://creativecommons.org/ns#" xmlns:rdf="http://www.w3.org/1999/02/22-rdf-syntax-ns#">
   <cc:Work>
    <dc:type rdf:resource="http://purl.org/dc/dcmitype/StillImage"/>
    <dc:date>2023-01-17T14:53:42.021537</dc:date>
    <dc:format>image/svg+xml</dc:format>
    <dc:creator>
     <cc:Agent>
      <dc:title>Matplotlib v3.6.3, https://matplotlib.org/</dc:title>
     </cc:Agent>
    </dc:creator>
   </cc:Work>
  </rdf:RDF>
 </metadata>
 <defs>
  <style type="text/css">*{stroke-linejoin: round; stroke-linecap: butt}</style>
 </defs>
 <g id="figure_1">
  <g id="patch_1">
   <path d="M 0 345.6 
L 460.8 345.6 
L 460.8 0 
L 0 0 
z
" style="fill: #ffffff"/>
  </g>
  <g id="axes_1">
   <g id="patch_2">
    <path d="M 57.6 307.584 
L 219.927273 307.584 
L 219.927273 41.472 
L 57.6 41.472 
z
" style="fill: #ffffff"/>
   </g>
   <g id="Quiver_1">
    <path d="M 64.982939 295.045311 
L 76.014252 295.155625 
L 75.580417 294.26582 
L 79.994022 295.638155 
L 75.553856 296.921952 
L 76.005398 296.041002 
L 64.974086 295.930689 
L 64.982939 295.045311 
" clip-path="url(#p4c1f519176)"/>
    <path d="M 79.741071 295.045324 
L 87.769393 295.145678 
L 87.337784 294.254792 
L 91.747945 295.638155 
L 87.304583 296.910849 
L 87.758326 296.03103 
L 79.730004 295.930676 
L 79.741071 295.045324 
" clip-path="url(#p4c1f519176)"/>
    <path d="M 94.499939 295.045351 
L 99.525402 295.129108 
L 99.097508 294.236432 
L 103.501868 295.638155 
L 99.053243 296.892328 
L 99.510647 296.014407 
L 94.485184 295.930649 
L 94.499939 295.045351 
" clip-path="url(#p4c1f519176)"/>
    <path d="M 109.260651 295.045428 
L 111.283703 295.096004 
L 110.863259 294.199795 
L 115.255791 295.638155 
L 110.796873 296.855229 
L 111.261574 295.981149 
L 109.238522 295.930572 
L 109.260651 295.045428 
" clip-path="url(#p4c1f519176)"/>
    <path d="M 124.021627 295.18769 
L 124.321937 295.202705 
L 124.051658 294.587069 
L 127.009714 295.638155 
L 123.961565 296.388931 
L 124.291906 295.803326 
L 123.991596 295.78831 
L 124.021627 295.18769 
" clip-path="url(#p4c1f519176)"/>
    <path d="M 138.763636 295.930711 
L 139.147035 295.709355 
L 139.147035 295.266645 
L 138.763636 295.045289 
L 138.380238 295.266645 
L 138.380238 295.709355 
L 138.763636 295.930711 
L 139.147035 295.709355 
" clip-path="url(#p4c1f519176)"/>
    <path d="M 153.535677 295.78831 
L 153.235366 295.803326 
L 153.565708 296.388931 
L 150.517559 295.638155 
L 153.475615 294.587069 
L 153.205335 295.202705 
L 153.505646 295.18769 
L 153.535677 295.78831 
" clip-path="url(#p4c1f519176)"/>
    <path d="M 168.28875 295.930572 
L 166.265698 295.981149 
L 166.7304 296.855229 
L 162.271482 295.638155 
L 166.664014 294.199795 
L 166.24357 295.096004 
L 168.266622 295.045428 
L 168.28875 295.930572 
" clip-path="url(#p4c1f519176)"/>
    <path d="M 183.042088 295.930649 
L 178.016626 296.014407 
L 178.47403 296.892328 
L 174.025405 295.638155 
L 178.429765 294.236432 
L 178.001871 295.129108 
L 183.027333 295.045351 
L 183.042088 295.930649 
" clip-path="url(#p4c1f519176)"/>
    <path d="M 197.797269 295.930676 
L 189.768946 296.03103 
L 190.22269 296.910849 
L 185.779328 295.638155 
L 190.189489 294.254792 
L 189.75788 295.145678 
L 197.786202 295.045324 
L 197.797269 295.930676 
" clip-path="url(#p4c1f519176)"/>
    <path d="M 212.553187 295.930689 
L 201.521875 296.041002 
L 201.973417 296.921952 
L 197.53325 295.638155 
L 201.946856 294.26582 
L 201.513021 295.155625 
L 212.544333 295.045311 
L 212.553187 295.930689 
" clip-path="url(#p4c1f519176)"/>
    <path d="M 64.982054 270.853303 
L 76.013295 270.941553 
L 75.577681 270.052619 
L 79.994022 271.416124 
L 75.556432 272.708798 
L 76.006212 271.826947 
L 64.974971 271.738697 
L 64.982054 270.853303 
" clip-path="url(#p4c1f519176)"/>
    <path d="M 79.739964 270.853311 
L 87.768175 270.933593 
L 87.33434 270.043789 
L 91.747945 271.416124 
L 87.307778 272.699921 
L 87.759321 271.818971 
L 79.73111 271.738689 
L 79.739964 270.853311 
" clip-path="url(#p4c1f519176)"/>
    <path d="M 94.498464 270.853329 
L 99.523728 270.920332 
L 99.092861 270.029087 
L 103.501868 271.416124 
L 99.057447 272.685115 
L 99.511923 271.805675 
L 94.48666 271.738671 
L 94.498464 270.853329 
" clip-path="url(#p4c1f519176)"/>
    <path d="M 109.258439 270.853378 
L 111.281043 270.89383 
L 110.856126 269.999733 
L 115.255791 271.416124 
L 110.803011 272.655466 
L 111.263338 271.779074 
L 109.240734 271.738622 
L 109.258439 270.853378 
" clip-path="url(#p4c1f519176)"/>
    <path d="M 124.018624 270.99569 
L 124.318934 271.007702 
L 124.042649 270.395069 
L 127.009714 271.416124 
L 123.970574 272.196931 
L 124.294909 271.608323 
L 123.994599 271.59631 
L 124.018624 270.99569 
" clip-path="url(#p4c1f519176)"/>
    <path d="M 138.763636 271.738711 
L 139.147035 271.517355 
L 139.147035 271.074645 
L 138.763636 270.853289 
L 138.380238 271.074645 
L 138.380238 271.517355 
L 138.763636 271.738711 
L 139.147035 271.517355 
" clip-path="url(#p4c1f519176)"/>
    <path d="M 153.532674 271.59631 
L 153.232363 271.608323 
L 153.556698 272.196931 
L 150.517559 271.416124 
L 153.484624 270.395069 
L 153.208339 271.007702 
L 153.508649 270.99569 
L 153.532674 271.59631 
" clip-path="url(#p4c1f519176)"/>
    <path d="M 168.286538 271.738622 
L 166.263934 271.779074 
L 166.724262 272.655466 
L 162.271482 271.416124 
L 166.671147 269.999733 
L 166.24623 270.89383 
L 168.268834 270.853378 
L 168.286538 271.738622 
" clip-path="url(#p4c1f519176)"/>
    <path d="M 183.040613 271.738671 
L 178.01535 271.805675 
L 178.469826 272.685115 
L 174.025405 271.416124 
L 178.434412 270.029087 
L 178.003545 270.920332 
L 183.028808 270.853329 
L 183.040613 271.738671 
" clip-path="url(#p4c1f519176)"/>
    <path d="M 197.796162 271.738689 
L 189.767952 271.818971 
L 190.219494 272.699921 
L 185.779328 271.416124 
L 190.192933 270.043789 
L 189.759098 270.933593 
L 197.787309 270.853311 
L 197.796162 271.738689 
" clip-path="url(#p4c1f519176)"/>
    <path d="M 212.552302 271.738697 
L 201.521061 271.826947 
L 201.970841 272.708798 
L 197.53325 271.416124 
L 201.949591 270.052619 
L 201.513978 270.941553 
L 212.545219 270.853303 
L 212.552302 271.738697 
" clip-path="url(#p4c1f519176)"/>
    <path d="M 64.981169 246.661297 
L 76.012354 246.727484 
L 75.574963 245.839423 
L 79.994022 247.194093 
L 75.559026 248.495639 
L 76.007041 247.61289 
L 64.975856 247.546703 
L 64.981169 246.661297 
" clip-path="url(#p4c1f519176)"/>
    <path d="M 79.738857 246.661302 
L 87.766981 246.721513 
L 87.330923 245.832796 
L 91.747945 247.194093 
L 87.311002 248.488986 
L 87.76034 247.606909 
L 79.732217 247.546698 
L 79.738857 246.661302 
" clip-path="url(#p4c1f519176)"/>
    <path d="M 94.496989 246.661311 
L 99.522097 246.711562 
L 99.088263 245.821758 
L 103.501868 247.194093 
L 99.061701 248.47789 
L 99.513244 247.59694 
L 94.488135 247.546689 
L 94.496989 246.661311 
" clip-path="url(#p4c1f519176)"/>
    <path d="M 109.256227 246.661339 
L 111.278482 246.691673 
L 110.849101 245.799711 
L 115.255791 247.194093 
L 110.809262 248.455677 
L 111.265202 247.576995 
L 109.242947 247.546661 
L 109.256227 246.661339 
" clip-path="url(#p4c1f519176)"/>
    <path d="M 124.015621 246.80369 
L 124.315931 246.812699 
L 124.033639 246.203069 
L 127.009714 247.194093 
L 123.979584 248.004931 
L 124.297912 247.41332 
L 123.997602 247.40431 
L 124.015621 246.80369 
" clip-path="url(#p4c1f519176)"/>
    <path d="M 138.763636 247.546711 
L 139.147035 247.325355 
L 139.147035 246.882645 
L 138.763636 246.661289 
L 138.380238 246.882645 
L 138.380238 247.325355 
L 138.763636 247.546711 
L 139.147035 247.325355 
" clip-path="url(#p4c1f519176)"/>
    <path d="M 153.52967 247.40431 
L 153.22936 247.41332 
L 153.547689 248.004931 
L 150.517559 247.194093 
L 153.493633 246.203069 
L 153.211342 246.812699 
L 153.511652 246.80369 
L 153.52967 247.40431 
" clip-path="url(#p4c1f519176)"/>
    <path d="M 168.284326 247.546661 
L 166.26207 247.576995 
L 166.718011 248.455677 
L 162.271482 247.194093 
L 166.678172 245.799711 
L 166.248791 246.691673 
L 168.271046 246.661339 
L 168.284326 247.546661 
" clip-path="url(#p4c1f519176)"/>
    <path d="M 183.039138 247.546689 
L 178.014029 247.59694 
L 178.465572 248.47789 
L 174.025405 247.194093 
L 178.43901 245.821758 
L 178.005175 246.711562 
L 183.030284 246.661311 
L 183.039138 247.546689 
" clip-path="url(#p4c1f519176)"/>
    <path d="M 197.795056 247.546698 
L 189.766932 247.606909 
L 190.216271 248.488986 
L 185.779328 247.194093 
L 190.19635 245.832796 
L 189.760292 246.721513 
L 197.788415 246.661302 
L 197.795056 247.546698 
" clip-path="url(#p4c1f519176)"/>
    <path d="M 212.551417 247.546703 
L 201.520232 247.61289 
L 201.968247 248.495639 
L 197.53325 247.194093 
L 201.952309 245.839423 
L 201.514919 246.727484 
L 212.546104 246.661297 
L 212.551417 247.546703 
" clip-path="url(#p4c1f519176)"/>
    <path d="M 64.980283 222.469293 
L 76.011428 222.513417 
L 75.572263 221.626232 
L 79.994022 222.972062 
L 75.561638 224.282475 
L 76.007887 223.398832 
L 64.976742 223.354707 
L 64.980283 222.469293 
" clip-path="url(#p4c1f519176)"/>
    <path d="M 79.737751 222.469295 
L 87.765812 222.509435 
L 87.327534 221.621811 
L 91.747945 222.972062 
L 87.314252 224.278042 
L 87.761385 223.394846 
L 79.733324 223.354705 
L 79.737751 222.469295 
" clip-path="url(#p4c1f519176)"/>
    <path d="M 94.495513 222.469299 
L 99.520511 222.502799 
L 99.083713 221.614446 
L 103.501868 222.972062 
L 99.066005 224.270651 
L 99.514608 223.388201 
L 94.489611 223.354701 
L 94.495513 222.469299 
" clip-path="url(#p4c1f519176)"/>
    <path d="M 109.254014 222.469311 
L 111.27602 222.489531 
L 110.842185 221.599727 
L 115.255791 222.972062 
L 110.815624 224.255859 
L 111.267166 223.374909 
L 109.24516 223.354689 
L 109.254014 222.469311 
" clip-path="url(#p4c1f519176)"/>
    <path d="M 124.012618 222.61169 
L 124.312928 222.617696 
L 124.02463 222.011069 
L 127.009714 222.972062 
L 123.988593 223.812931 
L 124.300916 223.218316 
L 124.000605 223.21231 
L 124.012618 222.61169 
" clip-path="url(#p4c1f519176)"/>
    <path d="M 138.763636 223.354711 
L 139.147035 223.133355 
L 139.147035 222.690645 
L 138.763636 222.469289 
L 138.380238 222.690645 
L 138.380238 223.133355 
L 138.763636 223.354711 
L 139.147035 223.133355 
" clip-path="url(#p4c1f519176)"/>
    <path d="M 153.526667 223.21231 
L 153.226357 223.218316 
L 153.53868 223.812931 
L 150.517559 222.972062 
L 153.502643 222.011069 
L 153.214345 222.617696 
L 153.514655 222.61169 
L 153.526667 223.21231 
" clip-path="url(#p4c1f519176)"/>
    <path d="M 168.282113 223.354689 
L 166.260106 223.374909 
L 166.711649 224.255859 
L 162.271482 222.972062 
L 166.685087 221.599727 
L 166.251253 222.489531 
L 168.273259 222.469311 
L 168.282113 223.354689 
" clip-path="url(#p4c1f519176)"/>
    <path d="M 183.037662 223.354701 
L 178.012664 223.388201 
L 178.461268 224.270651 
L 174.025405 222.972062 
L 178.44356 221.614446 
L 178.006762 222.502799 
L 183.031759 222.469299 
L 183.037662 223.354701 
" clip-path="url(#p4c1f519176)"/>
    <path d="M 197.793949 223.354705 
L 189.765888 223.394846 
L 190.21302 224.278042 
L 185.779328 222.972062 
L 190.199739 221.621811 
L 189.761461 222.509435 
L 197.789522 222.469295 
L 197.793949 223.354705 
" clip-path="url(#p4c1f519176)"/>
    <path d="M 212.550531 223.354707 
L 201.519386 223.398832 
L 201.965635 224.282475 
L 197.53325 222.972062 
L 201.95501 221.626232 
L 201.515844 222.513417 
L 212.54699 222.469293 
L 212.550531 223.354707 
" clip-path="url(#p4c1f519176)"/>
    <path d="M 64.979398 198.27729 
L 76.010519 198.299352 
L 75.56958 197.413047 
L 79.994022 198.750031 
L 75.564268 200.069306 
L 76.008748 199.184772 
L 64.977627 199.16271 
L 64.979398 198.27729 
" clip-path="url(#p4c1f519176)"/>
    <path d="M 79.736644 198.277291 
L 87.764668 198.297361 
L 87.324172 197.410835 
L 91.747945 198.750031 
L 87.317531 200.067091 
L 87.762454 199.182779 
L 79.73443 199.162709 
L 79.736644 198.277291 
" clip-path="url(#p4c1f519176)"/>
    <path d="M 94.494038 198.277292 
L 99.518969 198.294041 
L 99.079212 197.407149 
L 103.501868 198.750031 
L 99.070358 200.063399 
L 99.516018 199.179458 
L 94.491086 199.162708 
L 94.494038 198.277292 
" clip-path="url(#p4c1f519176)"/>
    <path d="M 109.2518 198.277295 
L 111.273657 198.287404 
L 110.835379 197.39978 
L 115.255791 198.750031 
L 110.822098 200.056011 
L 111.26923 199.172814 
L 109.247373 199.162705 
L 109.2518 198.277295 
" clip-path="url(#p4c1f519176)"/>
    <path d="M 124.009615 198.41969 
L 124.309925 198.422693 
L 124.015621 197.819069 
L 127.009714 198.750031 
L 123.997602 199.620931 
L 124.303919 199.023313 
L 124.003608 199.02031 
L 124.009615 198.41969 
" clip-path="url(#p4c1f519176)"/>
    <path d="M 138.763636 199.162711 
L 139.147035 198.941355 
L 139.147035 198.498645 
L 138.763636 198.277289 
L 138.380238 198.498645 
L 138.380238 198.941355 
L 138.763636 199.162711 
L 139.147035 198.941355 
" clip-path="url(#p4c1f519176)"/>
    <path d="M 153.523664 199.02031 
L 153.223354 199.023313 
L 153.52967 199.620931 
L 150.517559 198.750031 
L 153.511652 197.819069 
L 153.217348 198.422693 
L 153.517658 198.41969 
L 153.523664 199.02031 
" clip-path="url(#p4c1f519176)"/>
    <path d="M 168.279899 199.162705 
L 166.258042 199.172814 
L 166.705175 200.056011 
L 162.271482 198.750031 
L 166.691893 197.39978 
L 166.253615 198.287404 
L 168.275472 198.277295 
L 168.279899 199.162705 
" clip-path="url(#p4c1f519176)"/>
    <path d="M 183.036186 199.162708 
L 178.011255 199.179458 
L 178.456915 200.063399 
L 174.025405 198.750031 
L 178.448061 197.407149 
L 178.008304 198.294041 
L 183.033235 198.277292 
L 183.036186 199.162708 
" clip-path="url(#p4c1f519176)"/>
    <path d="M 197.792842 199.162709 
L 189.764819 199.182779 
L 190.209741 200.067091 
L 185.779328 198.750031 
L 190.203101 197.410835 
L 189.762605 198.297361 
L 197.790629 198.277291 
L 197.792842 199.162709 
" clip-path="url(#p4c1f519176)"/>
    <path d="M 212.549646 199.16271 
L 201.518524 199.184772 
L 201.963005 200.069306 
L 197.53325 198.750031 
L 201.957693 197.413047 
L 201.516754 198.299352 
L 212.547875 198.27729 
L 212.549646 199.16271 
" clip-path="url(#p4c1f519176)"/>
    <path d="M 64.978512 174.085289 
L 76.009626 174.085289 
L 75.566915 173.199868 
L 79.994022 174.528 
L 75.566915 175.856132 
L 76.009626 174.970711 
L 64.978512 174.970711 
L 64.978512 174.085289 
" clip-path="url(#p4c1f519176)"/>
    <path d="M 79.735537 174.085289 
L 87.763548 174.085289 
L 87.320838 173.199868 
L 91.747945 174.528 
L 87.320838 175.856132 
L 87.763548 174.970711 
L 79.735537 174.970711 
L 79.735537 174.085289 
" clip-path="url(#p4c1f519176)"/>
    <path d="M 94.492562 174.085289 
L 99.517471 174.085289 
L 99.074761 173.199868 
L 103.501868 174.528 
L 99.074761 175.856132 
L 99.517471 174.970711 
L 94.492562 174.970711 
L 94.492562 174.085289 
" clip-path="url(#p4c1f519176)"/>
    <path d="M 109.249587 174.085289 
L 111.271394 174.085289 
L 110.828683 173.199868 
L 115.255791 174.528 
L 110.828683 175.856132 
L 111.271394 174.970711 
L 109.249587 174.970711 
L 109.249587 174.085289 
" clip-path="url(#p4c1f519176)"/>
    <path d="M 124.006612 174.22769 
L 124.306922 174.22769 
L 124.006612 173.627069 
L 127.009714 174.528 
L 124.006612 175.428931 
L 124.306922 174.82831 
L 124.006612 174.82831 
L 124.006612 174.22769 
" clip-path="url(#p4c1f519176)"/>
    <path d="M 139.206347 174.528 
L 138.984992 174.144601 
L 138.542281 174.144601 
L 138.320926 174.528 
L 138.542281 174.911399 
L 138.984992 174.911399 
L 139.206347 174.528 
L 138.984992 174.144601 
" clip-path="url(#p4c1f519176)"/>
    <path d="M 153.520661 174.82831 
L 153.220351 174.82831 
L 153.520661 175.428931 
L 150.517559 174.528 
L 153.520661 173.627069 
L 153.220351 174.22769 
L 153.520661 174.22769 
L 153.520661 174.82831 
" clip-path="url(#p4c1f519176)"/>
    <path d="M 168.277686 174.970711 
L 166.255879 174.970711 
L 166.698589 175.856132 
L 162.271482 174.528 
L 166.698589 173.199868 
L 166.255879 174.085289 
L 168.277686 174.085289 
L 168.277686 174.970711 
" clip-path="url(#p4c1f519176)"/>
    <path d="M 183.034711 174.970711 
L 178.009801 174.970711 
L 178.452512 175.856132 
L 174.025405 174.528 
L 178.452512 173.199868 
L 178.009801 174.085289 
L 183.034711 174.085289 
L 183.034711 174.970711 
" clip-path="url(#p4c1f519176)"/>
    <path d="M 197.791736 174.970711 
L 189.763724 174.970711 
L 190.206435 175.856132 
L 185.779328 174.528 
L 190.206435 173.199868 
L 189.763724 174.085289 
L 197.791736 174.085289 
L 197.791736 174.970711 
" clip-path="url(#p4c1f519176)"/>
    <path d="M 212.54876 174.970711 
L 201.517647 174.970711 
L 201.960358 175.856132 
L 197.53325 174.528 
L 201.960358 173.199868 
L 201.517647 174.085289 
L 212.54876 174.085289 
L 212.54876 174.970711 
" clip-path="url(#p4c1f519176)"/>
    <path d="M 64.977627 149.89329 
L 76.008748 149.871228 
L 75.564268 148.986694 
L 79.994022 150.305969 
L 75.56958 151.642953 
L 76.010519 150.756648 
L 64.979398 150.77871 
L 64.977627 149.89329 
" clip-path="url(#p4c1f519176)"/>
    <path d="M 79.73443 149.893291 
L 87.762454 149.873221 
L 87.317531 148.988909 
L 91.747945 150.305969 
L 87.324172 151.645165 
L 87.764668 150.758639 
L 79.736644 150.778709 
L 79.73443 149.893291 
" clip-path="url(#p4c1f519176)"/>
    <path d="M 94.491086 149.893292 
L 99.516018 149.876542 
L 99.070358 148.992601 
L 103.501868 150.305969 
L 99.079212 151.648851 
L 99.518969 150.761959 
L 94.494038 150.778708 
L 94.491086 149.893292 
" clip-path="url(#p4c1f519176)"/>
    <path d="M 109.247373 149.893295 
L 111.26923 149.883186 
L 110.822098 148.999989 
L 115.255791 150.305969 
L 110.835379 151.65622 
L 111.273657 150.768596 
L 109.2518 150.778705 
L 109.247373 149.893295 
" clip-path="url(#p4c1f519176)"/>
    <path d="M 124.003608 150.03569 
L 124.303919 150.032687 
L 123.997602 149.435069 
L 127.009714 150.305969 
L 124.015621 151.236931 
L 124.309925 150.633307 
L 124.009615 150.63631 
L 124.003608 150.03569 
" clip-path="url(#p4c1f519176)"/>
    <path d="M 138.763636 149.893289 
L 138.380238 150.114645 
L 138.380238 150.557355 
L 138.763636 150.778711 
L 139.147035 150.557355 
L 139.147035 150.114645 
L 138.763636 149.893289 
L 138.380238 150.114645 
" clip-path="url(#p4c1f519176)"/>
    <path d="M 153.517658 150.63631 
L 153.217348 150.633307 
L 153.511652 151.236931 
L 150.517559 150.305969 
L 153.52967 149.435069 
L 153.223354 150.032687 
L 153.523664 150.03569 
L 153.517658 150.63631 
" clip-path="url(#p4c1f519176)"/>
    <path d="M 168.275472 150.778705 
L 166.253615 150.768596 
L 166.691893 151.65622 
L 162.271482 150.305969 
L 166.705175 148.999989 
L 166.258042 149.883186 
L 168.279899 149.893295 
L 168.275472 150.778705 
" clip-path="url(#p4c1f519176)"/>
    <path d="M 183.033235 150.778708 
L 178.008304 150.761959 
L 178.448061 151.648851 
L 174.025405 150.305969 
L 178.456915 148.992601 
L 178.011255 149.876542 
L 183.036186 149.893292 
L 183.033235 150.778708 
" clip-path="url(#p4c1f519176)"/>
    <path d="M 197.790629 150.778709 
L 189.762605 150.758639 
L 190.203101 151.645165 
L 185.779328 150.305969 
L 190.209741 148.988909 
L 189.764819 149.873221 
L 197.792842 149.893291 
L 197.790629 150.778709 
" clip-path="url(#p4c1f519176)"/>
    <path d="M 212.547875 150.77871 
L 201.516754 150.756648 
L 201.957693 151.642953 
L 197.53325 150.305969 
L 201.963005 148.986694 
L 201.518524 149.871228 
L 212.549646 149.89329 
L 212.547875 150.77871 
" clip-path="url(#p4c1f519176)"/>
    <path d="M 64.976742 125.701293 
L 76.007887 125.657168 
L 75.561638 124.773525 
L 79.994022 126.083938 
L 75.572263 127.429768 
L 76.011428 126.542583 
L 64.980283 126.586707 
L 64.976742 125.701293 
" clip-path="url(#p4c1f519176)"/>
    <path d="M 79.733324 125.701295 
L 87.761385 125.661154 
L 87.314252 124.777958 
L 91.747945 126.083938 
L 87.327534 127.434189 
L 87.765812 126.546565 
L 79.737751 126.586705 
L 79.733324 125.701295 
" clip-path="url(#p4c1f519176)"/>
    <path d="M 94.489611 125.701299 
L 99.514608 125.667799 
L 99.066005 124.785349 
L 103.501868 126.083938 
L 99.083713 127.441554 
L 99.520511 126.553201 
L 94.495513 126.586701 
L 94.489611 125.701299 
" clip-path="url(#p4c1f519176)"/>
    <path d="M 109.24516 125.701311 
L 111.267166 125.681091 
L 110.815624 124.800141 
L 115.255791 126.083938 
L 110.842185 127.456273 
L 111.27602 126.566469 
L 109.254014 126.586689 
L 109.24516 125.701311 
" clip-path="url(#p4c1f519176)"/>
    <path d="M 124.000605 125.84369 
L 124.300916 125.837684 
L 123.988593 125.243069 
L 127.009714 126.083938 
L 124.02463 127.044931 
L 124.312928 126.438304 
L 124.012618 126.44431 
L 124.000605 125.84369 
" clip-path="url(#p4c1f519176)"/>
    <path d="M 138.763636 125.701289 
L 138.380238 125.922645 
L 138.380238 126.365355 
L 138.763636 126.586711 
L 139.147035 126.365355 
L 139.147035 125.922645 
L 138.763636 125.701289 
L 138.380238 125.922645 
" clip-path="url(#p4c1f519176)"/>
    <path d="M 153.514655 126.44431 
L 153.214345 126.438304 
L 153.502643 127.044931 
L 150.517559 126.083938 
L 153.53868 125.243069 
L 153.226357 125.837684 
L 153.526667 125.84369 
L 153.514655 126.44431 
" clip-path="url(#p4c1f519176)"/>
    <path d="M 168.273259 126.586689 
L 166.251253 126.566469 
L 166.685087 127.456273 
L 162.271482 126.083938 
L 166.711649 124.800141 
L 166.260106 125.681091 
L 168.282113 125.701311 
L 168.273259 126.586689 
" clip-path="url(#p4c1f519176)"/>
    <path d="M 183.031759 126.586701 
L 178.006762 126.553201 
L 178.44356 127.441554 
L 174.025405 126.083938 
L 178.461268 124.785349 
L 178.012664 125.667799 
L 183.037662 125.701299 
L 183.031759 126.586701 
" clip-path="url(#p4c1f519176)"/>
    <path d="M 197.789522 126.586705 
L 189.761461 126.546565 
L 190.199739 127.434189 
L 185.779328 126.083938 
L 190.21302 124.777958 
L 189.765888 125.661154 
L 197.793949 125.701295 
L 197.789522 126.586705 
" clip-path="url(#p4c1f519176)"/>
    <path d="M 212.54699 126.586707 
L 201.515844 126.542583 
L 201.95501 127.429768 
L 197.53325 126.083938 
L 201.965635 124.773525 
L 201.519386 125.657168 
L 212.550531 125.701293 
L 212.54699 126.586707 
" clip-path="url(#p4c1f519176)"/>
    <path d="M 64.975856 101.509297 
L 76.007041 101.44311 
L 75.559026 100.560361 
L 79.994022 101.861907 
L 75.574963 103.216577 
L 76.012354 102.328516 
L 64.981169 102.394703 
L 64.975856 101.509297 
" clip-path="url(#p4c1f519176)"/>
    <path d="M 79.732217 101.509302 
L 87.76034 101.449091 
L 87.311002 100.567014 
L 91.747945 101.861907 
L 87.330923 103.223204 
L 87.766981 102.334487 
L 79.738857 102.394698 
L 79.732217 101.509302 
" clip-path="url(#p4c1f519176)"/>
    <path d="M 94.488135 101.509311 
L 99.513244 101.45906 
L 99.061701 100.57811 
L 103.501868 101.861907 
L 99.088263 103.234242 
L 99.522097 102.344438 
L 94.496989 102.394689 
L 94.488135 101.509311 
" clip-path="url(#p4c1f519176)"/>
    <path d="M 109.242947 101.509339 
L 111.265202 101.479005 
L 110.809262 100.600323 
L 115.255791 101.861907 
L 110.849101 103.256289 
L 111.278482 102.364327 
L 109.256227 102.394661 
L 109.242947 101.509339 
" clip-path="url(#p4c1f519176)"/>
    <path d="M 123.997602 101.65169 
L 124.297912 101.64268 
L 123.979584 101.051069 
L 127.009714 101.861907 
L 124.033639 102.852931 
L 124.315931 102.243301 
L 124.015621 102.25231 
L 123.997602 101.65169 
" clip-path="url(#p4c1f519176)"/>
    <path d="M 138.763636 101.509289 
L 138.380238 101.730645 
L 138.380238 102.173355 
L 138.763636 102.394711 
L 139.147035 102.173355 
L 139.147035 101.730645 
L 138.763636 101.509289 
L 138.380238 101.730645 
" clip-path="url(#p4c1f519176)"/>
    <path d="M 153.511652 102.25231 
L 153.211342 102.243301 
L 153.493633 102.852931 
L 150.517559 101.861907 
L 153.547689 101.051069 
L 153.22936 101.64268 
L 153.52967 101.65169 
L 153.511652 102.25231 
" clip-path="url(#p4c1f519176)"/>
    <path d="M 168.271046 102.394661 
L 166.248791 102.364327 
L 166.678172 103.256289 
L 162.271482 101.861907 
L 166.718011 100.600323 
L 166.26207 101.479005 
L 168.284326 101.509339 
L 168.271046 102.394661 
" clip-path="url(#p4c1f519176)"/>
    <path d="M 183.030284 102.394689 
L 178.005175 102.344438 
L 178.43901 103.234242 
L 174.025405 101.861907 
L 178.465572 100.57811 
L 178.014029 101.45906 
L 183.039138 101.509311 
L 183.030284 102.394689 
" clip-path="url(#p4c1f519176)"/>
    <path d="M 197.788415 102.394698 
L 189.760292 102.334487 
L 190.19635 103.223204 
L 185.779328 101.861907 
L 190.216271 100.567014 
L 189.766932 101.449091 
L 197.795056 101.509302 
L 197.788415 102.394698 
" clip-path="url(#p4c1f519176)"/>
    <path d="M 212.546104 102.394703 
L 201.514919 102.328516 
L 201.952309 103.216577 
L 197.53325 101.861907 
L 201.968247 100.560361 
L 201.520232 101.44311 
L 212.551417 101.509297 
L 212.546104 102.394703 
" clip-path="url(#p4c1f519176)"/>
    <path d="M 64.974971 77.317303 
L 76.006212 77.229053 
L 75.556432 76.347202 
L 79.994022 77.639876 
L 75.577681 79.003381 
L 76.013295 78.114447 
L 64.982054 78.202697 
L 64.974971 77.317303 
" clip-path="url(#p4c1f519176)"/>
    <path d="M 79.73111 77.317311 
L 87.759321 77.237029 
L 87.307778 76.356079 
L 91.747945 77.639876 
L 87.33434 79.012211 
L 87.768175 78.122407 
L 79.739964 78.202689 
L 79.73111 77.317311 
" clip-path="url(#p4c1f519176)"/>
    <path d="M 94.48666 77.317329 
L 99.511923 77.250325 
L 99.057447 76.370885 
L 103.501868 77.639876 
L 99.092861 79.026913 
L 99.523728 78.135668 
L 94.498464 78.202671 
L 94.48666 77.317329 
" clip-path="url(#p4c1f519176)"/>
    <path d="M 109.240734 77.317378 
L 111.263338 77.276926 
L 110.803011 76.400534 
L 115.255791 77.639876 
L 110.856126 79.056267 
L 111.281043 78.16217 
L 109.258439 78.202622 
L 109.240734 77.317378 
" clip-path="url(#p4c1f519176)"/>
    <path d="M 123.994599 77.45969 
L 124.294909 77.447677 
L 123.970574 76.859069 
L 127.009714 77.639876 
L 124.042649 78.660931 
L 124.318934 78.048298 
L 124.018624 78.06031 
L 123.994599 77.45969 
" clip-path="url(#p4c1f519176)"/>
    <path d="M 138.763636 77.317289 
L 138.380238 77.538645 
L 138.380238 77.981355 
L 138.763636 78.202711 
L 139.147035 77.981355 
L 139.147035 77.538645 
L 138.763636 77.317289 
L 138.380238 77.538645 
" clip-path="url(#p4c1f519176)"/>
    <path d="M 153.508649 78.06031 
L 153.208339 78.048298 
L 153.484624 78.660931 
L 150.517559 77.639876 
L 153.556698 76.859069 
L 153.232363 77.447677 
L 153.532674 77.45969 
L 153.508649 78.06031 
" clip-path="url(#p4c1f519176)"/>
    <path d="M 168.268834 78.202622 
L 166.24623 78.16217 
L 166.671147 79.056267 
L 162.271482 77.639876 
L 166.724262 76.400534 
L 166.263934 77.276926 
L 168.286538 77.317378 
L 168.268834 78.202622 
" clip-path="url(#p4c1f519176)"/>
    <path d="M 183.028808 78.202671 
L 178.003545 78.135668 
L 178.434412 79.026913 
L 174.025405 77.639876 
L 178.469826 76.370885 
L 178.01535 77.250325 
L 183.040613 77.317329 
L 183.028808 78.202671 
" clip-path="url(#p4c1f519176)"/>
    <path d="M 197.787309 78.202689 
L 189.759098 78.122407 
L 190.192933 79.012211 
L 185.779328 77.639876 
L 190.219494 76.356079 
L 189.767952 77.237029 
L 197.796162 77.317311 
L 197.787309 78.202689 
" clip-path="url(#p4c1f519176)"/>
    <path d="M 212.545219 78.202697 
L 201.513978 78.114447 
L 201.949591 79.003381 
L 197.53325 77.639876 
L 201.970841 76.347202 
L 201.521061 77.229053 
L 212.552302 77.317303 
L 212.545219 78.202697 
" clip-path="url(#p4c1f519176)"/>
    <path d="M 64.974086 53.125311 
L 76.005398 53.014998 
L 75.553856 52.134048 
L 79.994022 53.417845 
L 75.580417 54.79018 
L 76.014252 53.900375 
L 64.982939 54.010689 
L 64.974086 53.125311 
" clip-path="url(#p4c1f519176)"/>
    <path d="M 79.730004 53.125324 
L 87.758326 53.02497 
L 87.304583 52.145151 
L 91.747945 53.417845 
L 87.337784 54.801208 
L 87.769393 53.910322 
L 79.741071 54.010676 
L 79.730004 53.125324 
" clip-path="url(#p4c1f519176)"/>
    <path d="M 94.485184 53.125351 
L 99.510647 53.041593 
L 99.053243 52.163672 
L 103.501868 53.417845 
L 99.097508 54.819568 
L 99.525402 53.926892 
L 94.499939 54.010649 
L 94.485184 53.125351 
" clip-path="url(#p4c1f519176)"/>
    <path d="M 109.238522 53.125428 
L 111.261574 53.074851 
L 110.796873 52.200771 
L 115.255791 53.417845 
L 110.863259 54.856205 
L 111.283703 53.959996 
L 109.260651 54.010572 
L 109.238522 53.125428 
" clip-path="url(#p4c1f519176)"/>
    <path d="M 123.991596 53.26769 
L 124.291906 53.252674 
L 123.961565 52.667069 
L 127.009714 53.417845 
L 124.051658 54.468931 
L 124.321937 53.853295 
L 124.021627 53.86831 
L 123.991596 53.26769 
" clip-path="url(#p4c1f519176)"/>
    <path d="M 138.763636 53.125289 
L 138.380238 53.346645 
L 138.380238 53.789355 
L 138.763636 54.010711 
L 139.147035 53.789355 
L 139.147035 53.346645 
L 138.763636 53.125289 
L 138.380238 53.346645 
" clip-path="url(#p4c1f519176)"/>
    <path d="M 153.505646 53.86831 
L 153.205335 53.853295 
L 153.475615 54.468931 
L 150.517559 53.417845 
L 153.565708 52.667069 
L 153.235366 53.252674 
L 153.535677 53.26769 
L 153.505646 53.86831 
" clip-path="url(#p4c1f519176)"/>
    <path d="M 168.266622 54.010572 
L 166.24357 53.959996 
L 166.664014 54.856205 
L 162.271482 53.417845 
L 166.7304 52.200771 
L 166.265698 53.074851 
L 168.28875 53.125428 
L 168.266622 54.010572 
" clip-path="url(#p4c1f519176)"/>
    <path d="M 183.027333 54.010649 
L 178.001871 53.926892 
L 178.429765 54.819568 
L 174.025405 53.417845 
L 178.47403 52.163672 
L 178.016626 53.041593 
L 183.042088 53.125351 
L 183.027333 54.010649 
" clip-path="url(#p4c1f519176)"/>
    <path d="M 197.786202 54.010676 
L 189.75788 53.910322 
L 190.189489 54.801208 
L 185.779328 53.417845 
L 190.22269 52.145151 
L 189.768946 53.02497 
L 197.797269 53.125324 
L 197.786202 54.010676 
" clip-path="url(#p4c1f519176)"/>
    <path d="M 212.544333 54.010689 
L 201.513021 53.900375 
L 201.946856 54.79018 
L 197.53325 53.417845 
L 201.973417 52.134048 
L 201.521875 53.014998 
L 212.553187 53.125311 
L 212.544333 54.010689 
" clip-path="url(#p4c1f519176)"/>
   </g>
   <g id="matplotlib.axis_1">
    <g id="xtick_1">
     <g id="line2d_1">
      <defs>
       <path id="m528b444e6b" d="M 0 0 
L 0 3.5 
" style="stroke: #000000; stroke-width: 0.8"/>
      </defs>
      <g>
       <use xlink:href="#m528b444e6b" x="64.978512" y="307.584" style="stroke: #000000; stroke-width: 0.8"/>
      </g>
     </g>
     <g id="text_1">
      <!-- −5.0 -->
      <g transform="translate(52.837106 322.182437) scale(0.1 -0.1)">
       <defs>
        <path id="DejaVuSans-2212" d="M 678 2272 
L 4684 2272 
L 4684 1741 
L 678 1741 
L 678 2272 
z
" transform="scale(0.015625)"/>
        <path id="DejaVuSans-35" d="M 691 4666 
L 3169 4666 
L 3169 4134 
L 1269 4134 
L 1269 2991 
Q 1406 3038 1543 3061 
Q 1681 3084 1819 3084 
Q 2600 3084 3056 2656 
Q 3513 2228 3513 1497 
Q 3513 744 3044 326 
Q 2575 -91 1722 -91 
Q 1428 -91 1123 -41 
Q 819 9 494 109 
L 494 744 
Q 775 591 1075 516 
Q 1375 441 1709 441 
Q 2250 441 2565 725 
Q 2881 1009 2881 1497 
Q 2881 1984 2565 2268 
Q 2250 2553 1709 2553 
Q 1456 2553 1204 2497 
Q 953 2441 691 2322 
L 691 4666 
z
" transform="scale(0.015625)"/>
        <path id="DejaVuSans-2e" d="M 684 794 
L 1344 794 
L 1344 0 
L 684 0 
L 684 794 
z
" transform="scale(0.015625)"/>
        <path id="DejaVuSans-30" d="M 2034 4250 
Q 1547 4250 1301 3770 
Q 1056 3291 1056 2328 
Q 1056 1369 1301 889 
Q 1547 409 2034 409 
Q 2525 409 2770 889 
Q 3016 1369 3016 2328 
Q 3016 3291 2770 3770 
Q 2525 4250 2034 4250 
z
M 2034 4750 
Q 2819 4750 3233 4129 
Q 3647 3509 3647 2328 
Q 3647 1150 3233 529 
Q 2819 -91 2034 -91 
Q 1250 -91 836 529 
Q 422 1150 422 2328 
Q 422 3509 836 4129 
Q 1250 4750 2034 4750 
z
" transform="scale(0.015625)"/>
       </defs>
       <use xlink:href="#DejaVuSans-2212"/>
       <use xlink:href="#DejaVuSans-35" x="83.789062"/>
       <use xlink:href="#DejaVuSans-2e" x="147.412109"/>
       <use xlink:href="#DejaVuSans-30" x="179.199219"/>
      </g>
     </g>
    </g>
    <g id="xtick_2">
     <g id="line2d_2">
      <g>
       <use xlink:href="#m528b444e6b" x="101.871074" y="307.584" style="stroke: #000000; stroke-width: 0.8"/>
      </g>
     </g>
     <g id="text_2">
      <!-- −2.5 -->
      <g transform="translate(89.729668 322.182437) scale(0.1 -0.1)">
       <defs>
        <path id="DejaVuSans-32" d="M 1228 531 
L 3431 531 
L 3431 0 
L 469 0 
L 469 531 
Q 828 903 1448 1529 
Q 2069 2156 2228 2338 
Q 2531 2678 2651 2914 
Q 2772 3150 2772 3378 
Q 2772 3750 2511 3984 
Q 2250 4219 1831 4219 
Q 1534 4219 1204 4116 
Q 875 4013 500 3803 
L 500 4441 
Q 881 4594 1212 4672 
Q 1544 4750 1819 4750 
Q 2544 4750 2975 4387 
Q 3406 4025 3406 3419 
Q 3406 3131 3298 2873 
Q 3191 2616 2906 2266 
Q 2828 2175 2409 1742 
Q 1991 1309 1228 531 
z
" transform="scale(0.015625)"/>
       </defs>
       <use xlink:href="#DejaVuSans-2212"/>
       <use xlink:href="#DejaVuSans-32" x="83.789062"/>
       <use xlink:href="#DejaVuSans-2e" x="147.412109"/>
       <use xlink:href="#DejaVuSans-35" x="179.199219"/>
      </g>
     </g>
    </g>
    <g id="xtick_3">
     <g id="line2d_3">
      <g>
       <use xlink:href="#m528b444e6b" x="138.763636" y="307.584" style="stroke: #000000; stroke-width: 0.8"/>
      </g>
     </g>
     <g id="text_3">
      <!-- 0.0 -->
      <g transform="translate(130.812074 322.182437) scale(0.1 -0.1)">
       <use xlink:href="#DejaVuSans-30"/>
       <use xlink:href="#DejaVuSans-2e" x="63.623047"/>
       <use xlink:href="#DejaVuSans-30" x="95.410156"/>
      </g>
     </g>
    </g>
    <g id="xtick_4">
     <g id="line2d_4">
      <g>
       <use xlink:href="#m528b444e6b" x="175.656198" y="307.584" style="stroke: #000000; stroke-width: 0.8"/>
      </g>
     </g>
     <g id="text_4">
      <!-- 2.5 -->
      <g transform="translate(167.704636 322.182437) scale(0.1 -0.1)">
       <use xlink:href="#DejaVuSans-32"/>
       <use xlink:href="#DejaVuSans-2e" x="63.623047"/>
       <use xlink:href="#DejaVuSans-35" x="95.410156"/>
      </g>
     </g>
    </g>
    <g id="xtick_5">
     <g id="line2d_5">
      <g>
       <use xlink:href="#m528b444e6b" x="212.54876" y="307.584" style="stroke: #000000; stroke-width: 0.8"/>
      </g>
     </g>
     <g id="text_5">
      <!-- 5.0 -->
      <g transform="translate(204.597198 322.182437) scale(0.1 -0.1)">
       <use xlink:href="#DejaVuSans-35"/>
       <use xlink:href="#DejaVuSans-2e" x="63.623047"/>
       <use xlink:href="#DejaVuSans-30" x="95.410156"/>
      </g>
     </g>
    </g>
   </g>
   <g id="matplotlib.axis_2">
    <g id="ytick_1">
     <g id="line2d_6">
      <defs>
       <path id="m5f972582c7" d="M 0 0 
L -3.5 0 
" style="stroke: #000000; stroke-width: 0.8"/>
      </defs>
      <g>
       <use xlink:href="#m5f972582c7" x="57.6" y="271.296" style="stroke: #000000; stroke-width: 0.8"/>
      </g>
     </g>
     <g id="text_6">
      <!-- −4 -->
      <g transform="translate(35.857813 275.095219) scale(0.1 -0.1)">
       <defs>
        <path id="DejaVuSans-34" d="M 2419 4116 
L 825 1625 
L 2419 1625 
L 2419 4116 
z
M 2253 4666 
L 3047 4666 
L 3047 1625 
L 3713 1625 
L 3713 1100 
L 3047 1100 
L 3047 0 
L 2419 0 
L 2419 1100 
L 313 1100 
L 313 1709 
L 2253 4666 
z
" transform="scale(0.015625)"/>
       </defs>
       <use xlink:href="#DejaVuSans-2212"/>
       <use xlink:href="#DejaVuSans-34" x="83.789062"/>
      </g>
     </g>
    </g>
    <g id="ytick_2">
     <g id="line2d_7">
      <g>
       <use xlink:href="#m5f972582c7" x="57.6" y="222.912" style="stroke: #000000; stroke-width: 0.8"/>
      </g>
     </g>
     <g id="text_7">
      <!-- −2 -->
      <g transform="translate(35.857813 226.711219) scale(0.1 -0.1)">
       <use xlink:href="#DejaVuSans-2212"/>
       <use xlink:href="#DejaVuSans-32" x="83.789062"/>
      </g>
     </g>
    </g>
    <g id="ytick_3">
     <g id="line2d_8">
      <g>
       <use xlink:href="#m5f972582c7" x="57.6" y="174.528" style="stroke: #000000; stroke-width: 0.8"/>
      </g>
     </g>
     <g id="text_8">
      <!-- 0 -->
      <g transform="translate(44.2375 178.327219) scale(0.1 -0.1)">
       <use xlink:href="#DejaVuSans-30"/>
      </g>
     </g>
    </g>
    <g id="ytick_4">
     <g id="line2d_9">
      <g>
       <use xlink:href="#m5f972582c7" x="57.6" y="126.144" style="stroke: #000000; stroke-width: 0.8"/>
      </g>
     </g>
     <g id="text_9">
      <!-- 2 -->
      <g transform="translate(44.2375 129.943219) scale(0.1 -0.1)">
       <use xlink:href="#DejaVuSans-32"/>
      </g>
     </g>
    </g>
    <g id="ytick_5">
     <g id="line2d_10">
      <g>
       <use xlink:href="#m5f972582c7" x="57.6" y="77.76" style="stroke: #000000; stroke-width: 0.8"/>
      </g>
     </g>
     <g id="text_10">
      <!-- 4 -->
      <g transform="translate(44.2375 81.559219) scale(0.1 -0.1)">
       <use xlink:href="#DejaVuSans-34"/>
      </g>
     </g>
    </g>
   </g>
   <g id="patch_3">
    <path d="M 57.6 307.584 
L 57.6 41.472 
" style="fill: none; stroke: #000000; stroke-width: 0.8; stroke-linejoin: miter; stroke-linecap: square"/>
   </g>
   <g id="patch_4">
    <path d="M 219.927273 307.584 
L 219.927273 41.472 
" style="fill: none; stroke: #000000; stroke-width: 0.8; stroke-linejoin: miter; stroke-linecap: square"/>
   </g>
   <g id="patch_5">
    <path d="M 57.6 307.584 
L 219.927273 307.584 
" style="fill: none; stroke: #000000; stroke-width: 0.8; stroke-linejoin: miter; stroke-linecap: square"/>
   </g>
   <g id="patch_6">
    <path d="M 57.6 41.472 
L 219.927273 41.472 
" style="fill: none; stroke: #000000; stroke-width: 0.8; stroke-linejoin: miter; stroke-linecap: square"/>
   </g>
  </g>
  <g id="axes_2">
   <g id="patch_7">
    <path d="M 252.392727 307.584 
L 414.72 307.584 
L 414.72 41.472 
L 252.392727 41.472 
z
" style="fill: #ffffff"/>
   </g>
   <g id="matplotlib.axis_3">
    <g id="xtick_6">
     <g id="line2d_11">
      <g>
       <use xlink:href="#m528b444e6b" x="279.447273" y="307.584" style="stroke: #000000; stroke-width: 0.8"/>
      </g>
     </g>
     <g id="text_11">
      <!-- 0 -->
      <g transform="translate(276.266023 322.182437) scale(0.1 -0.1)">
       <use xlink:href="#DejaVuSans-30"/>
      </g>
     </g>
    </g>
    <g id="xtick_7">
     <g id="line2d_12">
      <g>
       <use xlink:href="#m528b444e6b" x="333.556364" y="307.584" style="stroke: #000000; stroke-width: 0.8"/>
      </g>
     </g>
     <g id="text_12">
      <!-- 2 -->
      <g transform="translate(330.375114 322.182437) scale(0.1 -0.1)">
       <use xlink:href="#DejaVuSans-32"/>
      </g>
     </g>
    </g>
    <g id="xtick_8">
     <g id="line2d_13">
      <g>
       <use xlink:href="#m528b444e6b" x="387.665455" y="307.584" style="stroke: #000000; stroke-width: 0.8"/>
      </g>
     </g>
     <g id="text_13">
      <!-- 4 -->
      <g transform="translate(384.484205 322.182437) scale(0.1 -0.1)">
       <use xlink:href="#DejaVuSans-34"/>
      </g>
     </g>
    </g>
   </g>
   <g id="matplotlib.axis_4">
    <g id="ytick_6">
     <g id="line2d_14">
      <g>
       <use xlink:href="#m5f972582c7" x="252.392727" y="307.584" style="stroke: #000000; stroke-width: 0.8"/>
      </g>
     </g>
     <g id="text_14">
      <!-- −5 -->
      <g transform="translate(230.65054 311.383219) scale(0.1 -0.1)">
       <use xlink:href="#DejaVuSans-2212"/>
       <use xlink:href="#DejaVuSans-35" x="83.789062"/>
      </g>
     </g>
    </g>
    <g id="ytick_7">
     <g id="line2d_15">
      <g>
       <use xlink:href="#m5f972582c7" x="252.392727" y="263.232" style="stroke: #000000; stroke-width: 0.8"/>
      </g>
     </g>
     <g id="text_15">
      <!-- −4 -->
      <g transform="translate(230.65054 267.031219) scale(0.1 -0.1)">
       <use xlink:href="#DejaVuSans-2212"/>
       <use xlink:href="#DejaVuSans-34" x="83.789062"/>
      </g>
     </g>
    </g>
    <g id="ytick_8">
     <g id="line2d_16">
      <g>
       <use xlink:href="#m5f972582c7" x="252.392727" y="218.88" style="stroke: #000000; stroke-width: 0.8"/>
      </g>
     </g>
     <g id="text_16">
      <!-- −3 -->
      <g transform="translate(230.65054 222.679219) scale(0.1 -0.1)">
       <defs>
        <path id="DejaVuSans-33" d="M 2597 2516 
Q 3050 2419 3304 2112 
Q 3559 1806 3559 1356 
Q 3559 666 3084 287 
Q 2609 -91 1734 -91 
Q 1441 -91 1130 -33 
Q 819 25 488 141 
L 488 750 
Q 750 597 1062 519 
Q 1375 441 1716 441 
Q 2309 441 2620 675 
Q 2931 909 2931 1356 
Q 2931 1769 2642 2001 
Q 2353 2234 1838 2234 
L 1294 2234 
L 1294 2753 
L 1863 2753 
Q 2328 2753 2575 2939 
Q 2822 3125 2822 3475 
Q 2822 3834 2567 4026 
Q 2313 4219 1838 4219 
Q 1578 4219 1281 4162 
Q 984 4106 628 3988 
L 628 4550 
Q 988 4650 1302 4700 
Q 1616 4750 1894 4750 
Q 2613 4750 3031 4423 
Q 3450 4097 3450 3541 
Q 3450 3153 3228 2886 
Q 3006 2619 2597 2516 
z
" transform="scale(0.015625)"/>
       </defs>
       <use xlink:href="#DejaVuSans-2212"/>
       <use xlink:href="#DejaVuSans-33" x="83.789062"/>
      </g>
     </g>
    </g>
    <g id="ytick_9">
     <g id="line2d_17">
      <g>
       <use xlink:href="#m5f972582c7" x="252.392727" y="174.528" style="stroke: #000000; stroke-width: 0.8"/>
      </g>
     </g>
     <g id="text_17">
      <!-- −2 -->
      <g transform="translate(230.65054 178.327219) scale(0.1 -0.1)">
       <use xlink:href="#DejaVuSans-2212"/>
       <use xlink:href="#DejaVuSans-32" x="83.789062"/>
      </g>
     </g>
    </g>
    <g id="ytick_10">
     <g id="line2d_18">
      <g>
       <use xlink:href="#m5f972582c7" x="252.392727" y="130.176" style="stroke: #000000; stroke-width: 0.8"/>
      </g>
     </g>
     <g id="text_18">
      <!-- −1 -->
      <g transform="translate(230.65054 133.975219) scale(0.1 -0.1)">
       <defs>
        <path id="DejaVuSans-31" d="M 794 531 
L 1825 531 
L 1825 4091 
L 703 3866 
L 703 4441 
L 1819 4666 
L 2450 4666 
L 2450 531 
L 3481 531 
L 3481 0 
L 794 0 
L 794 531 
z
" transform="scale(0.015625)"/>
       </defs>
       <use xlink:href="#DejaVuSans-2212"/>
       <use xlink:href="#DejaVuSans-31" x="83.789062"/>
      </g>
     </g>
    </g>
    <g id="ytick_11">
     <g id="line2d_19">
      <g>
       <use xlink:href="#m5f972582c7" x="252.392727" y="85.824" style="stroke: #000000; stroke-width: 0.8"/>
      </g>
     </g>
     <g id="text_19">
      <!-- 0 -->
      <g transform="translate(239.030227 89.623219) scale(0.1 -0.1)">
       <use xlink:href="#DejaVuSans-30"/>
      </g>
     </g>
    </g>
    <g id="ytick_12">
     <g id="line2d_20">
      <g>
       <use xlink:href="#m5f972582c7" x="252.392727" y="41.472" style="stroke: #000000; stroke-width: 0.8"/>
      </g>
     </g>
     <g id="text_20">
      <!-- 1 -->
      <g transform="translate(239.030227 45.271219) scale(0.1 -0.1)">
       <use xlink:href="#DejaVuSans-31"/>
      </g>
     </g>
    </g>
   </g>
   <g id="line2d_21">
    <path d="M 282.152727 131.209091 
L 283.491791 131.026967 
L 284.830854 130.897875 
L 286.169917 130.797865 
L 287.508981 130.716247 
L 288.848044 130.647315 
L 290.187107 130.587665 
L 291.526171 130.535098 
L 292.865234 130.488116 
L 294.204298 130.44565 
L 295.543361 130.40691 
L 296.882424 130.371297 
L 298.221488 130.338346 
L 299.560551 130.307688 
L 300.899614 130.279026 
L 302.238678 130.252116 
L 303.577741 130.226759 
L 304.916804 130.202784 
L 306.255868 130.180051 
L 307.594931 130.158436 
L 308.933994 130.137836 
L 310.273058 130.11816 
L 311.612121 130.099329 
L 312.951185 130.081274 
L 314.290248 130.063933 
L 315.629311 130.047253 
L 316.968375 130.031184 
L 318.307438 130.015685 
L 319.646501 130.000717 
L 320.985565 129.986243 
L 322.324628 129.972234 
L 323.663691 129.958659 
L 325.002755 129.945493 
L 326.341818 129.932713 
L 327.680882 129.920296 
L 329.019945 129.908223 
L 330.359008 129.896474 
L 331.698072 129.885034 
L 333.037135 129.873886 
L 334.376198 129.863015 
L 335.715262 129.852409 
L 337.054325 129.842056 
L 338.393388 129.831942 
L 339.732452 129.822058 
L 341.071515 129.812393 
L 342.410579 129.802938 
L 343.749642 129.793684 
L 345.088705 129.784622 
L 346.427769 129.775746 
L 347.766832 129.767046 
L 349.105895 129.758518 
L 350.444959 129.750153 
L 351.784022 129.741946 
L 353.123085 129.733891 
L 354.462149 129.725983 
L 355.801212 129.718216 
L 357.140275 129.710585 
L 358.479339 129.703087 
L 359.818402 129.695715 
L 361.157466 129.688466 
L 362.496529 129.681337 
L 363.835592 129.674322 
L 365.174656 129.667419 
L 366.513719 129.660624 
L 367.852782 129.653934 
L 369.191846 129.647346 
L 370.530909 129.640856 
L 371.869972 129.634461 
L 373.209036 129.62816 
L 374.548099 129.621948 
L 375.887163 129.615825 
L 377.226226 129.609787 
L 378.565289 129.603831 
L 379.904353 129.597957 
L 381.243416 129.592161 
L 382.582479 129.586441 
L 383.921543 129.580796 
L 385.260606 129.575224 
L 386.599669 129.569722 
L 387.938733 129.56429 
L 389.277796 129.558924 
L 390.61686 129.553625 
L 391.955923 129.548389 
L 393.294986 129.543216 
L 394.63405 129.538104 
L 395.973113 129.533052 
L 397.312176 129.528058 
L 398.65124 129.523121 
L 399.990303 129.51824 
L 401.329366 129.513413 
L 402.66843 129.50864 
L 404.007493 129.503918 
L 405.346556 129.499248 
L 406.68562 129.494627 
L 408.024683 129.490056 
L 409.363747 129.485532 
L 410.70281 129.481055 
L 412.041873 129.476624 
L 413.380937 129.472238 
L 414.72 129.467896 
" clip-path="url(#pb7c82e8d39)" style="fill: none; stroke: #1f77b4; stroke-width: 1.5; stroke-linecap: square"/>
   </g>
   <g id="line2d_22">
    <path d="M 282.152727 176.594182 
L 283.491791 176.229934 
L 284.830854 175.97175 
L 286.169917 175.771729 
L 287.508981 175.608493 
L 288.848044 175.470631 
L 290.187107 175.35133 
L 291.526171 175.246197 
L 292.865234 175.152233 
L 294.204298 175.067299 
L 295.543361 174.989819 
L 296.882424 174.918593 
L 298.221488 174.852691 
L 299.560551 174.791375 
L 300.899614 174.734051 
L 302.238678 174.680233 
L 303.577741 174.629517 
L 304.916804 174.581569 
L 306.255868 174.536101 
L 307.594931 174.492872 
L 308.933994 174.451672 
L 310.273058 174.41232 
L 311.612121 174.374658 
L 312.951185 174.338547 
L 314.290248 174.303866 
L 315.629311 174.270505 
L 316.968375 174.238369 
L 318.307438 174.207371 
L 319.646501 174.177433 
L 320.985565 174.148486 
L 322.324628 174.120467 
L 323.663691 174.093318 
L 325.002755 174.066987 
L 326.341818 174.041426 
L 327.680882 174.016592 
L 329.019945 173.992445 
L 330.359008 173.968948 
L 331.698072 173.946067 
L 333.037135 173.923771 
L 334.376198 173.902031 
L 335.715262 173.880819 
L 337.054325 173.860111 
L 338.393388 173.839884 
L 339.732452 173.820116 
L 341.071515 173.800786 
L 342.410579 173.781876 
L 343.749642 173.763367 
L 345.088705 173.745244 
L 346.427769 173.727491 
L 347.766832 173.710093 
L 349.105895 173.693035 
L 350.444959 173.676306 
L 351.784022 173.659892 
L 353.123085 173.643783 
L 354.462149 173.627966 
L 355.801212 173.612432 
L 357.140275 173.597171 
L 358.479339 173.582173 
L 359.818402 173.56743 
L 361.157466 173.552932 
L 362.496529 173.538673 
L 363.835592 173.524644 
L 365.174656 173.510838 
L 366.513719 173.497249 
L 367.852782 173.483868 
L 369.191846 173.470691 
L 370.530909 173.457711 
L 371.869972 173.444922 
L 373.209036 173.432319 
L 374.548099 173.419897 
L 375.887163 173.40765 
L 377.226226 173.395573 
L 378.565289 173.383663 
L 379.904353 173.371914 
L 381.243416 173.360322 
L 382.582479 173.348883 
L 383.921543 173.337593 
L 385.260606 173.326448 
L 386.599669 173.315445 
L 387.938733 173.304579 
L 389.277796 173.293849 
L 390.61686 173.28325 
L 391.955923 173.272778 
L 393.294986 173.262433 
L 394.63405 173.252209 
L 395.973113 173.242104 
L 397.312176 173.232116 
L 398.65124 173.222243 
L 399.990303 173.21248 
L 401.329366 173.202826 
L 402.66843 173.193279 
L 404.007493 173.183837 
L 405.346556 173.174496 
L 406.68562 173.165255 
L 408.024683 173.156111 
L 409.363747 173.147064 
L 410.70281 173.13811 
L 412.041873 173.129248 
L 413.380937 173.120475 
L 414.72 173.111791 
" clip-path="url(#pb7c82e8d39)" style="fill: none; stroke: #ff7f0e; stroke-width: 1.5; stroke-linecap: square"/>
   </g>
   <g id="line2d_23">
    <path d="M 282.152727 221.979272 
L 283.491791 221.432902 
L 284.830854 221.045626 
L 286.169917 220.745594 
L 287.508981 220.50074 
L 288.848044 220.293946 
L 290.187107 220.114994 
L 291.526171 219.957295 
L 292.865234 219.816349 
L 294.204298 219.688949 
L 295.543361 219.572729 
L 296.882424 219.46589 
L 298.221488 219.367037 
L 299.560551 219.275063 
L 300.899614 219.189077 
L 302.238678 219.108349 
L 303.577741 219.032276 
L 304.916804 218.960353 
L 306.255868 218.892152 
L 307.594931 218.827308 
L 308.933994 218.765508 
L 310.273058 218.70648 
L 311.612121 218.649987 
L 312.951185 218.595821 
L 314.290248 218.543798 
L 315.629311 218.493758 
L 316.968375 218.445553 
L 318.307438 218.399056 
L 319.646501 218.35415 
L 320.985565 218.310729 
L 322.324628 218.268701 
L 323.663691 218.227977 
L 325.002755 218.18848 
L 326.341818 218.150139 
L 327.680882 218.112889 
L 329.019945 218.076668 
L 330.359008 218.041423 
L 331.698072 218.007101 
L 333.037135 217.973657 
L 334.376198 217.941046 
L 335.715262 217.909228 
L 337.054325 217.878167 
L 338.393388 217.847826 
L 339.732452 217.818173 
L 341.071515 217.789179 
L 342.410579 217.760813 
L 343.749642 217.733051 
L 345.088705 217.705867 
L 346.427769 217.679237 
L 347.766832 217.653139 
L 349.105895 217.627553 
L 350.444959 217.602459 
L 351.784022 217.577838 
L 353.123085 217.553674 
L 354.462149 217.529949 
L 355.801212 217.506648 
L 357.140275 217.483756 
L 358.479339 217.46126 
L 359.818402 217.439145 
L 361.157466 217.417399 
L 362.496529 217.39601 
L 363.835592 217.374966 
L 365.174656 217.354257 
L 366.513719 217.333873 
L 367.852782 217.313802 
L 369.191846 217.294037 
L 370.530909 217.274567 
L 371.869972 217.255383 
L 373.209036 217.236479 
L 374.548099 217.217845 
L 375.887163 217.199475 
L 377.226226 217.18136 
L 378.565289 217.163494 
L 379.904353 217.145871 
L 381.243416 217.128483 
L 382.582479 217.111324 
L 383.921543 217.094389 
L 385.260606 217.077672 
L 386.599669 217.061167 
L 387.938733 217.044869 
L 389.277796 217.028773 
L 390.61686 217.012874 
L 391.955923 216.997168 
L 393.294986 216.981649 
L 394.63405 216.966313 
L 395.973113 216.951156 
L 397.312176 216.936175 
L 398.65124 216.921364 
L 399.990303 216.90672 
L 401.329366 216.89224 
L 402.66843 216.877919 
L 404.007493 216.863755 
L 405.346556 216.849744 
L 406.68562 216.835882 
L 408.024683 216.822167 
L 409.363747 216.808596 
L 410.70281 216.795165 
L 412.041873 216.781871 
L 413.380937 216.768713 
L 414.72 216.755687 
" clip-path="url(#pb7c82e8d39)" style="fill: none; stroke: #2ca02c; stroke-width: 1.5; stroke-linecap: square"/>
   </g>
   <g id="line2d_24">
    <path d="M 282.152727 267.364363 
L 283.491791 266.635869 
L 284.830854 266.119501 
L 286.169917 265.719459 
L 287.508981 265.392987 
L 288.848044 265.117261 
L 290.187107 264.878659 
L 291.526171 264.668393 
L 292.865234 264.480465 
L 294.204298 264.310599 
L 295.543361 264.155638 
L 296.882424 264.013186 
L 298.221488 263.881382 
L 299.560551 263.758751 
L 300.899614 263.644102 
L 302.238678 263.536465 
L 303.577741 263.435035 
L 304.916804 263.339137 
L 306.255868 263.248202 
L 307.594931 263.161744 
L 308.933994 263.079344 
L 310.273058 263.00064 
L 311.612121 262.925316 
L 312.951185 262.853094 
L 314.290248 262.783731 
L 315.629311 262.71701 
L 316.968375 262.652738 
L 318.307438 262.590741 
L 319.646501 262.530866 
L 320.985565 262.472973 
L 322.324628 262.416934 
L 323.663691 262.362636 
L 325.002755 262.309974 
L 326.341818 262.258853 
L 327.680882 262.209185 
L 329.019945 262.160891 
L 330.359008 262.113897 
L 331.698072 262.068135 
L 333.037135 262.023542 
L 334.376198 261.980061 
L 335.715262 261.937638 
L 337.054325 261.896222 
L 338.393388 261.855768 
L 339.732452 261.816231 
L 341.071515 261.777571 
L 342.410579 261.739751 
L 343.749642 261.702735 
L 345.088705 261.666489 
L 346.427769 261.630982 
L 347.766832 261.596185 
L 349.105895 261.56207 
L 350.444959 261.528612 
L 351.784022 261.495784 
L 353.123085 261.463565 
L 354.462149 261.431932 
L 355.801212 261.400864 
L 357.140275 261.370342 
L 358.479339 261.340346 
L 359.818402 261.310859 
L 361.157466 261.281865 
L 362.496529 261.253346 
L 363.835592 261.225288 
L 365.174656 261.197677 
L 366.513719 261.170497 
L 367.852782 261.143736 
L 369.191846 261.117382 
L 370.530909 261.091422 
L 371.869972 261.065845 
L 373.209036 261.040639 
L 374.548099 261.015794 
L 375.887163 260.9913 
L 377.226226 260.967147 
L 378.565289 260.943326 
L 379.904353 260.919827 
L 381.243416 260.896643 
L 382.582479 260.873765 
L 383.921543 260.851185 
L 385.260606 260.828896 
L 386.599669 260.806889 
L 387.938733 260.785159 
L 389.277796 260.763698 
L 390.61686 260.742499 
L 391.955923 260.721557 
L 393.294986 260.700865 
L 394.63405 260.680417 
L 395.973113 260.660209 
L 397.312176 260.640233 
L 398.65124 260.620485 
L 399.990303 260.60096 
L 401.329366 260.581653 
L 402.66843 260.562559 
L 404.007493 260.543673 
L 405.346556 260.524991 
L 406.68562 260.506509 
L 408.024683 260.488223 
L 409.363747 260.470127 
L 410.70281 260.45222 
L 412.041873 260.434495 
L 413.380937 260.416951 
L 414.72 260.399583 
" clip-path="url(#pb7c82e8d39)" style="fill: none; stroke: #d62728; stroke-width: 1.5; stroke-linecap: square"/>
   </g>
   <g id="line2d_25">
    <path d="M 282.152727 133.125184 
L 283.491791 132.370491 
L 284.830854 131.841049 
L 286.169917 131.433994 
L 287.508981 131.103804 
L 288.848044 130.826338 
L 290.187107 130.587261 
L 291.526171 130.377367 
L 292.865234 130.190397 
L 294.204298 130.021903 
L 295.543361 129.868614 
L 296.882424 129.728051 
L 298.221488 129.598294 
L 299.560551 129.477825 
L 300.899614 129.365424 
L 302.238678 129.260095 
L 303.577741 129.161014 
L 304.916804 129.067494 
L 306.255868 128.978954 
L 307.594931 128.894898 
L 308.933994 128.814902 
L 310.273058 128.738598 
L 311.612121 128.665667 
L 312.951185 128.595827 
L 314.290248 128.528831 
L 315.629311 128.464462 
L 316.968375 128.402523 
L 318.307438 128.342842 
L 319.646501 128.285263 
L 320.985565 128.229645 
L 322.324628 128.175861 
L 323.663691 128.123796 
L 325.002755 128.073346 
L 326.341818 128.024415 
L 327.680882 127.976916 
L 329.019945 127.93077 
L 330.359008 127.885902 
L 331.698072 127.842244 
L 333.037135 127.799735 
L 334.376198 127.758317 
L 335.715262 127.717936 
L 337.054325 127.678542 
L 338.393388 127.640089 
L 339.732452 127.602534 
L 341.071515 127.565837 
L 342.410579 127.52996 
L 343.749642 127.494867 
L 345.088705 127.460527 
L 346.427769 127.426908 
L 347.766832 127.39398 
L 349.105895 127.361717 
L 350.444959 127.330093 
L 351.784022 127.299083 
L 353.123085 127.268664 
L 354.462149 127.238815 
L 355.801212 127.209515 
L 357.140275 127.180744 
L 358.479339 127.152485 
L 359.818402 127.124719 
L 361.157466 127.097431 
L 362.496529 127.070603 
L 363.835592 127.044222 
L 365.174656 127.018272 
L 366.513719 126.992741 
L 367.852782 126.967615 
L 369.191846 126.942881 
L 370.530909 126.918529 
L 371.869972 126.894546 
L 373.209036 126.870921 
L 374.548099 126.847645 
L 375.887163 126.824707 
L 377.226226 126.802099 
L 378.565289 126.77981 
L 379.904353 126.757831 
L 381.243416 126.736156 
L 382.582479 126.714775 
L 383.921543 126.693681 
L 385.260606 126.672866 
L 386.599669 126.652323 
L 387.938733 126.632046 
L 389.277796 126.612027 
L 390.61686 126.59226 
L 391.955923 126.57274 
L 393.294986 126.553459 
L 394.63405 126.534413 
L 395.973113 126.515596 
L 397.312176 126.497003 
L 398.65124 126.478628 
L 399.990303 126.460466 
L 401.329366 126.442513 
L 402.66843 126.424764 
L 404.007493 126.407215 
L 405.346556 126.38986 
L 406.68562 126.372696 
L 408.024683 126.35572 
L 409.363747 126.338926 
L 410.70281 126.322311 
L 412.041873 126.305872 
L 413.380937 126.289604 
L 414.72 126.273505 
" clip-path="url(#pb7c82e8d39)" style="fill: none; stroke: #9467bd; stroke-width: 1.5; stroke-linecap: square"/>
   </g>
   <g id="line2d_26">
    <path d="M 282.152727 180.426367 
L 283.491791 178.916982 
L 284.830854 177.858099 
L 286.169917 177.043987 
L 287.508981 176.383608 
L 288.848044 175.828676 
L 290.187107 175.350521 
L 291.526171 174.930733 
L 292.865234 174.556793 
L 294.204298 174.219806 
L 295.543361 173.913227 
L 296.882424 173.632101 
L 298.221488 173.372587 
L 299.560551 173.13165 
L 300.899614 172.906848 
L 302.238678 172.69619 
L 303.577741 172.498029 
L 304.916804 172.310989 
L 306.255868 172.133908 
L 307.594931 171.965796 
L 308.933994 171.805804 
L 310.273058 171.653197 
L 311.612121 171.507333 
L 312.951185 171.367653 
L 314.290248 171.233662 
L 315.629311 171.104923 
L 316.968375 170.981047 
L 318.307438 170.861685 
L 319.646501 170.746526 
L 320.985565 170.63529 
L 322.324628 170.527722 
L 323.663691 170.423593 
L 325.002755 170.322692 
L 326.341818 170.224831 
L 327.680882 170.129833 
L 329.019945 170.037539 
L 330.359008 169.947803 
L 331.698072 169.860488 
L 333.037135 169.775471 
L 334.376198 169.692634 
L 335.715262 169.611872 
L 337.054325 169.533084 
L 338.393388 169.456178 
L 339.732452 169.381068 
L 341.071515 169.307673 
L 342.410579 169.235919 
L 343.749642 169.165735 
L 345.088705 169.097054 
L 346.427769 169.029815 
L 347.766832 168.96396 
L 349.105895 168.899434 
L 350.444959 168.836185 
L 351.784022 168.774165 
L 353.123085 168.713328 
L 354.462149 168.653629 
L 355.801212 168.595029 
L 357.140275 168.537488 
L 358.479339 168.48097 
L 359.818402 168.425439 
L 361.157466 168.370861 
L 362.496529 168.317206 
L 363.835592 168.264444 
L 365.174656 168.212545 
L 366.513719 168.161482 
L 367.852782 168.11123 
L 369.191846 168.061763 
L 370.530909 168.013057 
L 371.869972 167.965091 
L 373.209036 167.917842 
L 374.548099 167.87129 
L 375.887163 167.825415 
L 377.226226 167.780197 
L 378.565289 167.735619 
L 379.904353 167.691663 
L 381.243416 167.648312 
L 382.582479 167.60555 
L 383.921543 167.563361 
L 385.260606 167.521732 
L 386.599669 167.480646 
L 387.938733 167.440091 
L 389.277796 167.400054 
L 390.61686 167.360521 
L 391.955923 167.32148 
L 393.294986 167.282919 
L 394.63405 167.244827 
L 395.973113 167.207193 
L 397.312176 167.170006 
L 398.65124 167.133256 
L 399.990303 167.096932 
L 401.329366 167.061026 
L 402.66843 167.025528 
L 404.007493 166.990429 
L 405.346556 166.95572 
L 406.68562 166.921393 
L 408.024683 166.88744 
L 409.363747 166.853852 
L 410.70281 166.820622 
L 412.041873 166.787744 
L 413.380937 166.755208 
L 414.72 166.723009 
" clip-path="url(#pb7c82e8d39)" style="fill: none; stroke: #8c564b; stroke-width: 1.5; stroke-linecap: square"/>
   </g>
   <g id="line2d_27">
    <path d="M 282.152727 227.727551 
L 283.491791 225.463473 
L 284.830854 223.875148 
L 286.169917 222.653981 
L 287.508981 221.663411 
L 288.848044 220.831015 
L 290.187107 220.113782 
L 291.526171 219.4841 
L 292.865234 218.92319 
L 294.204298 218.41771 
L 295.543361 217.957841 
L 296.882424 217.536152 
L 298.221488 217.146881 
L 299.560551 216.785475 
L 300.899614 216.448273 
L 302.238678 216.132285 
L 303.577741 215.835043 
L 304.916804 215.554483 
L 306.255868 215.288861 
L 307.594931 215.036694 
L 308.933994 214.796706 
L 310.273058 214.567795 
L 311.612121 214.349 
L 312.951185 214.13948 
L 314.290248 213.938493 
L 315.629311 213.745385 
L 316.968375 213.55957 
L 318.307438 213.380527 
L 319.646501 213.207789 
L 320.985565 213.040935 
L 322.324628 212.879583 
L 323.663691 212.723389 
L 325.002755 212.572039 
L 326.341818 212.425246 
L 327.680882 212.282749 
L 329.019945 212.144309 
L 330.359008 212.009705 
L 331.698072 211.878733 
L 333.037135 211.751206 
L 334.376198 211.626951 
L 335.715262 211.505807 
L 337.054325 211.387626 
L 338.393388 211.272267 
L 339.732452 211.159602 
L 341.071515 211.04951 
L 342.410579 210.941879 
L 343.749642 210.836602 
L 345.088705 210.733581 
L 346.427769 210.632723 
L 347.766832 210.53394 
L 349.105895 210.437151 
L 350.444959 210.342278 
L 351.784022 210.249248 
L 353.123085 210.157991 
L 354.462149 210.068444 
L 355.801212 209.980544 
L 357.140275 209.894233 
L 358.479339 209.809455 
L 359.818402 209.726158 
L 361.157466 209.644292 
L 362.496529 209.56381 
L 363.835592 209.484666 
L 365.174656 209.406817 
L 366.513719 209.330223 
L 367.852782 209.254844 
L 369.191846 209.180644 
L 370.530909 209.107586 
L 371.869972 209.035637 
L 373.209036 208.964764 
L 374.548099 208.894935 
L 375.887163 208.826122 
L 377.226226 208.758296 
L 378.565289 208.691429 
L 379.904353 208.625494 
L 381.243416 208.560468 
L 382.582479 208.496325 
L 383.921543 208.433042 
L 385.260606 208.370597 
L 386.599669 208.308969 
L 387.938733 208.248137 
L 389.277796 208.18808 
L 390.61686 208.128781 
L 391.955923 208.070219 
L 393.294986 208.012378 
L 394.63405 207.95524 
L 395.973113 207.898789 
L 397.312176 207.843009 
L 398.65124 207.787884 
L 399.990303 207.733399 
L 401.329366 207.67954 
L 402.66843 207.626292 
L 404.007493 207.573644 
L 405.346556 207.52158 
L 406.68562 207.470089 
L 408.024683 207.419159 
L 409.363747 207.368778 
L 410.70281 207.318934 
L 412.041873 207.269615 
L 413.380937 207.220812 
L 414.72 207.172514 
" clip-path="url(#pb7c82e8d39)" style="fill: none; stroke: #e377c2; stroke-width: 1.5; stroke-linecap: square"/>
   </g>
   <g id="line2d_28">
    <path d="M 282.152727 275.028735 
L 283.491791 272.009965 
L 284.830854 269.892197 
L 286.169917 268.263975 
L 287.508981 266.943215 
L 288.848044 265.833353 
L 290.187107 264.877043 
L 291.526171 264.037466 
L 292.865234 263.289586 
L 294.204298 262.615613 
L 295.543361 262.002455 
L 296.882424 261.440202 
L 298.221488 260.921175 
L 299.560551 260.4393 
L 300.899614 259.989697 
L 302.238678 259.56838 
L 303.577741 259.172058 
L 304.916804 258.797977 
L 306.255868 258.443815 
L 307.594931 258.107592 
L 308.933994 257.787609 
L 310.273058 257.482394 
L 311.612121 257.190667 
L 312.951185 256.911306 
L 314.290248 256.643325 
L 315.629311 256.385846 
L 316.968375 256.138093 
L 318.307438 255.89937 
L 319.646501 255.669053 
L 320.985565 255.44658 
L 322.324628 255.231444 
L 323.663691 255.023185 
L 325.002755 254.821385 
L 326.341818 254.625661 
L 327.680882 254.435666 
L 329.019945 254.251079 
L 330.359008 254.071606 
L 331.698072 253.896977 
L 333.037135 253.726941 
L 334.376198 253.561268 
L 335.715262 253.399743 
L 337.054325 253.242167 
L 338.393388 253.088356 
L 339.732452 252.938136 
L 341.071515 252.791347 
L 342.410579 252.647838 
L 343.749642 252.507469 
L 345.088705 252.370108 
L 346.427769 252.23563 
L 347.766832 252.10392 
L 349.105895 251.974868 
L 350.444959 251.84837 
L 351.784022 251.72433 
L 353.123085 251.602655 
L 354.462149 251.483259 
L 355.801212 251.366059 
L 357.140275 251.250977 
L 358.479339 251.13794 
L 359.818402 251.026877 
L 361.157466 250.917723 
L 362.496529 250.810413 
L 363.835592 250.704887 
L 365.174656 250.601089 
L 366.513719 250.498964 
L 367.852782 250.398459 
L 369.191846 250.299525 
L 370.530909 250.202115 
L 371.869972 250.106182 
L 373.209036 250.011685 
L 374.548099 249.918581 
L 375.887163 249.82683 
L 377.226226 249.736394 
L 378.565289 249.647238 
L 379.904353 249.559326 
L 381.243416 249.472624 
L 382.582479 249.3871 
L 383.921543 249.302723 
L 385.260606 249.219463 
L 386.599669 249.137292 
L 387.938733 249.056183 
L 389.277796 248.976107 
L 390.61686 248.897041 
L 391.955923 248.818959 
L 393.294986 248.741838 
L 394.63405 248.665654 
L 395.973113 248.590386 
L 397.312176 248.516012 
L 398.65124 248.442511 
L 399.990303 248.369865 
L 401.329366 248.298053 
L 402.66843 248.227056 
L 404.007493 248.156858 
L 405.346556 248.08744 
L 406.68562 248.018786 
L 408.024683 247.950879 
L 409.363747 247.883704 
L 410.70281 247.817245 
L 412.041873 247.751487 
L 413.380937 247.686416 
L 414.72 247.622019 
" clip-path="url(#pb7c82e8d39)" style="fill: none; stroke: #7f7f7f; stroke-width: 1.5; stroke-linecap: square"/>
   </g>
   <g id="line2d_29">
    <path d="M 282.152727 135.251916 
L 283.491791 133.495181 
L 284.830854 132.283818 
L 286.169917 131.364239 
L 287.508981 130.625802 
L 288.848044 130.010459 
L 290.187107 129.48404 
L 291.526171 129.024767 
L 292.865234 128.617926 
L 294.204298 128.25312 
L 295.543361 127.922739 
L 296.882424 127.621047 
L 298.221488 127.343619 
L 299.560551 127.086968 
L 300.899614 126.848301 
L 302.238678 126.625349 
L 303.577741 126.416238 
L 304.916804 126.219411 
L 306.255868 126.033554 
L 307.594931 125.857551 
L 308.933994 125.690447 
L 310.273058 125.531418 
L 311.612121 125.379746 
L 312.951185 125.234806 
L 314.290248 125.096048 
L 315.629311 124.962984 
L 316.968375 124.835183 
L 318.307438 124.712259 
L 319.646501 124.593868 
L 320.985565 124.4797 
L 322.324628 124.369475 
L 323.663691 124.262939 
L 325.002755 124.159864 
L 326.341818 124.06004 
L 327.680882 123.963276 
L 329.019945 123.869396 
L 330.359008 123.778241 
L 331.698072 123.689662 
L 333.037135 123.603524 
L 334.376198 123.5197 
L 335.715262 123.438076 
L 337.054325 123.358541 
L 338.393388 123.280996 
L 339.732452 123.205349 
L 341.071515 123.131511 
L 342.410579 123.059401 
L 343.749642 122.988945 
L 345.088705 122.920069 
L 346.427769 122.852709 
L 347.766832 122.7868 
L 349.105895 122.722285 
L 350.444959 122.659107 
L 351.784022 122.597216 
L 353.123085 122.53656 
L 354.462149 122.477095 
L 355.801212 122.418775 
L 357.140275 122.36156 
L 358.479339 122.30541 
L 359.818402 122.250287 
L 361.157466 122.196157 
L 362.496529 122.142985 
L 363.835592 122.090739 
L 365.174656 122.039389 
L 366.513719 121.988906 
L 367.852782 121.939263 
L 369.191846 121.890432 
L 370.530909 121.842389 
L 371.869972 121.79511 
L 373.209036 121.748572 
L 374.548099 121.702752 
L 375.887163 121.657631 
L 377.226226 121.613187 
L 378.565289 121.569402 
L 379.904353 121.526257 
L 381.243416 121.483734 
L 382.582479 121.441817 
L 383.921543 121.400488 
L 385.260606 121.359733 
L 386.599669 121.319537 
L 387.938733 121.279884 
L 389.277796 121.240761 
L 390.61686 121.202155 
L 391.955923 121.164052 
L 393.294986 121.12644 
L 394.63405 121.089308 
L 395.973113 121.052643 
L 397.312176 121.016435 
L 398.65124 120.980672 
L 399.990303 120.945344 
L 401.329366 120.910442 
L 402.66843 120.875955 
L 404.007493 120.841874 
L 405.346556 120.80819 
L 406.68562 120.774895 
L 408.024683 120.741979 
L 409.363747 120.709435 
L 410.70281 120.677254 
L 412.041873 120.645429 
L 413.380937 120.613953 
L 414.72 120.582818 
" clip-path="url(#pb7c82e8d39)" style="fill: none; stroke: #bcbd22; stroke-width: 1.5; stroke-linecap: square"/>
   </g>
   <g id="line2d_30">
    <path d="M 282.152727 184.679831 
L 283.491791 181.166361 
L 284.830854 178.743636 
L 286.169917 176.904478 
L 287.508981 175.427604 
L 288.848044 174.196919 
L 290.187107 173.144081 
L 291.526171 172.225534 
L 292.865234 171.411852 
L 294.204298 170.68224 
L 295.543361 170.021478 
L 296.882424 169.418094 
L 298.221488 168.863237 
L 299.560551 168.349935 
L 300.899614 167.872603 
L 302.238678 167.426697 
L 303.577741 167.008477 
L 304.916804 166.614822 
L 306.255868 166.243107 
L 307.594931 165.891102 
L 308.933994 165.556894 
L 310.273058 165.238835 
L 311.612121 164.935492 
L 312.951185 164.645613 
L 314.290248 164.368095 
L 315.629311 164.101967 
L 316.968375 163.846365 
L 318.307438 163.600518 
L 319.646501 163.363736 
L 320.985565 163.1354 
L 322.324628 162.914949 
L 323.663691 162.701879 
L 325.002755 162.495729 
L 326.341818 162.29608 
L 327.680882 162.102551 
L 329.019945 161.914792 
L 330.359008 161.732481 
L 331.698072 161.555324 
L 333.037135 161.383048 
L 334.376198 161.215401 
L 335.715262 161.052151 
L 337.054325 160.893082 
L 338.393388 160.737993 
L 339.732452 160.586698 
L 341.071515 160.439022 
L 342.410579 160.294803 
L 343.749642 160.153889 
L 345.088705 160.016138 
L 346.427769 159.881417 
L 347.766832 159.7496 
L 349.105895 159.620569 
L 350.444959 159.494215 
L 351.784022 159.370431 
L 353.123085 159.249121 
L 354.462149 159.13019 
L 355.801212 159.013551 
L 357.140275 158.899121 
L 358.479339 158.78682 
L 359.818402 158.676575 
L 361.157466 158.568314 
L 362.496529 158.46197 
L 363.835592 158.357478 
L 365.174656 158.254778 
L 366.513719 158.153813 
L 367.852782 158.054525 
L 369.191846 157.956864 
L 370.530909 157.860778 
L 371.869972 157.76622 
L 373.209036 157.673143 
L 374.548099 157.581504 
L 375.887163 157.491261 
L 377.226226 157.402374 
L 378.565289 157.314804 
L 379.904353 157.228513 
L 381.243416 157.143468 
L 382.582479 157.059633 
L 383.921543 156.976976 
L 385.260606 156.895467 
L 386.599669 156.815073 
L 387.938733 156.735768 
L 389.277796 156.657522 
L 390.61686 156.58031 
L 391.955923 156.504104 
L 393.294986 156.428881 
L 394.63405 156.354616 
L 395.973113 156.281286 
L 397.312176 156.208869 
L 398.65124 156.137343 
L 399.990303 156.066688 
L 401.329366 155.996883 
L 402.66843 155.927909 
L 404.007493 155.859748 
L 405.346556 155.79238 
L 406.68562 155.725789 
L 408.024683 155.659958 
L 409.363747 155.594869 
L 410.70281 155.530508 
L 412.041873 155.466858 
L 413.380937 155.403906 
L 414.72 155.341635 
" clip-path="url(#pb7c82e8d39)" style="fill: none; stroke: #17becf; stroke-width: 1.5; stroke-linecap: square"/>
   </g>
   <g id="line2d_31">
    <path d="M 282.152727 234.107747 
L 283.491791 228.837542 
L 284.830854 225.203454 
L 286.169917 222.444716 
L 287.508981 220.229406 
L 288.848044 218.383378 
L 290.187107 216.804121 
L 291.526171 215.426301 
L 292.865234 214.205777 
L 294.204298 213.11136 
L 295.543361 212.120217 
L 296.882424 211.215142 
L 298.221488 210.382856 
L 299.560551 209.612903 
L 300.899614 208.896904 
L 302.238678 208.228046 
L 303.577741 207.600715 
L 304.916804 207.010233 
L 306.255868 206.452661 
L 307.594931 205.924653 
L 308.933994 205.423341 
L 310.273058 204.946253 
L 311.612121 204.491239 
L 312.951185 204.056419 
L 314.290248 203.640143 
L 315.629311 203.240951 
L 316.968375 202.857548 
L 318.307438 202.488777 
L 319.646501 202.133604 
L 320.985565 201.7911 
L 322.324628 201.460424 
L 323.663691 201.140818 
L 325.002755 200.831593 
L 326.341818 200.53212 
L 327.680882 200.241827 
L 329.019945 199.960188 
L 330.359008 199.686722 
L 331.698072 199.420986 
L 333.037135 199.162571 
L 334.376198 198.911101 
L 335.715262 198.666227 
L 337.054325 198.427623 
L 338.393388 198.194989 
L 339.732452 197.968046 
L 341.071515 197.746533 
L 342.410579 197.530204 
L 343.749642 197.318834 
L 345.088705 197.112208 
L 346.427769 196.910126 
L 347.766832 196.7124 
L 349.105895 196.518854 
L 350.444959 196.329322 
L 351.784022 196.143647 
L 353.123085 195.961681 
L 354.462149 195.783285 
L 355.801212 195.608326 
L 357.140275 195.436681 
L 358.479339 195.26823 
L 359.818402 195.102862 
L 361.157466 194.940471 
L 362.496529 194.780954 
L 363.835592 194.624217 
L 365.174656 194.470168 
L 366.513719 194.318719 
L 367.852782 194.169788 
L 369.191846 194.023296 
L 370.530909 193.879167 
L 371.869972 193.73733 
L 373.209036 193.597715 
L 374.548099 193.460257 
L 375.887163 193.324892 
L 377.226226 193.191561 
L 378.565289 193.060205 
L 379.904353 192.93077 
L 381.243416 192.803202 
L 382.582479 192.67745 
L 383.921543 192.553465 
L 385.260606 192.4312 
L 386.599669 192.31061 
L 387.938733 192.191652 
L 389.277796 192.074283 
L 390.61686 191.958464 
L 391.955923 191.844156 
L 393.294986 191.731321 
L 394.63405 191.619924 
L 395.973113 191.509929 
L 397.312176 191.401304 
L 398.65124 191.294015 
L 399.990303 191.188032 
L 401.329366 191.083325 
L 402.66843 190.979864 
L 404.007493 190.877622 
L 405.346556 190.77657 
L 406.68562 190.676684 
L 408.024683 190.577936 
L 409.363747 190.480304 
L 410.70281 190.383762 
L 412.041873 190.288288 
L 413.380937 190.193859 
L 414.72 190.100453 
" clip-path="url(#pb7c82e8d39)" style="fill: none; stroke: #1f77b4; stroke-width: 1.5; stroke-linecap: square"/>
   </g>
   <g id="line2d_32">
    <path d="M 282.152727 283.535662 
L 283.491791 276.508723 
L 284.830854 271.663271 
L 286.169917 267.984955 
L 287.508981 265.031208 
L 288.848044 262.569838 
L 290.187107 260.464162 
L 291.526171 258.627069 
L 292.865234 256.999703 
L 294.204298 255.54048 
L 295.543361 254.218956 
L 296.882424 253.012189 
L 298.221488 251.902475 
L 299.560551 250.875871 
L 300.899614 249.921206 
L 302.238678 249.029395 
L 303.577741 248.192953 
L 304.916804 247.405644 
L 306.255868 246.662215 
L 307.594931 245.958204 
L 308.933994 245.289788 
L 310.273058 244.653671 
L 311.612121 244.046985 
L 312.951185 243.467225 
L 314.290248 242.912191 
L 315.629311 242.379935 
L 316.968375 241.86873 
L 318.307438 241.377036 
L 319.646501 240.903472 
L 320.985565 240.446799 
L 322.324628 240.005899 
L 323.663691 239.579758 
L 325.002755 239.167457 
L 326.341818 238.76816 
L 327.680882 238.381102 
L 329.019945 238.005584 
L 330.359008 237.640962 
L 331.698072 237.286648 
L 333.037135 236.942095 
L 334.376198 236.606802 
L 335.715262 236.280302 
L 337.054325 235.962164 
L 338.393388 235.651986 
L 339.732452 235.349395 
L 341.071515 235.054043 
L 342.410579 234.765606 
L 343.749642 234.483778 
L 345.088705 234.208277 
L 346.427769 233.938834 
L 347.766832 233.6752 
L 349.105895 233.417139 
L 350.444959 233.164429 
L 351.784022 232.916863 
L 353.123085 232.674241 
L 354.462149 232.43638 
L 355.801212 232.203102 
L 357.140275 231.974241 
L 358.479339 231.749641 
L 359.818402 231.52915 
L 361.157466 231.312628 
L 362.496529 231.099939 
L 363.835592 230.890956 
L 365.174656 230.685557 
L 366.513719 230.483625 
L 367.852782 230.285051 
L 369.191846 230.089728 
L 370.530909 229.897556 
L 371.869972 229.70844 
L 373.209036 229.522287 
L 374.548099 229.339009 
L 375.887163 229.158523 
L 377.226226 228.980748 
L 378.565289 228.805607 
L 379.904353 228.633027 
L 381.243416 228.462936 
L 382.582479 228.295266 
L 383.921543 228.129953 
L 385.260606 227.966933 
L 386.599669 227.806147 
L 387.938733 227.647536 
L 389.277796 227.491045 
L 390.61686 227.336619 
L 391.955923 227.184208 
L 393.294986 227.033762 
L 394.63405 226.885232 
L 395.973113 226.738572 
L 397.312176 226.593738 
L 398.65124 226.450687 
L 399.990303 226.309376 
L 401.329366 226.169767 
L 402.66843 226.031819 
L 404.007493 225.895496 
L 405.346556 225.76076 
L 406.68562 225.627578 
L 408.024683 225.495915 
L 409.363747 225.365738 
L 410.70281 225.237016 
L 412.041873 225.109717 
L 413.380937 224.983811 
L 414.72 224.859271 
" clip-path="url(#pb7c82e8d39)" style="fill: none; stroke: #ff7f0e; stroke-width: 1.5; stroke-linecap: square"/>
   </g>
   <g id="line2d_33">
    <path d="M 282.152727 137.179104 
L 283.491791 133.979219 
L 284.830854 131.825357 
L 286.169917 130.21916 
L 287.508981 128.947472 
L 288.848044 127.90014 
L 290.187107 127.013112 
L 291.526171 126.245989 
L 292.865234 125.571718 
L 294.204298 124.971338 
L 295.543361 124.431066 
L 296.882424 123.940581 
L 298.221488 123.491965 
L 299.560551 123.079019 
L 300.899614 122.696798 
L 302.238678 122.341301 
L 303.577741 122.009246 
L 304.916804 121.697908 
L 306.255868 121.405004 
L 307.594931 121.128599 
L 308.933994 120.867043 
L 310.273058 120.618915 
L 311.612121 120.382987 
L 312.951185 120.158187 
L 314.290248 119.943575 
L 315.629311 119.738324 
L 316.968375 119.541701 
L 318.307438 119.353054 
L 319.646501 119.171802 
L 320.985565 118.997422 
L 322.324628 118.829443 
L 323.663691 118.667443 
L 325.002755 118.511036 
L 326.341818 118.359874 
L 327.680882 118.213638 
L 329.019945 118.072036 
L 330.359008 117.934804 
L 331.698072 117.801697 
L 333.037135 117.672489 
L 334.376198 117.546972 
L 335.715262 117.424956 
L 337.054325 117.306263 
L 338.393388 117.190728 
L 339.732452 117.078198 
L 341.071515 116.968531 
L 342.410579 116.861594 
L 343.749642 116.757263 
L 345.088705 116.655422 
L 346.427769 116.555964 
L 347.766832 116.458785 
L 349.105895 116.363791 
L 350.444959 116.270893 
L 351.784022 116.180005 
L 353.123085 116.091048 
L 354.462149 116.003946 
L 355.801212 115.918631 
L 357.140275 115.835033 
L 358.479339 115.75309 
L 359.818402 115.672742 
L 361.157466 115.593933 
L 362.496529 115.516607 
L 363.835592 115.440714 
L 365.174656 115.366206 
L 366.513719 115.293035 
L 367.852782 115.221159 
L 369.191846 115.150534 
L 370.530909 115.081121 
L 371.869972 115.012882 
L 373.209036 114.945781 
L 374.548099 114.879782 
L 375.887163 114.814852 
L 377.226226 114.750959 
L 378.565289 114.688074 
L 379.904353 114.626167 
L 381.243416 114.565209 
L 382.582479 114.505175 
L 383.921543 114.446038 
L 385.260606 114.387774 
L 386.599669 114.330359 
L 387.938733 114.27377 
L 389.277796 114.217986 
L 390.61686 114.162985 
L 391.955923 114.108747 
L 393.294986 114.055253 
L 394.63405 114.002484 
L 395.973113 113.950422 
L 397.312176 113.899049 
L 398.65124 113.848349 
L 399.990303 113.798305 
L 401.329366 113.748902 
L 402.66843 113.700125 
L 404.007493 113.651959 
L 405.346556 113.604389 
L 406.68562 113.557403 
L 408.024683 113.510987 
L 409.363747 113.465129 
L 410.70281 113.419815 
L 412.041873 113.375035 
L 413.380937 113.330776 
L 414.72 113.287027 
" clip-path="url(#pb7c82e8d39)" style="fill: none; stroke: #2ca02c; stroke-width: 1.5; stroke-linecap: square"/>
   </g>
   <g id="line2d_34">
    <path d="M 282.152727 188.534207 
L 283.491791 182.134439 
L 284.830854 177.826714 
L 286.169917 174.61432 
L 287.508981 172.070944 
L 288.848044 169.97628 
L 290.187107 168.202225 
L 291.526171 166.667978 
L 292.865234 165.319436 
L 294.204298 164.118677 
L 295.543361 163.038131 
L 296.882424 162.057161 
L 298.221488 161.159931 
L 299.560551 160.334038 
L 300.899614 159.569596 
L 302.238678 158.858602 
L 303.577741 158.194492 
L 304.916804 157.571817 
L 306.255868 156.986008 
L 307.594931 156.433198 
L 308.933994 155.910086 
L 310.273058 155.413831 
L 311.612121 154.941975 
L 312.951185 154.492374 
L 314.290248 154.06315 
L 315.629311 153.652648 
L 316.968375 153.259402 
L 318.307438 152.882109 
L 319.646501 152.519604 
L 320.985565 152.170843 
L 322.324628 151.834887 
L 323.663691 151.510886 
L 325.002755 151.198073 
L 326.341818 150.895748 
L 327.680882 150.603275 
L 329.019945 150.320073 
L 330.359008 150.045609 
L 331.698072 149.779393 
L 333.037135 149.520977 
L 334.376198 149.269945 
L 335.715262 149.025913 
L 337.054325 148.788526 
L 338.393388 148.557456 
L 339.732452 148.332396 
L 341.071515 148.113062 
L 342.410579 147.899188 
L 343.749642 147.690526 
L 345.088705 147.486845 
L 346.427769 147.287927 
L 347.766832 147.09357 
L 349.105895 146.903583 
L 350.444959 146.717786 
L 351.784022 146.536009 
L 353.123085 146.358095 
L 354.462149 146.183893 
L 355.801212 146.013261 
L 357.140275 145.846066 
L 358.479339 145.68218 
L 359.818402 145.521485 
L 361.157466 145.363865 
L 362.496529 145.209214 
L 363.835592 145.057428 
L 365.174656 144.908411 
L 366.513719 144.76207 
L 367.852782 144.618317 
L 369.191846 144.477068 
L 370.530909 144.338242 
L 371.869972 144.201765 
L 373.209036 144.067561 
L 374.548099 143.935563 
L 375.887163 143.805704 
L 377.226226 143.677919 
L 378.565289 143.552148 
L 379.904353 143.428334 
L 381.243416 143.306419 
L 382.582479 143.18635 
L 383.921543 143.068076 
L 385.260606 142.951548 
L 386.599669 142.836717 
L 387.938733 142.72354 
L 389.277796 142.611972 
L 390.61686 142.50197 
L 391.955923 142.393495 
L 393.294986 142.286507 
L 394.63405 142.180969 
L 395.973113 142.076844 
L 397.312176 141.974099 
L 398.65124 141.872698 
L 399.990303 141.772611 
L 401.329366 141.673805 
L 402.66843 141.57625 
L 404.007493 141.479917 
L 405.346556 141.384779 
L 406.68562 141.290806 
L 408.024683 141.197974 
L 409.363747 141.106257 
L 410.70281 141.01563 
L 412.041873 140.926069 
L 413.380937 140.837552 
L 414.72 140.750055 
" clip-path="url(#pb7c82e8d39)" style="fill: none; stroke: #d62728; stroke-width: 1.5; stroke-linecap: square"/>
   </g>
   <g id="line2d_35">
    <path d="M 282.152727 239.889311 
L 283.491791 230.289658 
L 284.830854 223.828072 
L 286.169917 219.00948 
L 287.508981 215.194416 
L 288.848044 212.05242 
L 290.187107 209.391337 
L 291.526171 207.089967 
L 292.865234 205.067155 
L 294.204298 203.266015 
L 295.543361 201.645197 
L 296.882424 200.173742 
L 298.221488 198.827896 
L 299.560551 197.589057 
L 300.899614 196.442394 
L 302.238678 195.375903 
L 303.577741 194.379738 
L 304.916804 193.445725 
L 306.255868 192.567012 
L 307.594931 191.737798 
L 308.933994 190.953129 
L 310.273058 190.208746 
L 311.612121 189.500962 
L 312.951185 188.82656 
L 314.290248 188.182725 
L 315.629311 187.566972 
L 316.968375 186.977103 
L 318.307438 186.411163 
L 319.646501 185.867406 
L 320.985565 185.344265 
L 322.324628 184.84033 
L 323.663691 184.354329 
L 325.002755 183.885109 
L 326.341818 183.431622 
L 327.680882 182.992913 
L 329.019945 182.568109 
L 330.359008 182.156413 
L 331.698072 181.75709 
L 333.037135 181.369466 
L 334.376198 180.992917 
L 335.715262 180.626869 
L 337.054325 180.270789 
L 338.393388 179.924184 
L 339.732452 179.586594 
L 341.071515 179.257593 
L 342.410579 178.936781 
L 343.749642 178.623789 
L 345.088705 178.318267 
L 346.427769 178.019891 
L 347.766832 177.728356 
L 349.105895 177.443374 
L 350.444959 177.164678 
L 351.784022 176.892014 
L 353.123085 176.625143 
L 354.462149 176.363839 
L 355.801212 176.107892 
L 357.140275 175.857099 
L 358.479339 175.611271 
L 359.818402 175.370227 
L 361.157466 175.133798 
L 362.496529 174.901821 
L 363.835592 174.674143 
L 365.174656 174.450617 
L 366.513719 174.231106 
L 367.852782 174.015476 
L 369.191846 173.803602 
L 370.530909 173.595364 
L 371.869972 173.390647 
L 373.209036 173.189342 
L 374.548099 172.991345 
L 375.887163 172.796555 
L 377.226226 172.604878 
L 378.565289 172.416223 
L 379.904353 172.2305 
L 381.243416 172.047628 
L 382.582479 171.867525 
L 383.921543 171.690114 
L 385.260606 171.515321 
L 386.599669 171.343076 
L 387.938733 171.17331 
L 389.277796 171.005957 
L 390.61686 170.840955 
L 391.955923 170.678242 
L 393.294986 170.51776 
L 394.63405 170.359453 
L 395.973113 170.203266 
L 397.312176 170.049148 
L 398.65124 169.897047 
L 399.990303 169.746916 
L 401.329366 169.598707 
L 402.66843 169.452375 
L 404.007493 169.307876 
L 405.346556 169.165168 
L 406.68562 169.02421 
L 408.024683 168.884962 
L 409.363747 168.747386 
L 410.70281 168.611445 
L 412.041873 168.477104 
L 413.380937 168.344328 
L 414.72 168.213082 
" clip-path="url(#pb7c82e8d39)" style="fill: none; stroke: #9467bd; stroke-width: 1.5; stroke-linecap: square"/>
   </g>
   <g id="line2d_36">
    <path d="M 282.152727 291.244415 
L 283.491791 278.444878 
L 284.830854 269.829429 
L 286.169917 263.404639 
L 287.508981 258.317887 
L 288.848044 254.12856 
L 290.187107 250.58045 
L 291.526171 247.511955 
L 292.865234 244.814873 
L 294.204298 242.413353 
L 295.543361 240.252263 
L 296.882424 238.290322 
L 298.221488 236.495862 
L 299.560551 234.844077 
L 300.899614 233.315193 
L 302.238678 231.893205 
L 303.577741 230.564984 
L 304.916804 229.319634 
L 306.255868 228.148016 
L 307.594931 227.042397 
L 308.933994 225.996171 
L 310.273058 225.003662 
L 311.612121 224.059949 
L 312.951185 223.160747 
L 314.290248 222.3023 
L 315.629311 221.481296 
L 316.968375 220.694804 
L 318.307438 219.940218 
L 319.646501 219.215208 
L 320.985565 218.517686 
L 322.324628 217.845773 
L 323.663691 217.197772 
L 325.002755 216.572145 
L 326.341818 215.967495 
L 327.680882 215.38255 
L 329.019945 214.816146 
L 330.359008 214.267217 
L 331.698072 213.734787 
L 333.037135 213.217954 
L 334.376198 212.715889 
L 335.715262 212.227825 
L 337.054325 211.753052 
L 338.393388 211.290912 
L 339.732452 210.840792 
L 341.071515 210.402124 
L 342.410579 209.974375 
L 343.749642 209.557052 
L 345.088705 209.149689 
L 346.427769 208.751855 
L 347.766832 208.363141 
L 349.105895 207.983166 
L 350.444959 207.611571 
L 351.784022 207.248019 
L 353.123085 206.89219 
L 354.462149 206.543786 
L 355.801212 206.202522 
L 357.140275 205.868132 
L 358.479339 205.540361 
L 359.818402 205.218969 
L 361.157466 204.90373 
L 362.496529 204.594428 
L 363.835592 204.290857 
L 365.174656 203.992823 
L 366.513719 203.700141 
L 367.852782 203.412634 
L 369.191846 203.130136 
L 370.530909 202.852485 
L 371.869972 202.579529 
L 373.209036 202.311123 
L 374.548099 202.047126 
L 375.887163 201.787407 
L 377.226226 201.531838 
L 378.565289 201.280297 
L 379.904353 201.032667 
L 381.243416 200.788837 
L 382.582479 200.5487 
L 383.921543 200.312152 
L 385.260606 200.079095 
L 386.599669 199.849435 
L 387.938733 199.62308 
L 389.277796 199.399943 
L 390.61686 199.17994 
L 391.955923 198.962989 
L 393.294986 198.749013 
L 394.63405 198.537937 
L 395.973113 198.329688 
L 397.312176 198.124197 
L 398.65124 197.921397 
L 399.990303 197.721222 
L 401.329366 197.52361 
L 402.66843 197.3285 
L 404.007493 197.135835 
L 405.346556 196.945557 
L 406.68562 196.757613 
L 408.024683 196.571949 
L 409.363747 196.388515 
L 410.70281 196.207261 
L 412.041873 196.028139 
L 413.380937 195.851103 
L 414.72 195.676109 
" clip-path="url(#pb7c82e8d39)" style="fill: none; stroke: #8c564b; stroke-width: 1.5; stroke-linecap: square"/>
   </g>
   <g id="patch_8">
    <path d="M 252.392727 307.584 
L 252.392727 41.472 
" style="fill: none; stroke: #000000; stroke-width: 0.8; stroke-linejoin: miter; stroke-linecap: square"/>
   </g>
   <g id="patch_9">
    <path d="M 414.72 307.584 
L 414.72 41.472 
" style="fill: none; stroke: #000000; stroke-width: 0.8; stroke-linejoin: miter; stroke-linecap: square"/>
   </g>
   <g id="patch_10">
    <path d="M 252.392727 307.584 
L 414.72 307.584 
" style="fill: none; stroke: #000000; stroke-width: 0.8; stroke-linejoin: miter; stroke-linecap: square"/>
   </g>
   <g id="patch_11">
    <path d="M 252.392727 41.472 
L 414.72 41.472 
" style="fill: none; stroke: #000000; stroke-width: 0.8; stroke-linejoin: miter; stroke-linecap: square"/>
   </g>
  </g>
  <g id="text_21">
   <!-- t = 0.1 -->
   <g transform="translate(209.664375 16.030125) scale(0.12 -0.12)">
    <defs>
     <path id="DejaVuSans-74" d="M 1172 4494 
L 1172 3500 
L 2356 3500 
L 2356 3053 
L 1172 3053 
L 1172 1153 
Q 1172 725 1289 603 
Q 1406 481 1766 481 
L 2356 481 
L 2356 0 
L 1766 0 
Q 1100 0 847 248 
Q 594 497 594 1153 
L 594 3053 
L 172 3053 
L 172 3500 
L 594 3500 
L 594 4494 
L 1172 4494 
z
" transform="scale(0.015625)"/>
     <path id="DejaVuSans-20" transform="scale(0.015625)"/>
     <path id="DejaVuSans-3d" d="M 678 2906 
L 4684 2906 
L 4684 2381 
L 678 2381 
L 678 2906 
z
M 678 1631 
L 4684 1631 
L 4684 1100 
L 678 1100 
L 678 1631 
z
" transform="scale(0.015625)"/>
    </defs>
    <use xlink:href="#DejaVuSans-74"/>
    <use xlink:href="#DejaVuSans-20" x="39.208984"/>
    <use xlink:href="#DejaVuSans-3d" x="70.996094"/>
    <use xlink:href="#DejaVuSans-20" x="154.785156"/>
    <use xlink:href="#DejaVuSans-30" x="186.572266"/>
    <use xlink:href="#DejaVuSans-2e" x="250.195312"/>
    <use xlink:href="#DejaVuSans-31" x="281.982422"/>
   </g>
  </g>
 </g>
 <defs>
  <clipPath id="p4c1f519176">
   <rect x="57.6" y="41.472" width="162.327273" height="266.112"/>
  </clipPath>
  <clipPath id="pb7c82e8d39">
   <rect x="252.392727" y="41.472" width="162.327273" height="266.112"/>
  </clipPath>
 </defs>
</svg>
