<?xml version="1.0" encoding="utf-8" standalone="no"?>
<!DOCTYPE svg PUBLIC "-//W3C//DTD SVG 1.1//EN"
  "http://www.w3.org/Graphics/SVG/1.1/DTD/svg11.dtd">
<svg xmlns:xlink="http://www.w3.org/1999/xlink" width="460.8pt" height="345.6pt" viewBox="0 0 460.8 345.6" xmlns="http://www.w3.org/2000/svg" version="1.1">
 <metadata>
  <rdf:RDF xmlns:dc="http://purl.org/dc/elements/1.1/" xmlns:cc="http://creativecommons.org/ns#" xmlns:rdf="http://www.w3.org/1999/02/22-rdf-syntax-ns#">
   <cc:Work>
    <dc:type rdf:resource="http://purl.org/dc/dcmitype/StillImage"/>
    <dc:date>2023-01-17T14:53:44.550103</dc:date>
    <dc:format>image/svg+xml</dc:format>
    <dc:creator>
     <cc:Agent>
      <dc:title>Matplotlib v3.6.3, https://matplotlib.org/</dc:title>
     </cc:Agent>
    </dc:creator>
   </cc:Work>
  </rdf:RDF>
 </metadata>
 <defs>
  <style type="text/css">*{stroke-linejoin: round; stroke-linecap: butt}</style>
 </defs>
 <g id="figure_1">
  <g id="patch_1">
   <path d="M 0 345.6 
L 460.8 345.6 
L 460.8 0 
L 0 0 
z
" style="fill: #ffffff"/>
  </g>
  <g id="axes_1">
   <g id="patch_2">
    <path d="M 57.6 307.584 
L 219.927273 307.584 
L 219.927273 41.472 
L 57.6 41.472 
z
" style="fill: #ffffff"/>
   </g>
   <g id="Quiver_1">
    <path d="M 65.291556 295.174956 
L 72.249641 302.133042 
L 72.562685 301.19391 
L 74.753992 305.263479 
L 70.684423 303.072173 
L 71.623554 302.759129 
L 64.665469 295.801044 
L 65.291556 295.174956 
" clip-path="url(#p9886c57df9)"/>
    <path d="M 80.081236 295.211441 
L 85.412587 301.875629 
L 85.827426 300.976811 
L 87.555921 305.263479 
L 83.753231 302.636167 
L 84.721189 302.428747 
L 79.389838 295.764559 
L 80.081236 295.211441 
" clip-path="url(#p9886c57df9)"/>
    <path d="M 94.872183 295.260227 
L 98.687516 301.619114 
L 99.218986 300.783948 
L 100.35785 305.263479 
L 96.941258 302.150584 
L 97.928273 302.07466 
L 94.112941 295.715773 
L 94.872183 295.260227 
" clip-path="url(#p9886c57df9)"/>
    <path d="M 109.660633 295.323581 
L 112.091057 301.399641 
L 112.748732 300.659757 
L 113.159778 305.263479 
L 110.282452 301.646269 
L 111.268964 301.728478 
L 108.83854 295.652419 
L 109.660633 295.323581 
" clip-path="url(#p9886c57df9)"/>
    <path d="M 124.440725 295.401177 
L 125.614417 301.269634 
L 126.395821 300.661875 
L 125.961707 305.263479 
L 123.791139 301.182811 
L 124.746189 301.44328 
L 123.572498 295.574823 
L 124.440725 295.401177 
" clip-path="url(#p9886c57df9)"/>
    <path d="M 139.206347 295.488 
L 139.206347 301.279083 
L 140.091769 300.836372 
L 138.763636 305.263479 
L 137.435504 300.836372 
L 138.320926 301.279083 
L 138.320926 295.488 
L 139.206347 295.488 
" clip-path="url(#p9886c57df9)"/>
    <path d="M 153.954775 295.574823 
L 152.781083 301.44328 
L 153.736133 301.182811 
L 151.565565 305.263479 
L 151.131452 300.661875 
L 151.912856 301.269634 
L 153.086548 295.401177 
L 153.954775 295.574823 
" clip-path="url(#p9886c57df9)"/>
    <path d="M 168.688733 295.652419 
L 166.258309 301.728478 
L 167.244821 301.646269 
L 164.367494 305.263479 
L 164.778541 300.659757 
L 165.436215 301.399641 
L 167.866639 295.323581 
L 168.688733 295.652419 
" clip-path="url(#p9886c57df9)"/>
    <path d="M 183.414332 295.715773 
L 179.599 302.07466 
L 180.586015 302.150584 
L 177.169423 305.263479 
L 178.308287 300.783948 
L 178.839757 301.619114 
L 182.655089 295.260227 
L 183.414332 295.715773 
" clip-path="url(#p9886c57df9)"/>
    <path d="M 198.137435 295.764559 
L 192.806084 302.428747 
L 193.774041 302.636167 
L 189.971352 305.263479 
L 191.699847 300.976811 
L 192.114686 301.875629 
L 197.446037 295.211441 
L 198.137435 295.764559 
" clip-path="url(#p9886c57df9)"/>
    <path d="M 212.861804 295.801044 
L 205.903719 302.759129 
L 206.84285 303.072173 
L 202.773281 305.263479 
L 204.964588 301.19391 
L 205.277631 302.133042 
L 212.235717 295.174956 
L 212.861804 295.801044 
" clip-path="url(#p9886c57df9)"/>
    <path d="M 65.255072 270.950301 
L 71.91926 276.281651 
L 72.126679 275.313694 
L 74.753992 279.116383 
L 70.467324 277.387888 
L 71.366141 276.973049 
L 64.701953 271.641699 
L 65.255072 270.950301 
" clip-path="url(#p9886c57df9)"/>
    <path d="M 80.048581 270.982956 
L 85.05157 275.985946 
L 85.364614 275.046814 
L 87.555921 279.116383 
L 83.486352 276.925077 
L 84.425483 276.612033 
L 79.422493 271.609044 
L 80.048581 270.982956 
" clip-path="url(#p9886c57df9)"/>
    <path d="M 94.846731 271.030374 
L 98.32138 275.66324 
L 98.764091 274.777818 
L 100.35785 279.116383 
L 96.639079 276.371577 
L 97.613043 276.194492 
L 94.138393 271.561626 
L 94.846731 271.030374 
" clip-path="url(#p9886c57df9)"/>
    <path d="M 109.645559 271.098014 
L 111.773875 275.354644 
L 112.367833 274.562699 
L 113.159778 279.116383 
L 109.991998 275.750617 
L 110.98193 275.750617 
L 108.853614 271.493986 
L 109.645559 271.098014 
" clip-path="url(#p9886c57df9)"/>
    <path d="M 124.436104 271.188627 
L 125.424842 275.143578 
L 126.176454 274.499339 
L 125.961707 279.116383 
L 123.599499 275.143578 
L 124.565857 275.358324 
L 123.577119 271.403373 
L 124.436104 271.188627 
" clip-path="url(#p9886c57df9)"/>
    <path d="M 139.206347 271.296 
L 139.206347 275.131987 
L 140.091769 274.689276 
L 138.763636 279.116383 
L 137.435504 274.689276 
L 138.320926 275.131987 
L 138.320926 271.296 
L 139.206347 271.296 
" clip-path="url(#p9886c57df9)"/>
    <path d="M 153.950154 271.403373 
L 152.961416 275.358324 
L 153.927774 275.143578 
L 151.565565 279.116383 
L 151.350819 274.499339 
L 152.102431 275.143578 
L 153.091169 271.188627 
L 153.950154 271.403373 
" clip-path="url(#p9886c57df9)"/>
    <path d="M 168.673658 271.493986 
L 166.545343 275.750617 
L 167.535274 275.750617 
L 164.367494 279.116383 
L 165.159439 274.562699 
L 165.753398 275.354644 
L 167.881713 271.098014 
L 168.673658 271.493986 
" clip-path="url(#p9886c57df9)"/>
    <path d="M 183.388879 271.561626 
L 179.91423 276.194492 
L 180.888193 276.371577 
L 177.169423 279.116383 
L 178.763182 274.777818 
L 179.205893 275.66324 
L 182.680542 271.030374 
L 183.388879 271.561626 
" clip-path="url(#p9886c57df9)"/>
    <path d="M 198.104779 271.609044 
L 193.10179 276.612033 
L 194.040921 276.925077 
L 189.971352 279.116383 
L 192.162659 275.046814 
L 192.475702 275.985946 
L 197.478692 270.982956 
L 198.104779 271.609044 
" clip-path="url(#p9886c57df9)"/>
    <path d="M 212.82532 271.641699 
L 206.161131 276.973049 
L 207.059949 277.387888 
L 202.773281 279.116383 
L 205.400594 275.313694 
L 205.608013 276.281651 
L 212.272201 270.950301 
L 212.82532 271.641699 
" clip-path="url(#p9886c57df9)"/>
    <path d="M 65.206285 246.724379 
L 71.565172 250.539711 
L 71.641097 249.552696 
L 74.753992 252.969288 
L 70.27446 251.830424 
L 71.109627 251.298954 
L 64.75074 247.483621 
L 65.206285 246.724379 
" clip-path="url(#p9886c57df9)"/>
    <path d="M 80.001164 246.749831 
L 84.63403 250.224481 
L 84.811114 249.250517 
L 87.555921 252.969288 
L 83.217355 251.375529 
L 84.102777 250.932818 
L 79.469911 247.458169 
L 80.001164 246.749831 
" clip-path="url(#p9886c57df9)"/>
    <path d="M 94.805606 246.790956 
L 97.853499 249.83885 
L 98.166543 248.899719 
L 100.35785 252.969288 
L 96.288281 250.777981 
L 97.227412 250.464937 
L 94.179518 247.417044 
L 94.805606 246.790956 
" clip-path="url(#p9886c57df9)"/>
    <path d="M 109.617944 246.858428 
L 111.31799 249.408497 
L 111.809134 248.548996 
L 113.159778 252.969288 
L 109.598988 250.022427 
L 110.581275 249.899641 
L 108.881229 247.349572 
L 109.617944 246.858428 
" clip-path="url(#p9886c57df9)"/>
    <path d="M 124.426604 246.964003 
L 125.121723 249.04936 
L 125.82171 248.349372 
L 125.961707 252.969288 
L 123.301756 249.189357 
L 124.281738 249.329354 
L 123.586619 247.243997 
L 124.426604 246.964003 
" clip-path="url(#p9886c57df9)"/>
    <path d="M 139.206347 247.104 
L 139.206347 248.984891 
L 140.091769 248.54218 
L 138.763636 252.969288 
L 137.435504 248.54218 
L 138.320926 248.984891 
L 138.320926 247.104 
L 139.206347 247.104 
" clip-path="url(#p9886c57df9)"/>
    <path d="M 153.940653 247.243997 
L 153.245534 249.329354 
L 154.225516 249.189357 
L 151.565565 252.969288 
L 151.705563 248.349372 
L 152.40555 249.04936 
L 153.100669 246.964003 
L 153.940653 247.243997 
" clip-path="url(#p9886c57df9)"/>
    <path d="M 168.646044 247.349572 
L 166.945997 249.899641 
L 167.928284 250.022427 
L 164.367494 252.969288 
L 165.718139 248.548996 
L 166.209282 249.408497 
L 167.909328 246.858428 
L 168.646044 247.349572 
" clip-path="url(#p9886c57df9)"/>
    <path d="M 183.347755 247.417044 
L 180.299861 250.464937 
L 181.238992 250.777981 
L 177.169423 252.969288 
L 179.36073 248.899719 
L 179.673773 249.83885 
L 182.721667 246.790956 
L 183.347755 247.417044 
" clip-path="url(#p9886c57df9)"/>
    <path d="M 198.057362 247.458169 
L 193.424496 250.932818 
L 194.309917 251.375529 
L 189.971352 252.969288 
L 192.716159 249.250517 
L 192.893243 250.224481 
L 197.526109 246.749831 
L 198.057362 247.458169 
" clip-path="url(#p9886c57df9)"/>
    <path d="M 212.776533 247.483621 
L 206.417646 251.298954 
L 207.252813 251.830424 
L 202.773281 252.969288 
L 205.886176 249.552696 
L 205.9621 250.539711 
L 212.320988 246.724379 
L 212.776533 247.483621 
" clip-path="url(#p9886c57df9)"/>
    <path d="M 65.142931 222.500953 
L 71.218991 224.931377 
L 71.136781 223.944865 
L 74.753992 226.822192 
L 70.15027 226.411145 
L 70.890154 225.753471 
L 64.814094 223.323047 
L 65.142931 222.500953 
" clip-path="url(#p9886c57df9)"/>
    <path d="M 79.933523 222.516027 
L 84.190154 224.644343 
L 84.190154 223.654411 
L 87.555921 226.822192 
L 83.002236 226.030247 
L 83.794182 225.436288 
L 79.537551 223.307973 
L 79.933523 222.516027 
" clip-path="url(#p9886c57df9)"/>
    <path d="M 94.738134 222.543642 
L 97.288203 224.243688 
L 97.410989 223.261402 
L 100.35785 226.822192 
L 95.937558 225.471547 
L 96.797059 224.980404 
L 94.24699 223.280358 
L 94.738134 222.543642 
" clip-path="url(#p9886c57df9)"/>
    <path d="M 109.562631 222.598956 
L 110.655428 223.691754 
L 110.968472 222.752623 
L 113.159778 226.822192 
L 109.090209 224.630885 
L 110.029341 224.317842 
L 108.936543 223.225044 
L 109.562631 222.598956 
" clip-path="url(#p9886c57df9)"/>
    <path d="M 124.397631 222.71649 
L 124.59314 223.10751 
L 125.179669 222.325471 
L 125.961707 226.822192 
L 122.833554 223.498529 
L 123.811102 223.498529 
L 123.615592 223.10751 
L 124.397631 222.71649 
" clip-path="url(#p9886c57df9)"/>
    <path d="M 139.154656 222.912 
L 139.154656 223.303019 
L 139.936694 222.912 
L 138.763636 226.822192 
L 137.590579 222.912 
L 138.372617 223.303019 
L 138.372617 222.912 
L 139.154656 222.912 
" clip-path="url(#p9886c57df9)"/>
    <path d="M 153.91168 223.10751 
L 153.716171 223.498529 
L 154.693719 223.498529 
L 151.565565 226.822192 
L 152.347604 222.325471 
L 152.934132 223.10751 
L 153.129642 222.71649 
L 153.91168 223.10751 
" clip-path="url(#p9886c57df9)"/>
    <path d="M 168.59073 223.225044 
L 167.497932 224.317842 
L 168.437063 224.630885 
L 164.367494 226.822192 
L 166.558801 222.752623 
L 166.871844 223.691754 
L 167.964642 222.598956 
L 168.59073 223.225044 
" clip-path="url(#p9886c57df9)"/>
    <path d="M 183.280282 223.280358 
L 180.730213 224.980404 
L 181.589714 225.471547 
L 177.169423 226.822192 
L 180.116284 223.261402 
L 180.23907 224.243688 
L 182.789139 222.543642 
L 183.280282 223.280358 
" clip-path="url(#p9886c57df9)"/>
    <path d="M 197.989722 223.307973 
L 193.733091 225.436288 
L 194.525036 226.030247 
L 189.971352 226.822192 
L 193.337119 223.654411 
L 193.337119 224.644343 
L 197.593749 222.516027 
L 197.989722 223.307973 
" clip-path="url(#p9886c57df9)"/>
    <path d="M 212.713179 223.323047 
L 206.637119 225.753471 
L 207.377003 226.411145 
L 202.773281 226.822192 
L 206.390491 223.944865 
L 206.308282 224.931377 
L 212.384342 222.500953 
L 212.713179 223.323047 
" clip-path="url(#p9886c57df9)"/>
    <path d="M 65.065335 198.285886 
L 70.933792 199.459578 
L 70.673324 198.504528 
L 74.753992 200.675096 
L 70.152387 201.109209 
L 70.760146 200.327805 
L 64.89169 199.154114 
L 65.065335 198.285886 
" clip-path="url(#p9886c57df9)"/>
    <path d="M 79.84291 198.290507 
L 83.797861 199.279245 
L 83.583115 198.312887 
L 87.555921 200.675096 
L 82.938876 200.889842 
L 83.583115 200.13823 
L 79.628164 199.149493 
L 79.84291 198.290507 
" clip-path="url(#p9886c57df9)"/>
    <path d="M 94.632559 198.300008 
L 96.717916 198.995127 
L 96.577919 198.015145 
L 100.35785 200.675096 
L 95.737934 200.535098 
L 96.437921 199.835111 
L 94.352565 199.139992 
L 94.632559 198.300008 
" clip-path="url(#p9886c57df9)"/>
    <path d="M 109.445096 198.328981 
L 109.836116 198.52449 
L 109.836116 197.546942 
L 113.159778 200.675096 
L 108.663058 199.893058 
L 109.445096 199.306529 
L 109.054077 199.111019 
L 109.445096 198.328981 
" clip-path="url(#p9886c57df9)"/>
    <path d="M 124.202121 198.52449 
L 124.397631 198.72 
L 124.59314 198.133471 
L 125.961707 200.675096 
L 123.420083 199.306529 
L 124.006612 199.111019 
L 123.811102 198.91551 
L 124.202121 198.52449 
" clip-path="url(#p9886c57df9)"/>
    <path d="M 138.959146 198.72 
L 138.959146 198.91551 
L 139.350165 198.72 
L 138.763636 200.675096 
L 138.177108 198.72 
L 138.568127 198.91551 
L 138.568127 198.72 
L 138.959146 198.72 
" clip-path="url(#p9886c57df9)"/>
    <path d="M 153.716171 198.91551 
L 153.520661 199.111019 
L 154.10719 199.306529 
L 151.565565 200.675096 
L 152.934132 198.133471 
L 153.129642 198.72 
L 153.325152 198.52449 
L 153.716171 198.91551 
" clip-path="url(#p9886c57df9)"/>
    <path d="M 168.473196 199.111019 
L 168.082176 199.306529 
L 168.864215 199.893058 
L 164.367494 200.675096 
L 167.691157 197.546942 
L 167.691157 198.52449 
L 168.082176 198.328981 
L 168.473196 199.111019 
" clip-path="url(#p9886c57df9)"/>
    <path d="M 183.174708 199.139992 
L 181.089351 199.835111 
L 181.789338 200.535098 
L 177.169423 200.675096 
L 180.949354 198.015145 
L 180.809356 198.995127 
L 182.894713 198.300008 
L 183.174708 199.139992 
" clip-path="url(#p9886c57df9)"/>
    <path d="M 197.899109 199.149493 
L 193.944158 200.13823 
L 194.588397 200.889842 
L 189.971352 200.675096 
L 193.944158 198.312887 
L 193.729412 199.279245 
L 197.684362 198.290507 
L 197.899109 199.149493 
" clip-path="url(#p9886c57df9)"/>
    <path d="M 212.635583 199.154114 
L 206.767126 200.327805 
L 207.374885 201.109209 
L 202.773281 200.675096 
L 206.853949 198.504528 
L 206.593481 199.459578 
L 212.461938 198.285886 
L 212.635583 199.154114 
" clip-path="url(#p9886c57df9)"/>
    <path d="M 64.978512 174.085289 
L 70.769595 174.085289 
L 70.326884 173.199868 
L 74.753992 174.528 
L 70.326884 175.856132 
L 70.769595 174.970711 
L 64.978512 174.970711 
L 64.978512 174.085289 
" clip-path="url(#p9886c57df9)"/>
    <path d="M 79.735537 174.085289 
L 83.571524 174.085289 
L 83.128813 173.199868 
L 87.555921 174.528 
L 83.128813 175.856132 
L 83.571524 174.970711 
L 79.735537 174.970711 
L 79.735537 174.085289 
" clip-path="url(#p9886c57df9)"/>
    <path d="M 94.492562 174.085289 
L 96.373453 174.085289 
L 95.930742 173.199868 
L 100.35785 174.528 
L 95.930742 175.856132 
L 96.373453 174.970711 
L 94.492562 174.970711 
L 94.492562 174.085289 
" clip-path="url(#p9886c57df9)"/>
    <path d="M 109.249587 174.136981 
L 109.640606 174.136981 
L 109.249587 173.354942 
L 113.159778 174.528 
L 109.249587 175.701058 
L 109.640606 174.919019 
L 109.249587 174.919019 
L 109.249587 174.136981 
" clip-path="url(#p9886c57df9)"/>
    <path d="M 124.006612 174.33249 
L 124.202121 174.33249 
L 124.006612 173.941471 
L 125.961707 174.528 
L 124.006612 175.114529 
L 124.202121 174.72351 
L 124.006612 174.72351 
L 124.006612 174.33249 
" clip-path="url(#p9886c57df9)"/>
    <path d="M 139.206347 174.528 
L 138.984992 174.144601 
L 138.542281 174.144601 
L 138.320926 174.528 
L 138.542281 174.911399 
L 138.984992 174.911399 
L 139.206347 174.528 
L 138.984992 174.144601 
" clip-path="url(#p9886c57df9)"/>
    <path d="M 153.520661 174.72351 
L 153.325152 174.72351 
L 153.520661 175.114529 
L 151.565565 174.528 
L 153.520661 173.941471 
L 153.325152 174.33249 
L 153.520661 174.33249 
L 153.520661 174.72351 
" clip-path="url(#p9886c57df9)"/>
    <path d="M 168.277686 174.919019 
L 167.886667 174.919019 
L 168.277686 175.701058 
L 164.367494 174.528 
L 168.277686 173.354942 
L 167.886667 174.136981 
L 168.277686 174.136981 
L 168.277686 174.919019 
" clip-path="url(#p9886c57df9)"/>
    <path d="M 183.034711 174.970711 
L 181.15382 174.970711 
L 181.596531 175.856132 
L 177.169423 174.528 
L 181.596531 173.199868 
L 181.15382 174.085289 
L 183.034711 174.085289 
L 183.034711 174.970711 
" clip-path="url(#p9886c57df9)"/>
    <path d="M 197.791736 174.970711 
L 193.955749 174.970711 
L 194.39846 175.856132 
L 189.971352 174.528 
L 194.39846 173.199868 
L 193.955749 174.085289 
L 197.791736 174.085289 
L 197.791736 174.970711 
" clip-path="url(#p9886c57df9)"/>
    <path d="M 212.54876 174.970711 
L 206.757678 174.970711 
L 207.200389 175.856132 
L 202.773281 174.528 
L 207.200389 173.199868 
L 206.757678 174.085289 
L 212.54876 174.085289 
L 212.54876 174.970711 
" clip-path="url(#p9886c57df9)"/>
    <path d="M 64.89169 149.901886 
L 70.760146 148.728195 
L 70.152387 147.946791 
L 74.753992 148.380904 
L 70.673324 150.551472 
L 70.933792 149.596422 
L 65.065335 150.770114 
L 64.89169 149.901886 
" clip-path="url(#p9886c57df9)"/>
    <path d="M 79.628164 149.906507 
L 83.583115 148.91777 
L 82.938876 148.166158 
L 87.555921 148.380904 
L 83.583115 150.743113 
L 83.797861 149.776755 
L 79.84291 150.765493 
L 79.628164 149.906507 
" clip-path="url(#p9886c57df9)"/>
    <path d="M 94.352565 149.916008 
L 96.437921 149.220889 
L 95.737934 148.520902 
L 100.35785 148.380904 
L 96.577919 151.040855 
L 96.717916 150.060873 
L 94.632559 150.755992 
L 94.352565 149.916008 
" clip-path="url(#p9886c57df9)"/>
    <path d="M 109.054077 149.944981 
L 109.445096 149.749471 
L 108.663058 149.162942 
L 113.159778 148.380904 
L 109.836116 151.509058 
L 109.836116 150.53151 
L 109.445096 150.727019 
L 109.054077 149.944981 
" clip-path="url(#p9886c57df9)"/>
    <path d="M 123.811102 150.14049 
L 124.006612 149.944981 
L 123.420083 149.749471 
L 125.961707 148.380904 
L 124.59314 150.922529 
L 124.397631 150.336 
L 124.202121 150.53151 
L 123.811102 150.14049 
" clip-path="url(#p9886c57df9)"/>
    <path d="M 138.568127 150.336 
L 138.568127 150.14049 
L 138.177108 150.336 
L 138.763636 148.380904 
L 139.350165 150.336 
L 138.959146 150.14049 
L 138.959146 150.336 
L 138.568127 150.336 
" clip-path="url(#p9886c57df9)"/>
    <path d="M 153.325152 150.53151 
L 153.129642 150.336 
L 152.934132 150.922529 
L 151.565565 148.380904 
L 154.10719 149.749471 
L 153.520661 149.944981 
L 153.716171 150.14049 
L 153.325152 150.53151 
" clip-path="url(#p9886c57df9)"/>
    <path d="M 168.082176 150.727019 
L 167.691157 150.53151 
L 167.691157 151.509058 
L 164.367494 148.380904 
L 168.864215 149.162942 
L 168.082176 149.749471 
L 168.473196 149.944981 
L 168.082176 150.727019 
" clip-path="url(#p9886c57df9)"/>
    <path d="M 182.894713 150.755992 
L 180.809356 150.060873 
L 180.949354 151.040855 
L 177.169423 148.380904 
L 181.789338 148.520902 
L 181.089351 149.220889 
L 183.174708 149.916008 
L 182.894713 150.755992 
" clip-path="url(#p9886c57df9)"/>
    <path d="M 197.684362 150.765493 
L 193.729412 149.776755 
L 193.944158 150.743113 
L 189.971352 148.380904 
L 194.588397 148.166158 
L 193.944158 148.91777 
L 197.899109 149.906507 
L 197.684362 150.765493 
" clip-path="url(#p9886c57df9)"/>
    <path d="M 212.461938 150.770114 
L 206.593481 149.596422 
L 206.853949 150.551472 
L 202.773281 148.380904 
L 207.374885 147.946791 
L 206.767126 148.728195 
L 212.635583 149.901886 
L 212.461938 150.770114 
" clip-path="url(#p9886c57df9)"/>
    <path d="M 64.814094 125.732953 
L 70.890154 123.302529 
L 70.15027 122.644855 
L 74.753992 122.233808 
L 71.136781 125.111135 
L 71.218991 124.124623 
L 65.142931 126.555047 
L 64.814094 125.732953 
" clip-path="url(#p9886c57df9)"/>
    <path d="M 79.537551 125.748027 
L 83.794182 123.619712 
L 83.002236 123.025753 
L 87.555921 122.233808 
L 84.190154 125.401589 
L 84.190154 124.411657 
L 79.933523 126.539973 
L 79.537551 125.748027 
" clip-path="url(#p9886c57df9)"/>
    <path d="M 94.24699 125.775642 
L 96.797059 124.075596 
L 95.937558 123.584453 
L 100.35785 122.233808 
L 97.410989 125.794598 
L 97.288203 124.812312 
L 94.738134 126.512358 
L 94.24699 125.775642 
" clip-path="url(#p9886c57df9)"/>
    <path d="M 108.936543 125.830956 
L 110.029341 124.738158 
L 109.090209 124.425115 
L 113.159778 122.233808 
L 110.968472 126.303377 
L 110.655428 125.364246 
L 109.562631 126.457044 
L 108.936543 125.830956 
" clip-path="url(#p9886c57df9)"/>
    <path d="M 123.615592 125.94849 
L 123.811102 125.557471 
L 122.833554 125.557471 
L 125.961707 122.233808 
L 125.179669 126.730529 
L 124.59314 125.94849 
L 124.397631 126.33951 
L 123.615592 125.94849 
" clip-path="url(#p9886c57df9)"/>
    <path d="M 138.372617 126.144 
L 138.372617 125.752981 
L 137.590579 126.144 
L 138.763636 122.233808 
L 139.936694 126.144 
L 139.154656 125.752981 
L 139.154656 126.144 
L 138.372617 126.144 
" clip-path="url(#p9886c57df9)"/>
    <path d="M 153.129642 126.33951 
L 152.934132 125.94849 
L 152.347604 126.730529 
L 151.565565 122.233808 
L 154.693719 125.557471 
L 153.716171 125.557471 
L 153.91168 125.94849 
L 153.129642 126.33951 
" clip-path="url(#p9886c57df9)"/>
    <path d="M 167.964642 126.457044 
L 166.871844 125.364246 
L 166.558801 126.303377 
L 164.367494 122.233808 
L 168.437063 124.425115 
L 167.497932 124.738158 
L 168.59073 125.830956 
L 167.964642 126.457044 
" clip-path="url(#p9886c57df9)"/>
    <path d="M 182.789139 126.512358 
L 180.23907 124.812312 
L 180.116284 125.794598 
L 177.169423 122.233808 
L 181.589714 123.584453 
L 180.730213 124.075596 
L 183.280282 125.775642 
L 182.789139 126.512358 
" clip-path="url(#p9886c57df9)"/>
    <path d="M 197.593749 126.539973 
L 193.337119 124.411657 
L 193.337119 125.401589 
L 189.971352 122.233808 
L 194.525036 123.025753 
L 193.733091 123.619712 
L 197.989722 125.748027 
L 197.593749 126.539973 
" clip-path="url(#p9886c57df9)"/>
    <path d="M 212.384342 126.555047 
L 206.308282 124.124623 
L 206.390491 125.111135 
L 202.773281 122.233808 
L 207.377003 122.644855 
L 206.637119 123.302529 
L 212.713179 125.732953 
L 212.384342 126.555047 
" clip-path="url(#p9886c57df9)"/>
    <path d="M 64.75074 101.572379 
L 71.109627 97.757046 
L 70.27446 97.225576 
L 74.753992 96.086712 
L 71.641097 99.503304 
L 71.565172 98.516289 
L 65.206285 102.331621 
L 64.75074 101.572379 
" clip-path="url(#p9886c57df9)"/>
    <path d="M 79.469911 101.597831 
L 84.102777 98.123182 
L 83.217355 97.680471 
L 87.555921 96.086712 
L 84.811114 99.805483 
L 84.63403 98.831519 
L 80.001164 102.306169 
L 79.469911 101.597831 
" clip-path="url(#p9886c57df9)"/>
    <path d="M 94.179518 101.638956 
L 97.227412 98.591063 
L 96.288281 98.278019 
L 100.35785 96.086712 
L 98.166543 100.156281 
L 97.853499 99.21715 
L 94.805606 102.265044 
L 94.179518 101.638956 
" clip-path="url(#p9886c57df9)"/>
    <path d="M 108.881229 101.706428 
L 110.581275 99.156359 
L 109.598988 99.033573 
L 113.159778 96.086712 
L 111.809134 100.507004 
L 111.31799 99.647503 
L 109.617944 102.197572 
L 108.881229 101.706428 
" clip-path="url(#p9886c57df9)"/>
    <path d="M 123.586619 101.812003 
L 124.281738 99.726646 
L 123.301756 99.866643 
L 125.961707 96.086712 
L 125.82171 100.706628 
L 125.121723 100.00664 
L 124.426604 102.091997 
L 123.586619 101.812003 
" clip-path="url(#p9886c57df9)"/>
    <path d="M 138.320926 101.952 
L 138.320926 100.071109 
L 137.435504 100.51382 
L 138.763636 96.086712 
L 140.091769 100.51382 
L 139.206347 100.071109 
L 139.206347 101.952 
L 138.320926 101.952 
" clip-path="url(#p9886c57df9)"/>
    <path d="M 153.100669 102.091997 
L 152.40555 100.00664 
L 151.705563 100.706628 
L 151.565565 96.086712 
L 154.225516 99.866643 
L 153.245534 99.726646 
L 153.940653 101.812003 
L 153.100669 102.091997 
" clip-path="url(#p9886c57df9)"/>
    <path d="M 167.909328 102.197572 
L 166.209282 99.647503 
L 165.718139 100.507004 
L 164.367494 96.086712 
L 167.928284 99.033573 
L 166.945997 99.156359 
L 168.646044 101.706428 
L 167.909328 102.197572 
" clip-path="url(#p9886c57df9)"/>
    <path d="M 182.721667 102.265044 
L 179.673773 99.21715 
L 179.36073 100.156281 
L 177.169423 96.086712 
L 181.238992 98.278019 
L 180.299861 98.591063 
L 183.347755 101.638956 
L 182.721667 102.265044 
" clip-path="url(#p9886c57df9)"/>
    <path d="M 197.526109 102.306169 
L 192.893243 98.831519 
L 192.716159 99.805483 
L 189.971352 96.086712 
L 194.309917 97.680471 
L 193.424496 98.123182 
L 198.057362 101.597831 
L 197.526109 102.306169 
" clip-path="url(#p9886c57df9)"/>
    <path d="M 212.320988 102.331621 
L 205.9621 98.516289 
L 205.886176 99.503304 
L 202.773281 96.086712 
L 207.252813 97.225576 
L 206.417646 97.757046 
L 212.776533 101.572379 
L 212.320988 102.331621 
" clip-path="url(#p9886c57df9)"/>
    <path d="M 64.701953 77.414301 
L 71.366141 72.082951 
L 70.467324 71.668112 
L 74.753992 69.939617 
L 72.126679 73.742306 
L 71.91926 72.774349 
L 65.255072 78.105699 
L 64.701953 77.414301 
" clip-path="url(#p9886c57df9)"/>
    <path d="M 79.422493 77.446956 
L 84.425483 72.443967 
L 83.486352 72.130923 
L 87.555921 69.939617 
L 85.364614 74.009186 
L 85.05157 73.070054 
L 80.048581 78.073044 
L 79.422493 77.446956 
" clip-path="url(#p9886c57df9)"/>
    <path d="M 94.138393 77.494374 
L 97.613043 72.861508 
L 96.639079 72.684423 
L 100.35785 69.939617 
L 98.764091 74.278182 
L 98.32138 73.39276 
L 94.846731 78.025626 
L 94.138393 77.494374 
" clip-path="url(#p9886c57df9)"/>
    <path d="M 108.853614 77.562014 
L 110.98193 73.305383 
L 109.991998 73.305383 
L 113.159778 69.939617 
L 112.367833 74.493301 
L 111.773875 73.701356 
L 109.645559 77.957986 
L 108.853614 77.562014 
" clip-path="url(#p9886c57df9)"/>
    <path d="M 123.577119 77.652627 
L 124.565857 73.697676 
L 123.599499 73.912422 
L 125.961707 69.939617 
L 126.176454 74.556661 
L 125.424842 73.912422 
L 124.436104 77.867373 
L 123.577119 77.652627 
" clip-path="url(#p9886c57df9)"/>
    <path d="M 138.320926 77.76 
L 138.320926 73.924013 
L 137.435504 74.366724 
L 138.763636 69.939617 
L 140.091769 74.366724 
L 139.206347 73.924013 
L 139.206347 77.76 
L 138.320926 77.76 
" clip-path="url(#p9886c57df9)"/>
    <path d="M 153.091169 77.867373 
L 152.102431 73.912422 
L 151.350819 74.556661 
L 151.565565 69.939617 
L 153.927774 73.912422 
L 152.961416 73.697676 
L 153.950154 77.652627 
L 153.091169 77.867373 
" clip-path="url(#p9886c57df9)"/>
    <path d="M 167.881713 77.957986 
L 165.753398 73.701356 
L 165.159439 74.493301 
L 164.367494 69.939617 
L 167.535274 73.305383 
L 166.545343 73.305383 
L 168.673658 77.562014 
L 167.881713 77.957986 
" clip-path="url(#p9886c57df9)"/>
    <path d="M 182.680542 78.025626 
L 179.205893 73.39276 
L 178.763182 74.278182 
L 177.169423 69.939617 
L 180.888193 72.684423 
L 179.91423 72.861508 
L 183.388879 77.494374 
L 182.680542 78.025626 
" clip-path="url(#p9886c57df9)"/>
    <path d="M 197.478692 78.073044 
L 192.475702 73.070054 
L 192.162659 74.009186 
L 189.971352 69.939617 
L 194.040921 72.130923 
L 193.10179 72.443967 
L 198.104779 77.446956 
L 197.478692 78.073044 
" clip-path="url(#p9886c57df9)"/>
    <path d="M 212.272201 78.105699 
L 205.608013 72.774349 
L 205.400594 73.742306 
L 202.773281 69.939617 
L 207.059949 71.668112 
L 206.161131 72.082951 
L 212.82532 77.414301 
L 212.272201 78.105699 
" clip-path="url(#p9886c57df9)"/>
    <path d="M 64.665469 53.254956 
L 71.623554 46.296871 
L 70.684423 45.983827 
L 74.753992 43.792521 
L 72.562685 47.86209 
L 72.249641 46.922958 
L 65.291556 53.881044 
L 64.665469 53.254956 
" clip-path="url(#p9886c57df9)"/>
    <path d="M 79.389838 53.291441 
L 84.721189 46.627253 
L 83.753231 46.419833 
L 87.555921 43.792521 
L 85.827426 48.079189 
L 85.412587 47.180371 
L 80.081236 53.844559 
L 79.389838 53.291441 
" clip-path="url(#p9886c57df9)"/>
    <path d="M 94.112941 53.340227 
L 97.928273 46.98134 
L 96.941258 46.905416 
L 100.35785 43.792521 
L 99.218986 48.272052 
L 98.687516 47.436886 
L 94.872183 53.795773 
L 94.112941 53.340227 
" clip-path="url(#p9886c57df9)"/>
    <path d="M 108.83854 53.403581 
L 111.268964 47.327522 
L 110.282452 47.409731 
L 113.159778 43.792521 
L 112.748732 48.396243 
L 112.091057 47.656359 
L 109.660633 53.732419 
L 108.83854 53.403581 
" clip-path="url(#p9886c57df9)"/>
    <path d="M 123.572498 53.481177 
L 124.746189 47.61272 
L 123.791139 47.873189 
L 125.961707 43.792521 
L 126.395821 48.394125 
L 125.614417 47.786366 
L 124.440725 53.654823 
L 123.572498 53.481177 
" clip-path="url(#p9886c57df9)"/>
    <path d="M 138.320926 53.568 
L 138.320926 47.776917 
L 137.435504 48.219628 
L 138.763636 43.792521 
L 140.091769 48.219628 
L 139.206347 47.776917 
L 139.206347 53.568 
L 138.320926 53.568 
" clip-path="url(#p9886c57df9)"/>
    <path d="M 153.086548 53.654823 
L 151.912856 47.786366 
L 151.131452 48.394125 
L 151.565565 43.792521 
L 153.736133 47.873189 
L 152.781083 47.61272 
L 153.954775 53.481177 
L 153.086548 53.654823 
" clip-path="url(#p9886c57df9)"/>
    <path d="M 167.866639 53.732419 
L 165.436215 47.656359 
L 164.778541 48.396243 
L 164.367494 43.792521 
L 167.244821 47.409731 
L 166.258309 47.327522 
L 168.688733 53.403581 
L 167.866639 53.732419 
" clip-path="url(#p9886c57df9)"/>
    <path d="M 182.655089 53.795773 
L 178.839757 47.436886 
L 178.308287 48.272052 
L 177.169423 43.792521 
L 180.586015 46.905416 
L 179.599 46.98134 
L 183.414332 53.340227 
L 182.655089 53.795773 
" clip-path="url(#p9886c57df9)"/>
    <path d="M 197.446037 53.844559 
L 192.114686 47.180371 
L 191.699847 48.079189 
L 189.971352 43.792521 
L 193.774041 46.419833 
L 192.806084 46.627253 
L 198.137435 53.291441 
L 197.446037 53.844559 
" clip-path="url(#p9886c57df9)"/>
    <path d="M 212.235717 53.881044 
L 205.277631 46.922958 
L 204.964588 47.86209 
L 202.773281 43.792521 
L 206.84285 45.983827 
L 205.903719 46.296871 
L 212.861804 53.254956 
L 212.235717 53.881044 
" clip-path="url(#p9886c57df9)"/>
   </g>
   <g id="matplotlib.axis_1">
    <g id="xtick_1">
     <g id="line2d_1">
      <defs>
       <path id="mbafdd32df5" d="M 0 0 
L 0 3.5 
" style="stroke: #000000; stroke-width: 0.8"/>
      </defs>
      <g>
       <use xlink:href="#mbafdd32df5" x="64.978512" y="307.584" style="stroke: #000000; stroke-width: 0.8"/>
      </g>
     </g>
     <g id="text_1">
      <!-- −5.0 -->
      <g transform="translate(52.837106 322.182437) scale(0.1 -0.1)">
       <defs>
        <path id="DejaVuSans-2212" d="M 678 2272 
L 4684 2272 
L 4684 1741 
L 678 1741 
L 678 2272 
z
" transform="scale(0.015625)"/>
        <path id="DejaVuSans-35" d="M 691 4666 
L 3169 4666 
L 3169 4134 
L 1269 4134 
L 1269 2991 
Q 1406 3038 1543 3061 
Q 1681 3084 1819 3084 
Q 2600 3084 3056 2656 
Q 3513 2228 3513 1497 
Q 3513 744 3044 326 
Q 2575 -91 1722 -91 
Q 1428 -91 1123 -41 
Q 819 9 494 109 
L 494 744 
Q 775 591 1075 516 
Q 1375 441 1709 441 
Q 2250 441 2565 725 
Q 2881 1009 2881 1497 
Q 2881 1984 2565 2268 
Q 2250 2553 1709 2553 
Q 1456 2553 1204 2497 
Q 953 2441 691 2322 
L 691 4666 
z
" transform="scale(0.015625)"/>
        <path id="DejaVuSans-2e" d="M 684 794 
L 1344 794 
L 1344 0 
L 684 0 
L 684 794 
z
" transform="scale(0.015625)"/>
        <path id="DejaVuSans-30" d="M 2034 4250 
Q 1547 4250 1301 3770 
Q 1056 3291 1056 2328 
Q 1056 1369 1301 889 
Q 1547 409 2034 409 
Q 2525 409 2770 889 
Q 3016 1369 3016 2328 
Q 3016 3291 2770 3770 
Q 2525 4250 2034 4250 
z
M 2034 4750 
Q 2819 4750 3233 4129 
Q 3647 3509 3647 2328 
Q 3647 1150 3233 529 
Q 2819 -91 2034 -91 
Q 1250 -91 836 529 
Q 422 1150 422 2328 
Q 422 3509 836 4129 
Q 1250 4750 2034 4750 
z
" transform="scale(0.015625)"/>
       </defs>
       <use xlink:href="#DejaVuSans-2212"/>
       <use xlink:href="#DejaVuSans-35" x="83.789062"/>
       <use xlink:href="#DejaVuSans-2e" x="147.412109"/>
       <use xlink:href="#DejaVuSans-30" x="179.199219"/>
      </g>
     </g>
    </g>
    <g id="xtick_2">
     <g id="line2d_2">
      <g>
       <use xlink:href="#mbafdd32df5" x="101.871074" y="307.584" style="stroke: #000000; stroke-width: 0.8"/>
      </g>
     </g>
     <g id="text_2">
      <!-- −2.5 -->
      <g transform="translate(89.729668 322.182437) scale(0.1 -0.1)">
       <defs>
        <path id="DejaVuSans-32" d="M 1228 531 
L 3431 531 
L 3431 0 
L 469 0 
L 469 531 
Q 828 903 1448 1529 
Q 2069 2156 2228 2338 
Q 2531 2678 2651 2914 
Q 2772 3150 2772 3378 
Q 2772 3750 2511 3984 
Q 2250 4219 1831 4219 
Q 1534 4219 1204 4116 
Q 875 4013 500 3803 
L 500 4441 
Q 881 4594 1212 4672 
Q 1544 4750 1819 4750 
Q 2544 4750 2975 4387 
Q 3406 4025 3406 3419 
Q 3406 3131 3298 2873 
Q 3191 2616 2906 2266 
Q 2828 2175 2409 1742 
Q 1991 1309 1228 531 
z
" transform="scale(0.015625)"/>
       </defs>
       <use xlink:href="#DejaVuSans-2212"/>
       <use xlink:href="#DejaVuSans-32" x="83.789062"/>
       <use xlink:href="#DejaVuSans-2e" x="147.412109"/>
       <use xlink:href="#DejaVuSans-35" x="179.199219"/>
      </g>
     </g>
    </g>
    <g id="xtick_3">
     <g id="line2d_3">
      <g>
       <use xlink:href="#mbafdd32df5" x="138.763636" y="307.584" style="stroke: #000000; stroke-width: 0.8"/>
      </g>
     </g>
     <g id="text_3">
      <!-- 0.0 -->
      <g transform="translate(130.812074 322.182437) scale(0.1 -0.1)">
       <use xlink:href="#DejaVuSans-30"/>
       <use xlink:href="#DejaVuSans-2e" x="63.623047"/>
       <use xlink:href="#DejaVuSans-30" x="95.410156"/>
      </g>
     </g>
    </g>
    <g id="xtick_4">
     <g id="line2d_4">
      <g>
       <use xlink:href="#mbafdd32df5" x="175.656198" y="307.584" style="stroke: #000000; stroke-width: 0.8"/>
      </g>
     </g>
     <g id="text_4">
      <!-- 2.5 -->
      <g transform="translate(167.704636 322.182437) scale(0.1 -0.1)">
       <use xlink:href="#DejaVuSans-32"/>
       <use xlink:href="#DejaVuSans-2e" x="63.623047"/>
       <use xlink:href="#DejaVuSans-35" x="95.410156"/>
      </g>
     </g>
    </g>
    <g id="xtick_5">
     <g id="line2d_5">
      <g>
       <use xlink:href="#mbafdd32df5" x="212.54876" y="307.584" style="stroke: #000000; stroke-width: 0.8"/>
      </g>
     </g>
     <g id="text_5">
      <!-- 5.0 -->
      <g transform="translate(204.597198 322.182437) scale(0.1 -0.1)">
       <use xlink:href="#DejaVuSans-35"/>
       <use xlink:href="#DejaVuSans-2e" x="63.623047"/>
       <use xlink:href="#DejaVuSans-30" x="95.410156"/>
      </g>
     </g>
    </g>
   </g>
   <g id="matplotlib.axis_2">
    <g id="ytick_1">
     <g id="line2d_6">
      <defs>
       <path id="m67cdc082fc" d="M 0 0 
L -3.5 0 
" style="stroke: #000000; stroke-width: 0.8"/>
      </defs>
      <g>
       <use xlink:href="#m67cdc082fc" x="57.6" y="271.296" style="stroke: #000000; stroke-width: 0.8"/>
      </g>
     </g>
     <g id="text_6">
      <!-- −4 -->
      <g transform="translate(35.857813 275.095219) scale(0.1 -0.1)">
       <defs>
        <path id="DejaVuSans-34" d="M 2419 4116 
L 825 1625 
L 2419 1625 
L 2419 4116 
z
M 2253 4666 
L 3047 4666 
L 3047 1625 
L 3713 1625 
L 3713 1100 
L 3047 1100 
L 3047 0 
L 2419 0 
L 2419 1100 
L 313 1100 
L 313 1709 
L 2253 4666 
z
" transform="scale(0.015625)"/>
       </defs>
       <use xlink:href="#DejaVuSans-2212"/>
       <use xlink:href="#DejaVuSans-34" x="83.789062"/>
      </g>
     </g>
    </g>
    <g id="ytick_2">
     <g id="line2d_7">
      <g>
       <use xlink:href="#m67cdc082fc" x="57.6" y="222.912" style="stroke: #000000; stroke-width: 0.8"/>
      </g>
     </g>
     <g id="text_7">
      <!-- −2 -->
      <g transform="translate(35.857813 226.711219) scale(0.1 -0.1)">
       <use xlink:href="#DejaVuSans-2212"/>
       <use xlink:href="#DejaVuSans-32" x="83.789062"/>
      </g>
     </g>
    </g>
    <g id="ytick_3">
     <g id="line2d_8">
      <g>
       <use xlink:href="#m67cdc082fc" x="57.6" y="174.528" style="stroke: #000000; stroke-width: 0.8"/>
      </g>
     </g>
     <g id="text_8">
      <!-- 0 -->
      <g transform="translate(44.2375 178.327219) scale(0.1 -0.1)">
       <use xlink:href="#DejaVuSans-30"/>
      </g>
     </g>
    </g>
    <g id="ytick_4">
     <g id="line2d_9">
      <g>
       <use xlink:href="#m67cdc082fc" x="57.6" y="126.144" style="stroke: #000000; stroke-width: 0.8"/>
      </g>
     </g>
     <g id="text_9">
      <!-- 2 -->
      <g transform="translate(44.2375 129.943219) scale(0.1 -0.1)">
       <use xlink:href="#DejaVuSans-32"/>
      </g>
     </g>
    </g>
    <g id="ytick_5">
     <g id="line2d_10">
      <g>
       <use xlink:href="#m67cdc082fc" x="57.6" y="77.76" style="stroke: #000000; stroke-width: 0.8"/>
      </g>
     </g>
     <g id="text_10">
      <!-- 4 -->
      <g transform="translate(44.2375 81.559219) scale(0.1 -0.1)">
       <use xlink:href="#DejaVuSans-34"/>
      </g>
     </g>
    </g>
   </g>
   <g id="patch_3">
    <path d="M 57.6 307.584 
L 57.6 41.472 
" style="fill: none; stroke: #000000; stroke-width: 0.8; stroke-linejoin: miter; stroke-linecap: square"/>
   </g>
   <g id="patch_4">
    <path d="M 219.927273 307.584 
L 219.927273 41.472 
" style="fill: none; stroke: #000000; stroke-width: 0.8; stroke-linejoin: miter; stroke-linecap: square"/>
   </g>
   <g id="patch_5">
    <path d="M 57.6 307.584 
L 219.927273 307.584 
" style="fill: none; stroke: #000000; stroke-width: 0.8; stroke-linejoin: miter; stroke-linecap: square"/>
   </g>
   <g id="patch_6">
    <path d="M 57.6 41.472 
L 219.927273 41.472 
" style="fill: none; stroke: #000000; stroke-width: 0.8; stroke-linejoin: miter; stroke-linecap: square"/>
   </g>
  </g>
  <g id="axes_2">
   <g id="patch_7">
    <path d="M 252.392727 307.584 
L 414.72 307.584 
L 414.72 41.472 
L 252.392727 41.472 
z
" style="fill: #ffffff"/>
   </g>
   <g id="matplotlib.axis_3">
    <g id="xtick_6">
     <g id="line2d_11">
      <g>
       <use xlink:href="#mbafdd32df5" x="279.447273" y="307.584" style="stroke: #000000; stroke-width: 0.8"/>
      </g>
     </g>
     <g id="text_11">
      <!-- 0 -->
      <g transform="translate(276.266023 322.182437) scale(0.1 -0.1)">
       <use xlink:href="#DejaVuSans-30"/>
      </g>
     </g>
    </g>
    <g id="xtick_7">
     <g id="line2d_12">
      <g>
       <use xlink:href="#mbafdd32df5" x="333.556364" y="307.584" style="stroke: #000000; stroke-width: 0.8"/>
      </g>
     </g>
     <g id="text_12">
      <!-- 2 -->
      <g transform="translate(330.375114 322.182437) scale(0.1 -0.1)">
       <use xlink:href="#DejaVuSans-32"/>
      </g>
     </g>
    </g>
    <g id="xtick_8">
     <g id="line2d_13">
      <g>
       <use xlink:href="#mbafdd32df5" x="387.665455" y="307.584" style="stroke: #000000; stroke-width: 0.8"/>
      </g>
     </g>
     <g id="text_13">
      <!-- 4 -->
      <g transform="translate(384.484205 322.182437) scale(0.1 -0.1)">
       <use xlink:href="#DejaVuSans-34"/>
      </g>
     </g>
    </g>
   </g>
   <g id="matplotlib.axis_4">
    <g id="ytick_6">
     <g id="line2d_14">
      <g>
       <use xlink:href="#m67cdc082fc" x="252.392727" y="307.584" style="stroke: #000000; stroke-width: 0.8"/>
      </g>
     </g>
     <g id="text_14">
      <!-- −5 -->
      <g transform="translate(230.65054 311.383219) scale(0.1 -0.1)">
       <use xlink:href="#DejaVuSans-2212"/>
       <use xlink:href="#DejaVuSans-35" x="83.789062"/>
      </g>
     </g>
    </g>
    <g id="ytick_7">
     <g id="line2d_15">
      <g>
       <use xlink:href="#m67cdc082fc" x="252.392727" y="263.232" style="stroke: #000000; stroke-width: 0.8"/>
      </g>
     </g>
     <g id="text_15">
      <!-- −4 -->
      <g transform="translate(230.65054 267.031219) scale(0.1 -0.1)">
       <use xlink:href="#DejaVuSans-2212"/>
       <use xlink:href="#DejaVuSans-34" x="83.789062"/>
      </g>
     </g>
    </g>
    <g id="ytick_8">
     <g id="line2d_16">
      <g>
       <use xlink:href="#m67cdc082fc" x="252.392727" y="218.88" style="stroke: #000000; stroke-width: 0.8"/>
      </g>
     </g>
     <g id="text_16">
      <!-- −3 -->
      <g transform="translate(230.65054 222.679219) scale(0.1 -0.1)">
       <defs>
        <path id="DejaVuSans-33" d="M 2597 2516 
Q 3050 2419 3304 2112 
Q 3559 1806 3559 1356 
Q 3559 666 3084 287 
Q 2609 -91 1734 -91 
Q 1441 -91 1130 -33 
Q 819 25 488 141 
L 488 750 
Q 750 597 1062 519 
Q 1375 441 1716 441 
Q 2309 441 2620 675 
Q 2931 909 2931 1356 
Q 2931 1769 2642 2001 
Q 2353 2234 1838 2234 
L 1294 2234 
L 1294 2753 
L 1863 2753 
Q 2328 2753 2575 2939 
Q 2822 3125 2822 3475 
Q 2822 3834 2567 4026 
Q 2313 4219 1838 4219 
Q 1578 4219 1281 4162 
Q 984 4106 628 3988 
L 628 4550 
Q 988 4650 1302 4700 
Q 1616 4750 1894 4750 
Q 2613 4750 3031 4423 
Q 3450 4097 3450 3541 
Q 3450 3153 3228 2886 
Q 3006 2619 2597 2516 
z
" transform="scale(0.015625)"/>
       </defs>
       <use xlink:href="#DejaVuSans-2212"/>
       <use xlink:href="#DejaVuSans-33" x="83.789062"/>
      </g>
     </g>
    </g>
    <g id="ytick_9">
     <g id="line2d_17">
      <g>
       <use xlink:href="#m67cdc082fc" x="252.392727" y="174.528" style="stroke: #000000; stroke-width: 0.8"/>
      </g>
     </g>
     <g id="text_17">
      <!-- −2 -->
      <g transform="translate(230.65054 178.327219) scale(0.1 -0.1)">
       <use xlink:href="#DejaVuSans-2212"/>
       <use xlink:href="#DejaVuSans-32" x="83.789062"/>
      </g>
     </g>
    </g>
    <g id="ytick_10">
     <g id="line2d_18">
      <g>
       <use xlink:href="#m67cdc082fc" x="252.392727" y="130.176" style="stroke: #000000; stroke-width: 0.8"/>
      </g>
     </g>
     <g id="text_18">
      <!-- −1 -->
      <g transform="translate(230.65054 133.975219) scale(0.1 -0.1)">
       <defs>
        <path id="DejaVuSans-31" d="M 794 531 
L 1825 531 
L 1825 4091 
L 703 3866 
L 703 4441 
L 1819 4666 
L 2450 4666 
L 2450 531 
L 3481 531 
L 3481 0 
L 794 0 
L 794 531 
z
" transform="scale(0.015625)"/>
       </defs>
       <use xlink:href="#DejaVuSans-2212"/>
       <use xlink:href="#DejaVuSans-31" x="83.789062"/>
      </g>
     </g>
    </g>
    <g id="ytick_11">
     <g id="line2d_19">
      <g>
       <use xlink:href="#m67cdc082fc" x="252.392727" y="85.824" style="stroke: #000000; stroke-width: 0.8"/>
      </g>
     </g>
     <g id="text_19">
      <!-- 0 -->
      <g transform="translate(239.030227 89.623219) scale(0.1 -0.1)">
       <use xlink:href="#DejaVuSans-30"/>
      </g>
     </g>
    </g>
    <g id="ytick_12">
     <g id="line2d_20">
      <g>
       <use xlink:href="#m67cdc082fc" x="252.392727" y="41.472" style="stroke: #000000; stroke-width: 0.8"/>
      </g>
     </g>
     <g id="text_20">
      <!-- 1 -->
      <g transform="translate(239.030227 45.271219) scale(0.1 -0.1)">
       <use xlink:href="#DejaVuSans-31"/>
      </g>
     </g>
    </g>
   </g>
   <g id="line2d_21">
    <path d="M 303.319726 346.6 
L 303.577741 298.12742 
L 304.916804 187.181335 
L 306.255868 136.082591 
L 307.594931 111.611985 
L 308.933994 99.472831 
L 310.273058 93.255003 
L 311.612121 89.975731 
L 312.951185 88.199333 
L 314.290248 87.213071 
L 315.629311 86.65292 
L 316.968375 86.328022 
L 318.307438 86.135863 
L 319.646501 86.020129 
L 320.985565 85.949233 
L 322.324628 85.905111 
L 323.663691 85.877241 
L 325.002755 85.859388 
L 326.341818 85.847802 
L 327.680882 85.840189 
L 329.019945 85.835128 
L 330.359008 85.831726 
L 331.698072 85.829415 
L 333.037135 85.827829 
L 334.376198 85.826732 
L 335.715262 85.825964 
L 337.054325 85.825424 
L 338.393388 85.825039 
L 339.732452 85.824764 
L 341.071515 85.824566 
L 342.410579 85.824421 
L 343.749642 85.824316 
L 345.088705 85.824238 
L 346.427769 85.824181 
L 347.766832 85.824138 
L 349.105895 85.824106 
L 350.444959 85.824081 
L 351.784022 85.824063 
L 353.123085 85.824049 
L 354.462149 85.824038 
L 355.801212 85.82403 
L 357.140275 85.824024 
L 358.479339 85.824019 
L 359.818402 85.824015 
L 361.157466 85.824012 
L 362.496529 85.82401 
L 363.835592 85.824008 
L 365.174656 85.824006 
L 366.513719 85.824005 
L 367.852782 85.824004 
L 369.191846 85.824003 
L 370.530909 85.824003 
L 371.869972 85.824002 
L 373.209036 85.824002 
L 374.548099 85.824001 
L 375.887163 85.824001 
L 377.226226 85.824001 
L 378.565289 85.824001 
L 379.904353 85.824001 
L 381.243416 85.824001 
L 382.582479 85.824 
L 383.921543 85.824 
L 385.260606 85.824 
L 386.599669 85.824 
L 387.938733 85.824 
L 389.277796 85.824 
L 390.61686 85.824 
L 391.955923 85.824 
L 393.294986 85.824 
L 394.63405 85.824 
L 395.973113 85.824 
L 397.312176 85.824 
L 398.65124 85.824 
L 399.990303 85.824 
L 401.329366 85.824 
L 402.66843 85.824 
L 404.007493 85.824 
L 405.346556 85.824 
L 406.68562 85.824 
L 408.024683 85.824 
L 409.363747 85.824 
L 410.70281 85.824 
L 412.041873 85.824 
L 413.380937 85.824 
L 414.72 85.824 
" clip-path="url(#p405129f4d7)" style="fill: none; stroke: #1f77b4; stroke-width: 1.5; stroke-linecap: square"/>
   </g>
   <g id="line2d_22">
    <path d="M 304.566419 346.6 
L 304.916804 288.53867 
L 306.255868 186.341183 
L 307.594931 137.399971 
L 308.933994 113.121661 
L 310.273058 100.686006 
L 311.612121 94.127463 
L 312.951185 90.574666 
L 314.290248 88.602143 
L 315.629311 87.48184 
L 316.968375 86.832044 
L 318.307438 86.447726 
L 319.646501 86.216258 
L 320.985565 86.074467 
L 322.324628 85.986222 
L 323.663691 85.930481 
L 325.002755 85.894777 
L 326.341818 85.871604 
L 327.680882 85.856378 
L 329.019945 85.846256 
L 330.359008 85.839452 
L 331.698072 85.83483 
L 333.037135 85.831659 
L 334.376198 85.829463 
L 335.715262 85.827929 
L 337.054325 85.826847 
L 338.393388 85.826079 
L 339.732452 85.825528 
L 341.071515 85.825131 
L 342.410579 85.824843 
L 343.749642 85.824632 
L 345.088705 85.824477 
L 346.427769 85.824361 
L 347.766832 85.824276 
L 349.105895 85.824211 
L 350.444959 85.824163 
L 351.784022 85.824126 
L 353.123085 85.824098 
L 354.462149 85.824077 
L 355.801212 85.82406 
L 357.140275 85.824047 
L 358.479339 85.824038 
L 359.818402 85.82403 
L 361.157466 85.824024 
L 362.496529 85.824019 
L 363.835592 85.824015 
L 365.174656 85.824012 
L 366.513719 85.82401 
L 367.852782 85.824008 
L 369.191846 85.824007 
L 370.530909 85.824005 
L 371.869972 85.824004 
L 373.209036 85.824004 
L 374.548099 85.824003 
L 375.887163 85.824002 
L 377.226226 85.824002 
L 378.565289 85.824002 
L 379.904353 85.824001 
L 381.243416 85.824001 
L 382.582479 85.824001 
L 383.921543 85.824001 
L 385.260606 85.824001 
L 386.599669 85.824001 
L 387.938733 85.824 
L 389.277796 85.824 
L 390.61686 85.824 
L 391.955923 85.824 
L 393.294986 85.824 
L 394.63405 85.824 
L 395.973113 85.824 
L 397.312176 85.824 
L 398.65124 85.824 
L 399.990303 85.824 
L 401.329366 85.824 
L 402.66843 85.824 
L 404.007493 85.824 
L 405.346556 85.824 
L 406.68562 85.824 
L 408.024683 85.824 
L 409.363747 85.824 
L 410.70281 85.824 
L 412.041873 85.824 
L 413.380937 85.824 
L 414.72 85.824 
" clip-path="url(#p405129f4d7)" style="fill: none; stroke: #ff7f0e; stroke-width: 1.5; stroke-linecap: square"/>
   </g>
   <g id="line2d_23">
    <path d="M 305.295001 346.6 
L 306.255868 236.599774 
L 307.594931 163.187956 
L 308.933994 126.770492 
L 310.273058 108.11701 
L 311.612121 98.279194 
L 312.951185 92.949999 
L 314.290248 89.991214 
L 315.629311 88.310759 
L 316.968375 87.336066 
L 318.307438 86.759588 
L 319.646501 86.412387 
L 320.985565 86.1997 
L 322.324628 86.067334 
L 323.663691 85.983722 
L 325.002755 85.930165 
L 326.341818 85.895407 
L 327.680882 85.872567 
L 329.019945 85.857384 
L 330.359008 85.847177 
L 331.698072 85.840245 
L 333.037135 85.835488 
L 334.376198 85.832195 
L 335.715262 85.829893 
L 337.054325 85.828271 
L 338.393388 85.827118 
L 339.732452 85.826293 
L 341.071515 85.825697 
L 342.410579 85.825264 
L 343.749642 85.824948 
L 345.088705 85.824715 
L 346.427769 85.824542 
L 347.766832 85.824414 
L 349.105895 85.824317 
L 350.444959 85.824244 
L 351.784022 85.824189 
L 353.123085 85.824147 
L 354.462149 85.824115 
L 355.801212 85.82409 
L 357.140275 85.824071 
L 358.479339 85.824056 
L 359.818402 85.824045 
L 361.157466 85.824036 
L 362.496529 85.824029 
L 363.835592 85.824023 
L 365.174656 85.824018 
L 366.513719 85.824015 
L 367.852782 85.824012 
L 369.191846 85.82401 
L 370.530909 85.824008 
L 371.869972 85.824007 
L 373.209036 85.824005 
L 374.548099 85.824004 
L 375.887163 85.824004 
L 377.226226 85.824003 
L 378.565289 85.824003 
L 379.904353 85.824002 
L 381.243416 85.824002 
L 382.582479 85.824001 
L 383.921543 85.824001 
L 385.260606 85.824001 
L 386.599669 85.824001 
L 387.938733 85.824001 
L 389.277796 85.824001 
L 390.61686 85.824001 
L 391.955923 85.824 
L 393.294986 85.824 
L 394.63405 85.824 
L 395.973113 85.824 
L 397.312176 85.824 
L 398.65124 85.824 
L 399.990303 85.824 
L 401.329366 85.824 
L 402.66843 85.824 
L 404.007493 85.824 
L 405.346556 85.824 
L 406.68562 85.824 
L 408.024683 85.824 
L 409.363747 85.824 
L 410.70281 85.824 
L 412.041873 85.824 
L 413.380937 85.824 
L 414.72 85.824 
" clip-path="url(#p405129f4d7)" style="fill: none; stroke: #2ca02c; stroke-width: 1.5; stroke-linecap: square"/>
   </g>
   <g id="line2d_24">
    <path d="M 305.864479 346.6 
L 306.255868 286.858365 
L 307.594931 188.975942 
L 308.933994 140.419323 
L 310.273058 115.548013 
L 311.612121 102.430926 
L 312.951185 95.325332 
L 314.290248 91.380286 
L 315.629311 89.139679 
L 316.968375 87.840087 
L 318.307438 87.071451 
L 319.646501 86.608515 
L 320.985565 86.324934 
L 322.324628 86.148445 
L 323.663691 86.036962 
L 325.002755 85.965554 
L 326.341818 85.919209 
L 327.680882 85.888757 
L 329.019945 85.868512 
L 330.359008 85.854903 
L 331.698072 85.84566 
L 333.037135 85.839318 
L 334.376198 85.834926 
L 335.715262 85.831857 
L 337.054325 85.829694 
L 338.393388 85.828157 
L 339.732452 85.827057 
L 341.071515 85.826263 
L 342.410579 85.825686 
L 343.749642 85.825264 
L 345.088705 85.824953 
L 346.427769 85.824723 
L 347.766832 85.824551 
L 349.105895 85.824423 
L 350.444959 85.824326 
L 351.784022 85.824252 
L 353.123085 85.824196 
L 354.462149 85.824153 
L 355.801212 85.82412 
L 357.140275 85.824095 
L 358.479339 85.824075 
L 359.818402 85.82406 
L 361.157466 85.824048 
L 362.496529 85.824038 
L 363.835592 85.824031 
L 365.174656 85.824025 
L 366.513719 85.82402 
L 367.852782 85.824016 
L 369.191846 85.824013 
L 370.530909 85.824011 
L 371.869972 85.824009 
L 373.209036 85.824007 
L 374.548099 85.824006 
L 375.887163 85.824005 
L 377.226226 85.824004 
L 378.565289 85.824003 
L 379.904353 85.824003 
L 381.243416 85.824002 
L 382.582479 85.824002 
L 383.921543 85.824002 
L 385.260606 85.824001 
L 386.599669 85.824001 
L 387.938733 85.824001 
L 389.277796 85.824001 
L 390.61686 85.824001 
L 391.955923 85.824001 
L 393.294986 85.824001 
L 394.63405 85.824 
L 395.973113 85.824 
L 397.312176 85.824 
L 398.65124 85.824 
L 399.990303 85.824 
L 401.329366 85.824 
L 402.66843 85.824 
L 404.007493 85.824 
L 405.346556 85.824 
L 406.68562 85.824 
L 408.024683 85.824 
L 409.363747 85.824 
L 410.70281 85.824 
L 412.041873 85.824 
L 413.380937 85.824 
L 414.72 85.824 
" clip-path="url(#p405129f4d7)" style="fill: none; stroke: #d62728; stroke-width: 1.5; stroke-linecap: square"/>
   </g>
   <g id="line2d_25">
    <path d="M 291.482321 346.6 
L 291.526171 313.393844 
L 292.865234 135.688967 
L 294.204298 98.449436 
L 295.543361 89.426031 
L 296.882424 86.960061 
L 298.221488 86.214263 
L 299.560551 85.96831 
L 300.899614 85.880898 
L 302.238678 85.847734 
L 303.577741 85.834407 
L 304.916804 85.828771 
L 306.255868 85.826277 
L 307.594931 85.825126 
L 308.933994 85.824576 
L 310.273058 85.824303 
L 311.612121 85.824164 
L 312.951185 85.824091 
L 314.290248 85.824052 
L 315.629311 85.82403 
L 316.968375 85.824018 
L 318.307438 85.824011 
L 319.646501 85.824007 
L 320.985565 85.824004 
L 322.324628 85.824003 
L 323.663691 85.824002 
L 325.002755 85.824001 
L 326.341818 85.824001 
L 327.680882 85.824 
L 329.019945 85.824 
L 330.359008 85.824 
L 331.698072 85.824 
L 333.037135 85.824 
L 334.376198 85.824 
L 335.715262 85.824 
L 337.054325 85.824 
L 338.393388 85.824 
L 339.732452 85.824 
L 341.071515 85.824 
L 342.410579 85.824 
L 343.749642 85.824 
L 345.088705 85.824 
L 346.427769 85.824 
L 347.766832 85.824 
L 349.105895 85.824 
L 350.444959 85.824 
L 351.784022 85.824 
L 353.123085 85.824 
L 354.462149 85.824 
L 355.801212 85.824 
L 357.140275 85.824 
L 358.479339 85.824 
L 359.818402 85.824 
L 361.157466 85.824 
L 362.496529 85.824 
L 363.835592 85.824 
L 365.174656 85.824 
L 366.513719 85.824 
L 367.852782 85.824 
L 369.191846 85.824 
L 370.530909 85.824 
L 371.869972 85.824 
L 373.209036 85.824 
L 374.548099 85.824 
L 375.887163 85.824 
L 377.226226 85.824 
L 378.565289 85.824 
L 379.904353 85.824 
L 381.243416 85.824 
L 382.582479 85.824 
L 383.921543 85.824 
L 385.260606 85.824 
L 386.599669 85.824 
L 387.938733 85.824 
L 389.277796 85.824 
L 390.61686 85.824 
L 391.955923 85.824 
L 393.294986 85.824 
L 394.63405 85.824 
L 395.973113 85.824 
L 397.312176 85.824 
L 398.65124 85.824 
L 399.990303 85.824 
L 401.329366 85.824 
L 402.66843 85.824 
L 404.007493 85.824 
L 405.346556 85.824 
L 406.68562 85.824 
L 408.024683 85.824 
L 409.363747 85.824 
L 410.70281 85.824 
L 412.041873 85.824 
L 413.380937 85.824 
L 414.72 85.824 
" clip-path="url(#p405129f4d7)" style="fill: none; stroke: #9467bd; stroke-width: 1.5; stroke-linecap: square"/>
   </g>
   <g id="line2d_26">
    <path d="M 292.258467 346.6 
L 292.865234 185.553934 
L 294.204298 111.074872 
L 295.543361 93.028062 
L 296.882424 88.096122 
L 298.221488 86.604525 
L 299.560551 86.11262 
L 300.899614 85.937795 
L 302.238678 85.871468 
L 303.577741 85.844815 
L 304.916804 85.833543 
L 306.255868 85.828553 
L 307.594931 85.826253 
L 308.933994 85.825151 
L 310.273058 85.824606 
L 311.612121 85.824328 
L 312.951185 85.824182 
L 314.290248 85.824103 
L 315.629311 85.82406 
L 316.968375 85.824035 
L 318.307438 85.824021 
L 319.646501 85.824013 
L 320.985565 85.824008 
L 322.324628 85.824005 
L 323.663691 85.824003 
L 325.002755 85.824002 
L 326.341818 85.824001 
L 327.680882 85.824001 
L 329.019945 85.824001 
L 330.359008 85.824 
L 331.698072 85.824 
L 333.037135 85.824 
L 334.376198 85.824 
L 335.715262 85.824 
L 337.054325 85.824 
L 338.393388 85.824 
L 339.732452 85.824 
L 341.071515 85.824 
L 342.410579 85.824 
L 343.749642 85.824 
L 345.088705 85.824 
L 346.427769 85.824 
L 347.766832 85.824 
L 349.105895 85.824 
L 350.444959 85.824 
L 351.784022 85.824 
L 353.123085 85.824 
L 354.462149 85.824 
L 355.801212 85.824 
L 357.140275 85.824 
L 358.479339 85.824 
L 359.818402 85.824 
L 361.157466 85.824 
L 362.496529 85.824 
L 363.835592 85.824 
L 365.174656 85.824 
L 366.513719 85.824 
L 367.852782 85.824 
L 369.191846 85.824 
L 370.530909 85.824 
L 371.869972 85.824 
L 373.209036 85.824 
L 374.548099 85.824 
L 375.887163 85.824 
L 377.226226 85.824 
L 378.565289 85.824 
L 379.904353 85.824 
L 381.243416 85.824 
L 382.582479 85.824 
L 383.921543 85.824 
L 385.260606 85.824 
L 386.599669 85.824 
L 387.938733 85.824 
L 389.277796 85.824 
L 390.61686 85.824 
L 391.955923 85.824 
L 393.294986 85.824 
L 394.63405 85.824 
L 395.973113 85.824 
L 397.312176 85.824 
L 398.65124 85.824 
L 399.990303 85.824 
L 401.329366 85.824 
L 402.66843 85.824 
L 404.007493 85.824 
L 405.346556 85.824 
L 406.68562 85.824 
L 408.024683 85.824 
L 409.363747 85.824 
L 410.70281 85.824 
L 412.041873 85.824 
L 413.380937 85.824 
L 414.72 85.824 
" clip-path="url(#p405129f4d7)" style="fill: none; stroke: #8c564b; stroke-width: 1.5; stroke-linecap: square"/>
   </g>
   <g id="line2d_27">
    <path d="M 292.585972 346.6 
L 292.865234 235.418901 
L 294.204298 123.700308 
L 295.543361 96.630092 
L 296.882424 89.232183 
L 298.221488 86.994788 
L 299.560551 86.25693 
L 300.899614 85.994693 
L 302.238678 85.895203 
L 303.577741 85.855222 
L 304.916804 85.838314 
L 306.255868 85.83083 
L 307.594931 85.827379 
L 308.933994 85.825727 
L 310.273058 85.824909 
L 311.612121 85.824492 
L 312.951185 85.824273 
L 314.290248 85.824155 
L 315.629311 85.82409 
L 316.968375 85.824053 
L 318.307438 85.824032 
L 319.646501 85.82402 
L 320.985565 85.824012 
L 322.324628 85.824008 
L 323.663691 85.824005 
L 325.002755 85.824003 
L 326.341818 85.824002 
L 327.680882 85.824001 
L 329.019945 85.824001 
L 330.359008 85.824001 
L 331.698072 85.824 
L 333.037135 85.824 
L 334.376198 85.824 
L 335.715262 85.824 
L 337.054325 85.824 
L 338.393388 85.824 
L 339.732452 85.824 
L 341.071515 85.824 
L 342.410579 85.824 
L 343.749642 85.824 
L 345.088705 85.824 
L 346.427769 85.824 
L 347.766832 85.824 
L 349.105895 85.824 
L 350.444959 85.824 
L 351.784022 85.824 
L 353.123085 85.824 
L 354.462149 85.824 
L 355.801212 85.824 
L 357.140275 85.824 
L 358.479339 85.824 
L 359.818402 85.824 
L 361.157466 85.824 
L 362.496529 85.824 
L 363.835592 85.824 
L 365.174656 85.824 
L 366.513719 85.824 
L 367.852782 85.824 
L 369.191846 85.824 
L 370.530909 85.824 
L 371.869972 85.824 
L 373.209036 85.824 
L 374.548099 85.824 
L 375.887163 85.824 
L 377.226226 85.824 
L 378.565289 85.824 
L 379.904353 85.824 
L 381.243416 85.824 
L 382.582479 85.824 
L 383.921543 85.824 
L 385.260606 85.824 
L 386.599669 85.824 
L 387.938733 85.824 
L 389.277796 85.824 
L 390.61686 85.824 
L 391.955923 85.824 
L 393.294986 85.824 
L 394.63405 85.824 
L 395.973113 85.824 
L 397.312176 85.824 
L 398.65124 85.824 
L 399.990303 85.824 
L 401.329366 85.824 
L 402.66843 85.824 
L 404.007493 85.824 
L 405.346556 85.824 
L 406.68562 85.824 
L 408.024683 85.824 
L 409.363747 85.824 
L 410.70281 85.824 
L 412.041873 85.824 
L 413.380937 85.824 
L 414.72 85.824 
" clip-path="url(#p405129f4d7)" style="fill: none; stroke: #e377c2; stroke-width: 1.5; stroke-linecap: square"/>
   </g>
   <g id="line2d_28">
    <path d="M 292.749725 346.6 
L 292.865234 285.283868 
L 294.204298 136.325745 
L 295.543361 100.232123 
L 296.882424 90.368244 
L 298.221488 87.385051 
L 299.560551 86.40124 
L 300.899614 86.051591 
L 302.238678 85.918937 
L 303.577741 85.865629 
L 304.916804 85.843086 
L 306.255868 85.833107 
L 307.594931 85.828505 
L 308.933994 85.826303 
L 310.273058 85.825213 
L 311.612121 85.824656 
L 312.951185 85.824364 
L 314.290248 85.824207 
L 315.629311 85.82412 
L 316.968375 85.824071 
L 318.307438 85.824043 
L 319.646501 85.824026 
L 320.985565 85.824016 
L 322.324628 85.82401 
L 323.663691 85.824007 
L 325.002755 85.824004 
L 326.341818 85.824003 
L 327.680882 85.824002 
L 329.019945 85.824001 
L 330.359008 85.824001 
L 331.698072 85.824001 
L 333.037135 85.824 
L 334.376198 85.824 
L 335.715262 85.824 
L 337.054325 85.824 
L 338.393388 85.824 
L 339.732452 85.824 
L 341.071515 85.824 
L 342.410579 85.824 
L 343.749642 85.824 
L 345.088705 85.824 
L 346.427769 85.824 
L 347.766832 85.824 
L 349.105895 85.824 
L 350.444959 85.824 
L 351.784022 85.824 
L 353.123085 85.824 
L 354.462149 85.824 
L 355.801212 85.824 
L 357.140275 85.824 
L 358.479339 85.824 
L 359.818402 85.824 
L 361.157466 85.824 
L 362.496529 85.824 
L 363.835592 85.824 
L 365.174656 85.824 
L 366.513719 85.824 
L 367.852782 85.824 
L 369.191846 85.824 
L 370.530909 85.824 
L 371.869972 85.824 
L 373.209036 85.824 
L 374.548099 85.824 
L 375.887163 85.824 
L 377.226226 85.824 
L 378.565289 85.824 
L 379.904353 85.824 
L 381.243416 85.824 
L 382.582479 85.824 
L 383.921543 85.824 
L 385.260606 85.824 
L 386.599669 85.824 
L 387.938733 85.824 
L 389.277796 85.824 
L 390.61686 85.824 
L 391.955923 85.824 
L 393.294986 85.824 
L 394.63405 85.824 
L 395.973113 85.824 
L 397.312176 85.824 
L 398.65124 85.824 
L 399.990303 85.824 
L 401.329366 85.824 
L 402.66843 85.824 
L 404.007493 85.824 
L 405.346556 85.824 
L 406.68562 85.824 
L 408.024683 85.824 
L 409.363747 85.824 
L 410.70281 85.824 
L 412.041873 85.824 
L 413.380937 85.824 
L 414.72 85.824 
" clip-path="url(#p405129f4d7)" style="fill: none; stroke: #7f7f7f; stroke-width: 1.5; stroke-linecap: square"/>
   </g>
   <g id="line2d_29">
    <path d="M 287.502807 346.6 
L 287.508981 329.895669 
L 288.848044 109.399251 
L 290.187107 88.93428 
L 291.526171 86.34476 
L 292.865234 85.929235 
L 294.204298 85.848763 
L 295.543361 85.830608 
L 296.882424 85.82596 
L 298.221488 85.824636 
L 299.560551 85.824223 
L 300.899614 85.824084 
L 302.238678 85.824033 
L 303.577741 85.824014 
L 304.916804 85.824006 
L 306.255868 85.824003 
L 307.594931 85.824001 
L 308.933994 85.824001 
L 310.273058 85.824 
L 311.612121 85.824 
L 312.951185 85.824 
L 314.290248 85.824 
L 315.629311 85.824 
L 316.968375 85.824 
L 318.307438 85.824 
L 319.646501 85.824 
L 320.985565 85.824 
L 322.324628 85.824 
L 323.663691 85.824 
L 325.002755 85.824 
L 326.341818 85.824 
L 327.680882 85.824 
L 329.019945 85.824 
L 330.359008 85.824 
L 331.698072 85.824 
L 333.037135 85.824 
L 334.376198 85.824 
L 335.715262 85.824 
L 337.054325 85.824 
L 338.393388 85.824 
L 339.732452 85.824 
L 341.071515 85.824 
L 342.410579 85.824 
L 343.749642 85.824 
L 345.088705 85.824 
L 346.427769 85.824 
L 347.766832 85.824 
L 349.105895 85.824 
L 350.444959 85.824 
L 351.784022 85.824 
L 353.123085 85.824 
L 354.462149 85.824 
L 355.801212 85.824 
L 357.140275 85.824 
L 358.479339 85.824 
L 359.818402 85.824 
L 361.157466 85.824 
L 362.496529 85.824 
L 363.835592 85.824 
L 365.174656 85.824 
L 366.513719 85.824 
L 367.852782 85.824 
L 369.191846 85.824 
L 370.530909 85.824 
L 371.869972 85.824 
L 373.209036 85.824 
L 374.548099 85.824 
L 375.887163 85.824 
L 377.226226 85.824 
L 378.565289 85.824 
L 379.904353 85.824 
L 381.243416 85.824 
L 382.582479 85.824 
L 383.921543 85.824 
L 385.260606 85.824 
L 386.599669 85.824 
L 387.938733 85.824 
L 389.277796 85.824 
L 390.61686 85.824 
L 391.955923 85.824 
L 393.294986 85.824 
L 394.63405 85.824 
L 395.973113 85.824 
L 397.312176 85.824 
L 398.65124 85.824 
L 399.990303 85.824 
L 401.329366 85.824 
L 402.66843 85.824 
L 404.007493 85.824 
L 405.346556 85.824 
L 406.68562 85.824 
L 408.024683 85.824 
L 409.363747 85.824 
L 410.70281 85.824 
L 412.041873 85.824 
L 413.380937 85.824 
L 414.72 85.824 
" clip-path="url(#p405129f4d7)" style="fill: none; stroke: #bcbd22; stroke-width: 1.5; stroke-linecap: square"/>
   </g>
   <g id="line2d_30">
    <path d="M 288.199376 346.6 
L 288.848044 132.974502 
L 290.187107 92.044561 
L 291.526171 86.86552 
L 292.865234 86.03447 
L 294.204298 85.873526 
L 295.543361 85.837216 
L 296.882424 85.827919 
L 298.221488 85.825272 
L 299.560551 85.824446 
L 300.899614 85.824167 
L 302.238678 85.824067 
L 303.577741 85.824028 
L 304.916804 85.824012 
L 306.255868 85.824006 
L 307.594931 85.824003 
L 308.933994 85.824001 
L 310.273058 85.824001 
L 311.612121 85.824 
L 312.951185 85.824 
L 314.290248 85.824 
L 315.629311 85.824 
L 316.968375 85.824 
L 318.307438 85.824 
L 319.646501 85.824 
L 320.985565 85.824 
L 322.324628 85.824 
L 323.663691 85.824 
L 325.002755 85.824 
L 326.341818 85.824 
L 327.680882 85.824 
L 329.019945 85.824 
L 330.359008 85.824 
L 331.698072 85.824 
L 333.037135 85.824 
L 334.376198 85.824 
L 335.715262 85.824 
L 337.054325 85.824 
L 338.393388 85.824 
L 339.732452 85.824 
L 341.071515 85.824 
L 342.410579 85.824 
L 343.749642 85.824 
L 345.088705 85.824 
L 346.427769 85.824 
L 347.766832 85.824 
L 349.105895 85.824 
L 350.444959 85.824 
L 351.784022 85.824 
L 353.123085 85.824 
L 354.462149 85.824 
L 355.801212 85.824 
L 357.140275 85.824 
L 358.479339 85.824 
L 359.818402 85.824 
L 361.157466 85.824 
L 362.496529 85.824 
L 363.835592 85.824 
L 365.174656 85.824 
L 366.513719 85.824 
L 367.852782 85.824 
L 369.191846 85.824 
L 370.530909 85.824 
L 371.869972 85.824 
L 373.209036 85.824 
L 374.548099 85.824 
L 375.887163 85.824 
L 377.226226 85.824 
L 378.565289 85.824 
L 379.904353 85.824 
L 381.243416 85.824 
L 382.582479 85.824 
L 383.921543 85.824 
L 385.260606 85.824 
L 386.599669 85.824 
L 387.938733 85.824 
L 389.277796 85.824 
L 390.61686 85.824 
L 391.955923 85.824 
L 393.294986 85.824 
L 394.63405 85.824 
L 395.973113 85.824 
L 397.312176 85.824 
L 398.65124 85.824 
L 399.990303 85.824 
L 401.329366 85.824 
L 402.66843 85.824 
L 404.007493 85.824 
L 405.346556 85.824 
L 406.68562 85.824 
L 408.024683 85.824 
L 409.363747 85.824 
L 410.70281 85.824 
L 412.041873 85.824 
L 413.380937 85.824 
L 414.72 85.824 
" clip-path="url(#p405129f4d7)" style="fill: none; stroke: #17becf; stroke-width: 1.5; stroke-linecap: square"/>
   </g>
   <g id="line2d_31">
    <path d="M 288.463322 346.6 
L 288.848044 156.549753 
L 290.187107 95.154841 
L 291.526171 87.38628 
L 292.865234 86.139705 
L 294.204298 85.898289 
L 295.543361 85.843823 
L 296.882424 85.829879 
L 298.221488 85.825908 
L 299.560551 85.824669 
L 300.899614 85.824251 
L 302.238678 85.8241 
L 303.577741 85.824042 
L 304.916804 85.824018 
L 306.255868 85.824008 
L 307.594931 85.824004 
L 308.933994 85.824002 
L 310.273058 85.824001 
L 311.612121 85.824001 
L 312.951185 85.824 
L 314.290248 85.824 
L 315.629311 85.824 
L 316.968375 85.824 
L 318.307438 85.824 
L 319.646501 85.824 
L 320.985565 85.824 
L 322.324628 85.824 
L 323.663691 85.824 
L 325.002755 85.824 
L 326.341818 85.824 
L 327.680882 85.824 
L 329.019945 85.824 
L 330.359008 85.824 
L 331.698072 85.824 
L 333.037135 85.824 
L 334.376198 85.824 
L 335.715262 85.824 
L 337.054325 85.824 
L 338.393388 85.824 
L 339.732452 85.824 
L 341.071515 85.824 
L 342.410579 85.824 
L 343.749642 85.824 
L 345.088705 85.824 
L 346.427769 85.824 
L 347.766832 85.824 
L 349.105895 85.824 
L 350.444959 85.824 
L 351.784022 85.824 
L 353.123085 85.824 
L 354.462149 85.824 
L 355.801212 85.824 
L 357.140275 85.824 
L 358.479339 85.824 
L 359.818402 85.824 
L 361.157466 85.824 
L 362.496529 85.824 
L 363.835592 85.824 
L 365.174656 85.824 
L 366.513719 85.824 
L 367.852782 85.824 
L 369.191846 85.824 
L 370.530909 85.824 
L 371.869972 85.824 
L 373.209036 85.824 
L 374.548099 85.824 
L 375.887163 85.824 
L 377.226226 85.824 
L 378.565289 85.824 
L 379.904353 85.824 
L 381.243416 85.824 
L 382.582479 85.824 
L 383.921543 85.824 
L 385.260606 85.824 
L 386.599669 85.824 
L 387.938733 85.824 
L 389.277796 85.824 
L 390.61686 85.824 
L 391.955923 85.824 
L 393.294986 85.824 
L 394.63405 85.824 
L 395.973113 85.824 
L 397.312176 85.824 
L 398.65124 85.824 
L 399.990303 85.824 
L 401.329366 85.824 
L 402.66843 85.824 
L 404.007493 85.824 
L 405.346556 85.824 
L 406.68562 85.824 
L 408.024683 85.824 
L 409.363747 85.824 
L 410.70281 85.824 
L 412.041873 85.824 
L 413.380937 85.824 
L 414.72 85.824 
" clip-path="url(#p405129f4d7)" style="fill: none; stroke: #1f77b4; stroke-width: 1.5; stroke-linecap: square"/>
   </g>
   <g id="line2d_32">
    <path d="M 288.595296 346.6 
L 288.848044 180.125003 
L 290.187107 98.265122 
L 291.526171 87.90704 
L 292.865234 86.244941 
L 294.204298 85.923052 
L 295.543361 85.850431 
L 296.882424 85.831839 
L 298.221488 85.826544 
L 299.560551 85.824892 
L 300.899614 85.824335 
L 302.238678 85.824133 
L 303.577741 85.824056 
L 304.916804 85.824025 
L 306.255868 85.824011 
L 307.594931 85.824005 
L 308.933994 85.824003 
L 310.273058 85.824001 
L 311.612121 85.824001 
L 312.951185 85.824 
L 314.290248 85.824 
L 315.629311 85.824 
L 316.968375 85.824 
L 318.307438 85.824 
L 319.646501 85.824 
L 320.985565 85.824 
L 322.324628 85.824 
L 323.663691 85.824 
L 325.002755 85.824 
L 326.341818 85.824 
L 327.680882 85.824 
L 329.019945 85.824 
L 330.359008 85.824 
L 331.698072 85.824 
L 333.037135 85.824 
L 334.376198 85.824 
L 335.715262 85.824 
L 337.054325 85.824 
L 338.393388 85.824 
L 339.732452 85.824 
L 341.071515 85.824 
L 342.410579 85.824 
L 343.749642 85.824 
L 345.088705 85.824 
L 346.427769 85.824 
L 347.766832 85.824 
L 349.105895 85.824 
L 350.444959 85.824 
L 351.784022 85.824 
L 353.123085 85.824 
L 354.462149 85.824 
L 355.801212 85.824 
L 357.140275 85.824 
L 358.479339 85.824 
L 359.818402 85.824 
L 361.157466 85.824 
L 362.496529 85.824 
L 363.835592 85.824 
L 365.174656 85.824 
L 366.513719 85.824 
L 367.852782 85.824 
L 369.191846 85.824 
L 370.530909 85.824 
L 371.869972 85.824 
L 373.209036 85.824 
L 374.548099 85.824 
L 375.887163 85.824 
L 377.226226 85.824 
L 378.565289 85.824 
L 379.904353 85.824 
L 381.243416 85.824 
L 382.582479 85.824 
L 383.921543 85.824 
L 385.260606 85.824 
L 386.599669 85.824 
L 387.938733 85.824 
L 389.277796 85.824 
L 390.61686 85.824 
L 391.955923 85.824 
L 393.294986 85.824 
L 394.63405 85.824 
L 395.973113 85.824 
L 397.312176 85.824 
L 398.65124 85.824 
L 399.990303 85.824 
L 401.329366 85.824 
L 402.66843 85.824 
L 404.007493 85.824 
L 405.346556 85.824 
L 406.68562 85.824 
L 408.024683 85.824 
L 409.363747 85.824 
L 410.70281 85.824 
L 412.041873 85.824 
L 413.380937 85.824 
L 414.72 85.824 
" clip-path="url(#p405129f4d7)" style="fill: none; stroke: #ff7f0e; stroke-width: 1.5; stroke-linecap: square"/>
   </g>
   <g id="line2d_33">
    <path d="M 285.998968 346.6 
L 286.169917 134.706651 
L 287.508981 88.496786 
L 288.848044 86.052655 
L 290.187107 85.851154 
L 291.526171 85.828143 
L 292.865234 85.824771 
L 294.204298 85.824168 
L 295.543361 85.824042 
L 296.882424 85.824012 
L 298.221488 85.824004 
L 299.560551 85.824001 
L 300.899614 85.824 
L 302.238678 85.824 
L 303.577741 85.824 
L 304.916804 85.824 
L 306.255868 85.824 
L 307.594931 85.824 
L 308.933994 85.824 
L 310.273058 85.824 
L 311.612121 85.824 
L 312.951185 85.824 
L 314.290248 85.824 
L 315.629311 85.824 
L 316.968375 85.824 
L 318.307438 85.824 
L 319.646501 85.824 
L 320.985565 85.824 
L 322.324628 85.824 
L 323.663691 85.824 
L 325.002755 85.824 
L 326.341818 85.824 
L 327.680882 85.824 
L 329.019945 85.824 
L 330.359008 85.824 
L 331.698072 85.824 
L 333.037135 85.824 
L 334.376198 85.824 
L 335.715262 85.824 
L 337.054325 85.824 
L 338.393388 85.824 
L 339.732452 85.824 
L 341.071515 85.824 
L 342.410579 85.824 
L 343.749642 85.824 
L 345.088705 85.824 
L 346.427769 85.824 
L 347.766832 85.824 
L 349.105895 85.824 
L 350.444959 85.824 
L 351.784022 85.824 
L 353.123085 85.824 
L 354.462149 85.824 
L 355.801212 85.824 
L 357.140275 85.824 
L 358.479339 85.824 
L 359.818402 85.824 
L 361.157466 85.824 
L 362.496529 85.824 
L 363.835592 85.824 
L 365.174656 85.824 
L 366.513719 85.824 
L 367.852782 85.824 
L 369.191846 85.824 
L 370.530909 85.824 
L 371.869972 85.824 
L 373.209036 85.824 
L 374.548099 85.824 
L 375.887163 85.824 
L 377.226226 85.824 
L 378.565289 85.824 
L 379.904353 85.824 
L 381.243416 85.824 
L 382.582479 85.824 
L 383.921543 85.824 
L 385.260606 85.824 
L 386.599669 85.824 
L 387.938733 85.824 
L 389.277796 85.824 
L 390.61686 85.824 
L 391.955923 85.824 
L 393.294986 85.824 
L 394.63405 85.824 
L 395.973113 85.824 
L 397.312176 85.824 
L 398.65124 85.824 
L 399.990303 85.824 
L 401.329366 85.824 
L 402.66843 85.824 
L 404.007493 85.824 
L 405.346556 85.824 
L 406.68562 85.824 
L 408.024683 85.824 
L 409.363747 85.824 
L 410.70281 85.824 
L 412.041873 85.824 
L 413.380937 85.824 
L 414.72 85.824 
" clip-path="url(#p405129f4d7)" style="fill: none; stroke: #2ca02c; stroke-width: 1.5; stroke-linecap: square"/>
   </g>
   <g id="line2d_34">
    <path d="M 286.104161 346.6 
L 286.169917 183.589301 
L 287.508981 91.169572 
L 288.848044 86.281311 
L 290.187107 85.878308 
L 291.526171 85.832287 
L 292.865234 85.825541 
L 294.204298 85.824336 
L 295.543361 85.824084 
L 296.882424 85.824023 
L 298.221488 85.824007 
L 299.560551 85.824002 
L 300.899614 85.824001 
L 302.238678 85.824 
L 303.577741 85.824 
L 304.916804 85.824 
L 306.255868 85.824 
L 307.594931 85.824 
L 308.933994 85.824 
L 310.273058 85.824 
L 311.612121 85.824 
L 312.951185 85.824 
L 314.290248 85.824 
L 315.629311 85.824 
L 316.968375 85.824 
L 318.307438 85.824 
L 319.646501 85.824 
L 320.985565 85.824 
L 322.324628 85.824 
L 323.663691 85.824 
L 325.002755 85.824 
L 326.341818 85.824 
L 327.680882 85.824 
L 329.019945 85.824 
L 330.359008 85.824 
L 331.698072 85.824 
L 333.037135 85.824 
L 334.376198 85.824 
L 335.715262 85.824 
L 337.054325 85.824 
L 338.393388 85.824 
L 339.732452 85.824 
L 341.071515 85.824 
L 342.410579 85.824 
L 343.749642 85.824 
L 345.088705 85.824 
L 346.427769 85.824 
L 347.766832 85.824 
L 349.105895 85.824 
L 350.444959 85.824 
L 351.784022 85.824 
L 353.123085 85.824 
L 354.462149 85.824 
L 355.801212 85.824 
L 357.140275 85.824 
L 358.479339 85.824 
L 359.818402 85.824 
L 361.157466 85.824 
L 362.496529 85.824 
L 363.835592 85.824 
L 365.174656 85.824 
L 366.513719 85.824 
L 367.852782 85.824 
L 369.191846 85.824 
L 370.530909 85.824 
L 371.869972 85.824 
L 373.209036 85.824 
L 374.548099 85.824 
L 375.887163 85.824 
L 377.226226 85.824 
L 378.565289 85.824 
L 379.904353 85.824 
L 381.243416 85.824 
L 382.582479 85.824 
L 383.921543 85.824 
L 385.260606 85.824 
L 386.599669 85.824 
L 387.938733 85.824 
L 389.277796 85.824 
L 390.61686 85.824 
L 391.955923 85.824 
L 393.294986 85.824 
L 394.63405 85.824 
L 395.973113 85.824 
L 397.312176 85.824 
L 398.65124 85.824 
L 399.990303 85.824 
L 401.329366 85.824 
L 402.66843 85.824 
L 404.007493 85.824 
L 405.346556 85.824 
L 406.68562 85.824 
L 408.024683 85.824 
L 409.363747 85.824 
L 410.70281 85.824 
L 412.041873 85.824 
L 413.380937 85.824 
L 414.72 85.824 
" clip-path="url(#p405129f4d7)" style="fill: none; stroke: #d62728; stroke-width: 1.5; stroke-linecap: square"/>
   </g>
   <g id="line2d_35">
    <path d="M 286.139226 346.6 
L 286.169917 232.471952 
L 287.508981 93.842358 
L 288.848044 86.509966 
L 290.187107 85.905462 
L 291.526171 85.83643 
L 292.865234 85.826312 
L 294.204298 85.824505 
L 295.543361 85.824126 
L 296.882424 85.824035 
L 298.221488 85.824011 
L 299.560551 85.824004 
L 300.899614 85.824001 
L 302.238678 85.824 
L 303.577741 85.824 
L 304.916804 85.824 
L 306.255868 85.824 
L 307.594931 85.824 
L 308.933994 85.824 
L 310.273058 85.824 
L 311.612121 85.824 
L 312.951185 85.824 
L 314.290248 85.824 
L 315.629311 85.824 
L 316.968375 85.824 
L 318.307438 85.824 
L 319.646501 85.824 
L 320.985565 85.824 
L 322.324628 85.824 
L 323.663691 85.824 
L 325.002755 85.824 
L 326.341818 85.824 
L 327.680882 85.824 
L 329.019945 85.824 
L 330.359008 85.824 
L 331.698072 85.824 
L 333.037135 85.824 
L 334.376198 85.824 
L 335.715262 85.824 
L 337.054325 85.824 
L 338.393388 85.824 
L 339.732452 85.824 
L 341.071515 85.824 
L 342.410579 85.824 
L 343.749642 85.824 
L 345.088705 85.824 
L 346.427769 85.824 
L 347.766832 85.824 
L 349.105895 85.824 
L 350.444959 85.824 
L 351.784022 85.824 
L 353.123085 85.824 
L 354.462149 85.824 
L 355.801212 85.824 
L 357.140275 85.824 
L 358.479339 85.824 
L 359.818402 85.824 
L 361.157466 85.824 
L 362.496529 85.824 
L 363.835592 85.824 
L 365.174656 85.824 
L 366.513719 85.824 
L 367.852782 85.824 
L 369.191846 85.824 
L 370.530909 85.824 
L 371.869972 85.824 
L 373.209036 85.824 
L 374.548099 85.824 
L 375.887163 85.824 
L 377.226226 85.824 
L 378.565289 85.824 
L 379.904353 85.824 
L 381.243416 85.824 
L 382.582479 85.824 
L 383.921543 85.824 
L 385.260606 85.824 
L 386.599669 85.824 
L 387.938733 85.824 
L 389.277796 85.824 
L 390.61686 85.824 
L 391.955923 85.824 
L 393.294986 85.824 
L 394.63405 85.824 
L 395.973113 85.824 
L 397.312176 85.824 
L 398.65124 85.824 
L 399.990303 85.824 
L 401.329366 85.824 
L 402.66843 85.824 
L 404.007493 85.824 
L 405.346556 85.824 
L 406.68562 85.824 
L 408.024683 85.824 
L 409.363747 85.824 
L 410.70281 85.824 
L 412.041873 85.824 
L 413.380937 85.824 
L 414.72 85.824 
" clip-path="url(#p405129f4d7)" style="fill: none; stroke: #9467bd; stroke-width: 1.5; stroke-linecap: square"/>
   </g>
   <g id="line2d_36">
    <path d="M 286.156758 346.6 
L 286.169917 281.354603 
L 287.508981 96.515144 
L 288.848044 86.738621 
L 290.187107 85.932616 
L 291.526171 85.840574 
L 292.865234 85.827082 
L 294.204298 85.824673 
L 295.543361 85.824168 
L 296.882424 85.824047 
L 298.221488 85.824014 
L 299.560551 85.824005 
L 300.899614 85.824002 
L 302.238678 85.824001 
L 303.577741 85.824 
L 304.916804 85.824 
L 306.255868 85.824 
L 307.594931 85.824 
L 308.933994 85.824 
L 310.273058 85.824 
L 311.612121 85.824 
L 312.951185 85.824 
L 314.290248 85.824 
L 315.629311 85.824 
L 316.968375 85.824 
L 318.307438 85.824 
L 319.646501 85.824 
L 320.985565 85.824 
L 322.324628 85.824 
L 323.663691 85.824 
L 325.002755 85.824 
L 326.341818 85.824 
L 327.680882 85.824 
L 329.019945 85.824 
L 330.359008 85.824 
L 331.698072 85.824 
L 333.037135 85.824 
L 334.376198 85.824 
L 335.715262 85.824 
L 337.054325 85.824 
L 338.393388 85.824 
L 339.732452 85.824 
L 341.071515 85.824 
L 342.410579 85.824 
L 343.749642 85.824 
L 345.088705 85.824 
L 346.427769 85.824 
L 347.766832 85.824 
L 349.105895 85.824 
L 350.444959 85.824 
L 351.784022 85.824 
L 353.123085 85.824 
L 354.462149 85.824 
L 355.801212 85.824 
L 357.140275 85.824 
L 358.479339 85.824 
L 359.818402 85.824 
L 361.157466 85.824 
L 362.496529 85.824 
L 363.835592 85.824 
L 365.174656 85.824 
L 366.513719 85.824 
L 367.852782 85.824 
L 369.191846 85.824 
L 370.530909 85.824 
L 371.869972 85.824 
L 373.209036 85.824 
L 374.548099 85.824 
L 375.887163 85.824 
L 377.226226 85.824 
L 378.565289 85.824 
L 379.904353 85.824 
L 381.243416 85.824 
L 382.582479 85.824 
L 383.921543 85.824 
L 385.260606 85.824 
L 386.599669 85.824 
L 387.938733 85.824 
L 389.277796 85.824 
L 390.61686 85.824 
L 391.955923 85.824 
L 393.294986 85.824 
L 394.63405 85.824 
L 395.973113 85.824 
L 397.312176 85.824 
L 398.65124 85.824 
L 399.990303 85.824 
L 401.329366 85.824 
L 402.66843 85.824 
L 404.007493 85.824 
L 405.346556 85.824 
L 406.68562 85.824 
L 408.024683 85.824 
L 409.363747 85.824 
L 410.70281 85.824 
L 412.041873 85.824 
L 413.380937 85.824 
L 414.72 85.824 
" clip-path="url(#p405129f4d7)" style="fill: none; stroke: #8c564b; stroke-width: 1.5; stroke-linecap: square"/>
   </g>
   <g id="patch_8">
    <path d="M 252.392727 307.584 
L 252.392727 41.472 
" style="fill: none; stroke: #000000; stroke-width: 0.8; stroke-linejoin: miter; stroke-linecap: square"/>
   </g>
   <g id="patch_9">
    <path d="M 414.72 307.584 
L 414.72 41.472 
" style="fill: none; stroke: #000000; stroke-width: 0.8; stroke-linejoin: miter; stroke-linecap: square"/>
   </g>
   <g id="patch_10">
    <path d="M 252.392727 307.584 
L 414.72 307.584 
" style="fill: none; stroke: #000000; stroke-width: 0.8; stroke-linejoin: miter; stroke-linecap: square"/>
   </g>
   <g id="patch_11">
    <path d="M 252.392727 41.472 
L 414.72 41.472 
" style="fill: none; stroke: #000000; stroke-width: 0.8; stroke-linejoin: miter; stroke-linecap: square"/>
   </g>
  </g>
  <g id="text_21">
   <!-- t = 3.700000000000002 -->
   <g transform="translate(156.219375 16.030125) scale(0.12 -0.12)">
    <defs>
     <path id="DejaVuSans-74" d="M 1172 4494 
L 1172 3500 
L 2356 3500 
L 2356 3053 
L 1172 3053 
L 1172 1153 
Q 1172 725 1289 603 
Q 1406 481 1766 481 
L 2356 481 
L 2356 0 
L 1766 0 
Q 1100 0 847 248 
Q 594 497 594 1153 
L 594 3053 
L 172 3053 
L 172 3500 
L 594 3500 
L 594 4494 
L 1172 4494 
z
" transform="scale(0.015625)"/>
     <path id="DejaVuSans-20" transform="scale(0.015625)"/>
     <path id="DejaVuSans-3d" d="M 678 2906 
L 4684 2906 
L 4684 2381 
L 678 2381 
L 678 2906 
z
M 678 1631 
L 4684 1631 
L 4684 1100 
L 678 1100 
L 678 1631 
z
" transform="scale(0.015625)"/>
     <path id="DejaVuSans-37" d="M 525 4666 
L 3525 4666 
L 3525 4397 
L 1831 0 
L 1172 0 
L 2766 4134 
L 525 4134 
L 525 4666 
z
" transform="scale(0.015625)"/>
    </defs>
    <use xlink:href="#DejaVuSans-74"/>
    <use xlink:href="#DejaVuSans-20" x="39.208984"/>
    <use xlink:href="#DejaVuSans-3d" x="70.996094"/>
    <use xlink:href="#DejaVuSans-20" x="154.785156"/>
    <use xlink:href="#DejaVuSans-33" x="186.572266"/>
    <use xlink:href="#DejaVuSans-2e" x="250.195312"/>
    <use xlink:href="#DejaVuSans-37" x="281.982422"/>
    <use xlink:href="#DejaVuSans-30" x="345.605469"/>
    <use xlink:href="#DejaVuSans-30" x="409.228516"/>
    <use xlink:href="#DejaVuSans-30" x="472.851562"/>
    <use xlink:href="#DejaVuSans-30" x="536.474609"/>
    <use xlink:href="#DejaVuSans-30" x="600.097656"/>
    <use xlink:href="#DejaVuSans-30" x="663.720703"/>
    <use xlink:href="#DejaVuSans-30" x="727.34375"/>
    <use xlink:href="#DejaVuSans-30" x="790.966797"/>
    <use xlink:href="#DejaVuSans-30" x="854.589844"/>
    <use xlink:href="#DejaVuSans-30" x="918.212891"/>
    <use xlink:href="#DejaVuSans-30" x="981.835938"/>
    <use xlink:href="#DejaVuSans-30" x="1045.458984"/>
    <use xlink:href="#DejaVuSans-30" x="1109.082031"/>
    <use xlink:href="#DejaVuSans-32" x="1172.705078"/>
   </g>
  </g>
 </g>
 <defs>
  <clipPath id="p9886c57df9">
   <rect x="57.6" y="41.472" width="162.327273" height="266.112"/>
  </clipPath>
  <clipPath id="p405129f4d7">
   <rect x="252.392727" y="41.472" width="162.327273" height="266.112"/>
  </clipPath>
 </defs>
</svg>
