<?xml version="1.0" encoding="utf-8" standalone="no"?>
<!DOCTYPE svg PUBLIC "-//W3C//DTD SVG 1.1//EN"
  "http://www.w3.org/Graphics/SVG/1.1/DTD/svg11.dtd">
<svg xmlns:xlink="http://www.w3.org/1999/xlink" width="460.8pt" height="345.6pt" viewBox="0 0 460.8 345.6" xmlns="http://www.w3.org/2000/svg" version="1.1">
 <metadata>
  <rdf:RDF xmlns:dc="http://purl.org/dc/elements/1.1/" xmlns:cc="http://creativecommons.org/ns#" xmlns:rdf="http://www.w3.org/1999/02/22-rdf-syntax-ns#">
   <cc:Work>
    <dc:type rdf:resource="http://purl.org/dc/dcmitype/StillImage"/>
    <dc:date>2023-01-17T14:53:43.990978</dc:date>
    <dc:format>image/svg+xml</dc:format>
    <dc:creator>
     <cc:Agent>
      <dc:title>Matplotlib v3.6.3, https://matplotlib.org/</dc:title>
     </cc:Agent>
    </dc:creator>
   </cc:Work>
  </rdf:RDF>
 </metadata>
 <defs>
  <style type="text/css">*{stroke-linejoin: round; stroke-linecap: butt}</style>
 </defs>
 <g id="figure_1">
  <g id="patch_1">
   <path d="M 0 345.6 
L 460.8 345.6 
L 460.8 0 
L 0 0 
z
" style="fill: #ffffff"/>
  </g>
  <g id="axes_1">
   <g id="patch_2">
    <path d="M 57.6 307.584 
L 219.927273 307.584 
L 219.927273 41.472 
L 57.6 41.472 
z
" style="fill: #ffffff"/>
   </g>
   <g id="Quiver_1">
    <path d="M 65.217157 295.115117 
L 73.610496 300.486854 
L 73.714903 299.502444 
L 76.727795 303.007541 
L 72.283034 301.73974 
L 73.133207 301.23262 
L 64.739868 295.860883 
L 65.217157 295.115117 
" clip-path="url(#p1bd6f059cb)"/>
    <path d="M 80.012096 295.142301 
L 86.300231 300.172809 
L 86.507651 299.204852 
L 89.134963 303.007541 
L 84.848295 301.279046 
L 85.747113 300.864207 
L 79.458978 295.833699 
L 80.012096 295.142301 
" clip-path="url(#p1bd6f059cb)"/>
    <path d="M 94.815536 295.185212 
L 99.140013 299.797987 
L 99.483172 298.869437 
L 101.542131 303.007541 
L 97.545329 300.686165 
L 98.494065 300.403563 
L 94.169588 295.790788 
L 94.815536 295.185212 
" clip-path="url(#p1bd6f059cb)"/>
    <path d="M 109.625005 295.253364 
L 112.212992 299.394143 
L 112.729191 298.549452 
L 113.9493 303.007541 
L 110.476684 299.95727 
L 111.462156 299.863415 
L 108.874169 295.722636 
L 109.625005 295.253364 
" clip-path="url(#p1bd6f059cb)"/>
    <path d="M 124.42917 295.35595 
L 125.590581 299.072464 
L 126.303648 298.385807 
L 126.356468 303.007541 
L 123.768297 299.178104 
L 124.745464 299.336563 
L 123.584053 295.62005 
L 124.42917 295.35595 
" clip-path="url(#p1bd6f059cb)"/>
    <path d="M 139.206347 295.488 
L 139.206347 299.023144 
L 140.091769 298.580433 
L 138.763636 303.007541 
L 137.435504 298.580433 
L 138.320926 299.023144 
L 138.320926 295.488 
L 139.206347 295.488 
" clip-path="url(#p1bd6f059cb)"/>
    <path d="M 153.94322 295.62005 
L 152.781809 299.336563 
L 153.758976 299.178104 
L 151.170805 303.007541 
L 151.223624 298.385807 
L 151.936692 299.072464 
L 153.098103 295.35595 
L 153.94322 295.62005 
" clip-path="url(#p1bd6f059cb)"/>
    <path d="M 168.653104 295.722636 
L 166.065117 299.863415 
L 167.050589 299.95727 
L 163.577973 303.007541 
L 164.798081 298.549452 
L 165.314281 299.394143 
L 167.902268 295.253364 
L 168.653104 295.722636 
" clip-path="url(#p1bd6f059cb)"/>
    <path d="M 183.357685 295.790788 
L 179.033208 300.403563 
L 179.981944 300.686165 
L 175.985141 303.007541 
L 178.0441 298.869437 
L 178.38726 299.797987 
L 182.711737 295.185212 
L 183.357685 295.790788 
" clip-path="url(#p1bd6f059cb)"/>
    <path d="M 198.068295 295.833699 
L 191.78016 300.864207 
L 192.678977 301.279046 
L 188.39231 303.007541 
L 191.019622 299.204852 
L 191.227042 300.172809 
L 197.515176 295.142301 
L 198.068295 295.833699 
" clip-path="url(#p1bd6f059cb)"/>
    <path d="M 212.787405 295.860883 
L 204.394066 301.23262 
L 205.244239 301.73974 
L 200.799478 303.007541 
L 203.812369 299.502444 
L 203.916776 300.486854 
L 212.310115 295.115117 
L 212.787405 295.860883 
" clip-path="url(#p1bd6f059cb)"/>
    <path d="M 65.180273 270.901937 
L 73.382988 275.101728 
L 73.392446 274.111841 
L 76.727795 277.311633 
L 72.181885 276.476219 
L 72.979468 275.889853 
L 64.776752 271.690063 
L 65.180273 270.901937 
" clip-path="url(#p1bd6f059cb)"/>
    <path d="M 79.974182 270.923117 
L 86.017665 274.790946 
L 86.122072 273.806536 
L 89.134963 277.311633 
L 84.690203 276.043832 
L 85.540375 275.536711 
L 79.496892 271.668883 
L 79.974182 270.923117 
" clip-path="url(#p1bd6f059cb)"/>
    <path d="M 94.779934 270.959236 
L 98.798626 274.38852 
L 99.036606 273.427619 
L 101.542131 277.311633 
L 97.312374 275.448204 
L 98.223882 275.062048 
L 94.20519 271.632764 
L 94.779934 270.959236 
" clip-path="url(#p1bd6f059cb)"/>
    <path d="M 109.598454 271.023448 
L 111.845197 273.899279 
L 112.270378 273.005307 
L 113.9493 277.311633 
L 110.177177 274.640621 
L 111.147463 274.444383 
L 108.90072 271.568552 
L 109.598454 271.023448 
" clip-path="url(#p1bd6f059cb)"/>
    <path d="M 124.418978 271.134919 
L 125.319109 273.439256 
L 125.982761 272.704729 
L 126.356468 277.311633 
L 123.508564 273.671212 
L 124.494377 273.761418 
L 123.594245 271.457081 
L 124.418978 271.134919 
" clip-path="url(#p1bd6f059cb)"/>
    <path d="M 139.206347 271.296 
L 139.206347 273.327236 
L 140.091769 272.884525 
L 138.763636 277.311633 
L 137.435504 272.884525 
L 138.320926 273.327236 
L 138.320926 271.296 
L 139.206347 271.296 
" clip-path="url(#p1bd6f059cb)"/>
    <path d="M 153.933027 271.457081 
L 153.032896 273.761418 
L 154.018709 273.671212 
L 151.170805 277.311633 
L 151.544512 272.704729 
L 152.208163 273.439256 
L 153.108295 271.134919 
L 153.933027 271.457081 
" clip-path="url(#p1bd6f059cb)"/>
    <path d="M 168.626553 271.568552 
L 166.37981 274.444383 
L 167.350096 274.640621 
L 163.577973 277.311633 
L 165.256895 273.005307 
L 165.682076 273.899279 
L 167.928819 271.023448 
L 168.626553 271.568552 
" clip-path="url(#p1bd6f059cb)"/>
    <path d="M 183.322083 271.632764 
L 179.303391 275.062048 
L 180.214899 275.448204 
L 175.985141 277.311633 
L 178.490667 273.427619 
L 178.728647 274.38852 
L 182.747339 270.959236 
L 183.322083 271.632764 
" clip-path="url(#p1bd6f059cb)"/>
    <path d="M 198.03038 271.668883 
L 191.986898 275.536711 
L 192.83707 276.043832 
L 188.39231 277.311633 
L 191.405201 273.806536 
L 191.509608 274.790946 
L 197.553091 270.923117 
L 198.03038 271.668883 
" clip-path="url(#p1bd6f059cb)"/>
    <path d="M 212.750521 271.690063 
L 204.547805 275.889853 
L 205.345388 276.476219 
L 200.799478 277.311633 
L 204.134827 274.111841 
L 204.144284 275.101728 
L 212.347 270.901937 
L 212.750521 271.690063 
" clip-path="url(#p1bd6f059cb)"/>
    <path d="M 65.137215 246.690713 
L 73.166912 249.774116 
L 73.071029 248.788839 
L 76.727795 251.615724 
L 72.118815 251.268563 
L 72.849507 250.600691 
L 64.81981 247.517287 
L 65.137215 246.690713 
" clip-path="url(#p1bd6f059cb)"/>
    <path d="M 79.927112 246.704886 
L 85.734512 249.492438 
L 85.718548 248.502636 
L 89.134963 251.615724 
L 84.5691 250.897319 
L 85.351363 250.290666 
L 79.543962 247.503114 
L 79.927112 246.704886 
" clip-path="url(#p1bd6f059cb)"/>
    <path d="M 94.731207 246.731117 
L 98.424833 249.095038 
L 98.52924 248.110628 
L 101.542131 251.615724 
L 97.097371 250.347924 
L 97.947543 249.840803 
L 94.253917 247.476883 
L 94.731207 246.731117 
" clip-path="url(#p1bd6f059cb)"/>
    <path d="M 109.556178 246.784634 
L 111.381598 248.537037 
L 111.675414 247.591714 
L 113.9493 251.615724 
L 109.835867 249.507909 
L 110.768415 249.175769 
L 108.942995 247.423366 
L 109.556178 246.784634 
" clip-path="url(#p1bd6f059cb)"/>
    <path d="M 124.399258 246.899497 
L 124.908584 247.877404 
L 125.489374 247.075751 
L 126.356468 251.615724 
L 123.133496 248.30277 
L 124.123292 248.28641 
L 123.613965 247.308503 
L 124.399258 246.899497 
" clip-path="url(#p1bd6f059cb)"/>
    <path d="M 139.206347 247.104 
L 139.206347 247.631328 
L 140.091769 247.188617 
L 138.763636 251.615724 
L 137.435504 247.188617 
L 138.320926 247.631328 
L 138.320926 247.104 
L 139.206347 247.104 
" clip-path="url(#p1bd6f059cb)"/>
    <path d="M 153.913308 247.308503 
L 153.403981 248.28641 
L 154.393777 248.30277 
L 151.170805 251.615724 
L 152.037899 247.075751 
L 152.618688 247.877404 
L 153.128015 246.899497 
L 153.913308 247.308503 
" clip-path="url(#p1bd6f059cb)"/>
    <path d="M 168.584277 247.423366 
L 166.758858 249.175769 
L 167.691406 249.507909 
L 163.577973 251.615724 
L 165.851858 247.591714 
L 166.145675 248.537037 
L 167.971095 246.784634 
L 168.584277 247.423366 
" clip-path="url(#p1bd6f059cb)"/>
    <path d="M 183.273356 247.476883 
L 179.57973 249.840803 
L 180.429902 250.347924 
L 175.985141 251.615724 
L 178.998033 248.110628 
L 179.10244 249.095038 
L 182.796066 246.731117 
L 183.273356 247.476883 
" clip-path="url(#p1bd6f059cb)"/>
    <path d="M 197.98331 247.503114 
L 192.17591 250.290666 
L 192.958173 250.897319 
L 188.39231 251.615724 
L 191.808725 248.502636 
L 191.79276 249.492438 
L 197.600161 246.704886 
L 197.98331 247.503114 
" clip-path="url(#p1bd6f059cb)"/>
    <path d="M 212.707463 247.517287 
L 204.677766 250.600691 
L 205.408458 251.268563 
L 200.799478 251.615724 
L 204.456244 248.788839 
L 204.360361 249.774116 
L 212.390058 246.690713 
L 212.707463 247.517287 
" clip-path="url(#p1bd6f059cb)"/>
    <path d="M 65.088306 222.48312 
L 72.977666 224.502796 
L 72.768373 223.535242 
L 76.727795 225.919816 
L 72.109613 226.108524 
L 72.75808 225.360557 
L 64.868719 223.34088 
L 65.088306 222.48312 
" clip-path="url(#p1bd6f059cb)"/>
    <path d="M 79.870465 222.490352 
L 85.475055 224.28382 
L 85.323262 223.305596 
L 89.134963 225.919816 
L 84.513697 225.835487 
L 85.2052 225.127117 
L 79.60061 223.333648 
L 79.870465 222.490352 
" clip-path="url(#p1bd6f059cb)"/>
    <path d="M 94.666299 222.504804 
L 98.051107 223.948989 
L 97.991385 222.960861 
L 101.542131 225.919816 
L 96.948964 225.404035 
L 97.703633 224.763381 
L 94.318825 223.319196 
L 94.666299 222.504804 
" clip-path="url(#p1bd6f059cb)"/>
    <path d="M 109.488232 222.539117 
L 110.832001 223.39913 
L 110.936408 222.41472 
L 113.9493 225.919816 
L 109.504539 224.652015 
L 110.354711 224.144895 
L 109.010942 223.284883 
L 109.488232 222.539117 
" clip-path="url(#p1bd6f059cb)"/>
    <path d="M 124.307393 222.677014 
L 124.542379 222.977796 
L 124.908956 222.207043 
L 126.356468 225.919816 
L 123.104267 223.616957 
L 123.940816 223.447767 
L 123.70583 223.146986 
L 124.307393 222.677014 
" clip-path="url(#p1bd6f059cb)"/>
    <path d="M 139.064418 222.912 
L 139.064418 223.212782 
L 139.665981 222.912 
L 138.763636 225.919816 
L 137.861291 222.912 
L 138.462855 223.212782 
L 138.462855 222.912 
L 139.064418 222.912 
" clip-path="url(#p1bd6f059cb)"/>
    <path d="M 153.821443 223.146986 
L 153.586457 223.447767 
L 154.423006 223.616957 
L 151.170805 225.919816 
L 152.618316 222.207043 
L 152.984894 222.977796 
L 153.21988 222.677014 
L 153.821443 223.146986 
" clip-path="url(#p1bd6f059cb)"/>
    <path d="M 168.516331 223.284883 
L 167.172561 224.144895 
L 168.022734 224.652015 
L 163.577973 225.919816 
L 166.590864 222.41472 
L 166.695272 223.39913 
L 168.039041 222.539117 
L 168.516331 223.284883 
" clip-path="url(#p1bd6f059cb)"/>
    <path d="M 183.208448 223.319196 
L 179.823639 224.763381 
L 180.578309 225.404035 
L 175.985141 225.919816 
L 179.535888 222.960861 
L 179.476166 223.948989 
L 182.860974 222.504804 
L 183.208448 223.319196 
" clip-path="url(#p1bd6f059cb)"/>
    <path d="M 197.926663 223.333648 
L 192.322073 225.127117 
L 193.013576 225.835487 
L 188.39231 225.919816 
L 192.204011 223.305596 
L 192.052218 224.28382 
L 197.656808 222.490352 
L 197.926663 223.333648 
" clip-path="url(#p1bd6f059cb)"/>
    <path d="M 212.658554 223.34088 
L 204.769193 225.360557 
L 205.41766 226.108524 
L 200.799478 225.919816 
L 204.7589 223.535242 
L 204.549606 224.502796 
L 212.438967 222.48312 
L 212.658554 223.34088 
" clip-path="url(#p1bd6f059cb)"/>
    <path d="M 65.034721 198.280872 
L 72.831851 199.278905 
L 72.50514 198.34444 
L 76.727795 200.223908 
L 72.167889 200.979208 
L 72.719434 200.157161 
L 64.922304 199.159128 
L 65.034721 198.280872 
" clip-path="url(#p1bd6f059cb)"/>
    <path d="M 79.805481 198.282849 
L 85.270552 199.157261 
L 84.97329 198.213015 
L 89.134963 200.223908 
L 84.553625 200.835919 
L 85.130664 200.031562 
L 79.665593 199.157151 
L 79.805481 198.282849 
" clip-path="url(#p1bd6f059cb)"/>
    <path d="M 94.584928 198.287032 
L 97.737786 198.959642 
L 97.489552 198.001339 
L 101.542131 200.223908 
L 96.935353 200.599147 
L 97.553053 199.825578 
L 94.400195 199.152968 
L 94.584928 198.287032 
" clip-path="url(#p1bd6f059cb)"/>
    <path d="M 109.384514 198.298352 
L 110.289392 198.587912 
L 110.137598 197.609688 
L 113.9493 200.223908 
L 109.328033 200.139578 
L 110.019537 199.431209 
L 109.114659 199.141648 
L 109.384514 198.298352 
" clip-path="url(#p1bd6f059cb)"/>
    <path d="M 124.157002 198.485014 
L 124.391988 198.635405 
L 124.457784 198.015043 
L 126.356468 200.223908 
L 123.555439 199.424957 
L 124.091206 199.105376 
L 123.856221 198.954986 
L 124.157002 198.485014 
" clip-path="url(#p1bd6f059cb)"/>
    <path d="M 138.914027 198.72 
L 138.914027 198.870391 
L 139.214809 198.72 
L 138.763636 200.223908 
L 138.312464 198.72 
L 138.613246 198.870391 
L 138.613246 198.72 
L 138.914027 198.72 
" clip-path="url(#p1bd6f059cb)"/>
    <path d="M 153.671052 198.954986 
L 153.436066 199.105376 
L 153.971834 199.424957 
L 151.170805 200.223908 
L 153.069489 198.015043 
L 153.135285 198.635405 
L 153.37027 198.485014 
L 153.671052 198.954986 
" clip-path="url(#p1bd6f059cb)"/>
    <path d="M 168.412613 199.141648 
L 167.507736 199.431209 
L 168.199239 200.139578 
L 163.577973 200.223908 
L 167.389675 197.609688 
L 167.237881 198.587912 
L 168.142758 198.298352 
L 168.412613 199.141648 
" clip-path="url(#p1bd6f059cb)"/>
    <path d="M 183.127077 199.152968 
L 179.974219 199.825578 
L 180.59192 200.599147 
L 175.985141 200.223908 
L 180.037721 198.001339 
L 179.789486 198.959642 
L 182.942344 198.287032 
L 183.127077 199.152968 
" clip-path="url(#p1bd6f059cb)"/>
    <path d="M 197.86168 199.157151 
L 192.396609 200.031562 
L 192.973648 200.835919 
L 188.39231 200.223908 
L 192.553983 198.213015 
L 192.256721 199.157261 
L 197.721791 198.282849 
L 197.86168 199.157151 
" clip-path="url(#p1bd6f059cb)"/>
    <path d="M 212.604969 199.159128 
L 204.807839 200.157161 
L 205.359383 200.979208 
L 200.799478 200.223908 
L 205.022133 198.34444 
L 204.695422 199.278905 
L 212.492552 198.280872 
L 212.604969 199.159128 
" clip-path="url(#p1bd6f059cb)"/>
    <path d="M 64.978512 174.085289 
L 72.743398 174.085289 
L 72.300687 173.199868 
L 76.727795 174.528 
L 72.300687 175.856132 
L 72.743398 174.970711 
L 64.978512 174.970711 
L 64.978512 174.085289 
" clip-path="url(#p1bd6f059cb)"/>
    <path d="M 79.735537 174.085289 
L 85.150566 174.085289 
L 84.707856 173.199868 
L 89.134963 174.528 
L 84.707856 175.856132 
L 85.150566 174.970711 
L 79.735537 174.970711 
L 79.735537 174.085289 
" clip-path="url(#p1bd6f059cb)"/>
    <path d="M 94.492562 174.085289 
L 97.557735 174.085289 
L 97.115024 173.199868 
L 101.542131 174.528 
L 97.115024 175.856132 
L 97.557735 174.970711 
L 94.492562 174.970711 
L 94.492562 174.085289 
" clip-path="url(#p1bd6f059cb)"/>
    <path d="M 109.249587 174.085289 
L 109.964903 174.085289 
L 109.522192 173.199868 
L 113.9493 174.528 
L 109.522192 175.856132 
L 109.964903 174.970711 
L 109.249587 174.970711 
L 109.249587 174.085289 
" clip-path="url(#p1bd6f059cb)"/>
    <path d="M 124.006612 174.293014 
L 124.241597 174.293014 
L 124.006612 173.823043 
L 126.356468 174.528 
L 124.006612 175.232957 
L 124.241597 174.762986 
L 124.006612 174.762986 
L 124.006612 174.293014 
" clip-path="url(#p1bd6f059cb)"/>
    <path d="M 139.206347 174.528 
L 138.984992 174.144601 
L 138.542281 174.144601 
L 138.320926 174.528 
L 138.542281 174.911399 
L 138.984992 174.911399 
L 139.206347 174.528 
L 138.984992 174.144601 
" clip-path="url(#p1bd6f059cb)"/>
    <path d="M 153.520661 174.762986 
L 153.285676 174.762986 
L 153.520661 175.232957 
L 151.170805 174.528 
L 153.520661 173.823043 
L 153.285676 174.293014 
L 153.520661 174.293014 
L 153.520661 174.762986 
" clip-path="url(#p1bd6f059cb)"/>
    <path d="M 168.277686 174.970711 
L 167.56237 174.970711 
L 168.00508 175.856132 
L 163.577973 174.528 
L 168.00508 173.199868 
L 167.56237 174.085289 
L 168.277686 174.085289 
L 168.277686 174.970711 
" clip-path="url(#p1bd6f059cb)"/>
    <path d="M 183.034711 174.970711 
L 179.969538 174.970711 
L 180.412249 175.856132 
L 175.985141 174.528 
L 180.412249 173.199868 
L 179.969538 174.085289 
L 183.034711 174.085289 
L 183.034711 174.970711 
" clip-path="url(#p1bd6f059cb)"/>
    <path d="M 197.791736 174.970711 
L 192.376706 174.970711 
L 192.819417 175.856132 
L 188.39231 174.528 
L 192.819417 173.199868 
L 192.376706 174.085289 
L 197.791736 174.085289 
L 197.791736 174.970711 
" clip-path="url(#p1bd6f059cb)"/>
    <path d="M 212.54876 174.970711 
L 204.783875 174.970711 
L 205.226585 175.856132 
L 200.799478 174.528 
L 205.226585 173.199868 
L 204.783875 174.085289 
L 212.54876 174.085289 
L 212.54876 174.970711 
" clip-path="url(#p1bd6f059cb)"/>
    <path d="M 64.922304 149.896872 
L 72.719434 148.898839 
L 72.167889 148.076792 
L 76.727795 148.832092 
L 72.50514 150.71156 
L 72.831851 149.777095 
L 65.034721 150.775128 
L 64.922304 149.896872 
" clip-path="url(#p1bd6f059cb)"/>
    <path d="M 79.665593 149.898849 
L 85.130664 149.024438 
L 84.553625 148.220081 
L 89.134963 148.832092 
L 84.97329 150.842985 
L 85.270552 149.898739 
L 79.805481 150.773151 
L 79.665593 149.898849 
" clip-path="url(#p1bd6f059cb)"/>
    <path d="M 94.400195 149.903032 
L 97.553053 149.230422 
L 96.935353 148.456853 
L 101.542131 148.832092 
L 97.489552 151.054661 
L 97.737786 150.096358 
L 94.584928 150.768968 
L 94.400195 149.903032 
" clip-path="url(#p1bd6f059cb)"/>
    <path d="M 109.114659 149.914352 
L 110.019537 149.624791 
L 109.328033 148.916422 
L 113.9493 148.832092 
L 110.137598 151.446312 
L 110.289392 150.468088 
L 109.384514 150.757648 
L 109.114659 149.914352 
" clip-path="url(#p1bd6f059cb)"/>
    <path d="M 123.856221 150.101014 
L 124.091206 149.950624 
L 123.555439 149.631043 
L 126.356468 148.832092 
L 124.457784 151.040957 
L 124.391988 150.420595 
L 124.157002 150.570986 
L 123.856221 150.101014 
" clip-path="url(#p1bd6f059cb)"/>
    <path d="M 138.613246 150.336 
L 138.613246 150.185609 
L 138.312464 150.336 
L 138.763636 148.832092 
L 139.214809 150.336 
L 138.914027 150.185609 
L 138.914027 150.336 
L 138.613246 150.336 
" clip-path="url(#p1bd6f059cb)"/>
    <path d="M 153.37027 150.570986 
L 153.135285 150.420595 
L 153.069489 151.040957 
L 151.170805 148.832092 
L 153.971834 149.631043 
L 153.436066 149.950624 
L 153.671052 150.101014 
L 153.37027 150.570986 
" clip-path="url(#p1bd6f059cb)"/>
    <path d="M 168.142758 150.757648 
L 167.237881 150.468088 
L 167.389675 151.446312 
L 163.577973 148.832092 
L 168.199239 148.916422 
L 167.507736 149.624791 
L 168.412613 149.914352 
L 168.142758 150.757648 
" clip-path="url(#p1bd6f059cb)"/>
    <path d="M 182.942344 150.768968 
L 179.789486 150.096358 
L 180.037721 151.054661 
L 175.985141 148.832092 
L 180.59192 148.456853 
L 179.974219 149.230422 
L 183.127077 149.903032 
L 182.942344 150.768968 
" clip-path="url(#p1bd6f059cb)"/>
    <path d="M 197.721791 150.773151 
L 192.256721 149.898739 
L 192.553983 150.842985 
L 188.39231 148.832092 
L 192.973648 148.220081 
L 192.396609 149.024438 
L 197.86168 149.898849 
L 197.721791 150.773151 
" clip-path="url(#p1bd6f059cb)"/>
    <path d="M 212.492552 150.775128 
L 204.695422 149.777095 
L 205.022133 150.71156 
L 200.799478 148.832092 
L 205.359383 148.076792 
L 204.807839 148.898839 
L 212.604969 149.896872 
L 212.492552 150.775128 
" clip-path="url(#p1bd6f059cb)"/>
    <path d="M 64.868719 125.71512 
L 72.75808 123.695443 
L 72.109613 122.947476 
L 76.727795 123.136184 
L 72.768373 125.520758 
L 72.977666 124.553204 
L 65.088306 126.57288 
L 64.868719 125.71512 
" clip-path="url(#p1bd6f059cb)"/>
    <path d="M 79.60061 125.722352 
L 85.2052 123.928883 
L 84.513697 123.220513 
L 89.134963 123.136184 
L 85.323262 125.750404 
L 85.475055 124.77218 
L 79.870465 126.565648 
L 79.60061 125.722352 
" clip-path="url(#p1bd6f059cb)"/>
    <path d="M 94.318825 125.736804 
L 97.703633 124.292619 
L 96.948964 123.651965 
L 101.542131 123.136184 
L 97.991385 126.095139 
L 98.051107 125.107011 
L 94.666299 126.551196 
L 94.318825 125.736804 
" clip-path="url(#p1bd6f059cb)"/>
    <path d="M 109.010942 125.771117 
L 110.354711 124.911105 
L 109.504539 124.403985 
L 113.9493 123.136184 
L 110.936408 126.64128 
L 110.832001 125.65687 
L 109.488232 126.516883 
L 109.010942 125.771117 
" clip-path="url(#p1bd6f059cb)"/>
    <path d="M 123.70583 125.909014 
L 123.940816 125.608233 
L 123.104267 125.439043 
L 126.356468 123.136184 
L 124.908956 126.848957 
L 124.542379 126.078204 
L 124.307393 126.378986 
L 123.70583 125.909014 
" clip-path="url(#p1bd6f059cb)"/>
    <path d="M 138.462855 126.144 
L 138.462855 125.843218 
L 137.861291 126.144 
L 138.763636 123.136184 
L 139.665981 126.144 
L 139.064418 125.843218 
L 139.064418 126.144 
L 138.462855 126.144 
" clip-path="url(#p1bd6f059cb)"/>
    <path d="M 153.21988 126.378986 
L 152.984894 126.078204 
L 152.618316 126.848957 
L 151.170805 123.136184 
L 154.423006 125.439043 
L 153.586457 125.608233 
L 153.821443 125.909014 
L 153.21988 126.378986 
" clip-path="url(#p1bd6f059cb)"/>
    <path d="M 168.039041 126.516883 
L 166.695272 125.65687 
L 166.590864 126.64128 
L 163.577973 123.136184 
L 168.022734 124.403985 
L 167.172561 124.911105 
L 168.516331 125.771117 
L 168.039041 126.516883 
" clip-path="url(#p1bd6f059cb)"/>
    <path d="M 182.860974 126.551196 
L 179.476166 125.107011 
L 179.535888 126.095139 
L 175.985141 123.136184 
L 180.578309 123.651965 
L 179.823639 124.292619 
L 183.208448 125.736804 
L 182.860974 126.551196 
" clip-path="url(#p1bd6f059cb)"/>
    <path d="M 197.656808 126.565648 
L 192.052218 124.77218 
L 192.204011 125.750404 
L 188.39231 123.136184 
L 193.013576 123.220513 
L 192.322073 123.928883 
L 197.926663 125.722352 
L 197.656808 126.565648 
" clip-path="url(#p1bd6f059cb)"/>
    <path d="M 212.438967 126.57288 
L 204.549606 124.553204 
L 204.7589 125.520758 
L 200.799478 123.136184 
L 205.41766 122.947476 
L 204.769193 123.695443 
L 212.658554 125.71512 
L 212.438967 126.57288 
" clip-path="url(#p1bd6f059cb)"/>
    <path d="M 64.81981 101.538713 
L 72.849507 98.455309 
L 72.118815 97.787437 
L 76.727795 97.440276 
L 73.071029 100.267161 
L 73.166912 99.281884 
L 65.137215 102.365287 
L 64.81981 101.538713 
" clip-path="url(#p1bd6f059cb)"/>
    <path d="M 79.543962 101.552886 
L 85.351363 98.765334 
L 84.5691 98.158681 
L 89.134963 97.440276 
L 85.718548 100.553364 
L 85.734512 99.563562 
L 79.927112 102.351114 
L 79.543962 101.552886 
" clip-path="url(#p1bd6f059cb)"/>
    <path d="M 94.253917 101.579117 
L 97.947543 99.215197 
L 97.097371 98.708076 
L 101.542131 97.440276 
L 98.52924 100.945372 
L 98.424833 99.960962 
L 94.731207 102.324883 
L 94.253917 101.579117 
" clip-path="url(#p1bd6f059cb)"/>
    <path d="M 108.942995 101.632634 
L 110.768415 99.880231 
L 109.835867 99.548091 
L 113.9493 97.440276 
L 111.675414 101.464286 
L 111.381598 100.518963 
L 109.556178 102.271366 
L 108.942995 101.632634 
" clip-path="url(#p1bd6f059cb)"/>
    <path d="M 123.613965 101.747497 
L 124.123292 100.76959 
L 123.133496 100.75323 
L 126.356468 97.440276 
L 125.489374 101.980249 
L 124.908584 101.178596 
L 124.399258 102.156503 
L 123.613965 101.747497 
" clip-path="url(#p1bd6f059cb)"/>
    <path d="M 138.320926 101.952 
L 138.320926 101.424672 
L 137.435504 101.867383 
L 138.763636 97.440276 
L 140.091769 101.867383 
L 139.206347 101.424672 
L 139.206347 101.952 
L 138.320926 101.952 
" clip-path="url(#p1bd6f059cb)"/>
    <path d="M 153.128015 102.156503 
L 152.618688 101.178596 
L 152.037899 101.980249 
L 151.170805 97.440276 
L 154.393777 100.75323 
L 153.403981 100.76959 
L 153.913308 101.747497 
L 153.128015 102.156503 
" clip-path="url(#p1bd6f059cb)"/>
    <path d="M 167.971095 102.271366 
L 166.145675 100.518963 
L 165.851858 101.464286 
L 163.577973 97.440276 
L 167.691406 99.548091 
L 166.758858 99.880231 
L 168.584277 101.632634 
L 167.971095 102.271366 
" clip-path="url(#p1bd6f059cb)"/>
    <path d="M 182.796066 102.324883 
L 179.10244 99.960962 
L 178.998033 100.945372 
L 175.985141 97.440276 
L 180.429902 98.708076 
L 179.57973 99.215197 
L 183.273356 101.579117 
L 182.796066 102.324883 
" clip-path="url(#p1bd6f059cb)"/>
    <path d="M 197.600161 102.351114 
L 191.79276 99.563562 
L 191.808725 100.553364 
L 188.39231 97.440276 
L 192.958173 98.158681 
L 192.17591 98.765334 
L 197.98331 101.552886 
L 197.600161 102.351114 
" clip-path="url(#p1bd6f059cb)"/>
    <path d="M 212.390058 102.365287 
L 204.360361 99.281884 
L 204.456244 100.267161 
L 200.799478 97.440276 
L 205.408458 97.787437 
L 204.677766 98.455309 
L 212.707463 101.538713 
L 212.390058 102.365287 
" clip-path="url(#p1bd6f059cb)"/>
    <path d="M 64.776752 77.365937 
L 72.979468 73.166147 
L 72.181885 72.579781 
L 76.727795 71.744367 
L 73.392446 74.944159 
L 73.382988 73.954272 
L 65.180273 78.154063 
L 64.776752 77.365937 
" clip-path="url(#p1bd6f059cb)"/>
    <path d="M 79.496892 77.387117 
L 85.540375 73.519289 
L 84.690203 73.012168 
L 89.134963 71.744367 
L 86.122072 75.249464 
L 86.017665 74.265054 
L 79.974182 78.132883 
L 79.496892 77.387117 
" clip-path="url(#p1bd6f059cb)"/>
    <path d="M 94.20519 77.423236 
L 98.223882 73.993952 
L 97.312374 73.607796 
L 101.542131 71.744367 
L 99.036606 75.628381 
L 98.798626 74.66748 
L 94.779934 78.096764 
L 94.20519 77.423236 
" clip-path="url(#p1bd6f059cb)"/>
    <path d="M 108.90072 77.487448 
L 111.147463 74.611617 
L 110.177177 74.415379 
L 113.9493 71.744367 
L 112.270378 76.050693 
L 111.845197 75.156721 
L 109.598454 78.032552 
L 108.90072 77.487448 
" clip-path="url(#p1bd6f059cb)"/>
    <path d="M 123.594245 77.598919 
L 124.494377 75.294582 
L 123.508564 75.384788 
L 126.356468 71.744367 
L 125.982761 76.351271 
L 125.319109 75.616744 
L 124.418978 77.921081 
L 123.594245 77.598919 
" clip-path="url(#p1bd6f059cb)"/>
    <path d="M 138.320926 77.76 
L 138.320926 75.728764 
L 137.435504 76.171475 
L 138.763636 71.744367 
L 140.091769 76.171475 
L 139.206347 75.728764 
L 139.206347 77.76 
L 138.320926 77.76 
" clip-path="url(#p1bd6f059cb)"/>
    <path d="M 153.108295 77.921081 
L 152.208163 75.616744 
L 151.544512 76.351271 
L 151.170805 71.744367 
L 154.018709 75.384788 
L 153.032896 75.294582 
L 153.933027 77.598919 
L 153.108295 77.921081 
" clip-path="url(#p1bd6f059cb)"/>
    <path d="M 167.928819 78.032552 
L 165.682076 75.156721 
L 165.256895 76.050693 
L 163.577973 71.744367 
L 167.350096 74.415379 
L 166.37981 74.611617 
L 168.626553 77.487448 
L 167.928819 78.032552 
" clip-path="url(#p1bd6f059cb)"/>
    <path d="M 182.747339 78.096764 
L 178.728647 74.66748 
L 178.490667 75.628381 
L 175.985141 71.744367 
L 180.214899 73.607796 
L 179.303391 73.993952 
L 183.322083 77.423236 
L 182.747339 78.096764 
" clip-path="url(#p1bd6f059cb)"/>
    <path d="M 197.553091 78.132883 
L 191.509608 74.265054 
L 191.405201 75.249464 
L 188.39231 71.744367 
L 192.83707 73.012168 
L 191.986898 73.519289 
L 198.03038 77.387117 
L 197.553091 78.132883 
" clip-path="url(#p1bd6f059cb)"/>
    <path d="M 212.347 78.154063 
L 204.144284 73.954272 
L 204.134827 74.944159 
L 200.799478 71.744367 
L 205.345388 72.579781 
L 204.547805 73.166147 
L 212.750521 77.365937 
L 212.347 78.154063 
" clip-path="url(#p1bd6f059cb)"/>
    <path d="M 64.739868 53.195117 
L 73.133207 47.82338 
L 72.283034 47.31626 
L 76.727795 46.048459 
L 73.714903 49.553556 
L 73.610496 48.569146 
L 65.217157 53.940883 
L 64.739868 53.195117 
" clip-path="url(#p1bd6f059cb)"/>
    <path d="M 79.458978 53.222301 
L 85.747113 48.191793 
L 84.848295 47.776954 
L 89.134963 46.048459 
L 86.507651 49.851148 
L 86.300231 48.883191 
L 80.012096 53.913699 
L 79.458978 53.222301 
" clip-path="url(#p1bd6f059cb)"/>
    <path d="M 94.169588 53.265212 
L 98.494065 48.652437 
L 97.545329 48.369835 
L 101.542131 46.048459 
L 99.483172 50.186563 
L 99.140013 49.258013 
L 94.815536 53.870788 
L 94.169588 53.265212 
" clip-path="url(#p1bd6f059cb)"/>
    <path d="M 108.874169 53.333364 
L 111.462156 49.192585 
L 110.476684 49.09873 
L 113.9493 46.048459 
L 112.729191 50.506548 
L 112.212992 49.661857 
L 109.625005 53.802636 
L 108.874169 53.333364 
" clip-path="url(#p1bd6f059cb)"/>
    <path d="M 123.584053 53.43595 
L 124.745464 49.719437 
L 123.768297 49.877896 
L 126.356468 46.048459 
L 126.303648 50.670193 
L 125.590581 49.983536 
L 124.42917 53.70005 
L 123.584053 53.43595 
" clip-path="url(#p1bd6f059cb)"/>
    <path d="M 138.320926 53.568 
L 138.320926 50.032856 
L 137.435504 50.475567 
L 138.763636 46.048459 
L 140.091769 50.475567 
L 139.206347 50.032856 
L 139.206347 53.568 
L 138.320926 53.568 
" clip-path="url(#p1bd6f059cb)"/>
    <path d="M 153.098103 53.70005 
L 151.936692 49.983536 
L 151.223624 50.670193 
L 151.170805 46.048459 
L 153.758976 49.877896 
L 152.781809 49.719437 
L 153.94322 53.43595 
L 153.098103 53.70005 
" clip-path="url(#p1bd6f059cb)"/>
    <path d="M 167.902268 53.802636 
L 165.314281 49.661857 
L 164.798081 50.506548 
L 163.577973 46.048459 
L 167.050589 49.09873 
L 166.065117 49.192585 
L 168.653104 53.333364 
L 167.902268 53.802636 
" clip-path="url(#p1bd6f059cb)"/>
    <path d="M 182.711737 53.870788 
L 178.38726 49.258013 
L 178.0441 50.186563 
L 175.985141 46.048459 
L 179.981944 48.369835 
L 179.033208 48.652437 
L 183.357685 53.265212 
L 182.711737 53.870788 
" clip-path="url(#p1bd6f059cb)"/>
    <path d="M 197.515176 53.913699 
L 191.227042 48.883191 
L 191.019622 49.851148 
L 188.39231 46.048459 
L 192.678977 47.776954 
L 191.78016 48.191793 
L 198.068295 53.222301 
L 197.515176 53.913699 
" clip-path="url(#p1bd6f059cb)"/>
    <path d="M 212.310115 53.940883 
L 203.916776 48.569146 
L 203.812369 49.553556 
L 200.799478 46.048459 
L 205.244239 47.31626 
L 204.394066 47.82338 
L 212.787405 53.195117 
L 212.310115 53.940883 
" clip-path="url(#p1bd6f059cb)"/>
   </g>
   <g id="matplotlib.axis_1">
    <g id="xtick_1">
     <g id="line2d_1">
      <defs>
       <path id="m607617687e" d="M 0 0 
L 0 3.5 
" style="stroke: #000000; stroke-width: 0.8"/>
      </defs>
      <g>
       <use xlink:href="#m607617687e" x="64.978512" y="307.584" style="stroke: #000000; stroke-width: 0.8"/>
      </g>
     </g>
     <g id="text_1">
      <!-- −5.0 -->
      <g transform="translate(52.837106 322.182437) scale(0.1 -0.1)">
       <defs>
        <path id="DejaVuSans-2212" d="M 678 2272 
L 4684 2272 
L 4684 1741 
L 678 1741 
L 678 2272 
z
" transform="scale(0.015625)"/>
        <path id="DejaVuSans-35" d="M 691 4666 
L 3169 4666 
L 3169 4134 
L 1269 4134 
L 1269 2991 
Q 1406 3038 1543 3061 
Q 1681 3084 1819 3084 
Q 2600 3084 3056 2656 
Q 3513 2228 3513 1497 
Q 3513 744 3044 326 
Q 2575 -91 1722 -91 
Q 1428 -91 1123 -41 
Q 819 9 494 109 
L 494 744 
Q 775 591 1075 516 
Q 1375 441 1709 441 
Q 2250 441 2565 725 
Q 2881 1009 2881 1497 
Q 2881 1984 2565 2268 
Q 2250 2553 1709 2553 
Q 1456 2553 1204 2497 
Q 953 2441 691 2322 
L 691 4666 
z
" transform="scale(0.015625)"/>
        <path id="DejaVuSans-2e" d="M 684 794 
L 1344 794 
L 1344 0 
L 684 0 
L 684 794 
z
" transform="scale(0.015625)"/>
        <path id="DejaVuSans-30" d="M 2034 4250 
Q 1547 4250 1301 3770 
Q 1056 3291 1056 2328 
Q 1056 1369 1301 889 
Q 1547 409 2034 409 
Q 2525 409 2770 889 
Q 3016 1369 3016 2328 
Q 3016 3291 2770 3770 
Q 2525 4250 2034 4250 
z
M 2034 4750 
Q 2819 4750 3233 4129 
Q 3647 3509 3647 2328 
Q 3647 1150 3233 529 
Q 2819 -91 2034 -91 
Q 1250 -91 836 529 
Q 422 1150 422 2328 
Q 422 3509 836 4129 
Q 1250 4750 2034 4750 
z
" transform="scale(0.015625)"/>
       </defs>
       <use xlink:href="#DejaVuSans-2212"/>
       <use xlink:href="#DejaVuSans-35" x="83.789062"/>
       <use xlink:href="#DejaVuSans-2e" x="147.412109"/>
       <use xlink:href="#DejaVuSans-30" x="179.199219"/>
      </g>
     </g>
    </g>
    <g id="xtick_2">
     <g id="line2d_2">
      <g>
       <use xlink:href="#m607617687e" x="101.871074" y="307.584" style="stroke: #000000; stroke-width: 0.8"/>
      </g>
     </g>
     <g id="text_2">
      <!-- −2.5 -->
      <g transform="translate(89.729668 322.182437) scale(0.1 -0.1)">
       <defs>
        <path id="DejaVuSans-32" d="M 1228 531 
L 3431 531 
L 3431 0 
L 469 0 
L 469 531 
Q 828 903 1448 1529 
Q 2069 2156 2228 2338 
Q 2531 2678 2651 2914 
Q 2772 3150 2772 3378 
Q 2772 3750 2511 3984 
Q 2250 4219 1831 4219 
Q 1534 4219 1204 4116 
Q 875 4013 500 3803 
L 500 4441 
Q 881 4594 1212 4672 
Q 1544 4750 1819 4750 
Q 2544 4750 2975 4387 
Q 3406 4025 3406 3419 
Q 3406 3131 3298 2873 
Q 3191 2616 2906 2266 
Q 2828 2175 2409 1742 
Q 1991 1309 1228 531 
z
" transform="scale(0.015625)"/>
       </defs>
       <use xlink:href="#DejaVuSans-2212"/>
       <use xlink:href="#DejaVuSans-32" x="83.789062"/>
       <use xlink:href="#DejaVuSans-2e" x="147.412109"/>
       <use xlink:href="#DejaVuSans-35" x="179.199219"/>
      </g>
     </g>
    </g>
    <g id="xtick_3">
     <g id="line2d_3">
      <g>
       <use xlink:href="#m607617687e" x="138.763636" y="307.584" style="stroke: #000000; stroke-width: 0.8"/>
      </g>
     </g>
     <g id="text_3">
      <!-- 0.0 -->
      <g transform="translate(130.812074 322.182437) scale(0.1 -0.1)">
       <use xlink:href="#DejaVuSans-30"/>
       <use xlink:href="#DejaVuSans-2e" x="63.623047"/>
       <use xlink:href="#DejaVuSans-30" x="95.410156"/>
      </g>
     </g>
    </g>
    <g id="xtick_4">
     <g id="line2d_4">
      <g>
       <use xlink:href="#m607617687e" x="175.656198" y="307.584" style="stroke: #000000; stroke-width: 0.8"/>
      </g>
     </g>
     <g id="text_4">
      <!-- 2.5 -->
      <g transform="translate(167.704636 322.182437) scale(0.1 -0.1)">
       <use xlink:href="#DejaVuSans-32"/>
       <use xlink:href="#DejaVuSans-2e" x="63.623047"/>
       <use xlink:href="#DejaVuSans-35" x="95.410156"/>
      </g>
     </g>
    </g>
    <g id="xtick_5">
     <g id="line2d_5">
      <g>
       <use xlink:href="#m607617687e" x="212.54876" y="307.584" style="stroke: #000000; stroke-width: 0.8"/>
      </g>
     </g>
     <g id="text_5">
      <!-- 5.0 -->
      <g transform="translate(204.597198 322.182437) scale(0.1 -0.1)">
       <use xlink:href="#DejaVuSans-35"/>
       <use xlink:href="#DejaVuSans-2e" x="63.623047"/>
       <use xlink:href="#DejaVuSans-30" x="95.410156"/>
      </g>
     </g>
    </g>
   </g>
   <g id="matplotlib.axis_2">
    <g id="ytick_1">
     <g id="line2d_6">
      <defs>
       <path id="m2c17214cf9" d="M 0 0 
L -3.5 0 
" style="stroke: #000000; stroke-width: 0.8"/>
      </defs>
      <g>
       <use xlink:href="#m2c17214cf9" x="57.6" y="271.296" style="stroke: #000000; stroke-width: 0.8"/>
      </g>
     </g>
     <g id="text_6">
      <!-- −4 -->
      <g transform="translate(35.857813 275.095219) scale(0.1 -0.1)">
       <defs>
        <path id="DejaVuSans-34" d="M 2419 4116 
L 825 1625 
L 2419 1625 
L 2419 4116 
z
M 2253 4666 
L 3047 4666 
L 3047 1625 
L 3713 1625 
L 3713 1100 
L 3047 1100 
L 3047 0 
L 2419 0 
L 2419 1100 
L 313 1100 
L 313 1709 
L 2253 4666 
z
" transform="scale(0.015625)"/>
       </defs>
       <use xlink:href="#DejaVuSans-2212"/>
       <use xlink:href="#DejaVuSans-34" x="83.789062"/>
      </g>
     </g>
    </g>
    <g id="ytick_2">
     <g id="line2d_7">
      <g>
       <use xlink:href="#m2c17214cf9" x="57.6" y="222.912" style="stroke: #000000; stroke-width: 0.8"/>
      </g>
     </g>
     <g id="text_7">
      <!-- −2 -->
      <g transform="translate(35.857813 226.711219) scale(0.1 -0.1)">
       <use xlink:href="#DejaVuSans-2212"/>
       <use xlink:href="#DejaVuSans-32" x="83.789062"/>
      </g>
     </g>
    </g>
    <g id="ytick_3">
     <g id="line2d_8">
      <g>
       <use xlink:href="#m2c17214cf9" x="57.6" y="174.528" style="stroke: #000000; stroke-width: 0.8"/>
      </g>
     </g>
     <g id="text_8">
      <!-- 0 -->
      <g transform="translate(44.2375 178.327219) scale(0.1 -0.1)">
       <use xlink:href="#DejaVuSans-30"/>
      </g>
     </g>
    </g>
    <g id="ytick_4">
     <g id="line2d_9">
      <g>
       <use xlink:href="#m2c17214cf9" x="57.6" y="126.144" style="stroke: #000000; stroke-width: 0.8"/>
      </g>
     </g>
     <g id="text_9">
      <!-- 2 -->
      <g transform="translate(44.2375 129.943219) scale(0.1 -0.1)">
       <use xlink:href="#DejaVuSans-32"/>
      </g>
     </g>
    </g>
    <g id="ytick_5">
     <g id="line2d_10">
      <g>
       <use xlink:href="#m2c17214cf9" x="57.6" y="77.76" style="stroke: #000000; stroke-width: 0.8"/>
      </g>
     </g>
     <g id="text_10">
      <!-- 4 -->
      <g transform="translate(44.2375 81.559219) scale(0.1 -0.1)">
       <use xlink:href="#DejaVuSans-34"/>
      </g>
     </g>
    </g>
   </g>
   <g id="patch_3">
    <path d="M 57.6 307.584 
L 57.6 41.472 
" style="fill: none; stroke: #000000; stroke-width: 0.8; stroke-linejoin: miter; stroke-linecap: square"/>
   </g>
   <g id="patch_4">
    <path d="M 219.927273 307.584 
L 219.927273 41.472 
" style="fill: none; stroke: #000000; stroke-width: 0.8; stroke-linejoin: miter; stroke-linecap: square"/>
   </g>
   <g id="patch_5">
    <path d="M 57.6 307.584 
L 219.927273 307.584 
" style="fill: none; stroke: #000000; stroke-width: 0.8; stroke-linejoin: miter; stroke-linecap: square"/>
   </g>
   <g id="patch_6">
    <path d="M 57.6 41.472 
L 219.927273 41.472 
" style="fill: none; stroke: #000000; stroke-width: 0.8; stroke-linejoin: miter; stroke-linecap: square"/>
   </g>
  </g>
  <g id="axes_2">
   <g id="patch_7">
    <path d="M 252.392727 307.584 
L 414.72 307.584 
L 414.72 41.472 
L 252.392727 41.472 
z
" style="fill: #ffffff"/>
   </g>
   <g id="matplotlib.axis_3">
    <g id="xtick_6">
     <g id="line2d_11">
      <g>
       <use xlink:href="#m607617687e" x="279.447273" y="307.584" style="stroke: #000000; stroke-width: 0.8"/>
      </g>
     </g>
     <g id="text_11">
      <!-- 0 -->
      <g transform="translate(276.266023 322.182437) scale(0.1 -0.1)">
       <use xlink:href="#DejaVuSans-30"/>
      </g>
     </g>
    </g>
    <g id="xtick_7">
     <g id="line2d_12">
      <g>
       <use xlink:href="#m607617687e" x="333.556364" y="307.584" style="stroke: #000000; stroke-width: 0.8"/>
      </g>
     </g>
     <g id="text_12">
      <!-- 2 -->
      <g transform="translate(330.375114 322.182437) scale(0.1 -0.1)">
       <use xlink:href="#DejaVuSans-32"/>
      </g>
     </g>
    </g>
    <g id="xtick_8">
     <g id="line2d_13">
      <g>
       <use xlink:href="#m607617687e" x="387.665455" y="307.584" style="stroke: #000000; stroke-width: 0.8"/>
      </g>
     </g>
     <g id="text_13">
      <!-- 4 -->
      <g transform="translate(384.484205 322.182437) scale(0.1 -0.1)">
       <use xlink:href="#DejaVuSans-34"/>
      </g>
     </g>
    </g>
   </g>
   <g id="matplotlib.axis_4">
    <g id="ytick_6">
     <g id="line2d_14">
      <g>
       <use xlink:href="#m2c17214cf9" x="252.392727" y="307.584" style="stroke: #000000; stroke-width: 0.8"/>
      </g>
     </g>
     <g id="text_14">
      <!-- −5 -->
      <g transform="translate(230.65054 311.383219) scale(0.1 -0.1)">
       <use xlink:href="#DejaVuSans-2212"/>
       <use xlink:href="#DejaVuSans-35" x="83.789062"/>
      </g>
     </g>
    </g>
    <g id="ytick_7">
     <g id="line2d_15">
      <g>
       <use xlink:href="#m2c17214cf9" x="252.392727" y="263.232" style="stroke: #000000; stroke-width: 0.8"/>
      </g>
     </g>
     <g id="text_15">
      <!-- −4 -->
      <g transform="translate(230.65054 267.031219) scale(0.1 -0.1)">
       <use xlink:href="#DejaVuSans-2212"/>
       <use xlink:href="#DejaVuSans-34" x="83.789062"/>
      </g>
     </g>
    </g>
    <g id="ytick_8">
     <g id="line2d_16">
      <g>
       <use xlink:href="#m2c17214cf9" x="252.392727" y="218.88" style="stroke: #000000; stroke-width: 0.8"/>
      </g>
     </g>
     <g id="text_16">
      <!-- −3 -->
      <g transform="translate(230.65054 222.679219) scale(0.1 -0.1)">
       <defs>
        <path id="DejaVuSans-33" d="M 2597 2516 
Q 3050 2419 3304 2112 
Q 3559 1806 3559 1356 
Q 3559 666 3084 287 
Q 2609 -91 1734 -91 
Q 1441 -91 1130 -33 
Q 819 25 488 141 
L 488 750 
Q 750 597 1062 519 
Q 1375 441 1716 441 
Q 2309 441 2620 675 
Q 2931 909 2931 1356 
Q 2931 1769 2642 2001 
Q 2353 2234 1838 2234 
L 1294 2234 
L 1294 2753 
L 1863 2753 
Q 2328 2753 2575 2939 
Q 2822 3125 2822 3475 
Q 2822 3834 2567 4026 
Q 2313 4219 1838 4219 
Q 1578 4219 1281 4162 
Q 984 4106 628 3988 
L 628 4550 
Q 988 4650 1302 4700 
Q 1616 4750 1894 4750 
Q 2613 4750 3031 4423 
Q 3450 4097 3450 3541 
Q 3450 3153 3228 2886 
Q 3006 2619 2597 2516 
z
" transform="scale(0.015625)"/>
       </defs>
       <use xlink:href="#DejaVuSans-2212"/>
       <use xlink:href="#DejaVuSans-33" x="83.789062"/>
      </g>
     </g>
    </g>
    <g id="ytick_9">
     <g id="line2d_17">
      <g>
       <use xlink:href="#m2c17214cf9" x="252.392727" y="174.528" style="stroke: #000000; stroke-width: 0.8"/>
      </g>
     </g>
     <g id="text_17">
      <!-- −2 -->
      <g transform="translate(230.65054 178.327219) scale(0.1 -0.1)">
       <use xlink:href="#DejaVuSans-2212"/>
       <use xlink:href="#DejaVuSans-32" x="83.789062"/>
      </g>
     </g>
    </g>
    <g id="ytick_10">
     <g id="line2d_18">
      <g>
       <use xlink:href="#m2c17214cf9" x="252.392727" y="130.176" style="stroke: #000000; stroke-width: 0.8"/>
      </g>
     </g>
     <g id="text_18">
      <!-- −1 -->
      <g transform="translate(230.65054 133.975219) scale(0.1 -0.1)">
       <defs>
        <path id="DejaVuSans-31" d="M 794 531 
L 1825 531 
L 1825 4091 
L 703 3866 
L 703 4441 
L 1819 4666 
L 2450 4666 
L 2450 531 
L 3481 531 
L 3481 0 
L 794 0 
L 794 531 
z
" transform="scale(0.015625)"/>
       </defs>
       <use xlink:href="#DejaVuSans-2212"/>
       <use xlink:href="#DejaVuSans-31" x="83.789062"/>
      </g>
     </g>
    </g>
    <g id="ytick_11">
     <g id="line2d_19">
      <g>
       <use xlink:href="#m2c17214cf9" x="252.392727" y="85.824" style="stroke: #000000; stroke-width: 0.8"/>
      </g>
     </g>
     <g id="text_19">
      <!-- 0 -->
      <g transform="translate(239.030227 89.623219) scale(0.1 -0.1)">
       <use xlink:href="#DejaVuSans-30"/>
      </g>
     </g>
    </g>
    <g id="ytick_12">
     <g id="line2d_20">
      <g>
       <use xlink:href="#m2c17214cf9" x="252.392727" y="41.472" style="stroke: #000000; stroke-width: 0.8"/>
      </g>
     </g>
     <g id="text_20">
      <!-- 1 -->
      <g transform="translate(239.030227 45.271219) scale(0.1 -0.1)">
       <use xlink:href="#DejaVuSans-31"/>
      </g>
     </g>
    </g>
   </g>
   <g id="line2d_21">
    <path d="M 301.451827 346.6 
L 302.238678 273.40926 
L 303.577741 201.882159 
L 304.916804 159.515496 
L 306.255868 133.716647 
L 307.594931 117.610604 
L 308.933994 107.326792 
L 310.273058 100.624816 
L 311.612121 96.174829 
L 312.951185 93.169144 
L 314.290248 91.106805 
L 315.629311 89.671045 
L 316.968375 88.657975 
L 318.307438 87.93418 
L 319.646501 87.411021 
L 320.985565 87.02876 
L 322.324628 86.746606 
L 323.663691 86.536354 
L 325.002755 86.378277 
L 326.341818 86.258425 
L 327.680882 86.166833 
L 329.019945 86.096311 
L 330.359008 86.041628 
L 331.698072 85.998941 
L 333.037135 85.965406 
L 334.376198 85.938902 
L 335.715262 85.917833 
L 337.054325 85.900993 
L 338.393388 85.887464 
L 339.732452 85.876539 
L 341.071515 85.867676 
L 342.410579 85.860453 
L 343.749642 85.85454 
L 345.088705 85.849679 
L 346.427769 85.845668 
L 347.766832 85.842346 
L 349.105895 85.839582 
L 350.444959 85.837277 
L 351.784022 85.835346 
L 353.123085 85.833724 
L 354.462149 85.832357 
L 355.801212 85.831202 
L 357.140275 85.830222 
L 358.479339 85.829389 
L 359.818402 85.828679 
L 361.157466 85.828072 
L 362.496529 85.827552 
L 363.835592 85.827105 
L 365.174656 85.82672 
L 366.513719 85.826387 
L 367.852782 85.8261 
L 369.191846 85.82585 
L 370.530909 85.825634 
L 371.869972 85.825445 
L 373.209036 85.82528 
L 374.548099 85.825136 
L 375.887163 85.82501 
L 377.226226 85.8249 
L 378.565289 85.824802 
L 379.904353 85.824717 
L 381.243416 85.824641 
L 382.582479 85.824575 
L 383.921543 85.824515 
L 385.260606 85.824463 
L 386.599669 85.824417 
L 387.938733 85.824375 
L 389.277796 85.824339 
L 390.61686 85.824306 
L 391.955923 85.824276 
L 393.294986 85.82425 
L 394.63405 85.824227 
L 395.973113 85.824206 
L 397.312176 85.824187 
L 398.65124 85.82417 
L 399.990303 85.824155 
L 401.329366 85.824141 
L 402.66843 85.824129 
L 404.007493 85.824117 
L 405.346556 85.824107 
L 406.68562 85.824098 
L 408.024683 85.82409 
L 409.363747 85.824082 
L 410.70281 85.824076 
L 412.041873 85.824069 
L 413.380937 85.824064 
L 414.72 85.824059 
" clip-path="url(#pf8fcfcba1b)" style="fill: none; stroke: #1f77b4; stroke-width: 1.5; stroke-linecap: square"/>
   </g>
   <g id="line2d_22">
    <path d="M 303.309471 346.6 
L 303.577741 317.940318 
L 304.916804 233.206992 
L 306.255868 181.609294 
L 307.594931 149.397209 
L 308.933994 128.829583 
L 310.273058 115.425633 
L 311.612121 106.525658 
L 312.951185 100.514289 
L 314.290248 96.389609 
L 315.629311 93.51809 
L 316.968375 91.49195 
L 318.307438 90.044361 
L 319.646501 88.998042 
L 320.985565 88.23352 
L 322.324628 87.669212 
L 323.663691 87.248708 
L 325.002755 86.932554 
L 326.341818 86.69285 
L 327.680882 86.509665 
L 329.019945 86.368623 
L 330.359008 86.259256 
L 331.698072 86.173882 
L 333.037135 86.106813 
L 334.376198 86.053803 
L 335.715262 86.011666 
L 337.054325 85.977987 
L 338.393388 85.950927 
L 339.732452 85.929078 
L 341.071515 85.911352 
L 342.410579 85.896905 
L 343.749642 85.885079 
L 345.088705 85.875359 
L 346.427769 85.867337 
L 347.766832 85.860691 
L 349.105895 85.855165 
L 350.444959 85.850553 
L 351.784022 85.846692 
L 353.123085 85.843448 
L 354.462149 85.840715 
L 355.801212 85.838404 
L 357.140275 85.836444 
L 358.479339 85.834778 
L 359.818402 85.833358 
L 361.157466 85.832144 
L 362.496529 85.831103 
L 363.835592 85.830209 
L 365.174656 85.829439 
L 366.513719 85.828775 
L 367.852782 85.828199 
L 369.191846 85.827701 
L 370.530909 85.827267 
L 371.869972 85.82689 
L 373.209036 85.826561 
L 374.548099 85.826273 
L 375.887163 85.826021 
L 377.226226 85.825799 
L 378.565289 85.825605 
L 379.904353 85.825434 
L 381.243416 85.825283 
L 382.582479 85.825149 
L 383.921543 85.825031 
L 385.260606 85.824926 
L 386.599669 85.824833 
L 387.938733 85.824751 
L 389.277796 85.824677 
L 390.61686 85.824611 
L 391.955923 85.824553 
L 393.294986 85.8245 
L 394.63405 85.824454 
L 395.973113 85.824412 
L 397.312176 85.824374 
L 398.65124 85.82434 
L 399.990303 85.82431 
L 401.329366 85.824282 
L 402.66843 85.824257 
L 404.007493 85.824235 
L 405.346556 85.824215 
L 406.68562 85.824196 
L 408.024683 85.82418 
L 409.363747 85.824165 
L 410.70281 85.824151 
L 412.041873 85.824139 
L 413.380937 85.824128 
L 414.72 85.824117 
" clip-path="url(#pf8fcfcba1b)" style="fill: none; stroke: #ff7f0e; stroke-width: 1.5; stroke-linecap: square"/>
   </g>
   <g id="line2d_23">
    <path d="M 304.498529 346.6 
L 304.916804 306.898488 
L 306.255868 229.501942 
L 307.594931 181.183813 
L 308.933994 150.332375 
L 310.273058 130.226449 
L 311.612121 116.876488 
L 312.951185 107.859433 
L 314.290248 101.672414 
L 315.629311 97.365134 
L 316.968375 94.325924 
L 318.307438 92.154541 
L 319.646501 90.585062 
L 320.985565 89.438281 
L 322.324628 88.591818 
L 323.663691 87.961062 
L 325.002755 87.486831 
L 326.341818 87.127275 
L 327.680882 86.852498 
L 329.019945 86.640934 
L 330.359008 86.476884 
L 331.698072 86.348824 
L 333.037135 86.248219 
L 334.376198 86.168705 
L 335.715262 86.105499 
L 337.054325 86.05498 
L 338.393388 86.014391 
L 339.732452 85.981617 
L 341.071515 85.955028 
L 342.410579 85.933358 
L 343.749642 85.915619 
L 345.088705 85.901038 
L 346.427769 85.889005 
L 347.766832 85.879037 
L 349.105895 85.870747 
L 350.444959 85.86383 
L 351.784022 85.858038 
L 353.123085 85.853172 
L 354.462149 85.849072 
L 355.801212 85.845605 
L 357.140275 85.842667 
L 358.479339 85.840168 
L 359.818402 85.838037 
L 361.157466 85.836216 
L 362.496529 85.834655 
L 363.835592 85.833314 
L 365.174656 85.832159 
L 366.513719 85.831162 
L 367.852782 85.830299 
L 369.191846 85.829551 
L 370.530909 85.828901 
L 371.869972 85.828335 
L 373.209036 85.827841 
L 374.548099 85.827409 
L 375.887163 85.827031 
L 377.226226 85.826699 
L 378.565289 85.826407 
L 379.904353 85.82615 
L 381.243416 85.825924 
L 382.582479 85.825724 
L 383.921543 85.825546 
L 385.260606 85.825389 
L 386.599669 85.82525 
L 387.938733 85.825126 
L 389.277796 85.825016 
L 390.61686 85.824917 
L 391.955923 85.824829 
L 393.294986 85.824751 
L 394.63405 85.82468 
L 395.973113 85.824617 
L 397.312176 85.824561 
L 398.65124 85.82451 
L 399.990303 85.824464 
L 401.329366 85.824423 
L 402.66843 85.824386 
L 404.007493 85.824352 
L 405.346556 85.824322 
L 406.68562 85.824295 
L 408.024683 85.82427 
L 409.363747 85.824247 
L 410.70281 85.824227 
L 412.041873 85.824208 
L 413.380937 85.824191 
L 414.72 85.824176 
" clip-path="url(#pf8fcfcba1b)" style="fill: none; stroke: #2ca02c; stroke-width: 1.5; stroke-linecap: square"/>
   </g>
   <g id="line2d_24">
    <path d="M 305.357858 346.6 
L 306.255868 277.394589 
L 307.594931 212.970417 
L 308.933994 171.835166 
L 310.273058 145.027265 
L 311.612121 127.227317 
L 312.951185 115.204578 
L 314.290248 106.955218 
L 315.629311 101.212179 
L 316.968375 97.159899 
L 318.307438 94.264722 
L 319.646501 92.172083 
L 320.985565 90.643041 
L 322.324628 89.514424 
L 323.663691 88.673416 
L 325.002755 88.041108 
L 326.341818 87.5617 
L 327.680882 87.195331 
L 329.019945 86.913245 
L 330.359008 86.694513 
L 331.698072 86.523765 
L 333.037135 86.389625 
L 334.376198 86.283607 
L 335.715262 86.199332 
L 337.054325 86.131974 
L 338.393388 86.077855 
L 339.732452 86.034157 
L 341.071515 85.998704 
L 342.410579 85.96981 
L 343.749642 85.946159 
L 345.088705 85.926718 
L 346.427769 85.910674 
L 347.766832 85.897382 
L 349.105895 85.88633 
L 350.444959 85.877107 
L 351.784022 85.869384 
L 353.123085 85.862897 
L 354.462149 85.857429 
L 355.801212 85.852807 
L 357.140275 85.848889 
L 358.479339 85.845557 
L 359.818402 85.842716 
L 361.157466 85.840288 
L 362.496529 85.838207 
L 363.835592 85.836419 
L 365.174656 85.834879 
L 366.513719 85.833549 
L 367.852782 85.832399 
L 369.191846 85.831401 
L 370.530909 85.830535 
L 371.869972 85.82978 
L 373.209036 85.829121 
L 374.548099 85.828546 
L 375.887163 85.828041 
L 377.226226 85.827599 
L 378.565289 85.82721 
L 379.904353 85.826867 
L 381.243416 85.826565 
L 382.582479 85.826298 
L 383.921543 85.826062 
L 385.260606 85.825852 
L 386.599669 85.825666 
L 387.938733 85.825501 
L 389.277796 85.825354 
L 390.61686 85.825223 
L 391.955923 85.825106 
L 393.294986 85.825001 
L 394.63405 85.824907 
L 395.973113 85.824823 
L 397.312176 85.824748 
L 398.65124 85.82468 
L 399.990303 85.824619 
L 401.329366 85.824564 
L 402.66843 85.824515 
L 404.007493 85.82447 
L 405.346556 85.824429 
L 406.68562 85.824393 
L 408.024683 85.82436 
L 409.363747 85.82433 
L 410.70281 85.824303 
L 412.041873 85.824278 
L 413.380937 85.824255 
L 414.72 85.824235 
" clip-path="url(#pf8fcfcba1b)" style="fill: none; stroke: #d62728; stroke-width: 1.5; stroke-linecap: square"/>
   </g>
   <g id="line2d_25">
    <path d="M 290.726784 346.6 
L 291.526171 208.726177 
L 292.865234 133.535884 
L 294.204298 106.092246 
L 295.543361 95.09918 
L 296.882424 90.342288 
L 298.221488 88.145397 
L 299.560551 87.072704 
L 300.899614 86.52309 
L 302.238678 86.229383 
L 303.577741 86.066501 
L 304.916804 85.973148 
L 306.255868 85.918046 
L 307.594931 85.884649 
L 308.933994 85.863918 
L 310.273058 85.850766 
L 311.612121 85.842255 
L 312.951185 85.836646 
L 314.290248 85.832887 
L 315.629311 85.830329 
L 316.968375 85.828564 
L 318.307438 85.827329 
L 319.646501 85.826454 
L 320.985565 85.825827 
L 322.324628 85.825373 
L 323.663691 85.825041 
L 325.002755 85.824796 
L 326.341818 85.824613 
L 327.680882 85.824476 
L 329.019945 85.824372 
L 330.359008 85.824293 
L 331.698072 85.824232 
L 333.037135 85.824185 
L 334.376198 85.824148 
L 335.715262 85.824119 
L 337.054325 85.824096 
L 338.393388 85.824078 
L 339.732452 85.824064 
L 341.071515 85.824052 
L 342.410579 85.824043 
L 343.749642 85.824036 
L 345.088705 85.82403 
L 346.427769 85.824025 
L 347.766832 85.824021 
L 349.105895 85.824017 
L 350.444959 85.824015 
L 351.784022 85.824012 
L 353.123085 85.824011 
L 354.462149 85.824009 
L 355.801212 85.824008 
L 357.140275 85.824007 
L 358.479339 85.824006 
L 359.818402 85.824005 
L 361.157466 85.824004 
L 362.496529 85.824004 
L 363.835592 85.824003 
L 365.174656 85.824003 
L 366.513719 85.824002 
L 367.852782 85.824002 
L 369.191846 85.824002 
L 370.530909 85.824002 
L 371.869972 85.824001 
L 373.209036 85.824001 
L 374.548099 85.824001 
L 375.887163 85.824001 
L 377.226226 85.824001 
L 378.565289 85.824001 
L 379.904353 85.824001 
L 381.243416 85.824001 
L 382.582479 85.824001 
L 383.921543 85.824 
L 385.260606 85.824 
L 386.599669 85.824 
L 387.938733 85.824 
L 389.277796 85.824 
L 390.61686 85.824 
L 391.955923 85.824 
L 393.294986 85.824 
L 394.63405 85.824 
L 395.973113 85.824 
L 397.312176 85.824 
L 398.65124 85.824 
L 399.990303 85.824 
L 401.329366 85.824 
L 402.66843 85.824 
L 404.007493 85.824 
L 405.346556 85.824 
L 406.68562 85.824 
L 408.024683 85.824 
L 409.363747 85.824 
L 410.70281 85.824 
L 412.041873 85.824 
L 413.380937 85.824 
L 414.72 85.824 
" clip-path="url(#pf8fcfcba1b)" style="fill: none; stroke: #9467bd; stroke-width: 1.5; stroke-linecap: square"/>
   </g>
   <g id="line2d_26">
    <path d="M 291.482768 346.6 
L 291.526171 331.628354 
L 292.865234 181.247769 
L 294.204298 126.360491 
L 295.543361 104.37436 
L 296.882424 94.860576 
L 298.221488 90.466793 
L 299.560551 88.321409 
L 300.899614 87.22218 
L 302.238678 86.634766 
L 303.577741 86.309002 
L 304.916804 86.122296 
L 306.255868 86.012091 
L 307.594931 85.945298 
L 308.933994 85.903836 
L 310.273058 85.877531 
L 311.612121 85.860509 
L 312.951185 85.849292 
L 314.290248 85.841775 
L 315.629311 85.836659 
L 316.968375 85.833128 
L 318.307438 85.830657 
L 319.646501 85.828908 
L 320.985565 85.827654 
L 322.324628 85.826747 
L 323.663691 85.826082 
L 325.002755 85.825592 
L 326.341818 85.825227 
L 327.680882 85.824952 
L 329.019945 85.824744 
L 330.359008 85.824585 
L 331.698072 85.824463 
L 333.037135 85.824369 
L 334.376198 85.824296 
L 335.715262 85.824238 
L 337.054325 85.824193 
L 338.393388 85.824157 
L 339.732452 85.824128 
L 341.071515 85.824105 
L 342.410579 85.824087 
L 343.749642 85.824072 
L 345.088705 85.824059 
L 346.427769 85.82405 
L 347.766832 85.824041 
L 349.105895 85.824035 
L 350.444959 85.824029 
L 351.784022 85.824025 
L 353.123085 85.824021 
L 354.462149 85.824018 
L 355.801212 85.824015 
L 357.140275 85.824013 
L 358.479339 85.824011 
L 359.818402 85.82401 
L 361.157466 85.824008 
L 362.496529 85.824007 
L 363.835592 85.824006 
L 365.174656 85.824005 
L 366.513719 85.824005 
L 367.852782 85.824004 
L 369.191846 85.824004 
L 370.530909 85.824003 
L 371.869972 85.824003 
L 373.209036 85.824002 
L 374.548099 85.824002 
L 375.887163 85.824002 
L 377.226226 85.824002 
L 378.565289 85.824001 
L 379.904353 85.824001 
L 381.243416 85.824001 
L 382.582479 85.824001 
L 383.921543 85.824001 
L 385.260606 85.824001 
L 386.599669 85.824001 
L 387.938733 85.824001 
L 389.277796 85.824001 
L 390.61686 85.824001 
L 391.955923 85.824 
L 393.294986 85.824 
L 394.63405 85.824 
L 395.973113 85.824 
L 397.312176 85.824 
L 398.65124 85.824 
L 399.990303 85.824 
L 401.329366 85.824 
L 402.66843 85.824 
L 404.007493 85.824 
L 405.346556 85.824 
L 406.68562 85.824 
L 408.024683 85.824 
L 409.363747 85.824 
L 410.70281 85.824 
L 412.041873 85.824 
L 413.380937 85.824 
L 414.72 85.824 
" clip-path="url(#pf8fcfcba1b)" style="fill: none; stroke: #8c564b; stroke-width: 1.5; stroke-linecap: square"/>
   </g>
   <g id="line2d_27">
    <path d="M 292.166882 346.6 
L 292.865234 228.959653 
L 294.204298 146.628737 
L 295.543361 113.64954 
L 296.882424 99.378863 
L 298.221488 92.78819 
L 299.560551 89.570113 
L 300.899614 87.92127 
L 302.238678 87.040149 
L 303.577741 86.551503 
L 304.916804 86.271443 
L 306.255868 86.106137 
L 307.594931 86.005948 
L 308.933994 85.943754 
L 310.273058 85.904297 
L 311.612121 85.878764 
L 312.951185 85.861937 
L 314.290248 85.850662 
L 315.629311 85.842988 
L 316.968375 85.837691 
L 318.307438 85.833986 
L 319.646501 85.831362 
L 320.985565 85.829481 
L 322.324628 85.82812 
L 323.663691 85.827124 
L 325.002755 85.826388 
L 326.341818 85.82584 
L 327.680882 85.825428 
L 329.019945 85.825116 
L 330.359008 85.824878 
L 331.698072 85.824695 
L 333.037135 85.824554 
L 334.376198 85.824443 
L 335.715262 85.824357 
L 337.054325 85.824289 
L 338.393388 85.824235 
L 339.732452 85.824192 
L 341.071515 85.824157 
L 342.410579 85.82413 
L 343.749642 85.824107 
L 345.088705 85.824089 
L 346.427769 85.824074 
L 347.766832 85.824062 
L 349.105895 85.824052 
L 350.444959 85.824044 
L 351.784022 85.824037 
L 353.123085 85.824032 
L 354.462149 85.824027 
L 355.801212 85.824023 
L 357.140275 85.82402 
L 358.479339 85.824017 
L 359.818402 85.824014 
L 361.157466 85.824012 
L 362.496529 85.824011 
L 363.835592 85.824009 
L 365.174656 85.824008 
L 366.513719 85.824007 
L 367.852782 85.824006 
L 369.191846 85.824005 
L 370.530909 85.824005 
L 371.869972 85.824004 
L 373.209036 85.824004 
L 374.548099 85.824003 
L 375.887163 85.824003 
L 377.226226 85.824002 
L 378.565289 85.824002 
L 379.904353 85.824002 
L 381.243416 85.824002 
L 382.582479 85.824002 
L 383.921543 85.824001 
L 385.260606 85.824001 
L 386.599669 85.824001 
L 387.938733 85.824001 
L 389.277796 85.824001 
L 390.61686 85.824001 
L 391.955923 85.824001 
L 393.294986 85.824001 
L 394.63405 85.824001 
L 395.973113 85.824001 
L 397.312176 85.824 
L 398.65124 85.824 
L 399.990303 85.824 
L 401.329366 85.824 
L 402.66843 85.824 
L 404.007493 85.824 
L 405.346556 85.824 
L 406.68562 85.824 
L 408.024683 85.824 
L 409.363747 85.824 
L 410.70281 85.824 
L 412.041873 85.824 
L 413.380937 85.824 
L 414.72 85.824 
" clip-path="url(#pf8fcfcba1b)" style="fill: none; stroke: #e377c2; stroke-width: 1.5; stroke-linecap: square"/>
   </g>
   <g id="line2d_28">
    <path d="M 292.553895 346.6 
L 292.865234 276.671538 
L 294.204298 166.896983 
L 295.543361 122.92472 
L 296.882424 103.897151 
L 298.221488 95.109587 
L 299.560551 90.818818 
L 300.899614 88.62036 
L 302.238678 87.445532 
L 303.577741 86.794004 
L 304.916804 86.420591 
L 306.255868 86.200183 
L 307.594931 86.066597 
L 308.933994 85.983671 
L 310.273058 85.931063 
L 311.612121 85.897018 
L 312.951185 85.874583 
L 314.290248 85.859549 
L 315.629311 85.849318 
L 316.968375 85.842255 
L 318.307438 85.837314 
L 319.646501 85.833815 
L 320.985565 85.831308 
L 322.324628 85.829493 
L 323.663691 85.828165 
L 325.002755 85.827184 
L 326.341818 85.826453 
L 327.680882 85.825904 
L 329.019945 85.825488 
L 330.359008 85.825171 
L 331.698072 85.824927 
L 333.037135 85.824738 
L 334.376198 85.824591 
L 335.715262 85.824476 
L 337.054325 85.824385 
L 338.393388 85.824313 
L 339.732452 85.824256 
L 341.071515 85.82421 
L 342.410579 85.824173 
L 343.749642 85.824143 
L 345.088705 85.824119 
L 346.427769 85.824099 
L 347.766832 85.824083 
L 349.105895 85.82407 
L 350.444959 85.824059 
L 351.784022 85.82405 
L 353.123085 85.824042 
L 354.462149 85.824036 
L 355.801212 85.824031 
L 357.140275 85.824026 
L 358.479339 85.824022 
L 359.818402 85.824019 
L 361.157466 85.824017 
L 362.496529 85.824014 
L 363.835592 85.824012 
L 365.174656 85.824011 
L 366.513719 85.824009 
L 367.852782 85.824008 
L 369.191846 85.824007 
L 370.530909 85.824006 
L 371.869972 85.824005 
L 373.209036 85.824005 
L 374.548099 85.824004 
L 375.887163 85.824004 
L 377.226226 85.824003 
L 378.565289 85.824003 
L 379.904353 85.824003 
L 381.243416 85.824002 
L 382.582479 85.824002 
L 383.921543 85.824002 
L 385.260606 85.824002 
L 386.599669 85.824001 
L 387.938733 85.824001 
L 389.277796 85.824001 
L 390.61686 85.824001 
L 391.955923 85.824001 
L 393.294986 85.824001 
L 394.63405 85.824001 
L 395.973113 85.824001 
L 397.312176 85.824001 
L 398.65124 85.824001 
L 399.990303 85.824001 
L 401.329366 85.824 
L 402.66843 85.824 
L 404.007493 85.824 
L 405.346556 85.824 
L 406.68562 85.824 
L 408.024683 85.824 
L 409.363747 85.824 
L 410.70281 85.824 
L 412.041873 85.824 
L 413.380937 85.824 
L 414.72 85.824 
" clip-path="url(#pf8fcfcba1b)" style="fill: none; stroke: #7f7f7f; stroke-width: 1.5; stroke-linecap: square"/>
   </g>
   <g id="line2d_29">
    <path d="M 287.225325 346.6 
L 287.508981 216.093455 
L 288.848044 115.575272 
L 290.187107 94.098081 
L 291.526171 88.499002 
L 292.865234 86.797955 
L 294.204298 86.214416 
L 295.543361 85.993443 
L 296.882424 85.902615 
L 298.221488 85.862608 
L 299.560551 85.843913 
L 300.899614 85.834719 
L 302.238678 85.82999 
L 303.577741 85.827461 
L 304.916804 85.826059 
L 306.255868 85.825259 
L 307.594931 85.824788 
L 308.933994 85.824504 
L 310.273058 85.824329 
L 311.612121 85.824219 
L 312.951185 85.824148 
L 314.290248 85.824101 
L 315.629311 85.824071 
L 316.968375 85.82405 
L 318.307438 85.824036 
L 319.646501 85.824026 
L 320.985565 85.824019 
L 322.324628 85.824014 
L 323.663691 85.82401 
L 325.002755 85.824008 
L 326.341818 85.824006 
L 327.680882 85.824004 
L 329.019945 85.824003 
L 330.359008 85.824003 
L 331.698072 85.824002 
L 333.037135 85.824002 
L 334.376198 85.824001 
L 335.715262 85.824001 
L 337.054325 85.824001 
L 338.393388 85.824001 
L 339.732452 85.824001 
L 341.071515 85.824 
L 342.410579 85.824 
L 343.749642 85.824 
L 345.088705 85.824 
L 346.427769 85.824 
L 347.766832 85.824 
L 349.105895 85.824 
L 350.444959 85.824 
L 351.784022 85.824 
L 353.123085 85.824 
L 354.462149 85.824 
L 355.801212 85.824 
L 357.140275 85.824 
L 358.479339 85.824 
L 359.818402 85.824 
L 361.157466 85.824 
L 362.496529 85.824 
L 363.835592 85.824 
L 365.174656 85.824 
L 366.513719 85.824 
L 367.852782 85.824 
L 369.191846 85.824 
L 370.530909 85.824 
L 371.869972 85.824 
L 373.209036 85.824 
L 374.548099 85.824 
L 375.887163 85.824 
L 377.226226 85.824 
L 378.565289 85.824 
L 379.904353 85.824 
L 381.243416 85.824 
L 382.582479 85.824 
L 383.921543 85.824 
L 385.260606 85.824 
L 386.599669 85.824 
L 387.938733 85.824 
L 389.277796 85.824 
L 390.61686 85.824 
L 391.955923 85.824 
L 393.294986 85.824 
L 394.63405 85.824 
L 395.973113 85.824 
L 397.312176 85.824 
L 398.65124 85.824 
L 399.990303 85.824 
L 401.329366 85.824 
L 402.66843 85.824 
L 404.007493 85.824 
L 405.346556 85.824 
L 406.68562 85.824 
L 408.024683 85.824 
L 409.363747 85.824 
L 410.70281 85.824 
L 412.041873 85.824 
L 413.380937 85.824 
L 414.72 85.824 
" clip-path="url(#pf8fcfcba1b)" style="fill: none; stroke: #bcbd22; stroke-width: 1.5; stroke-linecap: square"/>
   </g>
   <g id="line2d_30">
    <path d="M 287.508723 346.6 
L 287.508981 346.362911 
L 288.848044 145.326544 
L 290.187107 102.372162 
L 291.526171 91.174005 
L 292.865234 87.771911 
L 294.204298 86.604833 
L 295.543361 86.162886 
L 296.882424 85.98123 
L 298.221488 85.901216 
L 299.560551 85.863826 
L 300.899614 85.845437 
L 302.238678 85.83598 
L 303.577741 85.830921 
L 304.916804 85.828119 
L 306.255868 85.826517 
L 307.594931 85.825576 
L 308.933994 85.825008 
L 310.273058 85.824658 
L 311.612121 85.824437 
L 312.951185 85.824295 
L 314.290248 85.824203 
L 315.629311 85.824141 
L 316.968375 85.8241 
L 318.307438 85.824071 
L 319.646501 85.824051 
L 320.985565 85.824037 
L 322.324628 85.824028 
L 323.663691 85.824021 
L 325.002755 85.824015 
L 326.341818 85.824012 
L 327.680882 85.824009 
L 329.019945 85.824007 
L 330.359008 85.824005 
L 331.698072 85.824004 
L 333.037135 85.824003 
L 334.376198 85.824003 
L 335.715262 85.824002 
L 337.054325 85.824002 
L 338.393388 85.824001 
L 339.732452 85.824001 
L 341.071515 85.824001 
L 342.410579 85.824001 
L 343.749642 85.824001 
L 345.088705 85.824 
L 346.427769 85.824 
L 347.766832 85.824 
L 349.105895 85.824 
L 350.444959 85.824 
L 351.784022 85.824 
L 353.123085 85.824 
L 354.462149 85.824 
L 355.801212 85.824 
L 357.140275 85.824 
L 358.479339 85.824 
L 359.818402 85.824 
L 361.157466 85.824 
L 362.496529 85.824 
L 363.835592 85.824 
L 365.174656 85.824 
L 366.513719 85.824 
L 367.852782 85.824 
L 369.191846 85.824 
L 370.530909 85.824 
L 371.869972 85.824 
L 373.209036 85.824 
L 374.548099 85.824 
L 375.887163 85.824 
L 377.226226 85.824 
L 378.565289 85.824 
L 379.904353 85.824 
L 381.243416 85.824 
L 382.582479 85.824 
L 383.921543 85.824 
L 385.260606 85.824 
L 386.599669 85.824 
L 387.938733 85.824 
L 389.277796 85.824 
L 390.61686 85.824 
L 391.955923 85.824 
L 393.294986 85.824 
L 394.63405 85.824 
L 395.973113 85.824 
L 397.312176 85.824 
L 398.65124 85.824 
L 399.990303 85.824 
L 401.329366 85.824 
L 402.66843 85.824 
L 404.007493 85.824 
L 405.346556 85.824 
L 406.68562 85.824 
L 408.024683 85.824 
L 409.363747 85.824 
L 410.70281 85.824 
L 412.041873 85.824 
L 413.380937 85.824 
L 414.72 85.824 
" clip-path="url(#pf8fcfcba1b)" style="fill: none; stroke: #17becf; stroke-width: 1.5; stroke-linecap: square"/>
   </g>
   <g id="line2d_31">
    <path d="M 288.086394 346.6 
L 288.848044 175.077816 
L 290.187107 110.646243 
L 291.526171 93.849007 
L 292.865234 88.745866 
L 294.204298 86.995249 
L 295.543361 86.33233 
L 296.882424 86.059845 
L 298.221488 85.939824 
L 299.560551 85.883739 
L 300.899614 85.856156 
L 302.238678 85.84197 
L 303.577741 85.834382 
L 304.916804 85.830178 
L 306.255868 85.827776 
L 307.594931 85.826364 
L 308.933994 85.825512 
L 310.273058 85.824987 
L 311.612121 85.824656 
L 312.951185 85.824443 
L 314.290248 85.824304 
L 315.629311 85.824212 
L 316.968375 85.824149 
L 318.307438 85.824107 
L 319.646501 85.824077 
L 320.985565 85.824056 
L 322.324628 85.824041 
L 323.663691 85.824031 
L 325.002755 85.824023 
L 326.341818 85.824018 
L 327.680882 85.824013 
L 329.019945 85.82401 
L 330.359008 85.824008 
L 331.698072 85.824006 
L 333.037135 85.824005 
L 334.376198 85.824004 
L 335.715262 85.824003 
L 337.054325 85.824002 
L 338.393388 85.824002 
L 339.732452 85.824002 
L 341.071515 85.824001 
L 342.410579 85.824001 
L 343.749642 85.824001 
L 345.088705 85.824001 
L 346.427769 85.824001 
L 347.766832 85.824 
L 349.105895 85.824 
L 350.444959 85.824 
L 351.784022 85.824 
L 353.123085 85.824 
L 354.462149 85.824 
L 355.801212 85.824 
L 357.140275 85.824 
L 358.479339 85.824 
L 359.818402 85.824 
L 361.157466 85.824 
L 362.496529 85.824 
L 363.835592 85.824 
L 365.174656 85.824 
L 366.513719 85.824 
L 367.852782 85.824 
L 369.191846 85.824 
L 370.530909 85.824 
L 371.869972 85.824 
L 373.209036 85.824 
L 374.548099 85.824 
L 375.887163 85.824 
L 377.226226 85.824 
L 378.565289 85.824 
L 379.904353 85.824 
L 381.243416 85.824 
L 382.582479 85.824 
L 383.921543 85.824 
L 385.260606 85.824 
L 386.599669 85.824 
L 387.938733 85.824 
L 389.277796 85.824 
L 390.61686 85.824 
L 391.955923 85.824 
L 393.294986 85.824 
L 394.63405 85.824 
L 395.973113 85.824 
L 397.312176 85.824 
L 398.65124 85.824 
L 399.990303 85.824 
L 401.329366 85.824 
L 402.66843 85.824 
L 404.007493 85.824 
L 405.346556 85.824 
L 406.68562 85.824 
L 408.024683 85.824 
L 409.363747 85.824 
L 410.70281 85.824 
L 412.041873 85.824 
L 413.380937 85.824 
L 414.72 85.824 
" clip-path="url(#pf8fcfcba1b)" style="fill: none; stroke: #1f77b4; stroke-width: 1.5; stroke-linecap: square"/>
   </g>
   <g id="line2d_32">
    <path d="M 288.37589 346.6 
L 288.848044 204.829088 
L 290.187107 118.920324 
L 291.526171 96.524009 
L 292.865234 89.719821 
L 294.204298 87.385666 
L 295.543361 86.501773 
L 296.882424 86.13846 
L 298.221488 85.978432 
L 299.560551 85.903652 
L 300.899614 85.866874 
L 302.238678 85.84796 
L 303.577741 85.837842 
L 304.916804 85.832238 
L 306.255868 85.829034 
L 307.594931 85.827152 
L 308.933994 85.826016 
L 310.273058 85.825316 
L 311.612121 85.824874 
L 312.951185 85.824591 
L 314.290248 85.824405 
L 315.629311 85.824282 
L 316.968375 85.824199 
L 318.307438 85.824142 
L 319.646501 85.824103 
L 320.985565 85.824075 
L 322.324628 85.824055 
L 323.663691 85.824041 
L 325.002755 85.824031 
L 326.341818 85.824023 
L 327.680882 85.824018 
L 329.019945 85.824014 
L 330.359008 85.824011 
L 331.698072 85.824008 
L 333.037135 85.824006 
L 334.376198 85.824005 
L 335.715262 85.824004 
L 337.054325 85.824003 
L 338.393388 85.824003 
L 339.732452 85.824002 
L 341.071515 85.824002 
L 342.410579 85.824001 
L 343.749642 85.824001 
L 345.088705 85.824001 
L 346.427769 85.824001 
L 347.766832 85.824001 
L 349.105895 85.824001 
L 350.444959 85.824 
L 351.784022 85.824 
L 353.123085 85.824 
L 354.462149 85.824 
L 355.801212 85.824 
L 357.140275 85.824 
L 358.479339 85.824 
L 359.818402 85.824 
L 361.157466 85.824 
L 362.496529 85.824 
L 363.835592 85.824 
L 365.174656 85.824 
L 366.513719 85.824 
L 367.852782 85.824 
L 369.191846 85.824 
L 370.530909 85.824 
L 371.869972 85.824 
L 373.209036 85.824 
L 374.548099 85.824 
L 375.887163 85.824 
L 377.226226 85.824 
L 378.565289 85.824 
L 379.904353 85.824 
L 381.243416 85.824 
L 382.582479 85.824 
L 383.921543 85.824 
L 385.260606 85.824 
L 386.599669 85.824 
L 387.938733 85.824 
L 389.277796 85.824 
L 390.61686 85.824 
L 391.955923 85.824 
L 393.294986 85.824 
L 394.63405 85.824 
L 395.973113 85.824 
L 397.312176 85.824 
L 398.65124 85.824 
L 399.990303 85.824 
L 401.329366 85.824 
L 402.66843 85.824 
L 404.007493 85.824 
L 405.346556 85.824 
L 406.68562 85.824 
L 408.024683 85.824 
L 409.363747 85.824 
L 410.70281 85.824 
L 412.041873 85.824 
L 413.380937 85.824 
L 414.72 85.824 
" clip-path="url(#pf8fcfcba1b)" style="fill: none; stroke: #ff7f0e; stroke-width: 1.5; stroke-linecap: square"/>
   </g>
   <g id="line2d_33">
    <path d="M 285.475384 346.6 
L 286.169917 133.02463 
L 287.508981 93.171606 
L 288.848044 87.347228 
L 290.187107 86.213532 
L 291.526171 85.94095 
L 292.865234 85.863852 
L 294.204298 85.839046 
L 295.543361 85.830182 
L 296.882424 85.826727 
L 298.221488 85.825278 
L 299.560551 85.824631 
L 300.899614 85.824326 
L 302.238678 85.824176 
L 303.577741 85.824098 
L 304.916804 85.824056 
L 306.255868 85.824033 
L 307.594931 85.82402 
L 308.933994 85.824013 
L 310.273058 85.824008 
L 311.612121 85.824005 
L 312.951185 85.824003 
L 314.290248 85.824002 
L 315.629311 85.824002 
L 316.968375 85.824001 
L 318.307438 85.824001 
L 319.646501 85.824001 
L 320.985565 85.824 
L 322.324628 85.824 
L 323.663691 85.824 
L 325.002755 85.824 
L 326.341818 85.824 
L 327.680882 85.824 
L 329.019945 85.824 
L 330.359008 85.824 
L 331.698072 85.824 
L 333.037135 85.824 
L 334.376198 85.824 
L 335.715262 85.824 
L 337.054325 85.824 
L 338.393388 85.824 
L 339.732452 85.824 
L 341.071515 85.824 
L 342.410579 85.824 
L 343.749642 85.824 
L 345.088705 85.824 
L 346.427769 85.824 
L 347.766832 85.824 
L 349.105895 85.824 
L 350.444959 85.824 
L 351.784022 85.824 
L 353.123085 85.824 
L 354.462149 85.824 
L 355.801212 85.824 
L 357.140275 85.824 
L 358.479339 85.824 
L 359.818402 85.824 
L 361.157466 85.824 
L 362.496529 85.824 
L 363.835592 85.824 
L 365.174656 85.824 
L 366.513719 85.824 
L 367.852782 85.824 
L 369.191846 85.824 
L 370.530909 85.824 
L 371.869972 85.824 
L 373.209036 85.824 
L 374.548099 85.824 
L 375.887163 85.824 
L 377.226226 85.824 
L 378.565289 85.824 
L 379.904353 85.824 
L 381.243416 85.824 
L 382.582479 85.824 
L 383.921543 85.824 
L 385.260606 85.824 
L 386.599669 85.824 
L 387.938733 85.824 
L 389.277796 85.824 
L 390.61686 85.824 
L 391.955923 85.824 
L 393.294986 85.824 
L 394.63405 85.824 
L 395.973113 85.824 
L 397.312176 85.824 
L 398.65124 85.824 
L 399.990303 85.824 
L 401.329366 85.824 
L 402.66843 85.824 
L 404.007493 85.824 
L 405.346556 85.824 
L 406.68562 85.824 
L 408.024683 85.824 
L 409.363747 85.824 
L 410.70281 85.824 
L 412.041873 85.824 
L 413.380937 85.824 
L 414.72 85.824 
" clip-path="url(#pf8fcfcba1b)" style="fill: none; stroke: #2ca02c; stroke-width: 1.5; stroke-linecap: square"/>
   </g>
   <g id="line2d_34">
    <path d="M 285.899398 346.6 
L 286.169917 180.22526 
L 287.508981 100.519212 
L 288.848044 88.870455 
L 290.187107 86.603065 
L 291.526171 86.057899 
L 292.865234 85.903704 
L 294.204298 85.854091 
L 295.543361 85.836364 
L 296.882424 85.829455 
L 298.221488 85.826557 
L 299.560551 85.825263 
L 300.899614 85.824653 
L 302.238678 85.824351 
L 303.577741 85.824196 
L 304.916804 85.824113 
L 306.255868 85.824067 
L 307.594931 85.82404 
L 308.933994 85.824025 
L 310.273058 85.824016 
L 311.612121 85.82401 
L 312.951185 85.824007 
L 314.290248 85.824005 
L 315.629311 85.824003 
L 316.968375 85.824002 
L 318.307438 85.824001 
L 319.646501 85.824001 
L 320.985565 85.824001 
L 322.324628 85.824001 
L 323.663691 85.824 
L 325.002755 85.824 
L 326.341818 85.824 
L 327.680882 85.824 
L 329.019945 85.824 
L 330.359008 85.824 
L 331.698072 85.824 
L 333.037135 85.824 
L 334.376198 85.824 
L 335.715262 85.824 
L 337.054325 85.824 
L 338.393388 85.824 
L 339.732452 85.824 
L 341.071515 85.824 
L 342.410579 85.824 
L 343.749642 85.824 
L 345.088705 85.824 
L 346.427769 85.824 
L 347.766832 85.824 
L 349.105895 85.824 
L 350.444959 85.824 
L 351.784022 85.824 
L 353.123085 85.824 
L 354.462149 85.824 
L 355.801212 85.824 
L 357.140275 85.824 
L 358.479339 85.824 
L 359.818402 85.824 
L 361.157466 85.824 
L 362.496529 85.824 
L 363.835592 85.824 
L 365.174656 85.824 
L 366.513719 85.824 
L 367.852782 85.824 
L 369.191846 85.824 
L 370.530909 85.824 
L 371.869972 85.824 
L 373.209036 85.824 
L 374.548099 85.824 
L 375.887163 85.824 
L 377.226226 85.824 
L 378.565289 85.824 
L 379.904353 85.824 
L 381.243416 85.824 
L 382.582479 85.824 
L 383.921543 85.824 
L 385.260606 85.824 
L 386.599669 85.824 
L 387.938733 85.824 
L 389.277796 85.824 
L 390.61686 85.824 
L 391.955923 85.824 
L 393.294986 85.824 
L 394.63405 85.824 
L 395.973113 85.824 
L 397.312176 85.824 
L 398.65124 85.824 
L 399.990303 85.824 
L 401.329366 85.824 
L 402.66843 85.824 
L 404.007493 85.824 
L 405.346556 85.824 
L 406.68562 85.824 
L 408.024683 85.824 
L 409.363747 85.824 
L 410.70281 85.824 
L 412.041873 85.824 
L 413.380937 85.824 
L 414.72 85.824 
" clip-path="url(#pf8fcfcba1b)" style="fill: none; stroke: #d62728; stroke-width: 1.5; stroke-linecap: square"/>
   </g>
   <g id="line2d_35">
    <path d="M 286.040735 346.6 
L 286.169917 227.425889 
L 287.508981 107.866817 
L 288.848044 90.393683 
L 290.187107 86.992597 
L 291.526171 86.174849 
L 292.865234 85.943556 
L 294.204298 85.869137 
L 295.543361 85.842547 
L 296.882424 85.832182 
L 298.221488 85.827835 
L 299.560551 85.825894 
L 300.899614 85.824979 
L 302.238678 85.824527 
L 303.577741 85.824293 
L 304.916804 85.824169 
L 306.255868 85.8241 
L 307.594931 85.824061 
L 308.933994 85.824038 
L 310.273058 85.824024 
L 311.612121 85.824015 
L 312.951185 85.82401 
L 314.290248 85.824007 
L 315.629311 85.824005 
L 316.968375 85.824003 
L 318.307438 85.824002 
L 319.646501 85.824002 
L 320.985565 85.824001 
L 322.324628 85.824001 
L 323.663691 85.824001 
L 325.002755 85.824 
L 326.341818 85.824 
L 327.680882 85.824 
L 329.019945 85.824 
L 330.359008 85.824 
L 331.698072 85.824 
L 333.037135 85.824 
L 334.376198 85.824 
L 335.715262 85.824 
L 337.054325 85.824 
L 338.393388 85.824 
L 339.732452 85.824 
L 341.071515 85.824 
L 342.410579 85.824 
L 343.749642 85.824 
L 345.088705 85.824 
L 346.427769 85.824 
L 347.766832 85.824 
L 349.105895 85.824 
L 350.444959 85.824 
L 351.784022 85.824 
L 353.123085 85.824 
L 354.462149 85.824 
L 355.801212 85.824 
L 357.140275 85.824 
L 358.479339 85.824 
L 359.818402 85.824 
L 361.157466 85.824 
L 362.496529 85.824 
L 363.835592 85.824 
L 365.174656 85.824 
L 366.513719 85.824 
L 367.852782 85.824 
L 369.191846 85.824 
L 370.530909 85.824 
L 371.869972 85.824 
L 373.209036 85.824 
L 374.548099 85.824 
L 375.887163 85.824 
L 377.226226 85.824 
L 378.565289 85.824 
L 379.904353 85.824 
L 381.243416 85.824 
L 382.582479 85.824 
L 383.921543 85.824 
L 385.260606 85.824 
L 386.599669 85.824 
L 387.938733 85.824 
L 389.277796 85.824 
L 390.61686 85.824 
L 391.955923 85.824 
L 393.294986 85.824 
L 394.63405 85.824 
L 395.973113 85.824 
L 397.312176 85.824 
L 398.65124 85.824 
L 399.990303 85.824 
L 401.329366 85.824 
L 402.66843 85.824 
L 404.007493 85.824 
L 405.346556 85.824 
L 406.68562 85.824 
L 408.024683 85.824 
L 409.363747 85.824 
L 410.70281 85.824 
L 412.041873 85.824 
L 413.380937 85.824 
L 414.72 85.824 
" clip-path="url(#pf8fcfcba1b)" style="fill: none; stroke: #9467bd; stroke-width: 1.5; stroke-linecap: square"/>
   </g>
   <g id="line2d_36">
    <path d="M 286.111404 346.6 
L 286.169917 274.626519 
L 287.508981 115.214423 
L 288.848044 91.916911 
L 290.187107 87.38213 
L 291.526171 86.291799 
L 292.865234 85.983408 
L 294.204298 85.884183 
L 295.543361 85.848729 
L 296.882424 85.83491 
L 298.221488 85.829114 
L 299.560551 85.826526 
L 300.899614 85.825305 
L 302.238678 85.824702 
L 303.577741 85.824391 
L 304.916804 85.824225 
L 306.255868 85.824133 
L 307.594931 85.824081 
L 308.933994 85.82405 
L 310.273058 85.824032 
L 311.612121 85.824021 
L 312.951185 85.824014 
L 314.290248 85.824009 
L 315.629311 85.824006 
L 316.968375 85.824004 
L 318.307438 85.824003 
L 319.646501 85.824002 
L 320.985565 85.824002 
L 322.324628 85.824001 
L 323.663691 85.824001 
L 325.002755 85.824001 
L 326.341818 85.824 
L 327.680882 85.824 
L 329.019945 85.824 
L 330.359008 85.824 
L 331.698072 85.824 
L 333.037135 85.824 
L 334.376198 85.824 
L 335.715262 85.824 
L 337.054325 85.824 
L 338.393388 85.824 
L 339.732452 85.824 
L 341.071515 85.824 
L 342.410579 85.824 
L 343.749642 85.824 
L 345.088705 85.824 
L 346.427769 85.824 
L 347.766832 85.824 
L 349.105895 85.824 
L 350.444959 85.824 
L 351.784022 85.824 
L 353.123085 85.824 
L 354.462149 85.824 
L 355.801212 85.824 
L 357.140275 85.824 
L 358.479339 85.824 
L 359.818402 85.824 
L 361.157466 85.824 
L 362.496529 85.824 
L 363.835592 85.824 
L 365.174656 85.824 
L 366.513719 85.824 
L 367.852782 85.824 
L 369.191846 85.824 
L 370.530909 85.824 
L 371.869972 85.824 
L 373.209036 85.824 
L 374.548099 85.824 
L 375.887163 85.824 
L 377.226226 85.824 
L 378.565289 85.824 
L 379.904353 85.824 
L 381.243416 85.824 
L 382.582479 85.824 
L 383.921543 85.824 
L 385.260606 85.824 
L 386.599669 85.824 
L 387.938733 85.824 
L 389.277796 85.824 
L 390.61686 85.824 
L 391.955923 85.824 
L 393.294986 85.824 
L 394.63405 85.824 
L 395.973113 85.824 
L 397.312176 85.824 
L 398.65124 85.824 
L 399.990303 85.824 
L 401.329366 85.824 
L 402.66843 85.824 
L 404.007493 85.824 
L 405.346556 85.824 
L 406.68562 85.824 
L 408.024683 85.824 
L 409.363747 85.824 
L 410.70281 85.824 
L 412.041873 85.824 
L 413.380937 85.824 
L 414.72 85.824 
" clip-path="url(#pf8fcfcba1b)" style="fill: none; stroke: #8c564b; stroke-width: 1.5; stroke-linecap: square"/>
   </g>
   <g id="patch_8">
    <path d="M 252.392727 307.584 
L 252.392727 41.472 
" style="fill: none; stroke: #000000; stroke-width: 0.8; stroke-linejoin: miter; stroke-linecap: square"/>
   </g>
   <g id="patch_9">
    <path d="M 414.72 307.584 
L 414.72 41.472 
" style="fill: none; stroke: #000000; stroke-width: 0.8; stroke-linejoin: miter; stroke-linecap: square"/>
   </g>
   <g id="patch_10">
    <path d="M 252.392727 307.584 
L 414.72 307.584 
" style="fill: none; stroke: #000000; stroke-width: 0.8; stroke-linejoin: miter; stroke-linecap: square"/>
   </g>
   <g id="patch_11">
    <path d="M 252.392727 41.472 
L 414.72 41.472 
" style="fill: none; stroke: #000000; stroke-width: 0.8; stroke-linejoin: miter; stroke-linecap: square"/>
   </g>
  </g>
  <g id="text_21">
   <!-- t = 2.9000000000000012 -->
   <g transform="translate(152.401875 16.030125) scale(0.12 -0.12)">
    <defs>
     <path id="DejaVuSans-74" d="M 1172 4494 
L 1172 3500 
L 2356 3500 
L 2356 3053 
L 1172 3053 
L 1172 1153 
Q 1172 725 1289 603 
Q 1406 481 1766 481 
L 2356 481 
L 2356 0 
L 1766 0 
Q 1100 0 847 248 
Q 594 497 594 1153 
L 594 3053 
L 172 3053 
L 172 3500 
L 594 3500 
L 594 4494 
L 1172 4494 
z
" transform="scale(0.015625)"/>
     <path id="DejaVuSans-20" transform="scale(0.015625)"/>
     <path id="DejaVuSans-3d" d="M 678 2906 
L 4684 2906 
L 4684 2381 
L 678 2381 
L 678 2906 
z
M 678 1631 
L 4684 1631 
L 4684 1100 
L 678 1100 
L 678 1631 
z
" transform="scale(0.015625)"/>
     <path id="DejaVuSans-39" d="M 703 97 
L 703 672 
Q 941 559 1184 500 
Q 1428 441 1663 441 
Q 2288 441 2617 861 
Q 2947 1281 2994 2138 
Q 2813 1869 2534 1725 
Q 2256 1581 1919 1581 
Q 1219 1581 811 2004 
Q 403 2428 403 3163 
Q 403 3881 828 4315 
Q 1253 4750 1959 4750 
Q 2769 4750 3195 4129 
Q 3622 3509 3622 2328 
Q 3622 1225 3098 567 
Q 2575 -91 1691 -91 
Q 1453 -91 1209 -44 
Q 966 3 703 97 
z
M 1959 2075 
Q 2384 2075 2632 2365 
Q 2881 2656 2881 3163 
Q 2881 3666 2632 3958 
Q 2384 4250 1959 4250 
Q 1534 4250 1286 3958 
Q 1038 3666 1038 3163 
Q 1038 2656 1286 2365 
Q 1534 2075 1959 2075 
z
" transform="scale(0.015625)"/>
    </defs>
    <use xlink:href="#DejaVuSans-74"/>
    <use xlink:href="#DejaVuSans-20" x="39.208984"/>
    <use xlink:href="#DejaVuSans-3d" x="70.996094"/>
    <use xlink:href="#DejaVuSans-20" x="154.785156"/>
    <use xlink:href="#DejaVuSans-32" x="186.572266"/>
    <use xlink:href="#DejaVuSans-2e" x="250.195312"/>
    <use xlink:href="#DejaVuSans-39" x="281.982422"/>
    <use xlink:href="#DejaVuSans-30" x="345.605469"/>
    <use xlink:href="#DejaVuSans-30" x="409.228516"/>
    <use xlink:href="#DejaVuSans-30" x="472.851562"/>
    <use xlink:href="#DejaVuSans-30" x="536.474609"/>
    <use xlink:href="#DejaVuSans-30" x="600.097656"/>
    <use xlink:href="#DejaVuSans-30" x="663.720703"/>
    <use xlink:href="#DejaVuSans-30" x="727.34375"/>
    <use xlink:href="#DejaVuSans-30" x="790.966797"/>
    <use xlink:href="#DejaVuSans-30" x="854.589844"/>
    <use xlink:href="#DejaVuSans-30" x="918.212891"/>
    <use xlink:href="#DejaVuSans-30" x="981.835938"/>
    <use xlink:href="#DejaVuSans-30" x="1045.458984"/>
    <use xlink:href="#DejaVuSans-30" x="1109.082031"/>
    <use xlink:href="#DejaVuSans-31" x="1172.705078"/>
    <use xlink:href="#DejaVuSans-32" x="1236.328125"/>
   </g>
  </g>
 </g>
 <defs>
  <clipPath id="p1bd6f059cb">
   <rect x="57.6" y="41.472" width="162.327273" height="266.112"/>
  </clipPath>
  <clipPath id="pf8fcfcba1b">
   <rect x="252.392727" y="41.472" width="162.327273" height="266.112"/>
  </clipPath>
 </defs>
</svg>
