<?xml version="1.0" encoding="utf-8" standalone="no"?>
<!DOCTYPE svg PUBLIC "-//W3C//DTD SVG 1.1//EN"
  "http://www.w3.org/Graphics/SVG/1.1/DTD/svg11.dtd">
<svg xmlns:xlink="http://www.w3.org/1999/xlink" width="460.8pt" height="345.6pt" viewBox="0 0 460.8 345.6" xmlns="http://www.w3.org/2000/svg" version="1.1">
 <metadata>
  <rdf:RDF xmlns:dc="http://purl.org/dc/elements/1.1/" xmlns:cc="http://creativecommons.org/ns#" xmlns:rdf="http://www.w3.org/1999/02/22-rdf-syntax-ns#">
   <cc:Work>
    <dc:type rdf:resource="http://purl.org/dc/dcmitype/StillImage"/>
    <dc:date>2023-01-17T14:53:42.223582</dc:date>
    <dc:format>image/svg+xml</dc:format>
    <dc:creator>
     <cc:Agent>
      <dc:title>Matplotlib v3.6.3, https://matplotlib.org/</dc:title>
     </cc:Agent>
    </dc:creator>
   </cc:Work>
  </rdf:RDF>
 </metadata>
 <defs>
  <style type="text/css">*{stroke-linejoin: round; stroke-linecap: butt}</style>
 </defs>
 <g id="figure_1">
  <g id="patch_1">
   <path d="M 0 345.6 
L 460.8 345.6 
L 460.8 0 
L 0 0 
z
" style="fill: #ffffff"/>
  </g>
  <g id="axes_1">
   <g id="patch_2">
    <path d="M 57.6 307.584 
L 219.927273 307.584 
L 219.927273 41.472 
L 57.6 41.472 
z
" style="fill: #ffffff"/>
   </g>
   <g id="Quiver_1">
    <path d="M 64.996207 295.045643 
L 75.972756 295.484705 
L 75.565788 294.582297 
L 79.936275 296.08631 
L 75.459622 297.236439 
L 75.937367 296.369419 
L 64.960818 295.930357 
L 64.996207 295.045643 
" clip-path="url(#p36856af771)"/>
    <path d="M 79.757645 295.045842 
L 87.744429 295.445181 
L 87.346487 294.538756 
L 91.701747 296.08631 
L 87.213839 297.191706 
L 87.700214 296.329498 
L 79.713429 295.930158 
L 79.757645 295.045842 
" clip-path="url(#p36856af771)"/>
    <path d="M 94.522011 295.04627 
L 99.521096 295.379542 
L 99.138263 294.466633 
L 103.467219 296.08631 
L 98.961571 297.117014 
L 99.462199 296.263003 
L 94.463113 295.92973 
L 94.522011 295.04627 
" clip-path="url(#p36856af771)"/>
    <path d="M 109.293638 295.047486 
L 111.31212 295.249335 
L 110.959709 294.324256 
L 115.232692 296.08631 
L 110.695401 296.967338 
L 111.224017 296.130362 
L 109.205535 295.928514 
L 109.293638 295.047486 
" clip-path="url(#p36856af771)"/>
    <path d="M 124.066443 295.188845 
L 124.365598 295.248676 
L 124.186105 294.590534 
L 126.998164 296.08631 
L 123.827118 296.385466 
L 124.245936 295.846986 
L 123.946781 295.787155 
L 124.066443 295.188845 
" clip-path="url(#p36856af771)"/>
    <path d="M 138.763636 295.930711 
L 139.147035 295.709355 
L 139.147035 295.266645 
L 138.763636 295.045289 
L 138.380238 295.266645 
L 138.380238 295.709355 
L 138.763636 295.930711 
L 139.147035 295.709355 
" clip-path="url(#p36856af771)"/>
    <path d="M 153.580492 295.787155 
L 153.281337 295.846986 
L 153.700154 296.385466 
L 150.529109 296.08631 
L 153.341168 294.590534 
L 153.161675 295.248676 
L 153.46083 295.188845 
L 153.580492 295.787155 
" clip-path="url(#p36856af771)"/>
    <path d="M 168.321737 295.928514 
L 166.303255 296.130362 
L 166.831872 296.967338 
L 162.294581 296.08631 
L 166.567563 294.324256 
L 166.215153 295.249335 
L 168.233635 295.047486 
L 168.321737 295.928514 
" clip-path="url(#p36856af771)"/>
    <path d="M 183.064159 295.92973 
L 178.065074 296.263003 
L 178.565701 297.117014 
L 174.060053 296.08631 
L 178.389009 294.466633 
L 178.006177 295.379542 
L 183.005262 295.04627 
L 183.064159 295.92973 
" clip-path="url(#p36856af771)"/>
    <path d="M 197.813843 295.930158 
L 189.827059 296.329498 
L 190.313433 297.191706 
L 185.825526 296.08631 
L 190.180786 294.538756 
L 189.782843 295.445181 
L 197.769628 295.045842 
L 197.813843 295.930158 
" clip-path="url(#p36856af771)"/>
    <path d="M 212.566455 295.930357 
L 201.589905 296.369419 
L 202.067651 297.236439 
L 197.590998 296.08631 
L 201.961485 294.582297 
L 201.554517 295.484705 
L 212.531066 295.045643 
L 212.566455 295.930357 
" clip-path="url(#p36856af771)"/>
    <path d="M 64.992672 270.853516 
L 75.968076 271.204729 
L 75.553911 270.305601 
L 79.936275 271.774648 
L 75.468954 272.960506 
L 75.939757 272.089697 
L 64.964353 271.738484 
L 64.992672 270.853516 
" clip-path="url(#p36856af771)"/>
    <path d="M 79.753231 270.853643 
L 87.738228 271.173043 
L 87.33126 270.270635 
L 91.701747 271.774648 
L 87.225094 272.924777 
L 87.70284 272.057757 
L 79.717843 271.738357 
L 79.753231 270.853643 
" clip-path="url(#p36856af771)"/>
    <path d="M 94.51614 270.853918 
L 99.512055 271.120366 
L 99.117128 270.212624 
L 103.467219 271.774648 
L 98.975662 272.865118 
L 99.4649 272.004531 
L 94.468984 271.738082 
L 94.51614 270.853918 
" clip-path="url(#p36856af771)"/>
    <path d="M 109.284891 270.854699 
L 111.296288 271.015611 
L 110.925596 270.097705 
L 115.232692 271.774648 
L 110.713771 272.74551 
L 111.22568 271.898213 
L 109.214283 271.737301 
L 109.284891 270.854699 
" clip-path="url(#p36856af771)"/>
    <path d="M 124.054476 270.996845 
L 124.353632 271.04471 
L 124.150206 270.398534 
L 126.998164 271.774648 
L 123.863017 272.193466 
L 124.257902 271.64302 
L 123.958747 271.595155 
L 124.054476 270.996845 
" clip-path="url(#p36856af771)"/>
    <path d="M 138.763636 271.738711 
L 139.147035 271.517355 
L 139.147035 271.074645 
L 138.763636 270.853289 
L 138.380238 271.074645 
L 138.380238 271.517355 
L 138.763636 271.738711 
L 139.147035 271.517355 
" clip-path="url(#p36856af771)"/>
    <path d="M 153.568526 271.595155 
L 153.269371 271.64302 
L 153.664256 272.193466 
L 150.529109 271.774648 
L 153.377067 270.398534 
L 153.173641 271.04471 
L 153.472796 270.996845 
L 153.568526 271.595155 
" clip-path="url(#p36856af771)"/>
    <path d="M 168.31299 271.737301 
L 166.301593 271.898213 
L 166.813502 272.74551 
L 162.294581 271.774648 
L 166.601677 270.097705 
L 166.230984 271.015611 
L 168.242382 270.854699 
L 168.31299 271.737301 
" clip-path="url(#p36856af771)"/>
    <path d="M 183.058288 271.738082 
L 178.062373 272.004531 
L 178.551611 272.865118 
L 174.060053 271.774648 
L 178.410145 270.212624 
L 178.015218 271.120366 
L 183.011133 270.853918 
L 183.058288 271.738082 
" clip-path="url(#p36856af771)"/>
    <path d="M 197.80943 271.738357 
L 189.824433 272.057757 
L 190.302179 272.924777 
L 185.825526 271.774648 
L 190.196013 270.270635 
L 189.789044 271.173043 
L 197.774041 270.853643 
L 197.80943 271.738357 
" clip-path="url(#p36856af771)"/>
    <path d="M 212.56292 271.738484 
L 201.587516 272.089697 
L 202.058319 272.960506 
L 197.590998 271.774648 
L 201.973362 270.305601 
L 201.559197 271.204729 
L 212.534601 270.853516 
L 212.56292 271.738484 
" clip-path="url(#p36856af771)"/>
    <path d="M 64.989134 246.661417 
L 75.963647 246.924805 
L 75.542308 246.029016 
L 79.936275 247.462986 
L 75.478576 248.684516 
L 75.942403 247.809972 
L 64.96789 247.546583 
L 64.989134 246.661417 
" clip-path="url(#p36856af771)"/>
    <path d="M 79.748813 246.661488 
L 87.732417 246.900996 
L 87.316457 246.002698 
L 91.701747 247.462986 
L 87.236804 248.657768 
L 87.705867 247.78602 
L 79.722262 247.546512 
L 79.748813 246.661488 
" clip-path="url(#p36856af771)"/>
    <path d="M 94.510256 246.661643 
L 99.503701 246.861381 
L 99.096732 245.958972 
L 103.467219 247.462986 
L 98.990567 248.613114 
L 99.468312 247.746095 
L 94.474868 247.546357 
L 94.510256 246.661643 
" clip-path="url(#p36856af771)"/>
    <path d="M 109.276102 246.662084 
L 111.281963 246.782436 
L 110.893076 245.872089 
L 115.232692 247.462986 
L 110.733987 248.523585 
L 111.228933 247.666268 
L 109.223072 247.545916 
L 109.276102 246.662084 
" clip-path="url(#p36856af771)"/>
    <path d="M 124.04251 246.804845 
L 124.341665 246.840743 
L 124.114307 246.206534 
L 126.998164 247.462986 
L 123.898916 248.001466 
L 124.269868 247.439054 
L 123.970713 247.403155 
L 124.04251 246.804845 
" clip-path="url(#p36856af771)"/>
    <path d="M 138.763636 247.546711 
L 139.147035 247.325355 
L 139.147035 246.882645 
L 138.763636 246.661289 
L 138.380238 246.882645 
L 138.380238 247.325355 
L 138.763636 247.546711 
L 139.147035 247.325355 
" clip-path="url(#p36856af771)"/>
    <path d="M 153.55656 247.403155 
L 153.257405 247.439054 
L 153.628357 248.001466 
L 150.529109 247.462986 
L 153.412965 246.206534 
L 153.185607 246.840743 
L 153.484763 246.804845 
L 153.55656 247.403155 
" clip-path="url(#p36856af771)"/>
    <path d="M 168.304201 247.545916 
L 166.29834 247.666268 
L 166.793286 248.523585 
L 162.294581 247.462986 
L 166.634196 245.872089 
L 166.24531 246.782436 
L 168.251171 246.662084 
L 168.304201 247.545916 
" clip-path="url(#p36856af771)"/>
    <path d="M 183.052405 247.546357 
L 178.058961 247.746095 
L 178.536706 248.613114 
L 174.060053 247.462986 
L 178.430541 245.958972 
L 178.023572 246.861381 
L 183.017016 246.661643 
L 183.052405 247.546357 
" clip-path="url(#p36856af771)"/>
    <path d="M 197.805011 247.546512 
L 189.821406 247.78602 
L 190.290468 248.657768 
L 185.825526 247.462986 
L 190.210816 246.002698 
L 189.794855 246.900996 
L 197.77846 246.661488 
L 197.805011 247.546512 
" clip-path="url(#p36856af771)"/>
    <path d="M 212.559382 247.546583 
L 201.58487 247.809972 
L 202.048697 248.684516 
L 197.590998 247.462986 
L 201.984965 246.029016 
L 201.563626 246.924805 
L 212.538138 246.661417 
L 212.559382 247.546583 
" clip-path="url(#p36856af771)"/>
    <path d="M 64.985595 222.469346 
L 75.95947 222.644928 
L 75.530981 221.752537 
L 79.936275 223.151324 
L 75.488486 224.408462 
L 75.945305 223.530236 
L 64.97143 223.354654 
L 64.985595 222.469346 
" clip-path="url(#p36856af771)"/>
    <path d="M 79.74439 222.469378 
L 87.726999 222.62903 
L 87.302082 221.734933 
L 91.701747 223.151324 
L 87.248967 224.390666 
L 87.709295 223.514274 
L 79.726685 223.354622 
L 79.74439 222.469378 
" clip-path="url(#p36856af771)"/>
    <path d="M 94.504363 222.469447 
L 99.49604 222.602558 
L 99.077089 221.70565 
L 103.467219 223.151324 
L 99.006281 224.36097 
L 99.472437 223.487665 
L 94.480761 223.354553 
L 94.504363 222.469447 
" clip-path="url(#p36856af771)"/>
    <path d="M 109.267281 222.469643 
L 111.269173 222.549719 
L 110.862205 221.64731 
L 115.232692 223.151324 
L 110.756039 224.301452 
L 111.233784 223.434433 
L 109.231892 223.354357 
L 109.267281 222.469643 
" clip-path="url(#p36856af771)"/>
    <path d="M 124.030544 222.612845 
L 124.329699 222.636777 
L 124.078409 222.014534 
L 126.998164 223.151324 
L 123.934814 223.809466 
L 124.281834 223.235088 
L 123.982679 223.211155 
L 124.030544 222.612845 
" clip-path="url(#p36856af771)"/>
    <path d="M 138.763636 223.354711 
L 139.147035 223.133355 
L 139.147035 222.690645 
L 138.763636 222.469289 
L 138.380238 222.690645 
L 138.380238 223.133355 
L 138.763636 223.354711 
L 139.147035 223.133355 
" clip-path="url(#p36856af771)"/>
    <path d="M 153.544594 223.211155 
L 153.245438 223.235088 
L 153.592458 223.809466 
L 150.529109 223.151324 
L 153.448864 222.014534 
L 153.197573 222.636777 
L 153.496729 222.612845 
L 153.544594 223.211155 
" clip-path="url(#p36856af771)"/>
    <path d="M 168.29538 223.354357 
L 166.293488 223.434433 
L 166.771234 224.301452 
L 162.294581 223.151324 
L 166.665068 221.64731 
L 166.2581 222.549719 
L 168.259992 222.469643 
L 168.29538 223.354357 
" clip-path="url(#p36856af771)"/>
    <path d="M 183.046512 223.354553 
L 178.054836 223.487665 
L 178.520992 224.36097 
L 174.060053 223.151324 
L 178.450183 221.70565 
L 178.031233 222.602558 
L 183.022909 222.469447 
L 183.046512 223.354553 
" clip-path="url(#p36856af771)"/>
    <path d="M 197.800588 223.354622 
L 189.817978 223.514274 
L 190.278305 224.390666 
L 185.825526 223.151324 
L 190.225191 221.734933 
L 189.800273 222.62903 
L 197.782883 222.469378 
L 197.800588 223.354622 
" clip-path="url(#p36856af771)"/>
    <path d="M 212.555843 223.354654 
L 201.581967 223.530236 
L 202.038786 224.408462 
L 197.590998 223.151324 
L 201.996291 221.752537 
L 201.567802 222.644928 
L 212.541678 222.469346 
L 212.555843 223.354654 
" clip-path="url(#p36856af771)"/>
    <path d="M 64.982054 198.277303 
L 75.955547 198.365091 
L 75.519934 197.476157 
L 79.936275 198.839662 
L 75.498684 200.132336 
L 75.948464 199.250485 
L 64.974971 199.162697 
L 64.982054 198.277303 
" clip-path="url(#p36856af771)"/>
    <path d="M 79.739964 198.277311 
L 87.721976 198.357132 
L 87.288142 197.467327 
L 91.701747 198.839662 
L 87.26158 200.123459 
L 87.713123 199.242509 
L 79.73111 199.162689 
L 79.739964 198.277311 
" clip-path="url(#p36856af771)"/>
    <path d="M 94.498464 198.277329 
L 99.489079 198.34387 
L 99.058212 197.452625 
L 103.467219 198.839662 
L 99.022799 200.108653 
L 99.477275 199.229213 
L 94.48666 199.162671 
L 94.498464 198.277329 
" clip-path="url(#p36856af771)"/>
    <path d="M 109.258439 198.277378 
L 111.257944 198.317368 
L 110.833027 197.423271 
L 115.232692 198.839662 
L 110.779912 200.079004 
L 111.240239 199.202612 
L 109.240734 199.162622 
L 109.258439 198.277378 
" clip-path="url(#p36856af771)"/>
    <path d="M 124.018578 198.420845 
L 124.317733 198.432811 
L 124.04251 197.822534 
L 126.998164 198.839662 
L 123.970713 199.617466 
L 124.293801 199.031121 
L 123.994645 199.019155 
L 124.018578 198.420845 
" clip-path="url(#p36856af771)"/>
    <path d="M 138.763636 199.162711 
L 139.147035 198.941355 
L 139.147035 198.498645 
L 138.763636 198.277289 
L 138.380238 198.498645 
L 138.380238 198.941355 
L 138.763636 199.162711 
L 139.147035 198.941355 
" clip-path="url(#p36856af771)"/>
    <path d="M 153.532627 199.019155 
L 153.233472 199.031121 
L 153.55656 199.617466 
L 150.529109 198.839662 
L 153.484763 197.822534 
L 153.20954 198.432811 
L 153.508695 198.420845 
L 153.532627 199.019155 
" clip-path="url(#p36856af771)"/>
    <path d="M 168.286538 199.162622 
L 166.287034 199.202612 
L 166.747361 200.079004 
L 162.294581 198.839662 
L 166.694246 197.423271 
L 166.269329 198.317368 
L 168.268834 198.277378 
L 168.286538 199.162622 
" clip-path="url(#p36856af771)"/>
    <path d="M 183.040613 199.162671 
L 178.049998 199.229213 
L 178.504474 200.108653 
L 174.060053 198.839662 
L 178.46906 197.452625 
L 178.038194 198.34387 
L 183.028808 198.277329 
L 183.040613 199.162671 
" clip-path="url(#p36856af771)"/>
    <path d="M 197.796162 199.162689 
L 189.81415 199.242509 
L 190.265692 200.123459 
L 185.825526 198.839662 
L 190.239131 197.467327 
L 189.805296 198.357132 
L 197.787309 198.277311 
L 197.796162 199.162689 
" clip-path="url(#p36856af771)"/>
    <path d="M 212.552302 199.162697 
L 201.578809 199.250485 
L 202.028589 200.132336 
L 197.590998 198.839662 
L 202.007339 197.476157 
L 201.571726 198.365091 
L 212.545219 198.277303 
L 212.552302 199.162697 
" clip-path="url(#p36856af771)"/>
    <path d="M 64.978512 174.085289 
L 75.951878 174.085289 
L 75.509167 173.199868 
L 79.936275 174.528 
L 75.509167 175.856132 
L 75.951878 174.970711 
L 64.978512 174.970711 
L 64.978512 174.085289 
" clip-path="url(#p36856af771)"/>
    <path d="M 79.735537 174.085289 
L 87.71735 174.085289 
L 87.27464 173.199868 
L 91.701747 174.528 
L 87.27464 175.856132 
L 87.71735 174.970711 
L 79.735537 174.970711 
L 79.735537 174.085289 
" clip-path="url(#p36856af771)"/>
    <path d="M 94.492562 174.085289 
L 99.482823 174.085289 
L 99.040112 173.199868 
L 103.467219 174.528 
L 99.040112 175.856132 
L 99.482823 174.970711 
L 94.492562 174.970711 
L 94.492562 174.085289 
" clip-path="url(#p36856af771)"/>
    <path d="M 109.249587 174.085289 
L 111.248295 174.085289 
L 110.805584 173.199868 
L 115.232692 174.528 
L 110.805584 175.856132 
L 111.248295 174.970711 
L 109.249587 174.970711 
L 109.249587 174.085289 
" clip-path="url(#p36856af771)"/>
    <path d="M 124.006612 174.228845 
L 124.305767 174.228845 
L 124.006612 173.630534 
L 126.998164 174.528 
L 124.006612 175.425466 
L 124.305767 174.827155 
L 124.006612 174.827155 
L 124.006612 174.228845 
" clip-path="url(#p36856af771)"/>
    <path d="M 139.206347 174.528 
L 138.984992 174.144601 
L 138.542281 174.144601 
L 138.320926 174.528 
L 138.542281 174.911399 
L 138.984992 174.911399 
L 139.206347 174.528 
L 138.984992 174.144601 
" clip-path="url(#p36856af771)"/>
    <path d="M 153.520661 174.827155 
L 153.221506 174.827155 
L 153.520661 175.425466 
L 150.529109 174.528 
L 153.520661 173.630534 
L 153.221506 174.228845 
L 153.520661 174.228845 
L 153.520661 174.827155 
" clip-path="url(#p36856af771)"/>
    <path d="M 168.277686 174.970711 
L 166.278978 174.970711 
L 166.721688 175.856132 
L 162.294581 174.528 
L 166.721688 173.199868 
L 166.278978 174.085289 
L 168.277686 174.085289 
L 168.277686 174.970711 
" clip-path="url(#p36856af771)"/>
    <path d="M 183.034711 174.970711 
L 178.04445 174.970711 
L 178.487161 175.856132 
L 174.060053 174.528 
L 178.487161 173.199868 
L 178.04445 174.085289 
L 183.034711 174.085289 
L 183.034711 174.970711 
" clip-path="url(#p36856af771)"/>
    <path d="M 197.791736 174.970711 
L 189.809922 174.970711 
L 190.252633 175.856132 
L 185.825526 174.528 
L 190.252633 173.199868 
L 189.809922 174.085289 
L 197.791736 174.085289 
L 197.791736 174.970711 
" clip-path="url(#p36856af771)"/>
    <path d="M 212.54876 174.970711 
L 201.575395 174.970711 
L 202.018105 175.856132 
L 197.590998 174.528 
L 202.018105 173.199868 
L 201.575395 174.085289 
L 212.54876 174.085289 
L 212.54876 174.970711 
" clip-path="url(#p36856af771)"/>
    <path d="M 64.974971 149.893303 
L 75.948464 149.805515 
L 75.498684 148.923664 
L 79.936275 150.216338 
L 75.519934 151.579843 
L 75.955547 150.690909 
L 64.982054 150.778697 
L 64.974971 149.893303 
" clip-path="url(#p36856af771)"/>
    <path d="M 79.73111 149.893311 
L 87.713123 149.813491 
L 87.26158 148.932541 
L 91.701747 150.216338 
L 87.288142 151.588673 
L 87.721976 150.698868 
L 79.739964 150.778689 
L 79.73111 149.893311 
" clip-path="url(#p36856af771)"/>
    <path d="M 94.48666 149.893329 
L 99.477275 149.826787 
L 99.022799 148.947347 
L 103.467219 150.216338 
L 99.058212 151.603375 
L 99.489079 150.71213 
L 94.498464 150.778671 
L 94.48666 149.893329 
" clip-path="url(#p36856af771)"/>
    <path d="M 109.240734 149.893378 
L 111.240239 149.853388 
L 110.779912 148.976996 
L 115.232692 150.216338 
L 110.833027 151.632729 
L 111.257944 150.738632 
L 109.258439 150.778622 
L 109.240734 149.893378 
" clip-path="url(#p36856af771)"/>
    <path d="M 123.994645 150.036845 
L 124.293801 150.024879 
L 123.970713 149.438534 
L 126.998164 150.216338 
L 124.04251 151.233466 
L 124.317733 150.623189 
L 124.018578 150.635155 
L 123.994645 150.036845 
" clip-path="url(#p36856af771)"/>
    <path d="M 138.763636 149.893289 
L 138.380238 150.114645 
L 138.380238 150.557355 
L 138.763636 150.778711 
L 139.147035 150.557355 
L 139.147035 150.114645 
L 138.763636 149.893289 
L 138.380238 150.114645 
" clip-path="url(#p36856af771)"/>
    <path d="M 153.508695 150.635155 
L 153.20954 150.623189 
L 153.484763 151.233466 
L 150.529109 150.216338 
L 153.55656 149.438534 
L 153.233472 150.024879 
L 153.532627 150.036845 
L 153.508695 150.635155 
" clip-path="url(#p36856af771)"/>
    <path d="M 168.268834 150.778622 
L 166.269329 150.738632 
L 166.694246 151.632729 
L 162.294581 150.216338 
L 166.747361 148.976996 
L 166.287034 149.853388 
L 168.286538 149.893378 
L 168.268834 150.778622 
" clip-path="url(#p36856af771)"/>
    <path d="M 183.028808 150.778671 
L 178.038194 150.71213 
L 178.46906 151.603375 
L 174.060053 150.216338 
L 178.504474 148.947347 
L 178.049998 149.826787 
L 183.040613 149.893329 
L 183.028808 150.778671 
" clip-path="url(#p36856af771)"/>
    <path d="M 197.787309 150.778689 
L 189.805296 150.698868 
L 190.239131 151.588673 
L 185.825526 150.216338 
L 190.265692 148.932541 
L 189.81415 149.813491 
L 197.796162 149.893311 
L 197.787309 150.778689 
" clip-path="url(#p36856af771)"/>
    <path d="M 212.545219 150.778697 
L 201.571726 150.690909 
L 202.007339 151.579843 
L 197.590998 150.216338 
L 202.028589 148.923664 
L 201.578809 149.805515 
L 212.552302 149.893303 
L 212.545219 150.778697 
" clip-path="url(#p36856af771)"/>
    <path d="M 64.97143 125.701346 
L 75.945305 125.525764 
L 75.488486 124.647538 
L 79.936275 125.904676 
L 75.530981 127.303463 
L 75.95947 126.411072 
L 64.985595 126.586654 
L 64.97143 125.701346 
" clip-path="url(#p36856af771)"/>
    <path d="M 79.726685 125.701378 
L 87.709295 125.541726 
L 87.248967 124.665334 
L 91.701747 125.904676 
L 87.302082 127.321067 
L 87.726999 126.42697 
L 79.74439 126.586622 
L 79.726685 125.701378 
" clip-path="url(#p36856af771)"/>
    <path d="M 94.480761 125.701447 
L 99.472437 125.568335 
L 99.006281 124.69503 
L 103.467219 125.904676 
L 99.077089 127.35035 
L 99.49604 126.453442 
L 94.504363 126.586553 
L 94.480761 125.701447 
" clip-path="url(#p36856af771)"/>
    <path d="M 109.231892 125.701643 
L 111.233784 125.621567 
L 110.756039 124.754548 
L 115.232692 125.904676 
L 110.862205 127.40869 
L 111.269173 126.506281 
L 109.267281 126.586357 
L 109.231892 125.701643 
" clip-path="url(#p36856af771)"/>
    <path d="M 123.982679 125.844845 
L 124.281834 125.820912 
L 123.934814 125.246534 
L 126.998164 125.904676 
L 124.078409 127.041466 
L 124.329699 126.419223 
L 124.030544 126.443155 
L 123.982679 125.844845 
" clip-path="url(#p36856af771)"/>
    <path d="M 138.763636 125.701289 
L 138.380238 125.922645 
L 138.380238 126.365355 
L 138.763636 126.586711 
L 139.147035 126.365355 
L 139.147035 125.922645 
L 138.763636 125.701289 
L 138.380238 125.922645 
" clip-path="url(#p36856af771)"/>
    <path d="M 153.496729 126.443155 
L 153.197573 126.419223 
L 153.448864 127.041466 
L 150.529109 125.904676 
L 153.592458 125.246534 
L 153.245438 125.820912 
L 153.544594 125.844845 
L 153.496729 126.443155 
" clip-path="url(#p36856af771)"/>
    <path d="M 168.259992 126.586357 
L 166.2581 126.506281 
L 166.665068 127.40869 
L 162.294581 125.904676 
L 166.771234 124.754548 
L 166.293488 125.621567 
L 168.29538 125.701643 
L 168.259992 126.586357 
" clip-path="url(#p36856af771)"/>
    <path d="M 183.022909 126.586553 
L 178.031233 126.453442 
L 178.450183 127.35035 
L 174.060053 125.904676 
L 178.520992 124.69503 
L 178.054836 125.568335 
L 183.046512 125.701447 
L 183.022909 126.586553 
" clip-path="url(#p36856af771)"/>
    <path d="M 197.782883 126.586622 
L 189.800273 126.42697 
L 190.225191 127.321067 
L 185.825526 125.904676 
L 190.278305 124.665334 
L 189.817978 125.541726 
L 197.800588 125.701378 
L 197.782883 126.586622 
" clip-path="url(#p36856af771)"/>
    <path d="M 212.541678 126.586654 
L 201.567802 126.411072 
L 201.996291 127.303463 
L 197.590998 125.904676 
L 202.038786 124.647538 
L 201.581967 125.525764 
L 212.555843 125.701346 
L 212.541678 126.586654 
" clip-path="url(#p36856af771)"/>
    <path d="M 64.96789 101.509417 
L 75.942403 101.246028 
L 75.478576 100.371484 
L 79.936275 101.593014 
L 75.542308 103.026984 
L 75.963647 102.131195 
L 64.989134 102.394583 
L 64.96789 101.509417 
" clip-path="url(#p36856af771)"/>
    <path d="M 79.722262 101.509488 
L 87.705867 101.26998 
L 87.236804 100.398232 
L 91.701747 101.593014 
L 87.316457 103.053302 
L 87.732417 102.155004 
L 79.748813 102.394512 
L 79.722262 101.509488 
" clip-path="url(#p36856af771)"/>
    <path d="M 94.474868 101.509643 
L 99.468312 101.309905 
L 98.990567 100.442886 
L 103.467219 101.593014 
L 99.096732 103.097028 
L 99.503701 102.194619 
L 94.510256 102.394357 
L 94.474868 101.509643 
" clip-path="url(#p36856af771)"/>
    <path d="M 109.223072 101.510084 
L 111.228933 101.389732 
L 110.733987 100.532415 
L 115.232692 101.593014 
L 110.893076 103.183911 
L 111.281963 102.273564 
L 109.276102 102.393916 
L 109.223072 101.510084 
" clip-path="url(#p36856af771)"/>
    <path d="M 123.970713 101.652845 
L 124.269868 101.616946 
L 123.898916 101.054534 
L 126.998164 101.593014 
L 124.114307 102.849466 
L 124.341665 102.215257 
L 124.04251 102.251155 
L 123.970713 101.652845 
" clip-path="url(#p36856af771)"/>
    <path d="M 138.763636 101.509289 
L 138.380238 101.730645 
L 138.380238 102.173355 
L 138.763636 102.394711 
L 139.147035 102.173355 
L 139.147035 101.730645 
L 138.763636 101.509289 
L 138.380238 101.730645 
" clip-path="url(#p36856af771)"/>
    <path d="M 153.484763 102.251155 
L 153.185607 102.215257 
L 153.412965 102.849466 
L 150.529109 101.593014 
L 153.628357 101.054534 
L 153.257405 101.616946 
L 153.55656 101.652845 
L 153.484763 102.251155 
" clip-path="url(#p36856af771)"/>
    <path d="M 168.251171 102.393916 
L 166.24531 102.273564 
L 166.634196 103.183911 
L 162.294581 101.593014 
L 166.793286 100.532415 
L 166.29834 101.389732 
L 168.304201 101.510084 
L 168.251171 102.393916 
" clip-path="url(#p36856af771)"/>
    <path d="M 183.017016 102.394357 
L 178.023572 102.194619 
L 178.430541 103.097028 
L 174.060053 101.593014 
L 178.536706 100.442886 
L 178.058961 101.309905 
L 183.052405 101.509643 
L 183.017016 102.394357 
" clip-path="url(#p36856af771)"/>
    <path d="M 197.77846 102.394512 
L 189.794855 102.155004 
L 190.210816 103.053302 
L 185.825526 101.593014 
L 190.290468 100.398232 
L 189.821406 101.26998 
L 197.805011 101.509488 
L 197.77846 102.394512 
" clip-path="url(#p36856af771)"/>
    <path d="M 212.538138 102.394583 
L 201.563626 102.131195 
L 201.984965 103.026984 
L 197.590998 101.593014 
L 202.048697 100.371484 
L 201.58487 101.246028 
L 212.559382 101.509417 
L 212.538138 102.394583 
" clip-path="url(#p36856af771)"/>
    <path d="M 64.964353 77.317516 
L 75.939757 76.966303 
L 75.468954 76.095494 
L 79.936275 77.281352 
L 75.553911 78.750399 
L 75.968076 77.851271 
L 64.992672 78.202484 
L 64.964353 77.317516 
" clip-path="url(#p36856af771)"/>
    <path d="M 79.717843 77.317643 
L 87.70284 76.998243 
L 87.225094 76.131223 
L 91.701747 77.281352 
L 87.33126 78.785365 
L 87.738228 77.882957 
L 79.753231 78.202357 
L 79.717843 77.317643 
" clip-path="url(#p36856af771)"/>
    <path d="M 94.468984 77.317918 
L 99.4649 77.051469 
L 98.975662 76.190882 
L 103.467219 77.281352 
L 99.117128 78.843376 
L 99.512055 77.935634 
L 94.51614 78.202082 
L 94.468984 77.317918 
" clip-path="url(#p36856af771)"/>
    <path d="M 109.214283 77.318699 
L 111.22568 77.157787 
L 110.713771 76.31049 
L 115.232692 77.281352 
L 110.925596 78.958295 
L 111.296288 78.040389 
L 109.284891 78.201301 
L 109.214283 77.318699 
" clip-path="url(#p36856af771)"/>
    <path d="M 123.958747 77.460845 
L 124.257902 77.41298 
L 123.863017 76.862534 
L 126.998164 77.281352 
L 124.150206 78.657466 
L 124.353632 78.01129 
L 124.054476 78.059155 
L 123.958747 77.460845 
" clip-path="url(#p36856af771)"/>
    <path d="M 138.763636 77.317289 
L 138.380238 77.538645 
L 138.380238 77.981355 
L 138.763636 78.202711 
L 139.147035 77.981355 
L 139.147035 77.538645 
L 138.763636 77.317289 
L 138.380238 77.538645 
" clip-path="url(#p36856af771)"/>
    <path d="M 153.472796 78.059155 
L 153.173641 78.01129 
L 153.377067 78.657466 
L 150.529109 77.281352 
L 153.664256 76.862534 
L 153.269371 77.41298 
L 153.568526 77.460845 
L 153.472796 78.059155 
" clip-path="url(#p36856af771)"/>
    <path d="M 168.242382 78.201301 
L 166.230984 78.040389 
L 166.601677 78.958295 
L 162.294581 77.281352 
L 166.813502 76.31049 
L 166.301593 77.157787 
L 168.31299 77.318699 
L 168.242382 78.201301 
" clip-path="url(#p36856af771)"/>
    <path d="M 183.011133 78.202082 
L 178.015218 77.935634 
L 178.410145 78.843376 
L 174.060053 77.281352 
L 178.551611 76.190882 
L 178.062373 77.051469 
L 183.058288 77.317918 
L 183.011133 78.202082 
" clip-path="url(#p36856af771)"/>
    <path d="M 197.774041 78.202357 
L 189.789044 77.882957 
L 190.196013 78.785365 
L 185.825526 77.281352 
L 190.302179 76.131223 
L 189.824433 76.998243 
L 197.80943 77.317643 
L 197.774041 78.202357 
" clip-path="url(#p36856af771)"/>
    <path d="M 212.534601 78.202484 
L 201.559197 77.851271 
L 201.973362 78.750399 
L 197.590998 77.281352 
L 202.058319 76.095494 
L 201.587516 76.966303 
L 212.56292 77.317516 
L 212.534601 78.202484 
" clip-path="url(#p36856af771)"/>
    <path d="M 64.960818 53.125643 
L 75.937367 52.686581 
L 75.459622 51.819561 
L 79.936275 52.96969 
L 75.565788 54.473703 
L 75.972756 53.571295 
L 64.996207 54.010357 
L 64.960818 53.125643 
" clip-path="url(#p36856af771)"/>
    <path d="M 79.713429 53.125842 
L 87.700214 52.726502 
L 87.213839 51.864294 
L 91.701747 52.96969 
L 87.346487 54.517244 
L 87.744429 53.610819 
L 79.757645 54.010158 
L 79.713429 53.125842 
" clip-path="url(#p36856af771)"/>
    <path d="M 94.463113 53.12627 
L 99.462199 52.792997 
L 98.961571 51.938986 
L 103.467219 52.96969 
L 99.138263 54.589367 
L 99.521096 53.676458 
L 94.522011 54.00973 
L 94.463113 53.12627 
" clip-path="url(#p36856af771)"/>
    <path d="M 109.205535 53.127486 
L 111.224017 52.925638 
L 110.695401 52.088662 
L 115.232692 52.96969 
L 110.959709 54.731744 
L 111.31212 53.806665 
L 109.293638 54.008514 
L 109.205535 53.127486 
" clip-path="url(#p36856af771)"/>
    <path d="M 123.946781 53.268845 
L 124.245936 53.209014 
L 123.827118 52.670534 
L 126.998164 52.96969 
L 124.186105 54.465466 
L 124.365598 53.807324 
L 124.066443 53.867155 
L 123.946781 53.268845 
" clip-path="url(#p36856af771)"/>
    <path d="M 138.763636 53.125289 
L 138.380238 53.346645 
L 138.380238 53.789355 
L 138.763636 54.010711 
L 139.147035 53.789355 
L 139.147035 53.346645 
L 138.763636 53.125289 
L 138.380238 53.346645 
" clip-path="url(#p36856af771)"/>
    <path d="M 153.46083 53.867155 
L 153.161675 53.807324 
L 153.341168 54.465466 
L 150.529109 52.96969 
L 153.700154 52.670534 
L 153.281337 53.209014 
L 153.580492 53.268845 
L 153.46083 53.867155 
" clip-path="url(#p36856af771)"/>
    <path d="M 168.233635 54.008514 
L 166.215153 53.806665 
L 166.567563 54.731744 
L 162.294581 52.96969 
L 166.831872 52.088662 
L 166.303255 52.925638 
L 168.321737 53.127486 
L 168.233635 54.008514 
" clip-path="url(#p36856af771)"/>
    <path d="M 183.005262 54.00973 
L 178.006177 53.676458 
L 178.389009 54.589367 
L 174.060053 52.96969 
L 178.565701 51.938986 
L 178.065074 52.792997 
L 183.064159 53.12627 
L 183.005262 54.00973 
" clip-path="url(#p36856af771)"/>
    <path d="M 197.769628 54.010158 
L 189.782843 53.610819 
L 190.180786 54.517244 
L 185.825526 52.96969 
L 190.313433 51.864294 
L 189.827059 52.726502 
L 197.813843 53.125842 
L 197.769628 54.010158 
" clip-path="url(#p36856af771)"/>
    <path d="M 212.531066 54.010357 
L 201.554517 53.571295 
L 201.961485 54.473703 
L 197.590998 52.96969 
L 202.067651 51.819561 
L 201.589905 52.686581 
L 212.566455 53.125643 
L 212.531066 54.010357 
" clip-path="url(#p36856af771)"/>
   </g>
   <g id="matplotlib.axis_1">
    <g id="xtick_1">
     <g id="line2d_1">
      <defs>
       <path id="m20cbb0220c" d="M 0 0 
L 0 3.5 
" style="stroke: #000000; stroke-width: 0.8"/>
      </defs>
      <g>
       <use xlink:href="#m20cbb0220c" x="64.978512" y="307.584" style="stroke: #000000; stroke-width: 0.8"/>
      </g>
     </g>
     <g id="text_1">
      <!-- −5.0 -->
      <g transform="translate(52.837106 322.182437) scale(0.1 -0.1)">
       <defs>
        <path id="DejaVuSans-2212" d="M 678 2272 
L 4684 2272 
L 4684 1741 
L 678 1741 
L 678 2272 
z
" transform="scale(0.015625)"/>
        <path id="DejaVuSans-35" d="M 691 4666 
L 3169 4666 
L 3169 4134 
L 1269 4134 
L 1269 2991 
Q 1406 3038 1543 3061 
Q 1681 3084 1819 3084 
Q 2600 3084 3056 2656 
Q 3513 2228 3513 1497 
Q 3513 744 3044 326 
Q 2575 -91 1722 -91 
Q 1428 -91 1123 -41 
Q 819 9 494 109 
L 494 744 
Q 775 591 1075 516 
Q 1375 441 1709 441 
Q 2250 441 2565 725 
Q 2881 1009 2881 1497 
Q 2881 1984 2565 2268 
Q 2250 2553 1709 2553 
Q 1456 2553 1204 2497 
Q 953 2441 691 2322 
L 691 4666 
z
" transform="scale(0.015625)"/>
        <path id="DejaVuSans-2e" d="M 684 794 
L 1344 794 
L 1344 0 
L 684 0 
L 684 794 
z
" transform="scale(0.015625)"/>
        <path id="DejaVuSans-30" d="M 2034 4250 
Q 1547 4250 1301 3770 
Q 1056 3291 1056 2328 
Q 1056 1369 1301 889 
Q 1547 409 2034 409 
Q 2525 409 2770 889 
Q 3016 1369 3016 2328 
Q 3016 3291 2770 3770 
Q 2525 4250 2034 4250 
z
M 2034 4750 
Q 2819 4750 3233 4129 
Q 3647 3509 3647 2328 
Q 3647 1150 3233 529 
Q 2819 -91 2034 -91 
Q 1250 -91 836 529 
Q 422 1150 422 2328 
Q 422 3509 836 4129 
Q 1250 4750 2034 4750 
z
" transform="scale(0.015625)"/>
       </defs>
       <use xlink:href="#DejaVuSans-2212"/>
       <use xlink:href="#DejaVuSans-35" x="83.789062"/>
       <use xlink:href="#DejaVuSans-2e" x="147.412109"/>
       <use xlink:href="#DejaVuSans-30" x="179.199219"/>
      </g>
     </g>
    </g>
    <g id="xtick_2">
     <g id="line2d_2">
      <g>
       <use xlink:href="#m20cbb0220c" x="101.871074" y="307.584" style="stroke: #000000; stroke-width: 0.8"/>
      </g>
     </g>
     <g id="text_2">
      <!-- −2.5 -->
      <g transform="translate(89.729668 322.182437) scale(0.1 -0.1)">
       <defs>
        <path id="DejaVuSans-32" d="M 1228 531 
L 3431 531 
L 3431 0 
L 469 0 
L 469 531 
Q 828 903 1448 1529 
Q 2069 2156 2228 2338 
Q 2531 2678 2651 2914 
Q 2772 3150 2772 3378 
Q 2772 3750 2511 3984 
Q 2250 4219 1831 4219 
Q 1534 4219 1204 4116 
Q 875 4013 500 3803 
L 500 4441 
Q 881 4594 1212 4672 
Q 1544 4750 1819 4750 
Q 2544 4750 2975 4387 
Q 3406 4025 3406 3419 
Q 3406 3131 3298 2873 
Q 3191 2616 2906 2266 
Q 2828 2175 2409 1742 
Q 1991 1309 1228 531 
z
" transform="scale(0.015625)"/>
       </defs>
       <use xlink:href="#DejaVuSans-2212"/>
       <use xlink:href="#DejaVuSans-32" x="83.789062"/>
       <use xlink:href="#DejaVuSans-2e" x="147.412109"/>
       <use xlink:href="#DejaVuSans-35" x="179.199219"/>
      </g>
     </g>
    </g>
    <g id="xtick_3">
     <g id="line2d_3">
      <g>
       <use xlink:href="#m20cbb0220c" x="138.763636" y="307.584" style="stroke: #000000; stroke-width: 0.8"/>
      </g>
     </g>
     <g id="text_3">
      <!-- 0.0 -->
      <g transform="translate(130.812074 322.182437) scale(0.1 -0.1)">
       <use xlink:href="#DejaVuSans-30"/>
       <use xlink:href="#DejaVuSans-2e" x="63.623047"/>
       <use xlink:href="#DejaVuSans-30" x="95.410156"/>
      </g>
     </g>
    </g>
    <g id="xtick_4">
     <g id="line2d_4">
      <g>
       <use xlink:href="#m20cbb0220c" x="175.656198" y="307.584" style="stroke: #000000; stroke-width: 0.8"/>
      </g>
     </g>
     <g id="text_4">
      <!-- 2.5 -->
      <g transform="translate(167.704636 322.182437) scale(0.1 -0.1)">
       <use xlink:href="#DejaVuSans-32"/>
       <use xlink:href="#DejaVuSans-2e" x="63.623047"/>
       <use xlink:href="#DejaVuSans-35" x="95.410156"/>
      </g>
     </g>
    </g>
    <g id="xtick_5">
     <g id="line2d_5">
      <g>
       <use xlink:href="#m20cbb0220c" x="212.54876" y="307.584" style="stroke: #000000; stroke-width: 0.8"/>
      </g>
     </g>
     <g id="text_5">
      <!-- 5.0 -->
      <g transform="translate(204.597198 322.182437) scale(0.1 -0.1)">
       <use xlink:href="#DejaVuSans-35"/>
       <use xlink:href="#DejaVuSans-2e" x="63.623047"/>
       <use xlink:href="#DejaVuSans-30" x="95.410156"/>
      </g>
     </g>
    </g>
   </g>
   <g id="matplotlib.axis_2">
    <g id="ytick_1">
     <g id="line2d_6">
      <defs>
       <path id="m59c2cca1b7" d="M 0 0 
L -3.5 0 
" style="stroke: #000000; stroke-width: 0.8"/>
      </defs>
      <g>
       <use xlink:href="#m59c2cca1b7" x="57.6" y="271.296" style="stroke: #000000; stroke-width: 0.8"/>
      </g>
     </g>
     <g id="text_6">
      <!-- −4 -->
      <g transform="translate(35.857813 275.095219) scale(0.1 -0.1)">
       <defs>
        <path id="DejaVuSans-34" d="M 2419 4116 
L 825 1625 
L 2419 1625 
L 2419 4116 
z
M 2253 4666 
L 3047 4666 
L 3047 1625 
L 3713 1625 
L 3713 1100 
L 3047 1100 
L 3047 0 
L 2419 0 
L 2419 1100 
L 313 1100 
L 313 1709 
L 2253 4666 
z
" transform="scale(0.015625)"/>
       </defs>
       <use xlink:href="#DejaVuSans-2212"/>
       <use xlink:href="#DejaVuSans-34" x="83.789062"/>
      </g>
     </g>
    </g>
    <g id="ytick_2">
     <g id="line2d_7">
      <g>
       <use xlink:href="#m59c2cca1b7" x="57.6" y="222.912" style="stroke: #000000; stroke-width: 0.8"/>
      </g>
     </g>
     <g id="text_7">
      <!-- −2 -->
      <g transform="translate(35.857813 226.711219) scale(0.1 -0.1)">
       <use xlink:href="#DejaVuSans-2212"/>
       <use xlink:href="#DejaVuSans-32" x="83.789062"/>
      </g>
     </g>
    </g>
    <g id="ytick_3">
     <g id="line2d_8">
      <g>
       <use xlink:href="#m59c2cca1b7" x="57.6" y="174.528" style="stroke: #000000; stroke-width: 0.8"/>
      </g>
     </g>
     <g id="text_8">
      <!-- 0 -->
      <g transform="translate(44.2375 178.327219) scale(0.1 -0.1)">
       <use xlink:href="#DejaVuSans-30"/>
      </g>
     </g>
    </g>
    <g id="ytick_4">
     <g id="line2d_9">
      <g>
       <use xlink:href="#m59c2cca1b7" x="57.6" y="126.144" style="stroke: #000000; stroke-width: 0.8"/>
      </g>
     </g>
     <g id="text_9">
      <!-- 2 -->
      <g transform="translate(44.2375 129.943219) scale(0.1 -0.1)">
       <use xlink:href="#DejaVuSans-32"/>
      </g>
     </g>
    </g>
    <g id="ytick_5">
     <g id="line2d_10">
      <g>
       <use xlink:href="#m59c2cca1b7" x="57.6" y="77.76" style="stroke: #000000; stroke-width: 0.8"/>
      </g>
     </g>
     <g id="text_10">
      <!-- 4 -->
      <g transform="translate(44.2375 81.559219) scale(0.1 -0.1)">
       <use xlink:href="#DejaVuSans-34"/>
      </g>
     </g>
    </g>
   </g>
   <g id="patch_3">
    <path d="M 57.6 307.584 
L 57.6 41.472 
" style="fill: none; stroke: #000000; stroke-width: 0.8; stroke-linejoin: miter; stroke-linecap: square"/>
   </g>
   <g id="patch_4">
    <path d="M 219.927273 307.584 
L 219.927273 41.472 
" style="fill: none; stroke: #000000; stroke-width: 0.8; stroke-linejoin: miter; stroke-linecap: square"/>
   </g>
   <g id="patch_5">
    <path d="M 57.6 307.584 
L 219.927273 307.584 
" style="fill: none; stroke: #000000; stroke-width: 0.8; stroke-linejoin: miter; stroke-linecap: square"/>
   </g>
   <g id="patch_6">
    <path d="M 57.6 41.472 
L 219.927273 41.472 
" style="fill: none; stroke: #000000; stroke-width: 0.8; stroke-linejoin: miter; stroke-linecap: square"/>
   </g>
  </g>
  <g id="axes_2">
   <g id="patch_7">
    <path d="M 252.392727 307.584 
L 414.72 307.584 
L 414.72 41.472 
L 252.392727 41.472 
z
" style="fill: #ffffff"/>
   </g>
   <g id="matplotlib.axis_3">
    <g id="xtick_6">
     <g id="line2d_11">
      <g>
       <use xlink:href="#m20cbb0220c" x="279.447273" y="307.584" style="stroke: #000000; stroke-width: 0.8"/>
      </g>
     </g>
     <g id="text_11">
      <!-- 0 -->
      <g transform="translate(276.266023 322.182437) scale(0.1 -0.1)">
       <use xlink:href="#DejaVuSans-30"/>
      </g>
     </g>
    </g>
    <g id="xtick_7">
     <g id="line2d_12">
      <g>
       <use xlink:href="#m20cbb0220c" x="333.556364" y="307.584" style="stroke: #000000; stroke-width: 0.8"/>
      </g>
     </g>
     <g id="text_12">
      <!-- 2 -->
      <g transform="translate(330.375114 322.182437) scale(0.1 -0.1)">
       <use xlink:href="#DejaVuSans-32"/>
      </g>
     </g>
    </g>
    <g id="xtick_8">
     <g id="line2d_13">
      <g>
       <use xlink:href="#m20cbb0220c" x="387.665455" y="307.584" style="stroke: #000000; stroke-width: 0.8"/>
      </g>
     </g>
     <g id="text_13">
      <!-- 4 -->
      <g transform="translate(384.484205 322.182437) scale(0.1 -0.1)">
       <use xlink:href="#DejaVuSans-34"/>
      </g>
     </g>
    </g>
   </g>
   <g id="matplotlib.axis_4">
    <g id="ytick_6">
     <g id="line2d_14">
      <g>
       <use xlink:href="#m59c2cca1b7" x="252.392727" y="307.584" style="stroke: #000000; stroke-width: 0.8"/>
      </g>
     </g>
     <g id="text_14">
      <!-- −5 -->
      <g transform="translate(230.65054 311.383219) scale(0.1 -0.1)">
       <use xlink:href="#DejaVuSans-2212"/>
       <use xlink:href="#DejaVuSans-35" x="83.789062"/>
      </g>
     </g>
    </g>
    <g id="ytick_7">
     <g id="line2d_15">
      <g>
       <use xlink:href="#m59c2cca1b7" x="252.392727" y="263.232" style="stroke: #000000; stroke-width: 0.8"/>
      </g>
     </g>
     <g id="text_15">
      <!-- −4 -->
      <g transform="translate(230.65054 267.031219) scale(0.1 -0.1)">
       <use xlink:href="#DejaVuSans-2212"/>
       <use xlink:href="#DejaVuSans-34" x="83.789062"/>
      </g>
     </g>
    </g>
    <g id="ytick_8">
     <g id="line2d_16">
      <g>
       <use xlink:href="#m59c2cca1b7" x="252.392727" y="218.88" style="stroke: #000000; stroke-width: 0.8"/>
      </g>
     </g>
     <g id="text_16">
      <!-- −3 -->
      <g transform="translate(230.65054 222.679219) scale(0.1 -0.1)">
       <defs>
        <path id="DejaVuSans-33" d="M 2597 2516 
Q 3050 2419 3304 2112 
Q 3559 1806 3559 1356 
Q 3559 666 3084 287 
Q 2609 -91 1734 -91 
Q 1441 -91 1130 -33 
Q 819 25 488 141 
L 488 750 
Q 750 597 1062 519 
Q 1375 441 1716 441 
Q 2309 441 2620 675 
Q 2931 909 2931 1356 
Q 2931 1769 2642 2001 
Q 2353 2234 1838 2234 
L 1294 2234 
L 1294 2753 
L 1863 2753 
Q 2328 2753 2575 2939 
Q 2822 3125 2822 3475 
Q 2822 3834 2567 4026 
Q 2313 4219 1838 4219 
Q 1578 4219 1281 4162 
Q 984 4106 628 3988 
L 628 4550 
Q 988 4650 1302 4700 
Q 1616 4750 1894 4750 
Q 2613 4750 3031 4423 
Q 3450 4097 3450 3541 
Q 3450 3153 3228 2886 
Q 3006 2619 2597 2516 
z
" transform="scale(0.015625)"/>
       </defs>
       <use xlink:href="#DejaVuSans-2212"/>
       <use xlink:href="#DejaVuSans-33" x="83.789062"/>
      </g>
     </g>
    </g>
    <g id="ytick_9">
     <g id="line2d_17">
      <g>
       <use xlink:href="#m59c2cca1b7" x="252.392727" y="174.528" style="stroke: #000000; stroke-width: 0.8"/>
      </g>
     </g>
     <g id="text_17">
      <!-- −2 -->
      <g transform="translate(230.65054 178.327219) scale(0.1 -0.1)">
       <use xlink:href="#DejaVuSans-2212"/>
       <use xlink:href="#DejaVuSans-32" x="83.789062"/>
      </g>
     </g>
    </g>
    <g id="ytick_10">
     <g id="line2d_18">
      <g>
       <use xlink:href="#m59c2cca1b7" x="252.392727" y="130.176" style="stroke: #000000; stroke-width: 0.8"/>
      </g>
     </g>
     <g id="text_18">
      <!-- −1 -->
      <g transform="translate(230.65054 133.975219) scale(0.1 -0.1)">
       <defs>
        <path id="DejaVuSans-31" d="M 794 531 
L 1825 531 
L 1825 4091 
L 703 3866 
L 703 4441 
L 1819 4666 
L 2450 4666 
L 2450 531 
L 3481 531 
L 3481 0 
L 794 0 
L 794 531 
z
" transform="scale(0.015625)"/>
       </defs>
       <use xlink:href="#DejaVuSans-2212"/>
       <use xlink:href="#DejaVuSans-31" x="83.789062"/>
      </g>
     </g>
    </g>
    <g id="ytick_11">
     <g id="line2d_19">
      <g>
       <use xlink:href="#m59c2cca1b7" x="252.392727" y="85.824" style="stroke: #000000; stroke-width: 0.8"/>
      </g>
     </g>
     <g id="text_19">
      <!-- 0 -->
      <g transform="translate(239.030227 89.623219) scale(0.1 -0.1)">
       <use xlink:href="#DejaVuSans-30"/>
      </g>
     </g>
    </g>
    <g id="ytick_12">
     <g id="line2d_20">
      <g>
       <use xlink:href="#m59c2cca1b7" x="252.392727" y="41.472" style="stroke: #000000; stroke-width: 0.8"/>
      </g>
     </g>
     <g id="text_20">
      <!-- 1 -->
      <g transform="translate(239.030227 45.271219) scale(0.1 -0.1)">
       <use xlink:href="#DejaVuSans-31"/>
      </g>
     </g>
    </g>
   </g>
   <g id="line2d_21">
    <path d="M 282.152727 164.694248 
L 283.491791 157.15143 
L 284.830854 152.229714 
L 286.169917 148.642597 
L 287.508981 145.853746 
L 288.848044 143.591344 
L 290.187107 141.699815 
L 291.526171 140.082332 
L 292.865234 138.674808 
L 294.204298 137.432777 
L 295.543361 136.32421 
L 296.882424 135.325327 
L 298.221488 134.418019 
L 299.560551 133.588205 
L 300.899614 132.824729 
L 302.238678 132.118617 
L 303.577741 131.462549 
L 304.916804 130.850483 
L 306.255868 130.277377 
L 307.594931 129.738981 
L 308.933994 129.231687 
L 310.273058 128.752403 
L 311.612121 128.298462 
L 312.951185 127.867551 
L 314.290248 127.457648 
L 315.629311 127.066977 
L 316.968375 126.693975 
L 318.307438 126.337252 
L 319.646501 125.995573 
L 320.985565 125.667833 
L 322.324628 125.35304 
L 323.663691 125.050303 
L 325.002755 124.758814 
L 326.341818 124.477844 
L 327.680882 124.206727 
L 329.019945 123.94486 
L 330.359008 123.691688 
L 331.698072 123.446707 
L 333.037135 123.20945 
L 334.376198 122.97949 
L 335.715262 122.756433 
L 337.054325 122.539915 
L 338.393388 122.329598 
L 339.732452 122.125171 
L 341.071515 121.926342 
L 342.410579 121.732841 
L 343.749642 121.544417 
L 345.088705 121.360836 
L 346.427769 121.181877 
L 347.766832 121.007335 
L 349.105895 120.837018 
L 350.444959 120.670745 
L 351.784022 120.508347 
L 353.123085 120.349664 
L 354.462149 120.194545 
L 355.801212 120.04285 
L 357.140275 119.894444 
L 358.479339 119.749201 
L 359.818402 119.607003 
L 361.157466 119.467736 
L 362.496529 119.331292 
L 363.835592 119.197571 
L 365.174656 119.066477 
L 366.513719 118.937918 
L 367.852782 118.811806 
L 369.191846 118.68806 
L 370.530909 118.566601 
L 371.869972 118.447354 
L 373.209036 118.330247 
L 374.548099 118.215212 
L 375.887163 118.102184 
L 377.226226 117.991101 
L 378.565289 117.881904 
L 379.904353 117.774535 
L 381.243416 117.66894 
L 382.582479 117.565068 
L 383.921543 117.462868 
L 385.260606 117.362292 
L 386.599669 117.263295 
L 387.938733 117.165832 
L 389.277796 117.069862 
L 390.61686 116.975343 
L 391.955923 116.882236 
L 393.294986 116.790505 
L 394.63405 116.700112 
L 395.973113 116.611024 
L 397.312176 116.523206 
L 398.65124 116.436626 
L 399.990303 116.351254 
L 401.329366 116.267059 
L 402.66843 116.184013 
L 404.007493 116.102087 
L 405.346556 116.021254 
L 406.68562 115.941489 
L 408.024683 115.862767 
L 409.363747 115.785063 
L 410.70281 115.708353 
L 412.041873 115.632616 
L 413.380937 115.557828 
L 414.72 115.48397 
" clip-path="url(#p6feff60502)" style="fill: none; stroke: #1f77b4; stroke-width: 1.5; stroke-linecap: square"/>
   </g>
   <g id="line2d_22">
    <path d="M 282.152727 243.564497 
L 283.491791 228.478861 
L 284.830854 218.635428 
L 286.169917 211.461193 
L 287.508981 205.883491 
L 288.848044 201.358687 
L 290.187107 197.57563 
L 291.526171 194.340664 
L 292.865234 191.525617 
L 294.204298 189.041554 
L 295.543361 186.82442 
L 296.882424 184.826653 
L 298.221488 183.012039 
L 299.560551 181.35241 
L 300.899614 179.825458 
L 302.238678 178.413234 
L 303.577741 177.101099 
L 304.916804 175.876967 
L 306.255868 174.730753 
L 307.594931 173.653962 
L 308.933994 172.639374 
L 310.273058 171.680806 
L 311.612121 170.772925 
L 312.951185 169.911102 
L 314.290248 169.091295 
L 315.629311 168.309955 
L 316.968375 167.56395 
L 318.307438 166.850505 
L 319.646501 166.167146 
L 320.985565 165.511666 
L 322.324628 164.882081 
L 323.663691 164.276606 
L 325.002755 163.693629 
L 326.341818 163.131687 
L 327.680882 162.589454 
L 329.019945 162.065719 
L 330.359008 161.559377 
L 331.698072 161.069413 
L 333.037135 160.594899 
L 334.376198 160.13498 
L 335.715262 159.688866 
L 337.054325 159.25583 
L 338.393388 158.835197 
L 339.732452 158.426341 
L 341.071515 158.028683 
L 342.410579 157.641682 
L 343.749642 157.264835 
L 345.088705 156.897672 
L 346.427769 156.539754 
L 347.766832 156.19067 
L 349.105895 155.850036 
L 350.444959 155.517491 
L 351.784022 155.192694 
L 353.123085 154.875327 
L 354.462149 154.56509 
L 355.801212 154.261699 
L 357.140275 153.964888 
L 358.479339 153.674403 
L 359.818402 153.390006 
L 361.157466 153.111471 
L 362.496529 152.838584 
L 363.835592 152.571143 
L 365.174656 152.308954 
L 366.513719 152.051835 
L 367.852782 151.799613 
L 369.191846 151.552121 
L 370.530909 151.309202 
L 371.869972 151.070708 
L 373.209036 150.836494 
L 374.548099 150.606424 
L 375.887163 150.380368 
L 377.226226 150.158202 
L 378.565289 149.939807 
L 379.904353 149.72507 
L 381.243416 149.51388 
L 382.582479 149.306136 
L 383.921543 149.101735 
L 385.260606 148.900584 
L 386.599669 148.70259 
L 387.938733 148.507664 
L 389.277796 148.315723 
L 390.61686 148.126685 
L 391.955923 147.940473 
L 393.294986 147.75701 
L 394.63405 147.576225 
L 395.973113 147.398048 
L 397.312176 147.222412 
L 398.65124 147.049253 
L 399.990303 146.878508 
L 401.329366 146.710118 
L 402.66843 146.544025 
L 404.007493 146.380173 
L 405.346556 146.218508 
L 406.68562 146.058979 
L 408.024683 145.901534 
L 409.363747 145.746125 
L 410.70281 145.592706 
L 412.041873 145.441232 
L 413.380937 145.291657 
L 414.72 145.14394 
" clip-path="url(#p6feff60502)" style="fill: none; stroke: #ff7f0e; stroke-width: 1.5; stroke-linecap: square"/>
   </g>
   <g id="line2d_23">
    <path d="M 282.152727 322.434745 
L 283.491791 299.806291 
L 284.830854 285.041142 
L 286.169917 274.27979 
L 287.508981 265.913237 
L 288.848044 259.126031 
L 290.187107 253.451445 
L 291.526171 248.598996 
L 292.865234 244.376425 
L 294.204298 240.650331 
L 295.543361 237.32463 
L 296.882424 234.32798 
L 298.221488 231.606058 
L 299.560551 229.116615 
L 300.899614 226.826187 
L 302.238678 224.707851 
L 303.577741 222.739648 
L 304.916804 220.90345 
L 306.255868 219.18413 
L 307.594931 217.568944 
L 308.933994 216.047061 
L 310.273058 214.609209 
L 311.612121 213.247387 
L 312.951185 211.954653 
L 314.290248 210.724943 
L 315.629311 209.552932 
L 316.968375 208.433925 
L 318.307438 207.363757 
L 319.646501 206.338719 
L 320.985565 205.355499 
L 322.324628 204.411121 
L 323.663691 203.502909 
L 325.002755 202.628443 
L 326.341818 201.785531 
L 327.680882 200.972182 
L 329.019945 200.186579 
L 330.359008 199.427065 
L 331.698072 198.69212 
L 333.037135 197.980349 
L 334.376198 197.29047 
L 335.715262 196.621299 
L 337.054325 195.971745 
L 338.393388 195.340795 
L 339.732452 194.727512 
L 341.071515 194.131025 
L 342.410579 193.550523 
L 343.749642 192.985252 
L 345.088705 192.434508 
L 346.427769 191.897631 
L 347.766832 191.374005 
L 349.105895 190.863054 
L 350.444959 190.364236 
L 351.784022 189.877041 
L 353.123085 189.400991 
L 354.462149 188.935635 
L 355.801212 188.480549 
L 357.140275 188.035332 
L 358.479339 187.599604 
L 359.818402 187.173009 
L 361.157466 186.755207 
L 362.496529 186.345876 
L 363.835592 185.944714 
L 365.174656 185.551431 
L 366.513719 185.165753 
L 367.852782 184.787419 
L 369.191846 184.416181 
L 370.530909 184.051804 
L 371.869972 183.694061 
L 373.209036 183.34274 
L 374.548099 182.997635 
L 375.887163 182.658552 
L 377.226226 182.325303 
L 378.565289 181.997711 
L 379.904353 181.675604 
L 381.243416 181.358821 
L 382.582479 181.047204 
L 383.921543 180.740603 
L 385.260606 180.438876 
L 386.599669 180.141885 
L 387.938733 179.849496 
L 389.277796 179.561585 
L 390.61686 179.278028 
L 391.955923 178.998709 
L 393.294986 178.723515 
L 394.63405 178.452337 
L 395.973113 178.185072 
L 397.312176 177.921618 
L 398.65124 177.661879 
L 399.990303 177.405763 
L 401.329366 177.153178 
L 402.66843 176.904038 
L 404.007493 176.65826 
L 405.346556 176.415762 
L 406.68562 176.176468 
L 408.024683 175.940301 
L 409.363747 175.707188 
L 410.70281 175.47706 
L 412.041873 175.249847 
L 413.380937 175.025485 
L 414.72 174.80391 
" clip-path="url(#p6feff60502)" style="fill: none; stroke: #2ca02c; stroke-width: 1.5; stroke-linecap: square"/>
   </g>
   <g id="line2d_24">
    <path d="M 285.283184 346.6 
L 286.169917 337.098387 
L 287.508981 325.942983 
L 288.848044 316.893374 
L 290.187107 309.327259 
L 291.526171 302.857329 
L 292.865234 297.227233 
L 294.204298 292.259108 
L 295.543361 287.82484 
L 296.882424 283.829306 
L 298.221488 280.200078 
L 299.560551 276.88082 
L 300.899614 273.826916 
L 302.238678 271.002468 
L 303.577741 268.378197 
L 304.916804 265.929933 
L 306.255868 263.637507 
L 307.594931 261.483925 
L 308.933994 259.454748 
L 310.273058 257.537612 
L 311.612121 255.72185 
L 312.951185 253.998204 
L 314.290248 252.35859 
L 315.629311 250.79591 
L 316.968375 249.3039 
L 318.307438 247.877009 
L 319.646501 246.510292 
L 320.985565 245.199332 
L 322.324628 243.940162 
L 323.663691 242.729212 
L 325.002755 241.563257 
L 326.341818 240.439375 
L 327.680882 239.354909 
L 329.019945 238.307439 
L 330.359008 237.294753 
L 331.698072 236.314826 
L 333.037135 235.365799 
L 334.376198 234.44596 
L 335.715262 233.553733 
L 337.054325 232.68766 
L 338.393388 231.846393 
L 339.732452 231.028683 
L 341.071515 230.233366 
L 342.410579 229.459364 
L 343.749642 228.70567 
L 345.088705 227.971343 
L 346.427769 227.255508 
L 347.766832 226.557341 
L 349.105895 225.876072 
L 350.444959 225.210981 
L 351.784022 224.561388 
L 353.123085 223.926655 
L 354.462149 223.30618 
L 355.801212 222.699399 
L 357.140275 222.105776 
L 358.479339 221.524806 
L 359.818402 220.956012 
L 361.157466 220.398942 
L 362.496529 219.853169 
L 363.835592 219.318286 
L 365.174656 218.793908 
L 366.513719 218.279671 
L 367.852782 217.775225 
L 369.191846 217.280242 
L 370.530909 216.794405 
L 371.869972 216.317415 
L 373.209036 215.848987 
L 374.548099 215.388847 
L 375.887163 214.936736 
L 377.226226 214.492404 
L 378.565289 214.055614 
L 379.904353 213.626139 
L 381.243416 213.203761 
L 382.582479 212.788271 
L 383.921543 212.379471 
L 385.260606 211.977168 
L 386.599669 211.581179 
L 387.938733 211.191329 
L 389.277796 210.807447 
L 390.61686 210.429371 
L 391.955923 210.056945 
L 393.294986 209.69002 
L 394.63405 209.328449 
L 395.973113 208.972095 
L 397.312176 208.620824 
L 398.65124 208.274506 
L 399.990303 207.933017 
L 401.329366 207.596237 
L 402.66843 207.264051 
L 404.007493 206.936346 
L 405.346556 206.613017 
L 406.68562 206.293957 
L 408.024683 205.979067 
L 409.363747 205.668251 
L 410.70281 205.361413 
L 412.041873 205.058463 
L 413.380937 204.759314 
L 414.72 204.46388 
" clip-path="url(#p6feff60502)" style="fill: none; stroke: #d62728; stroke-width: 1.5; stroke-linecap: square"/>
   </g>
   <g id="line2d_25">
    <path d="M 282.152727 164.990676 
L 283.491791 154.321838 
L 284.830854 147.620409 
L 286.169917 142.871214 
L 287.508981 139.260149 
L 288.848044 136.384346 
L 290.187107 134.017644 
L 291.526171 132.021563 
L 292.865234 130.305738 
L 294.204298 128.808247 
L 295.543361 127.484989 
L 296.882424 126.303546 
L 298.221488 125.239465 
L 299.560551 124.273887 
L 300.899614 123.391994 
L 302.238678 122.581952 
L 303.577741 121.834175 
L 304.916804 121.1408 
L 306.255868 120.495309 
L 307.594931 119.892239 
L 308.933994 119.326974 
L 310.273058 118.795583 
L 311.612121 118.294693 
L 312.951185 117.821387 
L 314.290248 117.373132 
L 315.629311 116.947713 
L 316.968375 116.543185 
L 318.307438 116.157828 
L 319.646501 115.79012 
L 320.985565 115.438703 
L 322.324628 115.102365 
L 323.663691 114.780016 
L 325.002755 114.470678 
L 326.341818 114.173464 
L 327.680882 113.887574 
L 329.019945 113.612279 
L 330.359008 113.346916 
L 331.698072 113.09088 
L 333.037135 112.843614 
L 334.376198 112.604612 
L 335.715262 112.373405 
L 337.054325 112.149563 
L 338.393388 111.932687 
L 339.732452 111.72241 
L 341.071515 111.518391 
L 342.410579 111.320313 
L 343.749642 111.127884 
L 345.088705 110.940828 
L 346.427769 110.758892 
L 347.766832 110.581836 
L 349.105895 110.409437 
L 350.444959 110.241488 
L 351.784022 110.077793 
L 353.123085 109.918167 
L 354.462149 109.762439 
L 355.801212 109.610447 
L 357.140275 109.462037 
L 358.479339 109.317066 
L 359.818402 109.175397 
L 361.157466 109.036903 
L 362.496529 108.901461 
L 363.835592 108.768957 
L 365.174656 108.639283 
L 366.513719 108.512334 
L 367.852782 108.388013 
L 369.191846 108.266227 
L 370.530909 108.146887 
L 371.869972 108.02991 
L 373.209036 107.915216 
L 374.548099 107.802728 
L 375.887163 107.692374 
L 377.226226 107.584084 
L 378.565289 107.477792 
L 379.904353 107.373436 
L 381.243416 107.270954 
L 382.582479 107.17029 
L 383.921543 107.071387 
L 385.260606 106.974194 
L 386.599669 106.878659 
L 387.938733 106.784735 
L 389.277796 106.692373 
L 390.61686 106.601531 
L 391.955923 106.512165 
L 393.294986 106.424234 
L 394.63405 106.337698 
L 395.973113 106.252519 
L 397.312176 106.168662 
L 398.65124 106.08609 
L 399.990303 106.00477 
L 401.329366 105.92467 
L 402.66843 105.845757 
L 404.007493 105.768003 
L 405.346556 105.691377 
L 406.68562 105.615851 
L 408.024683 105.541399 
L 409.363747 105.467993 
L 410.70281 105.39561 
L 412.041873 105.324224 
L 413.380937 105.253812 
L 414.72 105.18435 
" clip-path="url(#p6feff60502)" style="fill: none; stroke: #9467bd; stroke-width: 1.5; stroke-linecap: square"/>
   </g>
   <g id="line2d_26">
    <path d="M 282.152727 244.157352 
L 283.491791 222.819676 
L 284.830854 209.416818 
L 286.169917 199.918429 
L 287.508981 192.696299 
L 288.848044 186.944693 
L 290.187107 182.211287 
L 291.526171 178.219125 
L 292.865234 174.787475 
L 294.204298 171.792495 
L 295.543361 169.145978 
L 296.882424 166.783093 
L 298.221488 164.65493 
L 299.560551 162.723774 
L 300.899614 160.959988 
L 302.238678 159.339903 
L 303.577741 157.844349 
L 304.916804 156.457601 
L 306.255868 155.166618 
L 307.594931 153.960477 
L 308.933994 152.829948 
L 310.273058 151.767167 
L 311.612121 150.765385 
L 312.951185 149.818774 
L 314.290248 148.922264 
L 315.629311 148.071427 
L 316.968375 147.26237 
L 318.307438 146.491657 
L 319.646501 145.756241 
L 320.985565 145.053407 
L 322.324628 144.38073 
L 323.663691 143.736033 
L 325.002755 143.117356 
L 326.341818 142.522929 
L 327.680882 141.951149 
L 329.019945 141.400559 
L 330.359008 140.869833 
L 331.698072 140.357759 
L 333.037135 139.863229 
L 334.376198 139.385224 
L 335.715262 138.92281 
L 337.054325 138.475125 
L 338.393388 138.041374 
L 339.732452 137.620819 
L 341.071515 137.212781 
L 342.410579 136.816627 
L 343.749642 136.431768 
L 345.088705 136.057657 
L 346.427769 135.693784 
L 347.766832 135.339671 
L 349.105895 134.994875 
L 350.444959 134.658976 
L 351.784022 134.331585 
L 353.123085 134.012334 
L 354.462149 133.700879 
L 355.801212 133.396894 
L 357.140275 133.100074 
L 358.479339 132.810132 
L 359.818402 132.526794 
L 361.157466 132.249806 
L 362.496529 131.978922 
L 363.835592 131.713915 
L 365.174656 131.454565 
L 366.513719 131.200668 
L 367.852782 130.952026 
L 369.191846 130.708454 
L 370.530909 130.469775 
L 371.869972 130.235821 
L 373.209036 130.006432 
L 374.548099 129.781456 
L 375.887163 129.560747 
L 377.226226 129.344167 
L 378.565289 129.131584 
L 379.904353 128.922871 
L 381.243416 128.717908 
L 382.582479 128.516579 
L 383.921543 128.318774 
L 385.260606 128.124388 
L 386.599669 127.933318 
L 387.938733 127.745469 
L 389.277796 127.560747 
L 390.61686 127.379062 
L 391.955923 127.20033 
L 393.294986 127.024467 
L 394.63405 126.851395 
L 395.973113 126.681039 
L 397.312176 126.513324 
L 398.65124 126.34818 
L 399.990303 126.185541 
L 401.329366 126.02534 
L 402.66843 125.867515 
L 404.007493 125.712005 
L 405.346556 125.558753 
L 406.68562 125.407702 
L 408.024683 125.258797 
L 409.363747 125.111987 
L 410.70281 124.96722 
L 412.041873 124.824448 
L 413.380937 124.683623 
L 414.72 124.5447 
" clip-path="url(#p6feff60502)" style="fill: none; stroke: #8c564b; stroke-width: 1.5; stroke-linecap: square"/>
   </g>
   <g id="line2d_27">
    <path d="M 282.152727 323.324028 
L 283.491791 291.317513 
L 284.830854 271.213227 
L 286.169917 256.965643 
L 287.508981 246.132448 
L 288.848044 237.505039 
L 290.187107 230.404931 
L 291.526171 224.416688 
L 292.865234 219.269213 
L 294.204298 214.776742 
L 295.543361 210.806967 
L 296.882424 207.262639 
L 298.221488 204.070395 
L 299.560551 201.173661 
L 300.899614 198.527981 
L 302.238678 196.097855 
L 303.577741 193.854524 
L 304.916804 191.774401 
L 306.255868 189.837927 
L 307.594931 188.028716 
L 308.933994 186.332922 
L 310.273058 184.73875 
L 311.612121 183.236078 
L 312.951185 181.81616 
L 314.290248 180.471396 
L 315.629311 179.19514 
L 316.968375 177.981554 
L 318.307438 176.825485 
L 319.646501 175.722361 
L 320.985565 174.66811 
L 322.324628 173.659095 
L 323.663691 172.692049 
L 325.002755 171.764034 
L 326.341818 170.872393 
L 327.680882 170.014723 
L 329.019945 169.188838 
L 330.359008 168.392749 
L 331.698072 167.624639 
L 333.037135 166.882843 
L 334.376198 166.165836 
L 335.715262 165.472216 
L 337.054325 164.800688 
L 338.393388 164.15006 
L 339.732452 163.519229 
L 341.071515 162.907172 
L 342.410579 162.31294 
L 343.749642 161.735652 
L 345.088705 161.174485 
L 346.427769 160.628675 
L 347.766832 160.097507 
L 349.105895 159.580312 
L 350.444959 159.076465 
L 351.784022 158.585378 
L 353.123085 158.106502 
L 354.462149 157.639318 
L 355.801212 157.183341 
L 357.140275 156.738111 
L 358.479339 156.303198 
L 359.818402 155.878192 
L 361.157466 155.462708 
L 362.496529 155.056383 
L 363.835592 154.658872 
L 365.174656 154.269848 
L 366.513719 153.889001 
L 367.852782 153.516038 
L 369.191846 153.15068 
L 370.530909 152.792662 
L 371.869972 152.441731 
L 373.209036 152.097648 
L 374.548099 151.760184 
L 375.887163 151.429121 
L 377.226226 151.104251 
L 378.565289 150.785376 
L 379.904353 150.472307 
L 381.243416 150.164862 
L 382.582479 149.862869 
L 383.921543 149.566162 
L 385.260606 149.274582 
L 386.599669 148.987978 
L 387.938733 148.706204 
L 389.277796 148.42912 
L 390.61686 148.156593 
L 391.955923 147.888495 
L 393.294986 147.624701 
L 394.63405 147.365093 
L 395.973113 147.109558 
L 397.312176 146.857985 
L 398.65124 146.61027 
L 399.990303 146.366311 
L 401.329366 146.12601 
L 402.66843 145.889272 
L 404.007493 145.656008 
L 405.346556 145.42613 
L 406.68562 145.199553 
L 408.024683 144.976196 
L 409.363747 144.75598 
L 410.70281 144.538829 
L 412.041873 144.324671 
L 413.380937 144.113435 
L 414.72 143.905051 
" clip-path="url(#p6feff60502)" style="fill: none; stroke: #e377c2; stroke-width: 1.5; stroke-linecap: square"/>
   </g>
   <g id="line2d_28">
    <path d="M 284.151956 346.6 
L 284.830854 333.009636 
L 286.169917 314.012857 
L 287.508981 299.568597 
L 288.848044 288.065386 
L 290.187107 278.598575 
L 291.526171 270.614251 
L 292.865234 263.75095 
L 294.204298 257.760989 
L 295.543361 252.467955 
L 296.882424 247.742185 
L 298.221488 243.48586 
L 299.560551 239.623548 
L 300.899614 236.095975 
L 302.238678 232.855807 
L 303.577741 229.864698 
L 304.916804 227.091202 
L 306.255868 224.509236 
L 307.594931 222.096954 
L 308.933994 219.835896 
L 310.273058 217.710334 
L 311.612121 215.706771 
L 312.951185 213.813547 
L 314.290248 212.020528 
L 315.629311 210.318853 
L 316.968375 208.700739 
L 318.307438 207.159314 
L 319.646501 205.688481 
L 320.985565 204.282814 
L 322.324628 202.93746 
L 323.663691 201.648066 
L 325.002755 200.410711 
L 326.341818 199.221858 
L 327.680882 198.078297 
L 329.019945 196.977118 
L 330.359008 195.915666 
L 331.698072 194.891518 
L 333.037135 193.902458 
L 334.376198 192.946449 
L 335.715262 192.021621 
L 337.054325 191.126251 
L 338.393388 190.258747 
L 339.732452 189.417639 
L 341.071515 188.601563 
L 342.410579 187.809254 
L 343.749642 187.039536 
L 345.088705 186.291314 
L 346.427769 185.563567 
L 347.766832 184.855343 
L 349.105895 184.16575 
L 350.444959 183.493953 
L 351.784022 182.839171 
L 353.123085 182.200669 
L 354.462149 181.577758 
L 355.801212 180.969788 
L 357.140275 180.376149 
L 358.479339 179.796263 
L 359.818402 179.229589 
L 361.157466 178.675611 
L 362.496529 178.133845 
L 363.835592 177.603829 
L 365.174656 177.085131 
L 366.513719 176.577335 
L 367.852782 176.080051 
L 369.191846 175.592907 
L 370.530909 175.115549 
L 371.869972 174.647642 
L 373.209036 174.188864 
L 374.548099 173.738912 
L 375.887163 173.297494 
L 377.226226 172.864334 
L 378.565289 172.439168 
L 379.904353 172.021742 
L 381.243416 171.611816 
L 382.582479 171.209159 
L 383.921543 170.813549 
L 385.260606 170.424776 
L 386.599669 170.042637 
L 387.938733 169.666938 
L 389.277796 169.297493 
L 390.61686 168.934124 
L 391.955923 168.576659 
L 393.294986 168.224934 
L 394.63405 167.878791 
L 395.973113 167.538077 
L 397.312176 167.202647 
L 398.65124 166.87236 
L 399.990303 166.547081 
L 401.329366 166.22668 
L 402.66843 165.91103 
L 404.007493 165.600011 
L 405.346556 165.293506 
L 406.68562 164.991404 
L 408.024683 164.693594 
L 409.363747 164.399973 
L 410.70281 164.110439 
L 412.041873 163.824895 
L 413.380937 163.543246 
L 414.72 163.265401 
" clip-path="url(#p6feff60502)" style="fill: none; stroke: #7f7f7f; stroke-width: 1.5; stroke-linecap: square"/>
   </g>
   <g id="line2d_29">
    <path d="M 282.152727 165.830228 
L 283.491791 151.522703 
L 284.830854 142.931952 
L 286.169917 137.042498 
L 287.508981 132.68076 
L 288.848044 129.282167 
L 290.187107 126.536961 
L 291.526171 124.25911 
L 292.865234 122.329232 
L 294.204298 120.666724 
L 295.543361 119.214932 
L 296.882424 117.932714 
L 298.221488 116.789367 
L 299.560551 115.761457 
L 300.899614 114.830739 
L 302.238678 113.98277 
L 303.577741 113.205945 
L 304.916804 112.490821 
L 306.255868 111.829621 
L 307.594931 111.215877 
L 308.933994 110.644157 
L 310.273058 110.109865 
L 311.612121 109.609078 
L 312.951185 109.138425 
L 314.290248 108.694994 
L 315.629311 108.276253 
L 316.968375 107.879986 
L 318.307438 107.504248 
L 319.646501 107.14732 
L 320.985565 106.807681 
L 322.324628 106.483975 
L 323.663691 106.174991 
L 325.002755 105.879643 
L 326.341818 105.596955 
L 327.680882 105.326044 
L 329.019945 105.066113 
L 330.359008 104.816439 
L 331.698072 104.576362 
L 333.037135 104.345281 
L 334.376198 104.122647 
L 335.715262 103.907955 
L 337.054325 103.700745 
L 338.393388 103.500589 
L 339.732452 103.307096 
L 341.071515 103.119903 
L 342.410579 102.938674 
L 343.749642 102.763099 
L 345.088705 102.592888 
L 346.427769 102.427774 
L 347.766832 102.267507 
L 349.105895 102.111852 
L 350.444959 101.960593 
L 351.784022 101.813527 
L 353.123085 101.670461 
L 354.462149 101.531219 
L 355.801212 101.395631 
L 357.140275 101.263541 
L 358.479339 101.1348 
L 359.818402 101.009269 
L 361.157466 100.886816 
L 362.496529 100.767317 
L 363.835592 100.650654 
L 365.174656 100.536718 
L 366.513719 100.425404 
L 367.852782 100.316611 
L 369.191846 100.210246 
L 370.530909 100.106221 
L 371.869972 100.004449 
L 373.209036 99.90485 
L 374.548099 99.807349 
L 375.887163 99.711873 
L 377.226226 99.618351 
L 378.565289 99.526719 
L 379.904353 99.436912 
L 381.243416 99.348872 
L 382.582479 99.262541 
L 383.921543 99.177864 
L 385.260606 99.094788 
L 386.599669 99.013265 
L 387.938733 98.933245 
L 389.277796 98.854684 
L 390.61686 98.777537 
L 391.955923 98.701763 
L 393.294986 98.62732 
L 394.63405 98.554171 
L 395.973113 98.482278 
L 397.312176 98.411605 
L 398.65124 98.342119 
L 399.990303 98.273786 
L 401.329366 98.206575 
L 402.66843 98.140455 
L 404.007493 98.075397 
L 405.346556 98.011373 
L 406.68562 97.948356 
L 408.024683 97.886319 
L 409.363747 97.825238 
L 410.70281 97.765087 
L 412.041873 97.705844 
L 413.380937 97.647486 
L 414.72 97.58999 
" clip-path="url(#p6feff60502)" style="fill: none; stroke: #bcbd22; stroke-width: 1.5; stroke-linecap: square"/>
   </g>
   <g id="line2d_30">
    <path d="M 282.152727 245.836455 
L 283.491791 217.221407 
L 284.830854 200.039905 
L 286.169917 188.260996 
L 287.508981 179.537519 
L 288.848044 172.740334 
L 290.187107 167.249922 
L 291.526171 162.69422 
L 292.865234 158.834463 
L 294.204298 155.509447 
L 295.543361 152.605865 
L 296.882424 150.041427 
L 298.221488 147.754735 
L 299.560551 145.698914 
L 300.899614 143.837478 
L 302.238678 142.141539 
L 303.577741 140.58789 
L 304.916804 139.157642 
L 306.255868 137.835242 
L 307.594931 136.607753 
L 308.933994 135.464315 
L 310.273058 134.39573 
L 311.612121 133.394155 
L 312.951185 132.45285 
L 314.290248 131.565989 
L 315.629311 130.728506 
L 316.968375 129.935972 
L 318.307438 129.184495 
L 319.646501 128.47064 
L 320.985565 127.791363 
L 322.324628 127.14395 
L 323.663691 126.525982 
L 325.002755 125.935286 
L 326.341818 125.369909 
L 327.680882 124.828088 
L 329.019945 124.308227 
L 330.359008 123.808878 
L 331.698072 123.328724 
L 333.037135 122.866562 
L 334.376198 122.421293 
L 335.715262 121.991911 
L 337.054325 121.57749 
L 338.393388 121.177178 
L 339.732452 120.790192 
L 341.071515 120.415805 
L 342.410579 120.053348 
L 343.749642 119.702197 
L 345.088705 119.361776 
L 346.427769 119.031548 
L 347.766832 118.711013 
L 349.105895 118.399704 
L 350.444959 118.097187 
L 351.784022 117.803053 
L 353.123085 117.516923 
L 354.462149 117.238437 
L 355.801212 116.967262 
L 357.140275 116.703081 
L 358.479339 116.4456 
L 359.818402 116.194537 
L 361.157466 115.949631 
L 362.496529 115.710633 
L 363.835592 115.477309 
L 365.174656 115.249437 
L 366.513719 115.026808 
L 367.852782 114.809222 
L 369.191846 114.596493 
L 370.530909 114.388441 
L 371.869972 114.184897 
L 373.209036 113.985701 
L 374.548099 113.790699 
L 375.887163 113.599745 
L 377.226226 113.412702 
L 378.565289 113.229437 
L 379.904353 113.049824 
L 381.243416 112.873744 
L 382.582479 112.701081 
L 383.921543 112.531727 
L 385.260606 112.365576 
L 386.599669 112.20253 
L 387.938733 112.042491 
L 389.277796 111.885368 
L 390.61686 111.731074 
L 391.955923 111.579525 
L 393.294986 111.43064 
L 394.63405 111.284341 
L 395.973113 111.140555 
L 397.312176 110.99921 
L 398.65124 110.860237 
L 399.990303 110.723572 
L 401.329366 110.589149 
L 402.66843 110.45691 
L 404.007493 110.326794 
L 405.346556 110.198747 
L 406.68562 110.072712 
L 408.024683 109.948639 
L 409.363747 109.826476 
L 410.70281 109.706175 
L 412.041873 109.587688 
L 413.380937 109.470972 
L 414.72 109.355981 
" clip-path="url(#p6feff60502)" style="fill: none; stroke: #17becf; stroke-width: 1.5; stroke-linecap: square"/>
   </g>
   <g id="line2d_31">
    <path d="M 282.152727 325.842683 
L 283.491791 282.92011 
L 284.830854 257.147857 
L 286.169917 239.479493 
L 287.508981 226.394279 
L 288.848044 216.1985 
L 290.187107 207.962883 
L 291.526171 201.12933 
L 292.865234 195.339695 
L 294.204298 190.352171 
L 295.543361 185.996797 
L 296.882424 182.150141 
L 298.221488 178.720102 
L 299.560551 175.636372 
L 300.899614 172.844217 
L 302.238678 170.300309 
L 303.577741 167.969835 
L 304.916804 165.824462 
L 306.255868 163.840862 
L 307.594931 161.99963 
L 308.933994 160.284472 
L 310.273058 158.681596 
L 311.612121 157.179233 
L 312.951185 155.767275 
L 314.290248 154.436983 
L 315.629311 153.180759 
L 316.968375 151.991958 
L 318.307438 150.864743 
L 319.646501 149.793961 
L 320.985565 148.775044 
L 322.324628 147.803926 
L 323.663691 146.876973 
L 325.002755 145.99093 
L 326.341818 145.142864 
L 327.680882 144.330132 
L 329.019945 143.55034 
L 330.359008 142.801317 
L 331.698072 142.081085 
L 333.037135 141.387843 
L 334.376198 140.71994 
L 335.715262 140.075866 
L 337.054325 139.454235 
L 338.393388 138.853767 
L 339.732452 138.273288 
L 341.071515 137.711708 
L 342.410579 137.168021 
L 343.749642 136.641296 
L 345.088705 136.130664 
L 346.427769 135.635322 
L 347.766832 135.15452 
L 349.105895 134.687557 
L 350.444959 134.23378 
L 351.784022 133.79258 
L 353.123085 133.363384 
L 354.462149 132.945656 
L 355.801212 132.538893 
L 357.140275 132.142622 
L 358.479339 131.756399 
L 359.818402 131.379806 
L 361.157466 131.012447 
L 362.496529 130.65395 
L 363.835592 130.303963 
L 365.174656 129.962155 
L 366.513719 129.628211 
L 367.852782 129.301833 
L 369.191846 128.982739 
L 370.530909 128.670662 
L 371.869972 128.365346 
L 373.209036 128.066551 
L 374.548099 127.774048 
L 375.887163 127.487618 
L 377.226226 127.207053 
L 378.565289 126.932156 
L 379.904353 126.662737 
L 381.243416 126.398616 
L 382.582479 126.139622 
L 383.921543 125.885591 
L 385.260606 125.636365 
L 386.599669 125.391794 
L 387.938733 125.151736 
L 389.277796 124.916052 
L 390.61686 124.684612 
L 391.955923 124.457288 
L 393.294986 124.23396 
L 394.63405 124.014512 
L 395.973113 123.798833 
L 397.312176 123.586815 
L 398.65124 123.378356 
L 399.990303 123.173358 
L 401.329366 122.971724 
L 402.66843 122.773365 
L 404.007493 122.578192 
L 405.346556 122.38612 
L 406.68562 122.197068 
L 408.024683 122.010958 
L 409.363747 121.827713 
L 410.70281 121.647262 
L 412.041873 121.469532 
L 413.380937 121.294457 
L 414.72 121.121971 
" clip-path="url(#p6feff60502)" style="fill: none; stroke: #1f77b4; stroke-width: 1.5; stroke-linecap: square"/>
   </g>
   <g id="line2d_32">
    <path d="M 283.57046 346.6 
L 284.830854 314.255809 
L 286.169917 290.697991 
L 287.508981 273.251038 
L 288.848044 259.656667 
L 290.187107 248.675844 
L 291.526171 239.56444 
L 292.865234 231.844926 
L 294.204298 225.194895 
L 295.543361 219.387729 
L 296.882424 214.258854 
L 298.221488 209.68547 
L 299.560551 205.573829 
L 300.899614 201.850956 
L 302.238678 198.459078 
L 303.577741 195.35178 
L 304.916804 192.491283 
L 306.255868 189.846483 
L 307.594931 187.391506 
L 308.933994 185.10463 
L 310.273058 182.967461 
L 311.612121 180.96431 
L 312.951185 179.0817 
L 314.290248 177.307978 
L 315.629311 175.633012 
L 316.968375 174.047944 
L 318.307438 172.54499 
L 319.646501 171.117281 
L 320.985565 169.758725 
L 322.324628 168.463901 
L 323.663691 167.227965 
L 325.002755 166.046573 
L 326.341818 164.915819 
L 327.680882 163.832176 
L 329.019945 162.792454 
L 330.359008 161.793756 
L 331.698072 160.833447 
L 333.037135 159.909124 
L 334.376198 159.018587 
L 335.715262 158.159822 
L 337.054325 157.330979 
L 338.393388 156.530357 
L 339.732452 155.756384 
L 341.071515 155.00761 
L 342.410579 154.282695 
L 343.749642 153.580394 
L 345.088705 152.899553 
L 346.427769 152.239096 
L 347.766832 151.598026 
L 349.105895 150.975409 
L 350.444959 150.370374 
L 351.784022 149.782107 
L 353.123085 149.209845 
L 354.462149 148.652874 
L 355.801212 148.110524 
L 357.140275 147.582163 
L 358.479339 147.067199 
L 359.818402 146.565074 
L 361.157466 146.075262 
L 362.496529 145.597266 
L 363.835592 145.130618 
L 365.174656 144.674874 
L 366.513719 144.229615 
L 367.852782 143.794445 
L 369.191846 143.368986 
L 370.530909 142.952882 
L 371.869972 142.545795 
L 373.209036 142.147402 
L 374.548099 141.757398 
L 375.887163 141.375491 
L 377.226226 141.001404 
L 378.565289 140.634874 
L 379.904353 140.275649 
L 381.243416 139.923488 
L 382.582479 139.578163 
L 383.921543 139.239454 
L 385.260606 138.907153 
L 386.599669 138.581059 
L 387.938733 138.260981 
L 389.277796 137.946736 
L 390.61686 137.638149 
L 391.955923 137.33505 
L 393.294986 137.03728 
L 394.63405 136.744683 
L 395.973113 136.45711 
L 397.312176 136.17442 
L 398.65124 135.896475 
L 399.990303 135.623143 
L 401.329366 135.354299 
L 402.66843 135.08982 
L 404.007493 134.829589 
L 405.346556 134.573493 
L 406.68562 134.321424 
L 408.024683 134.073277 
L 409.363747 133.828951 
L 410.70281 133.588349 
L 412.041873 133.351377 
L 413.380937 133.117943 
L 414.72 132.887962 
" clip-path="url(#p6feff60502)" style="fill: none; stroke: #ff7f0e; stroke-width: 1.5; stroke-linecap: square"/>
   </g>
   <g id="line2d_33">
    <path d="M 282.152727 165.549053 
L 283.491791 147.459914 
L 284.830854 137.150654 
L 286.169917 130.348892 
L 287.508981 125.462321 
L 288.848044 121.749592 
L 290.187107 118.814592 
L 291.526171 116.424681 
L 292.865234 114.433429 
L 294.204298 112.743645 
L 295.543361 111.288054 
L 296.882424 110.01847 
L 298.221488 108.899389 
L 299.560551 107.904024 
L 300.899614 107.011746 
L 302.238678 106.206388 
L 303.577741 105.475083 
L 304.916804 104.807451 
L 306.255868 104.195016 
L 307.594931 103.630785 
L 308.933994 103.10893 
L 310.273058 102.624551 
L 311.612121 102.173497 
L 312.951185 101.752227 
L 314.290248 101.357697 
L 315.629311 100.987276 
L 316.968375 100.638677 
L 318.307438 100.309904 
L 319.646501 99.999201 
L 320.985565 99.705022 
L 322.324628 99.425996 
L 323.663691 99.160906 
L 325.002755 98.908663 
L 326.341818 98.668295 
L 327.680882 98.438926 
L 329.019945 98.219769 
L 330.359008 98.01011 
L 331.698072 97.809305 
L 333.037135 97.616766 
L 334.376198 97.431959 
L 335.715262 97.254396 
L 337.054325 97.083631 
L 338.393388 96.919254 
L 339.732452 96.760889 
L 341.071515 96.60819 
L 342.410579 96.460838 
L 343.749642 96.318538 
L 345.088705 96.181015 
L 346.427769 96.048018 
L 347.766832 95.919312 
L 349.105895 95.794677 
L 350.444959 95.673911 
L 351.784022 95.556823 
L 353.123085 95.443237 
L 354.462149 95.332987 
L 355.801212 95.225918 
L 357.140275 95.121885 
L 358.479339 95.020751 
L 359.818402 94.922389 
L 361.157466 94.826679 
L 362.496529 94.733507 
L 363.835592 94.642767 
L 365.174656 94.554358 
L 366.513719 94.468185 
L 367.852782 94.384158 
L 369.191846 94.302193 
L 370.530909 94.22221 
L 371.869972 94.144132 
L 373.209036 94.067888 
L 374.548099 93.993409 
L 375.887163 93.92063 
L 377.226226 93.849489 
L 378.565289 93.779929 
L 379.904353 93.711893 
L 381.243416 93.645328 
L 382.582479 93.580184 
L 383.921543 93.516413 
L 385.260606 93.453968 
L 386.599669 93.392806 
L 387.938733 93.332884 
L 389.277796 93.274164 
L 390.61686 93.216606 
L 391.955923 93.160173 
L 393.294986 93.104832 
L 394.63405 93.050548 
L 395.973113 92.997289 
L 397.312176 92.945025 
L 398.65124 92.893725 
L 399.990303 92.843362 
L 401.329366 92.793908 
L 402.66843 92.745337 
L 404.007493 92.697624 
L 405.346556 92.650745 
L 406.68562 92.604677 
L 408.024683 92.559397 
L 409.363747 92.514883 
L 410.70281 92.471116 
L 412.041873 92.428076 
L 413.380937 92.385742 
L 414.72 92.344096 
" clip-path="url(#p6feff60502)" style="fill: none; stroke: #2ca02c; stroke-width: 1.5; stroke-linecap: square"/>
   </g>
   <g id="line2d_34">
    <path d="M 282.152727 245.274105 
L 283.491791 209.095828 
L 284.830854 188.477308 
L 286.169917 174.873783 
L 287.508981 165.100642 
L 288.848044 157.675184 
L 290.187107 151.805184 
L 291.526171 147.025361 
L 292.865234 143.042857 
L 294.204298 139.66329 
L 295.543361 136.752108 
L 296.882424 134.212939 
L 298.221488 131.974778 
L 299.560551 129.984048 
L 300.899614 128.199492 
L 302.238678 126.588776 
L 303.577741 125.126166 
L 304.916804 123.790901 
L 306.255868 122.566032 
L 307.594931 121.43757 
L 308.933994 120.393859 
L 310.273058 119.425101 
L 311.612121 118.522994 
L 312.951185 117.680454 
L 314.290248 116.891393 
L 315.629311 116.150551 
L 316.968375 115.453355 
L 318.307438 114.795808 
L 319.646501 114.174402 
L 320.985565 113.586044 
L 322.324628 113.027993 
L 323.663691 112.497812 
L 325.002755 111.993327 
L 326.341818 111.51259 
L 327.680882 111.053853 
L 329.019945 110.615538 
L 330.359008 110.196221 
L 331.698072 109.79461 
L 333.037135 109.409532 
L 334.376198 109.039918 
L 335.715262 108.684792 
L 337.054325 108.343262 
L 338.393388 108.014508 
L 339.732452 107.697778 
L 341.071515 107.392381 
L 342.410579 107.097676 
L 343.749642 106.813075 
L 345.088705 106.538031 
L 346.427769 106.272037 
L 347.766832 106.014623 
L 349.105895 105.765354 
L 350.444959 105.523821 
L 351.784022 105.289646 
L 353.123085 105.062473 
L 354.462149 104.841973 
L 355.801212 104.627835 
L 357.140275 104.419769 
L 358.479339 104.217502 
L 359.818402 104.020779 
L 361.157466 103.829359 
L 362.496529 103.643015 
L 363.835592 103.461534 
L 365.174656 103.284716 
L 366.513719 103.11237 
L 367.852782 102.944317 
L 369.191846 102.780387 
L 370.530909 102.62042 
L 371.869972 102.464265 
L 373.209036 102.311776 
L 374.548099 102.162817 
L 375.887163 102.017259 
L 377.226226 101.874979 
L 378.565289 101.735858 
L 379.904353 101.599786 
L 381.243416 101.466657 
L 382.582479 101.336369 
L 383.921543 101.208826 
L 385.260606 101.083936 
L 386.599669 100.961612 
L 387.938733 100.841769 
L 389.277796 100.724327 
L 390.61686 100.609211 
L 391.955923 100.496347 
L 393.294986 100.385664 
L 394.63405 100.277096 
L 395.973113 100.170578 
L 397.312176 100.066049 
L 398.65124 99.96345 
L 399.990303 99.862723 
L 401.329366 99.763815 
L 402.66843 99.666674 
L 404.007493 99.571248 
L 405.346556 99.47749 
L 406.68562 99.385353 
L 408.024683 99.294793 
L 409.363747 99.205767 
L 410.70281 99.118233 
L 412.041873 99.032151 
L 413.380937 98.947483 
L 414.72 98.864193 
" clip-path="url(#p6feff60502)" style="fill: none; stroke: #d62728; stroke-width: 1.5; stroke-linecap: square"/>
   </g>
   <g id="line2d_35">
    <path d="M 282.152727 324.999158 
L 283.491791 270.731742 
L 284.830854 239.803962 
L 286.169917 219.398675 
L 287.508981 204.738962 
L 288.848044 193.600777 
L 290.187107 184.795775 
L 291.526171 177.626042 
L 292.865234 171.652286 
L 294.204298 166.582936 
L 295.543361 162.216163 
L 296.882424 158.407409 
L 298.221488 155.050166 
L 299.560551 152.064071 
L 300.899614 149.387238 
L 302.238678 146.971164 
L 303.577741 144.777249 
L 304.916804 142.774352 
L 306.255868 140.937048 
L 307.594931 139.244355 
L 308.933994 137.678789 
L 310.273058 136.225652 
L 311.612121 134.872492 
L 312.951185 133.608681 
L 314.290248 132.42509 
L 315.629311 131.313827 
L 316.968375 130.268032 
L 318.307438 129.281711 
L 319.646501 128.349603 
L 320.985565 127.467066 
L 322.324628 126.629989 
L 323.663691 125.834718 
L 325.002755 125.07799 
L 326.341818 124.356885 
L 327.680882 123.668779 
L 329.019945 123.011307 
L 330.359008 122.382331 
L 331.698072 121.779915 
L 333.037135 121.202298 
L 334.376198 120.647877 
L 335.715262 120.115188 
L 337.054325 119.602892 
L 338.393388 119.109762 
L 339.732452 118.634668 
L 341.071515 118.176571 
L 342.410579 117.734515 
L 343.749642 117.307613 
L 345.088705 116.895046 
L 346.427769 116.496055 
L 347.766832 116.109935 
L 349.105895 115.736031 
L 350.444959 115.373732 
L 351.784022 115.022468 
L 353.123085 114.68171 
L 354.462149 114.35096 
L 355.801212 114.029753 
L 357.140275 113.717654 
L 358.479339 113.414253 
L 359.818402 113.119168 
L 361.157466 112.832038 
L 362.496529 112.552522 
L 363.835592 112.280301 
L 365.174656 112.015074 
L 366.513719 111.756555 
L 367.852782 111.504475 
L 369.191846 111.25858 
L 370.530909 111.01863 
L 371.869972 110.784397 
L 373.209036 110.555664 
L 374.548099 110.332226 
L 375.887163 110.113889 
L 377.226226 109.900468 
L 378.565289 109.691787 
L 379.904353 109.487679 
L 381.243416 109.287985 
L 382.582479 109.092553 
L 383.921543 108.901239 
L 385.260606 108.713904 
L 386.599669 108.530417 
L 387.938733 108.350653 
L 389.277796 108.174491 
L 390.61686 108.001817 
L 391.955923 107.83252 
L 393.294986 107.666496 
L 394.63405 107.503644 
L 395.973113 107.343867 
L 397.312176 107.187074 
L 398.65124 107.033175 
L 399.990303 106.882085 
L 401.329366 106.733723 
L 402.66843 106.588011 
L 404.007493 106.444872 
L 405.346556 106.304235 
L 406.68562 106.16603 
L 408.024683 106.03019 
L 409.363747 105.89665 
L 410.70281 105.765349 
L 412.041873 105.636227 
L 413.380937 105.509225 
L 414.72 105.384289 
" clip-path="url(#p6feff60502)" style="fill: none; stroke: #9467bd; stroke-width: 1.5; stroke-linecap: square"/>
   </g>
   <g id="line2d_36">
    <path d="M 283.2284 346.6 
L 283.491791 332.367656 
L 284.830854 291.130616 
L 286.169917 263.923566 
L 287.508981 244.377283 
L 288.848044 229.526369 
L 290.187107 217.786367 
L 291.526171 208.226723 
L 292.865234 200.261714 
L 294.204298 193.502581 
L 295.543361 187.680217 
L 296.882424 182.601878 
L 298.221488 178.125555 
L 299.560551 174.144095 
L 300.899614 170.574984 
L 302.238678 167.353552 
L 303.577741 164.428332 
L 304.916804 161.757802 
L 306.255868 159.308064 
L 307.594931 157.05114 
L 308.933994 154.963718 
L 310.273058 153.026202 
L 311.612121 151.221989 
L 312.951185 149.536908 
L 314.290248 147.958787 
L 315.629311 146.477102 
L 316.968375 145.082709 
L 318.307438 143.767615 
L 319.646501 142.524804 
L 320.985565 141.348088 
L 322.324628 140.231986 
L 323.663691 139.171624 
L 325.002755 138.162654 
L 326.341818 137.201181 
L 327.680882 136.283706 
L 329.019945 135.407076 
L 330.359008 134.568442 
L 331.698072 133.76522 
L 333.037135 132.995064 
L 334.376198 132.255836 
L 335.715262 131.545584 
L 337.054325 130.862523 
L 338.393388 130.205016 
L 339.732452 129.571557 
L 341.071515 128.960762 
L 342.410579 128.371353 
L 343.749642 127.80215 
L 345.088705 127.252061 
L 346.427769 126.720073 
L 347.766832 126.205247 
L 349.105895 125.706708 
L 350.444959 125.223642 
L 351.784022 124.755291 
L 353.123085 124.300947 
L 354.462149 123.859946 
L 355.801212 123.43167 
L 357.140275 123.015538 
L 358.479339 122.611004 
L 359.818402 122.217558 
L 361.157466 121.834717 
L 362.496529 121.462029 
L 363.835592 121.099068 
L 365.174656 120.745432 
L 366.513719 120.400739 
L 367.852782 120.064633 
L 369.191846 119.736774 
L 370.530909 119.416841 
L 371.869972 119.104529 
L 373.209036 118.799552 
L 374.548099 118.501635 
L 375.887163 118.210519 
L 377.226226 117.925957 
L 378.565289 117.647716 
L 379.904353 117.375572 
L 381.243416 117.109314 
L 382.582479 116.848738 
L 383.921543 116.593652 
L 385.260606 116.343872 
L 386.599669 116.099223 
L 387.938733 115.859537 
L 389.277796 115.624655 
L 390.61686 115.394422 
L 391.955923 115.168693 
L 393.294986 114.947328 
L 394.63405 114.730192 
L 395.973113 114.517156 
L 397.312176 114.308098 
L 398.65124 114.1029 
L 399.990303 113.901447 
L 401.329366 113.703631 
L 402.66843 113.509348 
L 404.007493 113.318496 
L 405.346556 113.13098 
L 406.68562 112.946707 
L 408.024683 112.765587 
L 409.363747 112.587534 
L 410.70281 112.412466 
L 412.041873 112.240302 
L 413.380937 112.070967 
L 414.72 111.904385 
" clip-path="url(#p6feff60502)" style="fill: none; stroke: #8c564b; stroke-width: 1.5; stroke-linecap: square"/>
   </g>
   <g id="patch_8">
    <path d="M 252.392727 307.584 
L 252.392727 41.472 
" style="fill: none; stroke: #000000; stroke-width: 0.8; stroke-linejoin: miter; stroke-linecap: square"/>
   </g>
   <g id="patch_9">
    <path d="M 414.72 307.584 
L 414.72 41.472 
" style="fill: none; stroke: #000000; stroke-width: 0.8; stroke-linejoin: miter; stroke-linecap: square"/>
   </g>
   <g id="patch_10">
    <path d="M 252.392727 307.584 
L 414.72 307.584 
" style="fill: none; stroke: #000000; stroke-width: 0.8; stroke-linejoin: miter; stroke-linecap: square"/>
   </g>
   <g id="patch_11">
    <path d="M 252.392727 41.472 
L 414.72 41.472 
" style="fill: none; stroke: #000000; stroke-width: 0.8; stroke-linejoin: miter; stroke-linecap: square"/>
   </g>
  </g>
  <g id="text_21">
   <!-- t = 0.5 -->
   <g transform="translate(209.664375 16.030125) scale(0.12 -0.12)">
    <defs>
     <path id="DejaVuSans-74" d="M 1172 4494 
L 1172 3500 
L 2356 3500 
L 2356 3053 
L 1172 3053 
L 1172 1153 
Q 1172 725 1289 603 
Q 1406 481 1766 481 
L 2356 481 
L 2356 0 
L 1766 0 
Q 1100 0 847 248 
Q 594 497 594 1153 
L 594 3053 
L 172 3053 
L 172 3500 
L 594 3500 
L 594 4494 
L 1172 4494 
z
" transform="scale(0.015625)"/>
     <path id="DejaVuSans-20" transform="scale(0.015625)"/>
     <path id="DejaVuSans-3d" d="M 678 2906 
L 4684 2906 
L 4684 2381 
L 678 2381 
L 678 2906 
z
M 678 1631 
L 4684 1631 
L 4684 1100 
L 678 1100 
L 678 1631 
z
" transform="scale(0.015625)"/>
    </defs>
    <use xlink:href="#DejaVuSans-74"/>
    <use xlink:href="#DejaVuSans-20" x="39.208984"/>
    <use xlink:href="#DejaVuSans-3d" x="70.996094"/>
    <use xlink:href="#DejaVuSans-20" x="154.785156"/>
    <use xlink:href="#DejaVuSans-30" x="186.572266"/>
    <use xlink:href="#DejaVuSans-2e" x="250.195312"/>
    <use xlink:href="#DejaVuSans-35" x="281.982422"/>
   </g>
  </g>
 </g>
 <defs>
  <clipPath id="p36856af771">
   <rect x="57.6" y="41.472" width="162.327273" height="266.112"/>
  </clipPath>
  <clipPath id="p6feff60502">
   <rect x="252.392727" y="41.472" width="162.327273" height="266.112"/>
  </clipPath>
 </defs>
</svg>
