<?xml version="1.0" encoding="utf-8" standalone="no"?>
<!DOCTYPE svg PUBLIC "-//W3C//DTD SVG 1.1//EN"
  "http://www.w3.org/Graphics/SVG/1.1/DTD/svg11.dtd">
<svg xmlns:xlink="http://www.w3.org/1999/xlink" width="460.8pt" height="345.6pt" viewBox="0 0 460.8 345.6" xmlns="http://www.w3.org/2000/svg" version="1.1">
 <metadata>
  <rdf:RDF xmlns:dc="http://purl.org/dc/elements/1.1/" xmlns:cc="http://creativecommons.org/ns#" xmlns:rdf="http://www.w3.org/1999/02/22-rdf-syntax-ns#">
   <cc:Work>
    <dc:type rdf:resource="http://purl.org/dc/dcmitype/StillImage"/>
    <dc:date>2023-01-17T14:53:44.260052</dc:date>
    <dc:format>image/svg+xml</dc:format>
    <dc:creator>
     <cc:Agent>
      <dc:title>Matplotlib v3.6.3, https://matplotlib.org/</dc:title>
     </cc:Agent>
    </dc:creator>
   </cc:Work>
  </rdf:RDF>
 </metadata>
 <defs>
  <style type="text/css">*{stroke-linejoin: round; stroke-linecap: butt}</style>
 </defs>
 <g id="figure_1">
  <g id="patch_1">
   <path d="M 0 345.6 
L 460.8 345.6 
L 460.8 0 
L 0 0 
z
" style="fill: #ffffff"/>
  </g>
  <g id="axes_1">
   <g id="patch_2">
    <path d="M 57.6 307.584 
L 219.927273 307.584 
L 219.927273 41.472 
L 57.6 41.472 
z
" style="fill: #ffffff"/>
   </g>
   <g id="Quiver_1">
    <path d="M 65.257164 295.143985 
L 72.926595 301.356224 
L 73.139884 300.389543 
L 75.744074 304.208105 
L 71.467973 302.453631 
L 72.369291 302.044253 
L 64.699861 295.832015 
L 65.257164 295.143985 
" clip-path="url(#p93d9fe0a89)"/>
    <path d="M 80.050519 295.176907 
L 85.863128 301.062173 
L 86.181998 300.125004 
L 88.347986 304.208105 
L 84.292106 301.991564 
L 85.233164 301.684359 
L 79.420555 295.799093 
L 80.050519 295.176907 
" clip-path="url(#p93d9fe0a89)"/>
    <path d="M 94.848305 295.224486 
L 98.936019 300.7429 
L 99.383993 299.86013 
L 100.951899 304.208105 
L 97.249532 301.441212 
L 98.224533 301.269928 
L 94.136819 295.751514 
L 94.848305 295.224486 
" clip-path="url(#p93d9fe0a89)"/>
    <path d="M 109.646535 295.291976 
L 112.188547 300.439551 
L 112.786419 299.650556 
L 113.555811 304.208105 
L 110.404732 300.826698 
L 111.394651 300.831598 
L 108.852639 295.684024 
L 109.646535 295.291976 
" clip-path="url(#p93d9fe0a89)"/>
    <path d="M 124.436414 295.381876 
L 125.634409 300.233755 
L 126.387891 299.591704 
L 126.159724 304.208105 
L 123.809074 300.228449 
L 124.774804 300.446003 
L 123.576809 295.594124 
L 124.436414 295.381876 
" clip-path="url(#p93d9fe0a89)"/>
    <path d="M 139.206347 295.488 
L 139.206347 300.223708 
L 140.091769 299.780997 
L 138.763636 304.208105 
L 137.435504 299.780997 
L 138.320926 300.223708 
L 138.320926 295.488 
L 139.206347 295.488 
" clip-path="url(#p93d9fe0a89)"/>
    <path d="M 153.950464 295.594124 
L 152.752469 300.446003 
L 153.718199 300.228449 
L 151.367549 304.208105 
L 151.139382 299.591704 
L 151.892863 300.233755 
L 153.090858 295.381876 
L 153.950464 295.594124 
" clip-path="url(#p93d9fe0a89)"/>
    <path d="M 168.674634 295.684024 
L 166.132622 300.831598 
L 167.122541 300.826698 
L 163.971461 304.208105 
L 164.740854 299.650556 
L 165.338726 300.439551 
L 167.880738 295.291976 
L 168.674634 295.684024 
" clip-path="url(#p93d9fe0a89)"/>
    <path d="M 183.390454 295.751514 
L 179.30274 301.269928 
L 180.27774 301.441212 
L 176.575374 304.208105 
L 178.14328 299.86013 
L 178.591253 300.7429 
L 182.678967 295.224486 
L 183.390454 295.751514 
" clip-path="url(#p93d9fe0a89)"/>
    <path d="M 198.106718 295.799093 
L 192.294109 301.684359 
L 193.235167 301.991564 
L 189.179286 304.208105 
L 191.345274 300.125004 
L 191.664145 301.062173 
L 197.476753 295.176907 
L 198.106718 295.799093 
" clip-path="url(#p93d9fe0a89)"/>
    <path d="M 212.827412 295.832015 
L 205.157982 302.044253 
L 206.0593 302.453631 
L 201.783199 304.208105 
L 204.387389 300.389543 
L 204.600678 301.356224 
L 212.270109 295.143985 
L 212.827412 295.832015 
" clip-path="url(#p93d9fe0a89)"/>
    <path d="M 65.219262 270.924473 
L 72.641079 275.73381 
L 72.751051 274.750006 
L 75.744074 278.272084 
L 71.306553 276.979169 
L 72.15958 276.476864 
L 64.737763 271.667527 
L 65.219262 270.924473 
" clip-path="url(#p93d9fe0a89)"/>
    <path d="M 80.014189 270.951985 
L 85.530507 275.420203 
L 85.743796 274.453522 
L 88.347986 278.272084 
L 84.071886 276.51761 
L 84.973204 276.108232 
L 79.456885 271.640015 
L 80.014189 270.951985 
" clip-path="url(#p93d9fe0a89)"/>
    <path d="M 94.817406 270.995219 
L 98.569711 275.047709 
L 98.918618 274.121303 
L 100.951899 278.272084 
L 96.969555 275.92599 
L 97.920024 275.649271 
L 94.167718 271.596781 
L 94.817406 270.995219 
" clip-path="url(#p93d9fe0a89)"/>
    <path d="M 109.626305 271.063458 
L 111.839649 274.649074 
L 112.360544 273.807271 
L 113.555811 278.272084 
L 110.100232 275.202525 
L 111.086212 275.114159 
L 108.872868 271.528542 
L 109.626305 271.063458 
" clip-path="url(#p93d9fe0a89)"/>
    <path d="M 124.429632 271.165438 
L 125.407687 274.334337 
L 126.123167 273.650192 
L 126.159724 278.272084 
L 123.585043 274.433564 
L 124.561646 274.595461 
L 123.583591 271.426562 
L 124.429632 271.165438 
" clip-path="url(#p93d9fe0a89)"/>
    <path d="M 139.206347 271.296 
L 139.206347 274.287687 
L 140.091769 273.844976 
L 138.763636 278.272084 
L 137.435504 273.844976 
L 138.320926 274.287687 
L 138.320926 271.296 
L 139.206347 271.296 
" clip-path="url(#p93d9fe0a89)"/>
    <path d="M 153.943682 271.426562 
L 152.965627 274.595461 
L 153.94223 274.433564 
L 151.367549 278.272084 
L 151.404106 273.650192 
L 152.119585 274.334337 
L 153.097641 271.165438 
L 153.943682 271.426562 
" clip-path="url(#p93d9fe0a89)"/>
    <path d="M 168.654405 271.528542 
L 166.441061 275.114159 
L 167.42704 275.202525 
L 163.971461 278.272084 
L 165.166729 273.807271 
L 165.687624 274.649074 
L 167.900967 271.063458 
L 168.654405 271.528542 
" clip-path="url(#p93d9fe0a89)"/>
    <path d="M 183.359554 271.596781 
L 179.607249 275.649271 
L 180.557717 275.92599 
L 176.575374 278.272084 
L 178.608655 274.121303 
L 178.957561 275.047709 
L 182.709867 270.995219 
L 183.359554 271.596781 
" clip-path="url(#p93d9fe0a89)"/>
    <path d="M 198.070387 271.640015 
L 192.554069 276.108232 
L 193.455387 276.51761 
L 189.179286 278.272084 
L 191.783476 274.453522 
L 191.996765 275.420203 
L 197.513084 270.951985 
L 198.070387 271.640015 
" clip-path="url(#p93d9fe0a89)"/>
    <path d="M 212.78951 271.667527 
L 205.367693 276.476864 
L 206.220719 276.979169 
L 201.783199 278.272084 
L 204.776222 274.750006 
L 204.886194 275.73381 
L 212.308011 270.924473 
L 212.78951 271.667527 
" clip-path="url(#p93d9fe0a89)"/>
    <path d="M 65.172027 246.705823 
L 72.353993 250.196259 
L 72.342844 249.20639 
L 75.744074 252.336063 
L 71.181759 251.595453 
L 71.966965 250.992613 
L 64.784998 247.502177 
L 65.172027 246.705823 
" clip-path="url(#p93d9fe0a89)"/>
    <path d="M 79.965393 246.725636 
L 85.172569 249.888996 
L 85.253917 248.902413 
L 88.347986 252.336063 
L 83.874782 251.172595 
L 84.712857 250.645723 
L 79.505681 247.482364 
L 79.965393 246.725636 
" clip-path="url(#p93d9fe0a89)"/>
    <path d="M 94.771214 246.759985 
L 98.13442 249.484182 
L 98.347709 248.517502 
L 100.951899 252.336063 
L 96.675798 250.581589 
L 97.577116 250.172211 
L 94.21391 247.448015 
L 94.771214 246.759985 
" clip-path="url(#p93d9fe0a89)"/>
    <path d="M 109.59141 246.822664 
L 111.365612 248.97832 
L 111.767922 248.073825 
L 113.555811 252.336063 
L 109.716984 249.76184 
L 110.681966 249.540992 
L 108.907764 247.385336 
L 109.59141 246.822664 
" clip-path="url(#p93d9fe0a89)"/>
    <path d="M 124.416011 246.935523 
L 125.052828 248.482987 
L 125.70315 247.736633 
L 126.159724 252.336063 
L 123.246752 248.747497 
L 124.234028 248.819942 
L 123.597212 247.272477 
L 124.416011 246.935523 
" clip-path="url(#p93d9fe0a89)"/>
    <path d="M 139.206347 247.104 
L 139.206347 248.351666 
L 140.091769 247.908955 
L 138.763636 252.336063 
L 137.435504 247.908955 
L 138.320926 248.351666 
L 138.320926 247.104 
L 139.206347 247.104 
" clip-path="url(#p93d9fe0a89)"/>
    <path d="M 153.930061 247.272477 
L 153.293244 248.819942 
L 154.280521 248.747497 
L 151.367549 252.336063 
L 151.824122 247.736633 
L 152.474445 248.482987 
L 153.111261 246.935523 
L 153.930061 247.272477 
" clip-path="url(#p93d9fe0a89)"/>
    <path d="M 168.619509 247.385336 
L 166.845307 249.540992 
L 167.810288 249.76184 
L 163.971461 252.336063 
L 165.75935 248.073825 
L 166.161661 248.97832 
L 167.935863 246.822664 
L 168.619509 247.385336 
" clip-path="url(#p93d9fe0a89)"/>
    <path d="M 183.313363 247.448015 
L 179.950156 250.172211 
L 180.851475 250.581589 
L 176.575374 252.336063 
L 179.179564 248.517502 
L 179.392853 249.484182 
L 182.756059 246.759985 
L 183.313363 247.448015 
" clip-path="url(#p93d9fe0a89)"/>
    <path d="M 198.021591 247.482364 
L 192.814415 250.645723 
L 193.652491 251.172595 
L 189.179286 252.336063 
L 192.273355 248.902413 
L 192.354703 249.888996 
L 197.56188 246.725636 
L 198.021591 247.482364 
" clip-path="url(#p93d9fe0a89)"/>
    <path d="M 212.742274 247.502177 
L 205.560308 250.992613 
L 206.345513 251.595453 
L 201.783199 252.336063 
L 205.184429 249.20639 
L 205.17328 250.196259 
L 212.355246 246.705823 
L 212.742274 247.502177 
" clip-path="url(#p93d9fe0a89)"/>
    <path d="M 65.114967 222.490843 
L 72.090119 224.750793 
L 71.941872 223.772025 
L 75.744074 226.400042 
L 71.123143 226.298964 
L 71.817209 225.593106 
L 64.842058 223.333157 
L 65.114967 222.490843 
" clip-path="url(#p93d9fe0a89)"/>
    <path d="M 79.901723 222.501665 
L 84.821154 224.494034 
L 84.74319 223.507178 
L 88.347986 226.400042 
L 83.746076 225.96919 
L 84.488783 225.314705 
L 79.569351 223.322335 
L 79.901723 222.501665 
" clip-path="url(#p93d9fe0a89)"/>
    <path d="M 94.702916 222.522456 
L 97.65636 224.117317 
L 97.687524 223.127876 
L 100.951899 226.400042 
L 96.425402 225.465137 
L 97.235653 224.896404 
L 94.282208 223.301544 
L 94.702916 222.522456 
" clip-path="url(#p93d9fe0a89)"/>
    <path d="M 109.528239 222.567985 
L 110.738332 223.548161 
L 110.951621 222.581481 
L 113.555811 226.400042 
L 109.279711 224.645568 
L 110.181029 224.23619 
L 108.970935 223.256015 
L 109.528239 222.567985 
" clip-path="url(#p93d9fe0a89)"/>
    <path d="M 124.355416 222.696689 
L 124.570727 223.045493 
L 125.053024 222.266066 
L 126.159724 226.400042 
L 122.960199 223.557934 
L 123.873119 223.476115 
L 123.657807 223.127311 
L 124.355416 222.696689 
" clip-path="url(#p93d9fe0a89)"/>
    <path d="M 139.112441 222.912 
L 139.112441 223.260804 
L 139.810049 222.912 
L 138.763636 226.400042 
L 137.717224 222.912 
L 138.414832 223.260804 
L 138.414832 222.912 
L 139.112441 222.912 
" clip-path="url(#p93d9fe0a89)"/>
    <path d="M 153.869465 223.127311 
L 153.654154 223.476115 
L 154.567074 223.557934 
L 151.367549 226.400042 
L 152.474249 222.266066 
L 152.956546 223.045493 
L 153.171857 222.696689 
L 153.869465 223.127311 
" clip-path="url(#p93d9fe0a89)"/>
    <path d="M 168.556338 223.256015 
L 167.346244 224.23619 
L 168.247562 224.645568 
L 163.971461 226.400042 
L 166.575651 222.581481 
L 166.78894 223.548161 
L 167.999034 222.567985 
L 168.556338 223.256015 
" clip-path="url(#p93d9fe0a89)"/>
    <path d="M 183.245064 223.301544 
L 180.29162 224.896404 
L 181.10187 225.465137 
L 176.575374 226.400042 
L 179.839749 223.127876 
L 179.870913 224.117317 
L 182.824357 222.522456 
L 183.245064 223.301544 
" clip-path="url(#p93d9fe0a89)"/>
    <path d="M 197.957921 223.322335 
L 193.03849 225.314705 
L 193.781197 225.96919 
L 189.179286 226.400042 
L 192.784082 223.507178 
L 192.706119 224.494034 
L 197.62555 222.501665 
L 197.957921 223.322335 
" clip-path="url(#p93d9fe0a89)"/>
    <path d="M 212.685215 223.333157 
L 205.710063 225.593106 
L 206.40413 226.298964 
L 201.783199 226.400042 
L 205.585401 223.772025 
L 205.437154 224.750793 
L 212.412306 222.490843 
L 212.685215 223.333157 
" clip-path="url(#p93d9fe0a89)"/>
    <path d="M 65.049309 198.282987 
L 71.881749 199.389842 
L 71.586328 198.445019 
L 75.744074 200.464021 
L 71.161551 201.067099 
L 71.740157 200.263869 
L 64.907716 199.157013 
L 65.049309 198.282987 
" clip-path="url(#p93d9fe0a89)"/>
    <path d="M 79.823403 198.286096 
L 84.530718 199.239328 
L 84.272545 198.283655 
L 88.347986 200.464021 
L 83.745352 200.887077 
L 84.354987 200.107135 
L 79.647672 199.153904 
L 79.823403 198.286096 
" clip-path="url(#p93d9fe0a89)"/>
    <path d="M 94.607962 198.292594 
L 97.220646 198.998019 
L 97.024039 198.027808 
L 100.951899 200.464021 
L 96.331642 200.592243 
L 96.989847 199.852831 
L 94.377162 199.147406 
L 94.607962 198.292594 
" clip-path="url(#p93d9fe0a89)"/>
    <path d="M 109.415773 198.309665 
L 110.028979 198.558013 
L 109.951015 197.571157 
L 113.555811 200.464021 
L 108.953901 200.033169 
L 109.696608 199.378684 
L 109.083401 199.130335 
L 109.415773 198.309665 
" clip-path="url(#p93d9fe0a89)"/>
    <path d="M 124.181014 198.504689 
L 124.396325 198.679091 
L 124.529818 198.074066 
L 126.159724 200.464021 
L 123.483405 199.365934 
L 124.047521 199.109713 
L 123.832209 198.935311 
L 124.181014 198.504689 
" clip-path="url(#p93d9fe0a89)"/>
    <path d="M 138.938038 198.72 
L 138.938038 198.894402 
L 139.286843 198.72 
L 138.763636 200.464021 
L 138.24043 198.72 
L 138.589234 198.894402 
L 138.589234 198.72 
L 138.938038 198.72 
" clip-path="url(#p93d9fe0a89)"/>
    <path d="M 153.695063 198.935311 
L 153.479752 199.109713 
L 154.043867 199.365934 
L 151.367549 200.464021 
L 152.997455 198.074066 
L 153.130948 198.679091 
L 153.346259 198.504689 
L 153.695063 198.935311 
" clip-path="url(#p93d9fe0a89)"/>
    <path d="M 168.443872 199.130335 
L 167.830665 199.378684 
L 168.573372 200.033169 
L 163.971461 200.464021 
L 167.576257 197.571157 
L 167.498294 198.558013 
L 168.1115 198.309665 
L 168.443872 199.130335 
" clip-path="url(#p93d9fe0a89)"/>
    <path d="M 183.15011 199.147406 
L 180.537426 199.852831 
L 181.195631 200.592243 
L 176.575374 200.464021 
L 180.503234 198.027808 
L 180.306627 198.998019 
L 182.919311 198.292594 
L 183.15011 199.147406 
" clip-path="url(#p93d9fe0a89)"/>
    <path d="M 197.879601 199.153904 
L 193.172286 200.107135 
L 193.78192 200.887077 
L 189.179286 200.464021 
L 193.254727 198.283655 
L 192.996555 199.239328 
L 197.70387 198.286096 
L 197.879601 199.153904 
" clip-path="url(#p93d9fe0a89)"/>
    <path d="M 212.619557 199.157013 
L 205.787116 200.263869 
L 206.365721 201.067099 
L 201.783199 200.464021 
L 205.940944 198.445019 
L 205.645523 199.389842 
L 212.477964 198.282987 
L 212.619557 199.157013 
" clip-path="url(#p93d9fe0a89)"/>
    <path d="M 64.978512 174.085289 
L 71.759677 174.085289 
L 71.316966 173.199868 
L 75.744074 174.528 
L 71.316966 175.856132 
L 71.759677 174.970711 
L 64.978512 174.970711 
L 64.978512 174.085289 
" clip-path="url(#p93d9fe0a89)"/>
    <path d="M 79.735537 174.085289 
L 84.36359 174.085289 
L 83.920879 173.199868 
L 88.347986 174.528 
L 83.920879 175.856132 
L 84.36359 174.970711 
L 79.735537 174.970711 
L 79.735537 174.085289 
" clip-path="url(#p93d9fe0a89)"/>
    <path d="M 94.492562 174.085289 
L 96.967502 174.085289 
L 96.524791 173.199868 
L 100.951899 174.528 
L 96.524791 175.856132 
L 96.967502 174.970711 
L 94.492562 174.970711 
L 94.492562 174.085289 
" clip-path="url(#p93d9fe0a89)"/>
    <path d="M 109.249587 174.097378 
L 109.680209 174.097378 
L 109.249587 173.236133 
L 113.555811 174.528 
L 109.249587 175.819867 
L 109.680209 174.958622 
L 109.249587 174.958622 
L 109.249587 174.097378 
" clip-path="url(#p93d9fe0a89)"/>
    <path d="M 124.006612 174.312689 
L 124.221923 174.312689 
L 124.006612 173.882066 
L 126.159724 174.528 
L 124.006612 175.173934 
L 124.221923 174.743311 
L 124.006612 174.743311 
L 124.006612 174.312689 
" clip-path="url(#p93d9fe0a89)"/>
    <path d="M 139.206347 174.528 
L 138.984992 174.144601 
L 138.542281 174.144601 
L 138.320926 174.528 
L 138.542281 174.911399 
L 138.984992 174.911399 
L 139.206347 174.528 
L 138.984992 174.144601 
" clip-path="url(#p93d9fe0a89)"/>
    <path d="M 153.520661 174.743311 
L 153.30535 174.743311 
L 153.520661 175.173934 
L 151.367549 174.528 
L 153.520661 173.882066 
L 153.30535 174.312689 
L 153.520661 174.312689 
L 153.520661 174.743311 
" clip-path="url(#p93d9fe0a89)"/>
    <path d="M 168.277686 174.958622 
L 167.847063 174.958622 
L 168.277686 175.819867 
L 163.971461 174.528 
L 168.277686 173.236133 
L 167.847063 174.097378 
L 168.277686 174.097378 
L 168.277686 174.958622 
" clip-path="url(#p93d9fe0a89)"/>
    <path d="M 183.034711 174.970711 
L 180.559771 174.970711 
L 181.002481 175.856132 
L 176.575374 174.528 
L 181.002481 173.199868 
L 180.559771 174.085289 
L 183.034711 174.085289 
L 183.034711 174.970711 
" clip-path="url(#p93d9fe0a89)"/>
    <path d="M 197.791736 174.970711 
L 193.163683 174.970711 
L 193.606394 175.856132 
L 189.179286 174.528 
L 193.606394 173.199868 
L 193.163683 174.085289 
L 197.791736 174.085289 
L 197.791736 174.970711 
" clip-path="url(#p93d9fe0a89)"/>
    <path d="M 212.54876 174.970711 
L 205.767596 174.970711 
L 206.210306 175.856132 
L 201.783199 174.528 
L 206.210306 173.199868 
L 205.767596 174.085289 
L 212.54876 174.085289 
L 212.54876 174.970711 
" clip-path="url(#p93d9fe0a89)"/>
    <path d="M 64.907716 149.898987 
L 71.740157 148.792131 
L 71.161551 147.988901 
L 75.744074 148.591979 
L 71.586328 150.610981 
L 71.881749 149.666158 
L 65.049309 150.773013 
L 64.907716 149.898987 
" clip-path="url(#p93d9fe0a89)"/>
    <path d="M 79.647672 149.902096 
L 84.354987 148.948865 
L 83.745352 148.168923 
L 88.347986 148.591979 
L 84.272545 150.772345 
L 84.530718 149.816672 
L 79.823403 150.769904 
L 79.647672 149.902096 
" clip-path="url(#p93d9fe0a89)"/>
    <path d="M 94.377162 149.908594 
L 96.989847 149.203169 
L 96.331642 148.463757 
L 100.951899 148.591979 
L 97.024039 151.028192 
L 97.220646 150.057981 
L 94.607962 150.763406 
L 94.377162 149.908594 
" clip-path="url(#p93d9fe0a89)"/>
    <path d="M 109.083401 149.925665 
L 109.696608 149.677316 
L 108.953901 149.022831 
L 113.555811 148.591979 
L 109.951015 151.484843 
L 110.028979 150.497987 
L 109.415773 150.746335 
L 109.083401 149.925665 
" clip-path="url(#p93d9fe0a89)"/>
    <path d="M 123.832209 150.120689 
L 124.047521 149.946287 
L 123.483405 149.690066 
L 126.159724 148.591979 
L 124.529818 150.981934 
L 124.396325 150.376909 
L 124.181014 150.551311 
L 123.832209 150.120689 
" clip-path="url(#p93d9fe0a89)"/>
    <path d="M 138.589234 150.336 
L 138.589234 150.161598 
L 138.24043 150.336 
L 138.763636 148.591979 
L 139.286843 150.336 
L 138.938038 150.161598 
L 138.938038 150.336 
L 138.589234 150.336 
" clip-path="url(#p93d9fe0a89)"/>
    <path d="M 153.346259 150.551311 
L 153.130948 150.376909 
L 152.997455 150.981934 
L 151.367549 148.591979 
L 154.043867 149.690066 
L 153.479752 149.946287 
L 153.695063 150.120689 
L 153.346259 150.551311 
" clip-path="url(#p93d9fe0a89)"/>
    <path d="M 168.1115 150.746335 
L 167.498294 150.497987 
L 167.576257 151.484843 
L 163.971461 148.591979 
L 168.573372 149.022831 
L 167.830665 149.677316 
L 168.443872 149.925665 
L 168.1115 150.746335 
" clip-path="url(#p93d9fe0a89)"/>
    <path d="M 182.919311 150.763406 
L 180.306627 150.057981 
L 180.503234 151.028192 
L 176.575374 148.591979 
L 181.195631 148.463757 
L 180.537426 149.203169 
L 183.15011 149.908594 
L 182.919311 150.763406 
" clip-path="url(#p93d9fe0a89)"/>
    <path d="M 197.70387 150.769904 
L 192.996555 149.816672 
L 193.254727 150.772345 
L 189.179286 148.591979 
L 193.78192 148.168923 
L 193.172286 148.948865 
L 197.879601 149.902096 
L 197.70387 150.769904 
" clip-path="url(#p93d9fe0a89)"/>
    <path d="M 212.477964 150.773013 
L 205.645523 149.666158 
L 205.940944 150.610981 
L 201.783199 148.591979 
L 206.365721 147.988901 
L 205.787116 148.792131 
L 212.619557 149.898987 
L 212.477964 150.773013 
" clip-path="url(#p93d9fe0a89)"/>
    <path d="M 64.842058 125.722843 
L 71.817209 123.462894 
L 71.123143 122.757036 
L 75.744074 122.655958 
L 71.941872 125.283975 
L 72.090119 124.305207 
L 65.114967 126.565157 
L 64.842058 125.722843 
" clip-path="url(#p93d9fe0a89)"/>
    <path d="M 79.569351 125.733665 
L 84.488783 123.741295 
L 83.746076 123.08681 
L 88.347986 122.655958 
L 84.74319 125.548822 
L 84.821154 124.561966 
L 79.901723 126.554335 
L 79.569351 125.733665 
" clip-path="url(#p93d9fe0a89)"/>
    <path d="M 94.282208 125.754456 
L 97.235653 124.159596 
L 96.425402 123.590863 
L 100.951899 122.655958 
L 97.687524 125.928124 
L 97.65636 124.938683 
L 94.702916 126.533544 
L 94.282208 125.754456 
" clip-path="url(#p93d9fe0a89)"/>
    <path d="M 108.970935 125.799985 
L 110.181029 124.81981 
L 109.279711 124.410432 
L 113.555811 122.655958 
L 110.951621 126.474519 
L 110.738332 125.507839 
L 109.528239 126.488015 
L 108.970935 125.799985 
" clip-path="url(#p93d9fe0a89)"/>
    <path d="M 123.657807 125.928689 
L 123.873119 125.579885 
L 122.960199 125.498066 
L 126.159724 122.655958 
L 125.053024 126.789934 
L 124.570727 126.010507 
L 124.355416 126.359311 
L 123.657807 125.928689 
" clip-path="url(#p93d9fe0a89)"/>
    <path d="M 138.414832 126.144 
L 138.414832 125.795196 
L 137.717224 126.144 
L 138.763636 122.655958 
L 139.810049 126.144 
L 139.112441 125.795196 
L 139.112441 126.144 
L 138.414832 126.144 
" clip-path="url(#p93d9fe0a89)"/>
    <path d="M 153.171857 126.359311 
L 152.956546 126.010507 
L 152.474249 126.789934 
L 151.367549 122.655958 
L 154.567074 125.498066 
L 153.654154 125.579885 
L 153.869465 125.928689 
L 153.171857 126.359311 
" clip-path="url(#p93d9fe0a89)"/>
    <path d="M 167.999034 126.488015 
L 166.78894 125.507839 
L 166.575651 126.474519 
L 163.971461 122.655958 
L 168.247562 124.410432 
L 167.346244 124.81981 
L 168.556338 125.799985 
L 167.999034 126.488015 
" clip-path="url(#p93d9fe0a89)"/>
    <path d="M 182.824357 126.533544 
L 179.870913 124.938683 
L 179.839749 125.928124 
L 176.575374 122.655958 
L 181.10187 123.590863 
L 180.29162 124.159596 
L 183.245064 125.754456 
L 182.824357 126.533544 
" clip-path="url(#p93d9fe0a89)"/>
    <path d="M 197.62555 126.554335 
L 192.706119 124.561966 
L 192.784082 125.548822 
L 189.179286 122.655958 
L 193.781197 123.08681 
L 193.03849 123.741295 
L 197.957921 125.733665 
L 197.62555 126.554335 
" clip-path="url(#p93d9fe0a89)"/>
    <path d="M 212.412306 126.565157 
L 205.437154 124.305207 
L 205.585401 125.283975 
L 201.783199 122.655958 
L 206.40413 122.757036 
L 205.710063 123.462894 
L 212.685215 125.722843 
L 212.412306 126.565157 
" clip-path="url(#p93d9fe0a89)"/>
    <path d="M 64.784998 101.553823 
L 71.966965 98.063387 
L 71.181759 97.460547 
L 75.744074 96.719937 
L 72.342844 99.84961 
L 72.353993 98.859741 
L 65.172027 102.350177 
L 64.784998 101.553823 
" clip-path="url(#p93d9fe0a89)"/>
    <path d="M 79.505681 101.573636 
L 84.712857 98.410277 
L 83.874782 97.883405 
L 88.347986 96.719937 
L 85.253917 100.153587 
L 85.172569 99.167004 
L 79.965393 102.330364 
L 79.505681 101.573636 
" clip-path="url(#p93d9fe0a89)"/>
    <path d="M 94.21391 101.607985 
L 97.577116 98.883789 
L 96.675798 98.474411 
L 100.951899 96.719937 
L 98.347709 100.538498 
L 98.13442 99.571818 
L 94.771214 102.296015 
L 94.21391 101.607985 
" clip-path="url(#p93d9fe0a89)"/>
    <path d="M 108.907764 101.670664 
L 110.681966 99.515008 
L 109.716984 99.29416 
L 113.555811 96.719937 
L 111.767922 100.982175 
L 111.365612 100.07768 
L 109.59141 102.233336 
L 108.907764 101.670664 
" clip-path="url(#p93d9fe0a89)"/>
    <path d="M 123.597212 101.783523 
L 124.234028 100.236058 
L 123.246752 100.308503 
L 126.159724 96.719937 
L 125.70315 101.319367 
L 125.052828 100.573013 
L 124.416011 102.120477 
L 123.597212 101.783523 
" clip-path="url(#p93d9fe0a89)"/>
    <path d="M 138.320926 101.952 
L 138.320926 100.704334 
L 137.435504 101.147045 
L 138.763636 96.719937 
L 140.091769 101.147045 
L 139.206347 100.704334 
L 139.206347 101.952 
L 138.320926 101.952 
" clip-path="url(#p93d9fe0a89)"/>
    <path d="M 153.111261 102.120477 
L 152.474445 100.573013 
L 151.824122 101.319367 
L 151.367549 96.719937 
L 154.280521 100.308503 
L 153.293244 100.236058 
L 153.930061 101.783523 
L 153.111261 102.120477 
" clip-path="url(#p93d9fe0a89)"/>
    <path d="M 167.935863 102.233336 
L 166.161661 100.07768 
L 165.75935 100.982175 
L 163.971461 96.719937 
L 167.810288 99.29416 
L 166.845307 99.515008 
L 168.619509 101.670664 
L 167.935863 102.233336 
" clip-path="url(#p93d9fe0a89)"/>
    <path d="M 182.756059 102.296015 
L 179.392853 99.571818 
L 179.179564 100.538498 
L 176.575374 96.719937 
L 180.851475 98.474411 
L 179.950156 98.883789 
L 183.313363 101.607985 
L 182.756059 102.296015 
" clip-path="url(#p93d9fe0a89)"/>
    <path d="M 197.56188 102.330364 
L 192.354703 99.167004 
L 192.273355 100.153587 
L 189.179286 96.719937 
L 193.652491 97.883405 
L 192.814415 98.410277 
L 198.021591 101.573636 
L 197.56188 102.330364 
" clip-path="url(#p93d9fe0a89)"/>
    <path d="M 212.355246 102.350177 
L 205.17328 98.859741 
L 205.184429 99.84961 
L 201.783199 96.719937 
L 206.345513 97.460547 
L 205.560308 98.063387 
L 212.742274 101.553823 
L 212.355246 102.350177 
" clip-path="url(#p93d9fe0a89)"/>
    <path d="M 64.737763 77.388473 
L 72.15958 72.579136 
L 71.306553 72.076831 
L 75.744074 70.783916 
L 72.751051 74.305994 
L 72.641079 73.32219 
L 65.219262 78.131527 
L 64.737763 77.388473 
" clip-path="url(#p93d9fe0a89)"/>
    <path d="M 79.456885 77.415985 
L 84.973204 72.947768 
L 84.071886 72.53839 
L 88.347986 70.783916 
L 85.743796 74.602478 
L 85.530507 73.635797 
L 80.014189 78.104015 
L 79.456885 77.415985 
" clip-path="url(#p93d9fe0a89)"/>
    <path d="M 94.167718 77.459219 
L 97.920024 73.406729 
L 96.969555 73.13001 
L 100.951899 70.783916 
L 98.918618 74.934697 
L 98.569711 74.008291 
L 94.817406 78.060781 
L 94.167718 77.459219 
" clip-path="url(#p93d9fe0a89)"/>
    <path d="M 108.872868 77.527458 
L 111.086212 73.941841 
L 110.100232 73.853475 
L 113.555811 70.783916 
L 112.360544 75.248729 
L 111.839649 74.406926 
L 109.626305 77.992542 
L 108.872868 77.527458 
" clip-path="url(#p93d9fe0a89)"/>
    <path d="M 123.583591 77.629438 
L 124.561646 74.460539 
L 123.585043 74.622436 
L 126.159724 70.783916 
L 126.123167 75.405808 
L 125.407687 74.721663 
L 124.429632 77.890562 
L 123.583591 77.629438 
" clip-path="url(#p93d9fe0a89)"/>
    <path d="M 138.320926 77.76 
L 138.320926 74.768313 
L 137.435504 75.211024 
L 138.763636 70.783916 
L 140.091769 75.211024 
L 139.206347 74.768313 
L 139.206347 77.76 
L 138.320926 77.76 
" clip-path="url(#p93d9fe0a89)"/>
    <path d="M 153.097641 77.890562 
L 152.119585 74.721663 
L 151.404106 75.405808 
L 151.367549 70.783916 
L 153.94223 74.622436 
L 152.965627 74.460539 
L 153.943682 77.629438 
L 153.097641 77.890562 
" clip-path="url(#p93d9fe0a89)"/>
    <path d="M 167.900967 77.992542 
L 165.687624 74.406926 
L 165.166729 75.248729 
L 163.971461 70.783916 
L 167.42704 73.853475 
L 166.441061 73.941841 
L 168.654405 77.527458 
L 167.900967 77.992542 
" clip-path="url(#p93d9fe0a89)"/>
    <path d="M 182.709867 78.060781 
L 178.957561 74.008291 
L 178.608655 74.934697 
L 176.575374 70.783916 
L 180.557717 73.13001 
L 179.607249 73.406729 
L 183.359554 77.459219 
L 182.709867 78.060781 
" clip-path="url(#p93d9fe0a89)"/>
    <path d="M 197.513084 78.104015 
L 191.996765 73.635797 
L 191.783476 74.602478 
L 189.179286 70.783916 
L 193.455387 72.53839 
L 192.554069 72.947768 
L 198.070387 77.415985 
L 197.513084 78.104015 
" clip-path="url(#p93d9fe0a89)"/>
    <path d="M 212.308011 78.131527 
L 204.886194 73.32219 
L 204.776222 74.305994 
L 201.783199 70.783916 
L 206.220719 72.076831 
L 205.367693 72.579136 
L 212.78951 77.388473 
L 212.308011 78.131527 
" clip-path="url(#p93d9fe0a89)"/>
    <path d="M 64.699861 53.223985 
L 72.369291 47.011747 
L 71.467973 46.602369 
L 75.744074 44.847895 
L 73.139884 48.666457 
L 72.926595 47.699776 
L 65.257164 53.912015 
L 64.699861 53.223985 
" clip-path="url(#p93d9fe0a89)"/>
    <path d="M 79.420555 53.256907 
L 85.233164 47.371641 
L 84.292106 47.064436 
L 88.347986 44.847895 
L 86.181998 48.930996 
L 85.863128 47.993827 
L 80.050519 53.879093 
L 79.420555 53.256907 
" clip-path="url(#p93d9fe0a89)"/>
    <path d="M 94.136819 53.304486 
L 98.224533 47.786072 
L 97.249532 47.614788 
L 100.951899 44.847895 
L 99.383993 49.19587 
L 98.936019 48.3131 
L 94.848305 53.831514 
L 94.136819 53.304486 
" clip-path="url(#p93d9fe0a89)"/>
    <path d="M 108.852639 53.371976 
L 111.394651 48.224402 
L 110.404732 48.229302 
L 113.555811 44.847895 
L 112.786419 49.405444 
L 112.188547 48.616449 
L 109.646535 53.764024 
L 108.852639 53.371976 
" clip-path="url(#p93d9fe0a89)"/>
    <path d="M 123.576809 53.461876 
L 124.774804 48.609997 
L 123.809074 48.827551 
L 126.159724 44.847895 
L 126.387891 49.464296 
L 125.634409 48.822245 
L 124.436414 53.674124 
L 123.576809 53.461876 
" clip-path="url(#p93d9fe0a89)"/>
    <path d="M 138.320926 53.568 
L 138.320926 48.832292 
L 137.435504 49.275003 
L 138.763636 44.847895 
L 140.091769 49.275003 
L 139.206347 48.832292 
L 139.206347 53.568 
L 138.320926 53.568 
" clip-path="url(#p93d9fe0a89)"/>
    <path d="M 153.090858 53.674124 
L 151.892863 48.822245 
L 151.139382 49.464296 
L 151.367549 44.847895 
L 153.718199 48.827551 
L 152.752469 48.609997 
L 153.950464 53.461876 
L 153.090858 53.674124 
" clip-path="url(#p93d9fe0a89)"/>
    <path d="M 167.880738 53.764024 
L 165.338726 48.616449 
L 164.740854 49.405444 
L 163.971461 44.847895 
L 167.122541 48.229302 
L 166.132622 48.224402 
L 168.674634 53.371976 
L 167.880738 53.764024 
" clip-path="url(#p93d9fe0a89)"/>
    <path d="M 182.678967 53.831514 
L 178.591253 48.3131 
L 178.14328 49.19587 
L 176.575374 44.847895 
L 180.27774 47.614788 
L 179.30274 47.786072 
L 183.390454 53.304486 
L 182.678967 53.831514 
" clip-path="url(#p93d9fe0a89)"/>
    <path d="M 197.476753 53.879093 
L 191.664145 47.993827 
L 191.345274 48.930996 
L 189.179286 44.847895 
L 193.235167 47.064436 
L 192.294109 47.371641 
L 198.106718 53.256907 
L 197.476753 53.879093 
" clip-path="url(#p93d9fe0a89)"/>
    <path d="M 212.270109 53.912015 
L 204.600678 47.699776 
L 204.387389 48.666457 
L 201.783199 44.847895 
L 206.0593 46.602369 
L 205.157982 47.011747 
L 212.827412 53.223985 
L 212.270109 53.912015 
" clip-path="url(#p93d9fe0a89)"/>
   </g>
   <g id="matplotlib.axis_1">
    <g id="xtick_1">
     <g id="line2d_1">
      <defs>
       <path id="m822462e5e5" d="M 0 0 
L 0 3.5 
" style="stroke: #000000; stroke-width: 0.8"/>
      </defs>
      <g>
       <use xlink:href="#m822462e5e5" x="64.978512" y="307.584" style="stroke: #000000; stroke-width: 0.8"/>
      </g>
     </g>
     <g id="text_1">
      <!-- −5.0 -->
      <g transform="translate(52.837106 322.182437) scale(0.1 -0.1)">
       <defs>
        <path id="DejaVuSans-2212" d="M 678 2272 
L 4684 2272 
L 4684 1741 
L 678 1741 
L 678 2272 
z
" transform="scale(0.015625)"/>
        <path id="DejaVuSans-35" d="M 691 4666 
L 3169 4666 
L 3169 4134 
L 1269 4134 
L 1269 2991 
Q 1406 3038 1543 3061 
Q 1681 3084 1819 3084 
Q 2600 3084 3056 2656 
Q 3513 2228 3513 1497 
Q 3513 744 3044 326 
Q 2575 -91 1722 -91 
Q 1428 -91 1123 -41 
Q 819 9 494 109 
L 494 744 
Q 775 591 1075 516 
Q 1375 441 1709 441 
Q 2250 441 2565 725 
Q 2881 1009 2881 1497 
Q 2881 1984 2565 2268 
Q 2250 2553 1709 2553 
Q 1456 2553 1204 2497 
Q 953 2441 691 2322 
L 691 4666 
z
" transform="scale(0.015625)"/>
        <path id="DejaVuSans-2e" d="M 684 794 
L 1344 794 
L 1344 0 
L 684 0 
L 684 794 
z
" transform="scale(0.015625)"/>
        <path id="DejaVuSans-30" d="M 2034 4250 
Q 1547 4250 1301 3770 
Q 1056 3291 1056 2328 
Q 1056 1369 1301 889 
Q 1547 409 2034 409 
Q 2525 409 2770 889 
Q 3016 1369 3016 2328 
Q 3016 3291 2770 3770 
Q 2525 4250 2034 4250 
z
M 2034 4750 
Q 2819 4750 3233 4129 
Q 3647 3509 3647 2328 
Q 3647 1150 3233 529 
Q 2819 -91 2034 -91 
Q 1250 -91 836 529 
Q 422 1150 422 2328 
Q 422 3509 836 4129 
Q 1250 4750 2034 4750 
z
" transform="scale(0.015625)"/>
       </defs>
       <use xlink:href="#DejaVuSans-2212"/>
       <use xlink:href="#DejaVuSans-35" x="83.789062"/>
       <use xlink:href="#DejaVuSans-2e" x="147.412109"/>
       <use xlink:href="#DejaVuSans-30" x="179.199219"/>
      </g>
     </g>
    </g>
    <g id="xtick_2">
     <g id="line2d_2">
      <g>
       <use xlink:href="#m822462e5e5" x="101.871074" y="307.584" style="stroke: #000000; stroke-width: 0.8"/>
      </g>
     </g>
     <g id="text_2">
      <!-- −2.5 -->
      <g transform="translate(89.729668 322.182437) scale(0.1 -0.1)">
       <defs>
        <path id="DejaVuSans-32" d="M 1228 531 
L 3431 531 
L 3431 0 
L 469 0 
L 469 531 
Q 828 903 1448 1529 
Q 2069 2156 2228 2338 
Q 2531 2678 2651 2914 
Q 2772 3150 2772 3378 
Q 2772 3750 2511 3984 
Q 2250 4219 1831 4219 
Q 1534 4219 1204 4116 
Q 875 4013 500 3803 
L 500 4441 
Q 881 4594 1212 4672 
Q 1544 4750 1819 4750 
Q 2544 4750 2975 4387 
Q 3406 4025 3406 3419 
Q 3406 3131 3298 2873 
Q 3191 2616 2906 2266 
Q 2828 2175 2409 1742 
Q 1991 1309 1228 531 
z
" transform="scale(0.015625)"/>
       </defs>
       <use xlink:href="#DejaVuSans-2212"/>
       <use xlink:href="#DejaVuSans-32" x="83.789062"/>
       <use xlink:href="#DejaVuSans-2e" x="147.412109"/>
       <use xlink:href="#DejaVuSans-35" x="179.199219"/>
      </g>
     </g>
    </g>
    <g id="xtick_3">
     <g id="line2d_3">
      <g>
       <use xlink:href="#m822462e5e5" x="138.763636" y="307.584" style="stroke: #000000; stroke-width: 0.8"/>
      </g>
     </g>
     <g id="text_3">
      <!-- 0.0 -->
      <g transform="translate(130.812074 322.182437) scale(0.1 -0.1)">
       <use xlink:href="#DejaVuSans-30"/>
       <use xlink:href="#DejaVuSans-2e" x="63.623047"/>
       <use xlink:href="#DejaVuSans-30" x="95.410156"/>
      </g>
     </g>
    </g>
    <g id="xtick_4">
     <g id="line2d_4">
      <g>
       <use xlink:href="#m822462e5e5" x="175.656198" y="307.584" style="stroke: #000000; stroke-width: 0.8"/>
      </g>
     </g>
     <g id="text_4">
      <!-- 2.5 -->
      <g transform="translate(167.704636 322.182437) scale(0.1 -0.1)">
       <use xlink:href="#DejaVuSans-32"/>
       <use xlink:href="#DejaVuSans-2e" x="63.623047"/>
       <use xlink:href="#DejaVuSans-35" x="95.410156"/>
      </g>
     </g>
    </g>
    <g id="xtick_5">
     <g id="line2d_5">
      <g>
       <use xlink:href="#m822462e5e5" x="212.54876" y="307.584" style="stroke: #000000; stroke-width: 0.8"/>
      </g>
     </g>
     <g id="text_5">
      <!-- 5.0 -->
      <g transform="translate(204.597198 322.182437) scale(0.1 -0.1)">
       <use xlink:href="#DejaVuSans-35"/>
       <use xlink:href="#DejaVuSans-2e" x="63.623047"/>
       <use xlink:href="#DejaVuSans-30" x="95.410156"/>
      </g>
     </g>
    </g>
   </g>
   <g id="matplotlib.axis_2">
    <g id="ytick_1">
     <g id="line2d_6">
      <defs>
       <path id="mce37811030" d="M 0 0 
L -3.5 0 
" style="stroke: #000000; stroke-width: 0.8"/>
      </defs>
      <g>
       <use xlink:href="#mce37811030" x="57.6" y="271.296" style="stroke: #000000; stroke-width: 0.8"/>
      </g>
     </g>
     <g id="text_6">
      <!-- −4 -->
      <g transform="translate(35.857813 275.095219) scale(0.1 -0.1)">
       <defs>
        <path id="DejaVuSans-34" d="M 2419 4116 
L 825 1625 
L 2419 1625 
L 2419 4116 
z
M 2253 4666 
L 3047 4666 
L 3047 1625 
L 3713 1625 
L 3713 1100 
L 3047 1100 
L 3047 0 
L 2419 0 
L 2419 1100 
L 313 1100 
L 313 1709 
L 2253 4666 
z
" transform="scale(0.015625)"/>
       </defs>
       <use xlink:href="#DejaVuSans-2212"/>
       <use xlink:href="#DejaVuSans-34" x="83.789062"/>
      </g>
     </g>
    </g>
    <g id="ytick_2">
     <g id="line2d_7">
      <g>
       <use xlink:href="#mce37811030" x="57.6" y="222.912" style="stroke: #000000; stroke-width: 0.8"/>
      </g>
     </g>
     <g id="text_7">
      <!-- −2 -->
      <g transform="translate(35.857813 226.711219) scale(0.1 -0.1)">
       <use xlink:href="#DejaVuSans-2212"/>
       <use xlink:href="#DejaVuSans-32" x="83.789062"/>
      </g>
     </g>
    </g>
    <g id="ytick_3">
     <g id="line2d_8">
      <g>
       <use xlink:href="#mce37811030" x="57.6" y="174.528" style="stroke: #000000; stroke-width: 0.8"/>
      </g>
     </g>
     <g id="text_8">
      <!-- 0 -->
      <g transform="translate(44.2375 178.327219) scale(0.1 -0.1)">
       <use xlink:href="#DejaVuSans-30"/>
      </g>
     </g>
    </g>
    <g id="ytick_4">
     <g id="line2d_9">
      <g>
       <use xlink:href="#mce37811030" x="57.6" y="126.144" style="stroke: #000000; stroke-width: 0.8"/>
      </g>
     </g>
     <g id="text_9">
      <!-- 2 -->
      <g transform="translate(44.2375 129.943219) scale(0.1 -0.1)">
       <use xlink:href="#DejaVuSans-32"/>
      </g>
     </g>
    </g>
    <g id="ytick_5">
     <g id="line2d_10">
      <g>
       <use xlink:href="#mce37811030" x="57.6" y="77.76" style="stroke: #000000; stroke-width: 0.8"/>
      </g>
     </g>
     <g id="text_10">
      <!-- 4 -->
      <g transform="translate(44.2375 81.559219) scale(0.1 -0.1)">
       <use xlink:href="#DejaVuSans-34"/>
      </g>
     </g>
    </g>
   </g>
   <g id="patch_3">
    <path d="M 57.6 307.584 
L 57.6 41.472 
" style="fill: none; stroke: #000000; stroke-width: 0.8; stroke-linejoin: miter; stroke-linecap: square"/>
   </g>
   <g id="patch_4">
    <path d="M 219.927273 307.584 
L 219.927273 41.472 
" style="fill: none; stroke: #000000; stroke-width: 0.8; stroke-linejoin: miter; stroke-linecap: square"/>
   </g>
   <g id="patch_5">
    <path d="M 57.6 307.584 
L 219.927273 307.584 
" style="fill: none; stroke: #000000; stroke-width: 0.8; stroke-linejoin: miter; stroke-linecap: square"/>
   </g>
   <g id="patch_6">
    <path d="M 57.6 41.472 
L 219.927273 41.472 
" style="fill: none; stroke: #000000; stroke-width: 0.8; stroke-linejoin: miter; stroke-linecap: square"/>
   </g>
  </g>
  <g id="axes_2">
   <g id="patch_7">
    <path d="M 252.392727 307.584 
L 414.72 307.584 
L 414.72 41.472 
L 252.392727 41.472 
z
" style="fill: #ffffff"/>
   </g>
   <g id="matplotlib.axis_3">
    <g id="xtick_6">
     <g id="line2d_11">
      <g>
       <use xlink:href="#m822462e5e5" x="279.447273" y="307.584" style="stroke: #000000; stroke-width: 0.8"/>
      </g>
     </g>
     <g id="text_11">
      <!-- 0 -->
      <g transform="translate(276.266023 322.182437) scale(0.1 -0.1)">
       <use xlink:href="#DejaVuSans-30"/>
      </g>
     </g>
    </g>
    <g id="xtick_7">
     <g id="line2d_12">
      <g>
       <use xlink:href="#m822462e5e5" x="333.556364" y="307.584" style="stroke: #000000; stroke-width: 0.8"/>
      </g>
     </g>
     <g id="text_12">
      <!-- 2 -->
      <g transform="translate(330.375114 322.182437) scale(0.1 -0.1)">
       <use xlink:href="#DejaVuSans-32"/>
      </g>
     </g>
    </g>
    <g id="xtick_8">
     <g id="line2d_13">
      <g>
       <use xlink:href="#m822462e5e5" x="387.665455" y="307.584" style="stroke: #000000; stroke-width: 0.8"/>
      </g>
     </g>
     <g id="text_13">
      <!-- 4 -->
      <g transform="translate(384.484205 322.182437) scale(0.1 -0.1)">
       <use xlink:href="#DejaVuSans-34"/>
      </g>
     </g>
    </g>
   </g>
   <g id="matplotlib.axis_4">
    <g id="ytick_6">
     <g id="line2d_14">
      <g>
       <use xlink:href="#mce37811030" x="252.392727" y="307.584" style="stroke: #000000; stroke-width: 0.8"/>
      </g>
     </g>
     <g id="text_14">
      <!-- −5 -->
      <g transform="translate(230.65054 311.383219) scale(0.1 -0.1)">
       <use xlink:href="#DejaVuSans-2212"/>
       <use xlink:href="#DejaVuSans-35" x="83.789062"/>
      </g>
     </g>
    </g>
    <g id="ytick_7">
     <g id="line2d_15">
      <g>
       <use xlink:href="#mce37811030" x="252.392727" y="263.232" style="stroke: #000000; stroke-width: 0.8"/>
      </g>
     </g>
     <g id="text_15">
      <!-- −4 -->
      <g transform="translate(230.65054 267.031219) scale(0.1 -0.1)">
       <use xlink:href="#DejaVuSans-2212"/>
       <use xlink:href="#DejaVuSans-34" x="83.789062"/>
      </g>
     </g>
    </g>
    <g id="ytick_8">
     <g id="line2d_16">
      <g>
       <use xlink:href="#mce37811030" x="252.392727" y="218.88" style="stroke: #000000; stroke-width: 0.8"/>
      </g>
     </g>
     <g id="text_16">
      <!-- −3 -->
      <g transform="translate(230.65054 222.679219) scale(0.1 -0.1)">
       <defs>
        <path id="DejaVuSans-33" d="M 2597 2516 
Q 3050 2419 3304 2112 
Q 3559 1806 3559 1356 
Q 3559 666 3084 287 
Q 2609 -91 1734 -91 
Q 1441 -91 1130 -33 
Q 819 25 488 141 
L 488 750 
Q 750 597 1062 519 
Q 1375 441 1716 441 
Q 2309 441 2620 675 
Q 2931 909 2931 1356 
Q 2931 1769 2642 2001 
Q 2353 2234 1838 2234 
L 1294 2234 
L 1294 2753 
L 1863 2753 
Q 2328 2753 2575 2939 
Q 2822 3125 2822 3475 
Q 2822 3834 2567 4026 
Q 2313 4219 1838 4219 
Q 1578 4219 1281 4162 
Q 984 4106 628 3988 
L 628 4550 
Q 988 4650 1302 4700 
Q 1616 4750 1894 4750 
Q 2613 4750 3031 4423 
Q 3450 4097 3450 3541 
Q 3450 3153 3228 2886 
Q 3006 2619 2597 2516 
z
" transform="scale(0.015625)"/>
       </defs>
       <use xlink:href="#DejaVuSans-2212"/>
       <use xlink:href="#DejaVuSans-33" x="83.789062"/>
      </g>
     </g>
    </g>
    <g id="ytick_9">
     <g id="line2d_17">
      <g>
       <use xlink:href="#mce37811030" x="252.392727" y="174.528" style="stroke: #000000; stroke-width: 0.8"/>
      </g>
     </g>
     <g id="text_17">
      <!-- −2 -->
      <g transform="translate(230.65054 178.327219) scale(0.1 -0.1)">
       <use xlink:href="#DejaVuSans-2212"/>
       <use xlink:href="#DejaVuSans-32" x="83.789062"/>
      </g>
     </g>
    </g>
    <g id="ytick_10">
     <g id="line2d_18">
      <g>
       <use xlink:href="#mce37811030" x="252.392727" y="130.176" style="stroke: #000000; stroke-width: 0.8"/>
      </g>
     </g>
     <g id="text_18">
      <!-- −1 -->
      <g transform="translate(230.65054 133.975219) scale(0.1 -0.1)">
       <defs>
        <path id="DejaVuSans-31" d="M 794 531 
L 1825 531 
L 1825 4091 
L 703 3866 
L 703 4441 
L 1819 4666 
L 2450 4666 
L 2450 531 
L 3481 531 
L 3481 0 
L 794 0 
L 794 531 
z
" transform="scale(0.015625)"/>
       </defs>
       <use xlink:href="#DejaVuSans-2212"/>
       <use xlink:href="#DejaVuSans-31" x="83.789062"/>
      </g>
     </g>
    </g>
    <g id="ytick_11">
     <g id="line2d_19">
      <g>
       <use xlink:href="#mce37811030" x="252.392727" y="85.824" style="stroke: #000000; stroke-width: 0.8"/>
      </g>
     </g>
     <g id="text_19">
      <!-- 0 -->
      <g transform="translate(239.030227 89.623219) scale(0.1 -0.1)">
       <use xlink:href="#DejaVuSans-30"/>
      </g>
     </g>
    </g>
    <g id="ytick_12">
     <g id="line2d_20">
      <g>
       <use xlink:href="#mce37811030" x="252.392727" y="41.472" style="stroke: #000000; stroke-width: 0.8"/>
      </g>
     </g>
     <g id="text_20">
      <!-- 1 -->
      <g transform="translate(239.030227 45.271219) scale(0.1 -0.1)">
       <use xlink:href="#DejaVuSans-31"/>
      </g>
     </g>
    </g>
   </g>
   <g id="line2d_21">
    <path d="M 302.502951 346.6 
L 303.577741 239.947341 
L 304.916804 171.41758 
L 306.255868 134.813723 
L 307.594931 114.636643 
L 308.933994 103.193085 
L 310.273058 96.532642 
L 311.612121 92.563455 
L 312.951185 90.146343 
L 314.290248 88.644815 
L 315.629311 87.69477 
L 316.968375 87.083355 
L 318.307438 86.683615 
L 319.646501 86.4184 
L 320.985565 86.24001 
L 322.324628 86.118474 
L 323.663691 86.034671 
L 325.002755 85.976231 
L 326.341818 85.935042 
L 327.680882 85.90572 
L 329.019945 85.884649 
L 330.359008 85.869369 
L 331.698072 85.858196 
L 333.037135 85.84996 
L 334.376198 85.843842 
L 335.715262 85.839264 
L 337.054325 85.835815 
L 338.393388 85.833199 
L 339.732452 85.831203 
L 341.071515 85.82967 
L 342.410579 85.828487 
L 343.749642 85.827568 
L 345.088705 85.826851 
L 346.427769 85.826288 
L 347.766832 85.825844 
L 349.105895 85.825493 
L 350.444959 85.825213 
L 351.784022 85.82499 
L 353.123085 85.824811 
L 354.462149 85.824666 
L 355.801212 85.82455 
L 357.140275 85.824455 
L 358.479339 85.824378 
L 359.818402 85.824314 
L 361.157466 85.824263 
L 362.496529 85.82422 
L 363.835592 85.824185 
L 365.174656 85.824156 
L 366.513719 85.824132 
L 367.852782 85.824111 
L 369.191846 85.824095 
L 370.530909 85.82408 
L 371.869972 85.824069 
L 373.209036 85.824059 
L 374.548099 85.82405 
L 375.887163 85.824043 
L 377.226226 85.824037 
L 378.565289 85.824032 
L 379.904353 85.824028 
L 381.243416 85.824024 
L 382.582479 85.824021 
L 383.921543 85.824018 
L 385.260606 85.824016 
L 386.599669 85.824014 
L 387.938733 85.824012 
L 389.277796 85.82401 
L 390.61686 85.824009 
L 391.955923 85.824008 
L 393.294986 85.824007 
L 394.63405 85.824006 
L 395.973113 85.824006 
L 397.312176 85.824005 
L 398.65124 85.824004 
L 399.990303 85.824004 
L 401.329366 85.824003 
L 402.66843 85.824003 
L 404.007493 85.824003 
L 405.346556 85.824002 
L 406.68562 85.824002 
L 408.024683 85.824002 
L 409.363747 85.824002 
L 410.70281 85.824002 
L 412.041873 85.824001 
L 413.380937 85.824001 
L 414.72 85.824001 
" clip-path="url(#p4c21ed124e)" style="fill: none; stroke: #1f77b4; stroke-width: 1.5; stroke-linecap: square"/>
   </g>
   <g id="line2d_22">
    <path d="M 304.041527 346.6 
L 304.916804 257.01116 
L 306.255868 183.803447 
L 307.594931 143.449286 
L 308.933994 120.56217 
L 310.273058 107.241283 
L 311.612121 99.302911 
L 312.951185 94.468687 
L 314.290248 91.465629 
L 315.629311 89.565539 
L 316.968375 88.342711 
L 318.307438 87.54323 
L 319.646501 87.012799 
L 320.985565 86.65602 
L 322.324628 86.412948 
L 323.663691 86.245342 
L 325.002755 86.128461 
L 326.341818 86.046084 
L 327.680882 85.987441 
L 329.019945 85.945297 
L 330.359008 85.914739 
L 331.698072 85.892392 
L 333.037135 85.875919 
L 334.376198 85.863683 
L 335.715262 85.854528 
L 337.054325 85.84763 
L 338.393388 85.842398 
L 339.732452 85.838406 
L 341.071515 85.835341 
L 342.410579 85.832974 
L 343.749642 85.831136 
L 345.088705 85.829701 
L 346.427769 85.828576 
L 347.766832 85.827688 
L 349.105895 85.826986 
L 350.444959 85.826427 
L 351.784022 85.82598 
L 353.123085 85.825621 
L 354.462149 85.825333 
L 355.801212 85.825099 
L 357.140275 85.824909 
L 358.479339 85.824755 
L 359.818402 85.824629 
L 361.157466 85.824525 
L 362.496529 85.82444 
L 363.835592 85.82437 
L 365.174656 85.824311 
L 366.513719 85.824263 
L 367.852782 85.824223 
L 369.191846 85.824189 
L 370.530909 85.824161 
L 371.869972 85.824137 
L 373.209036 85.824117 
L 374.548099 85.824101 
L 375.887163 85.824086 
L 377.226226 85.824074 
L 378.565289 85.824064 
L 379.904353 85.824055 
L 381.243416 85.824048 
L 382.582479 85.824042 
L 383.921543 85.824036 
L 385.260606 85.824031 
L 386.599669 85.824027 
L 387.938733 85.824024 
L 389.277796 85.824021 
L 390.61686 85.824018 
L 391.955923 85.824016 
L 393.294986 85.824014 
L 394.63405 85.824012 
L 395.973113 85.824011 
L 397.312176 85.82401 
L 398.65124 85.824009 
L 399.990303 85.824008 
L 401.329366 85.824007 
L 402.66843 85.824006 
L 404.007493 85.824005 
L 405.346556 85.824005 
L 406.68562 85.824004 
L 408.024683 85.824004 
L 409.363747 85.824003 
L 410.70281 85.824003 
L 412.041873 85.824003 
L 413.380937 85.824002 
L 414.72 85.824002 
" clip-path="url(#p4c21ed124e)" style="fill: none; stroke: #ff7f0e; stroke-width: 1.5; stroke-linecap: square"/>
   </g>
   <g id="line2d_23">
    <path d="M 304.890782 346.6 
L 304.916804 342.604741 
L 306.255868 232.79317 
L 307.594931 172.26193 
L 308.933994 137.931256 
L 310.273058 117.949925 
L 311.612121 106.042366 
L 312.951185 98.79103 
L 314.290248 94.286444 
L 315.629311 91.436309 
L 316.968375 89.602066 
L 318.307438 88.402844 
L 319.646501 87.607199 
L 320.985565 87.07203 
L 322.324628 86.707421 
L 323.663691 86.456013 
L 325.002755 86.280692 
L 326.341818 86.157126 
L 327.680882 86.069161 
L 329.019945 86.005946 
L 330.359008 85.960108 
L 331.698072 85.926588 
L 333.037135 85.901879 
L 334.376198 85.883525 
L 335.715262 85.869791 
L 337.054325 85.859445 
L 338.393388 85.851598 
L 339.732452 85.845609 
L 341.071515 85.841011 
L 342.410579 85.837461 
L 343.749642 85.834704 
L 345.088705 85.832552 
L 346.427769 85.830864 
L 347.766832 85.829533 
L 349.105895 85.828479 
L 350.444959 85.82764 
L 351.784022 85.82697 
L 353.123085 85.826432 
L 354.462149 85.825999 
L 355.801212 85.825649 
L 357.140275 85.825364 
L 358.479339 85.825133 
L 359.818402 85.824943 
L 361.157466 85.824788 
L 362.496529 85.82466 
L 363.835592 85.824555 
L 365.174656 85.824467 
L 366.513719 85.824395 
L 367.852782 85.824334 
L 369.191846 85.824284 
L 370.530909 85.824241 
L 371.869972 85.824206 
L 373.209036 85.824176 
L 374.548099 85.824151 
L 375.887163 85.82413 
L 377.226226 85.824112 
L 378.565289 85.824096 
L 379.904353 85.824083 
L 381.243416 85.824072 
L 382.582479 85.824062 
L 383.921543 85.824054 
L 385.260606 85.824047 
L 386.599669 85.824041 
L 387.938733 85.824036 
L 389.277796 85.824031 
L 390.61686 85.824028 
L 391.955923 85.824024 
L 393.294986 85.824021 
L 394.63405 85.824019 
L 395.973113 85.824017 
L 397.312176 85.824015 
L 398.65124 85.824013 
L 399.990303 85.824011 
L 401.329366 85.82401 
L 402.66843 85.824009 
L 404.007493 85.824008 
L 405.346556 85.824007 
L 406.68562 85.824006 
L 408.024683 85.824006 
L 409.363747 85.824005 
L 410.70281 85.824005 
L 412.041873 85.824004 
L 413.380937 85.824004 
L 414.72 85.824003 
" clip-path="url(#p4c21ed124e)" style="fill: none; stroke: #2ca02c; stroke-width: 1.5; stroke-linecap: square"/>
   </g>
   <g id="line2d_24">
    <path d="M 305.663074 346.6 
L 306.255868 281.782894 
L 307.594931 201.074573 
L 308.933994 155.300341 
L 310.273058 128.658566 
L 311.612121 112.781821 
L 312.951185 103.113373 
L 314.290248 97.107259 
L 315.629311 93.307079 
L 316.968375 90.861422 
L 318.307438 89.262459 
L 319.646501 88.201598 
L 320.985565 87.48804 
L 322.324628 87.001895 
L 323.663691 86.666683 
L 325.002755 86.432922 
L 326.341818 86.268168 
L 327.680882 86.150882 
L 329.019945 86.066594 
L 330.359008 86.005477 
L 331.698072 85.960785 
L 333.037135 85.927839 
L 334.376198 85.903366 
L 335.715262 85.885055 
L 337.054325 85.87126 
L 338.393388 85.860797 
L 339.732452 85.852812 
L 341.071515 85.846682 
L 342.410579 85.841948 
L 343.749642 85.838272 
L 345.088705 85.835403 
L 346.427769 85.833151 
L 347.766832 85.831377 
L 349.105895 85.829971 
L 350.444959 85.828853 
L 351.784022 85.82796 
L 353.123085 85.827243 
L 354.462149 85.826665 
L 355.801212 85.826198 
L 357.140275 85.825819 
L 358.479339 85.82551 
L 359.818402 85.825258 
L 361.157466 85.82505 
L 362.496529 85.82488 
L 363.835592 85.824739 
L 365.174656 85.824623 
L 366.513719 85.824526 
L 367.852782 85.824446 
L 369.191846 85.824378 
L 370.530909 85.824322 
L 371.869972 85.824275 
L 373.209036 85.824235 
L 374.548099 85.824201 
L 375.887163 85.824173 
L 377.226226 85.824149 
L 378.565289 85.824128 
L 379.904353 85.824111 
L 381.243416 85.824096 
L 382.582479 85.824083 
L 383.921543 85.824072 
L 385.260606 85.824063 
L 386.599669 85.824055 
L 387.938733 85.824048 
L 389.277796 85.824042 
L 390.61686 85.824037 
L 391.955923 85.824032 
L 393.294986 85.824028 
L 394.63405 85.824025 
L 395.973113 85.824022 
L 397.312176 85.824019 
L 398.65124 85.824017 
L 399.990303 85.824015 
L 401.329366 85.824013 
L 402.66843 85.824012 
L 404.007493 85.824011 
L 405.346556 85.824009 
L 406.68562 85.824008 
L 408.024683 85.824008 
L 409.363747 85.824007 
L 410.70281 85.824006 
L 412.041873 85.824005 
L 413.380937 85.824005 
L 414.72 85.824004 
" clip-path="url(#p4c21ed124e)" style="fill: none; stroke: #d62728; stroke-width: 1.5; stroke-linecap: square"/>
   </g>
   <g id="line2d_25">
    <path d="M 291.253772 346.6 
L 291.526171 250.059817 
L 292.865234 134.537267 
L 294.204298 102.044993 
L 295.543361 91.767147 
L 296.882424 88.183512 
L 298.221488 86.827066 
L 299.560551 86.276316 
L 300.899614 86.038712 
L 302.238678 85.930628 
L 303.577741 85.879112 
L 304.916804 85.853519 
L 306.255868 85.840325 
L 307.594931 85.833293 
L 308.933994 85.82943 
L 310.273058 85.82725 
L 311.612121 85.825988 
L 312.951185 85.825241 
L 314.290248 85.824789 
L 315.629311 85.82451 
L 316.968375 85.824335 
L 318.307438 85.824223 
L 319.646501 85.824151 
L 320.985565 85.824103 
L 322.324628 85.824072 
L 323.663691 85.82405 
L 325.002755 85.824036 
L 326.341818 85.824025 
L 327.680882 85.824018 
L 329.019945 85.824013 
L 330.359008 85.82401 
L 331.698072 85.824007 
L 333.037135 85.824005 
L 334.376198 85.824004 
L 335.715262 85.824003 
L 337.054325 85.824002 
L 338.393388 85.824002 
L 339.732452 85.824001 
L 341.071515 85.824001 
L 342.410579 85.824001 
L 343.749642 85.824001 
L 345.088705 85.824001 
L 346.427769 85.824 
L 347.766832 85.824 
L 349.105895 85.824 
L 350.444959 85.824 
L 351.784022 85.824 
L 353.123085 85.824 
L 354.462149 85.824 
L 355.801212 85.824 
L 357.140275 85.824 
L 358.479339 85.824 
L 359.818402 85.824 
L 361.157466 85.824 
L 362.496529 85.824 
L 363.835592 85.824 
L 365.174656 85.824 
L 366.513719 85.824 
L 367.852782 85.824 
L 369.191846 85.824 
L 370.530909 85.824 
L 371.869972 85.824 
L 373.209036 85.824 
L 374.548099 85.824 
L 375.887163 85.824 
L 377.226226 85.824 
L 378.565289 85.824 
L 379.904353 85.824 
L 381.243416 85.824 
L 382.582479 85.824 
L 383.921543 85.824 
L 385.260606 85.824 
L 386.599669 85.824 
L 387.938733 85.824 
L 389.277796 85.824 
L 390.61686 85.824 
L 391.955923 85.824 
L 393.294986 85.824 
L 394.63405 85.824 
L 395.973113 85.824 
L 397.312176 85.824 
L 398.65124 85.824 
L 399.990303 85.824 
L 401.329366 85.824 
L 402.66843 85.824 
L 404.007493 85.824 
L 405.346556 85.824 
L 406.68562 85.824 
L 408.024683 85.824 
L 409.363747 85.824 
L 410.70281 85.824 
L 412.041873 85.824 
L 413.380937 85.824 
L 414.72 85.824 
" clip-path="url(#p4c21ed124e)" style="fill: none; stroke: #9467bd; stroke-width: 1.5; stroke-linecap: square"/>
   </g>
   <g id="line2d_26">
    <path d="M 291.918513 346.6 
L 292.865234 183.250535 
L 294.204298 118.265987 
L 295.543361 97.710295 
L 296.882424 90.543025 
L 298.221488 87.830132 
L 299.560551 86.728632 
L 300.899614 86.253424 
L 302.238678 86.037255 
L 303.577741 85.934223 
L 304.916804 85.883038 
L 306.255868 85.85665 
L 307.594931 85.842586 
L 308.933994 85.834861 
L 310.273058 85.8305 
L 311.612121 85.827976 
L 312.951185 85.826481 
L 314.290248 85.825577 
L 315.629311 85.82502 
L 316.968375 85.82467 
L 318.307438 85.824447 
L 319.646501 85.824302 
L 320.985565 85.824207 
L 322.324628 85.824143 
L 323.663691 85.8241 
L 325.002755 85.824071 
L 326.341818 85.824051 
L 327.680882 85.824037 
L 329.019945 85.824027 
L 330.359008 85.82402 
L 331.698072 85.824015 
L 333.037135 85.824011 
L 334.376198 85.824008 
L 335.715262 85.824006 
L 337.054325 85.824005 
L 338.393388 85.824004 
L 339.732452 85.824003 
L 341.071515 85.824002 
L 342.410579 85.824002 
L 343.749642 85.824001 
L 345.088705 85.824001 
L 346.427769 85.824001 
L 347.766832 85.824001 
L 349.105895 85.824001 
L 350.444959 85.824 
L 351.784022 85.824 
L 353.123085 85.824 
L 354.462149 85.824 
L 355.801212 85.824 
L 357.140275 85.824 
L 358.479339 85.824 
L 359.818402 85.824 
L 361.157466 85.824 
L 362.496529 85.824 
L 363.835592 85.824 
L 365.174656 85.824 
L 366.513719 85.824 
L 367.852782 85.824 
L 369.191846 85.824 
L 370.530909 85.824 
L 371.869972 85.824 
L 373.209036 85.824 
L 374.548099 85.824 
L 375.887163 85.824 
L 377.226226 85.824 
L 378.565289 85.824 
L 379.904353 85.824 
L 381.243416 85.824 
L 382.582479 85.824 
L 383.921543 85.824 
L 385.260606 85.824 
L 386.599669 85.824 
L 387.938733 85.824 
L 389.277796 85.824 
L 390.61686 85.824 
L 391.955923 85.824 
L 393.294986 85.824 
L 394.63405 85.824 
L 395.973113 85.824 
L 397.312176 85.824 
L 398.65124 85.824 
L 399.990303 85.824 
L 401.329366 85.824 
L 402.66843 85.824 
L 404.007493 85.824 
L 405.346556 85.824 
L 406.68562 85.824 
L 408.024683 85.824 
L 409.363747 85.824 
L 410.70281 85.824 
L 412.041873 85.824 
L 413.380937 85.824 
L 414.72 85.824 
" clip-path="url(#p4c21ed124e)" style="fill: none; stroke: #8c564b; stroke-width: 1.5; stroke-linecap: square"/>
   </g>
   <g id="line2d_27">
    <path d="M 292.422304 346.6 
L 292.865234 231.963802 
L 294.204298 134.48698 
L 295.543361 103.653442 
L 296.882424 92.902537 
L 298.221488 88.833197 
L 299.560551 87.180947 
L 300.899614 86.468136 
L 302.238678 86.143883 
L 303.577741 85.989335 
L 304.916804 85.912557 
L 306.255868 85.872975 
L 307.594931 85.851879 
L 308.933994 85.840291 
L 310.273058 85.833749 
L 311.612121 85.829963 
L 312.951185 85.827722 
L 314.290248 85.826366 
L 315.629311 85.82553 
L 316.968375 85.825005 
L 318.307438 85.82467 
L 319.646501 85.824453 
L 320.985565 85.82431 
L 322.324628 85.824215 
L 323.663691 85.824151 
L 325.002755 85.824107 
L 326.341818 85.824076 
L 327.680882 85.824055 
L 329.019945 85.82404 
L 330.359008 85.82403 
L 331.698072 85.824022 
L 333.037135 85.824016 
L 334.376198 85.824012 
L 335.715262 85.824009 
L 337.054325 85.824007 
L 338.393388 85.824005 
L 339.732452 85.824004 
L 341.071515 85.824003 
L 342.410579 85.824003 
L 343.749642 85.824002 
L 345.088705 85.824002 
L 346.427769 85.824001 
L 347.766832 85.824001 
L 349.105895 85.824001 
L 350.444959 85.824001 
L 351.784022 85.824001 
L 353.123085 85.824 
L 354.462149 85.824 
L 355.801212 85.824 
L 357.140275 85.824 
L 358.479339 85.824 
L 359.818402 85.824 
L 361.157466 85.824 
L 362.496529 85.824 
L 363.835592 85.824 
L 365.174656 85.824 
L 366.513719 85.824 
L 367.852782 85.824 
L 369.191846 85.824 
L 370.530909 85.824 
L 371.869972 85.824 
L 373.209036 85.824 
L 374.548099 85.824 
L 375.887163 85.824 
L 377.226226 85.824 
L 378.565289 85.824 
L 379.904353 85.824 
L 381.243416 85.824 
L 382.582479 85.824 
L 383.921543 85.824 
L 385.260606 85.824 
L 386.599669 85.824 
L 387.938733 85.824 
L 389.277796 85.824 
L 390.61686 85.824 
L 391.955923 85.824 
L 393.294986 85.824 
L 394.63405 85.824 
L 395.973113 85.824 
L 397.312176 85.824 
L 398.65124 85.824 
L 399.990303 85.824 
L 401.329366 85.824 
L 402.66843 85.824 
L 404.007493 85.824 
L 405.346556 85.824 
L 406.68562 85.824 
L 408.024683 85.824 
L 409.363747 85.824 
L 410.70281 85.824 
L 412.041873 85.824 
L 413.380937 85.824 
L 414.72 85.824 
" clip-path="url(#p4c21ed124e)" style="fill: none; stroke: #e377c2; stroke-width: 1.5; stroke-linecap: square"/>
   </g>
   <g id="line2d_28">
    <path d="M 292.6742 346.6 
L 292.865234 280.677069 
L 294.204298 150.707973 
L 295.543361 109.59659 
L 296.882424 95.26205 
L 298.221488 89.836263 
L 299.560551 87.633263 
L 300.899614 86.682848 
L 302.238678 86.250511 
L 303.577741 86.044447 
L 304.916804 85.942076 
L 306.255868 85.8893 
L 307.594931 85.861172 
L 308.933994 85.845721 
L 310.273058 85.836999 
L 311.612121 85.831951 
L 312.951185 85.828962 
L 314.290248 85.827154 
L 315.629311 85.82604 
L 316.968375 85.82534 
L 318.307438 85.824893 
L 319.646501 85.824604 
L 320.985565 85.824414 
L 322.324628 85.824287 
L 323.663691 85.824201 
L 325.002755 85.824142 
L 326.341818 85.824102 
L 327.680882 85.824073 
L 329.019945 85.824054 
L 330.359008 85.824039 
L 331.698072 85.824029 
L 333.037135 85.824022 
L 334.376198 85.824016 
L 335.715262 85.824012 
L 337.054325 85.824009 
L 338.393388 85.824007 
L 339.732452 85.824006 
L 341.071515 85.824004 
L 342.410579 85.824003 
L 343.749642 85.824003 
L 345.088705 85.824002 
L 346.427769 85.824002 
L 347.766832 85.824001 
L 349.105895 85.824001 
L 350.444959 85.824001 
L 351.784022 85.824001 
L 353.123085 85.824001 
L 354.462149 85.824 
L 355.801212 85.824 
L 357.140275 85.824 
L 358.479339 85.824 
L 359.818402 85.824 
L 361.157466 85.824 
L 362.496529 85.824 
L 363.835592 85.824 
L 365.174656 85.824 
L 366.513719 85.824 
L 367.852782 85.824 
L 369.191846 85.824 
L 370.530909 85.824 
L 371.869972 85.824 
L 373.209036 85.824 
L 374.548099 85.824 
L 375.887163 85.824 
L 377.226226 85.824 
L 378.565289 85.824 
L 379.904353 85.824 
L 381.243416 85.824 
L 382.582479 85.824 
L 383.921543 85.824 
L 385.260606 85.824 
L 386.599669 85.824 
L 387.938733 85.824 
L 389.277796 85.824 
L 390.61686 85.824 
L 391.955923 85.824 
L 393.294986 85.824 
L 394.63405 85.824 
L 395.973113 85.824 
L 397.312176 85.824 
L 398.65124 85.824 
L 399.990303 85.824 
L 401.329366 85.824 
L 402.66843 85.824 
L 404.007493 85.824 
L 405.346556 85.824 
L 406.68562 85.824 
L 408.024683 85.824 
L 409.363747 85.824 
L 410.70281 85.824 
L 412.041873 85.824 
L 413.380937 85.824 
L 414.72 85.824 
" clip-path="url(#p4c21ed124e)" style="fill: none; stroke: #7f7f7f; stroke-width: 1.5; stroke-linecap: square"/>
   </g>
   <g id="line2d_29">
    <path d="M 287.429666 346.6 
L 287.508981 260.965585 
L 288.848044 112.484485 
L 290.187107 91.040752 
L 291.526171 87.060762 
L 292.865234 86.165162 
L 294.204298 85.930386 
L 295.543361 85.860711 
L 296.882424 85.837793 
L 298.221488 85.829572 
L 299.560551 85.826396 
L 300.899614 85.825088 
L 302.238678 85.824518 
L 303.577741 85.824257 
L 304.916804 85.824133 
L 306.255868 85.824071 
L 307.594931 85.824039 
L 308.933994 85.824022 
L 310.273058 85.824013 
L 311.612121 85.824008 
L 312.951185 85.824005 
L 314.290248 85.824003 
L 315.629311 85.824002 
L 316.968375 85.824001 
L 318.307438 85.824001 
L 319.646501 85.824 
L 320.985565 85.824 
L 322.324628 85.824 
L 323.663691 85.824 
L 325.002755 85.824 
L 326.341818 85.824 
L 327.680882 85.824 
L 329.019945 85.824 
L 330.359008 85.824 
L 331.698072 85.824 
L 333.037135 85.824 
L 334.376198 85.824 
L 335.715262 85.824 
L 337.054325 85.824 
L 338.393388 85.824 
L 339.732452 85.824 
L 341.071515 85.824 
L 342.410579 85.824 
L 343.749642 85.824 
L 345.088705 85.824 
L 346.427769 85.824 
L 347.766832 85.824 
L 349.105895 85.824 
L 350.444959 85.824 
L 351.784022 85.824 
L 353.123085 85.824 
L 354.462149 85.824 
L 355.801212 85.824 
L 357.140275 85.824 
L 358.479339 85.824 
L 359.818402 85.824 
L 361.157466 85.824 
L 362.496529 85.824 
L 363.835592 85.824 
L 365.174656 85.824 
L 366.513719 85.824 
L 367.852782 85.824 
L 369.191846 85.824 
L 370.530909 85.824 
L 371.869972 85.824 
L 373.209036 85.824 
L 374.548099 85.824 
L 375.887163 85.824 
L 377.226226 85.824 
L 378.565289 85.824 
L 379.904353 85.824 
L 381.243416 85.824 
L 382.582479 85.824 
L 383.921543 85.824 
L 385.260606 85.824 
L 386.599669 85.824 
L 387.938733 85.824 
L 389.277796 85.824 
L 390.61686 85.824 
L 391.955923 85.824 
L 393.294986 85.824 
L 394.63405 85.824 
L 395.973113 85.824 
L 397.312176 85.824 
L 398.65124 85.824 
L 399.990303 85.824 
L 401.329366 85.824 
L 402.66843 85.824 
L 404.007493 85.824 
L 405.346556 85.824 
L 406.68562 85.824 
L 408.024683 85.824 
L 409.363747 85.824 
L 410.70281 85.824 
L 412.041873 85.824 
L 413.380937 85.824 
L 414.72 85.824 
" clip-path="url(#p4c21ed124e)" style="fill: none; stroke: #bcbd22; stroke-width: 1.5; stroke-linecap: square"/>
   </g>
   <g id="line2d_30">
    <path d="M 287.912587 346.6 
L 288.848044 139.144971 
L 290.187107 96.257505 
L 291.526171 88.297524 
L 292.865234 86.506324 
L 294.204298 86.036772 
L 295.543361 85.897422 
L 296.882424 85.851586 
L 298.221488 85.835143 
L 299.560551 85.828792 
L 300.899614 85.826176 
L 302.238678 85.825036 
L 303.577741 85.824515 
L 304.916804 85.824266 
L 306.255868 85.824142 
L 307.594931 85.824078 
L 308.933994 85.824044 
L 310.273058 85.824026 
L 311.612121 85.824015 
L 312.951185 85.824009 
L 314.290248 85.824006 
L 315.629311 85.824004 
L 316.968375 85.824002 
L 318.307438 85.824002 
L 319.646501 85.824001 
L 320.985565 85.824001 
L 322.324628 85.824 
L 323.663691 85.824 
L 325.002755 85.824 
L 326.341818 85.824 
L 327.680882 85.824 
L 329.019945 85.824 
L 330.359008 85.824 
L 331.698072 85.824 
L 333.037135 85.824 
L 334.376198 85.824 
L 335.715262 85.824 
L 337.054325 85.824 
L 338.393388 85.824 
L 339.732452 85.824 
L 341.071515 85.824 
L 342.410579 85.824 
L 343.749642 85.824 
L 345.088705 85.824 
L 346.427769 85.824 
L 347.766832 85.824 
L 349.105895 85.824 
L 350.444959 85.824 
L 351.784022 85.824 
L 353.123085 85.824 
L 354.462149 85.824 
L 355.801212 85.824 
L 357.140275 85.824 
L 358.479339 85.824 
L 359.818402 85.824 
L 361.157466 85.824 
L 362.496529 85.824 
L 363.835592 85.824 
L 365.174656 85.824 
L 366.513719 85.824 
L 367.852782 85.824 
L 369.191846 85.824 
L 370.530909 85.824 
L 371.869972 85.824 
L 373.209036 85.824 
L 374.548099 85.824 
L 375.887163 85.824 
L 377.226226 85.824 
L 378.565289 85.824 
L 379.904353 85.824 
L 381.243416 85.824 
L 382.582479 85.824 
L 383.921543 85.824 
L 385.260606 85.824 
L 386.599669 85.824 
L 387.938733 85.824 
L 389.277796 85.824 
L 390.61686 85.824 
L 391.955923 85.824 
L 393.294986 85.824 
L 394.63405 85.824 
L 395.973113 85.824 
L 397.312176 85.824 
L 398.65124 85.824 
L 399.990303 85.824 
L 401.329366 85.824 
L 402.66843 85.824 
L 404.007493 85.824 
L 405.346556 85.824 
L 406.68562 85.824 
L 408.024683 85.824 
L 409.363747 85.824 
L 410.70281 85.824 
L 412.041873 85.824 
L 413.380937 85.824 
L 414.72 85.824 
" clip-path="url(#p4c21ed124e)" style="fill: none; stroke: #17becf; stroke-width: 1.5; stroke-linecap: square"/>
   </g>
   <g id="line2d_31">
    <path d="M 288.304551 346.6 
L 288.848044 165.805456 
L 290.187107 101.474257 
L 291.526171 89.534286 
L 292.865234 86.847486 
L 294.204298 86.143159 
L 295.543361 85.934133 
L 296.882424 85.865379 
L 298.221488 85.840715 
L 299.560551 85.831187 
L 300.899614 85.827263 
L 302.238678 85.825554 
L 303.577741 85.824772 
L 304.916804 85.824399 
L 306.255868 85.824213 
L 307.594931 85.824117 
L 308.933994 85.824066 
L 310.273058 85.824038 
L 311.612121 85.824023 
L 312.951185 85.824014 
L 314.290248 85.824009 
L 315.629311 85.824005 
L 316.968375 85.824003 
L 318.307438 85.824002 
L 319.646501 85.824001 
L 320.985565 85.824001 
L 322.324628 85.824001 
L 323.663691 85.824 
L 325.002755 85.824 
L 326.341818 85.824 
L 327.680882 85.824 
L 329.019945 85.824 
L 330.359008 85.824 
L 331.698072 85.824 
L 333.037135 85.824 
L 334.376198 85.824 
L 335.715262 85.824 
L 337.054325 85.824 
L 338.393388 85.824 
L 339.732452 85.824 
L 341.071515 85.824 
L 342.410579 85.824 
L 343.749642 85.824 
L 345.088705 85.824 
L 346.427769 85.824 
L 347.766832 85.824 
L 349.105895 85.824 
L 350.444959 85.824 
L 351.784022 85.824 
L 353.123085 85.824 
L 354.462149 85.824 
L 355.801212 85.824 
L 357.140275 85.824 
L 358.479339 85.824 
L 359.818402 85.824 
L 361.157466 85.824 
L 362.496529 85.824 
L 363.835592 85.824 
L 365.174656 85.824 
L 366.513719 85.824 
L 367.852782 85.824 
L 369.191846 85.824 
L 370.530909 85.824 
L 371.869972 85.824 
L 373.209036 85.824 
L 374.548099 85.824 
L 375.887163 85.824 
L 377.226226 85.824 
L 378.565289 85.824 
L 379.904353 85.824 
L 381.243416 85.824 
L 382.582479 85.824 
L 383.921543 85.824 
L 385.260606 85.824 
L 386.599669 85.824 
L 387.938733 85.824 
L 389.277796 85.824 
L 390.61686 85.824 
L 391.955923 85.824 
L 393.294986 85.824 
L 394.63405 85.824 
L 395.973113 85.824 
L 397.312176 85.824 
L 398.65124 85.824 
L 399.990303 85.824 
L 401.329366 85.824 
L 402.66843 85.824 
L 404.007493 85.824 
L 405.346556 85.824 
L 406.68562 85.824 
L 408.024683 85.824 
L 409.363747 85.824 
L 410.70281 85.824 
L 412.041873 85.824 
L 413.380937 85.824 
L 414.72 85.824 
" clip-path="url(#p4c21ed124e)" style="fill: none; stroke: #1f77b4; stroke-width: 1.5; stroke-linecap: square"/>
   </g>
   <g id="line2d_32">
    <path d="M 288.500533 346.6 
L 288.848044 192.465941 
L 290.187107 106.69101 
L 291.526171 90.771048 
L 292.865234 87.188648 
L 294.204298 86.249545 
L 295.543361 85.970844 
L 296.882424 85.879172 
L 298.221488 85.846287 
L 299.560551 85.833583 
L 300.899614 85.828351 
L 302.238678 85.826072 
L 303.577741 85.82503 
L 304.916804 85.824531 
L 306.255868 85.824284 
L 307.594931 85.824156 
L 308.933994 85.824088 
L 310.273058 85.824051 
L 311.612121 85.82403 
L 312.951185 85.824018 
L 314.290248 85.824011 
L 315.629311 85.824007 
L 316.968375 85.824005 
L 318.307438 85.824003 
L 319.646501 85.824002 
L 320.985565 85.824001 
L 322.324628 85.824001 
L 323.663691 85.824001 
L 325.002755 85.824 
L 326.341818 85.824 
L 327.680882 85.824 
L 329.019945 85.824 
L 330.359008 85.824 
L 331.698072 85.824 
L 333.037135 85.824 
L 334.376198 85.824 
L 335.715262 85.824 
L 337.054325 85.824 
L 338.393388 85.824 
L 339.732452 85.824 
L 341.071515 85.824 
L 342.410579 85.824 
L 343.749642 85.824 
L 345.088705 85.824 
L 346.427769 85.824 
L 347.766832 85.824 
L 349.105895 85.824 
L 350.444959 85.824 
L 351.784022 85.824 
L 353.123085 85.824 
L 354.462149 85.824 
L 355.801212 85.824 
L 357.140275 85.824 
L 358.479339 85.824 
L 359.818402 85.824 
L 361.157466 85.824 
L 362.496529 85.824 
L 363.835592 85.824 
L 365.174656 85.824 
L 366.513719 85.824 
L 367.852782 85.824 
L 369.191846 85.824 
L 370.530909 85.824 
L 371.869972 85.824 
L 373.209036 85.824 
L 374.548099 85.824 
L 375.887163 85.824 
L 377.226226 85.824 
L 378.565289 85.824 
L 379.904353 85.824 
L 381.243416 85.824 
L 382.582479 85.824 
L 383.921543 85.824 
L 385.260606 85.824 
L 386.599669 85.824 
L 387.938733 85.824 
L 389.277796 85.824 
L 390.61686 85.824 
L 391.955923 85.824 
L 393.294986 85.824 
L 394.63405 85.824 
L 395.973113 85.824 
L 397.312176 85.824 
L 398.65124 85.824 
L 399.990303 85.824 
L 401.329366 85.824 
L 402.66843 85.824 
L 404.007493 85.824 
L 405.346556 85.824 
L 406.68562 85.824 
L 408.024683 85.824 
L 409.363747 85.824 
L 410.70281 85.824 
L 412.041873 85.824 
L 413.380937 85.824 
L 414.72 85.824 
" clip-path="url(#p4c21ed124e)" style="fill: none; stroke: #ff7f0e; stroke-width: 1.5; stroke-linecap: square"/>
   </g>
   <g id="line2d_33">
    <path d="M 285.816323 346.6 
L 286.169917 133.811581 
L 287.508981 90.381792 
L 288.848044 86.446086 
L 290.187107 85.934744 
L 291.526171 85.848153 
L 292.865234 85.830183 
L 294.204298 85.825802 
L 295.543361 85.824585 
L 296.882424 85.824208 
L 298.221488 85.82408 
L 299.560551 85.824033 
L 300.899614 85.824014 
L 302.238678 85.824006 
L 303.577741 85.824003 
L 304.916804 85.824002 
L 306.255868 85.824001 
L 307.594931 85.824 
L 308.933994 85.824 
L 310.273058 85.824 
L 311.612121 85.824 
L 312.951185 85.824 
L 314.290248 85.824 
L 315.629311 85.824 
L 316.968375 85.824 
L 318.307438 85.824 
L 319.646501 85.824 
L 320.985565 85.824 
L 322.324628 85.824 
L 323.663691 85.824 
L 325.002755 85.824 
L 326.341818 85.824 
L 327.680882 85.824 
L 329.019945 85.824 
L 330.359008 85.824 
L 331.698072 85.824 
L 333.037135 85.824 
L 334.376198 85.824 
L 335.715262 85.824 
L 337.054325 85.824 
L 338.393388 85.824 
L 339.732452 85.824 
L 341.071515 85.824 
L 342.410579 85.824 
L 343.749642 85.824 
L 345.088705 85.824 
L 346.427769 85.824 
L 347.766832 85.824 
L 349.105895 85.824 
L 350.444959 85.824 
L 351.784022 85.824 
L 353.123085 85.824 
L 354.462149 85.824 
L 355.801212 85.824 
L 357.140275 85.824 
L 358.479339 85.824 
L 359.818402 85.824 
L 361.157466 85.824 
L 362.496529 85.824 
L 363.835592 85.824 
L 365.174656 85.824 
L 366.513719 85.824 
L 367.852782 85.824 
L 369.191846 85.824 
L 370.530909 85.824 
L 371.869972 85.824 
L 373.209036 85.824 
L 374.548099 85.824 
L 375.887163 85.824 
L 377.226226 85.824 
L 378.565289 85.824 
L 379.904353 85.824 
L 381.243416 85.824 
L 382.582479 85.824 
L 383.921543 85.824 
L 385.260606 85.824 
L 386.599669 85.824 
L 387.938733 85.824 
L 389.277796 85.824 
L 390.61686 85.824 
L 391.955923 85.824 
L 393.294986 85.824 
L 394.63405 85.824 
L 395.973113 85.824 
L 397.312176 85.824 
L 398.65124 85.824 
L 399.990303 85.824 
L 401.329366 85.824 
L 402.66843 85.824 
L 404.007493 85.824 
L 405.346556 85.824 
L 406.68562 85.824 
L 408.024683 85.824 
L 409.363747 85.824 
L 410.70281 85.824 
L 412.041873 85.824 
L 413.380937 85.824 
L 414.72 85.824 
" clip-path="url(#p4c21ed124e)" style="fill: none; stroke: #2ca02c; stroke-width: 1.5; stroke-linecap: square"/>
   </g>
   <g id="line2d_34">
    <path d="M 286.032991 346.6 
L 286.169917 181.799161 
L 287.508981 94.939584 
L 288.848044 87.068172 
L 290.187107 86.045488 
L 291.526171 85.872306 
L 292.865234 85.836367 
L 294.204298 85.827605 
L 295.543361 85.825169 
L 296.882424 85.824415 
L 298.221488 85.824159 
L 299.560551 85.824065 
L 300.899614 85.824028 
L 302.238678 85.824013 
L 303.577741 85.824006 
L 304.916804 85.824003 
L 306.255868 85.824002 
L 307.594931 85.824001 
L 308.933994 85.824 
L 310.273058 85.824 
L 311.612121 85.824 
L 312.951185 85.824 
L 314.290248 85.824 
L 315.629311 85.824 
L 316.968375 85.824 
L 318.307438 85.824 
L 319.646501 85.824 
L 320.985565 85.824 
L 322.324628 85.824 
L 323.663691 85.824 
L 325.002755 85.824 
L 326.341818 85.824 
L 327.680882 85.824 
L 329.019945 85.824 
L 330.359008 85.824 
L 331.698072 85.824 
L 333.037135 85.824 
L 334.376198 85.824 
L 335.715262 85.824 
L 337.054325 85.824 
L 338.393388 85.824 
L 339.732452 85.824 
L 341.071515 85.824 
L 342.410579 85.824 
L 343.749642 85.824 
L 345.088705 85.824 
L 346.427769 85.824 
L 347.766832 85.824 
L 349.105895 85.824 
L 350.444959 85.824 
L 351.784022 85.824 
L 353.123085 85.824 
L 354.462149 85.824 
L 355.801212 85.824 
L 357.140275 85.824 
L 358.479339 85.824 
L 359.818402 85.824 
L 361.157466 85.824 
L 362.496529 85.824 
L 363.835592 85.824 
L 365.174656 85.824 
L 366.513719 85.824 
L 367.852782 85.824 
L 369.191846 85.824 
L 370.530909 85.824 
L 371.869972 85.824 
L 373.209036 85.824 
L 374.548099 85.824 
L 375.887163 85.824 
L 377.226226 85.824 
L 378.565289 85.824 
L 379.904353 85.824 
L 381.243416 85.824 
L 382.582479 85.824 
L 383.921543 85.824 
L 385.260606 85.824 
L 386.599669 85.824 
L 387.938733 85.824 
L 389.277796 85.824 
L 390.61686 85.824 
L 391.955923 85.824 
L 393.294986 85.824 
L 394.63405 85.824 
L 395.973113 85.824 
L 397.312176 85.824 
L 398.65124 85.824 
L 399.990303 85.824 
L 401.329366 85.824 
L 402.66843 85.824 
L 404.007493 85.824 
L 405.346556 85.824 
L 406.68562 85.824 
L 408.024683 85.824 
L 409.363747 85.824 
L 410.70281 85.824 
L 412.041873 85.824 
L 413.380937 85.824 
L 414.72 85.824 
" clip-path="url(#p4c21ed124e)" style="fill: none; stroke: #d62728; stroke-width: 1.5; stroke-linecap: square"/>
   </g>
   <g id="line2d_35">
    <path d="M 286.105214 346.6 
L 286.169917 229.786742 
L 287.508981 99.497376 
L 288.848044 87.690258 
L 290.187107 86.156232 
L 291.526171 85.89646 
L 292.865234 85.84255 
L 294.204298 85.829407 
L 295.543361 85.825754 
L 296.882424 85.824623 
L 298.221488 85.824239 
L 299.560551 85.824098 
L 300.899614 85.824042 
L 302.238678 85.824019 
L 303.577741 85.824009 
L 304.916804 85.824005 
L 306.255868 85.824002 
L 307.594931 85.824001 
L 308.933994 85.824001 
L 310.273058 85.824 
L 311.612121 85.824 
L 312.951185 85.824 
L 314.290248 85.824 
L 315.629311 85.824 
L 316.968375 85.824 
L 318.307438 85.824 
L 319.646501 85.824 
L 320.985565 85.824 
L 322.324628 85.824 
L 323.663691 85.824 
L 325.002755 85.824 
L 326.341818 85.824 
L 327.680882 85.824 
L 329.019945 85.824 
L 330.359008 85.824 
L 331.698072 85.824 
L 333.037135 85.824 
L 334.376198 85.824 
L 335.715262 85.824 
L 337.054325 85.824 
L 338.393388 85.824 
L 339.732452 85.824 
L 341.071515 85.824 
L 342.410579 85.824 
L 343.749642 85.824 
L 345.088705 85.824 
L 346.427769 85.824 
L 347.766832 85.824 
L 349.105895 85.824 
L 350.444959 85.824 
L 351.784022 85.824 
L 353.123085 85.824 
L 354.462149 85.824 
L 355.801212 85.824 
L 357.140275 85.824 
L 358.479339 85.824 
L 359.818402 85.824 
L 361.157466 85.824 
L 362.496529 85.824 
L 363.835592 85.824 
L 365.174656 85.824 
L 366.513719 85.824 
L 367.852782 85.824 
L 369.191846 85.824 
L 370.530909 85.824 
L 371.869972 85.824 
L 373.209036 85.824 
L 374.548099 85.824 
L 375.887163 85.824 
L 377.226226 85.824 
L 378.565289 85.824 
L 379.904353 85.824 
L 381.243416 85.824 
L 382.582479 85.824 
L 383.921543 85.824 
L 385.260606 85.824 
L 386.599669 85.824 
L 387.938733 85.824 
L 389.277796 85.824 
L 390.61686 85.824 
L 391.955923 85.824 
L 393.294986 85.824 
L 394.63405 85.824 
L 395.973113 85.824 
L 397.312176 85.824 
L 398.65124 85.824 
L 399.990303 85.824 
L 401.329366 85.824 
L 402.66843 85.824 
L 404.007493 85.824 
L 405.346556 85.824 
L 406.68562 85.824 
L 408.024683 85.824 
L 409.363747 85.824 
L 410.70281 85.824 
L 412.041873 85.824 
L 413.380937 85.824 
L 414.72 85.824 
" clip-path="url(#p4c21ed124e)" style="fill: none; stroke: #9467bd; stroke-width: 1.5; stroke-linecap: square"/>
   </g>
   <g id="line2d_36">
    <path d="M 286.141325 346.6 
L 286.169917 277.774323 
L 287.508981 104.055169 
L 288.848044 88.312344 
L 290.187107 86.266976 
L 291.526171 85.920613 
L 292.865234 85.848734 
L 294.204298 85.831209 
L 295.543361 85.826339 
L 296.882424 85.82483 
L 298.221488 85.824318 
L 299.560551 85.82413 
L 300.899614 85.824057 
L 302.238678 85.824026 
L 303.577741 85.824012 
L 304.916804 85.824006 
L 306.255868 85.824003 
L 307.594931 85.824002 
L 308.933994 85.824001 
L 310.273058 85.824001 
L 311.612121 85.824 
L 312.951185 85.824 
L 314.290248 85.824 
L 315.629311 85.824 
L 316.968375 85.824 
L 318.307438 85.824 
L 319.646501 85.824 
L 320.985565 85.824 
L 322.324628 85.824 
L 323.663691 85.824 
L 325.002755 85.824 
L 326.341818 85.824 
L 327.680882 85.824 
L 329.019945 85.824 
L 330.359008 85.824 
L 331.698072 85.824 
L 333.037135 85.824 
L 334.376198 85.824 
L 335.715262 85.824 
L 337.054325 85.824 
L 338.393388 85.824 
L 339.732452 85.824 
L 341.071515 85.824 
L 342.410579 85.824 
L 343.749642 85.824 
L 345.088705 85.824 
L 346.427769 85.824 
L 347.766832 85.824 
L 349.105895 85.824 
L 350.444959 85.824 
L 351.784022 85.824 
L 353.123085 85.824 
L 354.462149 85.824 
L 355.801212 85.824 
L 357.140275 85.824 
L 358.479339 85.824 
L 359.818402 85.824 
L 361.157466 85.824 
L 362.496529 85.824 
L 363.835592 85.824 
L 365.174656 85.824 
L 366.513719 85.824 
L 367.852782 85.824 
L 369.191846 85.824 
L 370.530909 85.824 
L 371.869972 85.824 
L 373.209036 85.824 
L 374.548099 85.824 
L 375.887163 85.824 
L 377.226226 85.824 
L 378.565289 85.824 
L 379.904353 85.824 
L 381.243416 85.824 
L 382.582479 85.824 
L 383.921543 85.824 
L 385.260606 85.824 
L 386.599669 85.824 
L 387.938733 85.824 
L 389.277796 85.824 
L 390.61686 85.824 
L 391.955923 85.824 
L 393.294986 85.824 
L 394.63405 85.824 
L 395.973113 85.824 
L 397.312176 85.824 
L 398.65124 85.824 
L 399.990303 85.824 
L 401.329366 85.824 
L 402.66843 85.824 
L 404.007493 85.824 
L 405.346556 85.824 
L 406.68562 85.824 
L 408.024683 85.824 
L 409.363747 85.824 
L 410.70281 85.824 
L 412.041873 85.824 
L 413.380937 85.824 
L 414.72 85.824 
" clip-path="url(#p4c21ed124e)" style="fill: none; stroke: #8c564b; stroke-width: 1.5; stroke-linecap: square"/>
   </g>
   <g id="patch_8">
    <path d="M 252.392727 307.584 
L 252.392727 41.472 
" style="fill: none; stroke: #000000; stroke-width: 0.8; stroke-linejoin: miter; stroke-linecap: square"/>
   </g>
   <g id="patch_9">
    <path d="M 414.72 307.584 
L 414.72 41.472 
" style="fill: none; stroke: #000000; stroke-width: 0.8; stroke-linejoin: miter; stroke-linecap: square"/>
   </g>
   <g id="patch_10">
    <path d="M 252.392727 307.584 
L 414.72 307.584 
" style="fill: none; stroke: #000000; stroke-width: 0.8; stroke-linejoin: miter; stroke-linecap: square"/>
   </g>
   <g id="patch_11">
    <path d="M 252.392727 41.472 
L 414.72 41.472 
" style="fill: none; stroke: #000000; stroke-width: 0.8; stroke-linejoin: miter; stroke-linecap: square"/>
   </g>
  </g>
  <g id="text_21">
   <!-- t = 3.3000000000000016 -->
   <g transform="translate(152.401875 16.030125) scale(0.12 -0.12)">
    <defs>
     <path id="DejaVuSans-74" d="M 1172 4494 
L 1172 3500 
L 2356 3500 
L 2356 3053 
L 1172 3053 
L 1172 1153 
Q 1172 725 1289 603 
Q 1406 481 1766 481 
L 2356 481 
L 2356 0 
L 1766 0 
Q 1100 0 847 248 
Q 594 497 594 1153 
L 594 3053 
L 172 3053 
L 172 3500 
L 594 3500 
L 594 4494 
L 1172 4494 
z
" transform="scale(0.015625)"/>
     <path id="DejaVuSans-20" transform="scale(0.015625)"/>
     <path id="DejaVuSans-3d" d="M 678 2906 
L 4684 2906 
L 4684 2381 
L 678 2381 
L 678 2906 
z
M 678 1631 
L 4684 1631 
L 4684 1100 
L 678 1100 
L 678 1631 
z
" transform="scale(0.015625)"/>
     <path id="DejaVuSans-36" d="M 2113 2584 
Q 1688 2584 1439 2293 
Q 1191 2003 1191 1497 
Q 1191 994 1439 701 
Q 1688 409 2113 409 
Q 2538 409 2786 701 
Q 3034 994 3034 1497 
Q 3034 2003 2786 2293 
Q 2538 2584 2113 2584 
z
M 3366 4563 
L 3366 3988 
Q 3128 4100 2886 4159 
Q 2644 4219 2406 4219 
Q 1781 4219 1451 3797 
Q 1122 3375 1075 2522 
Q 1259 2794 1537 2939 
Q 1816 3084 2150 3084 
Q 2853 3084 3261 2657 
Q 3669 2231 3669 1497 
Q 3669 778 3244 343 
Q 2819 -91 2113 -91 
Q 1303 -91 875 529 
Q 447 1150 447 2328 
Q 447 3434 972 4092 
Q 1497 4750 2381 4750 
Q 2619 4750 2861 4703 
Q 3103 4656 3366 4563 
z
" transform="scale(0.015625)"/>
    </defs>
    <use xlink:href="#DejaVuSans-74"/>
    <use xlink:href="#DejaVuSans-20" x="39.208984"/>
    <use xlink:href="#DejaVuSans-3d" x="70.996094"/>
    <use xlink:href="#DejaVuSans-20" x="154.785156"/>
    <use xlink:href="#DejaVuSans-33" x="186.572266"/>
    <use xlink:href="#DejaVuSans-2e" x="250.195312"/>
    <use xlink:href="#DejaVuSans-33" x="281.982422"/>
    <use xlink:href="#DejaVuSans-30" x="345.605469"/>
    <use xlink:href="#DejaVuSans-30" x="409.228516"/>
    <use xlink:href="#DejaVuSans-30" x="472.851562"/>
    <use xlink:href="#DejaVuSans-30" x="536.474609"/>
    <use xlink:href="#DejaVuSans-30" x="600.097656"/>
    <use xlink:href="#DejaVuSans-30" x="663.720703"/>
    <use xlink:href="#DejaVuSans-30" x="727.34375"/>
    <use xlink:href="#DejaVuSans-30" x="790.966797"/>
    <use xlink:href="#DejaVuSans-30" x="854.589844"/>
    <use xlink:href="#DejaVuSans-30" x="918.212891"/>
    <use xlink:href="#DejaVuSans-30" x="981.835938"/>
    <use xlink:href="#DejaVuSans-30" x="1045.458984"/>
    <use xlink:href="#DejaVuSans-30" x="1109.082031"/>
    <use xlink:href="#DejaVuSans-31" x="1172.705078"/>
    <use xlink:href="#DejaVuSans-36" x="1236.328125"/>
   </g>
  </g>
 </g>
 <defs>
  <clipPath id="p93d9fe0a89">
   <rect x="57.6" y="41.472" width="162.327273" height="266.112"/>
  </clipPath>
  <clipPath id="p4c21ed124e">
   <rect x="252.392727" y="41.472" width="162.327273" height="266.112"/>
  </clipPath>
 </defs>
</svg>
