<?xml version="1.0" encoding="utf-8" standalone="no"?>
<!DOCTYPE svg PUBLIC "-//W3C//DTD SVG 1.1//EN"
  "http://www.w3.org/Graphics/SVG/1.1/DTD/svg11.dtd">
<svg xmlns:xlink="http://www.w3.org/1999/xlink" width="460.8pt" height="345.6pt" viewBox="0 0 460.8 345.6" xmlns="http://www.w3.org/2000/svg" version="1.1">
 <metadata>
  <rdf:RDF xmlns:dc="http://purl.org/dc/elements/1.1/" xmlns:cc="http://creativecommons.org/ns#" xmlns:rdf="http://www.w3.org/1999/02/22-rdf-syntax-ns#">
   <cc:Work>
    <dc:type rdf:resource="http://purl.org/dc/dcmitype/StillImage"/>
    <dc:date>2023-01-17T14:53:43.105779</dc:date>
    <dc:format>image/svg+xml</dc:format>
    <dc:creator>
     <cc:Agent>
      <dc:title>Matplotlib v3.6.3, https://matplotlib.org/</dc:title>
     </cc:Agent>
    </dc:creator>
   </cc:Work>
  </rdf:RDF>
 </metadata>
 <defs>
  <style type="text/css">*{stroke-linejoin: round; stroke-linecap: butt}</style>
 </defs>
 <g id="figure_1">
  <g id="patch_1">
   <path d="M 0 345.6 
L 460.8 345.6 
L 460.8 0 
L 0 0 
z
" style="fill: #ffffff"/>
  </g>
  <g id="axes_1">
   <g id="patch_2">
    <path d="M 57.6 307.584 
L 219.927273 307.584 
L 219.927273 41.472 
L 57.6 41.472 
z
" style="fill: #ffffff"/>
   </g>
   <g id="Quiver_1">
    <path d="M 65.085886 295.058507 
L 75.324921 297.618266 
L 75.110175 296.651908 
L 79.08298 299.014117 
L 74.465936 299.228863 
L 75.110175 298.477251 
L 64.871139 295.917493 
L 65.085886 295.058507 
" clip-path="url(#p8a2e383d8a)"/>
    <path d="M 79.867587 295.065441 
L 87.348134 297.403113 
L 87.189675 296.425946 
L 91.019112 299.014117 
L 86.397378 298.961297 
L 87.084035 298.24823 
L 79.603488 295.910559 
L 79.867587 295.065441 
" clip-path="url(#p8a2e383d8a)"/>
    <path d="M 94.662835 295.079344 
L 99.447611 297.073001 
L 99.379502 296.085415 
L 102.955243 299.014117 
L 98.357862 298.537352 
L 99.107065 297.890313 
L 94.322289 295.896656 
L 94.662835 295.079344 
" clip-path="url(#p8a2e383d8a)"/>
    <path d="M 109.484223 295.112582 
L 111.747249 296.526973 
L 111.841103 295.541501 
L 114.891374 299.014117 
L 110.433286 297.794009 
L 111.277976 297.277809 
L 109.014951 295.863418 
L 109.484223 295.112582 
" clip-path="url(#p8a2e383d8a)"/>
    <path d="M 124.352311 295.211441 
L 124.684171 295.626267 
L 125.09901 294.727449 
L 126.827505 299.014117 
L 123.024816 296.386805 
L 123.992773 296.179385 
L 123.660913 295.764559 
L 124.352311 295.211441 
" clip-path="url(#p8a2e383d8a)"/>
    <path d="M 139.116248 295.488 
L 139.116248 295.840612 
L 139.821471 295.488 
L 138.763636 299.014117 
L 137.705801 295.488 
L 138.411025 295.840612 
L 138.411025 295.488 
L 139.116248 295.488 
" clip-path="url(#p8a2e383d8a)"/>
    <path d="M 153.86636 295.764559 
L 153.534499 296.179385 
L 154.502457 296.386805 
L 150.699768 299.014117 
L 152.428263 294.727449 
L 152.843101 295.626267 
L 153.174962 295.211441 
L 153.86636 295.764559 
" clip-path="url(#p8a2e383d8a)"/>
    <path d="M 168.512322 295.863418 
L 166.249297 297.277809 
L 167.093987 297.794009 
L 162.635899 299.014117 
L 165.68617 295.541501 
L 165.780024 296.526973 
L 168.04305 295.112582 
L 168.512322 295.863418 
" clip-path="url(#p8a2e383d8a)"/>
    <path d="M 183.204984 295.896656 
L 178.420208 297.890313 
L 179.169411 298.537352 
L 174.57203 299.014117 
L 178.147771 296.085415 
L 178.079661 297.073001 
L 182.864437 295.079344 
L 183.204984 295.896656 
" clip-path="url(#p8a2e383d8a)"/>
    <path d="M 197.923785 295.910559 
L 190.443238 298.24823 
L 191.129895 298.961297 
L 186.508161 299.014117 
L 190.337598 296.425946 
L 190.179138 297.403113 
L 197.659686 295.065441 
L 197.923785 295.910559 
" clip-path="url(#p8a2e383d8a)"/>
    <path d="M 212.656133 295.917493 
L 202.417098 298.477251 
L 203.061337 299.228863 
L 198.444292 299.014117 
L 202.417098 296.651908 
L 202.202352 297.618266 
L 212.441387 295.058507 
L 212.656133 295.917493 
" clip-path="url(#p8a2e383d8a)"/>
    <path d="M 65.065335 270.861886 
L 75.262781 272.901376 
L 75.002313 271.946326 
L 79.08298 274.116894 
L 74.481376 274.551007 
L 75.089135 273.769603 
L 64.89169 271.730114 
L 65.065335 270.861886 
" clip-path="url(#p8a2e383d8a)"/>
    <path d="M 79.84291 270.866507 
L 87.261052 272.721043 
L 87.046306 271.754685 
L 91.019112 274.116894 
L 86.402067 274.33164 
L 87.046306 273.580028 
L 79.628164 271.725493 
L 79.84291 270.866507 
" clip-path="url(#p8a2e383d8a)"/>
    <path d="M 94.632559 270.876008 
L 99.31531 272.436924 
L 99.175312 271.456942 
L 102.955243 274.116894 
L 98.335328 273.976896 
L 99.035315 273.276909 
L 94.352565 271.715992 
L 94.632559 270.876008 
" clip-path="url(#p8a2e383d8a)"/>
    <path d="M 109.447573 270.900027 
L 111.525607 271.939045 
L 111.525607 270.949113 
L 114.891374 274.116894 
L 110.33769 273.324949 
L 111.129635 272.73099 
L 109.051601 271.691973 
L 109.447573 270.900027 
" clip-path="url(#p8a2e383d8a)"/>
    <path d="M 124.288701 271.013911 
L 124.57079 271.296 
L 124.85288 270.449732 
L 126.827505 274.116894 
L 123.160343 272.142268 
L 124.006612 271.860179 
L 123.724522 271.578089 
L 124.288701 271.013911 
" clip-path="url(#p8a2e383d8a)"/>
    <path d="M 139.045726 271.296 
L 139.045726 271.578089 
L 139.609904 271.296 
L 138.763636 274.116894 
L 137.917368 271.296 
L 138.481547 271.578089 
L 138.481547 271.296 
L 139.045726 271.296 
" clip-path="url(#p8a2e383d8a)"/>
    <path d="M 153.802751 271.578089 
L 153.520661 271.860179 
L 154.366929 272.142268 
L 150.699768 274.116894 
L 152.674393 270.449732 
L 152.956482 271.296 
L 153.238572 271.013911 
L 153.802751 271.578089 
" clip-path="url(#p8a2e383d8a)"/>
    <path d="M 168.475672 271.691973 
L 166.397638 272.73099 
L 167.189583 273.324949 
L 162.635899 274.116894 
L 166.001665 270.949113 
L 166.001665 271.939045 
L 168.0797 270.900027 
L 168.475672 271.691973 
" clip-path="url(#p8a2e383d8a)"/>
    <path d="M 183.174708 271.715992 
L 178.491958 273.276909 
L 179.191945 273.976896 
L 174.57203 274.116894 
L 178.351961 271.456942 
L 178.211963 272.436924 
L 182.894713 270.876008 
L 183.174708 271.715992 
" clip-path="url(#p8a2e383d8a)"/>
    <path d="M 197.899109 271.725493 
L 190.480967 273.580028 
L 191.125206 274.33164 
L 186.508161 274.116894 
L 190.480967 271.754685 
L 190.266221 272.721043 
L 197.684362 270.866507 
L 197.899109 271.725493 
" clip-path="url(#p8a2e383d8a)"/>
    <path d="M 212.635583 271.730114 
L 202.438137 273.769603 
L 203.045897 274.551007 
L 198.444292 274.116894 
L 202.52496 271.946326 
L 202.264492 272.901376 
L 212.461938 270.861886 
L 212.635583 271.730114 
" clip-path="url(#p8a2e383d8a)"/>
    <path d="M 65.044184 246.666187 
L 75.208338 248.19081 
L 74.901869 247.249513 
L 79.08298 249.21967 
L 74.507837 249.876389 
L 75.076994 249.066436 
L 64.91284 247.541813 
L 65.044184 246.666187 
" clip-path="url(#p8a2e383d8a)"/>
    <path d="M 79.817124 246.668872 
L 87.184545 248.050263 
L 86.91259 247.098421 
L 91.019112 249.21967 
L 86.423071 249.709189 
L 87.021372 248.92052 
L 79.653951 247.539128 
L 79.817124 246.668872 
" clip-path="url(#p8a2e383d8a)"/>
    <path d="M 94.599935 246.674507 
L 99.197183 247.82382 
L 98.982437 246.857461 
L 102.955243 249.21967 
L 98.338198 249.434416 
L 98.982437 248.682805 
L 94.385189 247.533493 
L 94.599935 246.674507 
" clip-path="url(#p8a2e383d8a)"/>
    <path d="M 109.405033 246.689477 
L 111.316113 247.406132 
L 111.212482 246.42164 
L 114.891374 249.21967 
L 110.279806 248.908778 
L 111.005221 248.235178 
L 109.094141 247.518523 
L 109.405033 246.689477 
" clip-path="url(#p8a2e383d8a)"/>
    <path d="M 124.218179 246.821911 
L 124.500268 247.033478 
L 124.641313 246.257732 
L 126.827505 249.21967 
L 123.371911 247.950268 
L 124.077134 247.597656 
L 123.795045 247.386089 
L 124.218179 246.821911 
" clip-path="url(#p8a2e383d8a)"/>
    <path d="M 138.975203 247.104 
L 138.975203 247.315567 
L 139.398337 247.104 
L 138.763636 249.21967 
L 138.128935 247.104 
L 138.552069 247.315567 
L 138.552069 247.104 
L 138.975203 247.104 
" clip-path="url(#p8a2e383d8a)"/>
    <path d="M 153.732228 247.386089 
L 153.450139 247.597656 
L 154.155362 247.950268 
L 150.699768 249.21967 
L 152.88596 246.257732 
L 153.027005 247.033478 
L 153.309094 246.821911 
L 153.732228 247.386089 
" clip-path="url(#p8a2e383d8a)"/>
    <path d="M 168.433132 247.518523 
L 166.522052 248.235178 
L 167.247467 248.908778 
L 162.635899 249.21967 
L 166.31479 246.42164 
L 166.21116 247.406132 
L 168.12224 246.689477 
L 168.433132 247.518523 
" clip-path="url(#p8a2e383d8a)"/>
    <path d="M 183.142084 247.533493 
L 178.544836 248.682805 
L 179.189074 249.434416 
L 174.57203 249.21967 
L 178.544836 246.857461 
L 178.330089 247.82382 
L 182.927338 246.674507 
L 183.142084 247.533493 
" clip-path="url(#p8a2e383d8a)"/>
    <path d="M 197.873322 247.539128 
L 190.5059 248.92052 
L 191.104201 249.709189 
L 186.508161 249.21967 
L 190.614682 247.098421 
L 190.342727 248.050263 
L 197.710149 246.668872 
L 197.873322 247.539128 
" clip-path="url(#p8a2e383d8a)"/>
    <path d="M 212.614432 247.541813 
L 202.450279 249.066436 
L 203.019436 249.876389 
L 198.444292 249.21967 
L 202.625404 247.249513 
L 202.318935 248.19081 
L 212.483088 246.666187 
L 212.614432 247.541813 
" clip-path="url(#p8a2e383d8a)"/>
    <path d="M 65.022564 222.471486 
L 75.162409 223.485471 
L 74.809998 222.560392 
L 79.08298 224.322447 
L 74.54569 225.203474 
L 75.074306 224.366498 
L 64.934461 223.352514 
L 65.022564 222.471486 
" clip-path="url(#p8a2e383d8a)"/>
    <path d="M 79.790449 222.472708 
L 87.120394 223.388951 
L 86.790925 222.455455 
L 91.019112 224.322447 
L 86.461456 225.091208 
L 87.010571 224.267535 
L 79.680626 223.351292 
L 79.790449 222.472708 
" clip-path="url(#p8a2e383d8a)"/>
    <path d="M 94.565343 222.475313 
L 99.097839 223.230729 
L 98.806714 222.284573 
L 102.955243 224.322447 
L 98.370027 224.904696 
L 98.952277 224.104103 
L 94.419781 223.348687 
L 94.565343 222.475313 
" clip-path="url(#p8a2e383d8a)"/>
    <path d="M 109.35696 222.482507 
L 111.133315 222.926596 
L 110.918568 221.960238 
L 114.891374 224.322447 
L 110.27433 224.537193 
L 110.918568 223.785581 
L 109.142214 223.341493 
L 109.35696 222.482507 
" clip-path="url(#p8a2e383d8a)"/>
    <path d="M 124.147656 222.629911 
L 124.429746 222.770955 
L 124.429746 222.065732 
L 126.827505 224.322447 
L 123.583478 223.758268 
L 124.147656 223.335134 
L 123.865567 223.194089 
L 124.147656 222.629911 
" clip-path="url(#p8a2e383d8a)"/>
    <path d="M 138.904681 222.912 
L 138.904681 223.053045 
L 139.18677 222.912 
L 138.763636 224.322447 
L 138.340502 222.912 
L 138.622592 223.053045 
L 138.622592 222.912 
L 138.904681 222.912 
" clip-path="url(#p8a2e383d8a)"/>
    <path d="M 153.661706 223.194089 
L 153.379616 223.335134 
L 153.943795 223.758268 
L 150.699768 224.322447 
L 153.097527 222.065732 
L 153.097527 222.770955 
L 153.379616 222.629911 
L 153.661706 223.194089 
" clip-path="url(#p8a2e383d8a)"/>
    <path d="M 168.385059 223.341493 
L 166.608704 223.785581 
L 167.252943 224.537193 
L 162.635899 224.322447 
L 166.608704 221.960238 
L 166.393958 222.926596 
L 168.170313 222.482507 
L 168.385059 223.341493 
" clip-path="url(#p8a2e383d8a)"/>
    <path d="M 183.107492 223.348687 
L 178.574996 224.104103 
L 179.157245 224.904696 
L 174.57203 224.322447 
L 178.720558 222.284573 
L 178.429433 223.230729 
L 182.96193 222.475313 
L 183.107492 223.348687 
" clip-path="url(#p8a2e383d8a)"/>
    <path d="M 197.846647 223.351292 
L 190.516701 224.267535 
L 191.065816 225.091208 
L 186.508161 224.322447 
L 190.736347 222.455455 
L 190.406878 223.388951 
L 197.736824 222.472708 
L 197.846647 223.351292 
" clip-path="url(#p8a2e383d8a)"/>
    <path d="M 212.592812 223.352514 
L 202.452967 224.366498 
L 202.981583 225.203474 
L 198.444292 224.322447 
L 202.717275 222.560392 
L 202.364864 223.485471 
L 212.504709 222.471486 
L 212.592812 223.352514 
" clip-path="url(#p8a2e383d8a)"/>
    <path d="M 65.00062 198.277842 
L 75.125663 198.784094 
L 74.72772 197.877669 
L 79.08298 199.425223 
L 74.595073 200.530619 
L 75.081447 199.668411 
L 64.956404 199.162158 
L 65.00062 198.277842 
" clip-path="url(#p8a2e383d8a)"/>
    <path d="M 79.763153 198.278151 
L 87.07009 198.734835 
L 86.683472 197.823522 
L 91.019112 199.425223 
L 86.517779 200.474614 
L 87.014859 199.618532 
L 79.707922 199.161849 
L 79.763153 198.278151 
" clip-path="url(#p8a2e383d8a)"/>
    <path d="M 94.529327 198.278818 
L 99.021374 198.653156 
L 98.653723 197.734028 
L 102.955243 199.425223 
L 98.433132 200.381117 
L 98.947844 199.535519 
L 94.455797 199.161182 
L 94.529327 198.278818 
" clip-path="url(#p8a2e383d8a)"/>
    <path d="M 109.304498 198.280708 
L 110.992657 198.491728 
L 110.663188 197.558232 
L 114.891374 199.425223 
L 110.333719 200.193985 
L 110.882834 199.370312 
L 109.194675 199.159292 
L 109.304498 198.280708 
" clip-path="url(#p8a2e383d8a)"/>
    <path d="M 124.077134 198.437911 
L 124.359223 198.508433 
L 124.218179 197.873732 
L 126.827505 199.425223 
L 123.795045 199.566268 
L 124.218179 199.072612 
L 123.936089 199.002089 
L 124.077134 198.437911 
" clip-path="url(#p8a2e383d8a)"/>
    <path d="M 138.763636 199.162711 
L 139.147035 198.941355 
L 139.147035 198.498645 
L 138.763636 198.277289 
L 138.380238 198.498645 
L 138.380238 198.941355 
L 138.763636 199.162711 
L 139.147035 198.941355 
" clip-path="url(#p8a2e383d8a)"/>
    <path d="M 153.591183 199.002089 
L 153.309094 199.072612 
L 153.732228 199.566268 
L 150.699768 199.425223 
L 153.309094 197.873732 
L 153.168049 198.508433 
L 153.450139 198.437911 
L 153.591183 199.002089 
" clip-path="url(#p8a2e383d8a)"/>
    <path d="M 168.332597 199.159292 
L 166.644439 199.370312 
L 167.193554 200.193985 
L 162.635899 199.425223 
L 166.864085 197.558232 
L 166.534616 198.491728 
L 168.222774 198.280708 
L 168.332597 199.159292 
" clip-path="url(#p8a2e383d8a)"/>
    <path d="M 183.071476 199.161182 
L 178.579429 199.535519 
L 179.09414 200.381117 
L 174.57203 199.425223 
L 178.87355 197.734028 
L 178.505898 198.653156 
L 182.997946 198.278818 
L 183.071476 199.161182 
" clip-path="url(#p8a2e383d8a)"/>
    <path d="M 197.819351 199.161849 
L 190.512414 199.618532 
L 191.009494 200.474614 
L 186.508161 199.425223 
L 190.843801 197.823522 
L 190.457183 198.734835 
L 197.76412 198.278151 
L 197.819351 199.161849 
" clip-path="url(#p8a2e383d8a)"/>
    <path d="M 212.570868 199.162158 
L 202.445826 199.668411 
L 202.9322 200.530619 
L 198.444292 199.425223 
L 202.799553 197.877669 
L 202.40161 198.784094 
L 212.526652 198.277842 
L 212.570868 199.162158 
" clip-path="url(#p8a2e383d8a)"/>
    <path d="M 64.978512 174.085289 
L 75.098584 174.085289 
L 74.655873 173.199868 
L 79.08298 174.528 
L 74.655873 175.856132 
L 75.098584 174.970711 
L 64.978512 174.970711 
L 64.978512 174.085289 
" clip-path="url(#p8a2e383d8a)"/>
    <path d="M 79.735537 174.085289 
L 87.034715 174.085289 
L 86.592004 173.199868 
L 91.019112 174.528 
L 86.592004 175.856132 
L 87.034715 174.970711 
L 79.735537 174.970711 
L 79.735537 174.085289 
" clip-path="url(#p8a2e383d8a)"/>
    <path d="M 94.492562 174.085289 
L 98.970846 174.085289 
L 98.528135 173.199868 
L 102.955243 174.528 
L 98.528135 175.856132 
L 98.970846 174.970711 
L 94.492562 174.970711 
L 94.492562 174.085289 
" clip-path="url(#p8a2e383d8a)"/>
    <path d="M 109.249587 174.085289 
L 110.906977 174.085289 
L 110.464267 173.199868 
L 114.891374 174.528 
L 110.464267 175.856132 
L 110.906977 174.970711 
L 109.249587 174.970711 
L 109.249587 174.085289 
" clip-path="url(#p8a2e383d8a)"/>
    <path d="M 124.006612 174.245911 
L 124.288701 174.245911 
L 124.006612 173.681732 
L 126.827505 174.528 
L 124.006612 175.374268 
L 124.288701 174.810089 
L 124.006612 174.810089 
L 124.006612 174.245911 
" clip-path="url(#p8a2e383d8a)"/>
    <path d="M 139.206347 174.528 
L 138.984992 174.144601 
L 138.542281 174.144601 
L 138.320926 174.528 
L 138.542281 174.911399 
L 138.984992 174.911399 
L 139.206347 174.528 
L 138.984992 174.144601 
" clip-path="url(#p8a2e383d8a)"/>
    <path d="M 153.520661 174.810089 
L 153.238572 174.810089 
L 153.520661 175.374268 
L 150.699768 174.528 
L 153.520661 173.681732 
L 153.238572 174.245911 
L 153.520661 174.245911 
L 153.520661 174.810089 
" clip-path="url(#p8a2e383d8a)"/>
    <path d="M 168.277686 174.970711 
L 166.620295 174.970711 
L 167.063006 175.856132 
L 162.635899 174.528 
L 167.063006 173.199868 
L 166.620295 174.085289 
L 168.277686 174.085289 
L 168.277686 174.970711 
" clip-path="url(#p8a2e383d8a)"/>
    <path d="M 183.034711 174.970711 
L 178.556427 174.970711 
L 178.999137 175.856132 
L 174.57203 174.528 
L 178.999137 173.199868 
L 178.556427 174.085289 
L 183.034711 174.085289 
L 183.034711 174.970711 
" clip-path="url(#p8a2e383d8a)"/>
    <path d="M 197.791736 174.970711 
L 190.492558 174.970711 
L 190.935269 175.856132 
L 186.508161 174.528 
L 190.935269 173.199868 
L 190.492558 174.085289 
L 197.791736 174.085289 
L 197.791736 174.970711 
" clip-path="url(#p8a2e383d8a)"/>
    <path d="M 212.54876 174.970711 
L 202.428689 174.970711 
L 202.8714 175.856132 
L 198.444292 174.528 
L 202.8714 173.199868 
L 202.428689 174.085289 
L 212.54876 174.085289 
L 212.54876 174.970711 
" clip-path="url(#p8a2e383d8a)"/>
    <path d="M 64.956404 149.893842 
L 75.081447 149.387589 
L 74.595073 148.525381 
L 79.08298 149.630777 
L 74.72772 151.178331 
L 75.125663 150.271906 
L 65.00062 150.778158 
L 64.956404 149.893842 
" clip-path="url(#p8a2e383d8a)"/>
    <path d="M 79.707922 149.894151 
L 87.014859 149.437468 
L 86.517779 148.581386 
L 91.019112 149.630777 
L 86.683472 151.232478 
L 87.07009 150.321165 
L 79.763153 150.777849 
L 79.707922 149.894151 
" clip-path="url(#p8a2e383d8a)"/>
    <path d="M 94.455797 149.894818 
L 98.947844 149.520481 
L 98.433132 148.674883 
L 102.955243 149.630777 
L 98.653723 151.321972 
L 99.021374 150.402844 
L 94.529327 150.777182 
L 94.455797 149.894818 
" clip-path="url(#p8a2e383d8a)"/>
    <path d="M 109.194675 149.896708 
L 110.882834 149.685688 
L 110.333719 148.862015 
L 114.891374 149.630777 
L 110.663188 151.497768 
L 110.992657 150.564272 
L 109.304498 150.775292 
L 109.194675 149.896708 
" clip-path="url(#p8a2e383d8a)"/>
    <path d="M 123.936089 150.053911 
L 124.218179 149.983388 
L 123.795045 149.489732 
L 126.827505 149.630777 
L 124.218179 151.182268 
L 124.359223 150.547567 
L 124.077134 150.618089 
L 123.936089 150.053911 
" clip-path="url(#p8a2e383d8a)"/>
    <path d="M 138.763636 149.893289 
L 138.380238 150.114645 
L 138.380238 150.557355 
L 138.763636 150.778711 
L 139.147035 150.557355 
L 139.147035 150.114645 
L 138.763636 149.893289 
L 138.380238 150.114645 
" clip-path="url(#p8a2e383d8a)"/>
    <path d="M 153.450139 150.618089 
L 153.168049 150.547567 
L 153.309094 151.182268 
L 150.699768 149.630777 
L 153.732228 149.489732 
L 153.309094 149.983388 
L 153.591183 150.053911 
L 153.450139 150.618089 
" clip-path="url(#p8a2e383d8a)"/>
    <path d="M 168.222774 150.775292 
L 166.534616 150.564272 
L 166.864085 151.497768 
L 162.635899 149.630777 
L 167.193554 148.862015 
L 166.644439 149.685688 
L 168.332597 149.896708 
L 168.222774 150.775292 
" clip-path="url(#p8a2e383d8a)"/>
    <path d="M 182.997946 150.777182 
L 178.505898 150.402844 
L 178.87355 151.321972 
L 174.57203 149.630777 
L 179.09414 148.674883 
L 178.579429 149.520481 
L 183.071476 149.894818 
L 182.997946 150.777182 
" clip-path="url(#p8a2e383d8a)"/>
    <path d="M 197.76412 150.777849 
L 190.457183 150.321165 
L 190.843801 151.232478 
L 186.508161 149.630777 
L 191.009494 148.581386 
L 190.512414 149.437468 
L 197.819351 149.894151 
L 197.76412 150.777849 
" clip-path="url(#p8a2e383d8a)"/>
    <path d="M 212.526652 150.778158 
L 202.40161 150.271906 
L 202.799553 151.178331 
L 198.444292 149.630777 
L 202.9322 148.525381 
L 202.445826 149.387589 
L 212.570868 149.893842 
L 212.526652 150.778158 
" clip-path="url(#p8a2e383d8a)"/>
    <path d="M 64.934461 125.703486 
L 75.074306 124.689502 
L 74.54569 123.852526 
L 79.08298 124.733553 
L 74.809998 126.495608 
L 75.162409 125.570529 
L 65.022564 126.584514 
L 64.934461 125.703486 
" clip-path="url(#p8a2e383d8a)"/>
    <path d="M 79.680626 125.704708 
L 87.010571 124.788465 
L 86.461456 123.964792 
L 91.019112 124.733553 
L 86.790925 126.600545 
L 87.120394 125.667049 
L 79.790449 126.583292 
L 79.680626 125.704708 
" clip-path="url(#p8a2e383d8a)"/>
    <path d="M 94.419781 125.707313 
L 98.952277 124.951897 
L 98.370027 124.151304 
L 102.955243 124.733553 
L 98.806714 126.771427 
L 99.097839 125.825271 
L 94.565343 126.580687 
L 94.419781 125.707313 
" clip-path="url(#p8a2e383d8a)"/>
    <path d="M 109.142214 125.714507 
L 110.918568 125.270419 
L 110.27433 124.518807 
L 114.891374 124.733553 
L 110.918568 127.095762 
L 111.133315 126.129404 
L 109.35696 126.573493 
L 109.142214 125.714507 
" clip-path="url(#p8a2e383d8a)"/>
    <path d="M 123.865567 125.861911 
L 124.147656 125.720866 
L 123.583478 125.297732 
L 126.827505 124.733553 
L 124.429746 126.990268 
L 124.429746 126.285045 
L 124.147656 126.426089 
L 123.865567 125.861911 
" clip-path="url(#p8a2e383d8a)"/>
    <path d="M 138.622592 126.144 
L 138.622592 126.002955 
L 138.340502 126.144 
L 138.763636 124.733553 
L 139.18677 126.144 
L 138.904681 126.002955 
L 138.904681 126.144 
L 138.622592 126.144 
" clip-path="url(#p8a2e383d8a)"/>
    <path d="M 153.379616 126.426089 
L 153.097527 126.285045 
L 153.097527 126.990268 
L 150.699768 124.733553 
L 153.943795 125.297732 
L 153.379616 125.720866 
L 153.661706 125.861911 
L 153.379616 126.426089 
" clip-path="url(#p8a2e383d8a)"/>
    <path d="M 168.170313 126.573493 
L 166.393958 126.129404 
L 166.608704 127.095762 
L 162.635899 124.733553 
L 167.252943 124.518807 
L 166.608704 125.270419 
L 168.385059 125.714507 
L 168.170313 126.573493 
" clip-path="url(#p8a2e383d8a)"/>
    <path d="M 182.96193 126.580687 
L 178.429433 125.825271 
L 178.720558 126.771427 
L 174.57203 124.733553 
L 179.157245 124.151304 
L 178.574996 124.951897 
L 183.107492 125.707313 
L 182.96193 126.580687 
" clip-path="url(#p8a2e383d8a)"/>
    <path d="M 197.736824 126.583292 
L 190.406878 125.667049 
L 190.736347 126.600545 
L 186.508161 124.733553 
L 191.065816 123.964792 
L 190.516701 124.788465 
L 197.846647 125.704708 
L 197.736824 126.583292 
" clip-path="url(#p8a2e383d8a)"/>
    <path d="M 212.504709 126.584514 
L 202.364864 125.570529 
L 202.717275 126.495608 
L 198.444292 124.733553 
L 202.981583 123.852526 
L 202.452967 124.689502 
L 212.592812 125.703486 
L 212.504709 126.584514 
" clip-path="url(#p8a2e383d8a)"/>
    <path d="M 64.91284 101.514187 
L 75.076994 99.989564 
L 74.507837 99.179611 
L 79.08298 99.83633 
L 74.901869 101.806487 
L 75.208338 100.86519 
L 65.044184 102.389813 
L 64.91284 101.514187 
" clip-path="url(#p8a2e383d8a)"/>
    <path d="M 79.653951 101.516872 
L 87.021372 100.13548 
L 86.423071 99.346811 
L 91.019112 99.83633 
L 86.91259 101.957579 
L 87.184545 101.005737 
L 79.817124 102.387128 
L 79.653951 101.516872 
" clip-path="url(#p8a2e383d8a)"/>
    <path d="M 94.385189 101.522507 
L 98.982437 100.373195 
L 98.338198 99.621584 
L 102.955243 99.83633 
L 98.982437 102.198539 
L 99.197183 101.23218 
L 94.599935 102.381493 
L 94.385189 101.522507 
" clip-path="url(#p8a2e383d8a)"/>
    <path d="M 109.094141 101.537477 
L 111.005221 100.820822 
L 110.279806 100.147222 
L 114.891374 99.83633 
L 111.212482 102.63436 
L 111.316113 101.649868 
L 109.405033 102.366523 
L 109.094141 101.537477 
" clip-path="url(#p8a2e383d8a)"/>
    <path d="M 123.795045 101.669911 
L 124.077134 101.458344 
L 123.371911 101.105732 
L 126.827505 99.83633 
L 124.641313 102.798268 
L 124.500268 102.022522 
L 124.218179 102.234089 
L 123.795045 101.669911 
" clip-path="url(#p8a2e383d8a)"/>
    <path d="M 138.552069 101.952 
L 138.552069 101.740433 
L 138.128935 101.952 
L 138.763636 99.83633 
L 139.398337 101.952 
L 138.975203 101.740433 
L 138.975203 101.952 
L 138.552069 101.952 
" clip-path="url(#p8a2e383d8a)"/>
    <path d="M 153.309094 102.234089 
L 153.027005 102.022522 
L 152.88596 102.798268 
L 150.699768 99.83633 
L 154.155362 101.105732 
L 153.450139 101.458344 
L 153.732228 101.669911 
L 153.309094 102.234089 
" clip-path="url(#p8a2e383d8a)"/>
    <path d="M 168.12224 102.366523 
L 166.21116 101.649868 
L 166.31479 102.63436 
L 162.635899 99.83633 
L 167.247467 100.147222 
L 166.522052 100.820822 
L 168.433132 101.537477 
L 168.12224 102.366523 
" clip-path="url(#p8a2e383d8a)"/>
    <path d="M 182.927338 102.381493 
L 178.330089 101.23218 
L 178.544836 102.198539 
L 174.57203 99.83633 
L 179.189074 99.621584 
L 178.544836 100.373195 
L 183.142084 101.522507 
L 182.927338 102.381493 
" clip-path="url(#p8a2e383d8a)"/>
    <path d="M 197.710149 102.387128 
L 190.342727 101.005737 
L 190.614682 101.957579 
L 186.508161 99.83633 
L 191.104201 99.346811 
L 190.5059 100.13548 
L 197.873322 101.516872 
L 197.710149 102.387128 
" clip-path="url(#p8a2e383d8a)"/>
    <path d="M 212.483088 102.389813 
L 202.318935 100.86519 
L 202.625404 101.806487 
L 198.444292 99.83633 
L 203.019436 99.179611 
L 202.450279 99.989564 
L 212.614432 101.514187 
L 212.483088 102.389813 
" clip-path="url(#p8a2e383d8a)"/>
    <path d="M 64.89169 77.325886 
L 75.089135 75.286397 
L 74.481376 74.504993 
L 79.08298 74.939106 
L 75.002313 77.109674 
L 75.262781 76.154624 
L 65.065335 78.194114 
L 64.89169 77.325886 
" clip-path="url(#p8a2e383d8a)"/>
    <path d="M 79.628164 77.330507 
L 87.046306 75.475972 
L 86.402067 74.72436 
L 91.019112 74.939106 
L 87.046306 77.301315 
L 87.261052 76.334957 
L 79.84291 78.189493 
L 79.628164 77.330507 
" clip-path="url(#p8a2e383d8a)"/>
    <path d="M 94.352565 77.340008 
L 99.035315 75.779091 
L 98.335328 75.079104 
L 102.955243 74.939106 
L 99.175312 77.599058 
L 99.31531 76.619076 
L 94.632559 78.179992 
L 94.352565 77.340008 
" clip-path="url(#p8a2e383d8a)"/>
    <path d="M 109.051601 77.364027 
L 111.129635 76.32501 
L 110.33769 75.731051 
L 114.891374 74.939106 
L 111.525607 78.106887 
L 111.525607 77.116955 
L 109.447573 78.155973 
L 109.051601 77.364027 
" clip-path="url(#p8a2e383d8a)"/>
    <path d="M 123.724522 77.477911 
L 124.006612 77.195821 
L 123.160343 76.913732 
L 126.827505 74.939106 
L 124.85288 78.606268 
L 124.57079 77.76 
L 124.288701 78.042089 
L 123.724522 77.477911 
" clip-path="url(#p8a2e383d8a)"/>
    <path d="M 138.481547 77.76 
L 138.481547 77.477911 
L 137.917368 77.76 
L 138.763636 74.939106 
L 139.609904 77.76 
L 139.045726 77.477911 
L 139.045726 77.76 
L 138.481547 77.76 
" clip-path="url(#p8a2e383d8a)"/>
    <path d="M 153.238572 78.042089 
L 152.956482 77.76 
L 152.674393 78.606268 
L 150.699768 74.939106 
L 154.366929 76.913732 
L 153.520661 77.195821 
L 153.802751 77.477911 
L 153.238572 78.042089 
" clip-path="url(#p8a2e383d8a)"/>
    <path d="M 168.0797 78.155973 
L 166.001665 77.116955 
L 166.001665 78.106887 
L 162.635899 74.939106 
L 167.189583 75.731051 
L 166.397638 76.32501 
L 168.475672 77.364027 
L 168.0797 78.155973 
" clip-path="url(#p8a2e383d8a)"/>
    <path d="M 182.894713 78.179992 
L 178.211963 76.619076 
L 178.351961 77.599058 
L 174.57203 74.939106 
L 179.191945 75.079104 
L 178.491958 75.779091 
L 183.174708 77.340008 
L 182.894713 78.179992 
" clip-path="url(#p8a2e383d8a)"/>
    <path d="M 197.684362 78.189493 
L 190.266221 76.334957 
L 190.480967 77.301315 
L 186.508161 74.939106 
L 191.125206 74.72436 
L 190.480967 75.475972 
L 197.899109 77.330507 
L 197.684362 78.189493 
" clip-path="url(#p8a2e383d8a)"/>
    <path d="M 212.461938 78.194114 
L 202.264492 76.154624 
L 202.52496 77.109674 
L 198.444292 74.939106 
L 203.045897 74.504993 
L 202.438137 75.286397 
L 212.635583 77.325886 
L 212.461938 78.194114 
" clip-path="url(#p8a2e383d8a)"/>
    <path d="M 64.871139 53.138507 
L 75.110175 50.578749 
L 74.465936 49.827137 
L 79.08298 50.041883 
L 75.110175 52.404092 
L 75.324921 51.437734 
L 65.085886 53.997493 
L 64.871139 53.138507 
" clip-path="url(#p8a2e383d8a)"/>
    <path d="M 79.603488 53.145441 
L 87.084035 50.80777 
L 86.397378 50.094703 
L 91.019112 50.041883 
L 87.189675 52.630054 
L 87.348134 51.652887 
L 79.867587 53.990559 
L 79.603488 53.145441 
" clip-path="url(#p8a2e383d8a)"/>
    <path d="M 94.322289 53.159344 
L 99.107065 51.165687 
L 98.357862 50.518648 
L 102.955243 50.041883 
L 99.379502 52.970585 
L 99.447611 51.982999 
L 94.662835 53.976656 
L 94.322289 53.159344 
" clip-path="url(#p8a2e383d8a)"/>
    <path d="M 109.014951 53.192582 
L 111.277976 51.778191 
L 110.433286 51.261991 
L 114.891374 50.041883 
L 111.841103 53.514499 
L 111.747249 52.529027 
L 109.484223 53.943418 
L 109.014951 53.192582 
" clip-path="url(#p8a2e383d8a)"/>
    <path d="M 123.660913 53.291441 
L 123.992773 52.876615 
L 123.024816 52.669195 
L 126.827505 50.041883 
L 125.09901 54.328551 
L 124.684171 53.429733 
L 124.352311 53.844559 
L 123.660913 53.291441 
" clip-path="url(#p8a2e383d8a)"/>
    <path d="M 138.411025 53.568 
L 138.411025 53.215388 
L 137.705801 53.568 
L 138.763636 50.041883 
L 139.821471 53.568 
L 139.116248 53.215388 
L 139.116248 53.568 
L 138.411025 53.568 
" clip-path="url(#p8a2e383d8a)"/>
    <path d="M 153.174962 53.844559 
L 152.843101 53.429733 
L 152.428263 54.328551 
L 150.699768 50.041883 
L 154.502457 52.669195 
L 153.534499 52.876615 
L 153.86636 53.291441 
L 153.174962 53.844559 
" clip-path="url(#p8a2e383d8a)"/>
    <path d="M 168.04305 53.943418 
L 165.780024 52.529027 
L 165.68617 53.514499 
L 162.635899 50.041883 
L 167.093987 51.261991 
L 166.249297 51.778191 
L 168.512322 53.192582 
L 168.04305 53.943418 
" clip-path="url(#p8a2e383d8a)"/>
    <path d="M 182.864437 53.976656 
L 178.079661 51.982999 
L 178.147771 52.970585 
L 174.57203 50.041883 
L 179.169411 50.518648 
L 178.420208 51.165687 
L 183.204984 53.159344 
L 182.864437 53.976656 
" clip-path="url(#p8a2e383d8a)"/>
    <path d="M 197.659686 53.990559 
L 190.179138 51.652887 
L 190.337598 52.630054 
L 186.508161 50.041883 
L 191.129895 50.094703 
L 190.443238 50.80777 
L 197.923785 53.145441 
L 197.659686 53.990559 
" clip-path="url(#p8a2e383d8a)"/>
    <path d="M 212.441387 53.997493 
L 202.202352 51.437734 
L 202.417098 52.404092 
L 198.444292 50.041883 
L 203.061337 49.827137 
L 202.417098 50.578749 
L 212.656133 53.138507 
L 212.441387 53.997493 
" clip-path="url(#p8a2e383d8a)"/>
   </g>
   <g id="matplotlib.axis_1">
    <g id="xtick_1">
     <g id="line2d_1">
      <defs>
       <path id="md2a2a5e3a1" d="M 0 0 
L 0 3.5 
" style="stroke: #000000; stroke-width: 0.8"/>
      </defs>
      <g>
       <use xlink:href="#md2a2a5e3a1" x="64.978512" y="307.584" style="stroke: #000000; stroke-width: 0.8"/>
      </g>
     </g>
     <g id="text_1">
      <!-- −5.0 -->
      <g transform="translate(52.837106 322.182437) scale(0.1 -0.1)">
       <defs>
        <path id="DejaVuSans-2212" d="M 678 2272 
L 4684 2272 
L 4684 1741 
L 678 1741 
L 678 2272 
z
" transform="scale(0.015625)"/>
        <path id="DejaVuSans-35" d="M 691 4666 
L 3169 4666 
L 3169 4134 
L 1269 4134 
L 1269 2991 
Q 1406 3038 1543 3061 
Q 1681 3084 1819 3084 
Q 2600 3084 3056 2656 
Q 3513 2228 3513 1497 
Q 3513 744 3044 326 
Q 2575 -91 1722 -91 
Q 1428 -91 1123 -41 
Q 819 9 494 109 
L 494 744 
Q 775 591 1075 516 
Q 1375 441 1709 441 
Q 2250 441 2565 725 
Q 2881 1009 2881 1497 
Q 2881 1984 2565 2268 
Q 2250 2553 1709 2553 
Q 1456 2553 1204 2497 
Q 953 2441 691 2322 
L 691 4666 
z
" transform="scale(0.015625)"/>
        <path id="DejaVuSans-2e" d="M 684 794 
L 1344 794 
L 1344 0 
L 684 0 
L 684 794 
z
" transform="scale(0.015625)"/>
        <path id="DejaVuSans-30" d="M 2034 4250 
Q 1547 4250 1301 3770 
Q 1056 3291 1056 2328 
Q 1056 1369 1301 889 
Q 1547 409 2034 409 
Q 2525 409 2770 889 
Q 3016 1369 3016 2328 
Q 3016 3291 2770 3770 
Q 2525 4250 2034 4250 
z
M 2034 4750 
Q 2819 4750 3233 4129 
Q 3647 3509 3647 2328 
Q 3647 1150 3233 529 
Q 2819 -91 2034 -91 
Q 1250 -91 836 529 
Q 422 1150 422 2328 
Q 422 3509 836 4129 
Q 1250 4750 2034 4750 
z
" transform="scale(0.015625)"/>
       </defs>
       <use xlink:href="#DejaVuSans-2212"/>
       <use xlink:href="#DejaVuSans-35" x="83.789062"/>
       <use xlink:href="#DejaVuSans-2e" x="147.412109"/>
       <use xlink:href="#DejaVuSans-30" x="179.199219"/>
      </g>
     </g>
    </g>
    <g id="xtick_2">
     <g id="line2d_2">
      <g>
       <use xlink:href="#md2a2a5e3a1" x="101.871074" y="307.584" style="stroke: #000000; stroke-width: 0.8"/>
      </g>
     </g>
     <g id="text_2">
      <!-- −2.5 -->
      <g transform="translate(89.729668 322.182437) scale(0.1 -0.1)">
       <defs>
        <path id="DejaVuSans-32" d="M 1228 531 
L 3431 531 
L 3431 0 
L 469 0 
L 469 531 
Q 828 903 1448 1529 
Q 2069 2156 2228 2338 
Q 2531 2678 2651 2914 
Q 2772 3150 2772 3378 
Q 2772 3750 2511 3984 
Q 2250 4219 1831 4219 
Q 1534 4219 1204 4116 
Q 875 4013 500 3803 
L 500 4441 
Q 881 4594 1212 4672 
Q 1544 4750 1819 4750 
Q 2544 4750 2975 4387 
Q 3406 4025 3406 3419 
Q 3406 3131 3298 2873 
Q 3191 2616 2906 2266 
Q 2828 2175 2409 1742 
Q 1991 1309 1228 531 
z
" transform="scale(0.015625)"/>
       </defs>
       <use xlink:href="#DejaVuSans-2212"/>
       <use xlink:href="#DejaVuSans-32" x="83.789062"/>
       <use xlink:href="#DejaVuSans-2e" x="147.412109"/>
       <use xlink:href="#DejaVuSans-35" x="179.199219"/>
      </g>
     </g>
    </g>
    <g id="xtick_3">
     <g id="line2d_3">
      <g>
       <use xlink:href="#md2a2a5e3a1" x="138.763636" y="307.584" style="stroke: #000000; stroke-width: 0.8"/>
      </g>
     </g>
     <g id="text_3">
      <!-- 0.0 -->
      <g transform="translate(130.812074 322.182437) scale(0.1 -0.1)">
       <use xlink:href="#DejaVuSans-30"/>
       <use xlink:href="#DejaVuSans-2e" x="63.623047"/>
       <use xlink:href="#DejaVuSans-30" x="95.410156"/>
      </g>
     </g>
    </g>
    <g id="xtick_4">
     <g id="line2d_4">
      <g>
       <use xlink:href="#md2a2a5e3a1" x="175.656198" y="307.584" style="stroke: #000000; stroke-width: 0.8"/>
      </g>
     </g>
     <g id="text_4">
      <!-- 2.5 -->
      <g transform="translate(167.704636 322.182437) scale(0.1 -0.1)">
       <use xlink:href="#DejaVuSans-32"/>
       <use xlink:href="#DejaVuSans-2e" x="63.623047"/>
       <use xlink:href="#DejaVuSans-35" x="95.410156"/>
      </g>
     </g>
    </g>
    <g id="xtick_5">
     <g id="line2d_5">
      <g>
       <use xlink:href="#md2a2a5e3a1" x="212.54876" y="307.584" style="stroke: #000000; stroke-width: 0.8"/>
      </g>
     </g>
     <g id="text_5">
      <!-- 5.0 -->
      <g transform="translate(204.597198 322.182437) scale(0.1 -0.1)">
       <use xlink:href="#DejaVuSans-35"/>
       <use xlink:href="#DejaVuSans-2e" x="63.623047"/>
       <use xlink:href="#DejaVuSans-30" x="95.410156"/>
      </g>
     </g>
    </g>
   </g>
   <g id="matplotlib.axis_2">
    <g id="ytick_1">
     <g id="line2d_6">
      <defs>
       <path id="medaf1eac44" d="M 0 0 
L -3.5 0 
" style="stroke: #000000; stroke-width: 0.8"/>
      </defs>
      <g>
       <use xlink:href="#medaf1eac44" x="57.6" y="271.296" style="stroke: #000000; stroke-width: 0.8"/>
      </g>
     </g>
     <g id="text_6">
      <!-- −4 -->
      <g transform="translate(35.857813 275.095219) scale(0.1 -0.1)">
       <defs>
        <path id="DejaVuSans-34" d="M 2419 4116 
L 825 1625 
L 2419 1625 
L 2419 4116 
z
M 2253 4666 
L 3047 4666 
L 3047 1625 
L 3713 1625 
L 3713 1100 
L 3047 1100 
L 3047 0 
L 2419 0 
L 2419 1100 
L 313 1100 
L 313 1709 
L 2253 4666 
z
" transform="scale(0.015625)"/>
       </defs>
       <use xlink:href="#DejaVuSans-2212"/>
       <use xlink:href="#DejaVuSans-34" x="83.789062"/>
      </g>
     </g>
    </g>
    <g id="ytick_2">
     <g id="line2d_7">
      <g>
       <use xlink:href="#medaf1eac44" x="57.6" y="222.912" style="stroke: #000000; stroke-width: 0.8"/>
      </g>
     </g>
     <g id="text_7">
      <!-- −2 -->
      <g transform="translate(35.857813 226.711219) scale(0.1 -0.1)">
       <use xlink:href="#DejaVuSans-2212"/>
       <use xlink:href="#DejaVuSans-32" x="83.789062"/>
      </g>
     </g>
    </g>
    <g id="ytick_3">
     <g id="line2d_8">
      <g>
       <use xlink:href="#medaf1eac44" x="57.6" y="174.528" style="stroke: #000000; stroke-width: 0.8"/>
      </g>
     </g>
     <g id="text_8">
      <!-- 0 -->
      <g transform="translate(44.2375 178.327219) scale(0.1 -0.1)">
       <use xlink:href="#DejaVuSans-30"/>
      </g>
     </g>
    </g>
    <g id="ytick_4">
     <g id="line2d_9">
      <g>
       <use xlink:href="#medaf1eac44" x="57.6" y="126.144" style="stroke: #000000; stroke-width: 0.8"/>
      </g>
     </g>
     <g id="text_9">
      <!-- 2 -->
      <g transform="translate(44.2375 129.943219) scale(0.1 -0.1)">
       <use xlink:href="#DejaVuSans-32"/>
      </g>
     </g>
    </g>
    <g id="ytick_5">
     <g id="line2d_10">
      <g>
       <use xlink:href="#medaf1eac44" x="57.6" y="77.76" style="stroke: #000000; stroke-width: 0.8"/>
      </g>
     </g>
     <g id="text_10">
      <!-- 4 -->
      <g transform="translate(44.2375 81.559219) scale(0.1 -0.1)">
       <use xlink:href="#DejaVuSans-34"/>
      </g>
     </g>
    </g>
   </g>
   <g id="patch_3">
    <path d="M 57.6 307.584 
L 57.6 41.472 
" style="fill: none; stroke: #000000; stroke-width: 0.8; stroke-linejoin: miter; stroke-linecap: square"/>
   </g>
   <g id="patch_4">
    <path d="M 219.927273 307.584 
L 219.927273 41.472 
" style="fill: none; stroke: #000000; stroke-width: 0.8; stroke-linejoin: miter; stroke-linecap: square"/>
   </g>
   <g id="patch_5">
    <path d="M 57.6 307.584 
L 219.927273 307.584 
" style="fill: none; stroke: #000000; stroke-width: 0.8; stroke-linejoin: miter; stroke-linecap: square"/>
   </g>
   <g id="patch_6">
    <path d="M 57.6 41.472 
L 219.927273 41.472 
" style="fill: none; stroke: #000000; stroke-width: 0.8; stroke-linejoin: miter; stroke-linecap: square"/>
   </g>
  </g>
  <g id="axes_2">
   <g id="patch_7">
    <path d="M 252.392727 307.584 
L 414.72 307.584 
L 414.72 41.472 
L 252.392727 41.472 
z
" style="fill: #ffffff"/>
   </g>
   <g id="matplotlib.axis_3">
    <g id="xtick_6">
     <g id="line2d_11">
      <g>
       <use xlink:href="#md2a2a5e3a1" x="279.447273" y="307.584" style="stroke: #000000; stroke-width: 0.8"/>
      </g>
     </g>
     <g id="text_11">
      <!-- 0 -->
      <g transform="translate(276.266023 322.182437) scale(0.1 -0.1)">
       <use xlink:href="#DejaVuSans-30"/>
      </g>
     </g>
    </g>
    <g id="xtick_7">
     <g id="line2d_12">
      <g>
       <use xlink:href="#md2a2a5e3a1" x="333.556364" y="307.584" style="stroke: #000000; stroke-width: 0.8"/>
      </g>
     </g>
     <g id="text_12">
      <!-- 2 -->
      <g transform="translate(330.375114 322.182437) scale(0.1 -0.1)">
       <use xlink:href="#DejaVuSans-32"/>
      </g>
     </g>
    </g>
    <g id="xtick_8">
     <g id="line2d_13">
      <g>
       <use xlink:href="#md2a2a5e3a1" x="387.665455" y="307.584" style="stroke: #000000; stroke-width: 0.8"/>
      </g>
     </g>
     <g id="text_13">
      <!-- 4 -->
      <g transform="translate(384.484205 322.182437) scale(0.1 -0.1)">
       <use xlink:href="#DejaVuSans-34"/>
      </g>
     </g>
    </g>
   </g>
   <g id="matplotlib.axis_4">
    <g id="ytick_6">
     <g id="line2d_14">
      <g>
       <use xlink:href="#medaf1eac44" x="252.392727" y="307.584" style="stroke: #000000; stroke-width: 0.8"/>
      </g>
     </g>
     <g id="text_14">
      <!-- −5 -->
      <g transform="translate(230.65054 311.383219) scale(0.1 -0.1)">
       <use xlink:href="#DejaVuSans-2212"/>
       <use xlink:href="#DejaVuSans-35" x="83.789062"/>
      </g>
     </g>
    </g>
    <g id="ytick_7">
     <g id="line2d_15">
      <g>
       <use xlink:href="#medaf1eac44" x="252.392727" y="263.232" style="stroke: #000000; stroke-width: 0.8"/>
      </g>
     </g>
     <g id="text_15">
      <!-- −4 -->
      <g transform="translate(230.65054 267.031219) scale(0.1 -0.1)">
       <use xlink:href="#DejaVuSans-2212"/>
       <use xlink:href="#DejaVuSans-34" x="83.789062"/>
      </g>
     </g>
    </g>
    <g id="ytick_8">
     <g id="line2d_16">
      <g>
       <use xlink:href="#medaf1eac44" x="252.392727" y="218.88" style="stroke: #000000; stroke-width: 0.8"/>
      </g>
     </g>
     <g id="text_16">
      <!-- −3 -->
      <g transform="translate(230.65054 222.679219) scale(0.1 -0.1)">
       <defs>
        <path id="DejaVuSans-33" d="M 2597 2516 
Q 3050 2419 3304 2112 
Q 3559 1806 3559 1356 
Q 3559 666 3084 287 
Q 2609 -91 1734 -91 
Q 1441 -91 1130 -33 
Q 819 25 488 141 
L 488 750 
Q 750 597 1062 519 
Q 1375 441 1716 441 
Q 2309 441 2620 675 
Q 2931 909 2931 1356 
Q 2931 1769 2642 2001 
Q 2353 2234 1838 2234 
L 1294 2234 
L 1294 2753 
L 1863 2753 
Q 2328 2753 2575 2939 
Q 2822 3125 2822 3475 
Q 2822 3834 2567 4026 
Q 2313 4219 1838 4219 
Q 1578 4219 1281 4162 
Q 984 4106 628 3988 
L 628 4550 
Q 988 4650 1302 4700 
Q 1616 4750 1894 4750 
Q 2613 4750 3031 4423 
Q 3450 4097 3450 3541 
Q 3450 3153 3228 2886 
Q 3006 2619 2597 2516 
z
" transform="scale(0.015625)"/>
       </defs>
       <use xlink:href="#DejaVuSans-2212"/>
       <use xlink:href="#DejaVuSans-33" x="83.789062"/>
      </g>
     </g>
    </g>
    <g id="ytick_9">
     <g id="line2d_17">
      <g>
       <use xlink:href="#medaf1eac44" x="252.392727" y="174.528" style="stroke: #000000; stroke-width: 0.8"/>
      </g>
     </g>
     <g id="text_17">
      <!-- −2 -->
      <g transform="translate(230.65054 178.327219) scale(0.1 -0.1)">
       <use xlink:href="#DejaVuSans-2212"/>
       <use xlink:href="#DejaVuSans-32" x="83.789062"/>
      </g>
     </g>
    </g>
    <g id="ytick_10">
     <g id="line2d_18">
      <g>
       <use xlink:href="#medaf1eac44" x="252.392727" y="130.176" style="stroke: #000000; stroke-width: 0.8"/>
      </g>
     </g>
     <g id="text_18">
      <!-- −1 -->
      <g transform="translate(230.65054 133.975219) scale(0.1 -0.1)">
       <defs>
        <path id="DejaVuSans-31" d="M 794 531 
L 1825 531 
L 1825 4091 
L 703 3866 
L 703 4441 
L 1819 4666 
L 2450 4666 
L 2450 531 
L 3481 531 
L 3481 0 
L 794 0 
L 794 531 
z
" transform="scale(0.015625)"/>
       </defs>
       <use xlink:href="#DejaVuSans-2212"/>
       <use xlink:href="#DejaVuSans-31" x="83.789062"/>
      </g>
     </g>
    </g>
    <g id="ytick_11">
     <g id="line2d_19">
      <g>
       <use xlink:href="#medaf1eac44" x="252.392727" y="85.824" style="stroke: #000000; stroke-width: 0.8"/>
      </g>
     </g>
     <g id="text_19">
      <!-- 0 -->
      <g transform="translate(239.030227 89.623219) scale(0.1 -0.1)">
       <use xlink:href="#DejaVuSans-30"/>
      </g>
     </g>
    </g>
    <g id="ytick_12">
     <g id="line2d_20">
      <g>
       <use xlink:href="#medaf1eac44" x="252.392727" y="41.472" style="stroke: #000000; stroke-width: 0.8"/>
      </g>
     </g>
     <g id="text_20">
      <!-- 1 -->
      <g transform="translate(239.030227 45.271219) scale(0.1 -0.1)">
       <use xlink:href="#DejaVuSans-31"/>
      </g>
     </g>
    </g>
   </g>
   <g id="line2d_21">
    <path d="M 294.119792 346.6 
L 294.204298 341.494697 
L 295.543361 284.738169 
L 296.882424 243.718557 
L 298.221488 213.319234 
L 299.560551 190.301323 
L 300.899614 172.545267 
L 302.238678 158.623607 
L 303.577741 147.550619 
L 304.916804 138.630445 
L 306.255868 131.362161 
L 307.594931 125.378814 
L 308.933994 120.407341 
L 310.273058 116.241648 
L 311.612121 112.724165 
L 312.951185 109.733003 
L 314.290248 107.17285 
L 315.629311 104.968439 
L 316.968375 103.059785 
L 318.307438 101.398678 
L 319.646501 99.946068 
L 320.985565 98.67009 
L 322.324628 97.544567 
L 323.663691 96.547857 
L 325.002755 95.66196 
L 326.341818 94.87182 
L 327.680882 94.164781 
L 329.019945 93.530145 
L 330.359008 92.958832 
L 331.698072 92.4431 
L 333.037135 91.976317 
L 334.376198 91.552782 
L 335.715262 91.167577 
L 337.054325 90.81644 
L 338.393388 90.495668 
L 339.732452 90.202033 
L 341.071515 89.932709 
L 342.410579 89.68522 
L 343.749642 89.457386 
L 345.088705 89.247284 
L 346.427769 89.053213 
L 347.766832 88.873666 
L 349.105895 88.707302 
L 350.444959 88.552926 
L 351.784022 88.409473 
L 353.123085 88.275989 
L 354.462149 88.151617 
L 355.801212 88.03559 
L 357.140275 87.927216 
L 358.479339 87.82587 
L 359.818402 87.730989 
L 361.157466 87.642064 
L 362.496529 87.558631 
L 363.835592 87.480272 
L 365.174656 87.406603 
L 366.513719 87.337278 
L 367.852782 87.271979 
L 369.191846 87.210417 
L 370.530909 87.152327 
L 371.869972 87.097466 
L 373.209036 87.045611 
L 374.548099 86.99656 
L 375.887163 86.950122 
L 377.226226 86.906127 
L 378.565289 86.864415 
L 379.904353 86.824838 
L 381.243416 86.787261 
L 382.582479 86.751559 
L 383.921543 86.717615 
L 385.260606 86.685322 
L 386.599669 86.654581 
L 387.938733 86.625299 
L 389.277796 86.597389 
L 390.61686 86.570772 
L 391.955923 86.545374 
L 393.294986 86.521124 
L 394.63405 86.49796 
L 395.973113 86.475819 
L 397.312176 86.454647 
L 398.65124 86.43439 
L 399.990303 86.414999 
L 401.329366 86.396428 
L 402.66843 86.378635 
L 404.007493 86.361578 
L 405.346556 86.345219 
L 406.68562 86.329524 
L 408.024683 86.314458 
L 409.363747 86.29999 
L 410.70281 86.286091 
L 412.041873 86.272733 
L 413.380937 86.259889 
L 414.72 86.247536 
" clip-path="url(#p3bde18aed1)" style="fill: none; stroke: #1f77b4; stroke-width: 1.5; stroke-linecap: square"/>
   </g>
   <g id="line2d_22">
    <path d="M 298.094064 346.6 
L 298.221488 340.814468 
L 299.560551 294.778647 
L 300.899614 259.266533 
L 302.238678 231.423214 
L 303.577741 209.277237 
L 304.916804 191.436891 
L 306.255868 176.900322 
L 307.594931 164.933627 
L 308.933994 154.990682 
L 310.273058 146.659295 
L 311.612121 139.62433 
L 312.951185 133.642006 
L 314.290248 128.5217 
L 315.629311 124.112878 
L 316.968375 120.29557 
L 318.307438 116.973357 
L 319.646501 114.068136 
L 320.985565 111.516179 
L 322.324628 109.265134 
L 323.663691 107.271714 
L 325.002755 105.499919 
L 326.341818 103.919641 
L 327.680882 102.505562 
L 329.019945 101.23629 
L 330.359008 100.093665 
L 331.698072 99.062199 
L 333.037135 98.128633 
L 334.376198 97.281564 
L 335.715262 96.511154 
L 337.054325 95.80888 
L 338.393388 95.167337 
L 339.732452 94.580065 
L 341.071515 94.041418 
L 342.410579 93.54644 
L 343.749642 93.090772 
L 345.088705 92.670568 
L 346.427769 92.282427 
L 347.766832 91.923332 
L 349.105895 91.590604 
L 350.444959 91.281852 
L 351.784022 90.994946 
L 353.123085 90.727977 
L 354.462149 90.479234 
L 355.801212 90.24718 
L 357.140275 90.030431 
L 358.479339 89.82774 
L 359.818402 89.637979 
L 361.157466 89.460128 
L 362.496529 89.293263 
L 363.835592 89.136543 
L 365.174656 88.989206 
L 366.513719 88.850555 
L 367.852782 88.719958 
L 369.191846 88.596834 
L 370.530909 88.480653 
L 371.869972 88.370931 
L 373.209036 88.267223 
L 374.548099 88.169119 
L 375.887163 88.076245 
L 377.226226 87.988255 
L 378.565289 87.904829 
L 379.904353 87.825676 
L 381.243416 87.750522 
L 382.582479 87.679118 
L 383.921543 87.61123 
L 385.260606 87.546645 
L 386.599669 87.485162 
L 387.938733 87.426597 
L 389.277796 87.370778 
L 390.61686 87.317544 
L 391.955923 87.266747 
L 393.294986 87.218249 
L 394.63405 87.171919 
L 395.973113 87.127639 
L 397.312176 87.085294 
L 398.65124 87.04478 
L 399.990303 87.005998 
L 401.329366 86.968857 
L 402.66843 86.933269 
L 404.007493 86.899155 
L 405.346556 86.866438 
L 406.68562 86.835047 
L 408.024683 86.804915 
L 409.363747 86.77598 
L 410.70281 86.748182 
L 412.041873 86.721466 
L 413.380937 86.695778 
L 414.72 86.671071 
" clip-path="url(#p3bde18aed1)" style="fill: none; stroke: #ff7f0e; stroke-width: 1.5; stroke-linecap: square"/>
   </g>
   <g id="line2d_23">
    <path d="M 300.884225 346.6 
L 300.899614 345.9878 
L 302.238678 304.222821 
L 303.577741 271.003856 
L 304.916804 244.243336 
L 306.255868 222.438483 
L 307.594931 204.488441 
L 308.933994 189.574023 
L 310.273058 177.076943 
L 311.612121 166.524495 
L 312.951185 157.551008 
L 314.290248 149.87055 
L 315.629311 143.257317 
L 316.968375 137.531355 
L 318.307438 132.548035 
L 319.646501 128.190204 
L 320.985565 124.362269 
L 322.324628 120.9857 
L 323.663691 117.99557 
L 325.002755 115.337879 
L 326.341818 112.967461 
L 327.680882 110.846343 
L 329.019945 108.942435 
L 330.359008 107.228497 
L 331.698072 105.681299 
L 333.037135 104.28095 
L 334.376198 103.010347 
L 335.715262 101.854731 
L 337.054325 100.80132 
L 338.393388 99.839005 
L 339.732452 98.958098 
L 341.071515 98.150128 
L 342.410579 97.407661 
L 343.749642 96.724158 
L 345.088705 96.093852 
L 346.427769 95.51164 
L 347.766832 94.972998 
L 349.105895 94.473905 
L 350.444959 94.010779 
L 351.784022 93.580419 
L 353.123085 93.179966 
L 354.462149 92.806851 
L 355.801212 92.45877 
L 357.140275 92.133647 
L 358.479339 91.82961 
L 359.818402 91.544968 
L 361.157466 91.278192 
L 362.496529 91.027894 
L 363.835592 90.792815 
L 365.174656 90.571809 
L 366.513719 90.363833 
L 367.852782 90.167937 
L 369.191846 89.98325 
L 370.530909 89.80898 
L 371.869972 89.644397 
L 373.209036 89.488834 
L 374.548099 89.341679 
L 375.887163 89.202367 
L 377.226226 89.070382 
L 378.565289 88.945244 
L 379.904353 88.826514 
L 381.243416 88.713783 
L 382.582479 88.606676 
L 383.921543 88.504845 
L 385.260606 88.407967 
L 386.599669 88.315743 
L 387.938733 88.227896 
L 389.277796 88.144166 
L 390.61686 88.064316 
L 391.955923 87.988121 
L 393.294986 87.915373 
L 394.63405 87.845879 
L 395.973113 87.779458 
L 397.312176 87.715941 
L 398.65124 87.65517 
L 399.990303 87.596997 
L 401.329366 87.541285 
L 402.66843 87.487904 
L 404.007493 87.436733 
L 405.346556 87.387657 
L 406.68562 87.340571 
L 408.024683 87.295373 
L 409.363747 87.25197 
L 410.70281 87.210273 
L 412.041873 87.170198 
L 413.380937 87.131668 
L 414.72 87.094607 
" clip-path="url(#p3bde18aed1)" style="fill: none; stroke: #2ca02c; stroke-width: 1.5; stroke-linecap: square"/>
   </g>
   <g id="line2d_24">
    <path d="M 303.158428 346.6 
L 303.577741 332.730475 
L 304.916804 297.049782 
L 306.255868 267.976645 
L 307.594931 244.043254 
L 308.933994 224.157364 
L 310.273058 207.49459 
L 311.612121 193.42466 
L 312.951185 181.460011 
L 314.290248 171.2194 
L 315.629311 162.401756 
L 316.968375 154.76714 
L 318.307438 148.122714 
L 319.646501 142.312272 
L 320.985565 137.208359 
L 322.324628 132.706267 
L 323.663691 128.719427 
L 325.002755 125.175839 
L 326.341818 122.015282 
L 327.680882 119.187123 
L 329.019945 116.64858 
L 330.359008 114.363329 
L 331.698072 112.300399 
L 333.037135 110.433266 
L 334.376198 108.739129 
L 335.715262 107.198308 
L 337.054325 105.793761 
L 338.393388 104.510673 
L 339.732452 103.336131 
L 341.071515 102.258837 
L 342.410579 101.268881 
L 343.749642 100.357544 
L 345.088705 99.517136 
L 346.427769 98.740854 
L 347.766832 98.022665 
L 349.105895 97.357207 
L 350.444959 96.739705 
L 351.784022 96.165893 
L 353.123085 95.631954 
L 354.462149 95.134468 
L 355.801212 94.67036 
L 357.140275 94.236862 
L 358.479339 93.83148 
L 359.818402 93.451958 
L 361.157466 93.096256 
L 362.496529 92.762526 
L 363.835592 92.449086 
L 365.174656 92.154412 
L 366.513719 91.877111 
L 367.852782 91.615916 
L 369.191846 91.369667 
L 370.530909 91.137306 
L 371.869972 90.917862 
L 373.209036 90.710445 
L 374.548099 90.514238 
L 375.887163 90.32849 
L 377.226226 90.152509 
L 378.565289 89.985659 
L 379.904353 89.827351 
L 381.243416 89.677044 
L 382.582479 89.534235 
L 383.921543 89.39846 
L 385.260606 89.26929 
L 386.599669 89.146324 
L 387.938733 89.029194 
L 389.277796 88.917555 
L 390.61686 88.811088 
L 391.955923 88.709494 
L 393.294986 88.612497 
L 394.63405 88.519839 
L 395.973113 88.431277 
L 397.312176 88.346588 
L 398.65124 88.26556 
L 399.990303 88.187996 
L 401.329366 88.113714 
L 402.66843 88.042539 
L 404.007493 87.97431 
L 405.346556 87.908876 
L 406.68562 87.846094 
L 408.024683 87.785831 
L 409.363747 87.72796 
L 410.70281 87.672364 
L 412.041873 87.618931 
L 413.380937 87.567557 
L 414.72 87.518142 
" clip-path="url(#p3bde18aed1)" style="fill: none; stroke: #d62728; stroke-width: 1.5; stroke-linecap: square"/>
   </g>
   <g id="line2d_25">
    <path d="M 287.343297 346.6 
L 287.508981 323.076458 
L 288.848044 230.030454 
L 290.187107 179.49436 
L 291.526171 149.836664 
L 292.865234 131.357394 
L 294.204298 119.280328 
L 295.543361 111.073949 
L 296.882424 105.314144 
L 298.221488 101.159369 
L 299.560551 98.091327 
L 300.899614 95.779346 
L 302.238678 94.005935 
L 303.577741 92.624195 
L 304.916804 91.532559 
L 306.255868 90.659334 
L 307.594931 89.952967 
L 308.933994 89.375768 
L 310.273058 88.899761 
L 311.612121 88.503898 
L 312.951185 88.172145 
L 314.290248 87.892145 
L 315.629311 87.654278 
L 316.968375 87.450977 
L 318.307438 87.276243 
L 319.646501 87.125275 
L 320.985565 86.994202 
L 322.324628 86.879883 
L 323.663691 86.779749 
L 325.002755 86.691686 
L 326.341818 86.613947 
L 327.680882 86.545076 
L 329.019945 86.483856 
L 330.359008 86.429263 
L 331.698072 86.380434 
L 333.037135 86.336633 
L 334.376198 86.297237 
L 335.715262 86.261711 
L 337.054325 86.229596 
L 338.393388 86.200495 
L 339.732452 86.174068 
L 341.071515 86.150016 
L 342.410579 86.128082 
L 343.749642 86.10804 
L 345.088705 86.089691 
L 346.427769 86.072864 
L 347.766832 86.057404 
L 349.105895 86.043177 
L 350.444959 86.030065 
L 351.784022 86.01796 
L 353.123085 86.006769 
L 354.462149 85.996408 
L 355.801212 85.986802 
L 357.140275 85.977885 
L 358.479339 85.969597 
L 359.818402 85.961883 
L 361.157466 85.954695 
L 362.496529 85.94799 
L 363.835592 85.941728 
L 365.174656 85.935873 
L 366.513719 85.930394 
L 367.852782 85.925261 
L 369.191846 85.920447 
L 370.530909 85.915928 
L 371.869972 85.911682 
L 373.209036 85.907689 
L 374.548099 85.903931 
L 375.887163 85.900391 
L 377.226226 85.897053 
L 378.565289 85.893904 
L 379.904353 85.890929 
L 381.243416 85.888119 
L 382.582479 85.88546 
L 383.921543 85.882945 
L 385.260606 85.880562 
L 386.599669 85.878304 
L 387.938733 85.876162 
L 389.277796 85.874129 
L 390.61686 85.872199 
L 391.955923 85.870365 
L 393.294986 85.868621 
L 394.63405 85.866963 
L 395.973113 85.865383 
L 397.312176 85.863879 
L 398.65124 85.862446 
L 399.990303 85.86108 
L 401.329366 85.859776 
L 402.66843 85.858531 
L 404.007493 85.857343 
L 405.346556 85.856208 
L 406.68562 85.855122 
L 408.024683 85.854084 
L 409.363747 85.853091 
L 410.70281 85.852141 
L 412.041873 85.85123 
L 413.380937 85.850358 
L 414.72 85.849522 
" clip-path="url(#p3bde18aed1)" style="fill: none; stroke: #9467bd; stroke-width: 1.5; stroke-linecap: square"/>
   </g>
   <g id="line2d_26">
    <path d="M 289.214194 346.6 
L 290.187107 273.16472 
L 291.526171 213.849328 
L 292.865234 176.890787 
L 294.204298 152.736656 
L 295.543361 136.323897 
L 296.882424 124.804289 
L 298.221488 116.494738 
L 299.560551 110.358654 
L 300.899614 105.734692 
L 302.238678 102.187871 
L 303.577741 99.42439 
L 304.916804 97.241118 
L 306.255868 95.494668 
L 307.594931 94.081935 
L 308.933994 92.927536 
L 310.273058 91.975522 
L 311.612121 91.183797 
L 312.951185 90.52029 
L 314.290248 89.960291 
L 315.629311 89.484555 
L 316.968375 89.077955 
L 318.307438 88.728486 
L 319.646501 88.426549 
L 320.985565 88.164404 
L 322.324628 87.935766 
L 323.663691 87.735497 
L 325.002755 87.559372 
L 326.341818 87.403894 
L 327.680882 87.266153 
L 329.019945 87.143712 
L 330.359008 87.034527 
L 331.698072 86.936867 
L 333.037135 86.849266 
L 334.376198 86.770474 
L 335.715262 86.699422 
L 337.054325 86.635191 
L 338.393388 86.576991 
L 339.732452 86.524136 
L 341.071515 86.476032 
L 342.410579 86.432164 
L 343.749642 86.392079 
L 345.088705 86.355383 
L 346.427769 86.321728 
L 347.766832 86.290808 
L 349.105895 86.262355 
L 350.444959 86.236129 
L 351.784022 86.211919 
L 353.123085 86.189537 
L 354.462149 86.168816 
L 355.801212 86.149605 
L 357.140275 86.131771 
L 358.479339 86.115193 
L 359.818402 86.099766 
L 361.157466 86.08539 
L 362.496529 86.07198 
L 363.835592 86.059456 
L 365.174656 86.047747 
L 366.513719 86.036788 
L 367.852782 86.026522 
L 369.191846 86.016894 
L 370.530909 86.007856 
L 371.869972 85.999364 
L 373.209036 85.991379 
L 374.548099 85.983863 
L 375.887163 85.976782 
L 377.226226 85.970106 
L 378.565289 85.963807 
L 379.904353 85.957859 
L 381.243416 85.952237 
L 382.582479 85.946921 
L 383.921543 85.941889 
L 385.260606 85.937124 
L 386.599669 85.932607 
L 387.938733 85.928324 
L 389.277796 85.924259 
L 390.61686 85.920398 
L 391.955923 85.91673 
L 393.294986 85.913243 
L 394.63405 85.909925 
L 395.973113 85.906767 
L 397.312176 85.903759 
L 398.65124 85.900892 
L 399.990303 85.898159 
L 401.329366 85.895552 
L 402.66843 85.893063 
L 404.007493 85.890686 
L 405.346556 85.888415 
L 406.68562 85.886245 
L 408.024683 85.884169 
L 409.363747 85.882182 
L 410.70281 85.880281 
L 412.041873 85.87846 
L 413.380937 85.876716 
L 414.72 85.875044 
" clip-path="url(#p3bde18aed1)" style="fill: none; stroke: #8c564b; stroke-width: 1.5; stroke-linecap: square"/>
   </g>
   <g id="line2d_27">
    <path d="M 290.49165 346.6 
L 291.526171 277.861992 
L 292.865234 222.424181 
L 294.204298 186.192984 
L 295.543361 161.573846 
L 296.882424 144.294433 
L 298.221488 131.830106 
L 299.560551 122.62598 
L 300.899614 115.690038 
L 302.238678 110.369806 
L 303.577741 106.224585 
L 304.916804 102.949677 
L 306.255868 100.330002 
L 307.594931 98.210902 
L 308.933994 96.479304 
L 310.273058 95.051283 
L 311.612121 93.863695 
L 312.951185 92.868435 
L 314.290248 92.028436 
L 315.629311 91.314833 
L 316.968375 90.704932 
L 318.307438 90.18073 
L 319.646501 89.727824 
L 320.985565 89.334606 
L 322.324628 88.991648 
L 323.663691 88.691246 
L 325.002755 88.427059 
L 326.341818 88.193842 
L 327.680882 87.987229 
L 329.019945 87.803568 
L 330.359008 87.63979 
L 331.698072 87.493301 
L 333.037135 87.361899 
L 334.376198 87.243711 
L 335.715262 87.137133 
L 337.054325 87.040787 
L 338.393388 86.953486 
L 339.732452 86.874204 
L 341.071515 86.802049 
L 342.410579 86.736246 
L 343.749642 86.676119 
L 345.088705 86.621074 
L 346.427769 86.570591 
L 347.766832 86.524212 
L 349.105895 86.481532 
L 350.444959 86.442194 
L 351.784022 86.405879 
L 353.123085 86.372306 
L 354.462149 86.341223 
L 355.801212 86.312407 
L 357.140275 86.285656 
L 358.479339 86.26079 
L 359.818402 86.237648 
L 361.157466 86.216085 
L 362.496529 86.19597 
L 363.835592 86.177184 
L 365.174656 86.15962 
L 366.513719 86.143182 
L 367.852782 86.127782 
L 369.191846 86.11334 
L 370.530909 86.099784 
L 371.869972 86.087047 
L 373.209036 86.075068 
L 374.548099 86.063794 
L 375.887163 86.053173 
L 377.226226 86.04316 
L 378.565289 86.033711 
L 379.904353 86.024788 
L 381.243416 86.016356 
L 382.582479 86.008381 
L 383.921543 86.000834 
L 385.260606 85.993686 
L 386.599669 85.986911 
L 387.938733 85.980485 
L 389.277796 85.974388 
L 390.61686 85.968598 
L 391.955923 85.963096 
L 393.294986 85.957864 
L 394.63405 85.952888 
L 395.973113 85.94815 
L 397.312176 85.943638 
L 398.65124 85.939338 
L 399.990303 85.935239 
L 401.329366 85.931327 
L 402.66843 85.927594 
L 404.007493 85.924029 
L 405.346556 85.920623 
L 406.68562 85.917367 
L 408.024683 85.914253 
L 409.363747 85.911274 
L 410.70281 85.908422 
L 412.041873 85.905691 
L 413.380937 85.903074 
L 414.72 85.900566 
" clip-path="url(#p3bde18aed1)" style="fill: none; stroke: #e377c2; stroke-width: 1.5; stroke-linecap: square"/>
   </g>
   <g id="line2d_28">
    <path d="M 291.472833 346.6 
L 291.526171 341.874655 
L 292.865234 267.957574 
L 294.204298 219.649311 
L 295.543361 186.823794 
L 296.882424 163.784577 
L 298.221488 147.165475 
L 299.560551 134.893307 
L 300.899614 125.645385 
L 302.238678 118.551742 
L 303.577741 113.02478 
L 304.916804 108.658236 
L 306.255868 105.165336 
L 307.594931 102.339869 
L 308.933994 100.031071 
L 310.273058 98.127044 
L 311.612121 96.543593 
L 312.951185 95.21658 
L 314.290248 94.096581 
L 315.629311 93.145111 
L 316.968375 92.331909 
L 318.307438 91.632973 
L 319.646501 91.029099 
L 320.985565 90.504808 
L 322.324628 90.047531 
L 323.663691 89.646994 
L 325.002755 89.294745 
L 326.341818 88.983789 
L 327.680882 88.708305 
L 329.019945 88.463425 
L 330.359008 88.245054 
L 331.698072 88.049734 
L 333.037135 87.874532 
L 334.376198 87.716949 
L 335.715262 87.574844 
L 337.054325 87.446383 
L 338.393388 87.329981 
L 339.732452 87.224271 
L 341.071515 87.128065 
L 342.410579 87.040328 
L 343.749642 86.960159 
L 345.088705 86.886766 
L 346.427769 86.819455 
L 347.766832 86.757616 
L 349.105895 86.70071 
L 350.444959 86.648258 
L 351.784022 86.599838 
L 353.123085 86.555074 
L 354.462149 86.513631 
L 355.801212 86.475209 
L 357.140275 86.439541 
L 358.479339 86.406387 
L 359.818402 86.375531 
L 361.157466 86.346781 
L 362.496529 86.31996 
L 363.835592 86.294912 
L 365.174656 86.271494 
L 366.513719 86.249577 
L 367.852782 86.229043 
L 369.191846 86.209787 
L 370.530909 86.191712 
L 371.869972 86.174729 
L 373.209036 86.158758 
L 374.548099 86.143726 
L 375.887163 86.129564 
L 377.226226 86.116213 
L 378.565289 86.103615 
L 379.904353 86.091718 
L 381.243416 86.080475 
L 382.582479 86.069842 
L 383.921543 86.059778 
L 385.260606 86.050247 
L 386.599669 86.041214 
L 387.938733 86.032647 
L 389.277796 86.024517 
L 390.61686 86.016797 
L 391.955923 86.009461 
L 393.294986 86.002486 
L 394.63405 85.99585 
L 395.973113 85.989534 
L 397.312176 85.983518 
L 398.65124 85.977784 
L 399.990303 85.972318 
L 401.329366 85.967103 
L 402.66843 85.962126 
L 404.007493 85.957372 
L 405.346556 85.952831 
L 406.68562 85.948489 
L 408.024683 85.944337 
L 409.363747 85.940365 
L 410.70281 85.936562 
L 412.041873 85.932921 
L 413.380937 85.929432 
L 414.72 85.926088 
" clip-path="url(#p3bde18aed1)" style="fill: none; stroke: #7f7f7f; stroke-width: 1.5; stroke-linecap: square"/>
   </g>
   <g id="line2d_29">
    <path d="M 285.041723 346.6 
L 286.169917 213.901486 
L 287.508981 152.304007 
L 288.848044 123.998429 
L 290.187107 109.428316 
L 291.526171 101.26851 
L 292.865234 96.390821 
L 294.204298 93.319611 
L 295.543361 91.30213 
L 296.882424 89.929309 
L 298.221488 88.96693 
L 299.560551 88.274866 
L 300.899614 87.766089 
L 302.238678 87.384771 
L 303.577741 87.094078 
L 304.916804 86.869098 
L 306.255868 86.692607 
L 307.594931 86.552461 
L 308.933994 86.439944 
L 310.273058 86.348702 
L 311.612121 86.274034 
L 312.951185 86.212417 
L 314.290248 86.161176 
L 315.629311 86.118261 
L 316.968375 86.082082 
L 318.307438 86.051395 
L 319.646501 86.025218 
L 320.985565 86.002769 
L 322.324628 85.983423 
L 323.663691 85.966671 
L 325.002755 85.952104 
L 326.341818 85.939383 
L 327.680882 85.928232 
L 329.019945 85.918421 
L 330.359008 85.909759 
L 331.698072 85.902087 
L 333.037135 85.89527 
L 334.376198 85.889194 
L 335.715262 85.883765 
L 337.054325 85.8789 
L 338.393388 85.87453 
L 339.732452 85.870594 
L 341.071515 85.867042 
L 342.410579 85.863828 
L 343.749642 85.860914 
L 345.088705 85.858267 
L 346.427769 85.855858 
L 347.766832 85.853661 
L 349.105895 85.851654 
L 350.444959 85.849817 
L 351.784022 85.848133 
L 353.123085 85.846587 
L 354.462149 85.845165 
L 355.801212 85.843855 
L 357.140275 85.842647 
L 358.479339 85.841532 
L 359.818402 85.8405 
L 361.157466 85.839544 
L 362.496529 85.838659 
L 363.835592 85.837836 
L 365.174656 85.837072 
L 366.513719 85.83636 
L 367.852782 85.835698 
L 369.191846 85.83508 
L 370.530909 85.834503 
L 371.869972 85.833964 
L 373.209036 85.83346 
L 374.548099 85.832988 
L 375.887163 85.832545 
L 377.226226 85.83213 
L 378.565289 85.831741 
L 379.904353 85.831375 
L 381.243416 85.83103 
L 382.582479 85.830706 
L 383.921543 85.830401 
L 385.260606 85.830114 
L 386.599669 85.829842 
L 387.938733 85.829586 
L 389.277796 85.829344 
L 390.61686 85.829115 
L 391.955923 85.828899 
L 393.294986 85.828694 
L 394.63405 85.8285 
L 395.973113 85.828316 
L 397.312176 85.828142 
L 398.65124 85.827976 
L 399.990303 85.827819 
L 401.329366 85.82767 
L 402.66843 85.827528 
L 404.007493 85.827393 
L 405.346556 85.827264 
L 406.68562 85.827142 
L 408.024683 85.827026 
L 409.363747 85.826915 
L 410.70281 85.826809 
L 412.041873 85.826708 
L 413.380937 85.826611 
L 414.72 85.826519 
" clip-path="url(#p3bde18aed1)" style="fill: none; stroke: #bcbd22; stroke-width: 1.5; stroke-linecap: square"/>
   </g>
   <g id="line2d_30">
    <path d="M 286.150274 346.6 
L 286.169917 341.978972 
L 287.508981 218.784013 
L 288.848044 162.172859 
L 290.187107 133.032633 
L 291.526171 116.71302 
L 292.865234 106.957642 
L 294.204298 100.815223 
L 295.543361 96.78026 
L 296.882424 94.034619 
L 298.221488 92.10986 
L 299.560551 90.725733 
L 300.899614 89.708177 
L 302.238678 88.945541 
L 303.577741 88.364156 
L 304.916804 87.914196 
L 306.255868 87.561214 
L 307.594931 87.280921 
L 308.933994 87.055888 
L 310.273058 86.873404 
L 311.612121 86.724068 
L 312.951185 86.600833 
L 314.290248 86.498352 
L 315.629311 86.412522 
L 316.968375 86.340164 
L 318.307438 86.27879 
L 319.646501 86.226436 
L 320.985565 86.181539 
L 322.324628 86.142845 
L 323.663691 86.109342 
L 325.002755 86.080207 
L 326.341818 86.054766 
L 327.680882 86.032464 
L 329.019945 86.012842 
L 330.359008 85.995518 
L 331.698072 85.980173 
L 333.037135 85.966539 
L 334.376198 85.954389 
L 335.715262 85.943531 
L 337.054325 85.933801 
L 338.393388 85.92506 
L 339.732452 85.917189 
L 341.071515 85.910083 
L 342.410579 85.903656 
L 343.749642 85.897828 
L 345.088705 85.892535 
L 346.427769 85.887716 
L 347.766832 85.883322 
L 349.105895 85.879307 
L 350.444959 85.875633 
L 351.784022 85.872265 
L 353.123085 85.869173 
L 354.462149 85.866329 
L 355.801212 85.86371 
L 357.140275 85.861294 
L 358.479339 85.859063 
L 359.818402 85.857 
L 361.157466 85.855089 
L 362.496529 85.853317 
L 363.835592 85.851672 
L 365.174656 85.850143 
L 366.513719 85.848721 
L 367.852782 85.847396 
L 369.191846 85.84616 
L 370.530909 85.845006 
L 371.869972 85.843928 
L 373.209036 85.84292 
L 374.548099 85.841975 
L 375.887163 85.841091 
L 377.226226 85.840261 
L 378.565289 85.839481 
L 379.904353 85.838749 
L 381.243416 85.838061 
L 382.582479 85.837413 
L 383.921543 85.836803 
L 385.260606 85.836227 
L 386.599669 85.835685 
L 387.938733 85.835172 
L 389.277796 85.834688 
L 390.61686 85.834231 
L 391.955923 85.833798 
L 393.294986 85.833388 
L 394.63405 85.833 
L 395.973113 85.832633 
L 397.312176 85.832284 
L 398.65124 85.831953 
L 399.990303 85.831638 
L 401.329366 85.83134 
L 402.66843 85.831056 
L 404.007493 85.830786 
L 405.346556 85.830529 
L 406.68562 85.830284 
L 408.024683 85.830051 
L 409.363747 85.829829 
L 410.70281 85.829617 
L 412.041873 85.829415 
L 413.380937 85.829222 
L 414.72 85.829038 
" clip-path="url(#p3bde18aed1)" style="fill: none; stroke: #17becf; stroke-width: 1.5; stroke-linecap: square"/>
   </g>
   <g id="line2d_31">
    <path d="M 287.064521 346.6 
L 287.508981 285.26402 
L 288.848044 200.347288 
L 290.187107 156.636949 
L 291.526171 132.157531 
L 292.865234 117.524463 
L 294.204298 108.310834 
L 295.543361 102.258389 
L 296.882424 98.139928 
L 298.221488 95.25279 
L 299.560551 93.176599 
L 300.899614 91.650266 
L 302.238678 90.506312 
L 303.577741 89.634234 
L 304.916804 88.959295 
L 306.255868 88.429822 
L 307.594931 88.009382 
L 308.933994 87.671832 
L 310.273058 87.398106 
L 311.612121 87.174103 
L 312.951185 86.98925 
L 314.290248 86.835528 
L 315.629311 86.706783 
L 316.968375 86.598246 
L 318.307438 86.506185 
L 319.646501 86.427654 
L 320.985565 86.360308 
L 322.324628 86.302268 
L 323.663691 86.252013 
L 325.002755 86.208311 
L 326.341818 86.170148 
L 327.680882 86.136695 
L 329.019945 86.107263 
L 330.359008 86.081277 
L 331.698072 86.05826 
L 333.037135 86.037809 
L 334.376198 86.019583 
L 335.715262 86.003296 
L 337.054325 85.988701 
L 338.393388 85.97559 
L 339.732452 85.963783 
L 341.071515 85.953125 
L 342.410579 85.943484 
L 343.749642 85.934743 
L 345.088705 85.926802 
L 346.427769 85.919574 
L 347.766832 85.912983 
L 349.105895 85.906961 
L 350.444959 85.90145 
L 351.784022 85.896398 
L 353.123085 85.89176 
L 354.462149 85.887494 
L 355.801212 85.883565 
L 357.140275 85.879942 
L 358.479339 85.876595 
L 359.818402 85.8735 
L 361.157466 85.870633 
L 362.496529 85.867976 
L 363.835592 85.865508 
L 365.174656 85.863215 
L 366.513719 85.861081 
L 367.852782 85.859093 
L 369.191846 85.857239 
L 370.530909 85.855509 
L 371.869972 85.853892 
L 373.209036 85.852379 
L 374.548099 85.850963 
L 375.887163 85.849636 
L 377.226226 85.848391 
L 378.565289 85.847222 
L 379.904353 85.846124 
L 381.243416 85.845091 
L 382.582479 85.844119 
L 383.921543 85.843204 
L 385.260606 85.842341 
L 386.599669 85.841527 
L 387.938733 85.840759 
L 389.277796 85.840033 
L 390.61686 85.839346 
L 391.955923 85.838697 
L 393.294986 85.838083 
L 394.63405 85.837501 
L 395.973113 85.836949 
L 397.312176 85.836426 
L 398.65124 85.835929 
L 399.990303 85.835458 
L 401.329366 85.83501 
L 402.66843 85.834584 
L 404.007493 85.834179 
L 405.346556 85.833793 
L 406.68562 85.833426 
L 408.024683 85.833077 
L 409.363747 85.832744 
L 410.70281 85.832426 
L 412.041873 85.832123 
L 413.380937 85.831833 
L 414.72 85.831557 
" clip-path="url(#p3bde18aed1)" style="fill: none; stroke: #1f77b4; stroke-width: 1.5; stroke-linecap: square"/>
   </g>
   <g id="line2d_32">
    <path d="M 287.569818 346.6 
L 288.848044 238.521717 
L 290.187107 180.241265 
L 291.526171 147.602041 
L 292.865234 128.091283 
L 294.204298 115.806445 
L 295.543361 107.736519 
L 296.882424 102.245237 
L 298.221488 98.39572 
L 299.560551 95.627465 
L 300.899614 93.592355 
L 302.238678 92.067083 
L 303.577741 90.904312 
L 304.916804 90.004393 
L 306.255868 89.298429 
L 307.594931 88.737843 
L 308.933994 88.287775 
L 310.273058 87.922808 
L 311.612121 87.624137 
L 312.951185 87.377667 
L 314.290248 87.172704 
L 315.629311 87.001045 
L 316.968375 86.856328 
L 318.307438 86.73358 
L 319.646501 86.628872 
L 320.985565 86.539078 
L 322.324628 86.46169 
L 323.663691 86.394684 
L 325.002755 86.336414 
L 326.341818 86.285531 
L 327.680882 86.240927 
L 329.019945 86.201683 
L 330.359008 86.167036 
L 331.698072 86.136347 
L 333.037135 86.109078 
L 334.376198 86.084778 
L 335.715262 86.063061 
L 337.054325 86.043602 
L 338.393388 86.02612 
L 339.732452 86.010377 
L 341.071515 85.996167 
L 342.410579 85.983311 
L 343.749642 85.971657 
L 345.088705 85.961069 
L 346.427769 85.951432 
L 347.766832 85.942644 
L 349.105895 85.934615 
L 350.444959 85.927267 
L 351.784022 85.920531 
L 353.123085 85.914346 
L 354.462149 85.908659 
L 355.801212 85.90342 
L 357.140275 85.898589 
L 358.479339 85.894127 
L 359.818402 85.89 
L 361.157466 85.886178 
L 362.496529 85.882634 
L 363.835592 85.879344 
L 365.174656 85.876287 
L 366.513719 85.873441 
L 367.852782 85.870791 
L 369.191846 85.868319 
L 370.530909 85.866012 
L 371.869972 85.863856 
L 373.209036 85.861839 
L 374.548099 85.859951 
L 375.887163 85.858181 
L 377.226226 85.856521 
L 378.565289 85.854963 
L 379.904353 85.853499 
L 381.243416 85.852122 
L 382.582479 85.850826 
L 383.921543 85.849605 
L 385.260606 85.848455 
L 386.599669 85.847369 
L 387.938733 85.846345 
L 389.277796 85.845377 
L 390.61686 85.844462 
L 391.955923 85.843596 
L 393.294986 85.842777 
L 394.63405 85.842001 
L 395.973113 85.841265 
L 397.312176 85.840567 
L 398.65124 85.839905 
L 399.990303 85.839277 
L 401.329366 85.838679 
L 402.66843 85.838112 
L 404.007493 85.837572 
L 405.346556 85.837058 
L 406.68562 85.836568 
L 408.024683 85.836102 
L 409.363747 85.835658 
L 410.70281 85.835234 
L 412.041873 85.83483 
L 413.380937 85.834444 
L 414.72 85.834076 
" clip-path="url(#p3bde18aed1)" style="fill: none; stroke: #ff7f0e; stroke-width: 1.5; stroke-linecap: square"/>
   </g>
   <g id="line2d_33">
    <path d="M 283.979517 346.6 
L 284.830854 196.320651 
L 286.169917 131.26769 
L 287.508981 107.798852 
L 288.848044 97.708482 
L 290.187107 92.8006 
L 291.526171 90.184386 
L 292.865234 88.68744 
L 294.204298 87.781217 
L 295.543361 87.206779 
L 296.882424 86.828457 
L 298.221488 86.571114 
L 299.560551 86.391156 
L 300.899614 86.262264 
L 302.238678 86.167993 
L 303.577741 86.097761 
L 304.916804 86.044572 
L 306.255868 86.003696 
L 307.594931 85.971865 
L 308.933994 85.94678 
L 310.273058 85.926796 
L 311.612121 85.910718 
L 312.951185 85.897663 
L 314.290248 85.886976 
L 315.629311 85.878158 
L 316.968375 85.870831 
L 318.307438 85.864702 
L 319.646501 85.859544 
L 320.985565 85.855177 
L 322.324628 85.851461 
L 323.663691 85.848283 
L 325.002755 85.845551 
L 326.341818 85.843193 
L 327.680882 85.841149 
L 329.019945 85.83937 
L 330.359008 85.837815 
L 331.698072 85.836453 
L 333.037135 85.835254 
L 334.376198 85.834196 
L 335.715262 85.83326 
L 337.054325 85.832428 
L 338.393388 85.831688 
L 339.732452 85.831027 
L 341.071515 85.830436 
L 342.410579 85.829906 
L 343.749642 85.829429 
L 345.088705 85.828999 
L 346.427769 85.828611 
L 347.766832 85.82826 
L 349.105895 85.827942 
L 350.444959 85.827653 
L 351.784022 85.82739 
L 353.123085 85.82715 
L 354.462149 85.826931 
L 355.801212 85.826731 
L 357.140275 85.826547 
L 358.479339 85.826379 
L 359.818402 85.826225 
L 361.157466 85.826082 
L 362.496529 85.825951 
L 363.835592 85.82583 
L 365.174656 85.825719 
L 366.513719 85.825615 
L 367.852782 85.82552 
L 369.191846 85.825431 
L 370.530909 85.825349 
L 371.869972 85.825272 
L 373.209036 85.825201 
L 374.548099 85.825135 
L 375.887163 85.825073 
L 377.226226 85.825015 
L 378.565289 85.824962 
L 379.904353 85.824911 
L 381.243416 85.824864 
L 382.582479 85.82482 
L 383.921543 85.824779 
L 385.260606 85.82474 
L 386.599669 85.824704 
L 387.938733 85.82467 
L 389.277796 85.824638 
L 390.61686 85.824608 
L 391.955923 85.824579 
L 393.294986 85.824553 
L 394.63405 85.824527 
L 395.973113 85.824503 
L 397.312176 85.824481 
L 398.65124 85.82446 
L 399.990303 85.82444 
L 401.329366 85.824421 
L 402.66843 85.824403 
L 404.007493 85.824386 
L 405.346556 85.824369 
L 406.68562 85.824354 
L 408.024683 85.82434 
L 409.363747 85.824326 
L 410.70281 85.824313 
L 412.041873 85.8243 
L 413.380937 85.824288 
L 414.72 85.824277 
" clip-path="url(#p3bde18aed1)" style="fill: none; stroke: #2ca02c; stroke-width: 1.5; stroke-linecap: square"/>
   </g>
   <g id="line2d_34">
    <path d="M 284.718169 346.6 
L 284.830854 306.817303 
L 286.169917 176.711381 
L 287.508981 129.773704 
L 288.848044 109.592964 
L 290.187107 99.7772 
L 291.526171 94.544772 
L 292.865234 91.55088 
L 294.204298 89.738434 
L 295.543361 88.589558 
L 296.882424 87.832914 
L 298.221488 87.318229 
L 299.560551 86.958313 
L 300.899614 86.700527 
L 302.238678 86.511986 
L 303.577741 86.371522 
L 304.916804 86.265144 
L 306.255868 86.183392 
L 307.594931 86.11973 
L 308.933994 86.06956 
L 310.273058 86.029593 
L 311.612121 85.997436 
L 312.951185 85.971327 
L 314.290248 85.949951 
L 315.629311 85.932316 
L 316.968375 85.917662 
L 318.307438 85.905404 
L 319.646501 85.895088 
L 320.985565 85.886355 
L 322.324628 85.878923 
L 323.663691 85.872566 
L 325.002755 85.867102 
L 326.341818 85.862386 
L 327.680882 85.858298 
L 329.019945 85.854739 
L 330.359008 85.851631 
L 331.698072 85.848905 
L 333.037135 85.846508 
L 334.376198 85.844392 
L 335.715262 85.842519 
L 337.054325 85.840856 
L 338.393388 85.839376 
L 339.732452 85.838055 
L 341.071515 85.836872 
L 342.410579 85.835812 
L 343.749642 85.834858 
L 345.088705 85.833999 
L 346.427769 85.833223 
L 347.766832 85.832521 
L 349.105895 85.831884 
L 350.444959 85.831306 
L 351.784022 85.83078 
L 353.123085 85.8303 
L 354.462149 85.829862 
L 355.801212 85.829462 
L 357.140275 85.829095 
L 358.479339 85.828758 
L 359.818402 85.828449 
L 361.157466 85.828164 
L 362.496529 85.827902 
L 363.835592 85.82766 
L 365.174656 85.827437 
L 366.513719 85.82723 
L 367.852782 85.827039 
L 369.191846 85.826862 
L 370.530909 85.826697 
L 371.869972 85.826544 
L 373.209036 85.826402 
L 374.548099 85.826269 
L 375.887163 85.826146 
L 377.226226 85.826031 
L 378.565289 85.825923 
L 379.904353 85.825823 
L 381.243416 85.825729 
L 382.582479 85.825641 
L 383.921543 85.825558 
L 385.260606 85.825481 
L 386.599669 85.825408 
L 387.938733 85.82534 
L 389.277796 85.825276 
L 390.61686 85.825215 
L 391.955923 85.825159 
L 393.294986 85.825105 
L 394.63405 85.825055 
L 395.973113 85.825007 
L 397.312176 85.824962 
L 398.65124 85.824919 
L 399.990303 85.824879 
L 401.329366 85.824841 
L 402.66843 85.824805 
L 404.007493 85.824771 
L 405.346556 85.824739 
L 406.68562 85.824708 
L 408.024683 85.824679 
L 409.363747 85.824652 
L 410.70281 85.824625 
L 412.041873 85.824601 
L 413.380937 85.824577 
L 414.72 85.824554 
" clip-path="url(#p3bde18aed1)" style="fill: none; stroke: #d62728; stroke-width: 1.5; stroke-linecap: square"/>
   </g>
   <g id="line2d_35">
    <path d="M 285.316051 346.6 
L 286.169917 222.155071 
L 287.508981 151.748556 
L 288.848044 121.477446 
L 290.187107 106.7538 
L 291.526171 98.905158 
L 292.865234 94.414319 
L 294.204298 91.695651 
L 295.543361 89.972338 
L 296.882424 88.837371 
L 298.221488 88.065343 
L 299.560551 87.525469 
L 300.899614 87.138791 
L 302.238678 86.85598 
L 303.577741 86.645282 
L 304.916804 86.485716 
L 306.255868 86.363087 
L 307.594931 86.267595 
L 308.933994 86.192341 
L 310.273058 86.132389 
L 311.612121 86.084153 
L 312.951185 86.04499 
L 314.290248 86.012927 
L 315.629311 85.986474 
L 316.968375 85.964492 
L 318.307438 85.946106 
L 319.646501 85.930631 
L 320.985565 85.917532 
L 322.324628 85.906384 
L 323.663691 85.896849 
L 325.002755 85.888654 
L 326.341818 85.881579 
L 327.680882 85.875447 
L 329.019945 85.870109 
L 330.359008 85.865446 
L 331.698072 85.861358 
L 333.037135 85.857762 
L 334.376198 85.854588 
L 335.715262 85.851779 
L 337.054325 85.849284 
L 338.393388 85.847064 
L 339.732452 85.845082 
L 341.071515 85.843309 
L 342.410579 85.841718 
L 343.749642 85.840287 
L 345.088705 85.838998 
L 346.427769 85.837834 
L 347.766832 85.836781 
L 349.105895 85.835826 
L 350.444959 85.834959 
L 351.784022 85.83417 
L 353.123085 85.833451 
L 354.462149 85.832794 
L 355.801212 85.832193 
L 357.140275 85.831642 
L 358.479339 85.831137 
L 359.818402 85.830674 
L 361.157466 85.830247 
L 362.496529 85.829853 
L 363.835592 85.829491 
L 365.174656 85.829156 
L 366.513719 85.828846 
L 367.852782 85.828559 
L 369.191846 85.828293 
L 370.530909 85.828046 
L 371.869972 85.827816 
L 373.209036 85.827603 
L 374.548099 85.827404 
L 375.887163 85.827219 
L 377.226226 85.827046 
L 378.565289 85.826885 
L 379.904353 85.826734 
L 381.243416 85.826593 
L 382.582479 85.826461 
L 383.921543 85.826337 
L 385.260606 85.826221 
L 386.599669 85.826112 
L 387.938733 85.82601 
L 389.277796 85.825914 
L 390.61686 85.825823 
L 391.955923 85.825738 
L 393.294986 85.825658 
L 394.63405 85.825582 
L 395.973113 85.82551 
L 397.312176 85.825443 
L 398.65124 85.825379 
L 399.990303 85.825319 
L 401.329366 85.825262 
L 402.66843 85.825208 
L 404.007493 85.825157 
L 405.346556 85.825108 
L 406.68562 85.825062 
L 408.024683 85.825019 
L 409.363747 85.824977 
L 410.70281 85.824938 
L 412.041873 85.824901 
L 413.380937 85.824865 
L 414.72 85.824832 
" clip-path="url(#p3bde18aed1)" style="fill: none; stroke: #9467bd; stroke-width: 1.5; stroke-linecap: square"/>
   </g>
   <g id="line2d_36">
    <path d="M 285.763373 346.6 
L 286.169917 267.598762 
L 287.508981 173.723408 
L 288.848044 133.361927 
L 290.187107 113.7304 
L 291.526171 103.265544 
L 292.865234 97.277759 
L 294.204298 93.652868 
L 295.543361 91.355117 
L 296.882424 89.841828 
L 298.221488 88.812457 
L 299.560551 88.092625 
L 300.899614 87.577054 
L 302.238678 87.199973 
L 303.577741 86.919043 
L 304.916804 86.706288 
L 306.255868 86.542783 
L 307.594931 86.41546 
L 308.933994 86.315121 
L 310.273058 86.235185 
L 311.612121 86.170871 
L 312.951185 86.118654 
L 314.290248 86.075903 
L 315.629311 86.040632 
L 316.968375 86.011323 
L 318.307438 85.986808 
L 319.646501 85.966175 
L 320.985565 85.94871 
L 322.324628 85.933845 
L 323.663691 85.921131 
L 325.002755 85.910205 
L 326.341818 85.900772 
L 327.680882 85.892595 
L 329.019945 85.885479 
L 330.359008 85.879261 
L 331.698072 85.873811 
L 333.037135 85.869016 
L 334.376198 85.864784 
L 335.715262 85.861038 
L 337.054325 85.857713 
L 338.393388 85.854752 
L 339.732452 85.852109 
L 341.071515 85.849745 
L 342.410579 85.847623 
L 343.749642 85.845716 
L 345.088705 85.843998 
L 346.427769 85.842446 
L 347.766832 85.841042 
L 349.105895 85.839769 
L 350.444959 85.838612 
L 351.784022 85.83756 
L 353.123085 85.836601 
L 354.462149 85.835725 
L 355.801212 85.834924 
L 357.140275 85.83419 
L 358.479339 85.833517 
L 359.818402 85.832898 
L 361.157466 85.832329 
L 362.496529 85.831805 
L 363.835592 85.831321 
L 365.174656 85.830874 
L 366.513719 85.830461 
L 367.852782 85.830078 
L 369.191846 85.829723 
L 370.530909 85.829394 
L 371.869972 85.829088 
L 373.209036 85.828804 
L 374.548099 85.828539 
L 375.887163 85.828292 
L 377.226226 85.828062 
L 378.565289 85.827847 
L 379.904353 85.827646 
L 381.243416 85.827458 
L 382.582479 85.827281 
L 383.921543 85.827116 
L 385.260606 85.826962 
L 386.599669 85.826816 
L 387.938733 85.82668 
L 389.277796 85.826552 
L 390.61686 85.826431 
L 391.955923 85.826317 
L 393.294986 85.82621 
L 394.63405 85.826109 
L 395.973113 85.826014 
L 397.312176 85.825924 
L 398.65124 85.825839 
L 399.990303 85.825758 
L 401.329366 85.825682 
L 402.66843 85.82561 
L 404.007493 85.825542 
L 405.346556 85.825478 
L 406.68562 85.825417 
L 408.024683 85.825358 
L 409.363747 85.825303 
L 410.70281 85.825251 
L 412.041873 85.825201 
L 413.380937 85.825154 
L 414.72 85.825109 
" clip-path="url(#p3bde18aed1)" style="fill: none; stroke: #8c564b; stroke-width: 1.5; stroke-linecap: square"/>
   </g>
   <g id="patch_8">
    <path d="M 252.392727 307.584 
L 252.392727 41.472 
" style="fill: none; stroke: #000000; stroke-width: 0.8; stroke-linejoin: miter; stroke-linecap: square"/>
   </g>
   <g id="patch_9">
    <path d="M 414.72 307.584 
L 414.72 41.472 
" style="fill: none; stroke: #000000; stroke-width: 0.8; stroke-linejoin: miter; stroke-linecap: square"/>
   </g>
   <g id="patch_10">
    <path d="M 252.392727 307.584 
L 414.72 307.584 
" style="fill: none; stroke: #000000; stroke-width: 0.8; stroke-linejoin: miter; stroke-linecap: square"/>
   </g>
   <g id="patch_11">
    <path d="M 252.392727 41.472 
L 414.72 41.472 
" style="fill: none; stroke: #000000; stroke-width: 0.8; stroke-linejoin: miter; stroke-linecap: square"/>
   </g>
  </g>
  <g id="text_21">
   <!-- t = 1.7000000000000004 -->
   <g transform="translate(152.401875 16.030125) scale(0.12 -0.12)">
    <defs>
     <path id="DejaVuSans-74" d="M 1172 4494 
L 1172 3500 
L 2356 3500 
L 2356 3053 
L 1172 3053 
L 1172 1153 
Q 1172 725 1289 603 
Q 1406 481 1766 481 
L 2356 481 
L 2356 0 
L 1766 0 
Q 1100 0 847 248 
Q 594 497 594 1153 
L 594 3053 
L 172 3053 
L 172 3500 
L 594 3500 
L 594 4494 
L 1172 4494 
z
" transform="scale(0.015625)"/>
     <path id="DejaVuSans-20" transform="scale(0.015625)"/>
     <path id="DejaVuSans-3d" d="M 678 2906 
L 4684 2906 
L 4684 2381 
L 678 2381 
L 678 2906 
z
M 678 1631 
L 4684 1631 
L 4684 1100 
L 678 1100 
L 678 1631 
z
" transform="scale(0.015625)"/>
     <path id="DejaVuSans-37" d="M 525 4666 
L 3525 4666 
L 3525 4397 
L 1831 0 
L 1172 0 
L 2766 4134 
L 525 4134 
L 525 4666 
z
" transform="scale(0.015625)"/>
    </defs>
    <use xlink:href="#DejaVuSans-74"/>
    <use xlink:href="#DejaVuSans-20" x="39.208984"/>
    <use xlink:href="#DejaVuSans-3d" x="70.996094"/>
    <use xlink:href="#DejaVuSans-20" x="154.785156"/>
    <use xlink:href="#DejaVuSans-31" x="186.572266"/>
    <use xlink:href="#DejaVuSans-2e" x="250.195312"/>
    <use xlink:href="#DejaVuSans-37" x="281.982422"/>
    <use xlink:href="#DejaVuSans-30" x="345.605469"/>
    <use xlink:href="#DejaVuSans-30" x="409.228516"/>
    <use xlink:href="#DejaVuSans-30" x="472.851562"/>
    <use xlink:href="#DejaVuSans-30" x="536.474609"/>
    <use xlink:href="#DejaVuSans-30" x="600.097656"/>
    <use xlink:href="#DejaVuSans-30" x="663.720703"/>
    <use xlink:href="#DejaVuSans-30" x="727.34375"/>
    <use xlink:href="#DejaVuSans-30" x="790.966797"/>
    <use xlink:href="#DejaVuSans-30" x="854.589844"/>
    <use xlink:href="#DejaVuSans-30" x="918.212891"/>
    <use xlink:href="#DejaVuSans-30" x="981.835938"/>
    <use xlink:href="#DejaVuSans-30" x="1045.458984"/>
    <use xlink:href="#DejaVuSans-30" x="1109.082031"/>
    <use xlink:href="#DejaVuSans-30" x="1172.705078"/>
    <use xlink:href="#DejaVuSans-34" x="1236.328125"/>
   </g>
  </g>
 </g>
 <defs>
  <clipPath id="p8a2e383d8a">
   <rect x="57.6" y="41.472" width="162.327273" height="266.112"/>
  </clipPath>
  <clipPath id="p3bde18aed1">
   <rect x="252.392727" y="41.472" width="162.327273" height="266.112"/>
  </clipPath>
 </defs>
</svg>
