<?xml version="1.0" encoding="utf-8" standalone="no"?>
<!DOCTYPE svg PUBLIC "-//W3C//DTD SVG 1.1//EN"
  "http://www.w3.org/Graphics/SVG/1.1/DTD/svg11.dtd">
<svg xmlns:xlink="http://www.w3.org/1999/xlink" width="460.8pt" height="345.6pt" viewBox="0 0 460.8 345.6" xmlns="http://www.w3.org/2000/svg" version="1.1">
 <metadata>
  <rdf:RDF xmlns:dc="http://purl.org/dc/elements/1.1/" xmlns:cc="http://creativecommons.org/ns#" xmlns:rdf="http://www.w3.org/1999/02/22-rdf-syntax-ns#">
   <cc:Work>
    <dc:type rdf:resource="http://purl.org/dc/dcmitype/StillImage"/>
    <dc:date>2023-01-17T14:53:43.374840</dc:date>
    <dc:format>image/svg+xml</dc:format>
    <dc:creator>
     <cc:Agent>
      <dc:title>Matplotlib v3.6.3, https://matplotlib.org/</dc:title>
     </cc:Agent>
    </dc:creator>
   </cc:Work>
  </rdf:RDF>
 </metadata>
 <defs>
  <style type="text/css">*{stroke-linejoin: round; stroke-linecap: butt}</style>
 </defs>
 <g id="figure_1">
  <g id="patch_1">
   <path d="M 0 345.6 
L 460.8 345.6 
L 460.8 0 
L 0 0 
z
" style="fill: #ffffff"/>
  </g>
  <g id="axes_1">
   <g id="patch_2">
    <path d="M 57.6 307.584 
L 219.927273 307.584 
L 219.927273 41.472 
L 57.6 41.472 
z
" style="fill: #ffffff"/>
   </g>
   <g id="Quiver_1">
    <path d="M 65.128467 295.071459 
L 74.851245 298.571659 
L 74.734613 297.588622 
L 78.450159 300.337793 
L 73.834885 300.087868 
L 74.551335 299.404741 
L 64.828558 295.904541 
L 65.128467 295.071459 
" clip-path="url(#pd08e63373e)"/>
    <path d="M 79.91721 295.084283 
L 87.06107 298.29902 
L 87.020698 297.309912 
L 90.512854 300.337793 
L 85.930661 299.732216 
L 86.697724 299.106454 
L 79.553864 295.891717 
L 79.91721 295.084283 
" clip-path="url(#pd08e63373e)"/>
    <path d="M 94.720335 295.108379 
L 99.386731 297.908216 
L 99.462655 296.921201 
L 102.57555 300.337793 
L 98.096018 299.198929 
L 98.931185 298.667459 
L 94.264789 295.867621 
L 94.720335 295.108379 
" clip-path="url(#pd08e63373e)"/>
    <path d="M 109.545745 295.158936 
L 111.972824 297.343307 
L 112.236076 296.389021 
L 114.638245 300.337793 
L 110.459129 298.363407 
L 111.380509 298.001436 
L 108.953429 295.817064 
L 109.545745 295.158936 
" clip-path="url(#pd08e63373e)"/>
    <path d="M 124.39361 295.273001 
L 125.152946 296.639804 
L 125.711944 295.822806 
L 126.700941 300.337793 
L 123.389951 297.112803 
L 124.378948 297.069803 
L 123.619613 295.702999 
L 124.39361 295.273001 
" clip-path="url(#pd08e63373e)"/>
    <path d="M 139.206347 295.488 
L 139.206347 296.353396 
L 140.091769 295.910685 
L 138.763636 300.337793 
L 137.435504 295.910685 
L 138.320926 296.353396 
L 138.320926 295.488 
L 139.206347 295.488 
" clip-path="url(#pd08e63373e)"/>
    <path d="M 153.90766 295.702999 
L 153.148325 297.069803 
L 154.137322 297.112803 
L 150.826332 300.337793 
L 151.815329 295.822806 
L 152.374327 296.639804 
L 153.133662 295.273001 
L 153.90766 295.702999 
" clip-path="url(#pd08e63373e)"/>
    <path d="M 168.573844 295.817064 
L 166.146764 298.001436 
L 167.068144 298.363407 
L 162.889027 300.337793 
L 165.291197 296.389021 
L 165.554448 297.343307 
L 167.981528 295.158936 
L 168.573844 295.817064 
" clip-path="url(#pd08e63373e)"/>
    <path d="M 183.262484 295.867621 
L 178.596088 298.667459 
L 179.431255 299.198929 
L 174.951723 300.337793 
L 178.064618 296.921201 
L 178.140542 297.908216 
L 182.806938 295.108379 
L 183.262484 295.867621 
" clip-path="url(#pd08e63373e)"/>
    <path d="M 197.973408 295.891717 
L 190.829548 299.106454 
L 191.596612 299.732216 
L 187.014419 300.337793 
L 190.506574 297.309912 
L 190.466203 298.29902 
L 197.610063 295.084283 
L 197.973408 295.891717 
" clip-path="url(#pd08e63373e)"/>
    <path d="M 212.698715 295.904541 
L 202.975938 299.404741 
L 203.692388 300.087868 
L 199.077114 300.337793 
L 202.792659 297.588622 
L 202.676028 298.571659 
L 212.398806 295.071459 
L 212.698715 295.904541 
" clip-path="url(#pd08e63373e)"/>
    <path d="M 65.101033 270.870581 
L 74.743907 273.647728 
L 74.563529 272.674369 
L 78.450159 275.175834 
L 73.828405 275.226884 
L 74.498865 274.498567 
L 64.855992 271.721419 
L 65.101033 270.870581 
" clip-path="url(#pd08e63373e)"/>
    <path d="M 79.885492 270.879459 
L 86.91394 273.4097 
L 86.797309 272.426664 
L 90.512854 275.175834 
L 85.89758 274.92591 
L 86.614031 274.242782 
L 79.585582 271.712541 
L 79.885492 270.879459 
" clip-path="url(#pd08e63373e)"/>
    <path d="M 94.684137 270.896886 
L 99.175099 273.052548 
L 99.159134 272.062745 
L 102.57555 275.175834 
L 98.009686 274.457429 
L 98.79195 273.850776 
L 94.300987 271.695114 
L 94.684137 270.896886 
" clip-path="url(#pd08e63373e)"/>
    <path d="M 109.508265 270.936725 
L 111.663449 272.488457 
L 111.82153 271.511229 
L 114.638245 275.175834 
L 110.269462 273.666879 
L 111.146093 273.207007 
L 108.990909 271.655275 
L 109.508265 270.936725 
" clip-path="url(#pd08e63373e)"/>
    <path d="M 124.370241 271.04348 
L 124.791887 271.65065 
L 125.266625 270.78198 
L 126.700941 275.175834 
L 123.084849 272.297102 
L 124.064628 272.155691 
L 123.642982 271.54852 
L 124.370241 271.04348 
" clip-path="url(#pd08e63373e)"/>
    <path d="M 139.15162 271.296 
L 139.15162 271.683983 
L 139.927587 271.296 
L 138.763636 275.175834 
L 137.599686 271.296 
L 138.375653 271.683983 
L 138.375653 271.296 
L 139.15162 271.296 
" clip-path="url(#pd08e63373e)"/>
    <path d="M 153.88429 271.54852 
L 153.462644 272.155691 
L 154.442423 272.297102 
L 150.826332 275.175834 
L 152.260648 270.78198 
L 152.735386 271.65065 
L 153.157032 271.04348 
L 153.88429 271.54852 
" clip-path="url(#pd08e63373e)"/>
    <path d="M 168.536364 271.655275 
L 166.38118 273.207007 
L 167.257811 273.666879 
L 162.889027 275.175834 
L 165.705743 271.511229 
L 165.863824 272.488457 
L 168.019008 270.936725 
L 168.536364 271.655275 
" clip-path="url(#pd08e63373e)"/>
    <path d="M 183.226285 271.695114 
L 178.735323 273.850776 
L 179.517586 274.457429 
L 174.951723 275.175834 
L 178.368138 272.062745 
L 178.352174 273.052548 
L 182.843136 270.896886 
L 183.226285 271.695114 
" clip-path="url(#pd08e63373e)"/>
    <path d="M 197.94169 271.712541 
L 190.913242 274.242782 
L 191.629692 274.92591 
L 187.014419 275.175834 
L 190.729964 272.426664 
L 190.613332 273.4097 
L 197.641781 270.879459 
L 197.94169 271.712541 
" clip-path="url(#pd08e63373e)"/>
    <path d="M 212.671281 271.721419 
L 203.028407 274.498567 
L 203.698868 275.226884 
L 199.077114 275.175834 
L 202.963744 272.674369 
L 202.783366 273.647728 
L 212.42624 270.870581 
L 212.671281 271.721419 
" clip-path="url(#pd08e63373e)"/>
    <path d="M 65.071982 246.671269 
L 74.649049 248.739915 
L 74.403258 247.780983 
L 78.450159 250.013876 
L 73.842438 250.37737 
L 74.462109 249.605377 
L 64.885042 247.536731 
L 65.071982 246.671269 
" clip-path="url(#pd08e63373e)"/>
    <path d="M 79.850937 246.676594 
L 86.781601 248.547874 
L 86.584995 247.577662 
L 90.512854 250.013876 
L 85.892597 250.142097 
L 86.550802 249.402685 
L 79.620138 247.531406 
L 79.850937 246.676594 
" clip-path="url(#pd08e63373e)"/>
    <path d="M 94.642517 246.687459 
L 98.976636 248.247742 
L 98.860004 247.264705 
L 102.57555 250.013876 
L 97.960276 249.763951 
L 98.676726 249.080824 
L 94.342607 247.520541 
L 94.642517 246.687459 
" clip-path="url(#pd08e63373e)"/>
    <path d="M 109.45994 246.714456 
L 111.342707 247.73115 
L 111.37387 246.74171 
L 114.638245 250.013876 
L 110.111749 249.078971 
L 110.922 248.510237 
L 109.039233 247.493544 
L 109.45994 246.714456 
" clip-path="url(#pd08e63373e)"/>
    <path d="M 124.297599 246.834567 
L 124.567032 247.125555 
L 124.879574 246.295701 
L 126.700941 250.013876 
L 123.133649 247.912299 
L 123.985057 247.66442 
L 123.715624 247.373433 
L 124.297599 246.834567 
" clip-path="url(#pd08e63373e)"/>
    <path d="M 139.054624 247.104 
L 139.054624 247.394988 
L 139.636599 247.104 
L 138.763636 250.013876 
L 137.890674 247.104 
L 138.472649 247.394988 
L 138.472649 247.104 
L 139.054624 247.104 
" clip-path="url(#pd08e63373e)"/>
    <path d="M 153.811649 247.373433 
L 153.542216 247.66442 
L 154.393624 247.912299 
L 150.826332 250.013876 
L 152.647698 246.295701 
L 152.960241 247.125555 
L 153.229674 246.834567 
L 153.811649 247.373433 
" clip-path="url(#pd08e63373e)"/>
    <path d="M 168.488039 247.493544 
L 166.605273 248.510237 
L 167.415524 249.078971 
L 162.889027 250.013876 
L 166.153403 246.74171 
L 166.184566 247.73115 
L 168.067332 246.714456 
L 168.488039 247.493544 
" clip-path="url(#pd08e63373e)"/>
    <path d="M 183.184665 247.520541 
L 178.850546 249.080824 
L 179.566997 249.763951 
L 174.951723 250.013876 
L 178.667268 247.264705 
L 178.550637 248.247742 
L 182.884756 246.687459 
L 183.184665 247.520541 
" clip-path="url(#pd08e63373e)"/>
    <path d="M 197.907135 247.531406 
L 190.976471 249.402685 
L 191.634676 250.142097 
L 187.014419 250.013876 
L 190.942278 247.577662 
L 190.745671 248.547874 
L 197.676336 246.676594 
L 197.907135 247.531406 
" clip-path="url(#pd08e63373e)"/>
    <path d="M 212.64223 247.536731 
L 203.065164 249.605377 
L 203.684834 250.37737 
L 199.077114 250.013876 
L 203.124015 247.780983 
L 202.878224 248.739915 
L 212.45529 246.671269 
L 212.64223 247.536731 
" clip-path="url(#pd08e63373e)"/>
    <path d="M 65.041612 222.473809 
L 74.56954 223.845831 
L 74.257548 222.90635 
L 78.450159 224.851917 
L 73.878951 225.535495 
L 74.443341 224.722213 
L 64.915413 223.350191 
L 65.041612 222.473809 
" clip-path="url(#pd08e63373e)"/>
    <path d="M 79.813965 222.476291 
L 86.669905 223.710361 
L 86.391051 222.760516 
L 90.512854 224.851917 
L 85.920486 225.374767 
L 86.51305 224.581778 
L 79.65711 223.347709 
L 79.813965 222.476291 
" clip-path="url(#pd08e63373e)"/>
    <path d="M 94.595879 222.481514 
L 98.80449 223.49158 
L 98.580637 222.527291 
L 102.57555 224.851917 
L 97.960737 225.110209 
L 98.597856 224.352553 
L 94.389245 223.342486 
L 94.595879 222.481514 
" clip-path="url(#pd08e63373e)"/>
    <path d="M 109.399542 222.495459 
L 111.039331 223.085783 
L 110.9227 222.102747 
L 114.638245 224.851917 
L 110.022971 224.601992 
L 110.739422 223.918865 
L 109.099632 223.328541 
L 109.399542 222.495459 
" clip-path="url(#pd08e63373e)"/>
    <path d="M 124.200603 222.642567 
L 124.470036 222.836559 
L 124.588587 222.103701 
L 126.700941 224.851917 
L 123.424636 223.720299 
L 124.082053 223.375425 
L 123.81262 223.181433 
L 124.200603 222.642567 
" clip-path="url(#pd08e63373e)"/>
    <path d="M 138.957628 222.912 
L 138.957628 223.105992 
L 139.345611 222.912 
L 138.763636 224.851917 
L 138.181661 222.912 
L 138.569645 223.105992 
L 138.569645 222.912 
L 138.957628 222.912 
" clip-path="url(#pd08e63373e)"/>
    <path d="M 153.714653 223.181433 
L 153.44522 223.375425 
L 154.102636 223.720299 
L 150.826332 224.851917 
L 152.938686 222.103701 
L 153.057237 222.836559 
L 153.326669 222.642567 
L 153.714653 223.181433 
" clip-path="url(#pd08e63373e)"/>
    <path d="M 168.427641 223.328541 
L 166.787851 223.918865 
L 167.504301 224.601992 
L 162.889027 224.851917 
L 166.604573 222.102747 
L 166.487941 223.085783 
L 168.127731 222.495459 
L 168.427641 223.328541 
" clip-path="url(#pd08e63373e)"/>
    <path d="M 183.138027 223.342486 
L 178.929416 224.352553 
L 179.566536 225.110209 
L 174.951723 224.851917 
L 178.946636 222.527291 
L 178.722783 223.49158 
L 182.931394 222.481514 
L 183.138027 223.342486 
" clip-path="url(#pd08e63373e)"/>
    <path d="M 197.870163 223.347709 
L 191.014223 224.581778 
L 191.606786 225.374767 
L 187.014419 224.851917 
L 191.136221 222.760516 
L 190.857368 223.710361 
L 197.713308 222.476291 
L 197.870163 223.347709 
" clip-path="url(#pd08e63373e)"/>
    <path d="M 212.61186 223.350191 
L 203.083932 224.722213 
L 203.648321 225.535495 
L 199.077114 224.851917 
L 203.269725 222.90635 
L 202.957733 223.845831 
L 212.485661 222.473809 
L 212.61186 223.350191 
" clip-path="url(#pd08e63373e)"/>
    <path d="M 65.010305 198.278432 
L 74.507842 198.962255 
L 74.12986 198.047327 
L 78.450159 199.689959 
L 73.939103 200.696733 
L 74.444257 199.84539 
L 64.94672 199.161568 
L 65.010305 198.278432 
" clip-path="url(#pd08e63373e)"/>
    <path d="M 79.775221 198.279071 
L 86.584181 198.891878 
L 86.222619 197.970337 
L 90.512854 199.689959 
L 85.984518 200.615909 
L 86.504813 199.773735 
L 79.695854 199.160929 
L 79.775221 198.279071 
" clip-path="url(#pd08e63373e)"/>
    <path d="M 94.545309 198.280443 
L 98.672281 198.775679 
L 98.338218 197.843818 
L 102.57555 199.689959 
L 98.021737 200.481162 
L 98.566788 199.654794 
L 94.439815 199.159557 
L 94.545309 198.280443 
" clip-path="url(#pd08e63373e)"/>
    <path d="M 109.328014 198.284291 
L 110.795296 198.548402 
L 110.516443 197.598558 
L 114.638245 199.689959 
L 110.045877 200.212809 
L 110.638441 199.419819 
L 109.171159 199.155709 
L 109.328014 198.284291 
" clip-path="url(#pd08e63373e)"/>
    <path d="M 124.103607 198.450567 
L 124.37304 198.547563 
L 124.297599 197.911701 
L 126.700941 199.689959 
L 123.715624 199.528299 
L 124.179049 199.086429 
L 123.909616 198.989433 
L 124.103607 198.450567 
" clip-path="url(#pd08e63373e)"/>
    <path d="M 138.860632 198.72 
L 138.860632 198.816996 
L 139.054624 198.72 
L 138.763636 199.689959 
L 138.472649 198.72 
L 138.666641 198.816996 
L 138.666641 198.72 
L 138.860632 198.72 
" clip-path="url(#pd08e63373e)"/>
    <path d="M 153.617657 198.989433 
L 153.348224 199.086429 
L 153.811649 199.528299 
L 150.826332 199.689959 
L 153.229674 197.911701 
L 153.154232 198.547563 
L 153.423665 198.450567 
L 153.617657 198.989433 
" clip-path="url(#pd08e63373e)"/>
    <path d="M 168.356113 199.155709 
L 166.888832 199.419819 
L 167.481395 200.212809 
L 162.889027 199.689959 
L 167.01083 197.598558 
L 166.731977 198.548402 
L 168.199258 198.284291 
L 168.356113 199.155709 
" clip-path="url(#pd08e63373e)"/>
    <path d="M 183.087458 199.159557 
L 178.960485 199.654794 
L 179.505536 200.481162 
L 174.951723 199.689959 
L 179.189055 197.843818 
L 178.854991 198.775679 
L 182.981964 198.280443 
L 183.087458 199.159557 
" clip-path="url(#pd08e63373e)"/>
    <path d="M 197.831419 199.160929 
L 191.022459 199.773735 
L 191.542755 200.615909 
L 187.014419 199.689959 
L 191.304654 197.970337 
L 190.943092 198.891878 
L 197.752052 198.279071 
L 197.831419 199.160929 
" clip-path="url(#pd08e63373e)"/>
    <path d="M 212.580553 199.161568 
L 203.083016 199.84539 
L 203.588169 200.696733 
L 199.077114 199.689959 
L 203.397412 198.047327 
L 203.01943 198.962255 
L 212.516967 198.278432 
L 212.580553 199.161568 
" clip-path="url(#pd08e63373e)"/>
    <path d="M 64.978512 174.085289 
L 74.465762 174.085289 
L 74.023051 173.199868 
L 78.450159 174.528 
L 74.023051 175.856132 
L 74.465762 174.970711 
L 64.978512 174.970711 
L 64.978512 174.085289 
" clip-path="url(#pd08e63373e)"/>
    <path d="M 79.735537 174.085289 
L 86.528458 174.085289 
L 86.085747 173.199868 
L 90.512854 174.528 
L 86.085747 175.856132 
L 86.528458 174.970711 
L 79.735537 174.970711 
L 79.735537 174.085289 
" clip-path="url(#pd08e63373e)"/>
    <path d="M 94.492562 174.085289 
L 98.591153 174.085289 
L 98.148442 173.199868 
L 102.57555 174.528 
L 98.148442 175.856132 
L 98.591153 174.970711 
L 94.492562 174.970711 
L 94.492562 174.085289 
" clip-path="url(#pd08e63373e)"/>
    <path d="M 109.249587 174.085289 
L 110.653849 174.085289 
L 110.211138 173.199868 
L 114.638245 174.528 
L 110.211138 175.856132 
L 110.653849 174.970711 
L 109.249587 174.970711 
L 109.249587 174.085289 
" clip-path="url(#pd08e63373e)"/>
    <path d="M 124.006612 174.258567 
L 124.276044 174.258567 
L 124.006612 173.719701 
L 126.700941 174.528 
L 124.006612 175.336299 
L 124.276044 174.797433 
L 124.006612 174.797433 
L 124.006612 174.258567 
" clip-path="url(#pd08e63373e)"/>
    <path d="M 139.206347 174.528 
L 138.984992 174.144601 
L 138.542281 174.144601 
L 138.320926 174.528 
L 138.542281 174.911399 
L 138.984992 174.911399 
L 139.206347 174.528 
L 138.984992 174.144601 
" clip-path="url(#pd08e63373e)"/>
    <path d="M 153.520661 174.797433 
L 153.251228 174.797433 
L 153.520661 175.336299 
L 150.826332 174.528 
L 153.520661 173.719701 
L 153.251228 174.258567 
L 153.520661 174.258567 
L 153.520661 174.797433 
" clip-path="url(#pd08e63373e)"/>
    <path d="M 168.277686 174.970711 
L 166.873424 174.970711 
L 167.316135 175.856132 
L 162.889027 174.528 
L 167.316135 173.199868 
L 166.873424 174.085289 
L 168.277686 174.085289 
L 168.277686 174.970711 
" clip-path="url(#pd08e63373e)"/>
    <path d="M 183.034711 174.970711 
L 178.93612 174.970711 
L 179.37883 175.856132 
L 174.951723 174.528 
L 179.37883 173.199868 
L 178.93612 174.085289 
L 183.034711 174.085289 
L 183.034711 174.970711 
" clip-path="url(#pd08e63373e)"/>
    <path d="M 197.791736 174.970711 
L 190.998815 174.970711 
L 191.441526 175.856132 
L 187.014419 174.528 
L 191.441526 173.199868 
L 190.998815 174.085289 
L 197.791736 174.085289 
L 197.791736 174.970711 
" clip-path="url(#pd08e63373e)"/>
    <path d="M 212.54876 174.970711 
L 203.061511 174.970711 
L 203.504222 175.856132 
L 199.077114 174.528 
L 203.504222 173.199868 
L 203.061511 174.085289 
L 212.54876 174.085289 
L 212.54876 174.970711 
" clip-path="url(#pd08e63373e)"/>
    <path d="M 64.94672 149.894432 
L 74.444257 149.21061 
L 73.939103 148.359267 
L 78.450159 149.366041 
L 74.12986 151.008673 
L 74.507842 150.093745 
L 65.010305 150.777568 
L 64.94672 149.894432 
" clip-path="url(#pd08e63373e)"/>
    <path d="M 79.695854 149.895071 
L 86.504813 149.282265 
L 85.984518 148.440091 
L 90.512854 149.366041 
L 86.222619 151.085663 
L 86.584181 150.164122 
L 79.775221 150.776929 
L 79.695854 149.895071 
" clip-path="url(#pd08e63373e)"/>
    <path d="M 94.439815 149.896443 
L 98.566788 149.401206 
L 98.021737 148.574838 
L 102.57555 149.366041 
L 98.338218 151.212182 
L 98.672281 150.280321 
L 94.545309 150.775557 
L 94.439815 149.896443 
" clip-path="url(#pd08e63373e)"/>
    <path d="M 109.171159 149.900291 
L 110.638441 149.636181 
L 110.045877 148.843191 
L 114.638245 149.366041 
L 110.516443 151.457442 
L 110.795296 150.507598 
L 109.328014 150.771709 
L 109.171159 149.900291 
" clip-path="url(#pd08e63373e)"/>
    <path d="M 123.909616 150.066567 
L 124.179049 149.969571 
L 123.715624 149.527701 
L 126.700941 149.366041 
L 124.297599 151.144299 
L 124.37304 150.508437 
L 124.103607 150.605433 
L 123.909616 150.066567 
" clip-path="url(#pd08e63373e)"/>
    <path d="M 138.666641 150.336 
L 138.666641 150.239004 
L 138.472649 150.336 
L 138.763636 149.366041 
L 139.054624 150.336 
L 138.860632 150.239004 
L 138.860632 150.336 
L 138.666641 150.336 
" clip-path="url(#pd08e63373e)"/>
    <path d="M 153.423665 150.605433 
L 153.154232 150.508437 
L 153.229674 151.144299 
L 150.826332 149.366041 
L 153.811649 149.527701 
L 153.348224 149.969571 
L 153.617657 150.066567 
L 153.423665 150.605433 
" clip-path="url(#pd08e63373e)"/>
    <path d="M 168.199258 150.771709 
L 166.731977 150.507598 
L 167.01083 151.457442 
L 162.889027 149.366041 
L 167.481395 148.843191 
L 166.888832 149.636181 
L 168.356113 149.900291 
L 168.199258 150.771709 
" clip-path="url(#pd08e63373e)"/>
    <path d="M 182.981964 150.775557 
L 178.854991 150.280321 
L 179.189055 151.212182 
L 174.951723 149.366041 
L 179.505536 148.574838 
L 178.960485 149.401206 
L 183.087458 149.896443 
L 182.981964 150.775557 
" clip-path="url(#pd08e63373e)"/>
    <path d="M 197.752052 150.776929 
L 190.943092 150.164122 
L 191.304654 151.085663 
L 187.014419 149.366041 
L 191.542755 148.440091 
L 191.022459 149.282265 
L 197.831419 149.895071 
L 197.752052 150.776929 
" clip-path="url(#pd08e63373e)"/>
    <path d="M 212.516967 150.777568 
L 203.01943 150.093745 
L 203.397412 151.008673 
L 199.077114 149.366041 
L 203.588169 148.359267 
L 203.083016 149.21061 
L 212.580553 149.894432 
L 212.516967 150.777568 
" clip-path="url(#pd08e63373e)"/>
    <path d="M 64.915413 125.705809 
L 74.443341 124.333787 
L 73.878951 123.520505 
L 78.450159 124.204083 
L 74.257548 126.14965 
L 74.56954 125.210169 
L 65.041612 126.582191 
L 64.915413 125.705809 
" clip-path="url(#pd08e63373e)"/>
    <path d="M 79.65711 125.708291 
L 86.51305 124.474222 
L 85.920486 123.681233 
L 90.512854 124.204083 
L 86.391051 126.295484 
L 86.669905 125.345639 
L 79.813965 126.579709 
L 79.65711 125.708291 
" clip-path="url(#pd08e63373e)"/>
    <path d="M 94.389245 125.713514 
L 98.597856 124.703447 
L 97.960737 123.945791 
L 102.57555 124.204083 
L 98.580637 126.528709 
L 98.80449 125.56442 
L 94.595879 126.574486 
L 94.389245 125.713514 
" clip-path="url(#pd08e63373e)"/>
    <path d="M 109.099632 125.727459 
L 110.739422 125.137135 
L 110.022971 124.454008 
L 114.638245 124.204083 
L 110.9227 126.953253 
L 111.039331 125.970217 
L 109.399542 126.560541 
L 109.099632 125.727459 
" clip-path="url(#pd08e63373e)"/>
    <path d="M 123.81262 125.874567 
L 124.082053 125.680575 
L 123.424636 125.335701 
L 126.700941 124.204083 
L 124.588587 126.952299 
L 124.470036 126.219441 
L 124.200603 126.413433 
L 123.81262 125.874567 
" clip-path="url(#pd08e63373e)"/>
    <path d="M 138.569645 126.144 
L 138.569645 125.950008 
L 138.181661 126.144 
L 138.763636 124.204083 
L 139.345611 126.144 
L 138.957628 125.950008 
L 138.957628 126.144 
L 138.569645 126.144 
" clip-path="url(#pd08e63373e)"/>
    <path d="M 153.326669 126.413433 
L 153.057237 126.219441 
L 152.938686 126.952299 
L 150.826332 124.204083 
L 154.102636 125.335701 
L 153.44522 125.680575 
L 153.714653 125.874567 
L 153.326669 126.413433 
" clip-path="url(#pd08e63373e)"/>
    <path d="M 168.127731 126.560541 
L 166.487941 125.970217 
L 166.604573 126.953253 
L 162.889027 124.204083 
L 167.504301 124.454008 
L 166.787851 125.137135 
L 168.427641 125.727459 
L 168.127731 126.560541 
" clip-path="url(#pd08e63373e)"/>
    <path d="M 182.931394 126.574486 
L 178.722783 125.56442 
L 178.946636 126.528709 
L 174.951723 124.204083 
L 179.566536 123.945791 
L 178.929416 124.703447 
L 183.138027 125.713514 
L 182.931394 126.574486 
" clip-path="url(#pd08e63373e)"/>
    <path d="M 197.713308 126.579709 
L 190.857368 125.345639 
L 191.136221 126.295484 
L 187.014419 124.204083 
L 191.606786 123.681233 
L 191.014223 124.474222 
L 197.870163 125.708291 
L 197.713308 126.579709 
" clip-path="url(#pd08e63373e)"/>
    <path d="M 212.485661 126.582191 
L 202.957733 125.210169 
L 203.269725 126.14965 
L 199.077114 124.204083 
L 203.648321 123.520505 
L 203.083932 124.333787 
L 212.61186 125.705809 
L 212.485661 126.582191 
" clip-path="url(#pd08e63373e)"/>
    <path d="M 64.885042 101.519269 
L 74.462109 99.450623 
L 73.842438 98.67863 
L 78.450159 99.042124 
L 74.403258 101.275017 
L 74.649049 100.316085 
L 65.071982 102.384731 
L 64.885042 101.519269 
" clip-path="url(#pd08e63373e)"/>
    <path d="M 79.620138 101.524594 
L 86.550802 99.653315 
L 85.892597 98.913903 
L 90.512854 99.042124 
L 86.584995 101.478338 
L 86.781601 100.508126 
L 79.850937 102.379406 
L 79.620138 101.524594 
" clip-path="url(#pd08e63373e)"/>
    <path d="M 94.342607 101.535459 
L 98.676726 99.975176 
L 97.960276 99.292049 
L 102.57555 99.042124 
L 98.860004 101.791295 
L 98.976636 100.808258 
L 94.642517 102.368541 
L 94.342607 101.535459 
" clip-path="url(#pd08e63373e)"/>
    <path d="M 109.039233 101.562456 
L 110.922 100.545763 
L 110.111749 99.977029 
L 114.638245 99.042124 
L 111.37387 102.31429 
L 111.342707 101.32485 
L 109.45994 102.341544 
L 109.039233 101.562456 
" clip-path="url(#pd08e63373e)"/>
    <path d="M 123.715624 101.682567 
L 123.985057 101.39158 
L 123.133649 101.143701 
L 126.700941 99.042124 
L 124.879574 102.760299 
L 124.567032 101.930445 
L 124.297599 102.221433 
L 123.715624 101.682567 
" clip-path="url(#pd08e63373e)"/>
    <path d="M 138.472649 101.952 
L 138.472649 101.661012 
L 137.890674 101.952 
L 138.763636 99.042124 
L 139.636599 101.952 
L 139.054624 101.661012 
L 139.054624 101.952 
L 138.472649 101.952 
" clip-path="url(#pd08e63373e)"/>
    <path d="M 153.229674 102.221433 
L 152.960241 101.930445 
L 152.647698 102.760299 
L 150.826332 99.042124 
L 154.393624 101.143701 
L 153.542216 101.39158 
L 153.811649 101.682567 
L 153.229674 102.221433 
" clip-path="url(#pd08e63373e)"/>
    <path d="M 168.067332 102.341544 
L 166.184566 101.32485 
L 166.153403 102.31429 
L 162.889027 99.042124 
L 167.415524 99.977029 
L 166.605273 100.545763 
L 168.488039 101.562456 
L 168.067332 102.341544 
" clip-path="url(#pd08e63373e)"/>
    <path d="M 182.884756 102.368541 
L 178.550637 100.808258 
L 178.667268 101.791295 
L 174.951723 99.042124 
L 179.566997 99.292049 
L 178.850546 99.975176 
L 183.184665 101.535459 
L 182.884756 102.368541 
" clip-path="url(#pd08e63373e)"/>
    <path d="M 197.676336 102.379406 
L 190.745671 100.508126 
L 190.942278 101.478338 
L 187.014419 99.042124 
L 191.634676 98.913903 
L 190.976471 99.653315 
L 197.907135 101.524594 
L 197.676336 102.379406 
" clip-path="url(#pd08e63373e)"/>
    <path d="M 212.45529 102.384731 
L 202.878224 100.316085 
L 203.124015 101.275017 
L 199.077114 99.042124 
L 203.684834 98.67863 
L 203.065164 99.450623 
L 212.64223 101.519269 
L 212.45529 102.384731 
" clip-path="url(#pd08e63373e)"/>
    <path d="M 64.855992 77.334581 
L 74.498865 74.557433 
L 73.828405 73.829116 
L 78.450159 73.880166 
L 74.563529 76.381631 
L 74.743907 75.408272 
L 65.101033 78.185419 
L 64.855992 77.334581 
" clip-path="url(#pd08e63373e)"/>
    <path d="M 79.585582 77.343459 
L 86.614031 74.813218 
L 85.89758 74.13009 
L 90.512854 73.880166 
L 86.797309 76.629336 
L 86.91394 75.6463 
L 79.885492 78.176541 
L 79.585582 77.343459 
" clip-path="url(#pd08e63373e)"/>
    <path d="M 94.300987 77.360886 
L 98.79195 75.205224 
L 98.009686 74.598571 
L 102.57555 73.880166 
L 99.159134 76.993255 
L 99.175099 76.003452 
L 94.684137 78.159114 
L 94.300987 77.360886 
" clip-path="url(#pd08e63373e)"/>
    <path d="M 108.990909 77.400725 
L 111.146093 75.848993 
L 110.269462 75.389121 
L 114.638245 73.880166 
L 111.82153 77.544771 
L 111.663449 76.567543 
L 109.508265 78.119275 
L 108.990909 77.400725 
" clip-path="url(#pd08e63373e)"/>
    <path d="M 123.642982 77.50748 
L 124.064628 76.900309 
L 123.084849 76.758898 
L 126.700941 73.880166 
L 125.266625 78.27402 
L 124.791887 77.40535 
L 124.370241 78.01252 
L 123.642982 77.50748 
" clip-path="url(#pd08e63373e)"/>
    <path d="M 138.375653 77.76 
L 138.375653 77.372017 
L 137.599686 77.76 
L 138.763636 73.880166 
L 139.927587 77.76 
L 139.15162 77.372017 
L 139.15162 77.76 
L 138.375653 77.76 
" clip-path="url(#pd08e63373e)"/>
    <path d="M 153.157032 78.01252 
L 152.735386 77.40535 
L 152.260648 78.27402 
L 150.826332 73.880166 
L 154.442423 76.758898 
L 153.462644 76.900309 
L 153.88429 77.50748 
L 153.157032 78.01252 
" clip-path="url(#pd08e63373e)"/>
    <path d="M 168.019008 78.119275 
L 165.863824 76.567543 
L 165.705743 77.544771 
L 162.889027 73.880166 
L 167.257811 75.389121 
L 166.38118 75.848993 
L 168.536364 77.400725 
L 168.019008 78.119275 
" clip-path="url(#pd08e63373e)"/>
    <path d="M 182.843136 78.159114 
L 178.352174 76.003452 
L 178.368138 76.993255 
L 174.951723 73.880166 
L 179.517586 74.598571 
L 178.735323 75.205224 
L 183.226285 77.360886 
L 182.843136 78.159114 
" clip-path="url(#pd08e63373e)"/>
    <path d="M 197.641781 78.176541 
L 190.613332 75.6463 
L 190.729964 76.629336 
L 187.014419 73.880166 
L 191.629692 74.13009 
L 190.913242 74.813218 
L 197.94169 77.343459 
L 197.641781 78.176541 
" clip-path="url(#pd08e63373e)"/>
    <path d="M 212.42624 78.185419 
L 202.783366 75.408272 
L 202.963744 76.381631 
L 199.077114 73.880166 
L 203.698868 73.829116 
L 203.028407 74.557433 
L 212.671281 77.334581 
L 212.42624 78.185419 
" clip-path="url(#pd08e63373e)"/>
    <path d="M 64.828558 53.151459 
L 74.551335 49.651259 
L 73.834885 48.968132 
L 78.450159 48.718207 
L 74.734613 51.467378 
L 74.851245 50.484341 
L 65.128467 53.984541 
L 64.828558 53.151459 
" clip-path="url(#pd08e63373e)"/>
    <path d="M 79.553864 53.164283 
L 86.697724 49.949546 
L 85.930661 49.323784 
L 90.512854 48.718207 
L 87.020698 51.746088 
L 87.06107 50.75698 
L 79.91721 53.971717 
L 79.553864 53.164283 
" clip-path="url(#pd08e63373e)"/>
    <path d="M 94.264789 53.188379 
L 98.931185 50.388541 
L 98.096018 49.857071 
L 102.57555 48.718207 
L 99.462655 52.134799 
L 99.386731 51.147784 
L 94.720335 53.947621 
L 94.264789 53.188379 
" clip-path="url(#pd08e63373e)"/>
    <path d="M 108.953429 53.238936 
L 111.380509 51.054564 
L 110.459129 50.692593 
L 114.638245 48.718207 
L 112.236076 52.666979 
L 111.972824 51.712693 
L 109.545745 53.897064 
L 108.953429 53.238936 
" clip-path="url(#pd08e63373e)"/>
    <path d="M 123.619613 53.353001 
L 124.378948 51.986197 
L 123.389951 51.943197 
L 126.700941 48.718207 
L 125.711944 53.233194 
L 125.152946 52.416196 
L 124.39361 53.782999 
L 123.619613 53.353001 
" clip-path="url(#pd08e63373e)"/>
    <path d="M 138.320926 53.568 
L 138.320926 52.702604 
L 137.435504 53.145315 
L 138.763636 48.718207 
L 140.091769 53.145315 
L 139.206347 52.702604 
L 139.206347 53.568 
L 138.320926 53.568 
" clip-path="url(#pd08e63373e)"/>
    <path d="M 153.133662 53.782999 
L 152.374327 52.416196 
L 151.815329 53.233194 
L 150.826332 48.718207 
L 154.137322 51.943197 
L 153.148325 51.986197 
L 153.90766 53.353001 
L 153.133662 53.782999 
" clip-path="url(#pd08e63373e)"/>
    <path d="M 167.981528 53.897064 
L 165.554448 51.712693 
L 165.291197 52.666979 
L 162.889027 48.718207 
L 167.068144 50.692593 
L 166.146764 51.054564 
L 168.573844 53.238936 
L 167.981528 53.897064 
" clip-path="url(#pd08e63373e)"/>
    <path d="M 182.806938 53.947621 
L 178.140542 51.147784 
L 178.064618 52.134799 
L 174.951723 48.718207 
L 179.431255 49.857071 
L 178.596088 50.388541 
L 183.262484 53.188379 
L 182.806938 53.947621 
" clip-path="url(#pd08e63373e)"/>
    <path d="M 197.610063 53.971717 
L 190.466203 50.75698 
L 190.506574 51.746088 
L 187.014419 48.718207 
L 191.596612 49.323784 
L 190.829548 49.949546 
L 197.973408 53.164283 
L 197.610063 53.971717 
" clip-path="url(#pd08e63373e)"/>
    <path d="M 212.398806 53.984541 
L 202.676028 50.484341 
L 202.792659 51.467378 
L 199.077114 48.718207 
L 203.692388 48.968132 
L 202.975938 49.651259 
L 212.698715 53.151459 
L 212.398806 53.984541 
" clip-path="url(#pd08e63373e)"/>
   </g>
   <g id="matplotlib.axis_1">
    <g id="xtick_1">
     <g id="line2d_1">
      <defs>
       <path id="m2abb61258d" d="M 0 0 
L 0 3.5 
" style="stroke: #000000; stroke-width: 0.8"/>
      </defs>
      <g>
       <use xlink:href="#m2abb61258d" x="64.978512" y="307.584" style="stroke: #000000; stroke-width: 0.8"/>
      </g>
     </g>
     <g id="text_1">
      <!-- −5.0 -->
      <g transform="translate(52.837106 322.182437) scale(0.1 -0.1)">
       <defs>
        <path id="DejaVuSans-2212" d="M 678 2272 
L 4684 2272 
L 4684 1741 
L 678 1741 
L 678 2272 
z
" transform="scale(0.015625)"/>
        <path id="DejaVuSans-35" d="M 691 4666 
L 3169 4666 
L 3169 4134 
L 1269 4134 
L 1269 2991 
Q 1406 3038 1543 3061 
Q 1681 3084 1819 3084 
Q 2600 3084 3056 2656 
Q 3513 2228 3513 1497 
Q 3513 744 3044 326 
Q 2575 -91 1722 -91 
Q 1428 -91 1123 -41 
Q 819 9 494 109 
L 494 744 
Q 775 591 1075 516 
Q 1375 441 1709 441 
Q 2250 441 2565 725 
Q 2881 1009 2881 1497 
Q 2881 1984 2565 2268 
Q 2250 2553 1709 2553 
Q 1456 2553 1204 2497 
Q 953 2441 691 2322 
L 691 4666 
z
" transform="scale(0.015625)"/>
        <path id="DejaVuSans-2e" d="M 684 794 
L 1344 794 
L 1344 0 
L 684 0 
L 684 794 
z
" transform="scale(0.015625)"/>
        <path id="DejaVuSans-30" d="M 2034 4250 
Q 1547 4250 1301 3770 
Q 1056 3291 1056 2328 
Q 1056 1369 1301 889 
Q 1547 409 2034 409 
Q 2525 409 2770 889 
Q 3016 1369 3016 2328 
Q 3016 3291 2770 3770 
Q 2525 4250 2034 4250 
z
M 2034 4750 
Q 2819 4750 3233 4129 
Q 3647 3509 3647 2328 
Q 3647 1150 3233 529 
Q 2819 -91 2034 -91 
Q 1250 -91 836 529 
Q 422 1150 422 2328 
Q 422 3509 836 4129 
Q 1250 4750 2034 4750 
z
" transform="scale(0.015625)"/>
       </defs>
       <use xlink:href="#DejaVuSans-2212"/>
       <use xlink:href="#DejaVuSans-35" x="83.789062"/>
       <use xlink:href="#DejaVuSans-2e" x="147.412109"/>
       <use xlink:href="#DejaVuSans-30" x="179.199219"/>
      </g>
     </g>
    </g>
    <g id="xtick_2">
     <g id="line2d_2">
      <g>
       <use xlink:href="#m2abb61258d" x="101.871074" y="307.584" style="stroke: #000000; stroke-width: 0.8"/>
      </g>
     </g>
     <g id="text_2">
      <!-- −2.5 -->
      <g transform="translate(89.729668 322.182437) scale(0.1 -0.1)">
       <defs>
        <path id="DejaVuSans-32" d="M 1228 531 
L 3431 531 
L 3431 0 
L 469 0 
L 469 531 
Q 828 903 1448 1529 
Q 2069 2156 2228 2338 
Q 2531 2678 2651 2914 
Q 2772 3150 2772 3378 
Q 2772 3750 2511 3984 
Q 2250 4219 1831 4219 
Q 1534 4219 1204 4116 
Q 875 4013 500 3803 
L 500 4441 
Q 881 4594 1212 4672 
Q 1544 4750 1819 4750 
Q 2544 4750 2975 4387 
Q 3406 4025 3406 3419 
Q 3406 3131 3298 2873 
Q 3191 2616 2906 2266 
Q 2828 2175 2409 1742 
Q 1991 1309 1228 531 
z
" transform="scale(0.015625)"/>
       </defs>
       <use xlink:href="#DejaVuSans-2212"/>
       <use xlink:href="#DejaVuSans-32" x="83.789062"/>
       <use xlink:href="#DejaVuSans-2e" x="147.412109"/>
       <use xlink:href="#DejaVuSans-35" x="179.199219"/>
      </g>
     </g>
    </g>
    <g id="xtick_3">
     <g id="line2d_3">
      <g>
       <use xlink:href="#m2abb61258d" x="138.763636" y="307.584" style="stroke: #000000; stroke-width: 0.8"/>
      </g>
     </g>
     <g id="text_3">
      <!-- 0.0 -->
      <g transform="translate(130.812074 322.182437) scale(0.1 -0.1)">
       <use xlink:href="#DejaVuSans-30"/>
       <use xlink:href="#DejaVuSans-2e" x="63.623047"/>
       <use xlink:href="#DejaVuSans-30" x="95.410156"/>
      </g>
     </g>
    </g>
    <g id="xtick_4">
     <g id="line2d_4">
      <g>
       <use xlink:href="#m2abb61258d" x="175.656198" y="307.584" style="stroke: #000000; stroke-width: 0.8"/>
      </g>
     </g>
     <g id="text_4">
      <!-- 2.5 -->
      <g transform="translate(167.704636 322.182437) scale(0.1 -0.1)">
       <use xlink:href="#DejaVuSans-32"/>
       <use xlink:href="#DejaVuSans-2e" x="63.623047"/>
       <use xlink:href="#DejaVuSans-35" x="95.410156"/>
      </g>
     </g>
    </g>
    <g id="xtick_5">
     <g id="line2d_5">
      <g>
       <use xlink:href="#m2abb61258d" x="212.54876" y="307.584" style="stroke: #000000; stroke-width: 0.8"/>
      </g>
     </g>
     <g id="text_5">
      <!-- 5.0 -->
      <g transform="translate(204.597198 322.182437) scale(0.1 -0.1)">
       <use xlink:href="#DejaVuSans-35"/>
       <use xlink:href="#DejaVuSans-2e" x="63.623047"/>
       <use xlink:href="#DejaVuSans-30" x="95.410156"/>
      </g>
     </g>
    </g>
   </g>
   <g id="matplotlib.axis_2">
    <g id="ytick_1">
     <g id="line2d_6">
      <defs>
       <path id="m8f37893548" d="M 0 0 
L -3.5 0 
" style="stroke: #000000; stroke-width: 0.8"/>
      </defs>
      <g>
       <use xlink:href="#m8f37893548" x="57.6" y="271.296" style="stroke: #000000; stroke-width: 0.8"/>
      </g>
     </g>
     <g id="text_6">
      <!-- −4 -->
      <g transform="translate(35.857813 275.095219) scale(0.1 -0.1)">
       <defs>
        <path id="DejaVuSans-34" d="M 2419 4116 
L 825 1625 
L 2419 1625 
L 2419 4116 
z
M 2253 4666 
L 3047 4666 
L 3047 1625 
L 3713 1625 
L 3713 1100 
L 3047 1100 
L 3047 0 
L 2419 0 
L 2419 1100 
L 313 1100 
L 313 1709 
L 2253 4666 
z
" transform="scale(0.015625)"/>
       </defs>
       <use xlink:href="#DejaVuSans-2212"/>
       <use xlink:href="#DejaVuSans-34" x="83.789062"/>
      </g>
     </g>
    </g>
    <g id="ytick_2">
     <g id="line2d_7">
      <g>
       <use xlink:href="#m8f37893548" x="57.6" y="222.912" style="stroke: #000000; stroke-width: 0.8"/>
      </g>
     </g>
     <g id="text_7">
      <!-- −2 -->
      <g transform="translate(35.857813 226.711219) scale(0.1 -0.1)">
       <use xlink:href="#DejaVuSans-2212"/>
       <use xlink:href="#DejaVuSans-32" x="83.789062"/>
      </g>
     </g>
    </g>
    <g id="ytick_3">
     <g id="line2d_8">
      <g>
       <use xlink:href="#m8f37893548" x="57.6" y="174.528" style="stroke: #000000; stroke-width: 0.8"/>
      </g>
     </g>
     <g id="text_8">
      <!-- 0 -->
      <g transform="translate(44.2375 178.327219) scale(0.1 -0.1)">
       <use xlink:href="#DejaVuSans-30"/>
      </g>
     </g>
    </g>
    <g id="ytick_4">
     <g id="line2d_9">
      <g>
       <use xlink:href="#m8f37893548" x="57.6" y="126.144" style="stroke: #000000; stroke-width: 0.8"/>
      </g>
     </g>
     <g id="text_9">
      <!-- 2 -->
      <g transform="translate(44.2375 129.943219) scale(0.1 -0.1)">
       <use xlink:href="#DejaVuSans-32"/>
      </g>
     </g>
    </g>
    <g id="ytick_5">
     <g id="line2d_10">
      <g>
       <use xlink:href="#m8f37893548" x="57.6" y="77.76" style="stroke: #000000; stroke-width: 0.8"/>
      </g>
     </g>
     <g id="text_10">
      <!-- 4 -->
      <g transform="translate(44.2375 81.559219) scale(0.1 -0.1)">
       <use xlink:href="#DejaVuSans-34"/>
      </g>
     </g>
    </g>
   </g>
   <g id="patch_3">
    <path d="M 57.6 307.584 
L 57.6 41.472 
" style="fill: none; stroke: #000000; stroke-width: 0.8; stroke-linejoin: miter; stroke-linecap: square"/>
   </g>
   <g id="patch_4">
    <path d="M 219.927273 307.584 
L 219.927273 41.472 
" style="fill: none; stroke: #000000; stroke-width: 0.8; stroke-linejoin: miter; stroke-linecap: square"/>
   </g>
   <g id="patch_5">
    <path d="M 57.6 307.584 
L 219.927273 307.584 
" style="fill: none; stroke: #000000; stroke-width: 0.8; stroke-linejoin: miter; stroke-linecap: square"/>
   </g>
   <g id="patch_6">
    <path d="M 57.6 41.472 
L 219.927273 41.472 
" style="fill: none; stroke: #000000; stroke-width: 0.8; stroke-linejoin: miter; stroke-linecap: square"/>
   </g>
  </g>
  <g id="axes_2">
   <g id="patch_7">
    <path d="M 252.392727 307.584 
L 414.72 307.584 
L 414.72 41.472 
L 252.392727 41.472 
z
" style="fill: #ffffff"/>
   </g>
   <g id="matplotlib.axis_3">
    <g id="xtick_6">
     <g id="line2d_11">
      <g>
       <use xlink:href="#m2abb61258d" x="279.447273" y="307.584" style="stroke: #000000; stroke-width: 0.8"/>
      </g>
     </g>
     <g id="text_11">
      <!-- 0 -->
      <g transform="translate(276.266023 322.182437) scale(0.1 -0.1)">
       <use xlink:href="#DejaVuSans-30"/>
      </g>
     </g>
    </g>
    <g id="xtick_7">
     <g id="line2d_12">
      <g>
       <use xlink:href="#m2abb61258d" x="333.556364" y="307.584" style="stroke: #000000; stroke-width: 0.8"/>
      </g>
     </g>
     <g id="text_12">
      <!-- 2 -->
      <g transform="translate(330.375114 322.182437) scale(0.1 -0.1)">
       <use xlink:href="#DejaVuSans-32"/>
      </g>
     </g>
    </g>
    <g id="xtick_8">
     <g id="line2d_13">
      <g>
       <use xlink:href="#m2abb61258d" x="387.665455" y="307.584" style="stroke: #000000; stroke-width: 0.8"/>
      </g>
     </g>
     <g id="text_13">
      <!-- 4 -->
      <g transform="translate(384.484205 322.182437) scale(0.1 -0.1)">
       <use xlink:href="#DejaVuSans-34"/>
      </g>
     </g>
    </g>
   </g>
   <g id="matplotlib.axis_4">
    <g id="ytick_6">
     <g id="line2d_14">
      <g>
       <use xlink:href="#m8f37893548" x="252.392727" y="307.584" style="stroke: #000000; stroke-width: 0.8"/>
      </g>
     </g>
     <g id="text_14">
      <!-- −5 -->
      <g transform="translate(230.65054 311.383219) scale(0.1 -0.1)">
       <use xlink:href="#DejaVuSans-2212"/>
       <use xlink:href="#DejaVuSans-35" x="83.789062"/>
      </g>
     </g>
    </g>
    <g id="ytick_7">
     <g id="line2d_15">
      <g>
       <use xlink:href="#m8f37893548" x="252.392727" y="263.232" style="stroke: #000000; stroke-width: 0.8"/>
      </g>
     </g>
     <g id="text_15">
      <!-- −4 -->
      <g transform="translate(230.65054 267.031219) scale(0.1 -0.1)">
       <use xlink:href="#DejaVuSans-2212"/>
       <use xlink:href="#DejaVuSans-34" x="83.789062"/>
      </g>
     </g>
    </g>
    <g id="ytick_8">
     <g id="line2d_16">
      <g>
       <use xlink:href="#m8f37893548" x="252.392727" y="218.88" style="stroke: #000000; stroke-width: 0.8"/>
      </g>
     </g>
     <g id="text_16">
      <!-- −3 -->
      <g transform="translate(230.65054 222.679219) scale(0.1 -0.1)">
       <defs>
        <path id="DejaVuSans-33" d="M 2597 2516 
Q 3050 2419 3304 2112 
Q 3559 1806 3559 1356 
Q 3559 666 3084 287 
Q 2609 -91 1734 -91 
Q 1441 -91 1130 -33 
Q 819 25 488 141 
L 488 750 
Q 750 597 1062 519 
Q 1375 441 1716 441 
Q 2309 441 2620 675 
Q 2931 909 2931 1356 
Q 2931 1769 2642 2001 
Q 2353 2234 1838 2234 
L 1294 2234 
L 1294 2753 
L 1863 2753 
Q 2328 2753 2575 2939 
Q 2822 3125 2822 3475 
Q 2822 3834 2567 4026 
Q 2313 4219 1838 4219 
Q 1578 4219 1281 4162 
Q 984 4106 628 3988 
L 628 4550 
Q 988 4650 1302 4700 
Q 1616 4750 1894 4750 
Q 2613 4750 3031 4423 
Q 3450 4097 3450 3541 
Q 3450 3153 3228 2886 
Q 3006 2619 2597 2516 
z
" transform="scale(0.015625)"/>
       </defs>
       <use xlink:href="#DejaVuSans-2212"/>
       <use xlink:href="#DejaVuSans-33" x="83.789062"/>
      </g>
     </g>
    </g>
    <g id="ytick_9">
     <g id="line2d_17">
      <g>
       <use xlink:href="#m8f37893548" x="252.392727" y="174.528" style="stroke: #000000; stroke-width: 0.8"/>
      </g>
     </g>
     <g id="text_17">
      <!-- −2 -->
      <g transform="translate(230.65054 178.327219) scale(0.1 -0.1)">
       <use xlink:href="#DejaVuSans-2212"/>
       <use xlink:href="#DejaVuSans-32" x="83.789062"/>
      </g>
     </g>
    </g>
    <g id="ytick_10">
     <g id="line2d_18">
      <g>
       <use xlink:href="#m8f37893548" x="252.392727" y="130.176" style="stroke: #000000; stroke-width: 0.8"/>
      </g>
     </g>
     <g id="text_18">
      <!-- −1 -->
      <g transform="translate(230.65054 133.975219) scale(0.1 -0.1)">
       <defs>
        <path id="DejaVuSans-31" d="M 794 531 
L 1825 531 
L 1825 4091 
L 703 3866 
L 703 4441 
L 1819 4666 
L 2450 4666 
L 2450 531 
L 3481 531 
L 3481 0 
L 794 0 
L 794 531 
z
" transform="scale(0.015625)"/>
       </defs>
       <use xlink:href="#DejaVuSans-2212"/>
       <use xlink:href="#DejaVuSans-31" x="83.789062"/>
      </g>
     </g>
    </g>
    <g id="ytick_11">
     <g id="line2d_19">
      <g>
       <use xlink:href="#m8f37893548" x="252.392727" y="85.824" style="stroke: #000000; stroke-width: 0.8"/>
      </g>
     </g>
     <g id="text_19">
      <!-- 0 -->
      <g transform="translate(239.030227 89.623219) scale(0.1 -0.1)">
       <use xlink:href="#DejaVuSans-30"/>
      </g>
     </g>
    </g>
    <g id="ytick_12">
     <g id="line2d_20">
      <g>
       <use xlink:href="#m8f37893548" x="252.392727" y="41.472" style="stroke: #000000; stroke-width: 0.8"/>
      </g>
     </g>
     <g id="text_20">
      <!-- 1 -->
      <g transform="translate(239.030227 45.271219) scale(0.1 -0.1)">
       <use xlink:href="#DejaVuSans-31"/>
      </g>
     </g>
    </g>
   </g>
   <g id="line2d_21">
    <path d="M 297.618456 346.6 
L 298.221488 307.993893 
L 299.560551 249.782243 
L 300.899614 209.216633 
L 302.238678 180.300138 
L 303.577741 159.271618 
L 304.916804 143.705562 
L 306.255868 131.998701 
L 307.594931 123.067652 
L 308.933994 116.165696 
L 310.273058 110.768872 
L 311.612121 106.503509 
L 312.951185 103.099135 
L 314.290248 100.357309 
L 315.629311 98.130609 
L 316.968375 96.308249 
L 318.307438 94.806086 
L 319.646501 93.559574 
L 320.985565 92.518747 
L 322.324628 91.644593 
L 323.663691 90.906404 
L 325.002755 90.279828 
L 326.341818 89.745419 
L 327.680882 89.28754 
L 329.019945 88.893545 
L 330.359008 88.553139 
L 331.698072 88.257901 
L 333.037135 88.000899 
L 334.376198 87.776405 
L 335.715262 87.579658 
L 337.054325 87.406687 
L 338.393388 87.254162 
L 339.732452 87.119281 
L 341.071515 86.999677 
L 342.410579 86.893342 
L 343.749642 86.798567 
L 345.088705 86.713892 
L 346.427769 86.638067 
L 347.766832 86.570017 
L 349.105895 86.508815 
L 350.444959 86.45366 
L 351.784022 86.403855 
L 353.123085 86.358798 
L 354.462149 86.317961 
L 355.801212 86.280884 
L 357.140275 86.247164 
L 358.479339 86.216446 
L 359.818402 86.188419 
L 361.157466 86.162809 
L 362.496529 86.139371 
L 363.835592 86.117892 
L 365.174656 86.09818 
L 366.513719 86.080065 
L 367.852782 86.063397 
L 369.191846 86.04804 
L 370.530909 86.033875 
L 371.869972 86.020793 
L 373.209036 86.008697 
L 374.548099 85.9975 
L 375.887163 85.987125 
L 377.226226 85.977501 
L 378.565289 85.968564 
L 379.904353 85.960257 
L 381.243416 85.952528 
L 382.582479 85.94533 
L 383.921543 85.93862 
L 385.260606 85.93236 
L 386.599669 85.926514 
L 387.938733 85.921051 
L 389.277796 85.91594 
L 390.61686 85.911155 
L 391.955923 85.906673 
L 393.294986 85.90247 
L 394.63405 85.898526 
L 395.973113 85.894822 
L 397.312176 85.891342 
L 398.65124 85.888069 
L 399.990303 85.88499 
L 401.329366 85.88209 
L 402.66843 85.879357 
L 404.007493 85.87678 
L 405.346556 85.874349 
L 406.68562 85.872054 
L 408.024683 85.869886 
L 409.363747 85.867836 
L 410.70281 85.865898 
L 412.041873 85.864064 
L 413.380937 85.862327 
L 414.72 85.860682 
" clip-path="url(#pde801c3021)" style="fill: none; stroke: #1f77b4; stroke-width: 1.5; stroke-linecap: square"/>
   </g>
   <g id="line2d_22">
    <path d="M 300.668699 346.6 
L 300.899614 332.609265 
L 302.238678 274.776277 
L 303.577741 232.719235 
L 304.916804 201.587124 
L 306.255868 178.173402 
L 307.594931 160.311303 
L 308.933994 146.507391 
L 310.273058 135.713745 
L 311.612121 127.183017 
L 312.951185 120.374269 
L 314.290248 114.890618 
L 315.629311 110.437218 
L 316.968375 106.792499 
L 318.307438 103.788171 
L 319.646501 101.295147 
L 320.985565 99.213495 
L 322.324628 97.465186 
L 323.663691 95.988807 
L 325.002755 94.735656 
L 326.341818 93.666837 
L 327.680882 92.751081 
L 329.019945 91.96309 
L 330.359008 91.282279 
L 331.698072 90.691801 
L 333.037135 90.177797 
L 334.376198 89.728809 
L 335.715262 89.335316 
L 337.054325 88.989374 
L 338.393388 88.684324 
L 339.732452 88.414563 
L 341.071515 88.175355 
L 342.410579 87.962684 
L 343.749642 87.773134 
L 345.088705 87.603785 
L 346.427769 87.452135 
L 347.766832 87.316035 
L 349.105895 87.193631 
L 350.444959 87.083319 
L 351.784022 86.98371 
L 353.123085 86.893596 
L 354.462149 86.811922 
L 355.801212 86.737768 
L 357.140275 86.670328 
L 358.479339 86.608892 
L 359.818402 86.552839 
L 361.157466 86.501617 
L 362.496529 86.454742 
L 363.835592 86.411784 
L 365.174656 86.37236 
L 366.513719 86.33613 
L 367.852782 86.302794 
L 369.191846 86.272081 
L 370.530909 86.24375 
L 371.869972 86.217585 
L 373.209036 86.193393 
L 374.548099 86.171 
L 375.887163 86.15025 
L 377.226226 86.131002 
L 378.565289 86.113128 
L 379.904353 86.096514 
L 381.243416 86.081056 
L 382.582479 86.06666 
L 383.921543 86.053241 
L 385.260606 86.04072 
L 386.599669 86.029029 
L 387.938733 86.018101 
L 389.277796 86.00788 
L 390.61686 85.998311 
L 391.955923 85.989346 
L 393.294986 85.98094 
L 394.63405 85.973052 
L 395.973113 85.965645 
L 397.312176 85.958684 
L 398.65124 85.952139 
L 399.990303 85.945979 
L 401.329366 85.940179 
L 402.66843 85.934713 
L 404.007493 85.92956 
L 405.346556 85.924698 
L 406.68562 85.920107 
L 408.024683 85.915771 
L 409.363747 85.911673 
L 410.70281 85.907796 
L 412.041873 85.904128 
L 413.380937 85.900655 
L 414.72 85.897364 
" clip-path="url(#pde801c3021)" style="fill: none; stroke: #ff7f0e; stroke-width: 1.5; stroke-linecap: square"/>
   </g>
   <g id="line2d_23">
    <path d="M 302.719501 346.6 
L 303.577741 306.166853 
L 304.916804 259.468686 
L 306.255868 224.348104 
L 307.594931 197.554955 
L 308.933994 176.849087 
L 310.273058 160.658617 
L 311.612121 147.862526 
L 312.951185 137.649404 
L 314.290248 129.423926 
L 315.629311 122.743827 
L 316.968375 117.276748 
L 318.307438 112.770257 
L 319.646501 109.030721 
L 320.985565 105.908242 
L 322.324628 103.285779 
L 323.663691 101.071211 
L 325.002755 99.191484 
L 326.341818 97.588256 
L 327.680882 96.214621 
L 329.019945 95.032635 
L 330.359008 94.011418 
L 331.698072 93.125702 
L 333.037135 92.354696 
L 334.376198 91.681214 
L 335.715262 91.090974 
L 337.054325 90.572061 
L 338.393388 90.114486 
L 339.732452 89.709844 
L 341.071515 89.351032 
L 342.410579 89.032027 
L 343.749642 88.747701 
L 345.088705 88.493677 
L 346.427769 88.266202 
L 347.766832 88.062052 
L 349.105895 87.878446 
L 350.444959 87.712979 
L 351.784022 87.563566 
L 353.123085 87.428394 
L 354.462149 87.305883 
L 355.801212 87.194652 
L 357.140275 87.093491 
L 358.479339 87.001338 
L 359.818402 86.917258 
L 361.157466 86.840426 
L 362.496529 86.770114 
L 363.835592 86.705676 
L 365.174656 86.646539 
L 366.513719 86.592196 
L 367.852782 86.542191 
L 369.191846 86.496121 
L 370.530909 86.453625 
L 371.869972 86.414378 
L 373.209036 86.37809 
L 374.548099 86.344501 
L 375.887163 86.313375 
L 377.226226 86.284502 
L 378.565289 86.257692 
L 379.904353 86.232771 
L 381.243416 86.209584 
L 382.582479 86.18799 
L 383.921543 86.167861 
L 385.260606 86.14908 
L 386.599669 86.131543 
L 387.938733 86.115152 
L 389.277796 86.09982 
L 390.61686 86.085466 
L 391.955923 86.072018 
L 393.294986 86.059409 
L 394.63405 86.047578 
L 395.973113 86.036467 
L 397.312176 86.026026 
L 398.65124 86.016208 
L 399.990303 86.006969 
L 401.329366 85.998269 
L 402.66843 85.99007 
L 404.007493 85.98234 
L 405.346556 85.975047 
L 406.68562 85.968161 
L 408.024683 85.961657 
L 409.363747 85.955509 
L 410.70281 85.949694 
L 412.041873 85.944192 
L 413.380937 85.938982 
L 414.72 85.934047 
" clip-path="url(#pde801c3021)" style="fill: none; stroke: #2ca02c; stroke-width: 1.5; stroke-linecap: square"/>
   </g>
   <g id="line2d_24">
    <path d="M 304.287755 346.6 
L 304.916804 317.350248 
L 306.255868 270.522805 
L 307.594931 234.798607 
L 308.933994 207.190782 
L 310.273058 185.60349 
L 311.612121 168.542035 
L 312.951185 154.924539 
L 314.290248 143.957235 
L 315.629311 135.050436 
L 316.968375 127.760998 
L 318.307438 121.752343 
L 319.646501 116.766295 
L 320.985565 112.60299 
L 322.324628 109.106372 
L 323.663691 106.153615 
L 325.002755 103.647312 
L 326.341818 101.509674 
L 327.680882 99.678161 
L 329.019945 98.10218 
L 330.359008 96.740558 
L 331.698072 95.559602 
L 333.037135 94.531595 
L 334.376198 93.633618 
L 335.715262 92.846632 
L 337.054325 92.154748 
L 338.393388 91.544649 
L 339.732452 91.005126 
L 341.071515 90.526709 
L 342.410579 90.101369 
L 343.749642 89.722268 
L 345.088705 89.383569 
L 346.427769 89.08027 
L 347.766832 88.80807 
L 349.105895 88.563261 
L 350.444959 88.342638 
L 351.784022 88.143421 
L 353.123085 87.963192 
L 354.462149 87.799844 
L 355.801212 87.651536 
L 357.140275 87.516655 
L 358.479339 87.393784 
L 359.818402 87.281677 
L 361.157466 87.179235 
L 362.496529 87.085485 
L 363.835592 86.999567 
L 365.174656 86.920719 
L 366.513719 86.848261 
L 367.852782 86.781588 
L 369.191846 86.720162 
L 370.530909 86.6635 
L 371.869972 86.611171 
L 373.209036 86.562787 
L 374.548099 86.518001 
L 375.887163 86.4765 
L 377.226226 86.438003 
L 378.565289 86.402255 
L 379.904353 86.369028 
L 381.243416 86.338112 
L 382.582479 86.30932 
L 383.921543 86.282481 
L 385.260606 86.257441 
L 386.599669 86.234057 
L 387.938733 86.212202 
L 389.277796 86.19176 
L 390.61686 86.172622 
L 391.955923 86.154691 
L 393.294986 86.137879 
L 394.63405 86.122104 
L 395.973113 86.10729 
L 397.312176 86.093369 
L 398.65124 86.080278 
L 399.990303 86.067959 
L 401.329366 86.056358 
L 402.66843 86.045427 
L 404.007493 86.03512 
L 405.346556 86.025396 
L 406.68562 86.016215 
L 408.024683 86.007542 
L 409.363747 85.999345 
L 410.70281 85.991592 
L 412.041873 85.984256 
L 413.380937 85.977309 
L 414.72 85.970729 
" clip-path="url(#pde801c3021)" style="fill: none; stroke: #d62728; stroke-width: 1.5; stroke-linecap: square"/>
   </g>
   <g id="line2d_25">
    <path d="M 288.835668 346.6 
L 288.848044 343.966499 
L 290.187107 221.324977 
L 291.526171 162.552832 
L 292.865234 131.952353 
L 294.204298 114.932282 
L 295.543361 104.942083 
L 296.882424 98.809847 
L 298.221488 94.900779 
L 299.560551 92.327 
L 300.899614 90.584288 
L 302.238678 89.375066 
L 303.577741 88.517721 
L 304.916804 87.898098 
L 306.255868 87.442543 
L 307.594931 87.10241 
L 308.933994 86.844889 
L 310.273058 86.647429 
L 311.612121 86.494262 
L 312.951185 86.374185 
L 314.290248 86.279127 
L 315.629311 86.203197 
L 316.968375 86.142037 
L 318.307438 86.092391 
L 319.646501 86.051802 
L 320.985565 86.018392 
L 322.324628 85.99072 
L 323.663691 85.967663 
L 325.002755 85.948347 
L 326.341818 85.932078 
L 327.680882 85.91831 
L 329.019945 85.906603 
L 330.359008 85.896606 
L 331.698072 85.888033 
L 333.037135 85.880651 
L 334.376198 85.874273 
L 335.715262 85.868741 
L 337.054325 85.863927 
L 338.393388 85.859725 
L 339.732452 85.856044 
L 341.071515 85.852812 
L 342.410579 85.849965 
L 343.749642 85.847451 
L 345.088705 85.845224 
L 346.427769 85.843248 
L 347.766832 85.841489 
L 349.105895 85.839921 
L 350.444959 85.838519 
L 351.784022 85.837264 
L 353.123085 85.836137 
L 354.462149 85.835124 
L 355.801212 85.834211 
L 357.140275 85.833387 
L 358.479339 85.832642 
L 359.818402 85.831967 
L 361.157466 85.831355 
L 362.496529 85.830798 
L 363.835592 85.830292 
L 365.174656 85.82983 
L 366.513719 85.829409 
L 367.852782 85.829024 
L 369.191846 85.828671 
L 370.530909 85.828348 
L 371.869972 85.828051 
L 373.209036 85.827779 
L 374.548099 85.827528 
L 375.887163 85.827297 
L 377.226226 85.827084 
L 378.565289 85.826888 
L 379.904353 85.826706 
L 381.243416 85.826538 
L 382.582479 85.826383 
L 383.921543 85.826239 
L 385.260606 85.826105 
L 386.599669 85.82598 
L 387.938733 85.825865 
L 389.277796 85.825757 
L 390.61686 85.825657 
L 391.955923 85.825564 
L 393.294986 85.825477 
L 394.63405 85.825396 
L 395.973113 85.82532 
L 397.312176 85.825249 
L 398.65124 85.825182 
L 399.990303 85.82512 
L 401.329366 85.825062 
L 402.66843 85.825007 
L 404.007493 85.824956 
L 405.346556 85.824908 
L 406.68562 85.824862 
L 408.024683 85.82482 
L 409.363747 85.82478 
L 410.70281 85.824742 
L 412.041873 85.824706 
L 413.380937 85.824673 
L 414.72 85.824641 
" clip-path="url(#pde801c3021)" style="fill: none; stroke: #9467bd; stroke-width: 1.5; stroke-linecap: square"/>
   </g>
   <g id="line2d_26">
    <path d="M 290.303601 346.6 
L 291.526171 239.281664 
L 292.865234 178.080706 
L 294.204298 144.040564 
L 295.543361 124.060166 
L 296.882424 111.795694 
L 298.221488 103.977558 
L 299.560551 98.83 
L 300.899614 95.344576 
L 302.238678 92.926131 
L 303.577741 91.211441 
L 304.916804 89.972197 
L 306.255868 89.061087 
L 307.594931 88.38082 
L 308.933994 87.865778 
L 310.273058 87.470859 
L 311.612121 87.164523 
L 312.951185 86.924369 
L 314.290248 86.734255 
L 315.629311 86.582393 
L 316.968375 86.460073 
L 318.307438 86.360782 
L 319.646501 86.279603 
L 320.985565 86.212785 
L 322.324628 86.15744 
L 323.663691 86.111327 
L 325.002755 86.072693 
L 326.341818 86.040157 
L 327.680882 86.01262 
L 329.019945 85.989207 
L 330.359008 85.969212 
L 331.698072 85.952065 
L 333.037135 85.937303 
L 334.376198 85.924546 
L 335.715262 85.913482 
L 337.054325 85.903854 
L 338.393388 85.895449 
L 339.732452 85.888089 
L 341.071515 85.881624 
L 342.410579 85.87593 
L 343.749642 85.870901 
L 345.088705 85.866448 
L 346.427769 85.862496 
L 347.766832 85.858979 
L 349.105895 85.855842 
L 350.444959 85.853039 
L 351.784022 85.850528 
L 353.123085 85.848274 
L 354.462149 85.846248 
L 355.801212 85.844422 
L 357.140275 85.842774 
L 358.479339 85.841284 
L 359.818402 85.839934 
L 361.157466 85.838709 
L 362.496529 85.837596 
L 363.835592 85.836583 
L 365.174656 85.83566 
L 366.513719 85.834817 
L 367.852782 85.834047 
L 369.191846 85.833342 
L 370.530909 85.832696 
L 371.869972 85.832103 
L 373.209036 85.831558 
L 374.548099 85.831056 
L 375.887163 85.830595 
L 377.226226 85.830169 
L 378.565289 85.829776 
L 379.904353 85.829413 
L 381.243416 85.829077 
L 382.582479 85.828766 
L 383.921543 85.828477 
L 385.260606 85.828209 
L 386.599669 85.827961 
L 387.938733 85.82773 
L 389.277796 85.827515 
L 390.61686 85.827315 
L 391.955923 85.827128 
L 393.294986 85.826954 
L 394.63405 85.826791 
L 395.973113 85.826639 
L 397.312176 85.826497 
L 398.65124 85.826365 
L 399.990303 85.82624 
L 401.329366 85.826123 
L 402.66843 85.826014 
L 404.007493 85.825911 
L 405.346556 85.825815 
L 406.68562 85.825724 
L 408.024683 85.825639 
L 409.363747 85.825559 
L 410.70281 85.825484 
L 412.041873 85.825412 
L 413.380937 85.825345 
L 414.72 85.825282 
" clip-path="url(#pde801c3021)" style="fill: none; stroke: #8c564b; stroke-width: 1.5; stroke-linecap: square"/>
   </g>
   <g id="line2d_27">
    <path d="M 291.293854 346.6 
L 291.526171 316.010496 
L 292.865234 224.209059 
L 294.204298 173.148846 
L 295.543361 143.178249 
L 296.882424 124.781541 
L 298.221488 113.054337 
L 299.560551 105.333 
L 300.899614 100.104864 
L 302.238678 96.477197 
L 303.577741 93.905162 
L 304.916804 92.046295 
L 306.255868 90.67963 
L 307.594931 89.65923 
L 308.933994 88.886667 
L 310.273058 88.294288 
L 311.612121 87.834785 
L 312.951185 87.474554 
L 314.290248 87.189382 
L 315.629311 86.96159 
L 316.968375 86.77811 
L 318.307438 86.629174 
L 319.646501 86.507405 
L 320.985565 86.407177 
L 322.324628 86.32416 
L 323.663691 86.25499 
L 325.002755 86.19704 
L 326.341818 86.148235 
L 327.680882 86.10693 
L 329.019945 86.07181 
L 330.359008 86.041818 
L 331.698072 86.016098 
L 333.037135 85.993954 
L 334.376198 85.974819 
L 335.715262 85.958223 
L 337.054325 85.943782 
L 338.393388 85.931174 
L 339.732452 85.920133 
L 341.071515 85.910436 
L 342.410579 85.901895 
L 343.749642 85.894352 
L 345.088705 85.887672 
L 346.427769 85.881743 
L 347.766832 85.876468 
L 349.105895 85.871763 
L 350.444959 85.867558 
L 351.784022 85.863792 
L 353.123085 85.860412 
L 354.462149 85.857372 
L 355.801212 85.854633 
L 357.140275 85.852161 
L 358.479339 85.849925 
L 359.818402 85.847901 
L 361.157466 85.846064 
L 362.496529 85.844394 
L 363.835592 85.842875 
L 365.174656 85.84149 
L 366.513719 85.840226 
L 367.852782 85.839071 
L 369.191846 85.838013 
L 370.530909 85.837044 
L 371.869972 85.836154 
L 373.209036 85.835337 
L 374.548099 85.834585 
L 375.887163 85.833892 
L 377.226226 85.833253 
L 378.565289 85.832664 
L 379.904353 85.832119 
L 381.243416 85.831615 
L 382.582479 85.831148 
L 383.921543 85.830716 
L 385.260606 85.830314 
L 386.599669 85.829941 
L 387.938733 85.829595 
L 389.277796 85.829272 
L 390.61686 85.828972 
L 391.955923 85.828692 
L 393.294986 85.828431 
L 394.63405 85.828187 
L 395.973113 85.827959 
L 397.312176 85.827746 
L 398.65124 85.827547 
L 399.990303 85.82736 
L 401.329366 85.827185 
L 402.66843 85.827021 
L 404.007493 85.826867 
L 405.346556 85.826723 
L 406.68562 85.826587 
L 408.024683 85.826459 
L 409.363747 85.826339 
L 410.70281 85.826225 
L 412.041873 85.826119 
L 413.380937 85.826018 
L 414.72 85.825923 
" clip-path="url(#pde801c3021)" style="fill: none; stroke: #e377c2; stroke-width: 1.5; stroke-linecap: square"/>
   </g>
   <g id="line2d_28">
    <path d="M 292.03093 346.6 
L 292.865234 270.337412 
L 294.204298 202.257128 
L 295.543361 162.296332 
L 296.882424 137.767389 
L 298.221488 122.131116 
L 299.560551 111.836 
L 300.899614 104.865152 
L 302.238678 100.028262 
L 303.577741 96.598883 
L 304.916804 94.120394 
L 306.255868 92.298174 
L 307.594931 90.937641 
L 308.933994 89.907557 
L 310.273058 89.117717 
L 311.612121 88.505046 
L 312.951185 88.024739 
L 314.290248 87.64451 
L 315.629311 87.340787 
L 316.968375 87.096146 
L 318.307438 86.897565 
L 319.646501 86.735207 
L 320.985565 86.60157 
L 322.324628 86.490879 
L 323.663691 86.398654 
L 325.002755 86.321387 
L 326.341818 86.256313 
L 327.680882 86.20124 
L 329.019945 86.154414 
L 330.359008 86.114424 
L 331.698072 86.08013 
L 333.037135 86.050606 
L 334.376198 86.025091 
L 335.715262 86.002964 
L 337.054325 85.983709 
L 338.393388 85.966898 
L 339.732452 85.952177 
L 341.071515 85.939248 
L 342.410579 85.92786 
L 343.749642 85.917802 
L 345.088705 85.908896 
L 346.427769 85.900991 
L 347.766832 85.893957 
L 349.105895 85.887684 
L 350.444959 85.882078 
L 351.784022 85.877056 
L 353.123085 85.872549 
L 354.462149 85.868496 
L 355.801212 85.864844 
L 357.140275 85.861548 
L 358.479339 85.858567 
L 359.818402 85.855867 
L 361.157466 85.853418 
L 362.496529 85.851192 
L 363.835592 85.849167 
L 365.174656 85.84732 
L 366.513719 85.845635 
L 367.852782 85.844094 
L 369.191846 85.842684 
L 370.530909 85.841392 
L 371.869972 85.840205 
L 373.209036 85.839116 
L 374.548099 85.838113 
L 375.887163 85.83719 
L 377.226226 85.836338 
L 378.565289 85.835552 
L 379.904353 85.834825 
L 381.243416 85.834153 
L 382.582479 85.833531 
L 383.921543 85.832954 
L 385.260606 85.832419 
L 386.599669 85.831922 
L 387.938733 85.83146 
L 389.277796 85.83103 
L 390.61686 85.830629 
L 391.955923 85.830256 
L 393.294986 85.829908 
L 394.63405 85.829583 
L 395.973113 85.829279 
L 397.312176 85.828995 
L 398.65124 85.828729 
L 399.990303 85.82848 
L 401.329366 85.828247 
L 402.66843 85.828028 
L 404.007493 85.827823 
L 405.346556 85.82763 
L 406.68562 85.827449 
L 408.024683 85.827278 
L 409.363747 85.827118 
L 410.70281 85.826967 
L 412.041873 85.826825 
L 413.380937 85.826691 
L 414.72 85.826564 
" clip-path="url(#pde801c3021)" style="fill: none; stroke: #7f7f7f; stroke-width: 1.5; stroke-linecap: square"/>
   </g>
   <g id="line2d_29">
    <path d="M 286.024559 346.6 
L 286.169917 295.623879 
L 287.508981 166.082952 
L 288.848044 121.424639 
L 290.187107 103.424109 
L 291.526171 95.276967 
L 292.865234 91.244394 
L 294.204298 89.101094 
L 295.543361 87.893865 
L 296.882424 87.180284 
L 298.221488 86.740961 
L 299.560551 86.460896 
L 300.899614 86.276889 
L 302.238678 86.152763 
L 303.577741 86.067064 
L 304.916804 86.006659 
L 306.255868 85.963291 
L 307.594931 85.931632 
L 308.933994 85.908172 
L 310.273058 85.890548 
L 311.612121 85.877143 
L 312.951185 85.866829 
L 314.290248 85.85881 
L 315.629311 85.852514 
L 316.968375 85.847527 
L 318.307438 85.843544 
L 319.646501 85.840337 
L 320.985565 85.837737 
L 322.324628 85.835615 
L 323.663691 85.833871 
L 325.002755 85.83243 
L 326.341818 85.831232 
L 327.680882 85.830231 
L 329.019945 85.829391 
L 330.359008 85.828682 
L 331.698072 85.828081 
L 333.037135 85.82757 
L 334.376198 85.827133 
L 335.715262 85.826758 
L 337.054325 85.826435 
L 338.393388 85.826157 
L 339.732452 85.825915 
L 341.071515 85.825705 
L 342.410579 85.825522 
L 343.749642 85.825361 
L 345.088705 85.825221 
L 346.427769 85.825097 
L 347.766832 85.824988 
L 349.105895 85.824892 
L 350.444959 85.824806 
L 351.784022 85.82473 
L 353.123085 85.824663 
L 354.462149 85.824603 
L 355.801212 85.824549 
L 357.140275 85.8245 
L 358.479339 85.824457 
L 359.818402 85.824418 
L 361.157466 85.824383 
L 362.496529 85.824352 
L 363.835592 85.824323 
L 365.174656 85.824297 
L 366.513719 85.824274 
L 367.852782 85.824253 
L 369.191846 85.824233 
L 370.530909 85.824216 
L 371.869972 85.8242 
L 373.209036 85.824185 
L 374.548099 85.824172 
L 375.887163 85.82416 
L 377.226226 85.824148 
L 378.565289 85.824138 
L 379.904353 85.824129 
L 381.243416 85.82412 
L 382.582479 85.824112 
L 383.921543 85.824104 
L 385.260606 85.824098 
L 386.599669 85.824091 
L 387.938733 85.824086 
L 389.277796 85.82408 
L 390.61686 85.824075 
L 391.955923 85.824071 
L 393.294986 85.824066 
L 394.63405 85.824062 
L 395.973113 85.824059 
L 397.312176 85.824055 
L 398.65124 85.824052 
L 399.990303 85.824049 
L 401.329366 85.824046 
L 402.66843 85.824044 
L 404.007493 85.824041 
L 405.346556 85.824039 
L 406.68562 85.824037 
L 408.024683 85.824035 
L 409.363747 85.824033 
L 410.70281 85.824031 
L 412.041873 85.82403 
L 413.380937 85.824028 
L 414.72 85.824027 
" clip-path="url(#pde801c3021)" style="fill: none; stroke: #bcbd22; stroke-width: 1.5; stroke-linecap: square"/>
   </g>
   <g id="line2d_30">
    <path d="M 286.990797 346.6 
L 287.508981 246.341905 
L 288.848044 157.025277 
L 290.187107 121.024218 
L 291.526171 104.729934 
L 292.865234 96.664788 
L 294.204298 92.378189 
L 295.543361 89.96373 
L 296.882424 88.536568 
L 298.221488 87.657922 
L 299.560551 87.097791 
L 300.899614 86.729777 
L 302.238678 86.481527 
L 303.577741 86.310127 
L 304.916804 86.189319 
L 306.255868 86.102582 
L 307.594931 86.039265 
L 308.933994 85.992344 
L 310.273058 85.957097 
L 311.612121 85.930286 
L 312.951185 85.909658 
L 314.290248 85.89362 
L 315.629311 85.881029 
L 316.968375 85.871055 
L 318.307438 85.863088 
L 319.646501 85.856675 
L 320.985565 85.851474 
L 322.324628 85.847229 
L 323.663691 85.843742 
L 325.002755 85.840859 
L 326.341818 85.838464 
L 327.680882 85.836462 
L 329.019945 85.834782 
L 330.359008 85.833364 
L 331.698072 85.832162 
L 333.037135 85.83114 
L 334.376198 85.830266 
L 335.715262 85.829516 
L 337.054325 85.828871 
L 338.393388 85.828313 
L 339.732452 85.82783 
L 341.071515 85.82741 
L 342.410579 85.827043 
L 343.749642 85.826723 
L 345.088705 85.826441 
L 346.427769 85.826194 
L 347.766832 85.825976 
L 349.105895 85.825783 
L 350.444959 85.825612 
L 351.784022 85.825461 
L 353.123085 85.825325 
L 354.462149 85.825205 
L 355.801212 85.825097 
L 357.140275 85.825001 
L 358.479339 85.824914 
L 359.818402 85.824837 
L 361.157466 85.824767 
L 362.496529 85.824703 
L 363.835592 85.824646 
L 365.174656 85.824595 
L 366.513719 85.824548 
L 367.852782 85.824505 
L 369.191846 85.824467 
L 370.530909 85.824432 
L 371.869972 85.8244 
L 373.209036 85.82437 
L 374.548099 85.824344 
L 375.887163 85.824319 
L 377.226226 85.824297 
L 378.565289 85.824276 
L 379.904353 85.824257 
L 381.243416 85.82424 
L 382.582479 85.824224 
L 383.921543 85.824209 
L 385.260606 85.824195 
L 386.599669 85.824183 
L 387.938733 85.824171 
L 389.277796 85.82416 
L 390.61686 85.82415 
L 391.955923 85.824141 
L 393.294986 85.824133 
L 394.63405 85.824125 
L 395.973113 85.824117 
L 397.312176 85.82411 
L 398.65124 85.824104 
L 399.990303 85.824098 
L 401.329366 85.824092 
L 402.66843 85.824087 
L 404.007493 85.824082 
L 405.346556 85.824078 
L 406.68562 85.824074 
L 408.024683 85.82407 
L 409.363747 85.824066 
L 410.70281 85.824062 
L 412.041873 85.824059 
L 413.380937 85.824056 
L 414.72 85.824053 
" clip-path="url(#pde801c3021)" style="fill: none; stroke: #17becf; stroke-width: 1.5; stroke-linecap: square"/>
   </g>
   <g id="line2d_31">
    <path d="M 287.44007 346.6 
L 287.508981 326.600857 
L 288.848044 192.625916 
L 290.187107 138.624327 
L 291.526171 114.182901 
L 292.865234 102.085182 
L 294.204298 95.655283 
L 295.543361 92.033595 
L 296.882424 89.892851 
L 298.221488 88.574883 
L 299.560551 87.734687 
L 300.899614 87.182666 
L 302.238678 86.81029 
L 303.577741 86.553191 
L 304.916804 86.371978 
L 306.255868 86.241873 
L 307.594931 86.146897 
L 308.933994 86.076517 
L 310.273058 86.023645 
L 311.612121 85.983428 
L 312.951185 85.952487 
L 314.290248 85.92843 
L 315.629311 85.909543 
L 316.968375 85.894582 
L 318.307438 85.882632 
L 319.646501 85.873012 
L 320.985565 85.865212 
L 322.324628 85.858844 
L 323.663691 85.853613 
L 325.002755 85.849289 
L 326.341818 85.845696 
L 327.680882 85.842694 
L 329.019945 85.840173 
L 330.359008 85.838046 
L 331.698072 85.836243 
L 333.037135 85.834709 
L 334.376198 85.833399 
L 335.715262 85.832274 
L 337.054325 85.831306 
L 338.393388 85.83047 
L 339.732452 85.829745 
L 341.071515 85.829115 
L 342.410579 85.828565 
L 343.749642 85.828084 
L 345.088705 85.827662 
L 346.427769 85.827291 
L 347.766832 85.826964 
L 349.105895 85.826675 
L 350.444959 85.826418 
L 351.784022 85.826191 
L 353.123085 85.825988 
L 354.462149 85.825808 
L 355.801212 85.825646 
L 357.140275 85.825501 
L 358.479339 85.825372 
L 359.818402 85.825255 
L 361.157466 85.82515 
L 362.496529 85.825055 
L 363.835592 85.82497 
L 365.174656 85.824892 
L 366.513719 85.824822 
L 367.852782 85.824758 
L 369.191846 85.8247 
L 370.530909 85.824647 
L 371.869972 85.824599 
L 373.209036 85.824555 
L 374.548099 85.824515 
L 375.887163 85.824479 
L 377.226226 85.824445 
L 378.565289 85.824414 
L 379.904353 85.824386 
L 381.243416 85.82436 
L 382.582479 85.824335 
L 383.921543 85.824313 
L 385.260606 85.824293 
L 386.599669 85.824274 
L 387.938733 85.824257 
L 389.277796 85.824241 
L 390.61686 85.824226 
L 391.955923 85.824212 
L 393.294986 85.824199 
L 394.63405 85.824187 
L 395.973113 85.824176 
L 397.312176 85.824166 
L 398.65124 85.824156 
L 399.990303 85.824147 
L 401.329366 85.824139 
L 402.66843 85.824131 
L 404.007493 85.824124 
L 405.346556 85.824117 
L 406.68562 85.82411 
L 408.024683 85.824105 
L 409.363747 85.824099 
L 410.70281 85.824094 
L 412.041873 85.824089 
L 413.380937 85.824084 
L 414.72 85.82408 
" clip-path="url(#pde801c3021)" style="fill: none; stroke: #1f77b4; stroke-width: 1.5; stroke-linecap: square"/>
   </g>
   <g id="line2d_32">
    <path d="M 287.960698 346.6 
L 288.848044 228.226555 
L 290.187107 156.224436 
L 291.526171 123.635868 
L 292.865234 107.505576 
L 294.204298 98.932378 
L 295.543361 94.10346 
L 296.882424 91.249135 
L 298.221488 89.491844 
L 299.560551 88.371583 
L 300.899614 87.635555 
L 302.238678 87.139054 
L 303.577741 86.796254 
L 304.916804 86.554637 
L 306.255868 86.381164 
L 307.594931 86.25453 
L 308.933994 86.160689 
L 310.273058 86.090193 
L 311.612121 86.036571 
L 312.951185 85.995316 
L 314.290248 85.96324 
L 315.629311 85.938058 
L 316.968375 85.91811 
L 318.307438 85.902176 
L 319.646501 85.889349 
L 320.985565 85.878949 
L 322.324628 85.870459 
L 323.663691 85.863483 
L 325.002755 85.857719 
L 326.341818 85.852928 
L 327.680882 85.848925 
L 329.019945 85.845564 
L 330.359008 85.842728 
L 331.698072 85.840325 
L 333.037135 85.838279 
L 334.376198 85.836532 
L 335.715262 85.835032 
L 337.054325 85.833742 
L 338.393388 85.832627 
L 339.732452 85.83166 
L 341.071515 85.83082 
L 342.410579 85.830087 
L 343.749642 85.829445 
L 345.088705 85.828883 
L 346.427769 85.828388 
L 347.766832 85.827952 
L 349.105895 85.827566 
L 350.444959 85.827225 
L 351.784022 85.826921 
L 353.123085 85.826651 
L 354.462149 85.82641 
L 355.801212 85.826195 
L 357.140275 85.826002 
L 358.479339 85.825829 
L 359.818402 85.825673 
L 361.157466 85.825533 
L 362.496529 85.825407 
L 363.835592 85.825293 
L 365.174656 85.825189 
L 366.513719 85.825096 
L 367.852782 85.825011 
L 369.191846 85.824934 
L 370.530909 85.824863 
L 371.869972 85.824799 
L 373.209036 85.824741 
L 374.548099 85.824687 
L 375.887163 85.824638 
L 377.226226 85.824593 
L 378.565289 85.824552 
L 379.904353 85.824514 
L 381.243416 85.824479 
L 382.582479 85.824447 
L 383.921543 85.824418 
L 385.260606 85.824391 
L 386.599669 85.824365 
L 387.938733 85.824342 
L 389.277796 85.824321 
L 390.61686 85.824301 
L 391.955923 85.824282 
L 393.294986 85.824265 
L 394.63405 85.824249 
L 395.973113 85.824235 
L 397.312176 85.824221 
L 398.65124 85.824208 
L 399.990303 85.824196 
L 401.329366 85.824185 
L 402.66843 85.824175 
L 404.007493 85.824165 
L 405.346556 85.824156 
L 406.68562 85.824147 
L 408.024683 85.824139 
L 409.363747 85.824132 
L 410.70281 85.824125 
L 412.041873 85.824118 
L 413.380937 85.824112 
L 414.72 85.824107 
" clip-path="url(#pde801c3021)" style="fill: none; stroke: #ff7f0e; stroke-width: 1.5; stroke-linecap: square"/>
   </g>
   <g id="line2d_33">
    <path d="M 284.645825 346.6 
L 284.830854 250.936866 
L 286.169917 131.756508 
L 287.508981 101.95761 
L 288.848044 92.481785 
L 290.187107 88.915757 
L 291.526171 87.395354 
L 292.865234 86.681585 
L 294.204298 86.319813 
L 295.543361 86.124637 
L 296.882424 86.013731 
L 298.221488 85.94789 
L 299.560551 85.907309 
L 300.899614 85.881472 
L 302.238678 85.86455 
L 303.577741 85.853186 
L 304.916804 85.845383 
L 306.255868 85.839918 
L 307.594931 85.836022 
L 308.933994 85.833198 
L 310.273058 85.831122 
L 311.612121 85.829575 
L 312.951185 85.828408 
L 314.290248 85.827517 
L 315.629311 85.82683 
L 316.968375 85.826296 
L 318.307438 85.825876 
L 319.646501 85.825543 
L 320.985565 85.825278 
L 322.324628 85.825064 
L 323.663691 85.824892 
L 325.002755 85.824751 
L 326.341818 85.824635 
L 327.680882 85.82454 
L 329.019945 85.824461 
L 330.359008 85.824396 
L 331.698072 85.824341 
L 333.037135 85.824295 
L 334.376198 85.824256 
L 335.715262 85.824222 
L 337.054325 85.824194 
L 338.393388 85.82417 
L 339.732452 85.82415 
L 341.071515 85.824132 
L 342.410579 85.824116 
L 343.749642 85.824103 
L 345.088705 85.824092 
L 346.427769 85.824082 
L 347.766832 85.824073 
L 349.105895 85.824065 
L 350.444959 85.824058 
L 351.784022 85.824052 
L 353.123085 85.824047 
L 354.462149 85.824042 
L 355.801212 85.824038 
L 357.140275 85.824035 
L 358.479339 85.824031 
L 359.818402 85.824029 
L 361.157466 85.824026 
L 362.496529 85.824024 
L 363.835592 85.824022 
L 365.174656 85.82402 
L 366.513719 85.824018 
L 367.852782 85.824016 
L 369.191846 85.824015 
L 370.530909 85.824014 
L 371.869972 85.824013 
L 373.209036 85.824012 
L 374.548099 85.824011 
L 375.887163 85.82401 
L 377.226226 85.824009 
L 378.565289 85.824009 
L 379.904353 85.824008 
L 381.243416 85.824007 
L 382.582479 85.824007 
L 383.921543 85.824006 
L 385.260606 85.824006 
L 386.599669 85.824005 
L 387.938733 85.824005 
L 389.277796 85.824005 
L 390.61686 85.824004 
L 391.955923 85.824004 
L 393.294986 85.824004 
L 394.63405 85.824004 
L 395.973113 85.824003 
L 397.312176 85.824003 
L 398.65124 85.824003 
L 399.990303 85.824003 
L 401.329366 85.824003 
L 402.66843 85.824002 
L 404.007493 85.824002 
L 405.346556 85.824002 
L 406.68562 85.824002 
L 408.024683 85.824002 
L 409.363747 85.824002 
L 410.70281 85.824002 
L 412.041873 85.824002 
L 413.380937 85.824002 
L 414.72 85.824001 
" clip-path="url(#pde801c3021)" style="fill: none; stroke: #2ca02c; stroke-width: 1.5; stroke-linecap: square"/>
   </g>
   <g id="line2d_34">
    <path d="M 285.221009 346.6 
L 286.169917 177.689017 
L 287.508981 118.091221 
L 288.848044 99.13957 
L 290.187107 92.007513 
L 291.526171 88.966709 
L 292.865234 87.539169 
L 294.204298 86.815627 
L 295.543361 86.425274 
L 296.882424 86.203463 
L 298.221488 86.07178 
L 299.560551 85.990617 
L 300.899614 85.938944 
L 302.238678 85.9051 
L 303.577741 85.882372 
L 304.916804 85.866766 
L 306.255868 85.855836 
L 307.594931 85.848043 
L 308.933994 85.842396 
L 310.273058 85.838244 
L 311.612121 85.83515 
L 312.951185 85.832815 
L 314.290248 85.831034 
L 315.629311 85.829661 
L 316.968375 85.828591 
L 318.307438 85.827752 
L 319.646501 85.827087 
L 320.985565 85.826556 
L 322.324628 85.826129 
L 323.663691 85.825783 
L 325.002755 85.825502 
L 326.341818 85.825271 
L 327.680882 85.825081 
L 329.019945 85.824923 
L 330.359008 85.824792 
L 331.698072 85.824682 
L 333.037135 85.824589 
L 334.376198 85.824511 
L 335.715262 85.824445 
L 337.054325 85.824389 
L 338.393388 85.82434 
L 339.732452 85.824299 
L 341.071515 85.824264 
L 342.410579 85.824233 
L 343.749642 85.824206 
L 345.088705 85.824183 
L 346.427769 85.824163 
L 347.766832 85.824145 
L 349.105895 85.82413 
L 350.444959 85.824117 
L 351.784022 85.824105 
L 353.123085 85.824094 
L 354.462149 85.824085 
L 355.801212 85.824077 
L 357.140275 85.824069 
L 358.479339 85.824063 
L 359.818402 85.824057 
L 361.157466 85.824052 
L 362.496529 85.824047 
L 363.835592 85.824043 
L 365.174656 85.824039 
L 366.513719 85.824036 
L 367.852782 85.824033 
L 369.191846 85.82403 
L 370.530909 85.824028 
L 371.869972 85.824026 
L 373.209036 85.824023 
L 374.548099 85.824022 
L 375.887163 85.82402 
L 377.226226 85.824018 
L 378.565289 85.824017 
L 379.904353 85.824016 
L 381.243416 85.824015 
L 382.582479 85.824014 
L 383.921543 85.824013 
L 385.260606 85.824012 
L 386.599669 85.824011 
L 387.938733 85.82401 
L 389.277796 85.824009 
L 390.61686 85.824009 
L 391.955923 85.824008 
L 393.294986 85.824008 
L 394.63405 85.824007 
L 395.973113 85.824007 
L 397.312176 85.824006 
L 398.65124 85.824006 
L 399.990303 85.824006 
L 401.329366 85.824005 
L 402.66843 85.824005 
L 404.007493 85.824005 
L 405.346556 85.824004 
L 406.68562 85.824004 
L 408.024683 85.824004 
L 409.363747 85.824004 
L 410.70281 85.824003 
L 412.041873 85.824003 
L 413.380937 85.824003 
L 414.72 85.824003 
" clip-path="url(#pde801c3021)" style="fill: none; stroke: #d62728; stroke-width: 1.5; stroke-linecap: square"/>
   </g>
   <g id="line2d_35">
    <path d="M 285.709338 346.6 
L 286.169917 223.621525 
L 287.508981 134.224831 
L 288.848044 105.797354 
L 290.187107 95.09927 
L 291.526171 90.538063 
L 292.865234 88.396754 
L 294.204298 87.31144 
L 295.543361 86.725911 
L 296.882424 86.393194 
L 298.221488 86.195669 
L 299.560551 86.073926 
L 300.899614 85.996416 
L 302.238678 85.94565 
L 303.577741 85.911558 
L 304.916804 85.888149 
L 306.255868 85.871754 
L 307.594931 85.860065 
L 308.933994 85.851595 
L 310.273058 85.845366 
L 311.612121 85.840725 
L 312.951185 85.837223 
L 314.290248 85.834551 
L 315.629311 85.832491 
L 316.968375 85.830887 
L 318.307438 85.829628 
L 319.646501 85.82863 
L 320.985565 85.827834 
L 322.324628 85.827193 
L 323.663691 85.826675 
L 325.002755 85.826253 
L 326.341818 85.825906 
L 327.680882 85.825621 
L 329.019945 85.825384 
L 330.359008 85.825187 
L 331.698072 85.825022 
L 333.037135 85.824884 
L 334.376198 85.824767 
L 335.715262 85.824667 
L 337.054325 85.824583 
L 338.393388 85.824511 
L 339.732452 85.824449 
L 341.071515 85.824395 
L 342.410579 85.824349 
L 343.749642 85.824309 
L 345.088705 85.824275 
L 346.427769 85.824245 
L 347.766832 85.824218 
L 349.105895 85.824195 
L 350.444959 85.824175 
L 351.784022 85.824157 
L 353.123085 85.824141 
L 354.462149 85.824127 
L 355.801212 85.824115 
L 357.140275 85.824104 
L 358.479339 85.824094 
L 359.818402 85.824086 
L 361.157466 85.824078 
L 362.496529 85.824071 
L 363.835592 85.824065 
L 365.174656 85.824059 
L 366.513719 85.824054 
L 367.852782 85.824049 
L 369.191846 85.824045 
L 370.530909 85.824042 
L 371.869972 85.824038 
L 373.209036 85.824035 
L 374.548099 85.824032 
L 375.887163 85.82403 
L 377.226226 85.824028 
L 378.565289 85.824026 
L 379.904353 85.824024 
L 381.243416 85.824022 
L 382.582479 85.82402 
L 383.921543 85.824019 
L 385.260606 85.824018 
L 386.599669 85.824016 
L 387.938733 85.824015 
L 389.277796 85.824014 
L 390.61686 85.824013 
L 391.955923 85.824012 
L 393.294986 85.824012 
L 394.63405 85.824011 
L 395.973113 85.82401 
L 397.312176 85.824009 
L 398.65124 85.824009 
L 399.990303 85.824008 
L 401.329366 85.824008 
L 402.66843 85.824007 
L 404.007493 85.824007 
L 405.346556 85.824006 
L 406.68562 85.824006 
L 408.024683 85.824006 
L 409.363747 85.824005 
L 410.70281 85.824005 
L 412.041873 85.824005 
L 413.380937 85.824005 
L 414.72 85.824004 
" clip-path="url(#pde801c3021)" style="fill: none; stroke: #9467bd; stroke-width: 1.5; stroke-linecap: square"/>
   </g>
   <g id="line2d_36">
    <path d="M 285.953503 346.6 
L 286.169917 269.554033 
L 287.508981 150.358442 
L 288.848044 112.455139 
L 290.187107 98.191026 
L 291.526171 92.109417 
L 292.865234 89.254338 
L 294.204298 87.807254 
L 295.543361 87.026548 
L 296.882424 86.582926 
L 298.221488 86.319559 
L 299.560551 86.157235 
L 300.899614 86.053888 
L 302.238678 85.9862 
L 303.577741 85.940744 
L 304.916804 85.909532 
L 306.255868 85.887673 
L 307.594931 85.872087 
L 308.933994 85.860793 
L 310.273058 85.852488 
L 311.612121 85.846299 
L 312.951185 85.84163 
L 314.290248 85.838068 
L 315.629311 85.835321 
L 316.968375 85.833183 
L 318.307438 85.831504 
L 319.646501 85.830173 
L 320.985565 85.829111 
L 322.324628 85.828258 
L 323.663691 85.827567 
L 325.002755 85.827003 
L 326.341818 85.826542 
L 327.680882 85.826161 
L 329.019945 85.825846 
L 330.359008 85.825583 
L 331.698072 85.825363 
L 333.037135 85.825178 
L 334.376198 85.825022 
L 335.715262 85.82489 
L 337.054325 85.824777 
L 338.393388 85.824681 
L 339.732452 85.824598 
L 341.071515 85.824527 
L 342.410579 85.824466 
L 343.749642 85.824413 
L 345.088705 85.824366 
L 346.427769 85.824326 
L 347.766832 85.824291 
L 349.105895 85.82426 
L 350.444959 85.824233 
L 351.784022 85.824209 
L 353.123085 85.824188 
L 354.462149 85.82417 
L 355.801212 85.824153 
L 357.140275 85.824139 
L 358.479339 85.824126 
L 359.818402 85.824114 
L 361.157466 85.824104 
L 362.496529 85.824095 
L 363.835592 85.824086 
L 365.174656 85.824079 
L 366.513719 85.824072 
L 367.852782 85.824066 
L 369.191846 85.82406 
L 370.530909 85.824056 
L 371.869972 85.824051 
L 373.209036 85.824047 
L 374.548099 85.824043 
L 375.887163 85.82404 
L 377.226226 85.824037 
L 378.565289 85.824034 
L 379.904353 85.824032 
L 381.243416 85.824029 
L 382.582479 85.824027 
L 383.921543 85.824025 
L 385.260606 85.824023 
L 386.599669 85.824022 
L 387.938733 85.82402 
L 389.277796 85.824019 
L 390.61686 85.824018 
L 391.955923 85.824016 
L 393.294986 85.824015 
L 394.63405 85.824014 
L 395.973113 85.824013 
L 397.312176 85.824013 
L 398.65124 85.824012 
L 399.990303 85.824011 
L 401.329366 85.82401 
L 402.66843 85.82401 
L 404.007493 85.824009 
L 405.346556 85.824009 
L 406.68562 85.824008 
L 408.024683 85.824008 
L 409.363747 85.824007 
L 410.70281 85.824007 
L 412.041873 85.824006 
L 413.380937 85.824006 
L 414.72 85.824006 
" clip-path="url(#pde801c3021)" style="fill: none; stroke: #8c564b; stroke-width: 1.5; stroke-linecap: square"/>
   </g>
   <g id="patch_8">
    <path d="M 252.392727 307.584 
L 252.392727 41.472 
" style="fill: none; stroke: #000000; stroke-width: 0.8; stroke-linejoin: miter; stroke-linecap: square"/>
   </g>
   <g id="patch_9">
    <path d="M 414.72 307.584 
L 414.72 41.472 
" style="fill: none; stroke: #000000; stroke-width: 0.8; stroke-linejoin: miter; stroke-linecap: square"/>
   </g>
   <g id="patch_10">
    <path d="M 252.392727 307.584 
L 414.72 307.584 
" style="fill: none; stroke: #000000; stroke-width: 0.8; stroke-linejoin: miter; stroke-linecap: square"/>
   </g>
   <g id="patch_11">
    <path d="M 252.392727 41.472 
L 414.72 41.472 
" style="fill: none; stroke: #000000; stroke-width: 0.8; stroke-linejoin: miter; stroke-linecap: square"/>
   </g>
  </g>
  <g id="text_21">
   <!-- t = 2.1000000000000005 -->
   <g transform="translate(152.401875 16.030125) scale(0.12 -0.12)">
    <defs>
     <path id="DejaVuSans-74" d="M 1172 4494 
L 1172 3500 
L 2356 3500 
L 2356 3053 
L 1172 3053 
L 1172 1153 
Q 1172 725 1289 603 
Q 1406 481 1766 481 
L 2356 481 
L 2356 0 
L 1766 0 
Q 1100 0 847 248 
Q 594 497 594 1153 
L 594 3053 
L 172 3053 
L 172 3500 
L 594 3500 
L 594 4494 
L 1172 4494 
z
" transform="scale(0.015625)"/>
     <path id="DejaVuSans-20" transform="scale(0.015625)"/>
     <path id="DejaVuSans-3d" d="M 678 2906 
L 4684 2906 
L 4684 2381 
L 678 2381 
L 678 2906 
z
M 678 1631 
L 4684 1631 
L 4684 1100 
L 678 1100 
L 678 1631 
z
" transform="scale(0.015625)"/>
    </defs>
    <use xlink:href="#DejaVuSans-74"/>
    <use xlink:href="#DejaVuSans-20" x="39.208984"/>
    <use xlink:href="#DejaVuSans-3d" x="70.996094"/>
    <use xlink:href="#DejaVuSans-20" x="154.785156"/>
    <use xlink:href="#DejaVuSans-32" x="186.572266"/>
    <use xlink:href="#DejaVuSans-2e" x="250.195312"/>
    <use xlink:href="#DejaVuSans-31" x="281.982422"/>
    <use xlink:href="#DejaVuSans-30" x="345.605469"/>
    <use xlink:href="#DejaVuSans-30" x="409.228516"/>
    <use xlink:href="#DejaVuSans-30" x="472.851562"/>
    <use xlink:href="#DejaVuSans-30" x="536.474609"/>
    <use xlink:href="#DejaVuSans-30" x="600.097656"/>
    <use xlink:href="#DejaVuSans-30" x="663.720703"/>
    <use xlink:href="#DejaVuSans-30" x="727.34375"/>
    <use xlink:href="#DejaVuSans-30" x="790.966797"/>
    <use xlink:href="#DejaVuSans-30" x="854.589844"/>
    <use xlink:href="#DejaVuSans-30" x="918.212891"/>
    <use xlink:href="#DejaVuSans-30" x="981.835938"/>
    <use xlink:href="#DejaVuSans-30" x="1045.458984"/>
    <use xlink:href="#DejaVuSans-30" x="1109.082031"/>
    <use xlink:href="#DejaVuSans-30" x="1172.705078"/>
    <use xlink:href="#DejaVuSans-35" x="1236.328125"/>
   </g>
  </g>
 </g>
 <defs>
  <clipPath id="pd08e63373e">
   <rect x="57.6" y="41.472" width="162.327273" height="266.112"/>
  </clipPath>
  <clipPath id="pde801c3021">
   <rect x="252.392727" y="41.472" width="162.327273" height="266.112"/>
  </clipPath>
 </defs>
</svg>
